<svg width="96" height="63" viewBox="0 0 116 63" fill="none" xmlns="http://www.w3.org/2000/svg">
<g clip-path="url(#clip0)">
<path d="M115.6 55.0698C114.545 55.3017 113.533 55.6964 112.6 56.2398C110.84 57.1498 110.52 59.3498 108.89 60.3898" fill="#FCFCFA"/>
<path d="M27.8701 33.28C29.5301 28.56 29.5301 22.89 35.0901 20.34C36.4301 19.54 37.2201 20.03 37.6401 21.41C37.6462 21.8676 37.5542 22.3211 37.3701 22.74C37.0029 23.3179 36.5396 23.8286 36.0001 24.25C33.6601 25.79 33.8501 27.96 34.5301 30.25C34.5743 30.6868 34.5054 31.1276 34.3301 31.5301C33.6201 32.5301 32.1301 32.6401 31.5401 33.8301C31.4202 34.1175 31.2348 34.373 30.9987 34.5761C30.7625 34.7792 30.4823 34.9244 30.1801 35C29.7745 35.0134 29.3711 34.9348 29.0001 34.7701C28.7085 34.6271 28.4545 34.4179 28.2582 34.1592C28.062 33.9005 27.9291 33.5994 27.8701 33.28V33.28Z" fill="#DFC295"/>
<path d="M12.0897 45.4101C13.6897 44.8201 13.7697 43.7001 13.1497 42.3401C14.2597 40.8501 12.9197 38.8901 14.0897 37.4101L14.1497 35.4101C16.8997 33.7101 19.7297 32.3301 23.1497 33.4101C23.2297 35.7501 20.4297 36.5301 20.2597 38.7501C20.01 39.1185 19.6402 39.3887 19.2134 39.5145C18.7865 39.6404 18.3293 39.6141 17.9197 39.4401C17.6097 39.1401 17.1597 38.4401 16.9897 38.6101C16.4397 39.1201 17.1997 39.5401 17.3397 40.0401C17.5979 40.8958 17.5229 41.8175 17.1297 42.6201C16.7097 43.6201 16.3397 44.6801 15.9197 45.7101C15.6982 46.1403 15.384 46.516 14.9997 46.8101C14.3779 47.1132 13.6674 47.1807 12.9997 47.0001C12.2897 46.7001 11.7797 46.2801 12.0897 45.4101Z" fill="#F7DFB4"/>
<path d="M20.0601 38.3902C18.5201 35.1702 22.0601 35.1002 23.1101 33.4502L24.9001 34.2702C25.7901 33.7802 26.1601 34.2702 26.3801 35.0502C26.3285 35.3888 26.2009 35.7113 26.0069 35.9936C25.813 36.2759 25.5576 36.5106 25.2601 36.6802C23.2801 36.4702 22.0701 38.6402 20.0601 38.3902Z" fill="#E5C490"/>
<path d="M26.0704 35.3803L24.9004 34.2703C25.2935 33.8893 25.7672 33.6016 26.2865 33.4285C26.8058 33.2554 27.3574 33.2013 27.9004 33.2703L29.1204 34.3503C29.0762 34.6371 28.9702 34.911 28.8096 35.1527C28.649 35.3945 28.4377 35.5984 28.1904 35.7503C27.821 35.9323 27.4118 36.0183 27.0004 36.0003C26.629 35.9051 26.3011 35.6864 26.0704 35.3803Z" fill="#E8C79A"/>
<path d="M48.0903 53.5101L47.0903 53.2301C45.4203 52.8201 43.7403 52.3801 42.0903 53.3301H41.6103H41.1303C40.3103 52.8301 39.5503 52.3301 39.8403 51.1401C41.6287 48.8386 42.8022 46.12 43.2503 43.2401C43.599 42.9526 44.0234 42.7723 44.4724 42.7208C44.9214 42.6693 45.3756 42.749 45.7803 42.9501C46.4703 44.3701 47.1303 45.8101 47.8503 47.2301C48.0703 48.2301 47.7303 49.3001 48.3003 50.2301C48.9271 50.7812 49.3906 51.4937 49.6403 52.2901C49.65 52.7277 49.5318 53.1586 49.3003 53.5301C49.1294 53.6717 48.9135 53.7475 48.6916 53.7438C48.4697 53.7402 48.2564 53.6572 48.0903 53.5101Z" fill="#E5C38A"/>
<path d="M27.1701 51.2601L21.0801 51.3101C21.6839 50.1807 21.8883 48.8804 21.6601 47.6201C23.4801 45.1401 27.1901 45.0201 28.6601 42.0501C29.4301 41.3901 30.2301 40.8501 31.3001 41.3101C31.7791 41.8692 32.0541 42.5744 32.0801 43.3101C32.0577 44.3571 31.7811 45.3829 31.2742 46.2992C30.7672 47.2156 30.0451 47.9949 29.1701 48.5701C28.5315 48.9992 28.0395 49.6133 27.7601 50.3301C27.6356 50.6804 27.434 50.9983 27.1701 51.2601V51.2601Z" fill="#F5D7A5"/>
<path d="M48.0898 53.5102C48.4164 53.4154 48.7512 53.3518 49.0898 53.3202C51.4101 52.3409 53.8415 51.6491 56.3298 51.2602C57.5189 51.163 58.7158 51.2679 59.8698 51.5702C61.0558 51.8417 62.1662 52.3747 63.1198 53.1302C63.2415 53.3348 63.2862 53.5762 63.2459 53.8108C63.2056 54.0454 63.0829 54.258 62.8998 54.4102C59.2098 54.6802 55.4398 52.9702 51.7698 55.2602C50.5398 56.0002 48.8698 55.0002 48.0898 53.5102Z" fill="#FBF8EE"/>
<path d="M19.11 51.4401L17.11 53.4401C15.5808 54.2754 13.8957 54.7861 12.16 54.9401C10.08 54.1601 10.85 52.8501 11.94 52.1201C13.78 50.9101 15.46 49.2601 17.85 49.1201C18.89 49.5401 19.62 50.1801 19.11 51.4401Z" fill="#EFD19D"/>
<path d="M74.0703 55.4298C73.8607 55.7639 73.5633 56.0339 73.2105 56.2103C72.8578 56.3866 72.4633 56.4626 72.0703 56.4298C70.9203 57.4298 69.6903 58.2098 68.0703 57.4298C67.2403 55.7098 64.5403 57.9898 64.0703 55.5398C64.3482 55.1804 64.6945 54.8796 65.0893 54.6547C65.484 54.4299 65.9194 54.2855 66.3703 54.2298C69.0003 54.1498 71.7703 53.2998 74.0703 55.4298Z" fill="#FBF8EE"/>
<path d="M19.1098 51.4401L17.9998 49.3601C16.8198 47.5901 18.2198 46.9301 19.3798 46.1601C19.8175 45.9855 20.2938 45.9302 20.7598 46.0001C20.9653 46.0939 21.1474 46.2323 21.2927 46.4053C21.438 46.5783 21.5429 46.7815 21.5998 47.0001C21.6748 47.7759 21.5784 48.5586 21.3175 49.293C21.0566 50.0274 20.6375 50.6955 20.0898 51.2501L19.1098 51.4401Z" fill="#F3CE89"/>
<path d="M12.0905 54.3702C13.6276 53.5081 15.4063 53.1777 17.1505 53.4302L14.0805 56.3702C13.791 56.6374 13.4185 56.7971 13.0253 56.8226C12.6321 56.8481 12.2421 56.7378 11.9205 56.5102C11.6869 56.1927 11.5755 55.8016 11.6067 55.4086C11.6379 55.0156 11.8097 54.647 12.0905 54.3702V54.3702Z" fill="#F4DCB5"/>
<path d="M71.0703 59.38C69.6103 59.38 68.1603 59.38 68.0703 57.38C69.2648 56.6333 70.6649 56.2833 72.0703 56.38L71.0703 59.38Z" fill="#FEFEFE"/>
<path d="M27.1703 51.26C27.1703 50.97 27.0903 50.68 27.0703 50.38C27.6103 49.31 27.6103 49.31 31.2203 48.74C31.6854 48.7208 32.1501 48.7886 32.5903 48.94C33.4703 49.57 33.9003 50.3 33.0603 51.27L27.1703 51.26Z" fill="#B39569"/>
<path d="M20.0898 51.2502L21.0898 46.3702C21.9698 46.1902 22.3798 46.4802 22.1498 47.3702C22.6398 48.9002 23.7898 50.6002 21.0998 51.2702H20.5998L20.0898 51.2502Z" fill="#DEB776"/>
<path d="M33.0599 51.2699C33.1008 50.8883 33.0276 50.5032 32.8496 50.1632C32.6716 49.8232 32.3968 49.5436 32.0599 49.3599C31.7299 47.7399 32.6399 47.2199 34.0599 47.1299C35.4899 48.1899 36.4999 49.4699 36.3399 51.3899C36.2725 51.4828 36.1824 51.5569 36.0782 51.605C35.9739 51.6531 35.8591 51.6737 35.7446 51.6646C35.6302 51.6556 35.52 51.6173 35.4246 51.5534C35.3292 51.4896 35.2518 51.4023 35.1999 51.2999L33.0599 51.2699Z" fill="#C5A36F"/>
<path d="M35.1602 51.3C35.3706 51.2502 35.5897 51.2502 35.8002 51.3C36.079 51.0188 36.4109 50.7956 36.7764 50.6433C37.142 50.491 37.5341 50.4126 37.9302 50.4126C38.3262 50.4126 38.7183 50.491 39.0839 50.6433C39.4495 50.7956 39.7813 51.0188 40.0602 51.3L41.0602 53.24C39.0502 52.84 36.8102 53 35.1602 51.3Z" fill="#DDC8A5"/>
<path d="M66.0696 55.3202L64.0696 55.4902L62.8896 54.4102C62.9674 54.1101 62.9911 53.7986 62.9596 53.4902C63.2475 53.0719 63.6836 52.7788 64.1796 52.6702C64.5539 52.6076 64.9374 52.627 65.3034 52.7271C65.6694 52.8273 66.0094 53.0058 66.2997 53.2502C66.5033 53.5697 66.5915 53.9492 66.5497 54.3258C66.5078 54.7023 66.3384 55.0532 66.0696 55.3202V55.3202Z" fill="#DAC096"/>
<path d="M42.0498 53.3302C43.6698 51.0102 45.3698 52.4002 47.0498 53.2302L42.0498 53.3302Z" fill="#DDC8A5"/>
<path d="M100.09 49.46C99.5703 51.78 98.9403 54.01 96.0903 54.46C95.2503 52.13 97.9703 50.89 97.8203 48.77C98.6103 48.15 98.3503 47.09 98.8203 46.33C98.3103 47.01 98.6603 48.04 97.9303 48.64C96.7403 52.64 94.2003 53.94 90.2703 52.49C87.9903 51.34 87.7003 49.49 88.2703 47.22C90.0703 45.73 93.9103 46.72 93.6903 42.76C94.4003 41.92 95.1903 41.6 96.1503 42.39C98.4003 41.57 100.15 41.94 100.94 44.46C100 46 101.15 47.92 100.09 49.46Z" fill="#F9DFB1"/>
<path d="M96.1598 42.37C95.7502 42.3276 95.3369 42.3985 94.9649 42.5748C94.5928 42.7512 94.2763 43.0262 94.0498 43.37C92.9398 44.84 91.7398 46.15 89.6498 45.93C88.3398 45.71 87.0098 46.15 85.6498 45.75C84.5098 45.03 82.9098 44.46 84.6498 42.75C85.8031 42.1103 87.0376 41.6292 88.3198 41.32C88.5193 41.2856 88.7097 41.211 88.8794 41.1006C89.0491 40.9903 89.1946 40.8465 89.3069 40.678C89.4192 40.5096 89.496 40.32 89.5326 40.1209C89.5692 39.9218 89.5648 39.7173 89.5198 39.52C89.4908 39.0983 89.5382 38.6748 89.6598 38.27C89.98 37.7052 90.4747 37.2596 91.0698 37C91.4764 36.8852 91.9039 36.8647 92.3198 36.94C93.6398 37.25 92.4898 39.41 94.1898 39.45C94.6698 40.5 96.2298 40.9 96.1598 42.37Z" fill="#EDCC96"/>
<path d="M85.0704 43.3702C83.9904 44.7302 86.2104 44.4702 86.0704 45.3702C88.4104 47.3702 88.7804 49.7202 87.0704 52.3702C86.7504 52.3702 86.4304 52.4802 86.0704 52.5202C84.4304 52.8702 84.3504 51.4402 83.7904 50.5202C83.0904 48.6902 81.0504 49.6002 79.9304 48.6402C79.6558 48.2876 79.486 47.8648 79.4404 47.4202C80.5704 45.7402 79.0904 42.7402 82.1404 42.0002C82.5692 41.8478 83.0166 41.7537 83.4704 41.7202C84.4404 41.9002 85.4204 42.0002 85.0704 43.3702Z" fill="#F5D8A6"/>
<path d="M98.0503 48.3898C98.5103 50.7698 97.3703 52.6298 96.0503 54.3898C92.7403 56.1298 89.9503 55.6998 87.8203 52.4498C88.5803 51.1798 90.1803 52.3698 91.0203 51.3398C94.6403 53.3398 96.0903 50.2598 98.0203 48.3398L98.0503 48.3898Z" fill="#ECCB94"/>
<path d="M85.0602 49.3899C85.0602 50.5399 84.9602 51.7399 86.1202 52.5099L84.2002 54.3899C82.9402 55.3099 81.8802 54.5299 80.7802 53.9899C80.2501 53.6431 79.7935 53.1952 79.4366 52.6719C79.0797 52.1486 78.8295 51.56 78.7002 50.9399C78.7232 50.4284 78.9416 49.9452 79.3102 49.5899C81.2002 48.7099 83.1002 48.3499 85.0602 49.3899Z" fill="#F8E8CB"/>
<path d="M91.0503 51.3901C90.2903 52.6301 88.9803 52.2901 87.8503 52.5001C87.5917 52.4884 87.336 52.4413 87.0903 52.3601C86.6603 50.1701 88.2603 47.3601 85.0303 46.0501C85.0303 46.0501 85.0303 45.7001 85.1303 45.6701C85.4299 45.5524 85.7373 45.4555 86.0503 45.3801C87.1103 45.0601 88.2203 43.8101 89.1803 45.5301C89.4603 45.7301 89.5503 45.9201 89.4403 46.1001C89.3303 46.2801 89.2503 46.3701 89.1503 46.3701C89.3803 48.2001 87.8903 50.6801 91.0503 51.3901Z" fill="#E3C18A"/>
<path d="M77 53.3298L75 54.3898C70.65 55.3098 70.33 55.1698 70.25 52.4498C70.8257 51.5652 71.6292 50.8522 72.576 50.3859C73.5228 49.9195 74.5778 49.7171 75.63 49.7998C76.1299 49.9444 76.5785 50.2279 76.9237 50.6174C77.2688 51.0068 77.4964 51.4862 77.58 51.9998C77.5974 52.2518 77.5538 52.5043 77.4529 52.7358C77.3519 52.9674 77.1965 53.1711 77 53.3298V53.3298Z" fill="#C3A065"/>
<path d="M71.0005 52.39C70.6005 56.49 73.8205 53.39 75.0005 54.39L74.0605 55.39L66.0605 55.2799V53.38C66.4559 52.7643 67.0188 52.2744 67.6832 51.9679C68.3475 51.6614 69.0856 51.5511 69.8105 51.65C70.2708 51.7755 70.6844 52.0327 71.0005 52.39V52.39Z" fill="#EACF9D"/>
<path d="M94.1904 39.3998C92.3204 39.9198 92.9204 37.8698 92.0604 37.3998C91.2404 36.5198 90.2704 35.6898 91.0604 34.2998L92.9804 34.5098C93.3704 36.1098 95.8904 37.2398 94.1904 39.3998Z" fill="#E9CFAD"/>
<path d="M77 53.3298C77 52.9998 77.07 52.6698 77.11 52.3298C77.2524 52.1719 77.4247 52.0437 77.617 51.9527C77.8092 51.8618 78.0176 51.8098 78.23 51.7998C79.2328 52.1777 80.1784 52.6926 81.04 53.3298L84.16 54.3298C81.42 56.6898 79.32 54.3798 77 53.3298Z" fill="#DAC3A4"/>
<path d="M96.4102 36.75L101.83 39.6C98.7302 40 98.7302 40 96.4102 36.75Z" fill="#FEFEFE"/>
<path d="M100.09 49.46C100.28 47.77 99.4302 45.9 100.95 44.46C101 46.17 101.64 48 100.09 49.46Z" fill="#E3D5BA"/>
<path d="M77.0001 18.42L77.0601 21.42C76.4391 21.9613 75.715 22.3715 74.9313 22.6259C74.1477 22.8802 73.3207 22.9735 72.5001 22.9C71.7757 22.7727 71.0908 22.4782 70.5001 22.04C69.4914 21.3776 68.6384 20.5041 68.0001 19.48C67.1401 17.61 66.4501 15.75 68.4201 14.11C68.7425 13.9819 69.0972 13.9594 69.4332 14.0456C69.7692 14.1319 70.0692 14.3225 70.2901 14.59C71.3601 15.15 70.1101 18.73 73.1101 16.75C73.2659 16.1575 73.6185 15.6356 74.1101 15.27C76.2701 15.2 75.7501 17.62 77.0001 18.42Z" fill="#F0DBB2"/>
<path d="M55.0003 4.14026L55.7503 3.39026C57.4403 2.16026 58.8103 3.05026 60.1603 4.07026C61.5003 6.19026 60.4803 7.65026 58.8303 8.96026C57.9717 9.65096 56.9279 10.072 55.8303 10.1703C55.2935 10.2132 54.7584 10.0681 54.3169 9.75975C53.8754 9.4514 53.5548 8.99905 53.4103 8.48026C53.2803 6.78026 54.4603 5.57026 55.0003 4.14026Z" fill="#F9E8C3"/>
<path d="M69.1501 14.42C67.1501 16.01 68.4001 17.71 69.0001 19.42C68.8348 19.5739 68.6392 19.6916 68.4258 19.7655C68.2124 19.8393 67.9859 19.8678 67.7608 19.8489C67.5357 19.8301 67.3171 19.7644 67.1189 19.6561C66.9208 19.5478 66.7474 19.3992 66.6101 19.22C65.9755 18.1807 65.6798 16.9698 65.7641 15.755C65.8483 14.5403 66.3082 13.3818 67.0801 12.44C69.0801 11.44 71.2301 10.07 72.4301 13.44C71.6001 14.62 70.1901 13.89 69.1501 14.42Z" fill="#E2C795"/>
<path d="M50.08 11.4002C50.3737 11.2915 50.6791 11.2176 50.99 11.1802C52.67 12.0302 54.57 12.1002 56.34 12.6202C56.7934 12.8436 57.1746 13.1901 57.44 13.6202C57.84 15.7502 56.51 16.1802 54.83 16.2802C53.5404 16.0381 52.2069 16.2955 51.1 17.0002C49.22 18.2102 48.42 17.2202 48.29 15.3102C48.4195 13.8398 49.0516 12.459 50.08 11.4002V11.4002Z" fill="#D1AF76"/>
<path d="M58.07 8.43014C59.07 7.27014 60.48 6.30014 60.07 4.43014C59.76 3.59014 60.07 3.25014 60.93 3.43014C61.817 4.53346 62.2625 5.92691 62.18 7.34014C62.18 8.54014 63.92 9.15014 63.18 10.5701C61.75 11.4401 60.33 11.0301 58.91 10.5701C58.21 10.0001 57.56 9.46014 58.07 8.43014Z" fill="#EAD2A4"/>
<path d="M67.0798 12.4002V19.4002C66.8956 19.5376 66.6853 19.6359 66.4618 19.6892C66.2383 19.7425 66.0062 19.7497 65.7798 19.7102C62.5798 17.4802 62.9998 14.8602 64.9998 12.0802C65.2152 12.0044 65.4472 11.9886 65.6709 12.0344C65.8945 12.0802 66.1016 12.1859 66.2698 12.3402C66.5413 12.3278 66.8132 12.348 67.0798 12.4002V12.4002Z" fill="#F5D6A3"/>
<path d="M45.0703 15.4199L44.0703 13.4199L48.0703 12.4199C49.0703 13.3499 48.6703 14.5099 48.5603 15.6299C48.1103 16.9399 47.4803 18.1699 45.8103 17.7499C44.5303 17.3799 44.4403 16.4499 45.0703 15.4199Z" fill="#F8EACA"/>
<path d="M56.0596 13.3802C54.1896 13.0602 51.5396 14.5402 50.9896 11.1802C50.9396 10.889 50.9396 10.5914 50.9896 10.3002C52.2796 9.63018 53.4996 10.2102 54.7396 10.5002C56.0596 11.0502 57.1296 11.7302 56.0596 13.3802Z" fill="#ECC688"/>
<path d="M66.2401 12.3401L65.0801 12.4101C64.0801 12.9201 63.3801 12.4101 62.7901 11.6001C62.7059 11.3958 62.6876 11.1704 62.7378 10.9552C62.788 10.7401 62.9042 10.546 63.0701 10.4001C63.0701 9.28008 60.7801 8.86008 62.1601 7.33008C64.0701 8.55008 65.6901 10.0001 66.2401 12.3401Z" fill="#D6BF96"/>
<path d="M69.1504 14.4199C69.9404 13.0999 71.2604 13.5199 72.4304 13.4199L74.0904 15.2699V17.4099C72.0904 18.0999 71.2104 16.4999 70.0904 15.4099L69.1504 14.4199Z" fill="#F6E3BC"/>
<path d="M60.9103 3.42004L60.0503 4.42004L55.7803 3.42004C57.5103 -0.279963 59.2103 1.84004 60.9103 3.42004Z" fill="#DCC7A2"/>
<path d="M55 4.14014L54 8.40014C53.34 9.72014 52.48 10.4601 51 9.40014C52.43 7.68014 53.14 5.46014 55 4.14014Z" fill="#E2D0B2"/>
<path d="M51.0598 9.39014L54.0598 8.39014C54.2791 8.73822 54.5878 9.0211 54.9536 9.20929C55.3195 9.39749 55.7291 9.48412 56.1398 9.46014C56.5398 11.2601 54.5998 10.5701 54.0698 11.3801L50.9998 10.3101C50.9698 10.0022 50.99 9.69151 51.0598 9.39014V9.39014Z" fill="#F7DBAC"/>
<path d="M48.09 15.4103L48 12.3603C48 10.5703 48.93 10.7803 50 11.3603C50.1468 12.7843 49.7543 14.2116 48.9 15.3603C48.7 15.8803 48.4 15.8603 48.09 15.4103Z" fill="#EFD8B0"/>
<path d="M12.0804 56.2801L10.0804 56.4301L10.1404 56.2801C9.24868 55.7452 8.47795 55.0307 7.87714 54.182C7.27633 53.3333 6.85857 52.3689 6.65039 51.3501C7.00039 49.1101 8.56039 47.6801 10.0904 46.2301C10.3151 45.9216 10.621 45.6815 10.9742 45.5367C11.3273 45.3919 11.7138 45.3481 12.0904 45.4101L13.0904 46.4101C13.9804 47.2901 11.6604 48.7201 13.2204 49.0601C14.7804 49.4001 14.7704 47.5501 15.0804 46.4101L15.1304 45.3301C15.5448 44.9969 16.0065 44.7272 16.5004 44.5301C18.0704 44.4301 19.8604 43.8901 20.1204 46.3601C19.5104 47.4201 17.9304 47.8101 18.0404 49.3601C16.6204 51.7001 12.8304 51.2201 12.0904 54.3601C12.0804 55.0001 12.0804 55.6501 12.0804 56.2801Z" fill="#F9DEB0"/>
<path d="M10.0702 46.23L7.07021 51.38C6.75021 51.86 6.45021 51.83 6.16021 51.38C5.91021 48.46 7.32021 46.84 10.0702 46.23Z" fill="#DECAA4"/>
<path d="M6.17008 51.3501C6.47008 51.3501 6.78008 51.3501 7.08008 51.3501C8.08008 52.9801 9.08008 54.6201 10.0801 56.2501C7.71008 56.7001 7.44008 54.2501 6.08008 53.3401C6.12008 52.7001 6.15008 52.0001 6.17008 51.3501Z" fill="#F4DCB5"/>
<path d="M14.0901 37.4102C13.8201 39.0602 14.7501 40.9402 13.1501 42.3402C13.2101 40.6502 12.4001 38.7902 14.0901 37.4102Z" fill="#DCCCAD"/>
<path d="M72.1198 22.3602C73.6146 21.5101 75.3419 21.1598 77.0498 21.3602C77.1298 21.7102 77.2098 22.0502 77.2798 22.3602C76.2798 23.8002 75.9398 25.2402 78.0398 25.8602C80.5098 26.5802 78.7698 23.7102 80.0398 23.3102C81.9798 24.4602 83.7398 25.7602 84.1998 28.1802C84.1998 29.8302 82.1998 30.5902 82.3598 32.3202C82.0409 32.6553 81.6416 32.9031 81.1998 33.0402C80.0377 33.1827 78.8584 33.0314 77.7698 32.6002C77.0998 32.4202 76.4398 32.2102 75.7698 32.0002C74.4898 31.5102 73.0098 31.5002 71.9298 30.5002C71.5298 29.0402 72.4798 28.5002 73.5798 27.9902C74.1449 28.1941 74.6904 28.4484 75.2098 28.7502C75.3546 28.7985 75.508 28.8155 75.6598 28.8002C75.4498 28.7102 75.2198 28.6902 74.9898 28.5902C72.7798 27.1102 72.0898 28.5902 71.5598 30.3102C71.5404 30.6386 71.4051 30.9494 71.1781 31.1874C70.951 31.4255 70.6469 31.5753 70.3198 31.6102C69.9959 31.5463 69.6901 31.412 69.424 31.2167C69.1578 31.0214 68.9379 30.77 68.7798 30.4802C68.4398 29.4102 68.7798 28.3702 68.8698 27.3102C68.9898 26.0802 68.5598 24.8502 68.7298 23.6102C68.8123 23.4249 68.9335 23.2594 69.0853 23.1248C69.2371 22.9903 69.4159 22.8898 69.6098 22.8302C70.4598 22.7702 71.5598 23.7702 72.1198 22.3602Z" fill="#EFD099"/>
<path d="M80.0001 23.3899C79.4801 25.0299 82.6701 26.2499 80.9201 27.6099C79.1701 28.9699 77.1401 27.1799 75.8201 26.0399C73.5801 24.0899 74.3701 22.6999 77.2401 22.4399L80.0001 23.3899Z" fill="#FDEECF"/>
<path d="M84.0598 34.3902L86.0598 34.5102C86.7433 34.9994 87.2433 35.7035 87.4798 36.5102C87.5094 36.9311 87.4374 37.353 87.2698 37.7402C86.7698 38.4201 86.1696 39.0202 85.4898 39.5202C84.4898 40.3002 84.0198 41.5202 83.0798 42.3802H83.0098C81.4998 42.3802 79.3698 43.4602 79.5698 40.4302C79.9672 39.2087 80.5434 38.0528 81.2798 37.0002C81.7085 36.0047 82.2558 35.0646 82.9098 34.2002C83.0923 34.0883 83.309 34.0459 83.5202 34.0808C83.7314 34.1157 83.923 34.2255 84.0598 34.3902Z" fill="#F4D4A0"/>
<path d="M84.0599 34.3903H83.5799H83.1099C82.7629 34.1944 82.4824 33.8994 82.3043 33.5431C82.1261 33.1867 82.0584 32.7853 82.1099 32.3903C80.7499 29.9603 83.1099 29.3903 84.2299 28.2803C88.6399 30.4103 83.1599 32.3303 84.0599 34.3903Z" fill="#F4DBB0"/>
<path d="M91.0696 34.2501L92.0696 37.3501H91.5796H91.0996C89.3796 36.8501 87.2296 36.9301 87.0996 34.3501C88.3596 33.0001 89.6996 33.0001 91.0696 34.2501Z" fill="#F1D5AA"/>
<path d="M87.0498 34.3603C88.0498 35.8303 90.5198 35.3603 91.0498 37.3603L90.0498 38.3603C88.6598 38.3003 87.9298 37.2303 87.0498 36.3603C86.7137 36.1782 86.4392 35.9004 86.2612 35.5622C86.0831 35.2239 86.0096 34.8404 86.0498 34.4603C86.3776 34.385 86.7136 34.3514 87.0498 34.3603Z" fill="#E6C590"/>
<path d="M37.0003 22.3902L40.8503 22.1802C41.0421 22.3275 41.2014 22.5127 41.3184 22.7244C41.4354 22.936 41.5075 23.1694 41.5303 23.4102C41.3803 26.6202 40.1403 29.0802 36.8703 30.1302C35.9704 30.4524 35.003 30.5385 34.0603 30.3802C31.6203 27.2002 32.0603 24.8002 35.9803 23.3802C36.3903 23.5002 36.2303 24.1502 36.7303 24.1802C36.6171 23.881 36.5843 23.5573 36.6352 23.2415C36.6861 22.9257 36.8189 22.6287 37.0203 22.3802L37.0003 22.3902Z" fill="#EED5A8"/>
<path d="M31.0798 41.3901L29.0798 42.3901C28.0798 43.8101 27.0298 44.7201 25.6798 42.7401C25.4932 41.7863 25.6049 40.7982 25.9998 39.9101C26.6998 38.4401 26.7798 36.6901 27.9998 35.4701C28.3498 35.1101 28.6898 34.7401 28.9998 34.3701L29.9998 34.4201C30.6635 34.645 31.2381 35.0759 31.6398 35.6501C32.1554 37.1882 32.4254 38.798 32.4398 40.4201C32.2998 41.1401 31.9998 41.7201 31.0798 41.3901Z" fill="#F1D19E"/>
<path d="M34.1003 30.3801C34.3065 30.0428 34.6033 29.7702 34.9569 29.5934C35.3105 29.4166 35.7067 29.3427 36.1003 29.3801C37.5205 29.764 38.8273 30.4843 39.9103 31.4801C40.9903 32.8301 41.3103 34.2301 40.1703 35.7201C39.2494 36.2789 38.178 36.5386 37.1035 36.4633C36.029 36.3881 35.0043 35.9817 34.1703 35.3001C32.8903 34.0001 32.2403 32.6901 34.1103 31.3001C34.1247 30.9935 34.1214 30.6863 34.1003 30.3801V30.3801Z" fill="#F8E5C2"/>
<path d="M34.1103 34.3502C35.9303 35.6002 38.0003 35.3502 40.0403 35.3502C40.9203 34.2702 41.7903 33.1202 43.1903 34.7602C41.8903 38.7602 38.5803 37.3902 35.8203 37.5302C34.5584 37.3479 33.3392 36.9415 32.2203 36.3302C31.8176 36.0199 31.4336 35.686 31.0703 35.3302L30.0703 34.3302L31.0703 33.3302C32.3603 32.8602 33.1403 33.9002 34.1103 34.3502Z" fill="#E3C591"/>
<path d="M37.0604 22.3599C37.1311 22.6888 37.1712 23.0235 37.1804 23.3599C37.1804 24.5799 39.4804 25.2599 38.0204 26.7299C37.7863 26.9404 37.5058 27.0927 37.2017 27.1744C36.8976 27.2561 36.5785 27.2648 36.2704 27.1999C34.0904 26.1399 36.6104 24.6399 36.0204 23.3799L37.0604 22.3599Z" fill="#FDEDCC"/>
<path d="M34.1104 34.3501L31.1104 33.3501C31.1104 31.1901 32.9804 31.8301 34.1104 31.3501C33.8032 31.79 33.6385 32.3136 33.6385 32.8501C33.6385 33.3866 33.8032 33.9102 34.1104 34.3501Z" fill="#EDD3A7"/>
<path d="M26.0804 42.3301C27.0804 43.9701 28.0804 42.7001 29.0804 42.4101C28.5704 46.5501 24.9904 46.4101 22.1704 47.4101L21.1104 46.4101C19.9304 43.7001 18.0604 44.4101 16.1104 45.4101C15.7776 45.4368 15.4431 45.4368 15.1104 45.4101L16.1104 42.4901C18.3304 41.0901 20.2304 38.9601 23.2504 39.4001C22.1204 42.2601 25.2404 41.2201 26.0804 42.3301Z" fill="#F1CC8F"/>
<path d="M22.9998 39.4203C20.959 40.9662 18.5745 41.9955 16.0498 42.4203L17.0498 40.4203C17.0906 40.1698 17.209 39.9384 17.3885 39.759C17.568 39.5795 17.7993 39.461 18.0498 39.4203L20.0498 38.4203C21.4998 37.1903 22.2798 34.3103 25.0498 36.4203C25.4998 38.1303 24.2398 38.7603 22.9998 39.4203Z" fill="#FADAA3"/>
<path d="M15.0798 46.3999C16.8798 47.7799 16.6198 49.0299 14.7398 49.9999C13.5298 50.6199 12.0698 52.0999 10.8798 50.3999C9.13979 47.9299 12.4698 47.8199 13.0898 46.3999H15.0798Z" fill="#FDF0D3"/>
<path d="M18.0505 39.3702L17.0505 40.3702C14.9705 40.1202 14.8305 38.7402 15.3205 37.1702C15.5605 36.4102 16.1705 35.5202 17.0805 35.9002C18.7305 36.6102 17.7905 38.1902 18.0505 39.3702Z" fill="#FEF2D1"/>
<path d="M41.0602 23.2702C41.0002 22.9102 40.9502 22.5402 40.8902 22.1802C41.1941 21.6442 41.6284 21.1937 42.1528 20.8703C42.6773 20.5469 43.2748 20.3611 43.8902 20.3302C44.7302 19.5702 45.5502 19.8502 46.3702 20.3302C47.4726 21.1029 48.4592 22.0289 49.3002 23.0802C49.4661 23.4991 49.5246 23.9529 49.4702 24.4002C49.1474 25.4552 48.6506 26.4489 48.0002 27.3402C47.0802 28.6702 47.4402 30.3402 46.7402 31.7702C46.5126 32.2134 46.149 32.572 45.7027 32.7934C45.2563 33.0148 44.7508 33.0872 44.2602 33.0002C43.3855 32.8464 42.5662 32.4665 41.8838 31.8981C41.2014 31.3297 40.6796 30.5926 40.3702 29.7602C40.1877 29.0579 40.2733 28.3128 40.6102 27.6702C41.2802 26.6002 43.3302 26.7402 43.2602 25.3202C43.2602 24.1602 41.6002 25.1402 40.8802 24.5102C40.7644 24.3139 40.7192 24.084 40.7519 23.8585C40.7846 23.633 40.8934 23.4254 41.0602 23.2702Z" fill="#DEC59A"/>
<path d="M46.0702 21.3302C45.826 20.9973 45.5021 20.7313 45.1281 20.5565C44.7541 20.3818 44.3422 20.3039 43.9302 20.3302C43.1702 18.4302 42.4302 16.5302 45.0702 15.4202C46.0702 18.6102 47.0702 16.9502 48.0702 15.4202H48.9602C49.1502 16.6502 49.6502 17.3402 50.6602 16.0602C51.6702 14.7802 52.4802 13.5802 53.9602 15.4602C54.0244 15.9001 54.0008 16.3483 53.891 16.7791C53.7812 17.2099 53.5872 17.6147 53.3202 17.9702C52.1002 19.7002 49.6002 19.9702 48.6302 21.9702C48.1824 22.043 47.7245 22.0238 47.2843 21.9137C46.8442 21.8037 46.4311 21.6051 46.0702 21.3302V21.3302Z" fill="#F0D3A0"/>
<path d="M22.9997 39.4199C22.8697 37.8699 24.4197 37.4199 24.9997 36.4199L25.9997 35.4199L26.9997 35.5199C27.6697 37.1599 25.7697 38.7899 26.9997 40.4299L25.9997 42.4299C23.9997 42.5099 21.9197 42.6199 22.9997 39.4199Z" fill="#FAE2B8"/>
<path d="M27.0797 40.3898C23.1497 38.7298 27.0797 37.1198 27.0797 35.4798C27.392 35.4449 27.7073 35.4449 28.0197 35.4798C28.2627 37.1755 27.9318 38.9038 27.0797 40.3898V40.3898Z" fill="#FEF4D6"/>
<path d="M40.0599 51.3698H35.7999C35.1999 50.0698 34.6099 48.7798 34.0099 47.4898C33.4199 46.6598 33.8099 45.8698 34.1099 45.0698C34.2848 44.6789 34.5101 44.3125 34.7799 43.9798C35.1983 43.479 35.6988 43.053 36.2599 42.7198C37.2075 42.1341 38.273 41.7652 39.3799 41.6398C40.0732 41.6118 40.7493 41.86 41.2599 42.3298C41.3413 42.5313 41.3601 42.7527 41.3137 42.965C41.2673 43.1773 41.1579 43.3707 40.9999 43.5198C40.6799 44.9798 38.7799 45.4298 38.6899 47.2798C40.5599 46.7398 40.4899 45.1698 40.8399 43.8798C40.9398 43.5463 41.1664 43.2653 41.4711 43.097C41.7759 42.9288 42.1345 42.8867 42.4699 42.9798L43.0399 43.3898C45.0499 47.1698 42.9999 49.4198 40.0599 51.3698Z" fill="#F3DCB0"/>
<path d="M49.0801 52.37C48.8757 52.031 48.5792 51.7571 48.2251 51.58C47.871 51.403 47.474 51.3302 47.0801 51.37C46.7001 49.85 47.8701 48.58 47.7601 47.1C47.8201 44.81 47.5001 42.48 48.6001 40.33C48.9764 39.6425 49.5884 39.1141 50.3234 38.8421C51.0584 38.5701 51.867 38.5729 52.6001 38.85C54.4701 41.57 51.6001 44.22 52.5001 46.93C51.2601 48.67 52.5201 52 49.0801 52.37Z" fill="#E2C085"/>
<path d="M49.0802 52.3701C51.5502 51.5901 49.5502 48.1201 52.0802 47.3701C53.0354 47.8584 53.8777 48.5413 54.5529 49.3749C55.228 50.2085 55.7211 51.1743 56.0002 52.2101C53.7002 52.5701 51.7002 54.8301 49.1002 53.3201C49.0702 53.0001 49.0702 52.6801 49.0802 52.3701Z" fill="#DEC391"/>
<path d="M49.0705 40.3901C48.6805 42.7101 49.9805 45.2801 48.0705 47.3901C47.7705 47.8801 47.4605 47.8601 47.1305 47.3901C46.4605 46.1201 44.8805 45.0901 46.0005 43.3201C45.8683 43.1433 45.7841 42.9352 45.756 42.7162C45.728 42.4972 45.7571 42.2746 45.8405 42.0701C46.0963 41.5663 46.4665 41.1293 46.9214 40.7941C47.3764 40.459 47.9035 40.235 48.4605 40.1401L49.0705 40.3901Z" fill="#CFA86F"/>
<path d="M46.0001 42.3799C46.0252 42.6961 46.0252 43.0138 46.0001 43.3299L43.0801 43.3899C41.2501 41.9099 41.6201 41.0299 43.8301 40.6699C44.3287 40.6798 44.8104 40.8522 45.202 41.1608C45.5937 41.4695 45.8739 41.8975 46.0001 42.3799Z" fill="#F3D7A1"/>
<path d="M47.1098 47.3999H48.1098C48.2322 48.8075 47.8802 50.2155 47.1098 51.3999C45.1898 49.9999 47.4598 48.7299 47.1098 47.3999Z" fill="#C59F64"/>
<path d="M35.0905 44.3802L34.0005 47.4402L32.0005 49.3602H31.0505C29.9205 49.3602 28.7405 49.4202 27.9805 48.3002C29.5005 46.9702 30.9805 45.6002 31.0605 43.4002C32.8205 42.1402 33.7805 44.0002 35.0905 44.3802Z" fill="#D7BC8D"/>
<path d="M35.0898 44.3802C33.3498 45.7502 32.5998 43.0602 31.0898 43.3802C31.0898 42.7002 31.0898 42.0202 31.0898 41.3802L32.0898 40.3802C32.4988 39.9671 33.049 39.7241 33.6298 39.7002C36.6298 40.4402 36.1098 42.3202 35.1098 44.3502L35.0898 44.3802Z" fill="#E1C9A2"/>
<path d="M28.0005 48.3198C29.1205 48.3998 30.3305 48.2098 31.0705 49.3798C30.1505 51.3798 28.1905 49.2198 27.0705 50.3798C25.4705 48.8098 26.9205 48.6398 28.0005 48.3198Z" fill="#C5A36F"/>
<path d="M56.0001 52.2099C54.4601 50.7999 51.7901 50.2999 52.1301 47.3799C50.1301 44.3799 51.6801 41.9499 53.1301 39.4499C53.3667 39.1869 53.6861 39.0127 54.0354 38.9563C54.3847 38.9 54.7427 38.9647 55.0501 39.1399C55.3401 39.5086 55.4827 39.972 55.4501 40.4399C53.9401 45.4399 54.7501 46.44 59.9201 45.83C60.3702 45.8311 60.812 45.9519 61.2001 46.1799C62.2801 48.5199 60.9301 50.3999 60.0201 52.3699L56.0001 52.2099Z" fill="#F5D8A5"/>
<path d="M60.0001 52.3699C58.7101 50.1299 61.0801 48.4699 60.9401 46.3699C61.1441 46.2378 61.382 46.1675 61.6251 46.1675C61.8682 46.1675 62.1061 46.2378 62.3101 46.3699C63.3101 48.5899 64.3101 50.8199 63.9801 53.3699L62.9201 53.4899C62.379 53.554 61.8305 53.4855 61.3218 53.2904C60.8131 53.0953 60.3595 52.7794 60.0001 52.3699V52.3699Z" fill="#C9A876"/>
<path d="M16.0996 45.3602C17.2896 44.2502 18.5496 42.6602 20.0996 42.9502C21.6496 43.2402 20.7896 45.1802 21.0496 46.3902H20.0496C19.0596 44.8902 17.4696 45.5702 16.0996 45.3602Z" fill="#E1BB80"/>
<path d="M63.9998 53.3699C63.1923 52.4121 62.6046 51.289 62.2781 50.0796C61.9515 48.8702 61.8941 47.6039 62.1098 46.3699C62.5398 43.7599 61.1098 41.0099 62.6998 38.4699C62.8756 38.3167 63.0844 38.2063 63.3099 38.1473C63.5355 38.0883 63.7716 38.0823 63.9998 38.1299C65.1498 39.7599 66.2898 41.4199 68.6198 39.7899C69.0633 39.7145 69.5164 39.7145 69.9598 39.7899C72.3898 40.4499 72.5998 42.4999 72.8898 44.4999C72.9398 46.2999 71.7098 47.7799 71.6198 49.5599C71.4583 50.6745 70.8792 51.6861 69.9998 52.3899L66.1198 53.3899L63.9998 53.3699Z" fill="#F4D8A8"/>
<path d="M89.1502 46.3698C89.1153 46.0909 89.1153 45.8088 89.1502 45.5298L94.0302 43.3398C95.6102 45.4498 93.9402 46.6598 92.6302 47.7698C90.8202 49.2998 90.2202 47.1198 89.1502 46.3698Z" fill="#FDEBC9"/>
<path d="M98.0605 48.3898V42.8198C99.2305 45.4298 99.5005 46.9298 98.0605 48.3898Z" fill="#EBCF9A"/>
<path d="M87.0804 36.41C87.7331 36.354 88.3855 36.5214 88.9305 36.8848C89.4756 37.2482 89.8811 37.786 90.0804 38.41V39.41C91.1904 40.89 90.0804 41.63 89.0804 42.41L85.0804 43.41C84.876 43.071 84.5795 42.7971 84.2254 42.62C83.8713 42.443 83.4743 42.3702 83.0804 42.41C82.9304 40.68 83.2304 39.18 85.0804 38.41C86.8204 40.19 86.7504 38.41 87.0804 37.41C87.0604 37.07 87.0704 36.74 87.0804 36.41Z" fill="#F9DFB0"/>
<path d="M89.0605 42.3901L90.0605 39.3901C90.8105 39.7301 91.6705 40.1901 91.4305 41.1001C91.1505 42.2101 90.0505 42.3201 89.0605 42.3901Z" fill="#E6C590"/>
<path d="M71.9998 44.5C71.4798 43.07 71.4898 41.37 69.9998 40.4C69.6998 39.49 70.2498 39.04 70.9398 38.67C71.8687 38.3291 72.8835 38.3011 73.8298 38.59C75.2798 40.45 76.9898 41.44 79.3398 40.14L79.9998 40.4C79.8698 42.73 82.1898 41.4 82.9998 42.4C80.7298 43.31 81.9998 46.34 79.9998 47.4C79.685 47.73 79.2817 47.9621 78.8383 48.0685C78.3948 48.1749 77.9301 48.1511 77.4998 48C76.4998 47.73 76.7098 46 75.3098 46.11C74.6772 46.0828 74.057 45.9259 73.4876 45.6489C72.9182 45.3719 72.4118 44.9809 71.9998 44.5V44.5Z" fill="#E0BB81"/>
<path d="M77.05 47.3301L80.05 47.4101C80.05 47.7401 80.05 48.0601 80.05 48.4101C79.5333 48.9681 79.1864 49.6619 79.05 50.4101C78.52 50.9701 78.85 51.9401 78.05 52.4101H77.11C76.7 51.7701 76.3 51.1301 75.9 50.4901C75.3 49.0001 74.86 47.7201 77.05 47.3301Z" fill="#F4D7A8"/>
<path d="M79.0601 50.3802C78.5501 49.2902 78.3101 48.3802 80.0601 48.3802C81.6801 48.9502 83.9001 46.5102 85.0601 49.3802C83.0001 49.3402 80.9201 49.2002 79.0601 50.3802Z" fill="#F3DFB5"/>
<path d="M78.09 52.3501C78.0385 51.955 78.1062 51.5536 78.2844 51.1973C78.4626 50.841 78.7431 50.546 79.09 50.3501L81.09 53.3501L78.09 52.3501Z" fill="#F3DFB5"/>
<path d="M77.05 47.33C75.85 48.07 76.14 49.33 75.94 50.42L71.04 52.42H70C70.28 51.42 69.94 50.13 71.15 49.42C72.31 47.47 74.26 46.48 76.15 45.36L77.25 44.71L77.05 47.33Z" fill="#C9AC78"/>
<path d="M70.0699 15.41C71.7999 15.26 72.6899 16.82 74.0699 17.41C73.9199 18.41 74.3699 20.28 72.8699 19.93C72.3659 19.8626 71.8831 19.6844 71.4563 19.408C71.0294 19.1317 70.6692 18.7642 70.4014 18.3319C70.1336 17.8996 69.965 17.4134 69.9077 16.9082C69.8503 16.4029 69.9057 15.8913 70.0699 15.41Z" fill="#FCEFD8"/>
<path d="M66.0901 19.3799H67.0901H69.0001L71.0801 21.3799C70.9401 22.5499 69.7701 22.6999 69.0801 23.3799L68.9601 23.4999C68.492 23.6184 67.9995 23.5994 67.5419 23.4451C67.0843 23.2908 66.6809 23.0077 66.3801 22.6299C65.6601 21.6099 65.0801 20.5799 66.0901 19.3799Z" fill="#EBCD9B"/>
<path d="M69.1201 23.3701C69.2745 22.9039 69.5358 22.4803 69.883 22.133C70.2303 21.7858 70.6539 21.5245 71.1201 21.3701L72.1201 22.3701C72.3901 26.4901 70.0801 22.9201 69.1201 23.3701Z" fill="#DEB877"/>
<path d="M54.0605 11.3902L56.1305 9.47021L58.0705 8.47021C58.4105 9.13021 58.7405 9.79021 59.0705 10.4702L58.8605 11.0602C58.5705 11.6002 58.2605 12.1402 57.9305 12.6602C57.7062 13.0081 57.4008 13.2963 57.0405 13.5002L56.0405 13.4402C56.0765 13.1686 56.0506 12.8924 55.9648 12.6321C55.8791 12.3719 55.7357 12.1344 55.5453 11.9373C55.355 11.7402 55.1226 11.5887 54.8655 11.494C54.6084 11.3992 54.3333 11.3638 54.0605 11.3902V11.3902Z" fill="#DAB988"/>
<path d="M56.9998 13.4402L57.0498 12.4402C57.1967 12.2816 57.3958 12.1812 57.6106 12.1574C57.8255 12.1335 58.0417 12.1877 58.2198 12.3102C59.3098 13.7002 59.3498 15.6302 60.5998 16.9502C61.0062 17.5051 61.283 18.1441 61.4098 18.8202C61.4039 19.2689 61.2608 19.7051 60.9998 20.0702C60.6663 20.3899 60.2511 20.6113 59.7998 20.7102C58.2698 20.3402 56.7498 18.4702 55.1798 20.7102C54.7508 20.9183 54.2761 21.0146 53.7998 20.9902C53.3212 20.8722 52.8997 20.5888 52.6098 20.1902C52.4187 19.7281 52.3587 19.2223 52.4363 18.7283C52.5139 18.2344 52.7262 17.7714 53.0498 17.3902C53.0085 17.0059 53.0755 16.6176 53.2434 16.2695C53.4113 15.9213 53.6733 15.6271 53.9998 15.4202C55.4098 15.3802 56.9998 15.5502 56.9998 13.4402Z" fill="#D6BE95"/>
<path d="M63.0702 10.3998V11.3998C63.8902 12.3998 63.5802 13.1498 62.6902 13.8398C62.2462 14.0338 61.7645 14.1261 61.2802 14.1098C60.5538 13.9939 59.9029 13.5948 59.4702 12.9998C59.0602 12.1798 58.4702 11.3698 59.0702 10.3898C60.4002 9.40985 61.7402 10.3698 63.0702 10.3998Z" fill="#E3C794"/>
<path d="M61.9999 13.4199C62.3397 13.2164 62.6143 12.92 62.7915 12.5657C62.9686 12.2114 63.0409 11.8139 62.9999 11.4199L64.9999 12.4199C64.6499 14.8499 63.9299 17.3199 65.9999 19.4199C66.3199 20.4199 66.6499 21.4199 66.9999 22.4199C66.6892 22.7657 66.2814 23.0096 65.8299 23.1199C65.1367 23.1967 64.4369 23.0533 63.8299 22.7099C62.8899 21.6299 60.6499 21.6499 60.9899 19.4599L61.0599 19.3899C62.5499 17.5499 60.5199 15.2099 61.9999 13.4199Z" fill="#E1C294"/>
<path d="M74.0598 39.3599L71.0598 39.2699C68.3798 37.8499 65.2498 36.5599 69.2098 33.1399C69.6654 33.0685 70.1318 33.1568 70.5298 33.3899C73.1598 35.7399 74.1098 33.1199 75.4598 31.6999C75.6498 31.5799 75.8498 31.4699 76.0498 31.3599H78.0498C78.6098 32.07 78.9194 32.9453 78.9302 33.8497C78.9411 34.754 78.6526 35.6365 78.1098 36.3599C77.72 37.1445 77.1497 37.8256 76.4457 38.3471C75.7417 38.8686 74.924 39.2157 74.0598 39.3599Z" fill="#F9E1B3"/>
<path d="M70 33.3399C65.81 36.1599 70.63 37.3399 71.1 39.2699L70.1 40.3999H69.1C67.7553 39.4124 66.4666 38.3507 65.24 37.2199C64.9708 36.888 64.7672 36.5079 64.64 36.0999C64.3465 35.0284 63.9444 33.9897 63.44 32.9999C63.3175 32.5337 63.2802 32.0493 63.33 31.5699C63.433 31.0687 63.6753 30.6067 64.0291 30.237C64.3829 29.8673 64.8338 29.6049 65.33 29.4799C65.9729 29.2808 66.6575 29.2583 67.312 29.4149C67.9665 29.5715 68.5668 29.9014 69.05 30.3699L70.05 31.3699C70.1924 31.6803 70.2619 32.0192 70.2533 32.3607C70.2446 32.7021 70.158 33.0371 70 33.3399V33.3399Z" fill="#EFCF9F"/>
<path d="M69.0601 30.3901H65.0601C61.2401 28.5901 61.3501 25.9201 63.3701 22.8101L64.0101 22.3901L66.1001 22.4901C67.4301 24.0901 68.5001 25.8901 69.9901 27.3601L69.0601 30.3901Z" fill="#F2D7A5"/>
<path d="M77.0001 36.3701C77.8894 34.8645 78.2419 33.1019 78.0001 31.3701L81.0001 32.3701C82.3701 33.8201 81.8501 35.6401 82.0001 37.3701L80.0001 40.3701C79.6601 39.2301 73.9401 42.7801 77.8401 37.9001C77.8401 37.8301 77.4001 37.7501 77.2101 37.5901C77.0277 37.4508 76.9046 37.2476 76.8657 37.0213C76.8267 36.7951 76.8748 36.5625 77.0001 36.3701V36.3701Z" fill="#F0CA89"/>
<path d="M70 27.3501C67.12 26.9901 65.9 25.3501 66.11 22.4801C66.42 22.4801 66.7199 22.4301 67.0199 22.3901L69 23.4901C69.7719 24.6214 70.1255 25.9863 70 27.3501V27.3501Z" fill="#FCEBCE"/>
<path d="M82.06 37.3801C80.38 35.9901 81.31 34.0901 81.06 32.3801L82.06 32.3301C82.3837 32.5502 82.6457 32.8496 82.8207 33.1997C82.9958 33.5499 83.0782 33.939 83.06 34.3301C83 35.4601 83.21 36.6701 82.06 37.3801Z" fill="#E0B980"/>
<path d="M70 33.3401C69.93 32.6801 69 31.9901 70.07 31.3401L71.07 30.3401C71.38 29.8701 71.7 29.8601 72.07 30.3401C73.45 30.5301 75.07 29.9301 76.07 31.3401L76 31.4101C74.2 32.6201 72.41 33.8501 70.06 33.4101L70 33.3401Z" fill="#F9E1B3"/>
<path d="M72 30.3499C71.68 30.3499 71.35 30.3499 71 30.3499C71.51 28.0399 72.29 26.2599 75 28.3499C74.96 28.4384 74.8964 28.5142 74.8162 28.5691C74.736 28.6239 74.6422 28.6556 74.5452 28.6608C74.4482 28.666 74.3516 28.6444 74.266 28.5983C74.1805 28.5523 74.1092 28.4837 74.06 28.3999C73.5971 28.5586 73.1737 28.8148 72.8183 29.1512C72.4629 29.4876 72.1839 29.8964 72 30.3499Z" fill="#E6C07E"/>
<path d="M74.1201 28.4401C74.4301 28.4401 74.7501 28.4401 75.0601 28.3901C76.2901 28.5201 77.7301 28.0901 78.5901 30.2301C76.8001 29.7701 75.2801 29.7301 74.1201 28.4401Z" fill="#FDDEA7"/>
<path d="M87.0601 37.3901C87.4101 38.3901 89.3401 38.6001 88.5001 40.1701C88.3107 40.544 88.0031 40.8447 87.6251 41.0256C87.2471 41.2064 86.82 41.2573 86.4101 41.1701C84.8101 40.8501 85.1501 39.4801 85.0801 38.3601L87.0601 37.3901Z" fill="#FDEECC"/>
<path d="M41.0603 23.27V24.43C41.2601 24.6171 41.4194 24.8432 41.5283 25.0943C41.6372 25.3455 41.6934 25.6163 41.6934 25.89C41.6934 26.1637 41.6372 26.4346 41.5283 26.6857C41.4194 26.9368 41.2601 27.1629 41.0603 27.35L41.0003 29.43C40.4603 30 40.2003 30.78 39.5903 31.3L39.0703 31.57C37.7403 31.29 36.5403 30.84 36.0703 29.4C39.5303 28.82 39.9003 25.72 41.0603 23.27Z" fill="#CEB388"/>
<path d="M33.0697 40.3502L32.0697 40.4302C30.3797 39.0202 31.3397 37.0802 31.0697 35.4302H32.0697C32.8697 36.4302 34.3897 36.8102 34.6097 38.3302C34.6297 39.3802 33.8197 39.8502 33.0697 40.3502Z" fill="#DBB87A"/>
<path d="M43.0804 34.4001L40.0804 35.4001C40.2527 34.0651 39.9211 32.7137 39.1504 31.6101V31.2701C41.2604 30.2001 42.1004 32.0501 43.3004 33.0901C43.3604 33.3201 43.4104 33.5601 43.4604 33.7901L43.0804 34.4001Z" fill="#EDD3A7"/>
<path d="M35.1 36.4098C37.79 35.8698 41.1 37.7898 43.1 34.4098C43.1891 34.3216 43.2957 34.253 43.4129 34.2083C43.53 34.1637 43.6553 34.1441 43.7805 34.1507C43.9057 34.1572 44.0282 34.1899 44.14 34.2466C44.2519 34.3033 44.3506 34.3827 44.43 34.4798C44.6977 34.92 44.8476 35.4218 44.8651 35.9367C44.8826 36.4517 44.7672 36.9624 44.53 37.4198C44.001 38.3301 43.1799 39.0348 42.2 39.4198C39.61 40.4198 37.14 40.4198 34.9 38.5498C34.6955 38.2201 34.6044 37.8325 34.6405 37.4462C34.6766 37.0599 34.838 36.696 35.1 36.4098V36.4098Z" fill="#F6D9A7"/>
<path d="M35.1 36.4101V38.3501C35.039 38.4235 34.9626 38.4826 34.8762 38.5232C34.7898 38.5637 34.6955 38.5848 34.6 38.5848C34.5045 38.5848 34.4103 38.5637 34.3238 38.5232C34.2374 38.4826 34.161 38.4235 34.1 38.3501C33.46 37.3501 31.93 36.9201 32.1 35.3501L35.1 36.4101Z" fill="#F1C887"/>
<path d="M43.9998 34.4501H43.0898V33.4501C43.1261 33.1977 43.2432 32.9639 43.4234 32.7837C43.6037 32.6034 43.8375 32.4864 44.0898 32.4501C44.4967 32.4825 44.9039 32.3933 45.26 32.1939C45.6161 31.9945 45.9049 31.6939 46.0898 31.3301C47.1898 29.5501 48.4498 27.9801 50.8298 28.0601C52.0533 28.5622 53.3273 28.931 54.6298 29.1601C56.0998 31.5301 54.0598 33.0401 53.2398 34.8501C52.4866 35.5138 51.5789 35.978 50.5998 36.2001C48.2554 36.5063 45.8846 35.8777 43.9998 34.4501V34.4501Z" fill="#E5BF85"/>
<path d="M41.1299 27.3502V24.4302C42.3699 23.9202 43.2599 22.0302 44.9999 23.4302C45.1268 23.5311 45.2322 23.6565 45.3098 23.7989C45.3873 23.9413 45.4354 24.0978 45.4513 24.2592C45.4672 24.4206 45.4504 24.5835 45.4021 24.7383C45.3537 24.8931 45.2748 25.0366 45.1699 25.1602C44.2599 26.7402 43.5799 28.7102 41.1299 27.3502Z" fill="#EEE0C1"/>
<path d="M51.0701 28.4001L46.0701 31.2701C46.3701 29.6701 45.3301 27.7601 47.1501 26.5101C48.9301 27.2501 49.7301 25.1601 51.2301 25.1001C51.4551 25.0859 51.6803 25.1235 51.8884 25.2102C52.0965 25.2969 52.2818 25.4303 52.4301 25.6001C52.7592 26.2136 52.8345 26.9316 52.6401 27.6001C52.3301 28.2601 51.9301 28.8001 51.0701 28.4001Z" fill="#F6DFBB"/>
<path d="M51.9999 25.3601C50.2799 25.2901 49.6899 29.9801 47.1699 26.5101L49.0399 24.3801C50.3699 23.7001 51.6799 23.0701 51.9999 25.3601Z" fill="#FDF3D7"/>
<path d="M44.1004 32.3902L43.1004 33.3902L39.1004 31.2302C39.0839 30.9809 39.1226 30.7309 39.2137 30.4982C39.3048 30.2655 39.4461 30.0557 39.6275 29.8838C39.8089 29.712 40.026 29.5822 40.2633 29.5038C40.5006 29.4254 40.7523 29.4003 41.0004 29.4302L44.1004 32.3902Z" fill="#BDA06B"/>
<path d="M52 25.3599C51.3 24.1799 50.11 24.4699 49 24.3599C49 24.0499 49 23.7299 49.05 23.4099C49.1022 23.0404 49.2384 22.6879 49.4481 22.3793C49.6579 22.0707 49.9356 21.8143 50.26 21.6299C51.42 21.1599 52.61 20.3899 53.63 21.8699C53.95 23.4099 54.51 25.0599 52.09 25.4299L52 25.3599Z" fill="#F6DFBB"/>
<path d="M50.0605 22.3799L49.0605 23.4299L46.0605 21.3299L49.0605 21.3999C50.0005 21.1399 50.3005 21.4799 50.0605 22.3799Z" fill="#D5B384"/>
<path d="M50.0602 22.3799L49.0602 21.3799C48.4502 18.1099 52.0602 18.9699 53.0602 17.3799C53.0602 18.3799 53.0602 19.3799 53.0602 20.3799C53.1637 20.4649 53.2398 20.5786 53.2789 20.7067C53.318 20.8347 53.3185 20.9715 53.2802 21.0999C53.1902 21.3399 53.1002 21.4499 53.0202 21.4499L50.0602 22.3799Z" fill="#D2B37F"/>
<path d="M34.0903 38.3701H35.0903C37.4003 38.5301 39.7003 39.5601 42.0203 38.4601C43.4403 40.1901 41.7403 41.1501 41.0203 42.3701H39.0203C37.5903 41.5701 36.8503 42.5801 36.0703 43.4801L35.0703 44.4801C34.9003 42.8801 35.7003 40.8001 33.0703 40.4801L34.0903 38.3701Z" fill="#D6B985"/>
<path d="M41.06 43.4099C41.57 44.5999 42.5 45.7599 41.57 47.1199C40.82 48.2299 39.97 49.2799 38.44 49.2499C38.0183 49.2702 37.6016 49.1509 37.2545 48.9104C36.9074 48.67 36.6493 48.3219 36.52 47.9199C36.06 46.2999 37.36 45.5399 38.42 44.7899C39.2665 44.2655 40.1487 43.801 41.06 43.3999V43.4099Z" fill="#FDEED8"/>
<path d="M41.0699 42.3499L42.0699 38.4399L44.0699 37.3799L44.4799 37.8599C44.6746 38.6714 44.7254 39.5108 44.6299 40.3399C44.613 40.5357 44.5553 40.7258 44.4606 40.898C44.3659 41.0702 44.2362 41.2207 44.0799 41.3399C42.2799 41.2799 42.6099 42.2799 43.0799 43.3399H41.0799C41.0599 43.0499 41.0699 42.6999 41.0699 42.3499Z" fill="#E3C89B"/>
<path d="M36.0901 43.4302C36.1901 42.5202 35.7401 41.3002 36.8801 40.8602C38.0201 40.4202 38.5401 41.4902 39.0401 42.3202L36.0901 43.4302Z" fill="#D0B17D"/>
<path d="M50.9999 35.3901C51.2066 35.048 51.5011 34.7675 51.8527 34.5776C52.2044 34.3877 52.6005 34.2953 52.9999 34.3101C53.8599 34.8101 54.5899 35.5901 55.6999 35.6101C56.3824 35.6751 57.0233 35.9674 57.5199 36.4401C58.1699 37.5201 58.8599 38.5901 57.7599 39.7901C57.3068 40.0345 56.7906 40.1365 56.2786 40.083C55.7666 40.0295 55.2827 39.8229 54.8899 39.4901H53.0599C51.6377 39.3083 50.1974 39.6418 48.9999 40.4301V40.4301C47.6499 37.9001 49.3099 36.6301 50.9999 35.3901Z" fill="#C5A572"/>
<path d="M50.9999 35.3899C50.3499 37.0599 49.6899 38.7199 48.9999 40.3899L45.9199 42.3899L43.9999 41.3899C43.9999 41.0699 43.9999 40.7499 43.9999 40.3899C43.8999 39.3899 46.4499 38.3899 43.9999 37.3899C43.9999 36.3899 43.9499 35.3899 43.9199 34.4599C46.4499 33.8799 48.6199 35.5399 50.9999 35.3899Z" fill="#DBC196"/>
<path d="M55 39.4902L58 39.3902C59.25 38.7802 60.69 38.7102 61.89 37.9602C62.0966 37.9568 62.3018 37.9959 62.4927 38.075C62.6837 38.1541 62.8563 38.2716 63 38.4202C61.92 40.9902 65.27 44.0602 62.1 46.4202H60.95H60.08C60.0074 46.0471 59.8407 45.6988 59.5957 45.4082C59.3507 45.1177 59.0355 44.8946 58.68 44.7602C57.7888 44.1062 57.0231 43.2965 56.42 42.3702C55.8896 41.7796 55.436 41.1244 55.07 40.4202C55.068 40.1089 55.0446 39.7982 55 39.4902V39.4902Z" fill="#D5B886"/>
<path d="M55.0799 40.3803C55.4684 40.3507 55.8571 40.4353 56.1982 40.6236C56.5393 40.8119 56.8179 41.0958 56.9999 41.4403C55.9299 43.7803 57.0999 44.4403 59.1999 44.3003C60.9999 44.3003 60.6099 45.3003 60.1099 46.3803C57.7599 48.8003 55.6599 47.5903 54.0199 45.6303C52.3799 43.6703 52.7099 41.7203 55.0799 40.3803Z" fill="#F2DAAF"/>
<path d="M65.0704 36.4199C66.7304 37.4199 69.0704 37.7399 69.0704 40.4199C67.5104 40.7699 66.9504 43.4199 65.0704 42.5199C63.5404 41.7599 64.2704 39.8499 64.0704 38.4299C63.5104 37.2799 64.1804 36.7899 65.0704 36.4199Z" fill="#FEF2D6"/>
<path d="M65.07 36.4201C64.73 37.0701 64.4 37.7301 64.07 38.4201H63.02L62.08 38.3601C60.69 37.9301 59.08 37.8001 58.47 36.1401C58.206 35.4035 58.189 34.601 58.4218 33.854C58.6545 33.107 59.1243 32.4562 59.76 32.0001C60.4387 31.6043 61.2148 31.4068 62 31.4301C62.7729 31.5101 63.5009 31.832 64.08 32.3501C64.08 32.6601 64.08 32.9801 64.08 33.3001C63.08 34.7201 64.08 35.5401 65.08 36.3901L65.07 36.4201Z" fill="#F3DCAF"/>
<path d="M76.06 45.3802C74.9 47.3802 73.62 49.1502 71.06 49.3802C69.54 47.3802 72.27 46.2102 72 44.4502L76.06 45.3802Z" fill="#EAD3AD"/>
<path d="M66.7002 49.0001C66.7279 49.1614 66.7186 49.3269 66.6729 49.4841C66.6272 49.6412 66.5465 49.786 66.4366 49.9073C66.3268 50.0287 66.1909 50.1235 66.0391 50.1846C65.8872 50.2457 65.7235 50.2715 65.5602 50.2601C64.6802 50.2601 63.8202 49.9101 63.7402 49.0001C63.8041 48.7058 63.9411 48.4325 64.1386 48.2052C64.3361 47.978 64.5878 47.8043 64.8702 47.7001C65.7502 47.5201 66.3702 48.1701 66.7002 49.0001Z" fill="#FCEAC8"/>
<path d="M77.0003 36.3701C78.0703 37.6601 77.5703 40.1501 80.0003 40.3701C78.6803 40.9101 77.8103 42.1501 76.2403 42.3701C73.3803 42.7701 73.3803 41.3701 74.0003 39.3701L77.0003 36.3701Z" fill="#F7D096"/>
<path d="M59.0698 10.4298L60.0698 12.4298C59.9347 12.5689 59.773 12.6795 59.5944 12.755C59.4157 12.8305 59.2238 12.8694 59.0298 12.8694C58.8359 12.8694 58.6439 12.8305 58.4653 12.755C58.2866 12.6795 58.125 12.5689 57.9898 12.4298C57.6998 12.4298 57.4098 12.4298 57.1198 12.4298C57.0871 12.1637 57.1146 11.8936 57.2003 11.6395C57.2859 11.3854 57.4276 11.1538 57.6148 10.9618C57.802 10.7698 58.0299 10.6223 58.2818 10.5302C58.5336 10.4382 58.8029 10.4038 59.0698 10.4298Z" fill="#F3D9AD"/>
<path d="M51.0703 28.4002L52.0703 27.4002C54.3103 25.5302 52.9903 22.6102 54.0703 20.4002H55.0703C56.7203 19.9902 57.3203 21.1202 57.8603 22.3202C58.0965 23.167 58.1392 24.0561 57.9851 24.9216C57.831 25.7871 57.4842 26.6069 56.9703 27.3202C56.1964 28.2758 55.1501 28.9733 53.9703 29.3202C52.7003 30.1902 51.6503 30.0002 51.0703 28.4002Z" fill="#F4D9A6"/>
<path d="M57.0898 22.5199C56.9283 22.0448 56.6659 21.6102 56.3207 21.246C55.9755 20.8818 55.5556 20.5966 55.0898 20.4099C55.1698 19.3099 54.6898 17.8599 56.3198 17.5799C58.4798 17.2099 58.7098 19.5799 59.9898 20.4599C60.3652 20.7712 60.6329 21.1928 60.755 21.665C60.8771 22.1371 60.8473 22.6357 60.6698 23.0899C60.4145 23.7682 59.9052 24.3205 59.2498 24.6299C57.4998 24.9999 57.8498 23.1999 57.0898 22.5199Z" fill="#F2DFC6"/>
<path d="M58 12.4302H60L61 13.4902C61.64 15.0602 62.72 16.7502 60 17.4902C57.88 16.3902 58.05 14.3602 58 12.4302Z" fill="#FAE9C3"/>
<path d="M60 17.4799C61.48 16.4299 61 14.8799 61 13.4799L62 13.4199C61.8 15.4199 65.13 17.9499 61.09 19.3599C60.76 18.7299 60.39 18.0999 60 17.4799Z" fill="#F3D9AD"/>
<path d="M59.9004 23.32L60.0004 20.46C60.3404 20.11 60.6904 19.77 61.0004 19.46C61.6904 20.76 64.2104 20.2 64.0004 22.41C63.2276 23.2673 62.1519 23.7908 61.0004 23.87C60.5771 23.8332 60.1837 23.6365 59.9004 23.32V23.32Z" fill="#CEAE7E"/>
<path d="M54.1104 20.4299C53.6904 22.8399 55.2004 25.8099 52.1104 27.4299C52.1104 26.7699 52.1703 26.1099 52.1903 25.4299C53.5103 24.3299 52.9704 22.8099 53.1104 21.4299C53.1104 21.0699 53.1104 20.7199 53.1104 20.3599L54.1104 20.4299Z" fill="#DDC891"/>
<path d="M70.0801 33.4C71.8301 32.06 73.6601 30.94 76.0201 31.4C75.6101 33.49 75.2301 35.79 72.6801 36.18C70.8901 36.49 70.1901 35.05 70.0801 33.4Z" fill="#FDF1D9"/>
<path d="M61.0505 23.4002C61.7705 22.2302 62.9605 22.4002 64.0505 22.4002C63.0005 25.2502 62.5905 28.0102 65.0505 30.4002C64.7036 30.5961 64.423 30.8911 64.2449 31.2474C64.0667 31.6037 63.999 32.0052 64.0505 32.4002H62.0505C61.4939 31.8013 61.0227 31.1282 60.6505 30.4002C59.7705 28.0002 59.2805 25.6402 61.0505 23.4002Z" fill="#EAC688"/>
<path d="M65.0597 36.3898C63.7997 36.3098 62.0597 36.6698 61.7597 35.0798C61.4597 33.4898 62.9997 33.5198 64.1097 33.2998C66.5997 33.6598 65.6597 35.0798 65.0597 36.3898Z" fill="#FCEDCD"/>
<path d="M54.0704 29.3901L56.0704 27.3901C56.7563 27.7516 57.3592 28.2523 57.8404 28.8601C58.053 29.0763 58.2068 29.3432 58.2873 29.6354C58.3678 29.9277 58.3723 30.2356 58.3004 30.5301C58.0742 30.87 57.8127 31.1851 57.5204 31.4701C56.761 32.171 56.3023 33.1386 56.2404 34.1701C56.1338 35.041 55.7438 35.8527 55.1304 36.4801C52.1304 37.9201 53.4604 35.3501 53.1304 34.3301C52.2704 32.4401 54.8604 31.2601 54.0704 29.3901Z" fill="#D8BC93"/>
<path d="M44.0897 37.4102C45.0897 37.2302 45.6597 34.7702 46.5197 36.1202C47.9097 38.2902 45.5997 39.3502 44.0797 40.4202C42.8697 39.4202 44.4097 38.4202 44.0897 37.4102Z" fill="#F5E2C2"/>
<path d="M59.0604 36.3899L62.0604 38.3899C61.3004 41.0699 59.6904 40.3899 58.0004 39.3899C57.6604 38.3899 57.3304 37.3899 57.0004 36.4699C56.5004 35.6899 56.4104 34.7299 57.3604 34.4699C58.7604 34.1299 58.3604 35.8499 59.0604 36.3899Z" fill="#F1D4A2"/>
<path d="M59.0596 36.3902C58.3796 36.7102 57.5696 33.2002 56.9996 36.4702H55.0996V33.4702C56.0996 32.6902 56.3696 31.4702 57.0096 30.4702L58.0996 30.4102C58.8696 30.9502 60.3596 30.7602 60.0996 32.4102C59.7296 33.7002 59.3896 35.0002 59.0596 36.3902Z" fill="#DEC393"/>
<path d="M59.1797 44.2999C58.3597 46.0099 57.3097 46.4599 56.0297 44.7799C54.9097 43.3099 54.3197 41.8799 56.9797 41.4399C57.7097 42.3999 58.4397 43.3499 59.1797 44.2999Z" fill="#FDEFCF"/>
<path d="M60.0599 32.3598C59.6199 31.4798 57.5999 32.1998 58.0599 30.3598L57.0599 29.3598C56.9699 27.3598 58.3299 27.6698 59.5699 27.7998C60.6599 28.3998 60.7999 29.9098 62.0399 30.3698C62.0399 31.0198 62.0399 31.6798 62.0399 32.3698L60.0599 32.3598Z" fill="#D7B583"/>
<path d="M60.0502 28.4198C58.9602 28.4198 57.7902 28.2198 57.0502 29.4198C56.72 29.2063 56.4531 28.9081 56.2772 28.5563C56.1013 28.2046 56.0229 27.8121 56.0502 27.4198C56.9055 25.9553 57.2732 24.2569 57.1002 22.5698L59.0002 24.2398C60.7302 25.2798 61.0002 26.6998 60.0502 28.4198Z" fill="#CCA974"/>
<path d="M60.05 28.4198C60.1581 26.9499 59.79 25.4842 59 24.2398L59.92 23.3198L61.06 23.3998C61.16 25.7698 60.69 28.2098 62.06 30.3998C61.7919 30.4274 61.5209 30.3953 61.2666 30.306C61.0123 30.2167 60.7808 30.0723 60.5888 29.8831C60.3968 29.6939 60.2489 29.4647 60.1557 29.2117C60.0626 28.9588 60.0265 28.6884 60.05 28.4198V28.4198Z" fill="#D2AC70"/>
<path d="M56.9998 30.46C57.1998 31.98 57.0598 33.29 55.0898 33.46C55.0467 32.8216 55.2087 32.1861 55.5524 31.6464C55.896 31.1067 56.4032 30.691 56.9998 30.46V30.46Z" fill="#F5DFBF"/>
</g>
<defs>
<clipPath id="clip0">
<rect width="115.6" height="62.52" fill="white"/>
</clipPath>
</defs>
</svg>
