<svg width="74" height="55" viewBox="0 0 74 65" fill="none" xmlns="http://www.w3.org/2000/svg">
<g clip-path="url(#clip0)">
<path d="M66.1086 23.627C66.1086 23.627 56.0755 13.5451 37.5234 22.1289C18.9714 30.7127 15.3545 27.2223 8.93821 30.3562C2.52192 33.4901 -0.512769 34.5207 0.0694333 38.3497C0.651635 42.1787 -2.26239 45.3036 20.1388 50.7505C42.54 56.1974 58.175 54.2289 66.1086 49.1356C74.0423 44.0423 78.9412 32.6572 66.1086 23.627Z" fill="#506D23"/>
<path opacity="0.4" d="M66.1086 23.627C66.1086 23.627 56.0755 13.5451 37.5234 22.1289C18.9714 30.7127 15.3545 27.2223 8.93821 30.3562C2.52192 33.4901 -0.512769 34.5207 0.0694333 38.3497C0.651635 42.1787 -2.26239 45.3036 20.1388 50.7505C42.54 56.1974 58.175 54.2289 66.1086 49.1356C74.0423 44.0423 78.9412 32.6572 66.1086 23.627Z" fill="black"/>
<path opacity="0.2" d="M0.0686842 38.3498C0.653903 42.1729 -2.26314 45.3038 20.1381 50.7506C42.5393 56.1975 58.1743 54.2291 66.1079 49.1357C70.5061 46.3104 73.9691 41.5587 73.9993 36.3485C37.755 52.791 -0.338556 36.0968 0.831882 35.0781C0.119966 35.953 -0.139461 36.9716 0.0686842 38.3498Z" fill="black"/>
<path d="M51.8491 3.31634C51.8491 3.31634 53.7616 7.75054 52.8235 13.7787C51.8853 19.8068 53.11 33.8524 54.0904 39.8446C55.7224 49.8095 40.2684 78.6648 11.7314 57.2938L50.6787 2.26172" fill="#506D23"/>
<path opacity="0.32" d="M54.1871 42.1338C40.5793 66.7346 20.5672 62.3723 20.5672 62.3723C20.5672 62.3723 19.1042 59.0766 20.6909 62.63C41.7226 71.774 53.6261 52.1737 54.1871 42.1338Z" fill="black"/>
<path d="M46.5065 0.218551C46.5065 0.218551 37.9907 -4.06884 15.5895 25.2508C1.50802 43.6947 0.0329046 52.9076 15.2757 60.8203C30.5186 68.733 53.0797 52.629 50.2682 31.7583C47.4567 10.8876 58.7569 3.73595 46.5065 0.218551Z" fill="#F0E88D"/>
<path d="M45.137 2.09717C45.3142 2.09455 45.4911 2.11062 45.6649 2.14511L45.7343 2.18106L45.9243 2.23499C49.6227 3.2956 49.9605 4.46108 50.1053 4.95843C50.4944 6.29768 50.0208 8.50579 49.4175 11.3011C48.3768 16.1458 46.95 22.7791 48.2109 32.064C49.1762 39.2366 46.95 46.3103 41.9454 51.9849C37.0797 57.5067 30.3376 60.8054 23.9153 60.8054C21.2544 60.8281 18.6282 60.2048 16.2652 58.9898C10.5578 56.0266 7.5231 53.0096 6.73879 49.5192C5.6136 44.5157 8.7599 37.6367 17.2607 26.5092C34.5789 3.84688 42.9741 2.09717 45.137 2.09717ZM45.137 -8.5868e-05C41.9303 -8.5868e-05 32.9198 2.56456 15.5895 25.2509C1.50802 43.6948 0.0329046 52.9077 15.2757 60.8204C17.9406 62.1886 20.9004 62.8929 23.9002 62.8727C37.7282 62.8727 52.5819 48.9289 50.2803 31.7704C47.4779 10.9176 58.7569 3.73603 46.5065 0.218628C46.0706 0.0507107 45.6039 -0.0238222 45.137 -8.5868e-05V-8.5868e-05Z" fill="#B1C748"/>
<path d="M38.6119 42.6345C38.6119 42.6345 45.3811 27.4503 37.2725 18.3932C37.2725 18.3932 26.1111 18.2254 18.9286 31.2344L18.9709 31.2584C16.4158 35.9442 16.7567 44.534 21.4445 47.0867C26.1322 49.6393 33.0131 51.1164 38.6119 42.6345Z" fill="#603813"/>
<path opacity="0.2" d="M21.4421 47.0865C26.1299 49.6362 33.0138 51.1163 38.6095 42.6343C39.4707 40.5635 40.1303 38.4155 40.5794 36.2197C35.4723 49.7261 18.501 43.689 18.4678 43.677C19.1314 45.1481 20.1118 46.3615 21.4421 47.0865Z" fill="black"/>
<path d="M24.2198 29.3045C24.0329 29.3066 23.8487 29.259 23.6866 29.1665C23.5244 29.074 23.3902 28.94 23.2978 28.7785C23.2054 28.617 23.1583 28.4339 23.1613 28.2482C23.1643 28.0625 23.2173 27.881 23.3149 27.7226C26.9136 21.8323 33.7975 19.9328 34.0871 19.8399C34.3559 19.7672 34.6428 19.8035 34.8846 19.9409C35.1265 20.0783 35.3035 20.3054 35.3767 20.5724C35.4499 20.8394 35.4133 21.1244 35.275 21.3646C35.1367 21.6048 34.908 21.7805 34.6391 21.8533C34.5698 21.8712 28.2621 23.6509 25.1097 28.8042C25.0171 28.9564 24.8866 29.0824 24.7307 29.17C24.5749 29.2576 24.3989 29.3039 24.2198 29.3045V29.3045Z" fill="white"/>
</g>
<defs>
<clipPath id="clip0">
<rect width="74" height="65" fill="white"/>
</clipPath>
</defs>
</svg>
