<svg width="82" height="62" viewBox="0 0 82 62" fill="none" xmlns="http://www.w3.org/2000/svg">
<g clip-path="url(#clip0)">
<path d="M81.9759 39.4843C81.9447 39.7038 81.852 39.9101 81.7084 40.0797C81.6966 40.0927 81.6841 40.1051 81.6709 40.1169C81.5008 40.2928 81.2851 40.4188 81.0477 40.481C80.8578 40.534 80.6648 40.5757 80.4699 40.6059C78.207 40.9887 75.9548 41.4219 73.7133 41.9057L72.8413 42.0997C69.7197 42.7908 66.6196 43.5722 63.5328 44.4201L62.6394 44.6673C61.1558 45.0784 59.6739 45.5064 58.1938 45.9511L57.2095 46.2488C55.4869 46.7698 53.7696 47.3014 52.0577 47.8436L51.1028 48.1466C50.0329 48.501 48.9629 48.8501 47.893 49.1939L46.8953 49.5235C45.5953 49.954 44.3007 50.3926 43.0061 50.8285L41.995 51.1794C40.8751 51.5586 39.7552 51.9404 38.6354 52.325C38.3465 52.4206 38.0576 52.5216 37.7687 52.6227C36.1228 53.1791 34.4787 53.7372 32.8363 54.2972L32.1409 54.5337C31.0709 54.8988 30.001 55.2594 28.931 55.6155L28.0162 55.9212C26.8571 56.3075 25.698 56.6894 24.539 57.0668L23.8569 57.2874C22.5622 57.7074 21.2641 58.1194 19.9623 58.5234L19.1973 58.7599C15.72 59.8231 12.2427 60.8464 8.72796 61.7688C8.0004 61.9575 7.214 62.1382 6.52389 61.8485C6.26501 61.7275 6.03287 61.5567 5.84094 61.3459C5.64901 61.1351 5.50111 60.8885 5.4058 60.6205C5.18303 60.0354 5.04174 59.4229 4.98585 58.7998C4.77721 57.0615 4.56947 55.3249 4.36261 53.5902C4.28772 52.9602 4.21015 52.3356 4.13525 51.7057C3.86242 49.4269 3.59047 47.149 3.31942 44.872C3.26058 44.3794 3.20084 43.8885 3.14021 43.3995C2.92622 41.6275 2.71402 39.8484 2.5036 38.0622C2.44743 37.6237 2.3966 37.1878 2.34578 36.7492C2.12912 34.9471 1.91246 33.1503 1.69847 31.3482L1.55403 30.1308C1.33737 28.4802 1.1421 26.8456 0.944164 25.195C0.896017 24.7803 0.845195 24.3683 0.797048 23.9537H0.802397C0.624074 22.5361 0.453776 21.1185 0.291502 19.7009C0.291502 19.584 0.264754 19.467 0.25138 19.3501C0.211257 19.0604 0.179159 18.7733 0.147061 18.4862C-0.0562272 16.5406 -0.136472 14.5604 0.486766 12.7158C0.556312 12.5138 0.631207 12.3144 0.716802 12.1204C1.46148 10.4876 2.62802 9.07986 4.0978 8.04038V8.04038C4.56786 7.69507 5.0602 7.38076 5.57164 7.09946C6.04509 6.83366 6.52924 6.60508 7.02408 6.39244C7.25947 6.29143 7.49485 6.19309 7.73559 6.10006L7.79176 6.08145C8.87262 5.67392 9.97654 5.32957 11.0979 5.05016L11.9538 4.84018C12.2801 4.76044 12.6065 4.68602 12.9301 4.61159C13.7861 4.4149 14.6501 4.22884 15.5114 4.04544L16.5813 3.82217C18.1024 3.51385 19.6288 3.22856 21.1606 2.9663L22.3188 2.77493C24.5782 2.39927 26.8464 2.07854 29.1236 1.81274C29.4072 1.77553 29.6907 1.74363 29.9742 1.71174C30.7312 1.62402 31.4909 1.54163 32.2505 1.46986C32.962 1.3981 33.6709 1.33431 34.3904 1.27051L35.1929 1.20406C36.7068 1.08357 38.2226 0.98611 39.7401 0.911687L40.5773 0.869159L41.8719 0.815999C43.2183 0.768156 44.5646 0.735374 45.9109 0.717654H46.7134H46.8391C47.334 0.717654 47.9385 0.792078 48.5002 0.800051C48.7822 0.810479 49.0644 0.785473 49.3401 0.725628L49.9259 0.592729C50.2148 0.528938 50.5117 0.467804 50.8139 0.409329C52.0895 0.154417 53.3861 0.0173899 54.6871 0C54.9359 0 55.1846 0 55.428 0.0186058C56.0833 0.0456369 56.7344 0.134638 57.3727 0.284404C59.8041 0.874475 60.743 1.54694 61.7273 3.68662C62.1847 4.67804 62.5939 5.68807 62.9978 6.70342L63.4071 7.73472C63.9421 9.0451 64.4637 10.3502 65.0976 11.6021C65.3651 12.1337 65.6593 12.6865 65.9562 13.2155C66.1542 13.5699 66.3574 13.9243 66.5661 14.2787C67.6949 16.1951 68.952 18.0344 70.2627 19.8604C70.5819 20.3016 70.9047 20.7446 71.231 21.1894C72.7155 23.1962 74.2349 25.1764 75.6953 27.1991C76.0163 27.643 76.3346 28.0869 76.6449 28.5281C78.0437 30.4914 79.321 32.5374 80.4699 34.6547C80.8501 35.3504 81.1852 36.0695 81.473 36.8077C81.6039 37.146 81.7129 37.4922 81.7993 37.8443C81.8759 38.1371 81.9331 38.4345 81.9705 38.7347C82.0092 38.983 82.011 39.2355 81.9759 39.4843V39.4843Z" fill="#E99A77"/>
<path d="M81.9763 39.4842C81.9452 39.7037 81.8525 39.91 81.7089 40.0796C81.697 40.0926 81.6845 40.1051 81.6714 40.1168C81.5012 40.2927 81.2856 40.4187 81.0482 40.4809C80.8582 40.534 80.6653 40.5757 80.4704 40.6059C78.2075 40.9886 75.9553 41.4219 73.7137 41.9056L72.8417 42.0996C69.7202 42.7907 66.6201 43.5722 63.5333 44.4201L62.6399 44.6672C61.1562 45.0783 59.6744 45.5063 58.1943 45.9511L57.21 46.2487C55.4874 46.7697 53.7701 47.3013 52.0582 47.8435L51.1033 48.1465C50.0333 48.5009 48.9634 48.85 47.8935 49.1938L46.8958 49.5234C45.5958 49.954 44.3012 50.3925 43.0065 50.8284L41.9954 51.1793C40.8756 51.5585 39.7557 51.9404 38.6358 52.3249C38.347 52.4206 38.0581 52.5216 37.7692 52.6226C36.1233 53.179 34.4791 53.7371 32.8368 54.2971L32.1413 54.5337C31.0714 54.8987 30.0014 55.2593 28.9315 55.6155L28.0167 55.9211C26.8576 56.3074 25.6985 56.6893 24.5394 57.0667L23.8573 57.2873C22.5627 57.7073 21.2645 58.1193 19.9628 58.5233L19.1977 58.7598C15.7204 59.823 12.2432 60.8464 8.72841 61.7687C8.00085 61.9574 7.21444 62.1381 6.52433 61.8484C6.26546 61.7274 6.03332 61.5566 5.84139 61.3458C5.64946 61.135 5.50156 60.8885 5.40625 60.6204C5.4116 59.9921 5.55492 59.3726 5.8262 58.805C6.01286 58.3758 6.23287 57.9617 6.48421 57.5664C6.63133 57.3325 6.78914 57.1066 6.95498 56.8913C7.50142 56.1707 8.12971 55.5151 8.82738 54.9377C9.03334 54.7622 9.24733 54.5974 9.46399 54.438C10.5695 53.6283 11.7553 52.9327 13.0028 52.3621L13.0964 52.3169L13.5618 52.1043C14.7459 51.562 15.9353 51.0464 17.1301 50.5573L17.7159 50.3181C18.6681 49.9354 19.623 49.5686 20.5806 49.2177C20.7679 49.1486 20.9498 49.0795 21.1343 49.0157C22.5012 48.5213 23.8707 48.0641 25.2482 47.6336L25.8314 47.4555C27.3007 47.0036 28.7808 46.5872 30.2716 46.2062L30.9671 46.0308C32.5916 45.6215 34.2259 45.252 35.87 44.9224C36.1375 44.8693 36.3783 44.8188 36.6377 44.7709C38.5993 44.3828 40.5876 44.0453 42.6026 43.7582L43.3222 43.6572C44.36 43.5137 45.4032 43.3817 46.4517 43.2612C46.6283 43.2399 46.8048 43.2186 46.9867 43.2027L47.7704 43.115C48.8671 42.9945 49.9638 42.882 51.0605 42.7774C51.328 42.7508 51.5794 42.7243 51.8389 42.703C52.7858 42.6109 53.7327 42.5223 54.6795 42.4372C54.9435 42.4106 55.211 42.3867 55.482 42.3654L59.8714 41.9721C60.1255 41.9535 60.377 41.9295 60.6284 41.9056C61.8562 41.7966 63.0839 41.685 64.309 41.5627L64.5925 41.5362L65.0499 41.4883C67.1122 41.2863 69.1719 41.0657 71.2261 40.8079L72.1249 40.6936C72.6251 40.6298 73.1279 40.5607 73.6308 40.4916C75.4524 40.2258 77.3408 39.6304 79.1918 39.3646C79.5503 39.3141 79.906 39.2742 80.2618 39.2529C80.5292 39.237 80.7834 39.2317 81.0401 39.237C81.1178 39.1918 81.2038 39.1623 81.293 39.1502C81.3823 39.1382 81.473 39.1438 81.5601 39.1668C81.6471 39.1898 81.7287 39.2296 81.8001 39.2841C81.8716 39.3386 81.9315 39.4066 81.9763 39.4842V39.4842Z" fill="#DC9285"/>
<path d="M10.724 49.3347C10.0981 50.3793 9.50961 51.4478 8.97999 52.5456C8.74995 53.0187 8.21766 53.7709 8.28988 54.3158C8.3621 54.8607 8.7981 54.9191 9.23678 55.0972C10.3763 55.5517 11.5024 56.0833 12.674 56.4926C14.1344 57.0242 13.9713 55.6049 14.0836 54.4992C14.1558 53.7868 14.2762 53.2898 13.9231 52.6785C13.3213 51.6365 12.4867 50.6743 11.7832 49.6935C11.5452 49.3613 10.9808 49.6803 11.2269 50.0178C11.9063 50.9641 12.8639 51.9555 13.3667 53.0027C13.6342 53.5742 13.4951 54.3583 13.3935 54.967C13.3507 55.2142 13.3453 55.8308 13.0752 55.969C12.92 56.0488 12.0828 55.565 11.9277 55.5039L10.0954 54.7543C9.6273 54.563 9.45344 54.5842 9.2769 54.0819C9.10036 53.5795 9.23678 53.4891 9.43739 53.0692C9.99376 51.8997 10.6143 50.7621 11.2804 49.651C11.3233 49.5777 11.3351 49.4905 11.3133 49.4085C11.2915 49.3265 11.2378 49.2564 11.164 49.2138C11.0902 49.1711 11.0024 49.1594 10.9199 49.181C10.8374 49.2027 10.7669 49.2561 10.724 49.3294V49.3347Z" fill="#F6B4A1"/>
<path d="M48.5195 0.797576C47.4495 1.38765 46.3796 1.97506 45.3097 2.55982L43.9535 3.30937C41.1717 4.85099 38.4166 6.43249 35.7819 8.17878C35.4021 8.42863 35.0276 8.6838 34.6531 8.93896C33.1686 9.9676 31.7295 11.0521 30.3466 12.2269C29.9213 12.5884 29.4987 12.9605 29.0868 13.3432C28.9227 13.4956 28.7622 13.6498 28.6053 13.8057C27.6754 14.6955 26.8433 15.681 26.123 16.7454C26.0027 16.9262 25.8876 17.1096 25.7753 17.2956C25.389 17.9426 25.0648 18.6243 24.807 19.3317C24.6173 19.8672 24.4688 20.4163 24.363 20.9743C24.3148 21.2401 24.2747 21.5059 24.2453 21.7557C24.0916 23.0876 24.1186 24.4339 24.3255 25.7587C24.3764 26.0856 24.4325 26.4099 24.4967 26.7368C24.7015 27.7535 24.9695 28.7566 25.2992 29.7403C25.457 30.2134 25.6255 30.6919 25.794 31.1703C25.9144 31.5105 26.0401 31.8534 26.1578 32.1963C26.7249 33.815 27.2465 35.4496 27.3909 37.079C27.4176 37.366 27.4337 37.6531 27.4337 37.9402C27.4389 38.6523 27.3489 39.362 27.1662 40.0506C27.02 40.6047 26.8091 41.14 26.5376 41.6454C26.4389 41.8348 26.3309 42.0193 26.214 42.1982C25.6355 43.1 24.9443 43.9252 24.157 44.6542C24.0768 44.7286 23.9965 44.8084 23.9136 44.8934C23.7558 45.0503 23.5926 45.2177 23.4241 45.3931C22.6431 46.1905 21.755 47.1128 20.8643 47.5195C20.6773 47.6039 20.4852 47.6767 20.2892 47.7375C20.0641 47.806 19.8355 47.8628 19.6044 47.9076C18.0564 48.1861 16.466 48.129 14.9422 47.7401C13.7626 47.4291 12.7301 46.9029 12.1443 46.1453C11.8672 45.7793 11.6144 45.3957 11.3873 44.9971C10.3789 43.2375 9.63529 40.9835 8.97996 38.9475C8.87564 38.6312 8.77934 38.3176 8.68037 38.0146C8.54128 37.5813 8.41289 37.1667 8.27112 36.776C7.99829 35.9786 7.73615 35.1812 7.48472 34.3838C7.39377 34.0808 7.30015 33.7751 7.21723 33.4748C6.84811 32.2344 6.50216 30.9869 6.17939 29.7323C6.09647 29.4107 6.01623 29.0918 5.93598 28.7675C5.6043 27.4172 5.29313 26.059 5.00246 24.6928C4.93559 24.3712 4.86872 24.0496 4.80452 23.7253C4.49959 22.2333 4.21606 20.7377 3.95393 19.2386C3.89508 18.909 3.83891 18.5821 3.78541 18.2525C3.60709 17.1893 3.42876 16.1261 3.25044 15.0629C3.25044 15.0204 3.23707 14.9779 3.22904 14.9327C3.16485 14.5367 3.106 14.1353 3.06588 13.734C3.00338 13.1715 3.01327 12.6034 3.0953 12.0435C3.31805 10.8741 3.85716 9.78702 4.65473 8.89909C4.8286 8.69443 5.00781 8.49508 5.1897 8.30105C5.37159 8.10702 5.55081 7.93425 5.74072 7.75616C6.21417 7.3176 6.70634 6.91093 7.22258 6.51223C7.4018 6.37401 7.58369 6.24643 7.75755 6.10822C7.77093 6.09725 7.78525 6.08746 7.80035 6.07898C8.87864 5.67264 9.97987 5.32918 11.0984 5.05034L11.9544 4.84036C12.2807 4.76062 12.607 4.6862 12.9307 4.61177C13.7866 4.41508 14.6506 4.22903 15.5119 4.04563L16.5819 3.82235C18.103 3.51403 19.6294 3.22874 21.1612 2.96649L22.3194 2.77511C24.5787 2.39945 26.847 2.07872 29.1242 1.81292C29.4077 1.77571 29.6913 1.74382 29.9748 1.71192C30.7318 1.62421 31.4914 1.54181 32.2511 1.47004C32.9626 1.39828 33.6714 1.33449 34.391 1.2707L35.1934 1.20425C36.7074 1.08375 38.2231 0.986292 39.7407 0.911869L40.5779 0.869341L41.8725 0.816182C43.2188 0.768338 44.5652 0.735556 45.9115 0.717836H46.714H46.8397C47.3452 0.715178 47.9578 0.797576 48.5195 0.797576Z" fill="#EEA48C"/>
<path d="M10.3094 45.0128C11.612 45.9192 12.8826 46.8734 14.1077 47.8728C14.7015 48.3618 15.2837 48.8615 15.8543 49.3719C16.3893 49.8609 17.2854 50.4749 17.5127 51.2059C17.7561 52.0033 17.4191 53.1329 17.272 53.9144C17.1512 54.6132 16.9832 55.3032 16.7691 55.9796C16.2047 57.6807 15.1642 58.8795 13.2383 58.7492C11.6777 58.6606 10.131 58.4076 8.62423 57.9943C7.5008 57.6701 6.72242 57.197 6.72509 55.8919C6.72509 55.1264 7.05677 54.2147 7.24134 53.4758C8.01496 50.3879 9.08351 47.3805 10.4324 44.4945C10.6063 44.1224 10.0499 43.7954 9.87606 44.1702C8.20695 47.7664 6.5004 51.8783 6.0751 55.844C5.90926 57.3777 6.63415 58.0183 8.01972 58.4781C9.78511 59.0602 12.2379 59.5679 14.105 59.3924C17.3736 59.0815 18.0397 54.5177 18.1921 51.9687C18.2938 50.2676 16.7905 49.3107 15.6216 48.3113C14.0295 46.9417 12.3662 45.6562 10.6384 44.4599C10.296 44.226 9.97503 44.7789 10.3121 45.0128H10.3094Z" fill="#F6B4A1"/>
<path d="M21.3992 52.3782C21.1278 54.4703 20.642 56.5294 19.9494 58.5234L19.1844 58.76C19.8918 56.8168 20.4008 54.8079 20.7037 52.7636C20.8642 51.6286 21.1183 50.3528 20.6208 49.2737C20.6208 49.2524 20.5994 49.2311 20.586 49.2099C20.126 48.2663 19.1951 47.5247 18.4622 46.7858C15.4985 43.8142 12.467 40.917 9.36774 38.0942C7.20641 43.0884 5.53058 48.2764 4.3631 53.5876C4.28821 52.9576 4.21064 52.333 4.13574 51.7031C5.32697 46.8025 6.94511 42.0142 8.97186 37.3925C8.99799 37.3513 9.03297 37.3164 9.07428 37.2903C9.1156 37.2642 9.16222 37.2475 9.21081 37.2414C9.2594 37.2353 9.30874 37.2399 9.3553 37.255C9.40186 37.2701 9.44447 37.2953 9.48008 37.3287C13.1446 40.6512 16.8707 44.0162 20.2303 47.6496C20.6043 48.0497 20.9089 48.5087 21.1317 49.0079C21.5837 50.0099 21.5623 51.0545 21.3992 52.3782Z" fill="#F6B4A1"/>
<path d="M25.679 49.6828L24.5208 57.0667L23.8387 57.2873C24.2043 54.9429 24.5707 52.5977 24.9381 50.2516C25.0531 49.526 25.4115 48.3777 25.2484 47.6255C25.2484 47.5963 25.2484 47.5644 25.227 47.5352C25.0317 46.8441 24.2614 46.2354 23.7692 45.7357C22.8062 44.7523 21.8121 43.8007 20.7867 42.881C18.5831 40.9082 16.2412 39.0936 13.7786 37.4508C11.81 36.1404 9.63799 35.0586 7.99296 33.3336C6.17477 37.0709 4.60745 40.9236 3.30128 44.8665C3.24244 44.3739 3.1827 43.8831 3.12207 43.394C4.40213 39.7101 5.90913 36.1079 7.63453 32.6079C7.6597 32.5661 7.69413 32.5304 7.73521 32.5037C7.7763 32.477 7.82296 32.4599 7.87167 32.4537C7.92038 32.4476 7.96986 32.4525 8.01636 32.4682C8.06287 32.4839 8.10517 32.5098 8.14008 32.5442C10.1997 34.8938 13.2838 36.2653 15.8035 38.0754C18.1943 39.7815 20.4619 41.652 22.5896 43.6731C23.5632 44.5954 24.7776 45.5656 25.5159 46.6926C25.6677 46.9223 25.7748 47.1784 25.8315 47.4474C25.9866 48.1651 25.794 48.9067 25.679 49.6828Z" fill="#F6B4A1"/>
<path d="M38.6311 52.3251C38.3422 52.4208 38.0533 52.5218 37.7645 52.6228C35.8055 51.6278 33.9384 50.4635 32.1847 49.1435C31.6819 48.7634 31.195 48.3859 30.965 47.7773C30.7697 47.259 30.8393 46.932 30.4461 46.4084C30.3926 46.3366 30.3337 46.2675 30.2722 46.1984C30.0449 45.9486 29.772 45.7147 29.5473 45.4861C28.1243 44.0481 26.6933 42.6181 25.1954 41.2626C19.6049 36.2124 12.5353 33.1185 7.06527 27.9381C5.38725 31.2482 3.86081 34.6212 2.48594 38.057C2.42977 37.6185 2.37895 37.1826 2.32812 36.744C3.65841 33.5225 5.11175 30.356 6.68812 27.2444C6.71305 27.2023 6.74731 27.1664 6.78828 27.1394C6.82925 27.1125 6.87587 27.0951 6.92459 27.0887C6.97332 27.0823 7.02287 27.087 7.06949 27.1025C7.11611 27.1179 7.15858 27.1437 7.19367 27.1779C12.4845 32.3291 19.4043 35.3512 24.952 40.1887C26.4178 41.4699 27.8087 42.8281 29.1782 44.2076C29.756 44.7817 30.4675 45.3612 30.9677 46.023C31.0212 46.0921 31.072 46.1612 31.1175 46.2303C31.5214 46.831 31.4518 47.5593 31.9413 48.1255C32.5592 48.8431 33.6077 49.3774 34.3995 49.8904C35.1913 50.4034 35.9509 50.8658 36.7507 51.3177C37.3686 51.6686 37.9972 52.0061 38.6311 52.3251Z" fill="#F6B4A1"/>
<path d="M32.8313 54.2969L32.1358 54.5334C31.4671 54.0284 30.6994 53.8158 29.8702 54.4829C29.495 54.8076 29.1744 55.1899 28.9207 55.6152L28.0059 55.9209C28.3246 55.3602 28.6896 54.8268 29.0972 54.3261C30.3517 52.9652 31.6971 53.3187 32.8313 54.2969Z" fill="#F6B4A1"/>
<path d="M66.5669 14.2812C65.497 13.723 64.4618 13.117 63.4614 12.4631C62.4878 11.8252 61.5462 11.1341 60.6368 10.4165C60.0885 9.98057 59.3903 9.60048 58.8607 9.10875C58.7724 9.34797 58.6708 9.64035 58.6574 9.6749C58.529 9.96462 58.3899 10.2543 58.2615 10.5414C57.8683 11.3999 57.4591 12.2558 57.0472 13.1064C56.2206 14.8048 55.37 16.4793 54.5221 18.1778C52.8396 21.5375 51.1785 24.9104 49.793 28.403C47.7414 33.5648 45.7486 38.6628 43.3225 43.6492C43.0978 44.1143 42.8705 44.5742 42.6351 45.0393C42.2044 45.8899 41.4849 48.08 40.4498 48.3963C38.6416 48.9545 37.0367 46.0387 36.0684 45.1031L35.8704 44.9144C33.6878 42.8465 31.168 41.0656 28.8677 39.1333C26.2782 36.8995 23.5749 34.7996 20.7683 32.8418C15.8546 29.4981 10.4835 26.8162 6.05662 22.8133C4.45397 25.5803 2.99342 28.4262 1.68057 31.3401L1.53613 30.1227C2.79866 27.4063 4.18779 24.7456 5.70354 22.1408C5.72939 22.0997 5.76412 22.0648 5.8052 22.0387C5.84628 22.0126 5.8927 21.9959 5.94109 21.9898C5.98947 21.9837 6.03862 21.9883 6.08497 22.0034C6.13132 22.0185 6.17372 22.0437 6.20908 22.077C11.1629 26.6806 17.3846 29.5513 22.8225 33.5063C25.1898 35.2287 27.4473 37.0919 29.6835 38.9791C31.9197 40.8663 34.41 42.6073 36.5231 44.6539C36.5632 44.6911 36.6007 44.7283 36.6381 44.7682C37.3737 45.5231 37.9381 46.5092 38.7539 47.1604C39.0266 47.3889 39.3434 47.5598 39.6847 47.6627C40.5139 47.878 40.2197 47.7664 40.5915 47.3969C40.8174 47.1183 41.0046 46.8108 41.1479 46.4826C41.6561 45.5922 42.1349 44.6752 42.603 43.7528C42.9855 42.9927 43.3627 42.2272 43.7291 41.467C46.5564 35.6487 48.4636 29.4529 51.1785 23.5868C52.4651 20.8039 53.8534 18.0715 55.2336 15.3258C55.9398 13.917 56.6379 12.503 57.3066 11.073C57.6463 10.3527 57.9299 9.61908 58.2401 8.89346C58.296 8.67832 58.3952 8.47668 58.5317 8.30073C58.5668 8.26738 58.609 8.24225 58.6551 8.22717C58.7013 8.21209 58.7502 8.20744 58.7984 8.21355C58.8466 8.21966 58.8928 8.23639 58.9337 8.2625C58.9745 8.28862 59.009 8.32348 59.0346 8.36452C59.0346 8.36452 59.9815 9.0423 60.0778 9.12204C60.5245 9.49948 60.9712 9.87159 61.4339 10.2278C62.4163 10.9885 63.4377 11.6983 64.4939 12.3541C64.9772 12.6554 65.4649 12.9424 65.9571 13.2153C66.155 13.5786 66.3583 13.9339 66.5669 14.2812Z" fill="#F6B4A1"/>
<path d="M63.4079 7.74279C61.2975 6.38988 59.294 4.88813 57.7907 2.86275C55.3795 9.3813 52.5894 15.7552 49.4345 21.9523C47.7761 25.2031 45.9867 28.374 44.1811 31.545C42.3126 34.8062 40.8818 38.2966 39.9255 41.9271C39.9094 41.9798 39.8802 42.0276 39.8404 42.066C39.8006 42.1044 39.7516 42.1321 39.6981 42.1465C39.6446 42.1608 39.5882 42.1614 39.5344 42.1481C39.4806 42.1348 39.4311 42.1082 39.3905 42.0706C33.5058 37.4856 27.5891 32.8979 21.2363 28.9561C15.6192 25.4715 9.7345 22.3776 4.56403 18.2073C3.19586 20.4493 1.98657 22.7833 0.944968 25.1924C0.896821 24.7778 0.845999 24.3658 0.797852 23.9511H0.803201C1.80137 21.7568 2.93591 19.6263 4.20025 17.572C4.22588 17.5307 4.26043 17.4956 4.30141 17.4692C4.34238 17.4428 4.38875 17.4259 4.43715 17.4195C4.48555 17.4131 4.53476 17.4176 4.58123 17.4324C4.6277 17.4473 4.67025 17.4723 4.7058 17.5055C10.1357 21.963 16.4216 25.1605 22.341 28.895C28.3033 32.6613 33.8776 36.9806 39.436 41.3024C40.2943 38.0799 41.5456 34.9736 43.162 32.0527C44.9381 28.8631 46.7731 25.7214 48.4475 22.4839C51.8514 15.8801 54.8387 9.07224 57.3922 2.09991C57.4109 2.04068 57.4462 1.98801 57.4941 1.94817C57.542 1.90833 57.6004 1.88299 57.6624 1.87515C57.7244 1.86732 57.7873 1.87732 57.8437 1.90396C57.9001 1.93061 57.9476 1.97279 57.9807 2.02548C59.2887 3.97112 61.0754 5.4277 62.9987 6.7115L63.4079 7.74279Z" fill="#F6B4A1"/>
<path d="M71.2312 21.1737C70.3351 20.6421 69.431 20.1105 68.5055 19.6241C65.5337 18.0745 62.5165 16.5276 60.1841 14.0876C56.557 23.954 52.847 33.9055 47.7567 43.1154C46.2989 45.7574 44.7235 48.3436 43.0035 50.8447L41.9951 51.1797C43.7952 48.6089 45.4603 45.9474 46.9837 43.2057C52.2531 33.7672 56.0407 23.5367 59.7614 13.3992C59.7775 13.3463 59.8069 13.2985 59.8469 13.2603C59.8869 13.222 59.9361 13.1946 59.9899 13.1808C60.0436 13.1669 60.1 13.167 60.1537 13.181C60.2074 13.195 60.2565 13.2226 60.2964 13.2609C62.7252 15.996 66.0099 17.5934 69.1983 19.2759C69.554 19.4647 69.9098 19.6613 70.2682 19.8607C70.5838 20.2966 70.9048 20.7343 71.2312 21.1737Z" fill="#F6B4A1"/>
<path d="M76.6452 28.5225C71.7662 25.519 66.8846 22.5172 62.0004 19.5173C59.0072 27.3955 55.891 35.303 51.836 42.6948C50.6189 44.9142 49.3163 47.0885 47.904 49.2016L46.9062 49.5312C48.4042 47.3383 49.779 45.079 51.0576 42.7693C55.2651 35.1887 58.4589 27.0553 61.5323 18.9591C61.5458 18.912 61.5698 18.8686 61.6026 18.832C61.6355 18.7955 61.6762 18.7668 61.7217 18.7481C61.7673 18.7295 61.8165 18.7213 61.8657 18.7242C61.9149 18.7271 61.9628 18.7411 62.0057 18.7651L75.6983 27.1855C76.0166 27.6427 76.3349 28.0733 76.6452 28.5225Z" fill="#F6B4A1"/>
<path d="M81.7998 37.8389C78.9627 35.7019 76.0819 33.6216 73.1574 31.598C71.2993 30.3115 69.4269 29.0481 67.5402 27.8077C66.6334 27.2123 65.6678 26.4202 64.6888 25.9657C63.758 25.5351 63.6697 25.6042 63.3996 26.5451C63.2738 26.9811 63.1588 27.417 63.0224 27.8449C61.7706 31.784 59.6628 35.3803 57.555 38.9154C56.8685 40.0672 56.1757 41.219 55.4767 42.3707C54.3532 44.2101 53.2164 46.0405 52.0662 47.8621L51.1113 48.1651C52.3168 46.2673 53.5071 44.3598 54.6822 42.4425C55.7058 40.7662 56.7178 39.0828 57.7182 37.3924C58.8953 35.4475 59.9737 33.4453 60.9494 31.3933C61.5108 30.1904 61.9959 28.9538 62.4018 27.6907C62.6319 26.9704 62.6693 25.878 63.1749 25.2799C63.2837 25.1217 63.4422 25.0038 63.6256 24.9447C63.8091 24.8855 64.0071 24.8884 64.1886 24.953C65.1489 25.1869 66.2295 26.2049 67.0534 26.7392C69.072 28.0504 71.0817 29.3945 73.0825 30.7713C75.9232 32.7205 78.7202 34.7308 81.4735 36.8023C81.6044 37.1406 81.7134 37.4868 81.7998 37.8389V37.8389Z" fill="#F6B4A1"/>
<path d="M81.6848 40.1169C81.5109 40.2949 81.2904 40.4211 81.0482 40.481C80.4249 40.1009 79.8017 39.7315 79.1758 39.3594C74.88 36.8157 70.4799 34.4474 66.069 32.0845C63.9559 35.1597 62.3885 38.6045 60.6043 41.9004C59.867 43.2911 59.0582 44.6431 58.1809 45.9511L57.21 46.2488C58.1814 44.8785 59.0658 43.4493 59.8581 41.9695C61.7813 38.4689 63.4183 34.7664 65.7026 31.5077C65.7475 31.4362 65.8183 31.3845 65.9004 31.3632C65.9824 31.3419 66.0696 31.3527 66.1439 31.3934C70.8864 33.9371 75.6289 36.4887 80.2457 39.2504C80.7272 39.5374 81.2087 39.8245 81.6848 40.1169Z" fill="#F6B4A1"/>
<path d="M73.7106 41.9058L72.8386 42.0998C72.2748 41.6951 71.732 41.2622 71.2123 40.8027C71.1508 40.7522 71.0893 40.6964 71.0304 40.6432C70.359 40.0293 69.7652 39.3408 69.1366 38.687C68.7729 38.3095 68.3342 37.7806 67.8607 37.5494C67.2321 37.2331 67.0396 37.3234 66.6544 37.8338C66.1194 38.5727 65.8145 39.7608 65.4427 40.5927C65.3089 40.8904 65.1752 41.1881 65.0361 41.4832C64.8114 41.9669 64.5814 42.4507 64.3433 42.9264C64.1053 43.4022 63.8083 43.9312 63.5409 44.4202L62.6475 44.6674C63.2555 43.6608 63.8091 42.6227 64.3059 41.5576C64.3861 41.3928 64.4637 41.2253 64.5412 41.0579C64.9639 40.1435 65.3598 39.2186 65.7637 38.3016C65.983 37.7992 66.189 36.8237 66.7533 36.5686C67.9223 36.037 69.6368 38.2776 70.2895 38.9607C70.8618 39.5715 71.4739 40.1442 72.1218 40.6751C72.6273 41.1164 73.1623 41.5177 73.7106 41.9058Z" fill="#F6B4A1"/>
<path d="M55.4285 0.0186058C52.3684 5.01295 49.8996 10.3289 47.5109 15.6635C45.2453 20.7136 43.0279 25.801 40.3718 30.6678C39.6843 31.925 38.9915 33.2008 38.2051 34.4022C37.8868 34.8886 37.5926 35.2926 36.9613 35.1305C36.3301 34.9684 35.6721 34.3331 35.1505 33.9769L33.2513 32.7277C32.0583 31.9392 30.8636 31.1515 29.667 30.3647C27.4309 28.8869 25.1733 27.4596 23.226 25.6043C22.1561 24.5836 21.1316 23.5072 19.8878 22.6805C18.8179 21.9788 17.6543 21.4738 16.5148 20.913C13.9443 19.669 11.9221 17.6011 9.24728 16.5512C7.31337 15.7911 5.32061 15.2435 3.66221 13.973C2.84411 15.946 1.68846 17.7635 0.24643 19.3448C0.211657 19.0604 0.179559 18.7733 0.147461 18.4862C1.45371 16.9662 2.48946 15.2358 3.21016 13.3696C3.22617 13.3169 3.25545 13.269 3.29523 13.2307C3.33501 13.1923 3.38398 13.1646 3.43752 13.1502C3.49106 13.1358 3.5474 13.1353 3.60122 13.1486C3.65504 13.1618 3.70457 13.1885 3.74513 13.2261C5.86628 15.0442 8.71231 15.4163 11.1197 16.6948C12.4009 17.3779 13.4735 18.3666 14.6799 19.1667C15.8862 19.9667 17.1835 20.4957 18.4594 21.1495C20.6421 22.242 22.231 23.8075 23.9937 25.4475C26.0533 27.3612 28.4955 28.8231 30.8359 30.3674L34.6342 32.8686C35.1942 33.2407 35.7559 33.6119 36.3194 33.9823C37.2261 34.5803 37.4696 34.3836 38.0045 33.4958C39.3419 31.2897 40.5563 29.0172 41.7038 26.7153C46.1227 17.851 49.5385 8.48958 54.6875 0C54.9363 0 55.185 0 55.4285 0.0186058Z" fill="#F6B4A1"/>
<path d="M50.822 0.40918C44.801 9.51441 39.9597 19.3378 36.4126 29.6469C36.3957 29.699 36.3658 29.746 36.3259 29.7837C36.2859 29.8214 36.237 29.8484 36.1838 29.8625C36.1306 29.8765 36.0746 29.877 36.0211 29.864C35.9676 29.8509 35.9183 29.8247 35.8776 29.7878C30.1267 25.1736 23.8783 21.5215 17.5737 17.7286C14.7098 16.0002 11.9663 14.0821 9.36189 11.9873C8.10472 10.98 6.71647 9.70147 5.19983 9.06356C3.6832 8.42564 3.04124 9.44631 2.19064 10.3925C1.68063 10.9525 1.18935 11.5284 0.716797 12.1202C1.46147 10.4874 2.62802 9.07971 4.0978 8.04024V8.04024C4.90025 7.99771 5.71875 8.60373 6.44631 9.05824C9.74707 11.1208 12.5985 13.8426 15.8805 15.9238C19.3631 18.1246 23.0036 20.0649 26.4809 22.2631C29.7622 24.3434 32.9276 26.5989 35.9632 29.0197C39.4448 19.015 44.1399 9.46901 49.9446 0.59258C50.2335 0.531447 50.5304 0.467655 50.822 0.40918Z" fill="#F6B4A1"/>
<path d="M46.7332 0.717773C46.2571 1.32911 45.7863 1.9431 45.3129 2.56241C43.1516 5.41708 41.0866 8.35149 39.3694 11.4959C38.1212 13.7666 37.1068 16.1568 36.3415 18.6299C35.761 20.5117 35.2047 22.4255 33.6318 23.7332C33.5706 23.7914 33.4892 23.8238 33.4045 23.8238C33.3198 23.8238 33.2383 23.7914 33.1771 23.7332C30.8589 21.7131 28.5407 19.6904 26.2225 17.665L25.7758 17.277C23.652 15.4164 21.6164 13.6409 18.9149 12.6255C16.4613 11.7463 14.0836 10.6707 11.8051 9.40936C10.235 8.50565 8.713 7.52486 7.22312 6.51217L7.0332 6.37927C7.26859 6.27826 7.50398 6.17992 7.74471 6.08689L7.75809 6.11347C9.31217 7.1554 10.8903 8.16809 12.5273 9.08775C14.9347 10.438 17.4704 11.3151 20.0169 12.3704C22.3681 13.3485 24.2378 15.0629 26.1236 16.7454L26.6585 17.2238L33.3911 23.0926C35.1672 21.4394 35.531 18.8399 36.312 16.6444C37.1096 14.4866 38.0895 12.3998 39.241 10.4061C40.6691 7.95006 42.2439 5.58111 43.9567 3.31196C44.6005 2.44192 45.2549 1.57896 45.9201 0.723089L46.7332 0.717773Z" fill="#F6B4A1"/>
<path d="M40.5834 0.874512C38.787 3.17671 37.1822 5.62037 35.7848 8.1813C34.4572 10.6034 33.3214 13.1246 32.3877 15.722C32.3742 15.7688 32.3503 15.8119 32.3176 15.8482C32.2849 15.8844 32.2444 15.9128 32.1991 15.9312C32.1538 15.9496 32.1048 15.9576 32.0559 15.9545C32.0071 15.9514 31.9595 15.9373 31.9169 15.9134C30.8583 15.1374 29.7523 14.4273 28.6055 13.787C26.0082 12.3304 23.2558 11.1689 20.5061 9.97809C18.5293 9.11956 16.5553 8.24509 14.6642 7.21379C13.4391 6.5493 12.2568 5.79975 11.0986 5.04488L11.9546 4.8349C12.9496 5.48079 13.95 6.11339 14.9798 6.67156C16.8816 7.70817 18.853 8.57733 20.8324 9.43586C23.6276 10.6479 26.4496 11.828 29.087 13.3351C30.0636 13.8838 31.0109 14.4827 31.925 15.1292C33.8053 10.0312 36.4414 5.24097 39.7462 0.917039L40.5834 0.874512Z" fill="#F6B4A1"/>
<path d="M35.1988 1.20947L31.454 7.0331C30.9405 7.8305 30.4376 9.06911 29.603 9.60337C28.921 10.0366 28.0677 9.70703 27.3562 9.51831C24.9306 8.878 22.5944 7.94051 20.4016 6.72744C18.7753 5.84764 17.2265 4.72066 15.5146 4.05085L16.5846 3.82758C17.2774 4.15983 17.9514 4.54524 18.6255 4.94659C20.7359 6.20381 22.8384 7.35206 25.1441 8.17072C26.1151 8.5136 27.3508 9.07975 28.3887 9.11962C29.8973 9.17278 30.7318 6.95071 31.438 5.8503C32.4223 4.32462 33.4031 2.79983 34.3803 1.27592L35.1988 1.20947Z" fill="#F6B4A1"/>
<path d="M29.9855 1.71729C29.5548 2.44291 29.1108 3.16323 28.6293 3.84367C28.1479 4.52411 27.637 5.07697 26.7864 5.08229C25.4891 5.08229 23.9938 4.14934 22.8169 3.66027L21.1719 2.96654L22.3301 2.77516C23.4 3.22702 24.47 3.6709 25.5613 4.10415C26.5109 4.47893 27.4337 4.42577 28.073 3.53003C28.3405 3.16588 28.5518 2.76453 28.7872 2.38444L29.1349 1.8236C29.4238 1.78108 29.6913 1.74918 29.9855 1.71729Z" fill="#F6B4A1"/>
</g>
<defs>
<clipPath id="clip0">
<rect width="82" height="62" fill="white"/>
</clipPath>
</defs>
</svg>
