<svg width="78" height="63" viewBox="0 0 98 63" fill="none" xmlns="http://www.w3.org/2000/svg">
<g clip-path="url(#clip0)">
<path d="M70.9094 33.3338C65.5942 37.07 59.094 38.667 52.828 38.655C47.4719 38.655 42.6144 37.8297 38.1928 35.5594C35.6156 34.2288 33.2521 32.4509 31.194 30.2948C28.0229 27.0174 26.3828 22.5959 27.004 17.811C27.1983 16.3389 27.6527 14.9222 28.3416 13.6398C29.3024 11.8559 30.6632 10.3693 32.2953 9.32042C33.9275 8.27153 35.7772 7.69495 37.6697 7.64515C39.209 7.61535 40.7455 7.91926 42.2821 7.85371C46.7881 7.65707 50.6049 4.38268 54.6833 2.27622C59.1566 -0.0328368 64.0741 -0.807488 68.8035 1.00996C71.5279 2.05276 73.6501 3.49183 75.2984 5.41952C77.1346 7.57066 78.3687 10.3296 79.1369 13.8334C80.8015 21.428 76.6823 29.2788 70.9094 33.3338Z" fill="#2D2D2D"/>
<path d="M60.1701 3.89105C59.9904 4.23939 59.8863 4.62829 59.866 5.02766C59.8457 5.42703 59.9097 5.82616 60.053 6.19415C60.349 6.92443 60.8092 7.56093 61.3906 8.04437C62.9203 9.4059 64.8744 10.0631 66.8393 9.87672C67.5922 9.84192 68.3187 9.56293 68.9262 9.07526C73.6447 4.83553 63.3304 -1.61493 60.1701 3.89105Z" fill="#565656"/>
<path d="M44.3413 12.7641C47.4709 12.8057 50.5034 11.5764 52.8521 9.31394C54.0236 8.20262 52.3073 6.33451 51.1521 7.45478C49.2619 9.23655 46.8362 10.1915 44.3413 10.1363C42.7939 10.1154 42.7911 12.7462 44.3413 12.7641Z" fill="#A99EA0"/>
<path d="M70.9094 33.3337C65.5942 37.0699 59.094 38.6669 52.828 38.6549C47.4719 38.6549 42.6144 37.8296 38.1928 35.5593C35.6156 34.2287 33.2521 32.4508 31.194 30.2947C28.0229 27.0173 26.3828 22.5958 27.004 17.8109C27.1983 16.3388 27.6527 14.9221 28.3416 13.6397C27.9968 16.3889 28.5558 19.1827 29.919 21.5232C32.4036 25.6944 36.8579 28.0333 41.3122 29.085C49.0439 30.9084 57.1924 29.4366 64.5563 26.2784C68.6864 24.5116 72.8492 21.988 74.9769 17.7364C76.5216 14.6467 76.8022 10.8837 75.9604 7.49014C75.7843 6.78379 75.5631 6.09185 75.2984 5.41943C77.1346 7.57058 78.3687 10.3295 79.1369 13.8333C80.8015 21.4279 76.6823 29.2787 70.9094 33.3337Z" fill="black"/>
<path d="M86.7128 61.6146C81.2804 63.5542 75.2569 63.3248 69.7728 61.7487C65.0842 60.4019 61.0005 58.4713 57.6059 55.3786C55.6282 53.5693 53.9308 51.4222 52.5795 49.0205C50.4927 45.3529 49.9778 41.0744 51.5225 37.0432C51.9992 35.8018 52.6933 34.6742 53.5657 33.7241C54.78 32.4025 56.2822 31.4411 57.9305 30.9308C59.5789 30.4204 61.319 30.3779 62.9865 30.8073C64.3487 31.1678 65.6209 31.8173 66.9804 32.145C70.9661 33.0985 74.9927 31.1857 79.0029 30.3574C83.4027 29.4636 87.8679 30.0028 91.6302 32.7797C93.7879 34.3707 95.3544 36.1643 96.3924 38.2648C97.5529 40.6066 98.0542 43.3298 97.9943 46.5893C97.8635 53.6625 92.6273 59.5081 86.7128 61.6146Z" fill="#2D2D2D"/>
<path d="M88.1653 34.7103C87.9924 34.9049 87.8633 35.1407 87.7881 35.3993C87.7129 35.6579 87.6938 35.932 87.7322 36.2C87.8104 36.7313 88.01 37.2325 88.3125 37.657C89.0991 38.8277 90.2717 39.6174 91.5817 39.8588C92.0766 39.9731 92.5914 39.9243 93.061 39.7187C96.7742 37.8387 91.0722 31.719 88.1653 34.7103Z" fill="#565656"/>
<path d="M67.7551 36.9596C70.4867 37.7782 73.3988 37.4597 75.9281 36.0658C77.1841 35.3865 76.078 33.3366 74.8384 34.0129C72.812 35.1022 70.4883 35.3314 68.3163 34.6565C66.9541 34.2543 66.4093 36.5544 67.7715 36.9596H67.7551Z" fill="#A99EA0"/>
<path d="M86.7128 61.6146C81.2804 63.5542 75.2569 63.3248 69.7728 61.7486C65.0842 60.4019 61.0004 58.4713 57.6059 55.3786C55.6282 53.5692 53.9308 51.4222 52.5795 49.0205C50.4927 45.3528 49.9778 41.0744 51.5225 37.0432C51.9992 35.8017 52.6933 34.6742 53.5657 33.7241C52.6875 36.0432 52.591 38.628 53.2933 41.0178C54.5928 45.2992 58.0064 48.4663 61.687 50.4894C68.0728 54.017 75.5157 54.7678 82.6235 53.8442C86.6065 53.3317 90.7802 52.1608 93.5209 48.9699C95.5178 46.6548 96.5531 43.4311 96.5177 40.2461C96.5123 39.5846 96.4631 38.9244 96.3706 38.2707C97.5311 40.6126 98.0324 43.3358 97.9725 46.5953C97.8635 53.6625 92.6273 59.5081 86.7128 61.6146Z" fill="black"/>
<path d="M36.0895 60.4379C30.6409 62.3775 24.631 62.1481 19.1469 60.572C14.461 59.2252 10.3772 57.2946 6.98267 54.2019C5.0045 52.3922 3.30629 50.2452 1.95354 47.8438C-0.133308 44.1732 -0.648208 39.8977 0.896493 35.8665C1.37321 34.6251 2.06732 33.4976 2.93975 32.5475C4.154 31.2258 5.65621 30.2645 7.30456 29.7541C8.9529 29.2437 10.693 29.2012 12.3605 29.6306C13.7227 29.9881 14.995 30.6406 16.3544 30.9684C20.3401 31.9218 24.3667 30.009 28.3769 29.1807C32.7795 28.2869 37.2447 28.8261 41.0042 31.6C43.1619 33.194 44.7284 34.9876 45.7691 37.0881C46.927 39.4299 47.431 42.1531 47.3683 45.4126C47.2403 52.4858 41.9905 58.3314 36.0895 60.4379Z" fill="#2D2D2D"/>
<path d="M32.8701 31.698C32.6724 31.9202 32.5243 32.1894 32.4374 32.4845C32.3504 32.7795 32.327 33.0926 32.3688 33.3992C32.4581 34.0134 32.6887 34.5927 33.039 35.0826C33.9433 36.4372 35.2968 37.3506 36.8095 37.627C37.3805 37.7612 37.9752 37.7062 38.5176 37.4691C42.8139 35.2971 36.2346 28.2418 32.8701 31.698Z" fill="#565656"/>
<path d="M17.1303 35.7828C19.8619 36.6014 22.774 36.2829 25.3033 34.889C26.562 34.2097 25.4532 32.1599 24.2136 32.8362C22.1881 33.9252 19.8653 34.1545 17.6942 33.4797C16.3321 33.0775 15.7872 35.3776 17.1494 35.7828H17.1303Z" fill="#A99EA0"/>
<path d="M36.0895 60.4378C30.6408 62.3774 24.631 62.148 19.1469 60.5719C14.461 59.2252 10.3772 57.2945 6.98267 54.2018C5.0045 52.3921 3.30629 50.2452 1.95354 47.8438C-0.133308 44.1731 -0.648208 39.8976 0.896493 35.8664C1.37321 34.625 2.06732 33.4975 2.93975 32.5474C2.06414 34.8671 1.96762 37.4509 2.66731 39.841C3.96955 44.1224 7.38042 47.2896 11.061 49.3126C17.4496 52.8402 24.8898 53.5911 31.9976 52.6674C35.9806 52.155 40.1542 50.9841 42.8949 47.7931C44.8946 45.4781 45.9271 42.2543 45.8917 39.0693C45.8859 38.408 45.8377 37.7479 45.7473 37.094C46.9052 39.4358 47.4092 42.159 47.3465 45.4185C47.2403 52.4857 41.9905 58.3313 36.0895 60.4378Z" fill="black"/>
<path d="M39.9305 40.5645C39.9676 40.4216 39.978 40.272 39.9612 40.1246C39.9443 39.9772 39.9005 39.835 39.8324 39.7064C39.6991 39.4637 39.4843 39.2876 39.2338 39.2158C38.9834 39.1439 38.7171 39.1821 38.4921 39.3221C37.9254 39.7094 37.7892 40.5854 37.8219 41.2587C37.8546 42.0066 38.2305 42.6978 38.9933 42.7484C39.1459 42.7484 39.3012 42.7484 39.4538 42.7752C39.6482 42.7771 39.8396 42.723 40.0089 42.6184C40.1782 42.5139 40.3193 42.3624 40.4182 42.1794C40.5633 41.8995 40.6881 41.6076 40.7914 41.3064C40.835 41.1813 40.8187 41.22 40.7451 41.4196C40.7778 41.3511 40.8214 41.2885 40.8568 41.223C40.9397 41.0854 41.0143 40.9421 41.0802 40.7939C41.1961 40.5661 41.257 40.3098 41.257 40.0491C41.257 39.7884 41.1961 39.532 41.0802 39.3042C40.9563 39.0865 40.7848 38.9058 40.5813 38.7784C40.3778 38.651 40.1486 38.5809 39.9142 38.5743C39.2631 38.4878 38.7155 38.8513 38.2796 39.3608C38.0919 39.5793 37.93 39.8225 37.7974 40.0848L37.6993 40.2934C37.6993 40.3232 37.6693 40.353 37.653 40.3828C37.5467 40.5854 37.9091 40.058 37.7674 40.2249C37.1817 40.9101 37.2225 42.1764 38.0534 42.6382C38.3467 42.818 38.6638 42.9467 38.9933 43.0196C39.2694 43.0895 39.5564 43.0895 39.8324 43.0196C40.2356 42.9272 40.4645 42.6024 40.6961 42.2687C41.1619 41.5924 40.7587 40.645 40.1893 40.2487L40.6797 40.785C40.4839 40.4218 40.1646 40.1583 39.7916 40.052L39.4156 39.9954C39.2767 39.9954 39.353 39.9954 39.6472 40.0312C39.5975 40.0201 39.5484 40.0062 39.5001 39.9895C39.4251 39.9651 39.3515 39.9363 39.2794 39.9031C39.7725 40.1206 39.5791 40.0461 39.4701 39.9895L39.7562 42.4028C39.9415 42.1733 40.0964 41.9166 40.2166 41.6401C40.2765 41.5149 40.5435 41.1455 40.2547 41.5269C40.3791 41.3804 40.5139 41.2449 40.6579 41.1217L39.6853 41.5626L39.9142 41.5298L38.6147 39.626C38.5622 39.8864 38.5339 40.1519 38.5302 40.4185C38.5302 40.5437 38.4784 40.9667 38.5575 40.5317C38.5154 40.7624 38.4553 40.9887 38.3776 41.2081L39.4538 40.3142C39.3012 40.3142 39.1459 40.3321 38.9933 40.3381L39.7752 40.6986L39.906 40.8833C39.9823 41.1078 40.0041 41.1614 39.9714 41.0442C39.9469 40.9578 39.9387 40.7463 39.9714 41.1455C39.9632 41.0245 39.9632 40.903 39.9714 40.782C39.9768 40.6728 39.9768 40.5634 39.9714 40.4543C39.9441 40.1206 40.0831 40.3023 39.8352 40.788L38.4948 41.1723L38.1406 40.7909L38.0507 40.5645C38.1099 40.7878 38.2332 40.9844 38.4025 41.125C38.5718 41.2656 38.778 41.3428 38.9906 41.3451C39.2033 41.3445 39.41 41.268 39.5791 41.127C39.7483 40.9861 39.8708 40.7886 39.9278 40.5645H39.9305Z" fill="#565656"/>
</g>
<defs>
<clipPath id="clip0">
<rect width="98" height="63" fill="white"/>
</clipPath>
</defs>
</svg>
