<svg width="69" height="52" viewBox="0 0 69 62" fill="none" xmlns="http://www.w3.org/2000/svg">
<g clip-path="url(#clip0)">
<path d="M26.7806 4.52235C28.5586 4.27717 29.9368 2.88776 31.4307 1.84708C32.9247 0.806387 34.9183 -1.10266e-05 36.4386 0.997089C37.0698 1.40574 37.5222 2.08682 38.185 2.41918C39.6737 3.19834 41.5937 2.09771 43.1087 2.82783C44.7499 3.61788 45.0077 6.09701 46.5332 7.09411C47.9009 7.99858 49.7157 7.39923 51.3148 7.7207C53.782 8.21653 54.0765 10.7447 55.4021 12.4828C56.9802 14.5424 59.884 14.7004 61.0991 16.967C61.6251 17.926 61.9355 19.092 62.835 19.6913C63.2804 19.9199 63.7389 20.1201 64.208 20.2907C66.4752 21.3804 66.6382 24.6006 66.4699 27.1887C66.3857 28.4963 66.2595 29.913 65.4178 30.8774C64.7936 31.4874 64.0435 31.942 63.2243 32.2069C57.917 34.3536 52.4824 36.1462 46.954 37.5738C44.5395 38.1949 42.0619 38.7507 39.5895 38.56C35.8705 38.2766 32.4565 36.3478 28.8111 35.5196C25.9705 34.8712 23.051 34.8712 20.1683 34.6751C16.5248 34.3955 12.9213 33.7067 9.42142 32.621C6.82807 31.8146 4.16107 30.6758 2.58297 28.4037C1.00486 26.1316 1.0522 22.4375 3.31942 20.9391C4.73445 20.0183 6.90171 19.8494 7.38567 18.2148C7.59082 17.5173 7.38567 16.7218 7.71707 16.0735C8.45352 14.5478 10.9837 15.2398 12.02 13.9212C12.5092 13.3056 12.5145 12.4229 12.8617 11.7146C14.061 9.28446 18.222 10.2162 19.5423 7.86237C19.9895 7.08321 19.9895 6.13515 20.4734 5.44862C21.7517 3.5416 24.5817 4.82748 26.7806 4.52235Z" fill="#BB5E1A"/>
<path d="M40.5839 39.1214C40.2262 39.1214 39.8738 39.1214 39.5319 39.0832C37.2436 38.9089 35.0658 38.1297 32.9617 37.3723C31.5599 36.8425 30.1303 36.395 28.6798 36.032C26.649 35.6372 24.5908 35.4131 22.5252 35.3618C21.7256 35.3237 20.947 35.2801 20.1317 35.2201C16.4503 34.9371 12.8097 34.2392 9.27433 33.1388C6.86509 32.3923 3.88247 31.2154 2.1413 28.7254C1.6459 27.9949 1.29468 27.1703 1.10782 26.2988C0.920952 25.4274 0.902122 24.5262 1.05241 23.6472C1.15641 23.0065 1.38662 22.3948 1.7287 21.8502C2.07079 21.3056 2.51742 20.8397 3.04082 20.4816C3.56097 20.1641 4.10868 19.8978 4.67679 19.6861C5.72886 19.2611 6.62838 18.8906 6.88087 18.0515C6.94433 17.784 6.97612 17.5096 6.97556 17.2342C6.96389 16.7415 7.05729 16.2522 7.2491 15.8012C7.77513 14.7605 8.8272 14.5317 9.78985 14.3301C10.5368 14.1721 11.2417 14.0249 11.6152 13.5509C11.8267 13.2211 11.9716 12.8505 12.0413 12.4612C12.125 12.11 12.2431 11.7686 12.3937 11.4423C13.1091 9.99841 14.6188 9.58976 16.076 9.19746C17.349 8.8542 18.5483 8.53273 19.0901 7.56287C19.2534 7.23796 19.3788 6.8941 19.4636 6.53853C19.5788 6.03274 19.7743 5.55031 20.0423 5.11099C20.3807 4.66349 20.8215 4.31054 21.3249 4.0841C21.8283 3.85766 22.3782 3.76489 22.9249 3.81421C23.451 3.81421 23.977 3.86325 24.503 3.91229C25.2445 4.01026 25.9937 4.02852 26.7387 3.96677C27.9854 3.81421 29.069 2.97512 30.2105 2.09789C30.5104 1.85815 30.826 1.63476 31.1311 1.40047C32.2141 0.575069 33.5031 0.0890528 34.8449 0.000167798C35.5064 -0.00644589 36.1561 0.182572 36.7176 0.545031C37.0238 0.75329 37.3109 0.990405 37.575 1.25335C37.8198 1.51585 38.0976 1.74309 38.4009 1.92898C38.7661 2.11107 39.169 2.19715 39.5739 2.17962C39.9106 2.17962 40.2578 2.14148 40.626 2.10334C40.9942 2.0652 41.3888 2.02706 41.778 2.02706C42.3203 2.00873 42.8596 2.11673 43.3561 2.34308C44.3766 2.83346 44.9079 3.81421 45.4234 4.75682C45.7372 5.48775 46.2152 6.13039 46.8174 6.63115C47.461 6.99186 48.1926 7.14909 48.9216 7.08339H49.9737C50.4583 7.07416 50.9426 7.11248 51.4202 7.19781C53.3718 7.59011 54.1556 9.12663 54.8447 10.467C55.12 11.0549 55.4475 11.6149 55.8232 12.1397C56.5376 12.9566 57.413 13.6051 58.3902 14.0413C59.5843 14.6842 60.8205 15.3435 61.5464 16.7057C61.6832 16.9563 61.8042 17.2178 61.9252 17.4794C62.1634 18.1603 62.5784 18.7599 63.1245 19.212C63.3512 19.344 63.5911 19.45 63.8399 19.5281C64.0451 19.6043 64.245 19.6806 64.4396 19.7733C67.4012 21.2062 67.1066 25.7177 67.0067 27.2052C66.9278 28.4148 66.8173 30.0657 65.8126 31.2208C65.1385 31.9007 64.3182 32.4049 63.4191 32.692C58.091 34.8467 52.6354 36.6466 47.0857 38.0807C44.967 38.6982 42.7838 39.0477 40.5839 39.1214ZM22.9249 4.90394C21.8992 4.90394 21.2942 5.14913 20.905 5.72123C20.7004 6.06775 20.5529 6.44705 20.4684 6.84365C20.3582 7.28333 20.1975 7.70772 19.9897 8.10773C19.2269 9.46444 17.754 9.86219 16.3074 10.2436C15.0186 10.5923 13.7982 10.9247 13.2985 11.9327C13.1801 12.202 13.0884 12.4832 13.025 12.7718C12.9172 13.3002 12.704 13.7994 12.399 14.2374C11.7888 15.0112 10.8209 15.2182 9.9687 15.398C9.11652 15.5778 8.42742 15.7249 8.15388 16.2861C8.04007 16.5974 7.98645 16.9288 7.99607 17.2614C7.99405 17.6291 7.94811 17.9952 7.8593 18.3512C7.45951 19.7188 6.17073 20.2418 5.02923 20.705C4.52442 20.8942 4.0368 21.1294 3.57211 21.4078C3.17945 21.6905 2.8467 22.0533 2.59432 22.474C2.34194 22.8947 2.17525 23.3644 2.10448 23.8543C1.9768 24.586 1.99105 25.3367 2.14639 26.0626C2.30173 26.7885 2.59505 27.4751 3.00926 28.0824C4.5558 30.3 7.21754 31.3516 9.58995 32.0981C13.0518 33.1739 16.6166 33.8554 20.2211 34.1304C21.0102 34.1903 21.7992 34.2339 22.5935 34.2721C24.7126 34.3251 26.8238 34.5584 28.906 34.9695C30.3962 35.3388 31.8646 35.7973 33.3036 36.3425C35.4393 37.1108 37.4593 37.83 39.616 37.9771C39.9316 37.9771 40.2578 38.0098 40.5892 38.0098C42.6951 37.9526 44.7865 37.6306 46.8174 37.0509C52.3224 35.6281 57.734 33.8427 63.0193 31.7058C63.7651 31.472 64.4491 31.0637 65.0182 30.5125C65.7284 29.7061 65.8599 28.5129 65.9493 27.1507C66.1755 23.62 65.5338 21.5332 63.982 20.7867C63.8109 20.7066 63.6352 20.6374 63.4559 20.5797C63.1349 20.4735 62.8262 20.331 62.5354 20.1547C61.8123 19.6063 61.263 18.8477 60.9573 17.9752C60.8415 17.73 60.7311 17.4848 60.6048 17.256C60.0314 16.1663 58.9899 15.6214 57.8852 15.0275C56.7669 14.5336 55.7681 13.7893 54.9605 12.848C54.5447 12.2723 54.1819 11.6576 53.8768 11.0119C53.214 9.70418 52.6406 8.57632 51.1835 8.28754C50.7843 8.21275 50.3794 8.17446 49.9737 8.17312H49.4476C48.364 8.17312 47.2383 8.21126 46.2493 7.55742C45.4868 6.96425 44.8792 6.18328 44.4818 5.28534C44.0295 4.45715 43.5981 3.65075 42.9037 3.32383C42.5513 3.16986 42.1708 3.09734 41.7885 3.11134C41.4519 3.11134 41.1047 3.14948 40.7365 3.18762C40.3683 3.22576 39.979 3.26935 39.5739 3.26935C39.0126 3.28754 38.4552 3.16609 37.9485 2.91519C37.5509 2.68547 37.1861 2.39938 36.8649 2.0652C36.6469 1.84654 36.411 1.64784 36.16 1.4713C35.7656 1.21714 35.3094 1.08483 34.8449 1.08989C33.7174 1.18032 32.6377 1.59971 31.7308 2.29949C31.4309 2.51199 31.1363 2.74083 30.8365 2.96967C29.6371 3.89594 28.4062 4.84945 26.8281 5.06195C26.0063 5.13436 25.1795 5.11793 24.361 5.01291C23.8665 4.96387 23.3826 4.90394 22.9249 4.90394Z" fill="#874311"/>
<path d="M20.0586 51.3535C20.0586 51.3535 21.2106 58.1916 22.9307 59.9787C24.6509 61.7659 43.3146 61.7604 45.0242 60.8723C46.7338 59.9842 48.1804 51.3535 48.1804 51.3535H20.0586Z" fill="#8C57C0"/>
<path d="M36.5864 62.0001C33.6669 62.0001 24.0246 61.8803 22.557 60.3656C20.7422 58.4803 19.5902 51.7349 19.5428 51.4461C19.5297 51.3672 19.5335 51.2863 19.554 51.2091C19.5744 51.1319 19.6111 51.0603 19.6613 50.9994C19.7115 50.9386 19.7741 50.8899 19.8445 50.857C19.915 50.824 19.9916 50.8075 20.0689 50.8087H48.196C48.2732 50.8075 48.3498 50.824 48.4203 50.857C48.4907 50.8899 48.5533 50.9386 48.6035 50.9994C48.6537 51.0603 48.6904 51.1319 48.7109 51.2091C48.7313 51.2863 48.7351 51.3672 48.722 51.4461C48.4747 52.9336 47.1439 60.3928 45.2817 61.3572C44.0876 61.9675 37.8278 62.0001 36.5864 62.0001ZM20.6948 51.8984C21.1104 54.0778 22.1151 58.3659 23.325 59.5919C23.9405 60.2293 28.8063 60.9104 36.6074 60.9104C41.2786 60.9104 44.3243 60.638 44.8241 60.3656C45.7867 59.8697 46.9703 55.3092 47.5857 51.882L20.6948 51.8984Z" fill="#7122BE"/>
<path d="M0.526388 25.1893C0.673677 21.2227 63.6085 21.9201 67.4591 25.4835C71.3097 29.0469 64.7079 58.1753 34.4556 57.5978C4.20337 57.0202 0.26337 32.6212 0.526388 25.1893Z" fill="#8C57C0"/>
<path d="M35.3763 58.1534H34.4558C23.2091 57.9354 14.4296 54.4483 8.3697 47.801C1.39448 40.1402 -0.162585 29.9676 0.000485813 25.1673C0.000485813 24.5407 0.0636097 23.3693 9.31656 22.6065C14.4033 22.1869 21.5469 21.9526 29.4321 21.9526C43.5036 21.9526 65.334 22.7863 67.8327 25.0802C69.5476 26.6712 69.3687 31.6948 67.4013 37.0236C65.5655 41.9818 57.8643 58.1534 35.3763 58.1534ZM1.05256 25.2545C0.894745 29.9022 2.40973 39.677 9.12193 47.049C14.9872 53.4784 23.509 56.8566 34.4663 57.0636H35.3658C57.17 57.0636 64.6344 41.426 66.4019 36.6367C68.3377 31.3897 68.2746 26.9708 67.112 25.892C65.4182 24.3228 48.5167 23.0424 29.4374 23.0424C11.81 23.0424 1.85213 24.1539 1.05256 25.2545Z" fill="#7122BE"/>
<path d="M45.2811 18.0622C44.9166 18.3013 44.5308 18.5039 44.1291 18.667C43.6619 18.81 43.1721 18.8563 42.6877 18.8032C42.5995 18.804 42.5139 18.8346 42.444 18.8904C42.374 18.9462 42.3236 19.0241 42.3004 19.1123C42.2772 19.2005 42.2824 19.2942 42.3153 19.379C42.3482 19.4639 42.4069 19.5353 42.4826 19.5823C43.0281 19.8928 43.6655 19.9821 44.2711 19.833C44.6087 19.78 44.9288 19.6427 45.2038 19.4329C45.4787 19.2231 45.7002 18.9471 45.8492 18.6288C46.0017 18.2801 45.6388 17.8279 45.2811 18.0622Z" fill="#7C3D0F"/>
<path d="M49.8265 14.6297C49.6634 14.3028 49.1742 14.5317 49.2636 14.8749C49.2878 15.0374 49.2736 15.2036 49.2223 15.3592C49.171 15.5148 49.0841 15.6552 48.9691 15.7685C48.8711 15.8954 48.743 15.9938 48.5973 16.054C48.4516 16.1142 48.2933 16.1341 48.1379 16.1118C47.8381 16.0736 47.7644 16.5313 47.9906 16.6566C48.2467 16.7978 48.5408 16.8467 48.8266 16.7953C49.1124 16.744 49.3735 16.5955 49.5687 16.3733C49.7879 16.1506 49.9314 15.8603 49.9779 15.546C50.0243 15.2316 49.9712 14.9102 49.8265 14.6297Z" fill="#7C3D0F"/>
<path d="M44.3659 14.0576C44.1513 14.1329 43.9315 14.1912 43.7084 14.2319C43.4663 14.2565 43.222 14.2343 42.9877 14.1666C42.9492 14.1553 42.9084 14.1562 42.8704 14.1693C42.8324 14.1823 42.7991 14.2068 42.7747 14.2397C42.7504 14.2725 42.7361 14.3122 42.7337 14.3536C42.7314 14.3949 42.7411 14.4361 42.7615 14.4717C42.8502 14.6593 42.9891 14.8166 43.1616 14.9248C43.3341 15.033 43.5331 15.0875 43.7347 15.0819C43.947 15.106 44.1613 15.0627 44.3493 14.9576C44.5372 14.8524 44.6898 14.6906 44.7868 14.4935C44.9919 14.1993 44.6342 13.9323 44.3659 14.0576Z" fill="#7C3D0F"/>
<path d="M37.5644 18.7326C37.2491 18.8197 36.9172 18.8197 36.6018 18.7326C36.2555 18.618 35.9605 18.3782 35.7707 18.057C35.7369 18.023 35.6942 18.0001 35.648 17.9908C35.6018 17.9816 35.554 17.9866 35.5104 18.0051C35.4669 18.0236 35.4295 18.0548 35.4028 18.095C35.3762 18.1352 35.3614 18.1826 35.3604 18.2313C35.395 18.5055 35.5002 18.765 35.665 18.9826C35.8297 19.2002 36.0479 19.3679 36.2967 19.4682C36.547 19.5955 36.8283 19.6428 37.1046 19.604C37.381 19.5652 37.64 19.442 37.8485 19.2502C38.0957 19.0704 37.838 18.64 37.5644 18.7326Z" fill="#7C3D0F"/>
<path d="M26.67 20.2583C26.1439 20.1657 25.6179 20.1929 25.1234 20.1439C24.5119 20.0768 23.9178 19.892 23.3717 19.599C23.319 19.5691 23.2577 19.5597 23.1989 19.5724C23.1401 19.5851 23.0876 19.6192 23.0508 19.6684C23.014 19.7177 22.9954 19.7789 22.9983 19.8411C23.0012 19.9032 23.0255 19.9623 23.0666 20.0076C23.5445 20.4633 24.1223 20.7917 24.7501 20.9645C25.3778 21.1373 26.0368 21.1492 26.67 20.9993C26.7649 20.9993 26.8558 20.9603 26.9229 20.8908C26.99 20.8213 27.0277 20.7271 27.0277 20.6288C27.0277 20.5305 26.99 20.4363 26.9229 20.3668C26.8558 20.2973 26.7649 20.2583 26.67 20.2583Z" fill="#7C3D0F"/>
<path d="M31.4151 17.3706C30.9364 17.5231 29.9685 18.2314 29.6161 17.5177C29.453 17.1908 28.9112 17.425 29.0374 17.7738C29.4951 19.016 31.0048 18.8308 31.7676 17.9971C31.8233 17.9383 31.8588 17.8622 31.8686 17.7804C31.8785 17.6987 31.8621 17.6158 31.8221 17.5446C31.782 17.4734 31.7205 17.4178 31.647 17.3864C31.5735 17.3549 31.492 17.3494 31.4151 17.3706V17.3706Z" fill="#7C3D0F"/>
<path d="M37.4022 14.0302C36.9711 14.151 36.5778 14.3857 36.2607 14.7113C35.9819 14.9728 36.3448 15.4469 36.6605 15.2562C36.8199 15.16 36.985 15.0744 37.1549 15.0001C37.3597 14.8952 37.5394 14.7444 37.681 14.5587C37.7257 14.5102 37.7544 14.4483 37.7628 14.3818C37.7713 14.3153 37.7591 14.2478 37.7281 14.1889C37.6971 14.1301 37.6487 14.083 37.5901 14.0544C37.5316 14.0259 37.4657 14.0174 37.4022 14.0302V14.0302Z" fill="#7C3D0F"/>
<path d="M26.5021 15.8012C25.9555 16.0053 25.3687 16.0658 24.794 15.9774C24.2193 15.889 23.6748 15.6543 23.2091 15.2945C23.0145 15.1582 22.7357 15.4307 22.8777 15.6377C23.3179 16.2295 23.9554 16.63 24.6655 16.761C25.3756 16.892 26.1074 16.744 26.7178 16.346C26.9966 16.1826 26.8282 15.6759 26.5021 15.8012Z" fill="#7C3D0F"/>
<path d="M49.1903 9.74783C48.7828 10.0685 48.3913 10.4104 48.0172 10.7722C47.6332 11.1372 47.1703 11.4151 46.7916 11.7856C46.7241 11.8554 46.6809 11.9464 46.6686 12.0444C46.6564 12.1423 46.6758 12.2418 46.7239 12.3271C46.772 12.4124 46.846 12.4788 46.9344 12.5158C47.0228 12.5529 47.1206 12.5587 47.2124 12.5321C48.2815 12.1297 49.1769 11.3452 49.7374 10.3199C49.911 9.98212 49.5322 9.48084 49.1903 9.74783Z" fill="#7C3D0F"/>
<path d="M54.829 15.0873C54.7027 15.8501 53.982 16.2805 53.3981 16.6565C53.336 16.697 53.2881 16.7571 53.2615 16.828C53.2349 16.8989 53.231 16.9768 53.2505 17.0502C53.27 17.1235 53.3117 17.1884 53.3696 17.2353C53.4274 17.2821 53.4983 17.3084 53.5717 17.3103C53.8358 17.332 54.1008 17.2822 54.3406 17.1656C54.5804 17.0491 54.7868 16.8698 54.9394 16.6456C55.2656 16.2281 55.4504 15.7113 55.4655 15.1744C55.4766 15.087 55.4538 14.9986 55.402 14.9286C55.3502 14.8586 55.2737 14.8128 55.1893 14.8012C55.1049 14.7897 55.0195 14.8133 54.9519 14.8669C54.8844 14.9206 54.8401 14.9998 54.829 15.0873V15.0873Z" fill="#7C3D0F"/>
<path d="M53.8355 18.8143C53.1808 19.0056 52.506 19.1135 51.826 19.1357C51.4999 19.163 51.3 19.6806 51.6419 19.8441C52.0461 20.0221 52.4888 20.0852 52.9244 20.0267C53.3599 19.9683 53.7725 19.7905 54.1196 19.5117C54.4352 19.272 54.2616 18.6672 53.8355 18.8143Z" fill="#7C3D0F"/>
<path d="M58.3008 18.9669C58.0904 18.5529 57.5643 18.8634 57.6222 19.2666C57.6238 19.4457 57.5858 19.6229 57.511 19.7844C57.4363 19.9459 57.3267 20.0875 57.1908 20.1983C57.0778 20.2706 56.9972 20.3864 56.9666 20.5202C56.936 20.6541 56.958 20.7951 57.0278 20.9121C57.0975 21.0292 57.2093 21.1127 57.3385 21.1444C57.4678 21.1761 57.6039 21.1533 57.7169 21.081C57.8947 20.9878 58.0521 20.8576 58.1791 20.6984C58.306 20.5392 58.3999 20.3546 58.4547 20.1561C58.5095 19.9576 58.5241 19.7495 58.4976 19.5449C58.4712 19.3402 58.4041 19.1435 58.3008 18.9669V18.9669Z" fill="#7C3D0F"/>
<path d="M20.1899 20.0346C19.8164 19.0702 18.4119 18.6779 17.4808 18.7215C17.2283 18.7215 17.0705 19.1356 17.3388 19.2664C17.7491 19.4571 18.1805 19.6587 18.5802 19.8712C18.9728 20.1509 19.4113 20.354 19.8743 20.4705C19.9252 20.47 19.9752 20.4573 20.0206 20.4335C20.0659 20.4097 20.1054 20.3754 20.1359 20.3332C20.1665 20.2911 20.1872 20.2422 20.1966 20.1905C20.2059 20.1387 20.2036 20.0854 20.1899 20.0346V20.0346Z" fill="#7C3D0F"/>
<path d="M12.2619 19.8387C11.9884 19.7625 11.7359 19.6535 11.4571 19.5663C11.1602 19.4334 10.872 19.2806 10.5944 19.1086C10.551 19.0862 10.5018 19.0785 10.454 19.0866C10.4061 19.0947 10.3619 19.1182 10.3276 19.1537C10.2933 19.1892 10.2706 19.235 10.2628 19.2846C10.255 19.3342 10.2624 19.3851 10.284 19.4301C10.4717 19.7549 10.7533 20.0104 11.0889 20.1602C11.4491 20.3556 11.8632 20.4171 12.2619 20.3346C12.5249 20.3128 12.4934 19.9041 12.2619 19.8387Z" fill="#7C3D0F"/>
<path d="M16.0495 16.3951C15.7497 16.3624 15.4446 16.3515 15.15 16.2915C14.8281 16.1945 14.5119 16.0781 14.2031 15.9428C13.9191 15.8557 13.5877 16.2207 13.7876 16.4877C14.0759 16.8303 14.4542 17.0786 14.8763 17.2025C15.2985 17.3263 15.7463 17.3203 16.1652 17.1851C16.2497 17.152 16.3205 17.0899 16.3661 17.0092C16.4117 16.9285 16.4291 16.8341 16.4156 16.7417C16.402 16.6492 16.3583 16.5644 16.2917 16.5013C16.2251 16.4383 16.1396 16.4008 16.0495 16.3951V16.3951Z" fill="#7C3D0F"/>
<path d="M21.0417 16.5312C20.4404 16.5963 19.8326 16.5199 19.2637 16.3078C18.8534 16.188 18.5799 16.8255 18.9691 17.0325C19.315 17.2058 19.692 17.3026 20.076 17.3166C20.46 17.3307 20.8426 17.2618 21.1995 17.1142C21.2657 17.0854 21.3194 17.0326 21.3505 16.9656C21.3817 16.8987 21.3883 16.8222 21.3689 16.7506C21.3495 16.6791 21.3056 16.6173 21.2453 16.5769C21.1851 16.5365 21.1127 16.5203 21.0417 16.5312Z" fill="#7C3D0F"/>
<path d="M7.7224 39.5574C5.80794 35.6701 4.42523 31.5257 3.61407 27.2435C3.5036 26.6987 2.76189 26.8676 2.72507 27.3688C2.5212 32.0518 3.96199 36.6528 6.7808 40.3202C7.22793 40.8651 8.01698 40.1513 7.7224 39.5574Z" fill="white"/>
<path d="M12.3414 45.6107C11.5883 44.4832 10.6458 43.5051 9.55864 42.723C9.47722 42.6729 9.38202 42.6524 9.28808 42.6646C9.19413 42.6768 9.10679 42.7211 9.03984 42.7904C8.97289 42.8597 8.93014 42.9502 8.91835 43.0475C8.90657 43.1448 8.92641 43.2434 8.97474 43.3278C9.691 44.4346 10.5945 45.3981 11.6417 46.172C11.9994 46.4607 12.6728 46.0684 12.3414 45.6107Z" fill="white"/>
</g>
<defs>
<clipPath id="clip0">
<rect width="69" height="62" fill="white"/>
</clipPath>
</defs>
</svg>
