<svg width="79" height="59" viewBox="0 0 79 79" fill="none" xmlns="http://www.w3.org/2000/svg">
<path d="M61.3447 12.75C62.2542 13.4911 63.134 14.2843 63.9814 15.1317C77.4702 28.6227 77.4684 50.4918 63.9794 63.9806C50.4905 77.4694 28.6214 77.4715 15.1306 63.9806C14.2852 63.1352 13.496 62.2597 12.7549 61.352V61.35" fill="#F9BC43"/>
<path d="M66.247 17.6523C67.1566 18.3934 68.0364 19.1867 68.8838 20.0341C82.3726 33.525 82.3707 55.3941 68.8818 68.8829C55.3928 82.3717 33.5237 82.3739 20.0329 68.8829C19.1875 68.0375 18.3983 67.162 17.6572 66.2543V66.2523" fill="#F9BC43"/>
<path d="M58.9482 10.3525C59.8578 11.0936 60.7374 11.8869 61.585 12.7343C75.0738 26.2252 75.0719 48.0943 61.583 61.5831C48.094 75.0719 26.2249 75.0741 12.7341 61.5831C11.8887 60.7377 11.0995 59.8622 10.3584 58.9545V58.9525" fill="#E8AA3D"/>
<path d="M63.4697 14.8735C64.3792 15.6146 65.2589 16.4079 66.1064 17.2553C79.5952 30.7462 79.5934 52.6153 66.1044 66.1041C52.6155 79.5929 30.7464 79.5951 17.2556 66.1041C16.4102 65.2587 15.621 64.3832 14.8799 63.4755V63.4735" fill="#E8AA3D"/>
<path d="M64.3973 64.3992C50.9082 77.8863 29.0388 77.8902 15.5478 64.3992C15.0826 63.934 14.6361 63.4614 14.2048 62.9771C13.8658 62.5984 13.5361 62.2142 13.2178 61.8243C26.7859 72.9362 46.832 72.1582 59.4942 59.4961C72.1564 46.8341 72.9342 26.788 61.8242 13.2197C62.2123 13.5362 62.5946 13.8639 62.9714 14.2011C63.4574 14.6343 63.9339 15.0846 64.3993 15.5498C77.8882 29.0407 77.8864 50.9101 64.3973 64.3992Z" fill="#F9BC43"/>
<path d="M62.9713 14.2011C62.538 13.715 62.0878 13.2386 61.6207 12.7714C61.2648 12.4154 60.9031 12.0687 60.5357 11.7334C60.9821 12.2194 61.4116 12.7147 61.8241 13.2196C72.9341 26.7877 72.1561 46.8338 59.494 59.496C46.832 72.1582 26.7859 72.936 13.2176 61.8242C12.7128 61.4116 12.2173 60.9822 11.7314 60.5338C12.0667 60.9012 12.4133 61.2647 12.7694 61.6207C13.2385 62.0897 13.7169 62.5418 14.2048 62.9769C27.7692 75.0946 48.599 74.6407 61.6189 61.6207C74.6406 48.5989 75.0927 27.7655 62.9713 14.2011Z" fill="#E8AA3D"/>
<path d="M0.398614 39.7825C1.46851 46.803 4.70843 53.5578 10.1147 58.9641C23.6056 72.4532 45.4751 72.4532 58.9641 58.9641C72.4532 45.4731 72.4551 23.6056 58.9641 10.1146C52.0473 3.19578 42.9227 -0.172211 33.8585 0.00677375L33.512 0.353325L0.00886023 33.8584C-0.0306398 35.8381 0.0992782 37.8197 0.398614 39.7825Z" fill="#FCC854"/>
<path d="M0.397638 39.7825C8.87424 39.5207 17.2735 36.1527 23.7458 29.6823C30.3181 23.1102 33.688 14.5507 33.8575 5.94045C33.8048 3.93629 33.6861 2.07701 33.511 0.353516L0.00788367 33.8585C-0.0316163 35.8381 0.0983016 37.8197 0.397638 39.7825Z" fill="#F9BC43"/>
<path d="M0.00683594 33.859C8.61614 33.69 17.1745 30.3204 23.7463 23.7487C30.3181 17.177 33.6877 8.61866 33.8582 0.0078125C25.2444 0.175379 0.173014 25.2468 0.00683594 33.859Z" fill="#FCDB75"/>
<path d="M51.8454 49.4485C52.6256 49.4485 53.2581 48.816 53.2581 48.0358C53.2581 47.2556 52.6256 46.623 51.8454 46.623C51.0651 46.623 50.4326 47.2556 50.4326 48.0358C50.4326 48.816 51.0651 49.4485 51.8454 49.4485Z" fill="#E8AA3D"/>
<path d="M60.5983 29.8504C61.3785 29.8504 62.011 29.2179 62.011 28.4376C62.011 27.6574 61.3785 27.0249 60.5983 27.0249C59.8181 27.0249 59.1855 27.6574 59.1855 28.4376C59.1855 29.2179 59.8181 29.8504 60.5983 29.8504Z" fill="#E8AA3D"/>
<path d="M41.611 17.5144C42.3912 17.5144 43.0237 16.8819 43.0237 16.1017C43.0237 15.3215 42.3912 14.689 41.611 14.689C40.8307 14.689 40.1982 15.3215 40.1982 16.1017C40.1982 16.8819 40.8307 17.5144 41.611 17.5144Z" fill="#E8AA3D"/>
<path d="M37.9 37.9505C38.6803 37.9505 39.3128 37.318 39.3128 36.5377C39.3128 35.7575 38.6803 35.125 37.9 35.125C37.1198 35.125 36.4873 35.7575 36.4873 36.5377C36.4873 37.318 37.1198 37.9505 37.9 37.9505Z" fill="#E8AA3D"/>
<path d="M25.9459 12.0906C26.7262 12.0906 27.3587 11.4581 27.3587 10.6779C27.3587 9.89764 26.7262 9.26514 25.9459 9.26514C25.1657 9.26514 24.5332 9.89764 24.5332 10.6779C24.5332 11.4581 25.1657 12.0906 25.9459 12.0906Z" fill="#FCC854"/>
<path d="M17.5104 20.3284C18.2906 20.3284 18.9231 19.6959 18.9231 18.9157C18.9231 18.1354 18.2906 17.5029 17.5104 17.5029C16.7302 17.5029 16.0977 18.1354 16.0977 18.9157C16.0977 19.6959 16.7302 20.3284 17.5104 20.3284Z" fill="#FCC854"/>
<path d="M22.0026 52.4324C22.7828 52.4324 23.4153 51.7999 23.4153 51.0197C23.4153 50.2394 22.7828 49.6069 22.0026 49.6069C21.2223 49.6069 20.5898 50.2394 20.5898 51.0197C20.5898 51.7999 21.2223 52.4324 22.0026 52.4324Z" fill="#E8AA3D"/>
</svg>
