<svg width="69" height="54" viewBox="0 0 79 54" fill="none" xmlns="http://www.w3.org/2000/svg">
<path d="M37.8301 12.7201C42.3501 11.9901 44.8301 15.2801 47.8301 17.7201C48.7045 19.5007 48.855 21.5509 48.2501 23.4401C48.1093 23.6099 47.9339 23.7477 47.7355 23.8443C47.5372 23.9408 47.3206 23.994 47.1001 24.0001C46.4497 23.8782 45.8663 23.5225 45.4601 23.0001C44.7101 21.7501 44.3601 20.2501 43.2001 19.2401C42.8647 18.8519 42.4504 18.5396 41.9849 18.324C41.5193 18.1085 41.0131 17.9946 40.5001 17.9901C37.9901 19.5201 39.1901 22.2301 38.1201 24.4501C39.5301 24.3401 39.9801 22.9101 41.1201 23.1201C41.8225 23.2045 42.4627 23.5641 42.9001 24.1201C43.3182 24.7 43.5231 25.4065 43.4801 26.1201C43.4384 26.5704 43.3409 27.0138 43.1901 27.4401C42.681 29.1317 41.5381 30.5612 40.0001 31.4301C38.4801 32.4301 37.3401 34.0501 35.2701 34.0001C33.0301 33.2401 32.7901 31.3801 32.7301 29.4301C32.2301 28.4301 34.3401 27.0901 32.3301 26.2501C31.2978 26.0262 30.3039 25.6522 29.3801 25.1401C28.8278 24.8855 28.3325 24.5223 27.9236 24.0722C27.5147 23.6221 27.2006 23.0942 27.0001 22.5201C26.744 21.5339 26.8578 20.4881 27.3201 19.5801C27.569 19.1512 27.9457 18.8109 28.3975 18.6065C28.8493 18.4021 29.3536 18.3439 29.8401 18.4401C31.6601 21.3601 33.2201 20.5901 34.8401 18.1601C35.9401 16.4101 36.1501 14.1601 37.8301 12.7201Z" fill="#F5BE88"/>
<path d="M23.9999 6.50015C25.7599 6.91015 27.4499 7.41015 27.8799 9.50015C29.7999 12.6202 29.2899 15.3702 26.5899 17.7802C25.7104 18.3733 24.6312 18.5927 23.5899 18.3902C21.6899 18.0902 21.2099 15.7602 19.3399 15.3902C18.6932 15.3352 18.0691 15.126 17.5199 14.7802C16.9092 14.1272 16.4062 13.3812 16.0299 12.5702C15.4263 11.5786 15.176 10.412 15.3199 9.26015C15.4667 8.82606 15.7752 8.46529 16.1813 8.25295C16.5874 8.0406 17.0597 7.99304 17.4999 8.12015C19.1699 8.92015 19.8399 11.1202 21.9399 11.3102C23.9399 10.9202 22.6899 9.60015 22.7099 8.66015C22.7299 7.72015 21.9399 6.32015 23.9999 6.50015Z" fill="#F2B680"/>
<path d="M44.8593 33.5801L41.8593 35.7401C41.2243 36.5404 40.3482 37.1147 39.3611 37.3777C38.3739 37.6407 37.3282 37.5784 36.3793 37.2001C36.043 37.0547 35.7562 36.8148 35.5538 36.5094C35.3514 36.204 35.2421 35.8464 35.2393 35.4801C35.3057 35.0182 35.5365 34.5957 35.8893 34.2901C37.0193 33.6001 38.4493 33.5201 39.4693 32.5801C41.7593 31.2601 42.2493 28.9301 42.8093 26.6401C44.6693 26.2401 46.6493 27.8901 48.4393 26.3101C49.0462 26.0153 49.7405 25.9547 50.3893 26.1401C50.5923 26.2345 50.7714 26.3734 50.9134 26.5465C51.0554 26.7196 51.1565 26.9225 51.2093 27.1401C51.2242 27.7716 51.1295 28.401 50.9293 29.0001C50.6136 30.2328 50.1039 31.4075 49.4193 32.4801C49.1486 32.7946 48.8054 33.0383 48.4193 33.1901C47.2293 33.3401 45.9993 32.6401 44.8593 33.5801Z" fill="#D7A177"/>
<path d="M37.8296 12.7202C37.7679 15.5538 36.6602 18.2644 34.7196 20.3302C33.7196 21.3302 33.0996 23.0402 31.2096 22.4302C29.3196 21.8202 29.9996 20.0002 29.8196 18.6102C29.0596 17.2702 28.5496 16.0002 30.8196 15.6602L37.8296 12.7202Z" fill="#F7C997"/>
<path d="M43.8796 46.6003C43.1596 43.6003 45.1896 41.3003 45.9496 38.6703C46.0269 38.5907 46.1194 38.5275 46.2216 38.4844C46.3238 38.4412 46.4336 38.4189 46.5446 38.4189C46.6555 38.4189 46.7653 38.4412 46.8675 38.4844C46.9697 38.5275 47.0622 38.5907 47.1396 38.6703C48.1396 41.9403 49.7196 44.8103 53.3296 45.9003C53.5539 46.3727 53.6602 46.8925 53.6393 47.4151C53.6184 47.9376 53.4709 48.4473 53.2096 48.9003C48.9996 51.5703 47.3496 51.1703 43.8796 46.6003Z" fill="#F5B47E"/>
<path d="M17.8098 8.65008C17.4148 8.59861 17.0133 8.6663 16.657 8.84446C16.3007 9.02263 16.0057 9.30315 15.8098 9.65008C15.1498 10.6501 16.0098 12.1401 14.6498 12.8701C13.1398 12.7901 12.6498 11.6601 12.0898 10.5101C12.1598 7.19008 11.2098 3.91008 11.7498 0.580078C14.8398 -1.47992 15.5298 2.72008 17.7498 2.88008C17.9998 4.80008 18.4998 6.72008 17.8098 8.65008Z" fill="#F4C38F"/>
<path d="M11.7692 0.570312C12.2992 3.91031 13.7692 7.15031 12.8392 10.6503C13.5685 11.9502 13.8297 13.461 13.5792 14.9303C13.3954 15.3758 13.0818 15.7556 12.6792 16.0203C10.3992 16.6403 9.43915 14.7703 8.09915 13.5903C7.7917 13.2667 7.54448 12.8908 7.36915 12.4803C7.24757 12.1738 7.23808 11.8342 7.34235 11.5214C7.44663 11.2086 7.65798 10.9426 7.93915 10.7703V10.7703C8.48169 10.0068 9.07644 9.28169 9.71915 8.60031C11.2992 6.15031 9.99915 3.00031 11.7692 0.570312Z" fill="#F6C996"/>
<path d="M46.7892 38.6501H45.9492C46.1895 37.4525 46.8316 36.3729 47.7692 35.5901C48.7692 34.8501 47.7692 33.3801 48.7692 32.6501V32.5701C49.5992 31.4101 50.6892 31.0001 51.4492 32.4101C52.9692 35.2301 53.7292 38.2601 52.3292 41.4101C52.1488 41.9727 51.7647 42.4476 51.2523 42.7418C50.7399 43.0359 50.136 43.128 49.5592 43.0001C47.3592 42.4201 47.8492 40.0001 46.7892 38.6501Z" fill="#F5CD9C"/>
<path d="M12.8495 32.6703C13.1583 32.6617 13.466 32.6283 13.7695 32.5703C16.6995 34.0003 16.0095 36.5703 15.7695 38.9703C14.9795 41.1203 14.7695 43.7003 11.7695 44.1803C11.521 44.1682 11.2775 44.1073 11.0527 44.0009C10.8279 43.8945 10.6263 43.7448 10.4595 43.5603C9.45945 42.0203 10.9995 40.2203 9.93945 38.6903C9.99945 36.2503 12.2195 34.8303 12.8495 32.6703Z" fill="#F9CA9A"/>
<path d="M17.8093 8.65012C17.3393 6.73012 14.4893 4.81012 17.8093 2.87012C18.2758 2.95776 18.7148 3.15484 19.0903 3.44515C19.4658 3.73547 19.767 4.11073 19.9693 4.54012C21.4993 7.02012 25.9193 8.84012 21.8493 12.6201C20.8027 12.5795 19.8089 12.1502 19.0618 11.4161C18.3148 10.682 17.8682 9.69582 17.8093 8.65012V8.65012Z" fill="#F8CB9A"/>
<path d="M29.8299 36.5L30.9099 37.63C33.3299 39.8 32.3399 41.85 30.6799 43.87C29.6799 45.08 27.6799 45.5 27.7599 47.58C26.6099 47.99 25.9699 47.37 25.4599 46.47C25.5299 44.2 24.7899 41.91 25.5499 39.64C27.268 39.063 28.7638 37.9656 29.8299 36.5V36.5Z" fill="#D49667"/>
<path d="M43.8799 46.6001C46.6699 48.0901 49.0999 51.1701 52.7999 48.6001C52.8963 48.515 53.0101 48.4518 53.1333 48.4149C53.2565 48.378 53.3863 48.3682 53.5137 48.3863C53.641 48.4043 53.763 48.4498 53.8711 48.5195C53.9792 48.5892 54.0709 48.6815 54.1399 48.7901C54.3095 49.1443 54.3769 49.5388 54.3345 49.9293C54.2921 50.3197 54.1416 50.6906 53.8999 51.0001L52.7799 52.6001C46.0899 52.8101 44.7499 51.9101 43.8799 46.6001Z" fill="#D7A178"/>
<path d="M71.7897 10.6602C74.7897 11.6102 75.3997 14.8002 77.4497 16.6602C75.7697 18.0002 74.1697 19.5902 71.6997 18.9602C70.8622 18.2381 70.2047 17.3306 69.7793 16.3099C69.354 15.2891 69.1727 14.1833 69.2497 13.0802C69.6397 11.7702 70.8297 11.3302 71.7897 10.6602Z" fill="#F3C594"/>
<path d="M30.8101 15.6603C29.6601 16.3803 29.9101 17.5503 29.8101 18.6103L27.8101 19.6703C27.3114 19.5979 26.8507 19.3623 26.5001 19.0003C26.1212 18.6417 25.8835 18.1592 25.8301 17.6403C28.0701 15.3303 27.9201 12.4303 27.8301 9.55029C31.0001 10.5603 30.9101 13.1103 30.8101 15.6603Z" fill="#D5A77F"/>
<path d="M21.5996 52.5101L15.8596 50.3701C15.7113 50.2422 15.6038 50.0736 15.5505 49.8852C15.4972 49.6967 15.5003 49.4968 15.5596 49.3101C15.7542 48.513 16.2167 47.807 16.8696 47.3101C17.4577 47.1814 18.0721 47.2591 18.6096 47.5301L19.6996 48.0001C21.0796 48.4601 22.4996 47.6201 23.8696 48.1101C24.7996 48.6201 25.9896 48.9301 25.6696 50.4101L25.8696 50.7101C24.9996 52.5401 22.9996 51.8401 21.5996 52.5101Z" fill="#DB9D6F"/>
<path d="M77.7696 24.5699L77.2896 24.6399H76.8096C75.4796 24.4899 74.2396 25.3599 72.8896 24.9699C72.4919 24.7023 72.1823 24.323 71.9996 23.8799C71.8063 23.3126 71.7482 22.708 71.8298 22.1142C71.9114 21.5205 72.1305 20.954 72.4696 20.4599C74.0796 19.5299 75.6396 18.3999 77.6696 18.6899L77.7696 24.5699Z" fill="#EAAB79"/>
<path d="M21.8195 12.62C24.8195 9.08004 19.9295 7.38004 19.9395 4.54004C21.5795 4.60004 23.0795 4.95004 23.9395 6.54004C22.4895 8.13004 24.4995 9.15004 24.6095 10.48C24.8295 12.63 24.1295 13.68 21.8195 12.62Z" fill="#F6C188"/>
<path d="M55.9092 16.6799C56.9683 13.4421 59.0183 10.6191 61.7692 8.60986L62.4292 8.84986C62.9989 9.27592 63.3914 9.89715 63.5317 10.5946C63.6719 11.2921 63.55 12.0167 63.1892 12.6299C62.907 12.9823 62.5692 13.2863 62.1892 13.5299C60.3692 14.4099 59.0592 16.0599 57.1892 16.8799L56.5192 16.9899L55.9092 16.6799Z" fill="#F5C798"/>
<path d="M77.7092 18.6901C77.1671 19.457 76.4123 20.0484 75.538 20.3913C74.6637 20.7343 73.7081 20.8138 72.7892 20.6201C72.6226 20.7844 72.3981 20.8765 72.1642 20.8765C71.9303 20.8765 71.7057 20.7844 71.5392 20.6201C71.3513 20.3031 71.2785 19.9311 71.3331 19.5667C71.3878 19.2023 71.5665 18.8679 71.8392 18.6201C73.8392 18.2301 75.0892 15.9001 77.4592 16.6201C77.5392 17.3201 77.6192 18.0001 77.7092 18.6901Z" fill="#F6C491"/>
<path d="M5.73964 15.6599C5.87844 15.378 5.93064 15.0614 5.88964 14.7499C6.60964 14.0499 5.98964 12.2299 7.81964 12.4699V12.7299C8.50742 13.5216 8.92127 14.5141 8.99964 15.5599C9.20057 17.1356 9.00818 18.7366 8.43964 20.2199C8.31451 20.449 8.14024 20.6477 7.92932 20.8015C7.71839 20.9554 7.47604 21.0607 7.21964 21.1099C6.95893 21.1365 6.69578 21.0952 6.45573 20.99C6.21569 20.8849 6.0069 20.7195 5.84964 20.5099C5.88021 20.1955 5.81762 19.879 5.66964 19.5999C5.36235 18.9863 5.20821 18.3074 5.2204 17.6213C5.23259 16.9352 5.41074 16.2622 5.73964 15.6599V15.6599Z" fill="#D59D76"/>
<path d="M15.8397 49.6003C15.8397 49.8603 15.8397 50.1203 15.8397 50.3703C12.5497 51.1903 10.2797 50.3703 9.92969 46.6103C10.2058 46.299 10.5865 46.0997 10.9997 46.0503C11.4198 46.0864 11.8264 46.2163 12.1897 46.4303C13.021 47.0393 13.893 47.5905 14.7997 48.0803C15.0739 48.2419 15.3092 48.4618 15.4889 48.7245C15.6687 48.9872 15.7884 49.2862 15.8397 49.6003V49.6003Z" fill="#D8AA85"/>
<path d="M47.7792 23.5702C47.7792 21.5702 47.0192 19.6502 47.7792 17.7002C48.2395 17.7879 48.6678 17.9975 49.0196 18.307C49.3714 18.6166 49.6337 19.0148 49.7792 19.4602C50.5792 21.0602 51.1992 22.6502 49.2792 23.9502C49.0167 24.0046 48.7453 23.9986 48.4855 23.9328C48.2256 23.867 47.9841 23.743 47.7792 23.5702V23.5702Z" fill="#EFB07B"/>
<path d="M71.7896 10.6599C71.8179 10.9295 71.7856 11.202 71.6951 11.4575C71.6046 11.713 71.4582 11.9451 71.2665 12.1368C71.0748 12.3285 70.8428 12.4749 70.5872 12.5654C70.3317 12.6559 70.0592 12.6882 69.7896 12.6599C67.5896 12.9799 67.1896 11.6599 67.2996 9.8899C67.4186 9.5248 67.6289 9.19621 67.9107 8.9354C68.1926 8.67459 68.5364 8.49024 68.9096 8.3999L71.7896 10.6599Z" fill="#F6C491"/>
<path d="M25.6692 50.4098L23.8392 48.5799C23.5392 46.9699 24.2092 46.3399 25.8392 46.6299L27.8392 47.5799C27.9088 48.2398 27.7226 48.9012 27.3188 49.4278C26.915 49.9544 26.3245 50.3059 25.6692 50.4098Z" fill="#D6A884"/>
<path d="M68.9095 8.40017L67.7995 9.64017C67.6661 9.80081 67.4974 9.92857 67.3067 10.0135C67.1159 10.0985 66.9081 10.1384 66.6995 10.1302C65.2495 10.0102 64.0695 9.60017 64.3095 7.76017C65.0495 6.37017 65.4795 4.45017 67.7895 5.64017L68.9095 8.40017Z" fill="#F3C390"/>
<path d="M67.7898 5.64019C65.7898 5.64019 65.5198 7.37019 64.7898 8.64019C63.8398 9.56019 62.8698 9.34019 61.8898 8.64019L61.7598 8.56019C63.4998 7.05019 64.1698 3.36019 67.7898 5.64019Z" fill="#F3C594"/>
<path d="M48.8097 23.65C50.2797 22.54 49.6397 20.89 49.8097 19.46C50.0932 19.5524 50.3843 19.6194 50.6797 19.66C51.9297 21.11 51.8397 22.84 51.7397 24.58C51.4034 24.9332 50.9732 25.183 50.4997 25.3C49.5397 25.21 48.5497 25.09 48.8097 23.65Z" fill="#D8A378"/>
<path d="M9.99925 38.6899C11.4993 40.1199 10.6393 41.9599 10.8693 43.6099C10.831 43.8896 10.7047 44.1498 10.5088 44.3529C10.3128 44.5561 10.0573 44.6916 9.77925 44.7399C7.99925 42.6599 10.1193 40.7099 9.99925 38.6899Z" fill="#F4C090"/>
<path d="M35.8193 36.5702C37.8541 37.023 39.9839 36.7284 41.8193 35.7402C41.8193 36.2707 41.6086 36.7794 41.2336 37.1544C40.8585 37.5295 40.3498 37.7402 39.8193 37.7402C39.2057 38.0746 38.5181 38.2498 37.8193 38.2498C37.1206 38.2498 36.4329 38.0746 35.8193 37.7402L34.8193 36.7902C34.862 36.7013 34.9244 36.6232 35.0017 36.5619C35.0791 36.5006 35.1694 36.4578 35.2657 36.4366C35.3621 36.4154 35.462 36.4164 35.558 36.4395C35.6539 36.4627 35.7433 36.5074 35.8193 36.5702V36.5702Z" fill="#F4E8DA"/>
<path d="M55.9098 16.6799C56.2055 16.6483 56.5025 16.6316 56.7998 16.6299C57.1855 17.0147 57.459 17.4973 57.5912 18.0258C57.7233 18.5543 57.709 19.1089 57.5498 19.6299C57.1498 20.9199 56.8698 22.2799 55.4398 22.9099C53.5598 21.7599 54.2498 20.2099 54.7798 18.6799C54.8975 18.4588 54.9528 18.21 54.9398 17.9599L55.9098 16.6799Z" fill="#D7A781"/>
<path d="M48.8094 32.6703C48.8094 33.7503 48.9994 34.9403 47.8094 35.6103C47.8094 33.5203 46.2394 33.7203 44.8994 33.6103C45.9294 32.2203 47.4594 32.8103 48.8094 32.6703Z" fill="#FDDBB6"/>
<path d="M35.8198 36.5701L34.8198 36.7401L32.9998 36.5401C32.9224 36.2415 32.8689 35.9372 32.8398 35.6301C33.1598 33.2301 34.5198 33.9901 35.8398 34.6301L35.8198 36.5701Z" fill="#D8A17E"/>
<path d="M9.73926 44.7399L10.8293 43.6099C11.9493 44.3499 12.9093 45.1499 11.8293 46.6099H9.95926L9.73926 44.7399Z" fill="#FAB575"/>
<path d="M72.8496 25.7702L71.7696 28.5902C66.9196 31.0702 62.7696 30.4002 59.5796 25.8002C59.4478 25.069 59.4686 24.3185 59.6407 23.5957C59.8128 22.873 60.1325 22.1936 60.5796 21.6002C60.8632 21.4449 61.1945 21.4009 61.5089 21.4767C61.8232 21.5525 62.098 21.7427 62.2796 22.0102C64.3796 25.2802 67.0996 26.0102 70.5596 24.2502C70.9222 24.0648 71.3341 23.9988 71.7364 24.0617C72.1388 24.1245 72.5109 24.313 72.7996 24.6002V24.6602C73.1396 24.9002 73.2496 25.1402 73.1496 25.3902C73.0496 25.6402 72.9996 25.7702 72.8496 25.7702Z" fill="#DAA278"/>
<path d="M63.8392 36.4702C69.3992 39.9502 69.7292 44.5302 64.7092 48.4102C63.0392 48.2902 61.1392 48.4902 61.2192 45.9202C61.34 45.2193 61.5766 44.5434 61.9192 43.9202C63.9992 41.8202 62.4092 38.7502 63.8392 36.4702Z" fill="#D9A179"/>
<path d="M53.9998 30.57L55.7598 30.86C56.7598 31.15 57.1698 32.03 57.8198 32.68L59.8198 34.61C62.6498 36.61 64.4098 38.61 60.2598 41.09C58.3798 41.19 57.7098 39.73 56.8798 38.48C55.6898 36.15 53.4298 34.58 52.3398 32.17C52.3898 31.15 52.4698 30.13 53.9998 30.57Z" fill="#FBCA95"/>
<path d="M59.7994 40.6299C63.5094 38.6299 60.9494 36.6299 59.7994 34.6299C61.3128 34.7493 62.7327 35.4096 63.7994 36.4899C64.6794 39.3599 65.3394 42.2099 62.7394 44.6299C60.0794 44.5599 58.6894 43.5299 59.7994 40.6299Z" fill="#EDB480"/>
<path d="M60.8294 21.6002C60.6894 23.0902 61.2194 24.7702 59.5794 25.8002C58.2255 25.8328 56.9003 25.4064 55.8194 24.5902C55.6914 24.4876 55.5854 24.3603 55.5077 24.2158C55.43 24.0713 55.3823 23.9126 55.3674 23.7492C55.3524 23.5859 55.3706 23.4212 55.4208 23.265C55.471 23.1088 55.5521 22.9643 55.6594 22.8402C55.8894 21.7402 55.5994 20.4502 56.7594 19.6602C57.6531 20.0325 58.6515 20.068 59.5694 19.7602C61.2894 19.3202 61.6094 20.1602 60.8294 21.6002Z" fill="#D39968"/>
<path d="M61.8096 45.6201C61.6296 47.7401 63.8896 47.3301 64.7096 48.4101C61.7096 49.1501 59.5096 52.9301 55.7096 50.8101C55.6032 50.6992 55.5215 50.567 55.4698 50.4222C55.418 50.2774 55.3976 50.1234 55.4096 49.9701C55.4096 49.6601 55.4796 49.5101 55.5396 49.5101C57.9296 48.6701 59.2996 46.2201 61.8096 45.6201Z" fill="#CA966E"/>
<path d="M50.8394 27.6199C52.3794 27.4799 52.7194 29.0999 53.8394 29.6199C53.8994 29.9299 53.9494 30.2399 53.9894 30.5599C53.6183 30.7367 53.3108 31.0236 53.1086 31.3815C52.9064 31.7393 52.8194 32.1508 52.8594 32.5599C50.1994 32.4699 51.4294 29.4899 49.8594 28.5599L50.8394 27.6199Z" fill="#EFBE8B"/>
<path d="M55.6601 22.8398C55.7101 23.4198 55.7701 24.0098 55.8201 24.5898L54.8201 25.5898C54.6601 23.2598 52.4901 20.9398 54.8201 18.5898C55.0001 20.0598 54.3601 21.6498 55.6601 22.8398Z" fill="#FAF4E9"/>
<path d="M55.8296 49.6301L55.7396 50.8101L53.8996 51.0001C53.8996 50.2101 53.8196 49.4101 53.7696 48.6101C53.3696 47.6101 53.9896 47.4101 54.7696 47.3501C55.6696 47.8601 56.3196 48.4801 55.8296 49.6301Z" fill="#D18F5A"/>
<path d="M41.81 23.6201C41.3456 23.7469 40.8911 23.9073 40.45 24.1001C39.24 24.7201 40.56 27.7701 38.17 26.9401C36.28 26.2801 36.85 24.3201 37.26 22.6701C37.5482 21.2441 37.7452 19.8012 37.85 18.3501C38.07 16.4601 38.94 15.7001 40.8 16.6401C41.1321 16.9394 41.3744 17.3252 41.4998 17.7544C41.6252 18.1835 41.6287 18.6391 41.51 19.0701C40.42 20.6601 42.87 22.0001 41.81 23.6201Z" fill="#FACA95"/>
<path d="M48.8301 26.6202C46.8301 30.7802 44.8301 28.2702 42.8301 26.6202V24.6202C43.2279 23.6715 43.9044 22.866 44.7701 22.3102C44.9559 22.235 45.1616 22.2246 45.354 22.2809C45.5464 22.3372 45.7141 22.4567 45.8301 22.6202L46.8301 23.6202C47.6001 24.5402 49.4601 24.7402 48.8301 26.6202Z" fill="#F6B682"/>
<path d="M35.8092 34.6298C34.7092 34.6298 33.5292 34.4498 32.8092 35.6298C31.8092 34.2898 30.8092 32.9598 29.8092 31.6298C29.1892 30.0598 30.2792 29.0598 31.0492 27.9398C31.3737 27.6152 31.7948 27.4047 32.2492 27.3398C33.0092 27.4698 33.3792 28.0698 33.7892 28.6298C33.8492 30.5398 33.4692 32.6298 35.7892 33.6298C36.0392 33.8498 36.1292 34.0598 36.0492 34.2798C35.9692 34.4998 35.8892 34.6098 35.7992 34.6098L35.8092 34.6298Z" fill="#DAA378"/>
<path d="M44.8092 22.63C44.8375 22.8996 44.8052 23.1721 44.7147 23.4276C44.6242 23.6831 44.4777 23.9152 44.286 24.1069C44.0944 24.2986 43.8623 24.445 43.6068 24.5355C43.3513 24.626 43.0788 24.6583 42.8092 24.63C42.4692 24.3 42.1392 23.96 41.8092 23.63C41.6192 22.27 39.6292 21.35 40.8092 19.63C41.0835 19.3643 41.4166 19.1669 41.7815 19.054C42.1463 18.941 42.5327 18.9157 42.9092 18.98C43.6315 19.2316 44.2304 19.7495 44.5836 20.4279C44.9367 21.1064 45.0174 21.8941 44.8092 22.63V22.63Z" fill="#F8C78F"/>
<path d="M35.8193 34.6099C35.8193 34.2899 35.8193 33.9599 35.8193 33.6099C37.0893 32.5299 37.8893 30.8099 39.8193 30.6099C40.1967 31.0182 40.4063 31.5538 40.4063 32.1099C40.4063 32.6659 40.1967 33.2015 39.8193 33.6099C38.7793 35.0699 37.2093 34.4899 35.8193 34.6099Z" fill="#F8B17B"/>
<path d="M29.8093 24.6202L32.8093 25.6202C33.3793 26.7602 32.4893 27.1202 31.8093 27.6202C29.9993 28.8902 28.5993 28.4302 27.5193 26.6202C27.2793 24.7502 27.6993 23.6902 29.8093 24.6202Z" fill="#F7B37C"/>
<path d="M39.8301 33.6201C39.8301 32.6201 39.8301 31.6201 39.8301 30.6201C40.8301 29.2901 41.8301 27.9601 42.8301 26.6201C42.9401 29.4401 43.0001 32.2101 39.8301 33.6201Z" fill="#F0BA86"/>
<path d="M26.8398 18.6302C27.1798 18.9802 27.5198 19.3202 27.8398 19.6302C27.8398 20.6302 27.8398 21.6302 27.8398 22.5802C27.3898 23.3402 26.9798 24.1602 25.8398 23.5802C26.0343 22.1522 25.6767 20.7037 24.8398 19.5302C25.2598 18.7602 25.6998 18.0002 26.8398 18.6302Z" fill="#DB9F83"/>
<path d="M25.8198 23.6602L27.8198 22.6602C28.4898 23.3302 29.1598 23.9902 29.8198 24.6602C29.5506 24.6337 29.2789 24.6673 29.0242 24.7585C28.7696 24.8497 28.5383 24.9961 28.347 25.1874C28.1558 25.3787 28.0093 25.6099 27.9181 25.8646C27.8269 26.1193 27.7934 26.391 27.8198 26.6602C27.7625 26.7276 27.6913 26.7818 27.611 26.8189C27.5307 26.8561 27.4433 26.8753 27.3548 26.8753C27.2663 26.8753 27.1789 26.8561 27.0986 26.8189C27.0183 26.7818 26.947 26.7276 26.8898 26.6602C26.2598 25.7402 25.4998 24.8902 25.8198 23.6602Z" fill="#ECB67F"/>
<path d="M42.8301 19.62H40.8301C40.8301 18.62 40.8301 17.62 40.8301 16.62C41.4793 16.5832 42.123 16.7584 42.6641 17.1191C43.2051 17.4798 43.6144 18.0066 43.8301 18.62C43.8101 19.28 43.1701 19.31 42.8301 19.62Z" fill="#F0BA86"/>
<path d="M42.8301 19.6201L43.8301 18.6201C45.6401 19.3801 45.9401 20.9001 45.8301 22.6201H44.8301L42.8301 19.6201Z" fill="#EEB378"/>
<path d="M48.8301 26.6201C48.1501 25.6201 47.4801 24.6201 46.8301 23.6201C47.1501 23.6201 47.4801 23.6201 47.8301 23.6201L48.8301 23.7001C49.077 24.0375 49.4058 24.3063 49.7855 24.4813C50.1652 24.6562 50.5832 24.7316 51.0001 24.7001C50.8701 25.3301 50.7301 25.9701 50.5901 26.6101L48.8301 26.6201Z" fill="#C8966F"/>
<path d="M31.7998 27.6L32.7998 25.6C36.9498 25.36 32.4798 27.89 33.7998 28.6L31.7998 27.6Z" fill="#DB9C6A"/>
<path d="M14.8096 39.6099C14.7596 37.2199 15.2396 34.7499 13.8096 32.6099H13.8696C15.2096 31.5499 14.2196 28.7399 16.8696 28.6099L17.8696 28.6899C19.6696 30.6899 17.7296 33.2999 18.9396 35.3999C19.6896 38.9399 20.0296 42.6999 24.0096 44.3999C23.9096 47.7599 21.4896 48.2499 18.8996 48.5299C18.2634 47.4299 17.4373 46.4514 16.4596 45.6399C15.4396 43.9999 15.8396 41.9999 14.9996 40.2099C14.9396 39.9999 14.8696 39.8099 14.8096 39.6099Z" fill="#F6C189"/>
<path d="M17.8493 35.6202C15.8493 33.3302 18.0793 31.0302 17.7993 28.7402C21.672 29.6301 25.1854 31.6692 27.8793 34.5902C26.9793 35.6902 25.7393 35.7302 24.4793 35.6902C24.0156 35.6451 23.559 35.5444 23.1193 35.3902C22.1193 35.5102 21.1193 32.7502 20.1193 35.3902C19.3993 36.1002 18.6693 36.3902 17.8493 35.6202Z" fill="#F5CA97"/>
<path d="M23.7993 34.6498L27.8793 34.5898L29.8293 36.4998C29.9793 39.4198 29.6993 41.7998 25.8293 39.6598C25.1782 39.5621 24.5773 39.2529 24.1193 38.7798C23.6507 38.3084 23.307 37.7275 23.1193 37.0898C22.9985 36.6599 22.998 36.2049 23.1179 35.7747C23.2378 35.3444 23.4735 34.9554 23.7993 34.6498Z" fill="#F5BE88"/>
<path d="M9.84945 24.6099C8.68945 23.3799 6.84945 22.6899 6.68945 20.6899L7.84945 20.6199C8.63585 19.8944 9.651 19.4664 10.7195 19.4099C12.0298 19.26 13.3548 19.5111 14.5195 20.1299C16.0095 23.0299 13.0495 23.2599 11.8495 24.5399L9.84945 24.6099Z" fill="#D5A27D"/>
<path d="M26.8898 26.6401H27.8198C29.0087 27.4001 30.4132 27.7512 31.8198 27.6401C32.0098 29.4001 30.3998 30.2701 29.8198 31.6401C27.9998 30.4501 25.2198 29.8601 26.8898 26.6401Z" fill="#D89F70"/>
<path d="M23.0001 20.7202C21.7401 23.2802 19.5701 23.9602 16.9301 23.7202C15.3901 23.4102 15.3901 23.4102 16.3201 21.3702C16.9883 20.6552 17.8064 20.097 18.7159 19.7357C19.6253 19.3743 20.6034 19.2187 21.5801 19.2802C21.9234 19.3723 22.2359 19.5543 22.4855 19.8074C22.7351 20.0606 22.9127 20.3756 23.0001 20.7202Z" fill="#DA9D73"/>
<path d="M16.8295 21.65C16.7095 22.33 15.7095 23.04 16.8995 23.65C15.4095 25.09 13.6095 24.65 11.8995 24.52C11.8395 22.41 14.4595 22.36 14.8995 20.62C15.0336 20.4991 15.1928 20.4095 15.3657 20.3576C15.5387 20.3057 15.721 20.2929 15.8995 20.32C16.1553 20.4435 16.3752 20.6307 16.5381 20.8636C16.7009 21.0965 16.8012 21.3672 16.8295 21.65V21.65Z" fill="#DA9C6D"/>
<path d="M23.0001 20.7201L21.8001 19.6001C21.54 19.342 21.377 19.0019 21.3388 18.6375C21.3005 18.2731 21.3893 17.9066 21.5901 17.6001C21.6714 17.5148 21.7691 17.4468 21.8774 17.4004C21.9857 17.354 22.1023 17.3301 22.2201 17.3301C22.3379 17.3301 22.4545 17.354 22.5628 17.4004C22.6711 17.4468 22.7689 17.5148 22.8501 17.6001H25.8501L26.8501 18.6001L24.8501 19.6001L23.0001 20.7201Z" fill="#CE8F69"/>
<path d="M16.8093 28.6602C14.8993 29.2902 16.5093 32.5702 13.8093 32.6602C13.8193 30.5402 13.2193 28.0002 16.8093 28.6602Z" fill="#F6BC7F"/>
<path d="M17.8393 14.6302H19.7893C20.1869 14.989 20.4513 15.4719 20.5393 16.0002C20.2993 18.7402 18.7493 19.7102 16.1493 19.2502C15.5471 19.0036 15.0278 18.5904 14.6523 18.059C14.2768 17.5276 14.0607 16.9001 14.0293 16.2502C14.0324 15.7776 14.1346 15.3109 14.3293 14.8802C14.4543 14.6997 14.616 14.5476 14.8038 14.4338C14.9917 14.3201 15.2014 14.2473 15.4193 14.2202C16.1969 14.4929 17.0152 14.6315 17.8393 14.6302V14.6302Z" fill="#F8C08A"/>
<path d="M17.84 14.6303C17.68 15.3503 17.7 16.3603 16.62 16.1303C16.26 16.0503 16.08 15.1303 15.82 14.6403C15.23 13.5103 14.95 12.5203 16.82 12.6403C17.1594 12.8431 17.435 13.1372 17.6153 13.489C17.7956 13.8409 17.8735 14.2363 17.84 14.6303Z" fill="#F4CA9A"/>
<path d="M16.8396 12.6299C16.5023 12.8361 16.2297 13.1329 16.0528 13.4865C15.876 13.8401 15.8021 14.2363 15.8396 14.6299H14.8396C14.7 14.5033 14.5885 14.349 14.5122 14.1768C14.4359 14.0045 14.3965 13.8183 14.3965 13.6299C14.3965 13.4415 14.4359 13.2552 14.5122 13.083C14.5885 12.9108 14.7 12.7564 14.8396 12.6299C14.8396 11.5299 14.6696 10.3499 15.8396 9.62988C16.1596 10.6299 16.4996 11.6299 16.8396 12.6299Z" fill="#FDCA94"/>
<path d="M19.85 15.6099C19.85 15.2899 19.85 14.9699 19.79 14.6099C22.37 13.9899 21.79 16.6099 22.85 17.6099H21.77C19.92 18.1099 20.67 16.1199 19.85 15.6099Z" fill="#E1A06B"/>
<path d="M49.8501 28.6401C52.6401 28.6401 51.1101 31.8301 52.8501 32.6401C55.4401 33.3901 56.2701 35.8901 57.8501 37.6401C57.5201 38.1701 57.2801 38.7701 56.5801 38.9401C56.0942 38.8772 55.603 39.0075 55.2121 39.3029C54.8213 39.5984 54.562 40.0355 54.4901 40.5201C53.8801 42.2001 54.4901 44.2601 52.8301 45.5901C47.4001 46.2401 47.0401 42.5101 46.8301 38.6501C47.4901 39.5601 48.1601 40.4601 48.8301 41.3801C49.3601 42.1301 50.0101 42.5701 50.8301 41.8801C51.4586 41.3381 51.8848 40.599 52.0392 39.7836C52.1935 38.9681 52.067 38.1244 51.6801 37.3901C50.7601 35.8001 52.8701 32.2501 48.8501 32.5901L49.8501 28.6401Z" fill="#F6C28C"/>
<path d="M52.7792 45.5898C53.1192 43.5898 52.0092 41.3798 53.7792 39.5898C54.5575 40.3102 55.0179 41.3101 55.0592 42.3698C54.9592 44.1098 56.1292 45.9198 54.7792 47.5898L53.7792 48.5898H52.7792C52.7892 47.5998 52.7892 46.5998 52.7792 45.5898Z" fill="#E5A873"/>
<path d="M14.8195 12.6399V14.6399V15.6399C14.3995 16.0799 14.2095 16.7399 13.5095 16.8999C12.8695 16.6899 12.3895 16.3899 12.8095 15.5999V10.6499L14.8195 12.6399Z" fill="#ECB782"/>
<path d="M7.83008 15.6402C7.83008 14.6402 7.83008 13.6402 7.83008 12.7302C10.0501 12.4802 10.0501 15.2602 11.8301 15.6402C12.2701 16.1402 12.5532 16.7586 12.6439 17.4184C12.7346 18.0782 12.6289 18.7501 12.3401 19.3502C12.1915 19.5634 11.9964 19.74 11.7694 19.8665C11.5424 19.993 11.2895 20.0661 11.0301 20.0802C8.00008 20.0002 8.76008 17.2202 7.83008 15.6402Z" fill="#F4B887"/>
<path d="M11.8301 19.6099V15.6099H12.8301L13.8301 16.6099C14.9401 18.8299 14.7201 20.0999 11.8301 19.6099Z" fill="#F7BD7F"/>
<path d="M11.8193 46.6299L10.8193 43.6299C13.7193 43.8499 13.3693 40.8499 14.8193 39.6299C15.8193 40.6299 15.8193 41.9899 15.7493 43.3099C15.7221 43.8398 15.6142 44.3625 15.4293 44.8599C14.5793 46.1899 13.8793 47.8599 11.7893 46.6299H11.8193Z" fill="#F4C090"/>
<path d="M72.8496 25.7699V24.6599C74.1896 24.9999 75.4996 22.8199 76.8496 24.6599C75.7496 25.9099 74.1596 25.3399 72.8496 25.7699Z" fill="#D89E69"/>
<path d="M24.8193 38.6201L25.8193 39.6201C26.3193 41.9501 27.5493 44.2801 25.8193 46.6201L23.8193 48.5701C22.1493 48.3701 20.4893 50.7501 18.8193 48.5701C20.4593 47.2101 22.7393 46.6401 23.8193 44.5701C22.4993 42.3301 22.5793 40.2901 24.8193 38.6201Z" fill="#EEB07E"/>
<path d="M66.8094 9.64014H67.8094C67.7725 10.2894 67.9477 10.933 68.3084 11.4741C68.6691 12.0152 69.1959 12.4244 69.8094 12.6401L71.8694 18.6401C71.8694 19.2901 71.8694 19.9501 71.8694 20.6401C69.7294 26.5801 68.3294 27.1901 64.6094 23.8301C66.7994 22.2601 67.6094 20.4501 66.6994 17.6001C65.8694 15.0001 64.6794 12.2201 66.8094 9.64014Z" fill="#F5BC86"/>
<path d="M14.7893 44.61C14.7893 44.29 14.7893 43.96 14.8393 43.61C17.2893 43.14 15.6493 45.95 17.0293 46.34C17.1214 46.5468 17.1516 46.776 17.1161 46.9996C17.0806 47.2233 16.981 47.4318 16.8293 47.6C16.8807 47.995 16.813 48.3964 16.6349 48.7528C16.4567 49.1091 16.1762 49.4041 15.8293 49.6L14.7593 48.6C13.8293 47.25 14.1593 45.93 14.7893 44.61Z" fill="#D79764"/>
<path d="M16.8299 47.6201C16.8299 47.2901 16.8299 46.9701 16.8299 46.6201C16.5599 46.3801 16.4699 46.1501 16.5699 45.9201C16.6699 45.6901 16.7699 45.5801 16.8599 45.5801C18.8599 45.7001 18.8599 47.1401 18.8599 48.5801L16.8299 47.6201Z" fill="#EEB07E"/>
<path d="M64.7998 23.6299C67.3698 25.5299 69.4798 26.1499 69.9798 21.8699C70.0998 20.8699 70.9798 20.7399 71.8298 20.5899H72.8298V24.5899C65.5598 27.6899 64.0398 27.3099 60.8298 21.5899C60.6498 20.8699 60.7398 19.7199 59.5598 21.0299C57.0998 23.7799 56.8398 21.8499 56.7598 19.6499C56.7598 18.6499 56.7598 17.6499 56.7598 16.6499C58.5298 17.3899 59.9998 17.0999 61.0598 15.3999C61.3995 15.4689 61.7155 15.625 61.9767 15.8529C62.2379 16.0808 62.4354 16.3727 62.5498 16.6999C62.7398 19.1499 65.6098 20.8199 64.7998 23.6299Z" fill="#F5B47F"/>
<path d="M64.7997 23.6299C63.9497 21.2399 61.0597 19.7299 61.7997 16.6299C62.3997 15.3599 61.3297 13.6799 62.7997 12.6299L61.8997 8.62988H64.7997L66.7997 9.62988C66.6738 12.7696 67.184 15.9024 68.2997 18.8399C69.6397 22.0799 68.6897 23.9999 64.7997 23.6299Z" fill="#F7C591"/>
<path d="M60.7998 15.6299C60.0198 18.2099 58.6498 18.3399 56.7998 16.6299C58.1698 14.9299 59.6098 13.3399 61.7998 12.6899C62.2898 13.9199 61.6498 14.8099 60.7998 15.6299Z" fill="#F7C591"/>
<path d="M60.7998 15.6299L61.7998 12.6299H62.7998C62.6798 14.0099 63.2498 15.5699 61.7998 16.6299L60.7998 15.6299Z" fill="#EEB982"/>
<path d="M7.83008 15.6401C9.25008 16.6401 8.83008 19.0901 10.8301 19.6401C11.1701 19.8501 11.2801 20.0701 11.1701 20.2801C11.0601 20.4901 10.9501 20.6101 10.8401 20.6101H7.84008C7.84008 19.0001 7.84008 17.3001 7.83008 15.6401Z" fill="#DFA06A"/>
<path d="M14.79 44.6099C14.79 45.9299 14.79 47.2599 14.79 48.6099C13.32 48.6799 11.93 48.6099 11.79 46.6599C13.35 46.7599 13.79 45.2699 14.79 44.6099Z" fill="#FBB27B"/>
<path d="M54.79 47.6402L53.79 42.6402C55.25 42.0802 56.02 43.7002 57.31 43.8802C57.72 41.9902 55.73 40.4802 56.76 38.6602C57.09 38.3302 57.42 38.0002 57.76 37.6602C58.43 38.6602 59.09 39.6602 59.76 40.6602C59.84 42.6602 61.15 43.7602 62.76 44.6602L61.76 45.6602C60.42 47.9702 59.27 50.5602 55.76 49.6602L54.79 47.6402Z" fill="#E8B182"/>
<path d="M24.8193 38.6203C24.486 40.6203 24.1527 42.6203 23.8193 44.6203C17.1693 44.7203 19.0493 39.1503 17.8193 35.6203C18.2137 35.6651 18.6127 35.5945 18.9677 35.417C19.3227 35.2394 19.6186 34.9627 19.8193 34.6203C20.7293 34.0403 21.3893 34.6203 22.0693 35.1003C22.8793 35.7803 23.0693 36.8603 23.8193 37.6203L24.8193 38.6203Z" fill="#F6C994"/>
<path d="M16.8398 45.6001V46.6001L14.8398 43.6001V39.6001C18.4498 40.6401 16.1198 43.6301 16.8398 45.6001Z" fill="#E7AD78"/>
<path d="M21.8296 35.6203L19.8296 34.6203C19.6796 33.8703 18.5996 32.7603 19.3996 32.5103C20.9896 32.0103 22.0896 33.2303 22.8296 34.6203C22.7934 34.8726 22.6763 35.1064 22.4961 35.2867C22.3158 35.467 22.082 35.584 21.8296 35.6203V35.6203Z" fill="#F0BD86"/>
<path d="M21.8301 35.6201L22.8301 34.6201H23.8301V37.6201C23.3714 37.4522 22.9548 37.1862 22.6094 36.8408C22.264 36.4954 21.998 36.0788 21.8301 35.6201V35.6201Z" fill="#F1B57B"/>
<path d="M10.8301 20.6201C10.8301 20.3001 10.8301 19.9701 10.8301 19.6201H11.8301C13.8801 19.5601 13.8301 18.1001 13.8301 16.6201L14.8301 15.6201C15.1701 16.6201 15.5001 17.6201 15.8301 18.6201C15.9644 18.7498 16.0712 18.9051 16.1441 19.0769C16.217 19.2487 16.2546 19.4335 16.2546 19.6201C16.2546 19.8068 16.217 19.9915 16.1441 20.1633C16.0712 20.3351 15.9644 20.4905 15.8301 20.6201H14.8301H10.8301Z" fill="#E6A875"/>
<path d="M15.8096 20.6401C15.8096 19.9701 15.8096 19.3001 15.8096 18.6401C17.9796 18.7501 19.6596 18.1901 19.8096 15.6401L21.7296 17.6401V19.6401L16.7296 21.6401L15.8096 20.6401Z" fill="#F6B57D"/>
<path d="M56.8001 38.6202C58.1603 40.9885 59.104 43.5727 59.5901 46.2602C56.7201 46.0002 55.4601 44.0002 53.8301 42.6002C53.8301 41.6002 53.8301 40.6002 53.8301 39.6002C53.9701 38.7202 53.5101 37.5002 54.6401 37.1102C55.7701 36.7202 55.9201 38.3202 56.8001 38.6202Z" fill="#FAC795"/>
</svg>
