<svg width="89" height="65" viewBox="0 0 89 81" fill="none" xmlns="http://www.w3.org/2000/svg">
<g clip-path="url(#clip0)">
<path d="M64.6718 27.1495C63.7508 31.1205 61.0406 34.7767 57.2459 36.2673C54.7295 37.2544 51.9287 37.2569 49.2639 36.8087C45.7849 36.2138 42.4712 34.8888 39.5405 32.9209C36.6164 30.9593 33.1891 27.8621 32.1171 24.3596C30.8891 20.3534 32.1171 15.9116 31.0552 11.845C30.3456 9.1003 29.1931 7.91682 26.9333 6.56968C25.2549 5.56246 23.2091 3.29624 24.6686 1.18109C25.6751 -0.284402 27.8569 -0.0779236 29.6158 0.18647C32.9802 0.727846 36.4403 0.931807 39.8802 1.25915C44.3191 1.66455 48.7253 2.26636 52.8447 4.01136C54.5476 4.75102 56.1203 5.76024 57.5025 7.00026C61.8408 10.8327 64.7699 16.8206 65.0517 22.5466C65.1392 24.0911 65.0114 25.6403 64.6718 27.1495V27.1495Z" fill="#E49997"/>
<path d="M50.6652 12.6506C50.7915 13.0903 51.021 13.4934 51.3345 13.8265C51.9372 14.4951 52.729 14.9643 53.6046 15.1717C54.4803 15.379 55.3982 15.3147 56.2365 14.9873C61.302 12.8646 56.9083 5.72851 53.0029 7.87136C51.4452 8.71993 50.2248 10.893 50.6652 12.6506Z" fill="#EAADA7"/>
<path d="M49.0045 7.35538C48.9768 8.0705 48.0433 8.50361 47.3965 8.19892C46.7498 7.89424 46.4554 7.08595 46.5611 6.37839C46.5865 6.14466 46.6622 5.91922 46.783 5.71754C46.9038 5.51586 47.0667 5.34272 47.2606 5.21002C47.4583 5.08278 47.6933 5.02668 47.927 5.05093C48.1607 5.07519 48.3792 5.17837 48.5465 5.34347C49.1354 5.50463 49.1001 5.59528 49.1857 6.20716C49.2713 6.81904 49.5229 7.0507 49.0045 7.35538Z" fill="#EAADA7"/>
<path d="M79.1207 18.5479C78.7634 24.5307 78.5268 30.9819 81.8133 35.9903L82.5531 32.5607L85.5048 38.4378C86.5315 40.4824 87.5658 42.5472 88.142 44.7606C88.8038 47.3245 88.8341 50.0109 88.2301 52.5891C87.913 53.9363 87.3493 55.3388 86.1792 56.0791C84.8279 56.9352 83.0463 56.6683 81.5616 56.0791C74.2842 53.1506 71.4029 44.2293 71.8206 36.9672C72.1855 30.6747 73.5318 22.272 79.1207 18.5479Z" fill="#E49997"/>
<path d="M76.3224 28.6098C76.1759 28.3615 75.9523 28.1679 75.6858 28.0584C75.4911 28.0219 75.29 28.0486 75.1116 28.1347C74.9332 28.2208 74.787 28.3617 74.6943 28.5368C74.5176 28.8909 74.4197 29.2793 74.4075 29.6749C74.2741 30.9994 75.102 34.4592 76.8182 34.643C79.4931 34.925 77.1302 29.7127 76.3224 28.6098Z" fill="#D77475"/>
<path d="M88.5624 59.0303C88.039 60.3523 87.0752 61.3796 86.0057 62.3339C85.1954 63.0541 84.3248 63.7315 83.5371 64.4592C80.7011 67.0729 78.756 70.5704 75.8319 73.0759C75.7187 73.1715 75.608 73.2647 75.4922 73.3554C75.155 73.6273 74.8027 73.8867 74.4454 74.1284C70.5424 76.7723 65.5398 77.6536 60.8241 77.1148C55.5271 76.5054 50.5471 74.2392 46.005 71.4417C32.3234 63.0163 24.1728 50.5873 18.0453 36.1036C14.5953 27.9704 16.8148 20.8998 22.0238 16.4202C26.1985 12.8421 32.2932 10.9258 38.9541 11.4823C47.1248 12.1622 54.6766 16.0878 61.5035 20.6303C73.24 28.4362 83.975 38.9112 88.2176 52.3575C88.8996 54.5255 89.3978 56.9076 88.5624 59.0303Z" fill="#EAADA7"/>
<path d="M75.4922 73.3556C75.155 73.6275 74.8027 73.8869 74.4454 74.1286C70.5424 76.7726 65.5398 77.6539 60.8241 77.115C55.5271 76.5057 50.5471 74.2394 46.005 71.4419C32.3234 63.0166 24.1728 50.5876 18.0453 36.1039C14.5953 27.9706 16.8148 20.9 22.0238 16.4204C21.8552 16.9794 21.6438 17.5409 21.5205 18.0873C20.5466 22.2723 24.3615 24.3824 27.2755 26.6487C36.2939 33.6131 44.7 41.3372 52.4017 49.7365C54.7973 52.3502 57.1225 55.026 59.3772 57.764C61.1739 59.9446 63.031 63.6108 65.336 65.2198C66.0003 65.6832 66.7729 65.9627 67.4724 66.3681C68.2852 66.8389 68.9974 67.4785 69.8555 67.8613C71.8233 68.74 73.6577 67.5767 75.3714 66.7332C75.9074 66.4814 76.466 66.1666 76.7655 65.6504C77.0649 65.1342 77.0549 64.5803 77.2688 64.0666C77.4827 63.5529 78.0564 63.0795 78.5521 63.3288C78.6276 63.986 79.6266 64.2857 80.0494 63.777C80.2406 67.4206 78.1646 70.8325 75.4922 73.3556Z" fill="#E49997"/>
<path d="M40.4989 50.0608C39.5779 54.0343 36.8678 57.6905 33.073 59.1811C30.5566 60.1682 27.7534 60.1707 25.091 59.7225C21.6118 59.1271 18.298 57.8013 15.3676 55.8322C12.4436 53.8731 9.01626 50.7734 7.94427 47.2709C6.71375 43.2647 7.93169 38.8229 6.88235 34.7588C6.17273 32.0116 5.0177 30.8306 2.76049 29.4709C1.08205 28.4637 -0.96378 26.1975 0.495732 24.0823C1.50229 22.6168 3.68401 22.8233 5.44297 23.0902C8.8074 23.6417 12.2725 23.8431 15.7099 24.1579C20.1513 24.5633 24.5575 25.1651 28.6744 26.9101C30.3784 27.6491 31.952 28.6583 33.3347 29.899C37.6705 33.7339 40.6021 39.7193 40.8839 45.4478C40.971 46.9959 40.8414 48.5486 40.4989 50.0608V50.0608Z" fill="#E49997"/>
<path d="M40.8846 45.4477C40.4467 47.8248 39.7119 50.2093 38.1467 52.0374C35.1824 55.5047 29.9256 56.1191 25.5043 55.0037C22.5653 54.2629 19.8214 52.8943 17.4611 50.9919C15.1009 49.0894 13.1801 46.6982 11.831 43.9826C10.4818 41.2669 9.7361 38.2911 9.64519 35.2598C9.55428 32.2284 10.1203 29.2132 11.3043 26.4215C12.0114 24.7571 13.7653 24.2585 15.7105 24.1553C20.1519 24.5607 24.5582 25.1625 28.675 26.9075C30.379 27.6465 31.9527 28.6558 33.3354 29.8964C37.6711 33.7414 40.6027 39.7091 40.8846 45.4477Z" fill="#EAADA7"/>
<path d="M70.4844 76.3747L71.5287 76.2739C71.1879 76.3617 70.8356 76.3956 70.4844 76.3747Z" fill="#EA807A"/>
<path d="M86.0054 62.3339C85.1951 63.054 84.3244 63.7314 83.5368 64.4591C80.7008 67.0728 78.7556 70.5704 75.8316 73.0758C75.3875 73.4547 74.922 73.8078 74.4375 74.1334C75.0004 73.2978 75.4712 72.4038 75.8417 71.4668C77.0546 68.634 78.0762 65.5293 77.4396 62.5152C77.125 61.027 76.4104 59.5792 76.5538 58.0658C76.6341 57.2235 76.9792 56.4284 77.5395 55.7947C78.0998 55.161 78.8465 54.7214 79.6722 54.5389C80.4979 54.3565 81.3601 54.4407 82.1349 54.7794C82.9098 55.1181 83.5574 55.6939 83.9847 56.4241C84.6012 57.4791 84.7019 58.7407 84.9535 59.9367C85.1372 60.7929 85.4467 61.6918 86.0054 62.3339Z" fill="#DA5E5A"/>
<path d="M76.6471 26.2331C77.1512 25.0791 77.4337 23.8405 77.4801 22.5819C77.5029 22.4228 77.4671 22.2608 77.3794 22.1262C77.1278 21.8366 76.6673 22.1262 76.4534 22.4409C76.0718 23.0189 75.8451 23.6854 75.7948 24.3763C75.7446 25.0672 75.8726 25.7595 76.1665 26.3867C76.3175 26.6913 76.3024 26.2708 76.6471 26.2331Z" fill="#D77475"/>
<path d="M77.699 52.2167C73.5771 51.6779 71.3074 47.3746 68.7431 44.5594C66.6747 42.2932 64.7547 39.8809 62.9101 37.4409C58.6323 31.7728 54.1782 26.208 49.2461 21.0737C53.0433 21.2147 56.2065 23.9065 58.9594 26.5278C66.3466 33.5572 73.2175 41.1108 79.5184 49.1296C79.7521 49.3937 79.9355 49.6983 80.0594 50.0286C80.4217 51.2473 78.9622 52.3754 77.699 52.2167Z" fill="#F8CACA"/>
<path d="M73.1497 57.6629C73.0818 57.9147 73.0163 58.1665 72.9509 58.4183C72.9112 58.5625 72.9304 58.7166 73.0042 58.8467C73.0781 58.9768 73.2006 59.0723 73.3447 59.112C73.4889 59.1517 73.6429 59.1325 73.7729 59.0586C73.9029 58.9847 73.9983 58.8622 74.038 58.7179C74.1034 58.4661 74.1688 58.2143 74.2368 57.9625C74.2765 57.8183 74.2573 57.6641 74.1834 57.534C74.1096 57.4039 73.9871 57.3085 73.843 57.2688C73.6988 57.2291 73.5448 57.2483 73.4148 57.3222C73.2848 57.3961 73.1894 57.5186 73.1497 57.6629V57.6629Z" fill="#F8CACA"/>
<path d="M72.918 61.7271V62.4825C72.918 62.6321 72.9774 62.7756 73.0831 62.8814C73.1888 62.9871 73.3321 63.0466 73.4816 63.0466C73.6311 63.0466 73.7745 62.9871 73.8802 62.8814C73.9859 62.7756 74.0453 62.6321 74.0453 62.4825V61.7271C74.0453 61.5775 73.9859 61.4341 73.8802 61.3283C73.7745 61.2225 73.6311 61.1631 73.4816 61.1631C73.3321 61.1631 73.1888 61.2225 73.0831 61.3283C72.9774 61.4341 72.918 61.5775 72.918 61.7271Z" fill="#F8CACA"/>
<path d="M70.877 59.519C70.8166 59.7054 70.7537 59.8917 70.6908 60.0806C70.6528 60.2244 70.6725 60.3775 70.7459 60.5069C70.8193 60.6364 70.9404 60.7319 71.0834 60.773C71.2274 60.8092 71.3798 60.7886 71.5091 60.7155C71.6383 60.6424 71.7346 60.5223 71.7779 60.3802C71.8408 60.1914 71.9012 60.005 71.9641 59.8187C72.0029 59.6745 71.9835 59.5208 71.91 59.3908C71.8366 59.2607 71.715 59.1648 71.5715 59.1237C71.4272 59.0876 71.2745 59.1086 71.1452 59.1822C71.0158 59.2558 70.9198 59.3764 70.877 59.519V59.519Z" fill="#F8CACA"/>
<path d="M71.2923 62.747L70.9224 63.5024C70.8499 63.6326 70.8307 63.7859 70.8687 63.93C70.9067 64.0741 70.999 64.1979 71.1262 64.2754C71.2557 64.3491 71.4089 64.369 71.5529 64.3309C71.6968 64.2927 71.8201 64.1996 71.8962 64.0715L72.2661 63.3161C72.3035 63.2521 72.3279 63.1814 72.3379 63.1079C72.3479 63.0345 72.3434 62.9599 72.3246 62.8882C72.3058 62.8165 72.273 62.7493 72.2283 62.6903C72.1835 62.6313 72.1275 62.5816 72.0636 62.5443C71.9996 62.5069 71.929 62.4825 71.8556 62.4725C71.7822 62.4624 71.7076 62.467 71.636 62.4858C71.5644 62.5046 71.4971 62.5374 71.4382 62.5822C71.3792 62.627 71.3296 62.683 71.2923 62.747V62.747Z" fill="#F8CACA"/>
<path d="M69.6166 56.7567L69.2416 57.5121C69.1659 57.6413 69.1446 57.7954 69.1823 57.9403C69.2201 58.0853 69.3138 58.2093 69.443 58.2851C69.5721 58.3609 69.726 58.3823 69.8709 58.3445C70.0158 58.3067 70.1397 58.2129 70.2155 58.0837C70.3388 57.8319 70.4671 57.5801 70.5904 57.3283C70.6659 57.199 70.6869 57.0451 70.6489 56.9004C70.6109 56.7557 70.517 56.632 70.3879 56.5565C70.2587 56.481 70.1049 56.46 69.9603 56.498C69.8156 56.536 69.692 56.63 69.6166 56.7592V56.7567Z" fill="#F8CACA"/>
<path d="M68.7713 60.9996C68.6606 61.3169 68.5473 61.6342 68.4366 61.9489C68.3966 62.0932 68.4154 62.2474 68.489 62.3778C68.5627 62.5081 68.685 62.6038 68.8292 62.6439C68.9733 62.684 69.1275 62.6651 69.2577 62.5914C69.388 62.5177 69.4836 62.3953 69.5237 62.2511L69.8584 61.2993C69.8964 61.1554 69.8766 61.0023 69.8032 60.8729C69.7299 60.7435 69.6087 60.648 69.4658 60.6068C69.3218 60.57 69.1691 60.5903 69.0396 60.6635C68.9102 60.7367 68.814 60.8571 68.7713 60.9996V60.9996Z" fill="#F8CACA"/>
<path d="M67.3008 58.5445V58.7308C67.3008 58.8804 67.3602 59.0239 67.4659 59.1297C67.5716 59.2355 67.715 59.2949 67.8645 59.2949C68.0139 59.2949 68.1573 59.2355 68.263 59.1297C68.3687 59.0239 68.4281 58.8804 68.4281 58.7308V58.5445C68.4281 58.3949 68.3687 58.2515 68.263 58.1457C68.1573 58.0399 68.0139 57.9805 67.8645 57.9805C67.715 57.9805 67.5716 58.0399 67.4659 58.1457C67.3602 58.2515 67.3008 58.3949 67.3008 58.5445Z" fill="#F8CACA"/>
<path d="M68.7979 65.0987V65.2876C68.7979 65.4371 68.8572 65.5806 68.963 65.6864C69.0687 65.7922 69.212 65.8516 69.3615 65.8516C69.511 65.8516 69.6544 65.7922 69.7601 65.6864C69.8658 65.5806 69.9252 65.4371 69.9252 65.2876V65.0987C69.9252 64.9491 69.8658 64.8056 69.7601 64.6999C69.6544 64.5941 69.511 64.5347 69.3615 64.5347C69.212 64.5347 69.0687 64.5941 68.963 64.6999C68.8572 64.8056 68.7979 64.9491 68.7979 65.0987Z" fill="#F8CACA"/>
<path d="M59.4272 79.7864C59.2079 79.9921 58.9666 80.1728 58.7075 80.3252C56.946 81.3727 54.5101 81.0605 52.5021 80.3479C46.8578 78.3335 42.5019 74.0201 38.8229 69.4423C36.455 66.5038 33.3221 64.3382 33.6215 60.1533C33.6593 59.2056 33.9666 58.2883 34.5073 57.5093C35.5717 56.0439 37.4817 55.5352 39.676 56.1169C44.3062 57.3457 46.9081 62.1299 48.9867 66.4408C47.7058 62.5655 48.2745 58.3504 48.969 54.3291C49.2179 52.6611 49.6059 51.017 50.1291 49.4139C50.3646 48.7379 50.6541 48.0819 50.9947 47.4523C52.1472 45.3473 54.11 43.5519 56.483 43.1943C56.4654 43.2724 56.4503 43.3505 56.4327 43.4285C54.3642 53.3345 59.5128 63.2379 60.8339 73.2949C61.1207 75.5863 61.1006 78.2126 59.4272 79.7864Z" fill="#EAADA7"/>
<path d="M39.6763 56.1172C37.482 55.5355 35.5721 56.0441 34.5077 57.5096C34.5014 57.5993 34.5014 57.6894 34.5077 57.7791C34.6108 60.7226 37.8998 61.9489 40.0437 63.1097C43.0758 64.7507 45.5861 67.2111 47.2884 70.2106C48.3428 72.0739 49.3343 74.3452 51.3575 74.9394C49.7998 71.7667 48.7958 68.3321 48.1239 64.7339C46.1888 60.9367 43.6975 57.1848 39.6763 56.1172Z" fill="#F8CACA"/>
<path d="M59.4269 79.7865C59.2076 79.9922 58.9663 80.1729 58.7072 80.3254C58.5696 79.6735 58.5163 79.0066 58.5487 78.3412C58.6267 69.2158 57.2905 57.5473 52.4414 49.6004C50.7856 50.8594 50.2118 50.4137 50.1162 49.4241C50.3517 48.7481 50.6412 48.0921 50.9819 47.4626C52.1344 45.3575 54.0972 43.5621 56.4701 43.2046C56.4525 43.2826 56.4374 43.3607 56.4198 43.4388C54.3513 53.3447 59.4999 63.2481 60.821 73.3051C61.1204 75.5864 61.1003 78.2127 59.4269 79.7865Z" fill="#F8CACA"/>
<path d="M49.754 53.634C50.4202 55.4884 51.6845 57.068 53.3474 58.1237C53.9589 58.5165 54.5251 57.5395 53.9161 57.1492C52.4939 56.2512 51.409 54.907 50.831 53.3268C50.5794 52.6495 49.4948 52.9416 49.7439 53.6265L49.754 53.634Z" fill="#F6BDBA"/>
<path d="M49.4947 57.202C49.707 58.3284 50.1824 59.3886 50.8821 60.2962C51.5818 61.2038 52.486 61.933 53.521 62.4244C54.1727 62.7316 54.7465 61.7596 54.0897 61.4499C53.1831 61.0304 52.3907 60.3986 51.7797 59.6079C51.1687 58.8172 50.757 57.8909 50.5793 56.9074C50.4434 56.1948 49.3563 56.4969 49.4922 57.207L49.4947 57.202Z" fill="#F6BDBA"/>
<path d="M49.6989 62.6388C50.4099 64.4373 51.7913 65.889 53.5516 66.6878C54.2058 66.9849 54.7821 66.013 54.1203 65.7158C52.6156 65.0621 51.4212 63.8525 50.786 62.3392C50.5117 61.6769 49.4221 61.9665 49.6989 62.6388V62.6388Z" fill="#F6BDBA"/>
<path d="M49.8832 66.5716C50.5629 68.3764 51.7529 69.9443 53.308 71.0839C53.8918 71.517 54.4529 70.5375 53.8767 70.1094C52.5609 69.1348 51.5522 67.803 50.9702 66.2719C50.7186 65.5996 49.624 65.8917 49.8832 66.5716V66.5716Z" fill="#F6BDBA"/>
<path d="M51.2592 72.5192C51.9081 73.5427 52.7459 74.4332 53.7278 75.1429C54.3167 75.571 54.8778 74.594 54.2991 74.171C53.4764 73.5679 52.7754 72.8143 52.2331 71.9501C51.8456 71.3382 50.8692 71.9048 51.2592 72.5192Z" fill="#F6BDBA"/>
<path d="M12.7931 32.6011C12.9171 33.0389 13.143 33.441 13.4524 33.7745C14.0552 34.4429 14.8469 34.9122 15.7223 35.12C16.5978 35.3277 17.5158 35.2642 18.3543 34.9378C23.4199 32.8126 19.0262 25.679 15.1208 27.8193C13.5732 28.6679 12.3527 30.8435 12.7931 32.6011Z" fill="#F6BDBA"/>
<path d="M24.8365 30.2669C24.8089 30.982 23.8753 31.4177 23.2286 31.1105C22.5819 30.8033 22.2874 30 22.3931 29.2899C22.4189 29.0563 22.4947 28.831 22.6155 28.6293C22.7362 28.4277 22.899 28.2545 23.0927 28.1215C23.2907 27.9956 23.5254 27.9403 23.7588 27.9645C23.9922 27.9888 24.2106 28.0911 24.3786 28.255C24.9674 28.4162 24.9322 28.5068 25.0152 29.1212C25.0983 29.7356 25.3549 29.9496 24.8365 30.2669Z" fill="#F6BDBA"/>
</g>
<defs>
<clipPath id="clip0">
<rect width="89" height="81" fill="white"/>
</clipPath>
</defs>
</svg>
