<svg width="92" height="68" viewBox="0 0 92 98" fill="none" xmlns="http://www.w3.org/2000/svg">
<g clip-path="url(#clip0)">
<path d="M65.3501 44.7411C59.747 45.6363 54.017 44.3029 49.3773 41.0242C42.1607 35.8846 39.1704 24.6755 42.1546 16.478C43.7371 12.1329 46.0926 8.08656 50.0336 5.46288C51.7676 4.31395 53.596 3.31567 55.499 2.47891C60.9152 0.0923465 67.3068 -1.09324 72.4992 1.33644C74.9528 2.47583 76.9279 4.62528 78.4246 6.85171C78.7824 7.38753 79.1198 7.94183 79.4367 8.51461C84.0371 16.8753 84.0034 28.5987 78.5166 36.5529C76.9898 38.743 75.0352 40.5983 72.7717 42.006C70.5082 43.4136 67.9831 44.3442 65.3501 44.7411V44.7411Z" fill="#C5846F"/>
<path d="M55.7231 31.0715C54.1559 28.3185 51.549 26.7603 49.2549 24.9126C49.5312 25.8859 49.8797 26.837 50.2977 27.758C53.5793 35.0409 60.112 35.8415 67.166 35.2287C72.202 34.7976 76.1308 30.6896 78.3482 26.0766C70.6164 25.4484 62.5962 27.6194 55.7231 31.0715Z" fill="#B97866"/>
<path d="M55.7225 31.0715C62.5956 27.6195 70.6157 25.4485 78.3506 26.0767C78.884 24.969 79.3242 23.8184 79.6664 22.637C80.9484 18.1718 81.0005 13.0014 79.4241 8.51465C79.1071 7.94188 78.7698 7.38758 78.412 6.85176C76.9153 4.61916 74.9248 2.46356 72.4866 1.33648C67.2942 -1.09319 60.9026 0.10471 55.4863 2.47896C52.7905 5.08416 50.5516 8.72405 49.6591 11.2523C48.1362 15.6601 47.9938 20.4304 49.2512 24.9219C51.5483 26.7603 54.1553 28.3308 55.7225 31.0715Z" fill="#D2907A"/>
<path d="M68.9389 10.4117C72.0979 11.0276 74.8888 8.12673 72.8094 5.04113C71.5427 3.16883 66.8993 1.92474 65.3199 4.19428C63.6085 6.65475 66.7215 9.97439 68.9389 10.4117Z" fill="#EBA48E"/>
<path d="M57.0943 39.0043C56.8306 43.0076 55.0701 47.1155 53.4998 51.0141C52.4991 53.5112 51.0039 55.7783 49.1048 57.678C41.5356 65.2411 30.8165 67.7539 21.6953 61.8383C19.2898 60.2418 17.275 58.1198 15.8017 55.631C14.3284 53.1423 13.4347 50.3512 13.1875 47.4666C12.7305 41.4062 15.0277 36.1989 18.7786 32.2264C22.5295 28.254 27.6728 25.5441 33.0339 24.4047C39.9683 22.9265 48.3841 23.9859 53.5428 29.2917C54.8157 30.5442 55.7945 32.0658 56.4078 33.746C57.0211 35.4262 57.2536 37.2225 57.0882 39.0043H57.0943Z" fill="#C5846F"/>
<path d="M57.0944 39.0039C56.8306 43.0071 55.0702 47.1151 53.4999 51.0137C52.4992 53.5108 51.004 55.7778 49.1049 57.6776C48.1848 56.0054 47.7739 53.5573 47.8781 51.6727C48.1204 47.7464 49.3564 41.4674 52.8405 39.0963C54.7635 37.7875 56.1252 38.0185 57.0944 39.0039Z" fill="#B97866"/>
<path d="M33.0399 24.4045C27.6911 25.5593 22.514 28.2753 18.7846 32.2262C15.5121 37.4613 15.0521 44.35 18.7662 49.7267C23.8083 57.0219 34.8954 55.5006 41.839 52.298C44.3403 51.1425 46.6353 49.582 48.6324 47.6789C49.8131 42.6163 52.2882 36.7407 56.2998 33.4149C55.6672 31.8669 54.7353 30.4602 53.5579 29.2761C48.3901 23.9857 39.9743 22.9263 33.0399 24.4045Z" fill="#D2907A"/>
<path d="M38.6435 32.1428C44.6088 35.4008 48.375 27.1726 41.5786 26.3072C37.8338 25.833 34.6258 29.9471 38.6435 32.1428Z" fill="#EBA48E"/>
<path d="M74.5913 71.215C68.9852 72.1134 63.2512 70.7799 58.6093 67.4982C51.3928 62.3586 48.3994 51.1494 51.3835 42.952C52.9661 38.6069 55.3215 34.5605 59.2626 31.9368C60.9963 30.7858 62.8247 29.7854 64.7279 28.9467C70.1473 26.5601 76.5358 25.3745 81.7312 27.8042C84.1695 28.9436 86.1599 31.0931 87.6536 33.3195C88.0124 33.8553 88.3528 34.4096 88.6687 34.9824C93.2692 43.3431 93.2355 55.0665 87.7486 63.0053C86.2257 65.1991 84.2737 67.0584 82.0116 68.4699C79.7495 69.8814 77.2247 70.8154 74.5913 71.215V71.215Z" fill="#C5846F"/>
<path d="M69.457 28.694L70.1042 28.577C70.2268 28.5554 70.3495 28.5431 70.4722 28.5308L69.457 28.694Z" fill="#D2907A"/>
<path d="M88.9107 49.1105C87.2392 54.9276 82.6816 61.1635 76.4128 61.7024C69.3342 62.3182 62.8107 61.5145 59.526 54.2316C57.238 49.1506 57.0479 42.9732 58.9126 37.7259C59.8051 35.1976 62.0409 31.567 64.7399 28.9525C70.1592 26.566 76.5477 25.3804 81.7432 27.8101C84.1814 28.9495 86.1719 31.0989 87.6655 33.3253C88.0243 33.8612 88.3647 34.4155 88.6806 34.9882C90.2448 39.475 90.1896 44.6515 88.9107 49.1105Z" fill="#D2907A"/>
<path d="M78.1828 36.8853C81.3418 37.5012 84.1328 34.6004 82.0503 31.5148C80.7867 29.6425 76.1433 28.3984 74.5607 30.6679C72.8494 33.1284 75.9654 36.448 78.1828 36.8853Z" fill="#EBA48E"/>
<path d="M20.8056 71.2212C13.8436 72.533 -3.1536 73.9003 0.511436 85.4636C3.98632 96.4418 22.425 92.1275 30.6843 93.3069C42.9062 95.0714 53.5639 98.4465 66.4912 97.926C72.2387 97.6982 79.8571 95.4101 81.7096 89.2451C85.2274 77.5433 54.9686 69.0717 46.6142 68.9947C37.9599 68.8975 29.3166 69.6431 20.8056 71.2212V71.2212Z" fill="#CDCFCE"/>
<path d="M8.50935 88.4998C11.6407 89.7993 17.5416 88.3458 20.8509 87.9055C26.0892 87.2095 30.8768 86.3658 36.1428 87.4189C48.4107 89.8825 59.8106 95.8751 72.6674 92.7371C76.9335 91.6963 81.0279 86.9816 78.7246 82.3625C76.7955 78.4978 68.3184 75.1443 64.5092 73.7616C53.3853 69.7337 40.1759 70.328 28.4784 70.8269C22.1482 71.0917 14.95 71.3073 9.11355 74.4391C3.48258 77.4477 1.13328 85.4419 8.50935 88.4998Z" fill="#E8E8E7"/>
<path d="M59.6455 69.8505C59.9522 70.1184 60.2589 70.3987 60.5656 70.6943C68.4263 78.7624 55.6063 83.7265 49.5245 83.7357C43.5286 83.7357 36.2046 82.8611 30.816 80.1481C20.149 74.7868 28.0986 68.3785 35.944 66.2106C42.6821 64.3352 53.7569 64.8926 59.6455 69.8505Z" fill="#F47F31"/>
<path d="M7.46059 78.2453C7.38392 78.3099 7.30724 78.3777 7.23363 78.4485C7.29804 78.3869 6.58037 79.3723 7.01895 78.8119C6.59752 79.3342 6.36986 79.9873 6.37488 80.6596C6.36195 81.2468 6.49547 81.828 6.76329 82.3502C7.03112 82.8725 7.42475 83.3192 7.90837 83.6497C9.49706 84.786 11.4569 82.926 11.0244 81.2477C10.9418 80.9466 10.8223 80.657 10.6686 80.3855C10.9171 80.832 10.6288 80.213 10.595 80.0775L10.6226 80.3116C10.6231 79.935 10.5236 79.5651 10.3343 79.2399C10.5214 79.9821 10.5521 80.0006 10.4325 79.2984C10.405 79.2071 10.3865 79.1132 10.3773 79.0182C10.2883 78.4362 9.69028 77.9404 9.15049 77.7864C8.85182 77.7107 8.53887 77.7125 8.24109 77.7917C7.94332 77.8709 7.6705 78.0249 7.44832 78.2391L7.46059 78.2453Z" fill="white"/>
<path d="M12.1108 77.8788C12.0469 78.2262 12.0366 78.5814 12.0801 78.932C12.1051 79.1787 12.1985 79.4134 12.3498 79.6094C12.5011 79.8054 12.7041 79.9548 12.9358 80.0406C13.0414 80.0698 13.1516 80.0777 13.2602 80.0637C13.3688 80.0497 13.4735 80.0142 13.5683 79.9591C13.6631 79.9041 13.746 79.8307 13.8122 79.7432C13.8784 79.6556 13.9267 79.5558 13.9541 79.4493C13.9922 79.2446 13.9828 79.0339 13.9265 78.8334C13.908 78.7657 13.8528 78.4239 13.8804 78.6856C13.8498 78.4146 13.7854 78.1498 13.7486 77.8788C13.6382 77.0628 12.2151 77.0597 12.1108 77.8788V77.8788Z" fill="white"/>
<path d="M42.9861 72.5606C47.6326 72.0525 47.7737 66.8298 43.2223 65.9244C40.6153 65.4071 34.0827 66.6789 35.6867 70.3311C36.7111 72.6746 40.8116 72.8008 42.9861 72.5606Z" fill="#F6954D"/>
</g>
<defs>
<clipPath id="clip0">
<rect width="92" height="98" fill="white"/>
</clipPath>
</defs>
</svg>
