<svg width="86" height="58" viewBox="0 0 86 71" fill="none" xmlns="http://www.w3.org/2000/svg">
<g clip-path="url(#clip0)">
<path fill-rule="evenodd" clip-rule="evenodd" d="M0.352915 62.4111C0.0917493 63.6198 -0.0268535 64.8573 -0.000248216 66.0961C-0.000248216 67.1302 6.00818 65.3242 6.00818 65.3242C4.4271 63.8102 2.46507 62.7996 0.352915 62.4111V62.4111Z" fill="#B3651D"/>
<path fill-rule="evenodd" clip-rule="evenodd" d="M85.6565 62.4111C85.917 63.6247 86.0325 64.8674 86.0004 66.1107C86.0004 67.1448 80.0059 65.3242 80.0059 65.3242C81.5857 63.8111 83.546 62.8005 85.6565 62.4111Z" fill="#B3651D"/>
<path d="M84.3271 64.4355H1.67288C0.748974 64.4355 0 65.2181 0 66.1834V69.2517C0 70.217 0.748974 70.9995 1.67288 70.9995H84.3271C85.251 70.9995 86 70.217 86 69.2517V66.1834C86 65.2181 85.251 64.4355 84.3271 64.4355Z" fill="#7A3C01"/>
<path fill-rule="evenodd" clip-rule="evenodd" d="M73.1463 34.0771H12.8529L0.352773 62.4111C0.00890311 63.1879 1.15668 64.4357 2.41599 64.4357H83.5879C84.8425 64.4357 85.9903 63.1879 85.6464 62.4111L73.1463 34.0771Z" fill="#9E4E03"/>
<path fill-rule="evenodd" clip-rule="evenodd" d="M9.29366 31.203L42.5422 12.2684C43.8619 11.4818 45.5069 10.9187 47.045 11.71L72.2358 20.3908C73.6299 21.0511 74.6568 22.3037 74.6382 23.4592V38.7283C74.6261 39.161 74.5104 39.5836 74.3018 39.9575C74.0932 40.3315 73.7983 40.645 73.444 40.8694L39.057 60.4643C38.1968 60.9713 37.1801 61.1039 36.227 60.8332L8.99161 51.463C8.63559 51.2931 8.33402 51.0195 8.12303 50.6751C7.91204 50.3307 7.80058 49.93 7.80201 49.521V33.9849C7.80201 32.7809 7.74625 32.0817 9.29366 31.203Z" fill="#F4F5E7"/>
<path fill-rule="evenodd" clip-rule="evenodd" d="M25.2378 36.5874C24.1271 36.9903 23.3558 36.1698 24.5128 35.796C25.6699 35.4222 25.8558 34.5191 26.6504 35.4853C27.445 36.4514 28.0445 36.1747 28.7833 36.1261C29.5222 36.0776 29.0947 36.5679 28.2582 36.869C27.4218 37.17 27.0175 37.8934 26.5435 37.3545C26.0695 36.8156 25.8558 36.364 25.2378 36.5874Z" fill="#EFE8BE"/>
<path fill-rule="evenodd" clip-rule="evenodd" d="M25.2927 36.3008C24.5584 36.4561 24.1356 35.8687 24.8977 35.7376C25.6598 35.6065 25.827 35.0482 26.2917 35.7376C26.7564 36.427 27.486 36.3202 27.9553 36.3542C28.4247 36.3881 28.118 36.66 27.565 36.7765C27.012 36.8931 26.7007 37.3155 26.4451 36.9173C26.3292 36.7105 26.1592 36.5426 25.955 36.4333C25.7508 36.3241 25.521 36.2781 25.2927 36.3008V36.3008Z" fill="#E3DBAE"/>
<path fill-rule="evenodd" clip-rule="evenodd" d="M11.2967 34.1745C20.9808 37.0196 21.7801 38.7334 34.4428 42.0057C35.7951 42.3552 37.0776 42.6757 37.0776 45.176C37.0776 49.9874 37.1102 54.0801 37.2914 58.7118C37.3286 59.7168 37.849 61.3384 34.9679 60.382C26.7522 57.6486 18.4157 54.42 10.3394 51.9197C7.39794 51.0118 7.86263 50.1476 7.79758 47.7929C7.66282 43.0738 7.82081 38.8159 7.82081 34.0968C7.80222 31.8392 9.3357 33.6016 11.2967 34.1745Z" fill="#E3DBAE"/>
<path fill-rule="evenodd" clip-rule="evenodd" d="M71.0557 23.7898C60.958 30.2955 53.4905 33.4028 41.3156 40.996C38.6994 42.6322 37.5981 41.6514 37.5981 44.749V57.8915C37.5981 60.4938 37.4959 61.1978 40.3862 59.5374C51.1391 53.4055 61.8549 47.5018 72.6124 41.3893C74.8847 40.0978 74.6013 39.2531 74.5781 36.5342C74.5362 32.3055 74.4247 30.0139 74.4247 25.5473C74.4433 21.7361 72.9563 22.5809 71.0557 23.7898Z" fill="#EFE8BE"/>
<path fill-rule="evenodd" clip-rule="evenodd" d="M42.0025 44.0398C42.6252 43.6563 44.549 43.4281 44.7163 44.4865C44.8836 45.5449 45.4645 46.7732 44.5165 46.7052C43.5685 46.6372 44.0518 45.6128 43.3083 45.2002C42.5648 44.7875 40.5388 44.9477 42.0025 44.0398Z" fill="#E3DBAE"/>
<path fill-rule="evenodd" clip-rule="evenodd" d="M42.7517 44.2338C43.156 43.9814 44.42 43.8309 44.5268 44.5251C44.6337 45.2194 44.9915 46.0205 44.3967 45.9817C43.8019 45.9428 44.0993 45.268 43.6067 45.0106C43.1142 44.7533 41.7898 44.8262 42.7517 44.2338Z" fill="#D1C78E"/>
<path fill-rule="evenodd" clip-rule="evenodd" d="M48.3 40.7334C48.8809 41.4422 49.8149 41.4665 50.5909 40.5392C51.367 39.6119 51.5203 39.4954 50.5166 40.0537C49.5129 40.612 47.3613 39.5876 48.3 40.7334Z" fill="#E3DBAE"/>
<path fill-rule="evenodd" clip-rule="evenodd" d="M49.1871 40.6169C49.5031 41.0053 50.0049 41.015 50.4278 40.5149C50.8507 40.0149 50.925 39.9518 50.386 40.2431C49.847 40.5344 48.6806 40.0003 49.1871 40.6169Z" fill="#D1C78E"/>
<path fill-rule="evenodd" clip-rule="evenodd" d="M53.695 43.5107C52.9887 43.9185 52.1523 44.6419 51.4692 44.6225C50.7861 44.6031 50.6513 45.2002 49.9078 45.477C49.1643 45.7537 48.8808 46.448 49.9822 46.1955C51.0835 45.9431 53.235 46.681 53.0491 45.5595C52.8632 44.438 53.5603 44.4234 54.3781 44.0447C55.196 43.666 55.182 42.6465 53.695 43.5107Z" fill="#E3DBAE"/>
<path fill-rule="evenodd" clip-rule="evenodd" d="M53.2906 43.9282C52.8259 44.1855 52.3334 44.6321 51.8966 44.6224C51.4598 44.6127 51.39 44.9817 50.9254 45.1516C50.4607 45.3216 50.2887 45.7682 50.9765 45.5983C51.6642 45.4284 52.9839 45.8944 52.8771 45.2002C52.7702 44.5059 53.1977 44.4962 53.7042 44.2632C54.2107 44.0301 54.2107 43.3941 53.2906 43.9282Z" fill="#D1C78E"/>
<path fill-rule="evenodd" clip-rule="evenodd" d="M56.9007 37.1556C57.7046 38.3014 57.5048 37.6945 59.1405 36.6167C60.7762 35.5388 59.647 35.5291 58.7129 36.0243C57.7789 36.5196 55.8319 35.6165 56.9007 37.1556Z" fill="#E3DBAE"/>
<path fill-rule="evenodd" clip-rule="evenodd" d="M57.7744 36.7962C58.2391 37.4419 58.1136 37.0972 59.0337 36.4903C59.9538 35.8835 59.3218 35.8786 58.7967 36.1602C58.2716 36.4418 57.1563 35.9272 57.7744 36.7962Z" fill="#D1C78E"/>
<path fill-rule="evenodd" clip-rule="evenodd" d="M60.3442 45.326C61.3247 44.6512 62.268 45.2483 61.2317 45.9086C60.1955 46.5689 60.2327 47.4914 59.2336 46.7583C58.2345 46.0251 57.7187 46.4475 57.017 46.6806C56.3153 46.9136 56.6081 46.331 57.3469 45.8309C58.0858 45.3309 58.3088 44.5152 58.9036 44.9425C59.4984 45.3697 59.7958 45.7047 60.3442 45.326Z" fill="#E3DBAE"/>
<path fill-rule="evenodd" clip-rule="evenodd" d="M60.3585 45.6369C61.0323 45.297 61.576 45.7582 60.8697 46.0835C60.1633 46.4088 60.1122 46.9914 59.5406 46.4428C58.9691 45.8942 58.2488 46.1806 57.7888 46.2632C57.3287 46.3457 57.5564 46.0107 58.0676 45.7777C58.5787 45.5446 58.7786 45.0348 59.1178 45.3553C59.2792 45.5179 59.4808 45.6303 59.6999 45.6801C59.919 45.7298 60.1471 45.7148 60.3585 45.6369Z" fill="#D1C78E"/>
<path fill-rule="evenodd" clip-rule="evenodd" d="M61.6967 40.7821C61.376 40.5103 60.8742 39.4713 61.39 39.1703C61.9058 38.8693 62.4169 38.2964 62.5703 38.8401C62.7236 39.3839 62.1056 39.3256 62.0359 39.8111C61.9662 40.2966 62.4541 41.4084 61.6967 40.7821Z" fill="#E3DBAE"/>
<path fill-rule="evenodd" clip-rule="evenodd" d="M61.6502 40.2965C61.4411 40.1217 61.1111 39.442 61.4457 39.2429C61.7803 39.0439 62.1195 38.67 62.2171 39.0293C62.3147 39.3886 61.9104 39.34 61.8686 39.6653C61.8268 39.9906 62.1474 40.7334 61.6502 40.2965Z" fill="#D1C78E"/>
<path fill-rule="evenodd" clip-rule="evenodd" d="M69.2389 37.9708C69.3086 37.0387 68.6627 36.3347 67.487 36.4172C66.3114 36.4998 66.1255 36.4706 67.1989 36.825C68.2724 37.1795 69.1274 39.471 69.2389 37.9708Z" fill="#E3DBAE"/>
<path fill-rule="evenodd" clip-rule="evenodd" d="M68.9322 37.442C68.9694 36.9565 68.6162 36.5536 68.0028 36.6021C67.3894 36.6507 67.264 36.6312 67.8448 36.8206C68.4257 37.0099 68.8718 38.2528 68.9322 37.442Z" fill="#D1C78E"/>
<path fill-rule="evenodd" clip-rule="evenodd" d="M70.0237 31.2758C70.0563 30.7514 69.8936 30.0183 70.2747 29.7124C70.6557 29.4066 70.2235 29.057 70.3862 28.5812C70.5488 28.1054 70.0981 27.6102 69.7496 28.2608C69.401 28.9114 67.6399 29.5085 68.6575 29.9746C69.6752 30.4407 69.3313 30.766 69.2152 31.3292C69.099 31.8924 69.9587 32.3827 70.0237 31.2758Z" fill="#E3DBAE"/>
<path fill-rule="evenodd" clip-rule="evenodd" d="M69.9403 30.426C69.9403 30.1008 69.8567 29.6395 70.0937 29.455C70.3307 29.2705 70.0612 29.0424 70.1634 28.7511C70.2656 28.4598 69.9868 28.1539 69.7684 28.552C69.55 28.9501 68.458 29.324 69.0899 29.6153C69.7219 29.9066 69.5082 30.1008 69.4385 30.4552C69.3688 30.8096 69.8985 31.1106 69.9403 30.426Z" fill="#D1C78E"/>
<path fill-rule="evenodd" clip-rule="evenodd" d="M41.7292 54.3081C41.9429 54.677 42.0684 55.8325 41.4875 55.9296C40.9067 56.0267 40.2329 56.3763 40.27 55.8083C40.3072 55.2402 40.8695 55.5364 41.0925 55.0897C41.3156 54.6431 41.2366 53.4293 41.7292 54.3081Z" fill="#E3DBAE"/>
<path fill-rule="evenodd" clip-rule="evenodd" d="M41.6265 54.7497C41.7612 54.9925 41.8449 55.7499 41.4638 55.813C41.0828 55.8761 40.6413 56.1043 40.6692 55.7353C40.6971 55.3663 41.0596 55.5557 41.2083 55.2498C41.357 54.9439 41.3012 54.1768 41.6265 54.7497Z" fill="#D1C78E"/>
<path fill-rule="evenodd" clip-rule="evenodd" d="M12.5745 42.0834C12.2539 41.8115 11.7567 40.7773 12.2678 40.4763C12.779 40.1753 13.2948 39.5976 13.4481 40.1413C13.6015 40.6851 12.9834 40.6268 12.9137 41.1123C12.844 41.5978 13.332 42.7242 12.5745 42.0834Z" fill="#D1C78E"/>
<path fill-rule="evenodd" clip-rule="evenodd" d="M12.5467 41.6317C12.3376 41.4521 12.0076 40.7724 12.3422 40.5782C12.6768 40.384 13.016 40.0053 13.1182 40.3597C13.2205 40.7141 12.8069 40.6704 12.7697 41.0006C12.7325 41.3307 13.0114 42.0492 12.5467 41.6317Z" fill="#C4B97C"/>
<path fill-rule="evenodd" clip-rule="evenodd" d="M15.1257 48.6811C15.0003 49.4239 13.9175 51.1086 13.0439 50.5454C12.1703 49.9822 10.8878 49.6618 11.5523 48.953C12.2168 48.2441 12.6443 49.2977 13.411 48.953C14.1778 48.6083 15.4138 46.9284 15.1257 48.6811Z" fill="#D1C78E"/>
<path fill-rule="evenodd" clip-rule="evenodd" d="M14.5024 49.1423C14.4234 49.6278 13.7124 50.7299 13.1409 50.3658C12.5693 50.0016 11.7468 49.788 12.165 49.3219C12.5832 48.8558 12.8806 49.5501 13.3965 49.3219C13.9123 49.0937 14.6929 47.9965 14.5024 49.1423Z" fill="#C4B97C"/>
<path fill-rule="evenodd" clip-rule="evenodd" d="M30.6221 54.5996C31.2309 55.1531 32.1603 55.7357 32.374 56.4154C32.5878 57.0951 33.1686 57.0272 33.6658 57.668C34.1631 58.3089 34.9066 58.3477 34.2839 57.3524C33.6612 56.3572 33.6333 54.0073 32.6853 54.5511C31.7374 55.0949 31.4911 54.4249 30.8777 53.7452C30.2643 53.0654 29.3442 53.4053 30.6221 54.5996Z" fill="#D1C78E"/>
<path fill-rule="evenodd" clip-rule="evenodd" d="M31.1341 54.8617C31.5105 55.2064 32.0913 55.5657 32.2214 55.9929C32.3516 56.4202 32.714 56.3716 33.0254 56.7649C33.3367 57.1582 33.7967 57.1873 33.4111 56.5707C33.0254 55.9541 33.0021 54.4927 32.4166 54.8326C31.8311 55.1724 31.6731 54.7501 31.2921 54.3471C30.911 53.9441 30.3441 54.1286 31.1341 54.8617Z" fill="#C4B97C"/>
<path fill-rule="evenodd" clip-rule="evenodd" d="M28.5974 47.9677C29.5547 46.9579 29.011 47.2589 27.7331 45.7441C26.4552 44.2294 26.6225 45.3994 27.2405 46.2782C27.8585 47.1569 27.3149 49.3174 28.5974 47.9677Z" fill="#D1C78E"/>
<path fill-rule="evenodd" clip-rule="evenodd" d="M28.1186 47.1229C28.6576 46.5549 28.3509 46.7248 27.6539 45.8752C26.9569 45.0255 27.0312 45.6761 27.3797 46.1713C27.7282 46.6665 27.4169 47.8851 28.1186 47.1229Z" fill="#C4B97C"/>
<path fill-rule="evenodd" clip-rule="evenodd" d="M17.2255 42.287C17.5183 42.7142 18.0898 43.1754 17.9783 43.661C17.8668 44.1465 18.4151 44.1465 18.5778 44.632C18.7404 45.1175 19.3817 45.1854 19.2655 44.4572C19.1493 43.7289 20.1438 42.1025 19.0703 42.4132C17.9969 42.7239 18.0666 42.2433 17.8203 41.7335C17.574 41.2237 16.6028 41.3888 17.2255 42.287Z" fill="#D1C78E"/>
<path fill-rule="evenodd" clip-rule="evenodd" d="M17.807 42.8891C17.9882 43.1561 18.346 43.4426 18.2717 43.7436C18.1973 44.0446 18.5412 44.0398 18.6434 44.3359C18.7456 44.6321 19.1406 44.6806 19.0709 44.2291C19.0012 43.7776 19.6146 42.7726 18.9501 42.9571C18.2856 43.1416 18.3274 42.8503 18.1741 42.5347C18.0207 42.2191 17.4213 42.3308 17.807 42.8891Z" fill="#C4B97C"/>
<path fill-rule="evenodd" clip-rule="evenodd" d="M21.4916 48.5501C21.7007 48.924 21.8262 50.0746 21.2453 50.1717C20.6645 50.2688 19.9907 50.6232 20.0278 50.0552C20.065 49.4872 20.6273 49.7833 20.855 49.3318C21.0827 48.8803 20.9944 47.6859 21.4916 48.5501Z" fill="#D1C78E"/>
<path fill-rule="evenodd" clip-rule="evenodd" d="M21.3751 49.0066C21.5145 49.2542 21.5935 50.0067 21.2171 50.0698C20.8407 50.1329 20.3946 50.366 20.4179 49.9921C20.4411 49.6183 20.8128 49.8125 20.9569 49.5066C21.101 49.2008 21.0591 48.4337 21.3751 49.0066Z" fill="#C4B97C"/>
<path fill-rule="evenodd" clip-rule="evenodd" d="M15.4177 33.3245C15.362 34.7421 15.5711 34.1353 17.4903 34.3586C19.4094 34.5819 18.5358 33.8342 17.4903 33.6158C16.4447 33.3973 15.4967 31.4213 15.4177 33.3245Z" fill="#EFE8BE"/>
<path fill-rule="evenodd" clip-rule="evenodd" d="M15.7995 33.388C15.767 34.1843 15.8831 33.8444 16.9659 33.9658C18.0486 34.0872 17.5514 33.6745 16.9659 33.5531C16.3804 33.4317 15.832 32.3151 15.7995 33.388Z" fill="#E3DBAE"/>
<path fill-rule="evenodd" clip-rule="evenodd" d="M70.0938 12.6229L43.5089 0.655217C42.1846 0.0289174 40.5396 -0.359485 39.0014 0.48529L13.806 10.5109C12.4119 11.2295 11.385 12.4529 11.4036 13.5405V27.7026C11.4128 28.1059 11.5294 28.4986 11.7404 28.8365C11.9513 29.1744 12.2483 29.4441 12.5978 29.6155L40.3212 42.0589C41.2156 42.4655 42.2231 42.5088 43.1465 42.1803L70.3958 31.3439C70.7361 31.1707 71.0245 30.9037 71.2301 30.5717C71.4356 30.2397 71.5505 29.8553 71.5622 29.4601V15.0504C71.5622 13.9483 71.6412 13.2977 70.0938 12.6229Z" fill="#FBFCF4"/>
<path fill-rule="evenodd" clip-rule="evenodd" d="M68.0905 15.536C58.4064 18.9345 57.6211 20.5609 44.9444 24.5906C43.5875 25.0227 42.3096 25.4208 42.3096 27.7318C42.3096 32.1936 42.2771 35.9854 42.0958 40.2966C42.054 41.2288 41.5382 42.7776 44.4193 41.6609C52.635 38.4809 60.9715 34.8639 69.0478 31.8829C71.9893 30.8099 71.5246 30.0477 71.5896 27.858C71.7198 23.4885 71.5618 19.5414 71.5618 15.167C71.5618 13.0745 70.0469 14.8271 68.0905 15.536Z" fill="#FCF6D6"/>
<path fill-rule="evenodd" clip-rule="evenodd" d="M14.9856 13.5939C25.0926 18.8179 25.8965 18.1188 38.0714 24.2022C40.6876 25.513 41.7889 24.5177 41.7889 27.3871V39.5683C41.7889 41.9959 41.8865 42.627 39.0008 41.3162C28.2479 36.4611 24.1865 34.8347 13.4429 30.0185C11.1705 28.9989 11.454 28.193 11.4772 25.683C11.5191 21.7601 11.6306 19.6336 11.6306 15.4874C11.6166 11.9335 13.0897 12.6229 14.9856 13.5939Z" fill="#EFE8BE"/>
<path fill-rule="evenodd" clip-rule="evenodd" d="M37.3795 27.0714C36.7615 26.7607 34.8516 26.7025 34.6704 27.6735C34.4892 28.6445 33.9223 29.8728 34.8516 29.7368C35.781 29.6009 35.3163 28.6882 36.0598 28.2512C36.8033 27.8143 38.8433 27.7948 37.3795 27.0714Z" fill="#D1C78E"/>
<path fill-rule="evenodd" clip-rule="evenodd" d="M36.6407 27.3094C36.2318 27.1055 34.9725 27.0667 34.8656 27.7173C34.7587 28.3678 34.387 29.1301 34.9957 29.0524C35.6045 28.9747 35.2931 28.363 35.7857 28.0814C36.2783 27.7998 37.598 27.7804 36.6407 27.3094Z" fill="#C4B97C"/>
<path fill-rule="evenodd" clip-rule="evenodd" d="M31.0875 24.4984C30.9484 24.6753 30.7736 24.8177 30.5755 24.9155C30.3775 25.0134 30.1611 25.0641 29.942 25.0641C29.723 25.0641 29.5066 25.0134 29.3085 24.9155C29.1105 24.8177 28.9356 24.6753 28.7966 24.4984C28.0205 23.7022 27.8672 23.6051 28.8709 24.0129C29.8747 24.4207 32.0215 23.3672 31.0875 24.4984Z" fill="#D1C78E"/>
<path fill-rule="evenodd" clip-rule="evenodd" d="M30.2047 24.4644C30.1293 24.56 30.0346 24.637 29.9273 24.6898C29.8201 24.7427 29.7029 24.7701 29.5844 24.7701C29.4658 24.7701 29.3487 24.7427 29.2414 24.6898C29.1341 24.637 29.0394 24.56 28.964 24.4644C28.5458 24.0323 28.4621 23.9789 29.0058 24.207C29.5495 24.4352 30.7019 23.8478 30.2047 24.4644Z" fill="#C4B97C"/>
<path fill-rule="evenodd" clip-rule="evenodd" d="M18.7593 25.168C19.0707 24.7796 19.5726 24.3281 19.633 23.9252C19.6934 23.5222 20.0465 23.4736 20.2835 23.0512C20.5205 22.6289 20.962 22.5026 20.6832 23.1338C20.4043 23.7649 20.6181 25.0758 20.0001 24.901C19.382 24.7262 19.2984 25.1389 18.9963 25.6001C18.6943 26.0614 18.1227 25.9983 18.7593 25.168Z" fill="#D1C78E"/>
<path fill-rule="evenodd" clip-rule="evenodd" d="M19.0518 24.9548C19.2423 24.7121 19.5537 24.4305 19.5955 24.1829C19.6373 23.9352 19.8511 23.9013 19.9998 23.6391C20.1485 23.3769 20.418 23.2992 20.2461 23.6925C20.0741 24.0858 20.2043 24.8868 19.8232 24.7849C19.4422 24.6829 19.3864 24.9354 19.2005 25.2218C19.0147 25.5083 18.6383 25.4694 19.0518 24.9548Z" fill="#C4B97C"/>
<path fill-rule="evenodd" clip-rule="evenodd" d="M18.2157 20.0901C17.4165 21.2214 17.6116 20.6388 15.9806 19.7697C14.3495 18.9007 15.4741 18.7987 16.4034 19.1871C17.3328 19.5755 19.2845 18.5802 18.2157 20.0901Z" fill="#D1C78E"/>
<path fill-rule="evenodd" clip-rule="evenodd" d="M17.3422 19.8277C16.8775 20.4637 17.003 20.1384 16.0829 19.648C15.1628 19.1577 15.7994 19.0994 16.3199 19.3179C16.8403 19.5364 17.9463 18.978 17.3422 19.8277Z" fill="#C4B97C"/>
<path fill-rule="evenodd" clip-rule="evenodd" d="M19.0523 29.7031C18.0718 29.1545 17.1285 29.7808 18.1648 30.31C19.201 30.8392 19.1638 31.6985 20.1629 30.9412C21.162 30.1838 21.6778 30.5333 22.3795 30.6936C23.0812 30.8538 22.7838 30.3391 22.0449 29.9313C21.3061 29.5235 21.083 28.7904 20.4928 29.2322C19.9027 29.674 19.5867 30.009 19.0523 29.7031Z" fill="#D1C78E"/>
<path fill-rule="evenodd" clip-rule="evenodd" d="M19.0518 29.9747C18.378 29.7125 17.8297 30.1835 18.536 30.4262C19.2423 30.669 19.2981 31.2127 19.865 30.6544C20.4319 30.0961 21.1615 30.3097 21.6215 30.3534C22.0816 30.3971 21.8492 30.1009 21.3427 29.9067C20.8362 29.7125 20.6271 29.2707 20.2925 29.596C20.1332 29.7635 19.9358 29.886 19.7188 29.9522C19.5019 30.0185 19.2724 30.0262 19.0518 29.9747Z" fill="#C4B97C"/>
<path fill-rule="evenodd" clip-rule="evenodd" d="M31.2361 33.014C31.5567 32.7373 32.0586 31.7371 31.5475 31.4944C31.0363 31.2516 30.5205 30.7661 30.3671 31.2808C30.2138 31.7954 30.8318 31.6837 30.8969 32.145C30.9619 32.6062 30.4787 33.6791 31.2361 33.014Z" fill="#D1C78E"/>
<path fill-rule="evenodd" clip-rule="evenodd" d="M31.2869 32.5967C31.496 32.417 31.8213 31.7616 31.4867 31.6257C31.1521 31.4897 30.8129 31.1402 30.7153 31.4849C30.6178 31.8296 31.022 31.747 31.0639 32.0481C31.1057 32.3491 30.7897 33.0142 31.2869 32.5967Z" fill="#C4B97C"/>
<path fill-rule="evenodd" clip-rule="evenodd" d="M37.6397 36.5629C37.4306 36.9271 37.3051 38.0195 37.886 38.0486C38.4669 38.0777 39.1407 38.3642 39.1035 37.8447C39.0663 37.3252 38.504 37.6359 38.2763 37.2378C38.0486 36.8397 38.1509 35.7133 37.6397 36.5629Z" fill="#D1C78E"/>
<path fill-rule="evenodd" clip-rule="evenodd" d="M37.7601 36.9658C37.6207 37.2037 37.5417 37.9077 37.9181 37.9369C38.2945 37.966 38.7406 38.1456 38.7174 37.8058C38.6941 37.4659 38.3224 37.6698 38.1783 37.4077C38.0343 37.1455 38.104 36.4124 37.7601 36.9658Z" fill="#C4B97C"/>
<path fill-rule="evenodd" clip-rule="evenodd" d="M66.8084 22.9449C67.129 22.6681 67.6309 21.668 67.1197 21.4301C66.6086 21.1922 66.0927 20.697 65.9394 21.2165C65.7861 21.736 66.4041 21.6194 66.4738 22.0807C66.5435 22.5419 66.0509 23.6003 66.8084 22.9449Z" fill="#E3DBAE"/>
<path fill-rule="evenodd" clip-rule="evenodd" d="M66.8594 22.5225C67.0685 22.338 67.3938 21.6874 67.0592 21.5515C66.7246 21.4155 66.3901 21.0659 66.2878 21.4107C66.1856 21.7554 66.5945 21.6777 66.6364 21.9787C66.6782 22.2797 66.3622 22.9497 66.8594 22.5225Z" fill="#D1C78E"/>
<path fill-rule="evenodd" clip-rule="evenodd" d="M44.9909 35.1308C45.1164 35.8105 46.1991 37.2816 47.0728 36.699C47.9464 36.1164 49.2289 35.728 48.5644 35.1017C47.8999 34.4754 47.4724 35.5095 46.7057 35.2619C45.9389 35.0143 44.7028 33.5287 44.9909 35.1308Z" fill="#E3DBAE"/>
<path fill-rule="evenodd" clip-rule="evenodd" d="M45.6143 35.5141C45.6933 35.9559 46.4043 36.9221 46.9758 36.5385C47.5474 36.155 48.3699 35.8928 47.9517 35.4947C47.5335 35.0966 47.2361 35.7617 46.7202 35.5967C46.2044 35.4316 45.4238 34.4703 45.6143 35.5141Z" fill="#D1C78E"/>
<path fill-rule="evenodd" clip-rule="evenodd" d="M68.4116 27.8918C67.8075 28.4598 66.8734 29.0716 66.6643 29.7173C66.4552 30.363 65.8697 30.3485 65.3678 30.9796C64.866 31.6108 64.1271 31.703 64.7498 30.7369C65.3725 29.7707 65.4004 27.5859 66.3483 28.0132C67.2963 28.4404 67.5426 27.7996 68.156 27.1247C68.7694 26.4499 69.7034 26.7023 68.4116 27.8918Z" fill="#E3DBAE"/>
<path fill-rule="evenodd" clip-rule="evenodd" d="M67.8952 28.1589C67.5188 28.5085 66.9426 28.892 66.8078 29.2901C66.673 29.6882 66.3152 29.6834 66.0085 30.0766C65.7018 30.4699 65.2372 30.5282 65.6228 29.9261C66.0085 29.3241 66.0271 27.9841 66.6173 28.2317C67.2074 28.4793 67.3561 28.1006 67.7372 27.6831C68.1182 27.2656 68.6898 27.4355 67.8952 28.1589Z" fill="#D1C78E"/>
<path fill-rule="evenodd" clip-rule="evenodd" d="M56.6913 26.6684C55.734 25.809 56.2777 26.0469 57.5602 24.5419C58.8428 23.0368 58.6662 24.1341 58.0249 24.9983C57.3837 25.8624 57.9878 27.819 56.6913 26.6684Z" fill="#E3DBAE"/>
<path fill-rule="evenodd" clip-rule="evenodd" d="M57.18 25.8528C56.641 25.3673 56.9476 25.4983 57.6447 24.6536C58.3417 23.8088 58.2674 24.4205 57.9235 24.9109C57.5796 25.4012 57.9049 26.4985 57.18 25.8528Z" fill="#D1C78E"/>
<path fill-rule="evenodd" clip-rule="evenodd" d="M51.8035 27.7559C51.5108 28.1735 50.9392 28.6493 51.0461 29.0911C51.153 29.5329 50.6139 29.5766 50.4466 30.0232C50.2793 30.4699 49.6474 30.5961 49.7635 29.9116C49.8797 29.227 48.8853 27.7996 49.9587 27.9987C51.0321 28.1978 50.9578 27.7657 51.2041 27.2753C51.4504 26.7849 52.4216 26.8772 51.8035 27.7559Z" fill="#E3DBAE"/>
<path fill-rule="evenodd" clip-rule="evenodd" d="M51.2183 28.3632C51.0371 28.6205 50.6839 28.9167 50.7536 29.1934C50.8233 29.4701 50.4841 29.4895 50.3819 29.7663C50.2796 30.043 49.8847 30.1256 49.959 29.7032C50.0334 29.2808 49.4107 28.3875 50.0798 28.5137C50.749 28.6399 50.6979 28.368 50.8559 28.0622C51.0139 27.7563 51.604 27.8146 51.2183 28.3632Z" fill="#D1C78E"/>
<path fill-rule="evenodd" clip-rule="evenodd" d="M55.6553 30.4508C55.4462 30.8149 55.3208 31.9073 55.9016 31.9364C56.4825 31.9655 57.1563 32.2568 57.1191 31.7325C57.0819 31.2081 56.5197 31.5237 56.292 31.1256C56.0643 30.7275 56.1526 29.6157 55.6553 30.4508Z" fill="#E3DBAE"/>
<path fill-rule="evenodd" clip-rule="evenodd" d="M55.763 30.8534C55.6236 31.0913 55.5446 31.8244 55.921 31.8244C56.2974 31.8244 56.7435 32.0283 56.7203 31.6885C56.6971 31.3486 56.3253 31.5525 56.1813 31.2903C56.0372 31.0282 56.0883 30.2999 55.763 30.8534Z" fill="#D1C78E"/>
<path fill-rule="evenodd" clip-rule="evenodd" d="M59.5869 14.0794C58.8806 14.4921 58.0442 15.2106 57.3611 15.1912C56.678 15.1718 56.5432 15.7689 55.7997 16.0457C55.0562 16.3224 54.7727 17.041 55.8787 16.7642C56.9847 16.4875 59.1315 17.2497 58.941 16.1282C58.7505 15.0067 59.4522 14.9921 60.27 14.6183C61.0879 14.2445 61.0739 13.1958 59.5869 14.0794Z" fill="#EFE8BE"/>
<path fill-rule="evenodd" clip-rule="evenodd" d="M59.1824 14.4823C58.7177 14.7348 58.2251 15.1863 57.7883 15.1718C57.3515 15.1572 57.2818 15.531 56.8217 15.7058C56.3617 15.8806 56.1805 16.3224 56.8682 16.1476C57.5559 15.9728 58.8757 16.4438 58.7688 15.7544C58.6619 15.065 59.0894 15.0504 59.5959 14.8125C60.1024 14.5746 60.1024 13.9434 59.1824 14.4823Z" fill="#E3DBAE"/>
<path fill-rule="evenodd" clip-rule="evenodd" d="M40.0146 5.89873C38.9783 6.47648 38.0954 5.79192 39.1828 5.23845C40.2702 4.68497 40.3166 3.78194 41.246 4.58787C42.1754 5.39381 42.7284 5.03939 43.4486 4.87918C44.1689 4.71896 43.8204 5.26758 43.0397 5.69482C42.259 6.12206 41.9663 6.90858 41.418 6.42793C40.8696 5.94728 40.5908 5.5783 40.0146 5.89873Z" fill="#EFE8BE"/>
<path fill-rule="evenodd" clip-rule="evenodd" d="M40.0233 5.61224C39.3262 5.88413 38.8244 5.36949 39.5586 5.12674C40.2928 4.88399 40.395 4.29653 40.9155 4.89855C41.4359 5.50058 42.1794 5.2821 42.6488 5.24326C43.1181 5.20442 42.8532 5.52485 42.3235 5.72876C41.7937 5.93268 41.5474 6.39876 41.2361 6.04434C41.0938 5.85983 40.9043 5.72128 40.6896 5.64479C40.4749 5.56831 40.2438 5.55702 40.0233 5.61224V5.61224Z" fill="#E3DBAE"/>
<path fill-rule="evenodd" clip-rule="evenodd" d="M50.9765 9.83585C50.6559 9.56397 50.154 8.52499 50.6652 8.22398C51.1764 7.92297 51.6968 7.35008 51.8502 7.89384C52.0035 8.4376 51.3855 8.37934 51.3158 8.86485C51.2461 9.35035 51.734 10.4767 50.9765 9.83585Z" fill="#EFE8BE"/>
<path fill-rule="evenodd" clip-rule="evenodd" d="M50.9294 9.37949C50.7157 9.2047 50.3904 8.525 50.725 8.32594C51.0595 8.12689 51.3987 7.75305 51.4963 8.11232C51.5939 8.4716 51.1896 8.41819 51.1478 8.74833C51.106 9.07847 51.422 9.80187 50.9294 9.37949Z" fill="#E3DBAE"/>
<path fill-rule="evenodd" clip-rule="evenodd" d="M26.4547 11.1665C27.0774 10.7829 29.0012 10.5499 29.1685 11.6083C29.3357 12.6667 29.9166 13.895 28.9686 13.827C28.0207 13.7591 28.504 12.7346 27.7605 12.3268C27.0169 11.919 24.9909 12.0889 26.4547 11.1665Z" fill="#EFE8BE"/>
<path fill-rule="evenodd" clip-rule="evenodd" d="M27.198 11.3704C27.6023 11.1227 28.8662 10.9722 28.9731 11.6617C29.08 12.3511 29.4378 13.157 28.843 13.1182C28.2482 13.0793 28.5456 12.4045 28.053 12.1472C27.5605 11.8898 26.2407 11.9675 27.198 11.3704Z" fill="#E3DBAE"/>
<path fill-rule="evenodd" clip-rule="evenodd" d="M44.1453 13.3996C45.1026 12.3897 44.5589 12.6908 43.281 11.1808C42.0031 9.67093 42.175 10.8313 42.7884 11.71C43.4018 12.5888 42.8628 14.7493 44.1453 13.3996Z" fill="#EFE8BE"/>
<path fill-rule="evenodd" clip-rule="evenodd" d="M43.6801 12.555C44.2191 11.987 43.9125 12.1569 43.2154 11.3073C42.5184 10.4577 42.5927 11.1082 42.9413 11.6034C43.2898 12.0987 42.9459 13.3173 43.6801 12.555Z" fill="#E3DBAE"/>
<path fill-rule="evenodd" clip-rule="evenodd" d="M35.6882 12.3071C35.1166 13.5937 35.5302 13.1082 37.2263 14.0792C38.9224 15.0502 38.3834 14.0161 37.5191 13.4043C36.6547 12.7926 36.4596 10.5787 35.6882 12.3071Z" fill="#EFE8BE"/>
<path fill-rule="evenodd" clip-rule="evenodd" d="M36.413 12.9286C36.0923 13.6569 36.3247 13.385 37.2773 13.9336C38.2299 14.4822 37.9278 13.8948 37.4446 13.5501C36.9613 13.2054 36.8451 11.9576 36.413 12.9286Z" fill="#E3DBAE"/>
<path fill-rule="evenodd" clip-rule="evenodd" d="M42.4074 19.3764C42.6305 19.7454 42.7931 20.8911 42.2169 21.0077C41.6407 21.1242 40.9808 21.4932 40.9994 20.9348C41.018 20.3765 41.5896 20.6387 41.7987 20.1823C42.0078 19.7259 41.8823 18.5219 42.4074 19.3764Z" fill="#EFE8BE"/>
<path fill-rule="evenodd" clip-rule="evenodd" d="M42.3196 19.8279C42.4636 20.0658 42.5705 20.7989 42.1941 20.8912C41.8177 20.9834 41.3809 21.2164 41.3949 20.8426C41.4088 20.4688 41.7805 20.6533 41.92 20.3571C42.0594 20.0609 41.9757 19.2647 42.3196 19.8279Z" fill="#E3DBAE"/>
<path d="M51.8213 54.6431C54.089 50.429 56.6029 47.2586 59.8697 46.5789C60.655 46.4139 60.6876 47.8752 59.8697 47.8218C57.0816 47.6422 54.2934 50.7348 51.97 54.7257L51.8213 54.6431Z" fill="#94B37F"/>
<path fill-rule="evenodd" clip-rule="evenodd" d="M51.3064 59.5031C53.588 60.5567 57.9933 58.0466 59.2061 55.42C60.419 52.7935 57.9189 50.7252 55.6652 49.6814C53.4115 48.6376 50.2655 48.0792 49.2153 50.8029C48.1651 53.5266 49.0248 58.4447 51.3064 59.5031Z" fill="#ED515E"/>
<path fill-rule="evenodd" clip-rule="evenodd" d="M51.6826 58.6584C53.7597 59.6294 57.77 57.3378 58.8899 54.92C60.0098 52.5022 57.7235 50.633 55.6743 49.6815C53.625 48.7299 50.7625 48.2249 49.8006 50.7156C48.8387 53.2062 49.6054 57.6971 51.6826 58.6584Z" fill="#FA5F6C"/>
<path fill-rule="evenodd" clip-rule="evenodd" d="M53.6342 54.1578C55.2049 54.8812 57.8583 54.0364 58.4391 52.8372C59.02 51.638 57.2217 50.4097 55.651 49.6815C54.0804 48.9532 52.0171 48.4094 51.5524 49.6815C51.0878 50.9535 52.0682 53.4295 53.6342 54.1578Z" fill="#FC9AA2"/>
<path fill-rule="evenodd" clip-rule="evenodd" d="M56.9566 52.4341C56.8516 52.4767 56.757 52.5435 56.68 52.6294C56.6029 52.7154 56.5453 52.8183 56.5114 52.9306C56.4775 53.0429 56.4682 53.1617 56.4841 53.2783C56.5 53.3949 56.5408 53.5062 56.6034 53.6041C56.7085 53.5615 56.803 53.4947 56.8801 53.4088C56.9571 53.3228 57.0147 53.2199 57.0486 53.1076C57.0825 52.9953 57.0919 52.8765 57.0759 52.7599C57.06 52.6433 57.0192 52.532 56.9566 52.4341Z" fill="#ED515E"/>
<path fill-rule="evenodd" clip-rule="evenodd" d="M54.7775 51.002C54.832 51.1062 54.8605 51.223 54.8605 51.3418C54.8605 51.4606 54.832 51.5774 54.7775 51.6816C54.7369 51.7922 54.6706 51.8905 54.5846 51.9676C54.4987 52.0447 54.3956 52.0983 54.2849 52.1235C54.2321 52.0198 54.2024 51.9051 54.1979 51.7877C54.1934 51.6704 54.2142 51.5536 54.2588 51.4458C54.3035 51.3381 54.3708 51.2422 54.4557 51.1654C54.5407 51.0885 54.6411 51.0327 54.7496 51.002H54.7775Z" fill="#ED515E"/>
<path fill-rule="evenodd" clip-rule="evenodd" d="M51.2178 47.2827C52.7791 48.7392 55.7531 46.9768 55.6927 49.7539C55.544 50.3414 51.8033 51.1036 51.2178 47.2827Z" fill="#94B37F"/>
<path fill-rule="evenodd" clip-rule="evenodd" d="M51.2178 47.2827C52.7791 48.7392 55.7531 46.9769 55.6927 49.7539V49.7928C52.8256 49.4869 52.0774 48.4479 51.2178 47.2827Z" fill="#A0BE8C"/>
<path fill-rule="evenodd" clip-rule="evenodd" d="M60.2464 51.4241C58.2343 51.2444 57.435 47.8993 55.5995 49.7879C55.3207 50.2831 57.2909 53.5311 60.2464 51.4241Z" fill="#94B37F"/>
<path fill-rule="evenodd" clip-rule="evenodd" d="M60.2464 51.424C58.2343 51.2444 57.4351 47.8993 55.5995 49.7879C55.597 49.8007 55.597 49.8139 55.5995 49.8267C57.6999 51.7105 58.8942 51.5697 60.2464 51.424Z" fill="#A0BE8C"/>
<path fill-rule="evenodd" clip-rule="evenodd" d="M55.1725 52.7109C55.2244 52.8144 55.2534 52.9287 55.2575 53.0454C55.2615 53.1621 55.2405 53.2783 55.1959 53.3855C55.1514 53.4926 55.0844 53.5879 54.9999 53.6644C54.9154 53.7409 54.8156 53.7967 54.7078 53.8276C54.655 53.7243 54.6252 53.6099 54.6207 53.4929C54.6162 53.3759 54.6371 53.2593 54.6818 53.1519C54.7265 53.0445 54.7938 52.9491 54.8788 52.8727C54.9638 52.7963 55.0642 52.741 55.1725 52.7109Z" fill="#ED515E"/>
<path fill-rule="evenodd" clip-rule="evenodd" d="M54.2386 55.022C54.2914 55.1256 54.3212 55.2404 54.3257 55.3577C54.3302 55.475 54.3094 55.5919 54.2647 55.6996C54.2201 55.8074 54.1528 55.9032 54.0678 55.98C53.9828 56.0569 53.8824 56.1128 53.774 56.1435C53.7221 56.0397 53.693 55.9251 53.689 55.808C53.6849 55.691 53.7059 55.5745 53.7504 55.467C53.795 55.3595 53.8619 55.2638 53.9464 55.1868C54.0308 55.1098 54.1307 55.0535 54.2386 55.022V55.022Z" fill="#ED515E"/>
<path fill-rule="evenodd" clip-rule="evenodd" d="M53.0583 57.1191C53.1132 57.2232 53.142 57.3401 53.142 57.459C53.142 57.5778 53.1132 57.6948 53.0583 57.7988C53.0173 57.91 52.9503 58.0086 52.8635 58.0858C52.7766 58.163 52.6727 58.2162 52.5611 58.2407C52.5092 58.1368 52.4802 58.0222 52.4761 57.9052C52.472 57.7882 52.493 57.6716 52.5375 57.5642C52.5821 57.4567 52.649 57.361 52.7335 57.284C52.8179 57.207 52.9178 57.1507 53.0258 57.1191H53.0583Z" fill="#ED515E"/>
<path fill-rule="evenodd" clip-rule="evenodd" d="M53.2533 50.3999C53.2993 50.5088 53.3187 50.6279 53.3098 50.7465C53.3009 50.8651 53.2639 50.9796 53.2022 51.0796C53.1504 51.1857 53.0739 51.2765 52.9797 51.3435C52.8854 51.4105 52.7766 51.4517 52.6631 51.4632C52.6171 51.3543 52.5977 51.2352 52.6066 51.1166C52.6155 50.9979 52.6525 50.8835 52.7142 50.7835C52.766 50.6774 52.8425 50.5866 52.9368 50.5196C53.031 50.4525 53.1398 50.4114 53.2533 50.3999V50.3999Z" fill="#ED515E"/>
<path fill-rule="evenodd" clip-rule="evenodd" d="M51.8221 51.9727C51.8692 52.08 51.8924 52.197 51.89 52.315C51.8876 52.4331 51.8596 52.549 51.8082 52.6541C51.7568 52.7592 51.6832 52.8508 51.5931 52.922C51.503 52.9931 51.3986 53.042 51.2877 53.065C51.2425 52.9575 51.2207 52.8408 51.224 52.7234C51.2272 52.606 51.2555 52.4908 51.3066 52.3862C51.3578 52.2817 51.4306 52.1903 51.5198 52.1187C51.6089 52.0472 51.7122 51.9973 51.8221 51.9727V51.9727Z" fill="#ED515E"/>
<path fill-rule="evenodd" clip-rule="evenodd" d="M51.3716 54.4102C51.433 54.5089 51.4724 54.6207 51.4869 54.7375C51.5014 54.8542 51.4907 54.9729 51.4554 55.0847C51.4202 55.1966 51.3614 55.2987 51.2833 55.3836C51.2053 55.4685 51.11 55.5341 51.0044 55.5754C50.943 55.4767 50.9036 55.3648 50.8891 55.248C50.8746 55.1313 50.8853 55.0126 50.9206 54.9008C50.9558 54.789 51.0146 54.6868 51.0927 54.6019C51.1707 54.517 51.266 54.4515 51.3716 54.4102V54.4102Z" fill="#ED515E"/>
<path fill-rule="evenodd" clip-rule="evenodd" d="M51.6637 50.0064C51.6858 50.1224 51.6795 50.2425 51.6453 50.3553C51.6112 50.4682 51.5504 50.5703 51.4686 50.6521C51.3965 50.7438 51.3032 50.8148 51.1974 50.8582C51.0916 50.9015 50.977 50.9158 50.8645 50.8997C50.848 50.7834 50.8569 50.6648 50.8904 50.5526C50.924 50.4405 50.9812 50.3376 51.0581 50.2518C51.1349 50.1659 51.2292 50.0993 51.3341 50.0568C51.4389 50.0143 51.5516 49.9971 51.6637 50.0064V50.0064Z" fill="#ED515E"/>
<path fill-rule="evenodd" clip-rule="evenodd" d="M50.5678 53.0166C50.6196 53.1204 50.6487 53.235 50.6527 53.3521C50.6568 53.4691 50.6358 53.5856 50.5913 53.6931C50.5468 53.8006 50.4798 53.8963 50.3953 53.9733C50.3109 54.0503 50.211 54.1066 50.1031 54.1381C50.0512 54.0343 50.0221 53.9197 50.0181 53.8026C50.014 53.6856 50.035 53.5691 50.0795 53.4616C50.1241 53.3542 50.191 53.2584 50.2755 53.1814C50.3599 53.1044 50.4598 53.0481 50.5678 53.0166V53.0166Z" fill="#ED515E"/>
<path fill-rule="evenodd" clip-rule="evenodd" d="M50.3121 51.1719C50.3658 51.2764 50.3939 51.3931 50.3939 51.5117C50.3939 51.6303 50.3658 51.7471 50.3121 51.8516C50.2656 51.9606 50.1935 52.0555 50.1026 52.1277C50.0116 52.1998 49.9046 52.2468 49.7916 52.2643C49.7464 52.1567 49.7246 52.04 49.7279 51.9226C49.7311 51.8052 49.7594 51.6901 49.8105 51.5855C49.8617 51.4809 49.9345 51.3895 50.0237 51.318C50.1128 51.2464 50.2161 51.1965 50.326 51.1719H50.3121Z" fill="#ED515E"/>
<path fill-rule="evenodd" clip-rule="evenodd" d="M51.0648 56.1528C51.1529 56.2265 51.2241 56.32 51.273 56.4263C51.3219 56.5326 51.3473 56.649 51.3473 56.767C51.3473 56.8849 51.3219 57.0014 51.273 57.1077C51.2241 57.214 51.1529 57.3075 51.0648 57.3812C50.9766 57.3075 50.9054 57.214 50.8565 57.1077C50.8076 57.0014 50.7822 56.8849 50.7822 56.767C50.7822 56.649 50.8076 56.5326 50.8565 56.4263C50.9054 56.32 50.9766 56.2265 51.0648 56.1528V56.1528Z" fill="#ED515E"/>
<path fill-rule="evenodd" clip-rule="evenodd" d="M50.1869 55.0122C50.2741 55.0884 50.3422 55.1858 50.3851 55.2958C50.428 55.4058 50.4445 55.5252 50.4332 55.6434C50.432 55.7625 50.4025 55.8794 50.3474 55.9836C50.2922 56.0879 50.2131 56.1762 50.1172 56.2405C50.0284 56.1657 49.9592 56.0686 49.9161 55.9582C49.873 55.8478 49.8575 55.7278 49.8709 55.6094C49.8721 55.4903 49.9016 55.3733 49.9567 55.2691C50.0119 55.1649 50.091 55.0766 50.1869 55.0122V55.0122Z" fill="#ED515E"/>
<path fill-rule="evenodd" clip-rule="evenodd" d="M53.439 51.9487C53.3252 51.9611 53.2162 52.0032 53.1221 52.0711C53.0279 52.1389 52.9515 52.2304 52.9 52.3371C52.839 52.4367 52.8028 52.5505 52.7947 52.6684C52.7866 52.7862 52.8068 52.9044 52.8535 53.012C52.9667 53.0015 53.0753 52.9607 53.1689 52.8935C53.2625 52.8263 53.338 52.735 53.3879 52.6284C53.4496 52.5284 53.4866 52.414 53.4955 52.2953C53.5045 52.1767 53.4851 52.0576 53.439 51.9487V51.9487Z" fill="#ED515E"/>
<path fill-rule="evenodd" clip-rule="evenodd" d="M56.5991 53.9297C56.4888 53.9633 56.3884 54.0254 56.3072 54.1102C56.226 54.1951 56.1665 54.3 56.1344 54.4152C56.0901 54.5249 56.0725 54.6444 56.083 54.763C56.0936 54.8815 56.132 54.9955 56.1948 55.0949C56.3016 55.0582 56.3991 54.9969 56.4803 54.9157C56.5615 54.8344 56.6242 54.7352 56.6638 54.6253C56.7035 54.5154 56.7191 54.3977 56.7095 54.2806C56.6999 54.1636 56.6654 54.0503 56.6084 53.9491L56.5991 53.9297Z" fill="#ED515E"/>
<path fill-rule="evenodd" clip-rule="evenodd" d="M55.3809 55.6533C55.2694 55.6716 55.1633 55.7161 55.0706 55.7834C54.9778 55.8506 54.9009 55.9389 54.8454 56.0417C54.79 56.1444 54.7575 56.259 54.7505 56.3767C54.7434 56.4944 54.762 56.6123 54.8047 56.7214C54.9177 56.7083 55.0257 56.6658 55.119 56.598C55.2124 56.5302 55.288 56.4391 55.3391 56.333C55.3986 56.2319 55.4335 56.1171 55.4408 55.9986C55.4481 55.8801 55.4275 55.7616 55.3809 55.6533V55.6533Z" fill="#ED515E"/>
<path fill-rule="evenodd" clip-rule="evenodd" d="M58.1323 52.9971C58.0388 53.0624 57.9605 53.1488 57.9034 53.2501C57.8463 53.3513 57.8118 53.4647 57.8024 53.5818C57.793 53.6989 57.809 53.8167 57.8493 53.9265C57.8895 54.0362 57.9529 54.1351 58.0347 54.2157C58.1282 54.1504 58.2064 54.0639 58.2635 53.9627C58.3207 53.8614 58.3552 53.748 58.3646 53.6309C58.3739 53.5138 58.3579 53.396 58.3177 53.2863C58.2775 53.1765 58.2141 53.0777 58.1323 52.9971V52.9971Z" fill="#ED515E"/>
<path fill-rule="evenodd" clip-rule="evenodd" d="M56.734 55.8716C56.6255 55.9023 56.5251 55.9582 56.4401 56.035C56.3552 56.1119 56.2879 56.2077 56.2432 56.3155C56.1986 56.4232 56.1777 56.5401 56.1822 56.6574C56.1868 56.7747 56.2165 56.8894 56.2693 56.9931C56.3777 56.9624 56.4782 56.9065 56.5631 56.8297C56.6481 56.7528 56.7154 56.657 56.76 56.5492C56.8047 56.4415 56.8255 56.3246 56.821 56.2073C56.8165 56.09 56.7867 55.9752 56.734 55.8716V55.8716Z" fill="#ED515E"/>
<path fill-rule="evenodd" clip-rule="evenodd" d="M58.2118 54.8276C58.105 54.8644 58.0075 54.9256 57.9263 55.0068C57.8451 55.0881 57.7824 55.1873 57.7428 55.2972C57.7031 55.4071 57.6875 55.5249 57.6971 55.6419C57.7067 55.7589 57.7412 55.8722 57.7982 55.9734C57.905 55.9367 58.0026 55.8755 58.0837 55.7942C58.1649 55.713 58.2276 55.6137 58.2673 55.5039C58.3069 55.394 58.3225 55.2762 58.3129 55.1592C58.3033 55.0422 58.2688 54.9289 58.2118 54.8276V54.8276Z" fill="#ED515E"/>
<path fill-rule="evenodd" clip-rule="evenodd" d="M54.1781 57.5949C54.0678 57.5695 53.9532 57.573 53.8446 57.6052C53.7359 57.6374 53.6366 57.6972 53.5555 57.7794C53.4662 57.8543 53.3962 57.9512 53.3516 58.0613C53.307 58.1715 53.2892 58.2915 53.2999 58.4105C53.4113 58.4362 53.527 58.4323 53.6366 58.3993C53.7462 58.3662 53.8461 58.305 53.9272 58.2212C54.0162 58.1474 54.0859 58.0512 54.1297 57.9417C54.1736 57.8322 54.1903 57.7129 54.1781 57.5949V57.5949Z" fill="#ED515E"/>
<path fill-rule="evenodd" clip-rule="evenodd" d="M55.7114 57.318C55.5995 57.3016 55.4853 57.3143 55.3791 57.3549C55.273 57.3956 55.178 57.4629 55.1027 57.5511C55.0184 57.6314 54.9549 57.7328 54.9184 57.8457C54.8818 57.9587 54.8733 58.0795 54.8936 58.1968C55.0056 58.2146 55.1202 58.2025 55.2266 58.1618C55.333 58.121 55.4278 58.0529 55.5023 57.9637C55.5874 57.884 55.6513 57.7827 55.688 57.6695C55.7246 57.5564 55.7327 57.4354 55.7114 57.318V57.318Z" fill="#ED515E"/>
<path fill-rule="evenodd" clip-rule="evenodd" d="M53.1281 53.7451C53.1826 53.8493 53.2111 53.9662 53.2111 54.085C53.2111 54.2037 53.1826 54.3206 53.1281 54.4248C53.0886 54.5361 53.0227 54.635 52.9365 54.7123C52.8503 54.7896 52.7467 54.8427 52.6355 54.8666C52.5818 54.7621 52.5537 54.6454 52.5537 54.5268C52.5537 54.4082 52.5818 54.2914 52.6355 54.1869C52.6757 54.0761 52.7419 53.9777 52.8279 53.9005C52.914 53.8233 53.0172 53.7699 53.1281 53.7451V53.7451Z" fill="#ED515E"/>
<path fill-rule="evenodd" clip-rule="evenodd" d="M52.6488 55.9102C52.7007 56.014 52.7297 56.1286 52.7338 56.2456C52.7379 56.3627 52.7169 56.4792 52.6723 56.5866C52.6278 56.6941 52.5609 56.7898 52.4764 56.8668C52.3919 56.9438 52.2921 57.0001 52.1841 57.0317C52.1322 56.9279 52.1032 56.8132 52.0991 56.6962C52.0951 56.5792 52.1161 56.4627 52.1606 56.3552C52.2051 56.2477 52.2721 56.152 52.3565 56.075C52.441 55.998 52.5409 55.9417 52.6488 55.9102V55.9102Z" fill="#ED515E"/>
<path fill-rule="evenodd" clip-rule="evenodd" d="M52.1049 57.998C52.1567 58.1019 52.1858 58.2165 52.1898 58.3335C52.1939 58.4505 52.1729 58.5671 52.1284 58.6745C52.0839 58.782 52.0169 58.8777 51.9324 58.9547C51.848 59.0317 51.7481 59.088 51.6402 59.1196C51.5883 59.0157 51.5593 58.9011 51.5552 58.7841C51.5511 58.6671 51.5721 58.5506 51.6166 58.4431C51.6612 58.3356 51.7281 58.2399 51.8126 58.1629C51.897 58.0859 51.9969 58.0296 52.1049 57.998Z" fill="#ED515E"/>
<path fill-rule="evenodd" clip-rule="evenodd" d="M56.9615 53.046C56.1297 51.8711 57.6027 49.5941 55.6557 49.7737C55.27 49.8417 54.5544 52.4051 56.9615 53.046Z" fill="#94B37F"/>
<path fill-rule="evenodd" clip-rule="evenodd" d="M56.9616 53.0457C56.1298 51.8708 57.4263 49.8997 55.6558 49.7734H55.6279C55.6512 51.7931 56.2692 52.3757 56.9616 53.0457Z" fill="#A0BE8C"/>
</g>
<defs>
<clipPath id="clip0">
<rect width="86" height="71" fill="white"/>
</clipPath>
</defs>
</svg>
