<svg width="80" height="60" viewBox="0 0 80 80" fill="none" xmlns="http://www.w3.org/2000/svg">
<g clip-path="url(#clip0)">
<path d="M68.9656 4.3584V20.6894C68.9656 22.213 67.7305 23.4481 66.207 23.4481C64.6834 23.4481 63.4484 22.213 63.4484 20.6894V16.5515C63.4484 15.028 62.2133 13.7929 60.6898 13.7929C59.1662 13.7929 57.9311 15.028 57.9311 16.5515V20.6894C57.9311 22.9747 56.0785 24.8274 53.7932 24.8274C51.5079 24.8274 49.6553 22.9747 49.6553 20.6894V11.4481L68.9656 4.3584Z" fill="#F3D55B"/>
<path d="M79.3517 35.8621L79.0068 32.9104C78.9099 32.2249 78.3198 31.7174 77.6275 31.7242H2.35855C1.66623 31.7174 1.07614 32.2249 0.979241 32.9104L0.648207 35.8621L-6.90569e-05 41.3794C-0.0563531 41.7773 0.0637175 42.18 0.328739 42.4821C0.59376 42.7842 0.977371 42.9557 1.37924 42.9518H2.75855L7.76545 76.4414C8.05402 78.4824 9.80074 79.9997 11.862 80H68.1379C70.2148 80.0205 71.9851 78.498 72.2758 76.4414L77.2413 42.9518H78.6206C79.0225 42.9557 79.4061 42.7842 79.6711 42.4821C79.9361 42.18 80.0562 41.7773 79.9999 41.3794L79.3517 35.8621Z" fill="#F0C419"/>
<path d="M17.931 75.8622H13.0621C12.3697 75.869 11.7796 75.3615 11.6828 74.676L11.0896 70.538C11.0207 70.0452 11.2198 69.5531 11.6121 69.247C12.0043 68.9408 12.5301 68.8672 12.9914 69.0539C13.4526 69.2405 13.7793 69.659 13.8483 70.1518L14.2621 73.1036H17.931C18.6928 73.1036 19.3103 73.7211 19.3103 74.4829C19.3103 75.2446 18.6928 75.8622 17.931 75.8622V75.8622Z" fill="#F29C1F"/>
<path d="M79.9999 41.3794C80.0562 41.7773 79.9361 42.18 79.6711 42.4821C79.4061 42.7842 79.0225 42.9557 78.6206 42.9518H1.37924C0.977371 42.9557 0.59376 42.7842 0.328739 42.4821C0.0637175 42.18 -0.0563531 41.7773 -6.90569e-05 41.3794L0.634414 35.8621L0.979241 32.9104C1.07614 32.2249 1.66623 31.7174 2.35855 31.7242H77.6413C78.3336 31.7174 78.9237 32.2249 79.0206 32.9104L79.3517 35.8621L79.9999 41.3794Z" fill="#F3D55B"/>
<path d="M67.945 4.65444e-05C68.6181 -0.00447631 69.2507 0.320865 69.6385 0.870979C70.0264 1.42109 70.1202 2.12625 69.8898 2.75867C68.2347 6.78625 63.076 8.66212 59.145 9.72419C53.5796 11.3454 47.7591 11.9069 41.9864 11.3794C39.7883 11.1628 37.6647 10.4659 35.7657 9.33798C34.0553 8.27591 32.4829 6.8966 30.345 6.8966H10.5657C9.59051 6.91155 8.65069 6.53171 7.95976 5.84338C7.26882 5.15504 6.88544 4.21665 6.89673 3.24143C7.00631 1.41824 8.51853 -0.0032439 10.345 4.65444e-05H67.945Z" fill="#95A5A5"/>
<path d="M40.6895 23.4483C42.5939 23.4483 44.1378 21.9045 44.1378 20C44.1378 18.0956 42.5939 16.5518 40.6895 16.5518C38.7851 16.5518 37.2412 18.0956 37.2412 20C37.2412 21.9045 38.7851 23.4483 40.6895 23.4483Z" fill="#F3D55B"/>
<path d="M17.9311 37.2416C17.9311 38.0034 17.3135 38.6209 16.5517 38.6209H0.331055L0.648296 35.8623H16.5517C17.3135 35.8623 17.9311 36.4798 17.9311 37.2416Z" fill="#F29C1F"/>
<path d="M55.1724 38.6209H24.8276C24.0658 38.6209 23.4482 38.0034 23.4482 37.2416C23.4482 36.4798 24.0658 35.8623 24.8276 35.8623H55.1724C55.9341 35.8623 56.5517 36.4798 56.5517 37.2416C56.5517 38.0034 55.9341 38.6209 55.1724 38.6209Z" fill="#F29C1F"/>
<path d="M79.6688 38.6209H62.0688C61.307 38.6209 60.6895 38.0034 60.6895 37.2416C60.6895 36.4798 61.307 35.8623 62.0688 35.8623H79.3515L79.6688 38.6209Z" fill="#F29C1F"/>
</g>
<defs>
<clipPath id="clip0">
<rect width="80" height="80" fill="white"/>
</clipPath>
</defs>
</svg>
