<svg width="87" height="64" viewBox="0 0 87 84" fill="none" xmlns="http://www.w3.org/2000/svg">
<g clip-path="url(#clip0)">
<path d="M12.4005 81.1096C13.8305 83.5596 19.1105 82.2196 19.1805 79.7896C19.1805 79.7896 19.1805 79.5596 19.1805 79.2096C19.0705 77.9296 18.4305 74.9496 14.7005 75.4096C14.1875 75.4213 13.6855 75.5609 13.2402 75.8159C12.7949 76.0709 12.4203 76.4331 12.1505 76.8696C11.1905 78.5596 12.4005 81.1096 12.4005 81.1096Z" fill="#474799"/>
<g style="mix-blend-mode:multiply" opacity="0.3">
<path d="M12.4001 81.1096C13.8301 83.5596 19.1101 82.2196 19.1801 79.7896C19.1801 79.7896 19.1801 79.5596 19.1801 79.2096C17.9909 80.0286 16.5738 80.4519 15.1301 80.4196C12.6401 80.2796 12.2001 78.1596 12.1301 76.8696C11.1901 78.5596 12.4001 81.1096 12.4001 81.1096Z" fill="#473E6D"/>
</g>
<g style="mix-blend-mode:screen" opacity="0.4">
<path d="M16.8599 77.3298C17.5199 76.9698 18.2699 77.9998 17.5299 78.4598C17.4556 78.5143 17.3708 78.5526 17.2808 78.5723C17.1909 78.592 17.0978 78.5927 17.0075 78.5743C16.9173 78.5559 16.8319 78.5188 16.7568 78.4654C16.6818 78.412 16.6188 78.3435 16.5718 78.2642C16.5248 78.185 16.4949 78.0968 16.4841 78.0054C16.4732 77.9139 16.4817 77.8212 16.5088 77.7332C16.5359 77.6452 16.5812 77.5638 16.6417 77.4943C16.7021 77.4248 16.7765 77.3688 16.8599 77.3298V77.3298Z" fill="#585184"/>
</g>
<g style="mix-blend-mode:multiply" opacity="0.6">
<path d="M15.3701 76.39C15.3881 76.2639 15.3737 76.1353 15.3282 76.0163C15.2827 75.8973 15.2077 75.7919 15.1101 75.71C15.1101 75.71 14.7201 76.14 14.7801 76.44C14.5996 76.2503 14.3519 76.139 14.0901 76.13C14.0901 76.13 13.8901 76.56 14.4401 76.78C14.3639 76.8606 14.3166 76.9643 14.3057 77.0747C14.2948 77.1851 14.321 77.296 14.3801 77.39C14.4928 77.365 14.5971 77.3114 14.6829 77.2343C14.7688 77.1572 14.8333 77.0593 14.8701 76.95C14.9277 77.0514 15.0085 77.1378 15.1058 77.2021C15.2031 77.2664 15.3142 77.3068 15.4301 77.32C15.4967 77.238 15.5331 77.1356 15.5331 77.03C15.5331 76.9243 15.4967 76.8219 15.4301 76.74C15.4301 76.74 15.8901 76.74 16.0001 76.47C16.0001 76.47 15.6201 76.2 15.3701 76.39Z" fill="#473E6D"/>
</g>
<path d="M47.5103 11.6399C47.5103 11.6399 47.1203 10.9799 46.6503 10.2199C46.2156 9.48583 45.7381 8.77794 45.2203 8.09994C45.2203 8.09994 44.5203 5.93994 47.2203 4.18994C47.2603 4.18994 50.5403 8.25994 47.5103 11.6399Z" fill="#91BC1D"/>
<path d="M47.2597 4.18994C47.2367 6.20419 47.0325 8.21228 46.6497 10.1899C46.214 9.46608 45.7366 8.76823 45.2197 8.09994C45.2197 8.09994 44.5197 5.93994 47.2597 4.18994Z" fill="#82A013"/>
<path d="M66.2306 76.4897L64.5806 79.7598C59.8727 82.0304 54.7268 83.2486 49.5005 83.3298C42.4023 83.4343 35.3641 82.0157 28.8605 79.1697L27.3105 76.4897C34.3837 79.1913 41.8993 80.5479 49.4705 80.4897C60.3405 80.2797 66.2306 76.4897 66.2306 76.4897Z" fill="#94BBC2"/>
<g style="mix-blend-mode:multiply" opacity="0.5">
<path d="M66.23 76.4897L64.58 79.7598C59.8721 82.0304 54.7262 83.2486 49.5 83.3298C49.6982 82.4002 49.6982 81.4393 49.5 80.5098C60.34 80.2798 66.23 76.4897 66.23 76.4897Z" fill="#96BBC2"/>
</g>
<path d="M86.1801 38.0596C86.1801 38.2196 86.1801 71.4696 59.6401 79.1696C55.0364 80.4371 50.2583 80.9538 45.4901 80.6996C42.7598 80.5973 40.0417 80.283 37.3601 79.7596C31.1053 78.6488 25.2311 75.98 20.2801 71.9996C5.1001 59.6696 5.5601 38.4596 5.5601 38.4596C5.7601 42.4596 8.7801 46.0696 13.8401 48.9696C17.3588 50.8835 21.1098 52.3355 25.0001 53.2896C31.5428 54.9186 38.2577 55.7546 45.0001 55.7796C45.7801 55.7796 46.5301 55.7796 47.2901 55.7796H47.5401C53.5796 55.7713 59.5881 54.9163 65.3901 53.2396C74.2801 50.5496 79.7601 46.2396 84.1101 42.5196C84.7467 41.9613 85.2596 41.2762 85.6161 40.5082C85.9725 39.7401 86.1646 38.9061 86.1801 38.0596V38.0596Z" fill="#B1D2DA"/>
<g style="mix-blend-mode:screen" opacity="0.3">
<path d="M37.3598 79.7599C31.105 78.6492 25.2309 75.9804 20.2798 71.9999C15.6598 64.2799 14.2798 54.3299 13.8398 48.9399C17.3571 50.8643 21.1081 52.3264 24.9998 53.2899C25.3798 63.1399 32.9998 74.1699 37.3598 79.7599Z" fill="#C9E8F0"/>
</g>
<g style="mix-blend-mode:multiply" opacity="0.6">
<path d="M86.1796 38.0596C86.1796 38.2196 86.1796 71.4696 59.6396 79.1696C64.0696 71.2896 65.1596 61.3696 65.3396 53.2396C74.2296 50.5496 79.7096 46.2396 84.0596 42.5196C84.7053 41.9658 85.2277 41.2827 85.5928 40.5145C85.958 39.7462 86.1579 38.9099 86.1796 38.0596V38.0596Z" fill="#B1D2DA"/>
</g>
<g style="mix-blend-mode:multiply" opacity="0.6">
<path d="M30.8805 23.9998C30.8805 23.9998 30.6705 23.6198 30.8805 23.5498C30.8805 23.5498 31.2805 23.6698 31.3205 23.8698C31.3205 23.8698 31.3205 23.6498 31.7105 23.6598C31.7105 23.6598 31.9805 23.7698 31.8005 24.0998C31.8005 24.0998 32.0705 24.3298 31.9305 24.5198C31.7905 24.7098 31.4505 24.4298 31.4505 24.4298C31.4505 24.4298 31.4505 24.7998 31.1605 24.7898C31.0932 24.749 31.0359 24.6937 30.9926 24.628C30.9494 24.5623 30.9213 24.4877 30.9105 24.4098C30.9105 24.4098 30.5205 24.4798 30.4805 24.1698L30.8805 23.9998Z" fill="#473E6D"/>
</g>
<path d="M48.3198 17.1298C18.2298 15.9998 5.17981 30.9998 5.55981 38.7998C5.99981 48.3498 22.7098 55.8498 44.9998 56.1198C45.7665 56.1198 46.5265 56.1198 47.2798 56.1198H47.5298C67.9898 55.8098 78.0098 49.5198 84.1098 42.8598C85.3348 41.68 86.0884 40.0946 86.2298 38.3998C86.5698 30.6098 75.0998 18.1598 48.3198 17.1298Z" fill="#E9FAFF"/>
<path opacity="0.8" d="M82.7204 36.2498C82.5821 38.6299 81.6287 40.8898 80.0204 42.6498V42.6498C75.7104 47.7898 65.6104 53.1298 45.0004 53.4298C23.5704 53.7398 14.2404 47.2298 10.6504 42.1598C9.52523 40.7535 8.83068 39.0518 8.65039 37.2598C8.65039 33.7098 13.5904 27.7198 22.4104 23.5898C29.2347 20.4865 36.6647 18.9424 44.1604 19.0698C50.7524 19.0115 57.3272 19.7536 63.7404 21.2798C77.5204 24.7798 82.7204 31.6698 82.7204 36.2498Z" fill="#C9E8F0"/>
<path d="M81.0899 37.7099C81.0745 39.4145 80.7032 41.0971 79.9999 42.6499C75.7099 47.7899 65.6099 53.1299 44.9999 53.4299C40.5213 53.5245 36.0425 53.2468 31.6099 52.5999C19.4299 50.7099 13.3799 46.0199 10.6099 42.1599C9.90988 38.4099 10.0999 33.9499 13.2699 30.6299L13.8199 30.0899C16.6999 27.3799 19.2099 27.2799 21.0799 27.9399C22.397 28.4399 23.5568 29.2822 24.4399 30.3799V30.4399C23.2769 28.3222 22.5652 25.9864 22.3499 23.5799C22.2425 22.5378 22.377 21.4849 22.743 20.5032C23.109 19.5215 23.6965 18.6375 24.4599 17.9199C25.4848 16.929 26.7785 16.2613 28.1799 15.9999C30.9999 15.5199 32.9999 17.4699 33.7999 16.9999L33.7399 16.6699C32.6699 10.0899 42.8899 2.66992 42.8899 2.66992C42.3099 5.04992 46.3899 9.32992 48.6399 10.8099C49.2803 11.2314 49.8562 11.7434 50.3499 12.3299C51.2136 12.3784 52.0708 12.509 52.9099 12.7199C56.8199 13.7199 62.2999 17.4999 63.7299 21.3099C64.695 23.9417 65.4017 26.6612 65.8399 29.4299C65.8399 29.4299 67.6199 24.3099 71.9899 25.0799C72.7662 25.2314 73.5126 25.5083 74.1999 25.8999C76.8037 27.4962 78.8343 29.8769 79.9999 32.6999C80.6956 34.2799 81.0662 35.9837 81.0899 37.7099V37.7099Z" fill="#FFFEEC"/>
<path d="M45.0004 35.8996C44.4204 36.8996 45.4704 38.7496 48.5204 38.7996C51.5704 38.8496 52.5204 37.3396 51.9504 36.4996C51.3804 35.6596 45.5404 34.8696 45.0004 35.8996Z" fill="#F7EFCD"/>
<path d="M51.0006 37C50.0006 39 45.8606 38.21 45.6806 36.33C45.6729 36.1834 45.6729 36.0365 45.6806 35.89C45.6806 34.89 46.0406 32.55 48.9506 32.71C49.34 32.7027 49.7253 32.7898 50.0736 32.964C50.4219 33.1381 50.7228 33.3941 50.9506 33.71C51.8206 34.94 51.0006 37 51.0006 37Z" fill="#474799"/>
<g style="mix-blend-mode:multiply" opacity="0.3">
<path d="M51.0006 36.9997C50.0006 38.9997 45.8606 38.2097 45.6806 36.3297C45.6729 36.1831 45.6729 36.0363 45.6806 35.8897C46.6451 36.4601 47.7648 36.712 48.8806 36.6097C50.8006 36.3697 51.0306 34.7097 51.0006 33.6997C51.8206 34.9397 51.0006 36.9997 51.0006 36.9997Z" fill="#473E6D"/>
</g>
<g style="mix-blend-mode:screen" opacity="0.4">
<path d="M47.3705 34.2797C46.8405 34.0297 46.3105 34.8697 46.9105 35.1897C46.9704 35.222 47.0362 35.2419 47.104 35.2484C47.1718 35.2548 47.2402 35.2476 47.3051 35.2272C47.3701 35.2068 47.4303 35.1736 47.4822 35.1296C47.5341 35.0855 47.5767 35.0315 47.6074 34.9707C47.6382 34.91 47.6564 34.8437 47.6611 34.7757C47.6658 34.7078 47.6568 34.6396 47.6347 34.5752C47.6126 34.5108 47.5779 34.4515 47.5325 34.4007C47.4871 34.35 47.432 34.3088 47.3705 34.2797V34.2797Z" fill="#585184"/>
</g>
<g style="mix-blend-mode:multiply" opacity="0.6">
<path d="M48.4796 33.4799C48.4552 33.3839 48.4571 33.283 48.4853 33.1879C48.5134 33.0929 48.5668 33.0072 48.6396 32.9399C48.6396 32.9399 48.9696 33.2499 48.9296 33.4799C49.0644 33.3297 49.2493 33.2337 49.4496 33.2099C49.4496 33.2099 49.6196 33.5299 49.2096 33.7299C49.2746 33.7874 49.318 33.8653 49.3325 33.9508C49.3471 34.0363 49.3319 34.1242 49.2896 34.1999C49.2027 34.1849 49.1208 34.1487 49.0511 34.0947C48.9813 34.0407 48.9259 33.9704 48.8896 33.8899C48.8504 33.9701 48.7928 34.0399 48.7216 34.0938C48.6504 34.1476 48.5675 34.184 48.4796 34.1999C48.4285 34.1361 48.4007 34.0567 48.4007 33.9749C48.4007 33.8931 48.4285 33.8138 48.4796 33.7499C48.4796 33.7499 48.1296 33.7499 48.0296 33.5699C47.9996 33.5699 48.2696 33.3399 48.4796 33.4799Z" fill="#473E6D"/>
</g>
<path d="M46.39 22.4897C45.39 26.2997 46.27 28.2597 47.39 29.2697C48.2821 28.7075 49.3527 28.5006 50.39 28.6897C51.54 24.8297 46.39 22.4897 46.39 22.4897Z" fill="#88B22D"/>
<path d="M47.3406 29.2697C47.7419 29.0229 48.1811 28.8438 48.6406 28.7397L46.3906 22.4897C45.3706 26.2997 46.2706 28.2597 47.3406 29.2697Z" fill="#78991D"/>
<path d="M26.8304 32C25.9004 32.54 22.9804 36.79 29.7304 42.61C36.4804 48.43 60.4204 53 71.5404 44.25C66.6634 46.5448 61.3187 47.6713 55.9304 47.54C46.6704 47.41 34.0204 44.67 29.7304 39.87C25.4404 35.07 26.8304 32 26.8304 32Z" fill="#F7EFCD"/>
<path d="M19.6802 32.6699C18.1002 34.9699 15.6802 45.6099 27.2202 50.2199C27.2202 50.2199 22.0902 46.6099 20.2202 42.3799C18.3502 38.1499 19.6802 32.6699 19.6802 32.6699Z" fill="#F7EFCD"/>
<path d="M29.0801 22.4899C29.2101 22.3599 36.8801 22.2099 37.9101 26.4099C37.9101 26.4099 39.0201 23.4999 35.2901 22.1399C34.297 21.7202 33.2209 21.5335 32.1445 21.5942C31.068 21.6549 30.0197 21.9613 29.0801 22.4899V22.4899Z" fill="#F7EFCD"/>
<path d="M52.9102 31.6298C53.6202 30.5698 51.6902 27.8298 48.6402 28.7398C45.5902 29.6498 40.6402 34.4698 44.7902 38.6098C48.9402 42.7498 55.6302 37.0498 55.7002 36.6098C55.7002 36.6098 50.1202 40.1398 47.2902 38.6898C44.4602 37.2398 42.8702 32.9898 48.4202 30.5198C52.7902 28.5598 52.9102 31.6298 52.9102 31.6298Z" fill="#F7EFCD"/>
<path d="M27.8799 28.38C27.8799 29.38 30.5699 30.18 33.6099 28.83C36.6499 27.48 34.9999 26.38 32.1099 26.62C29.2199 26.86 27.8999 27.63 27.8799 28.38Z" fill="#F7EFCD"/>
<path d="M34.1106 26.8799C33.6506 29.1399 29.2506 29.4899 28.5606 27.6399C28.5029 27.497 28.4561 27.3499 28.4206 27.1999C28.1706 26.1999 27.8806 23.7399 30.8506 23.1199C31.2462 22.9911 31.6679 22.9639 32.0768 23.0408C32.4857 23.1177 32.8687 23.2962 33.1906 23.5599C34.3606 24.6099 34.1106 26.8799 34.1106 26.8799Z" fill="#473877"/>
<g style="mix-blend-mode:multiply" opacity="0.3">
<path d="M34.1099 26.8796C33.6499 29.1396 29.2499 29.4896 28.5599 27.6396C28.5022 27.4966 28.4554 27.3496 28.4199 27.1996C29.5456 27.5135 30.7413 27.4681 31.8399 27.0696C33.7099 26.2996 33.4899 24.5596 33.1899 23.5596C34.3599 24.6096 34.1099 26.8796 34.1099 26.8796Z" fill="#473E6D"/>
</g>
<g style="mix-blend-mode:screen" opacity="0.4">
<path d="M29.7004 25.1599C29.0904 25.0499 28.7904 26.0399 29.4804 26.1599C29.5525 26.1973 29.6323 26.2176 29.7136 26.2192C29.7949 26.2209 29.8754 26.2038 29.9491 26.1693C30.0227 26.1348 30.0874 26.0839 30.1381 26.0204C30.1889 25.9569 30.2244 25.8826 30.2419 25.8032C30.2594 25.7238 30.2583 25.6415 30.2389 25.5626C30.2194 25.4836 30.1821 25.4102 30.1297 25.348C30.0774 25.2858 30.0114 25.2365 29.937 25.2039C29.8625 25.1713 29.7816 25.1562 29.7004 25.1599V25.1599Z" fill="#585184"/>
</g>
<g style="mix-blend-mode:multiply" opacity="0.6">
<path d="M30.8805 23.9998C30.8805 23.9998 30.6705 23.6198 30.8805 23.5498C30.8805 23.5498 31.2805 23.6698 31.3205 23.8698C31.3205 23.8698 31.3205 23.6498 31.7105 23.6598C31.7105 23.6598 31.9805 23.7698 31.8005 24.0998C31.8005 24.0998 32.0705 24.3298 31.9305 24.5198C31.7905 24.7098 31.4505 24.4298 31.4505 24.4298C31.4505 24.4298 31.4505 24.7998 31.1605 24.7898C31.0932 24.749 31.0359 24.6937 30.9926 24.628C30.9494 24.5623 30.9213 24.4877 30.9105 24.4098C30.9105 24.4098 30.5205 24.4798 30.4805 24.1698L30.8805 23.9998Z" fill="#473E6D"/>
</g>
<path d="M50.77 24.8697C50.57 25.9197 52.03 27.2097 55.07 27.0297C58.11 26.8497 58.97 25.4797 58.21 24.8697C57.45 24.2597 51.13 22.9997 50.77 24.8697Z" fill="#F7EFCD"/>
<path d="M57.51 25.1599C56.51 27.2299 52.17 26.5099 51.95 24.5499C51.9385 24.3968 51.9385 24.243 51.95 24.0899C51.95 23.0899 52.26 20.5999 55.3 20.7199C55.715 20.6921 56.1303 20.7691 56.5078 20.9438C56.8852 21.1186 57.2127 21.3855 57.46 21.7199C58.31 22.9999 57.51 25.1599 57.51 25.1599Z" fill="#4A4AA8"/>
<g style="mix-blend-mode:multiply" opacity="0.3">
<path d="M57.51 25.1597C56.51 27.2297 52.17 26.5097 51.95 24.5497C51.9385 24.3966 51.9385 24.2428 51.95 24.0897C52.9648 24.6708 54.1374 24.9158 55.3 24.7897C57.3 24.4997 57.51 22.7897 57.46 21.7197C58.31 22.9997 57.51 25.1597 57.51 25.1597Z" fill="#473E6D"/>
</g>
<g style="mix-blend-mode:screen" opacity="0.4">
<path d="M53.6498 22.4196C53.0898 22.1696 52.5598 23.0496 53.1898 23.3696C53.2529 23.4077 53.3232 23.4322 53.3964 23.4416C53.4695 23.4509 53.5437 23.4449 53.6144 23.4239C53.6851 23.403 53.7506 23.3675 53.8068 23.3198C53.8629 23.2721 53.9085 23.2132 53.9407 23.1468C53.9728 23.0805 53.9907 23.0082 53.9933 22.9345C53.9959 22.8608 53.9831 22.7874 53.9557 22.719C53.9284 22.6506 53.887 22.5886 53.8343 22.537C53.7817 22.4855 53.7188 22.4455 53.6498 22.4196V22.4196Z" fill="#585184"/>
</g>
<g style="mix-blend-mode:multiply" opacity="0.6">
<path d="M54.5102 21.8799C54.5102 21.8799 54.0902 21.7799 54.1902 21.5699C54.1902 21.5699 54.5402 21.3399 54.7302 21.4399C54.7302 21.4399 54.5702 21.2899 54.8202 21.0099C54.8202 21.0099 55.0902 20.8799 55.2102 21.2299C55.2102 21.2299 55.5702 21.2299 55.6102 21.4199C55.6502 21.6099 55.2302 21.7099 55.2302 21.7099C55.2302 21.7099 55.5302 21.9399 55.3002 22.1699C55.2256 22.1954 55.1462 22.2032 55.0682 22.1928C54.9901 22.1824 54.9155 22.154 54.8502 22.1099C54.8502 22.1099 54.6502 22.4399 54.3902 22.2699C54.3902 22.2699 54.4702 21.9999 54.5102 21.8799Z" fill="#473E6D"/>
</g>
<path d="M42.8896 21.6097C40.2296 22.0797 35.3896 20.6097 33.7396 16.6797C32.6696 10.0997 42.8896 2.67969 42.8896 2.67969C42.7496 3.02969 39.6696 11.5997 42.8896 14.2497C46.1096 16.8997 46.0496 20.9997 42.8896 21.6097Z" fill="#F7EFCD"/>
<path d="M36.9998 15.7896L36.9298 15.8396C33.6698 18.3096 33.4798 20.4296 33.9298 21.8396C34.8323 22.0088 35.7072 22.3016 36.5298 22.7095C39.8198 20.3195 36.9998 15.7896 36.9998 15.7896Z" fill="#88B22D"/>
<path d="M33.8705 21.7998C34.2905 21.9398 34.7405 22.0298 35.1905 22.1398C35.7905 20.0298 36.5805 17.0298 36.8805 15.8398C33.6205 18.3098 33.4305 20.4298 33.8705 21.7998Z" fill="#78991D"/>
<path d="M70.8004 24.7199C70.4104 24.7199 70.1904 24.7999 70.1904 24.7999C70.3825 24.7173 70.5936 24.6897 70.8004 24.7199V24.7199Z" fill="#F7EFCD"/>
<path d="M74.2497 43.5598C68.5997 46.9998 58.4697 44.6898 58.4697 44.6898C70.9697 45.1898 73.9597 41.8198 76.4697 38.0498C78.9797 34.2798 75.0797 32.6798 75.0797 32.6798C77.8697 29.3498 74.4697 26.0998 72.0197 25.0498C72.796 25.2013 73.5425 25.4782 74.2297 25.8698C76.8272 27.4787 78.8474 29.87 79.9997 32.6998C80.4597 37.0598 78.7697 40.8198 74.2497 43.5598Z" fill="#F7EFCD"/>
<path d="M31.5698 52.5997C19.3898 50.7097 13.3398 46.0197 10.5698 42.1597C9.86984 38.4097 10.0598 33.9497 13.2298 30.6297L13.7798 30.0897C16.6598 27.3797 19.1698 27.2797 21.0398 27.9397C19.1298 28.1597 15.7398 29.4997 16.2698 32.9397C16.2698 32.9397 11.7698 37.0497 14.6798 42.6097C16.7198 46.4097 23.6798 50.3697 31.5698 52.5997Z" fill="#F7EFCD"/>
<path d="M29.5601 36.55C27.7666 34.6015 26.0744 32.5622 24.4901 30.44C23.3271 28.3222 22.6155 25.9865 22.4001 23.58C22.2927 22.5378 22.4273 21.4849 22.7932 20.5033C23.1592 19.5216 23.7467 18.6376 24.5101 17.92C25.5214 16.9377 26.7965 16.2706 28.1801 16C26.4301 17.09 24.9101 18.12 27.1801 20.74C27.1801 20.74 23.1801 20.24 24.5401 26.43C25.4143 30.144 27.1321 33.6068 29.5601 36.55V36.55Z" fill="#F7EFCD"/>
<path d="M63.4405 26.5898C63.7405 28.3198 65.1305 33.0598 59.2705 36.5898C59.2705 36.5898 65.7505 34.2198 65.8205 30.0298C65.9113 29.2649 65.7195 28.4931 65.2812 27.8597C64.8429 27.2262 64.1883 26.7746 63.4405 26.5898Z" fill="#F7EFCD"/>
<path d="M43.1997 8.27979C42.9716 9.28178 43.051 10.3292 43.4274 11.2854C43.8038 12.2416 44.4598 13.0621 45.3097 13.6398C46.6355 14.4777 47.6803 15.6932 48.3097 17.1298C48.6052 16.2136 48.5877 15.2253 48.2601 14.3201C47.9324 13.415 47.3131 12.6445 46.4997 12.1298C43.5997 9.99979 43.1997 8.27979 43.1997 8.27979Z" fill="#FFFEF8"/>
<path d="M25.3604 80.0796C25.3321 80.5556 25.2097 81.0212 25.0004 81.4496C24.6049 82.261 23.9355 82.9066 23.1103 83.2725C22.2852 83.6384 21.3573 83.7012 20.4904 83.4496C19.7095 83.1784 19.0317 82.6718 18.5504 81.9996C18.1093 81.4262 17.8701 80.7231 17.8701 79.9996C17.8701 79.2762 18.1093 78.573 18.5504 77.9996C18.7051 77.7812 18.8828 77.5801 19.0804 77.3996C19.7538 76.7785 20.6449 76.4479 21.5604 76.4796C23.8504 76.6096 25.4504 78.2096 25.3604 80.0796Z" fill="#473877"/>
<g style="mix-blend-mode:multiply" opacity="0.3">
<path d="M25.3597 80.0795C25.3313 80.5555 25.209 81.0211 24.9997 81.4495C24.7145 82.0372 24.282 82.5409 23.7442 82.9116C23.2064 83.2822 22.5818 83.5073 21.9312 83.5647C21.2805 83.6221 20.6261 83.5099 20.0318 83.2391C19.4374 82.9683 18.9233 82.5481 18.5397 82.0195C18.0986 81.4461 17.8594 80.743 17.8594 80.0195C17.8594 79.2961 18.0986 78.5929 18.5397 78.0195C19.1397 79.3695 20.2397 80.8795 21.8097 81.0195C23.0581 81.0483 24.2891 80.7224 25.3597 80.0795V80.0795Z" fill="#473877"/>
</g>
<g style="mix-blend-mode:multiply" opacity="0.3">
<path d="M20.5004 83.4199C19.7198 83.1585 19.0388 82.6626 18.5504 81.9999C18.1093 81.4265 17.8701 80.7233 17.8701 79.9999C17.8701 79.2765 18.1093 78.5733 18.5504 77.9999C18.7051 77.7815 18.8828 77.5804 19.0804 77.3999C18.7904 79.2699 18.9104 81.7699 20.5004 83.4199Z" fill="#473877"/>
</g>
<g style="mix-blend-mode:multiply" opacity="0.6">
<path d="M21.4198 77.6997C21.3622 77.5726 21.3392 77.4326 21.3533 77.2939C21.3674 77.1551 21.4179 77.0226 21.4998 76.9097C21.4998 76.9097 22.0398 77.2497 22.0498 77.5897C22.1985 77.3412 22.4334 77.1561 22.7098 77.0697C22.7559 77.1319 22.7878 77.2035 22.8032 77.2794C22.8186 77.3553 22.8173 77.4337 22.7991 77.509C22.781 77.5843 22.7466 77.6547 22.6984 77.7153C22.6501 77.7759 22.5891 77.8252 22.5198 77.8597C22.6235 77.9234 22.7027 78.0203 22.7444 78.1346C22.7862 78.249 22.7881 78.3741 22.7498 78.4897C22.6235 78.4937 22.4981 78.4667 22.3848 78.4109C22.2714 78.3551 22.1735 78.2722 22.0998 78.1697C22.0683 78.2928 22.0071 78.4063 21.9218 78.5005C21.8364 78.5946 21.7293 78.6664 21.6098 78.7097C21.5148 78.6414 21.4467 78.5419 21.4175 78.4286C21.3883 78.3153 21.3997 78.1954 21.4498 78.0897C21.4498 78.0897 20.9698 78.2397 20.7598 77.9597C20.7598 77.9997 21.0998 77.5697 21.4198 77.6997Z" fill="#473E6D"/>
</g>
<g style="mix-blend-mode:screen" opacity="0.5">
<path d="M24.53 78.6597C24.5431 78.7235 24.5433 78.7892 24.5307 78.853C24.5181 78.9168 24.4929 78.9775 24.4566 79.0315C24.4203 79.0855 24.3736 79.1317 24.3193 79.1675C24.2649 79.2032 24.204 79.2278 24.14 79.2397C24.0089 79.2633 23.8738 79.2347 23.7635 79.1599C23.6533 79.0852 23.5767 78.9703 23.55 78.8397C23.5262 78.7071 23.5559 78.5705 23.6328 78.4598C23.7097 78.3492 23.8274 78.2736 23.96 78.2497C24.0926 78.2259 24.2293 78.2557 24.3399 78.3325C24.4506 78.4094 24.5262 78.5271 24.55 78.6597H24.53Z" fill="#473877"/>
</g>
<path d="M65.6902 45.2096C65.968 45.497 66.1856 45.837 66.3302 46.2096C66.6075 46.9117 66.626 47.6896 66.3823 48.4042C66.1386 49.1187 65.6487 49.7232 65.0002 50.1096C64.3951 50.4582 63.6936 50.602 63.0002 50.5196C62.3936 50.4715 61.8201 50.2235 61.3695 49.8145C60.9189 49.4056 60.6167 48.8587 60.5102 48.2596C60.4645 48.0393 60.4444 47.8145 60.4502 47.5896C60.4466 47.2101 60.5181 46.8336 60.6606 46.4817C60.803 46.1299 61.0136 45.8097 61.2802 45.5396C61.5452 45.2241 61.8707 44.9647 62.2374 44.7769C62.6042 44.589 63.0048 44.4764 63.4157 44.4456C63.8266 44.4149 64.2395 44.4666 64.6301 44.5978C65.0207 44.729 65.3812 44.937 65.6902 45.2096V45.2096Z" fill="#544691"/>
<g style="mix-blend-mode:multiply" opacity="0.2">
<path d="M65.6898 45.21C65.9676 45.4973 66.1852 45.8373 66.3298 46.21C66.5343 46.7207 66.602 47.276 66.5261 47.821C66.4502 48.3659 66.2333 48.8816 65.8969 49.317C65.5605 49.7523 65.1163 50.0923 64.6082 50.3033C64.1 50.5143 63.5456 50.589 62.9998 50.52C62.3932 50.4718 61.8197 50.2239 61.3691 49.8149C60.9185 49.4059 60.6163 48.8591 60.5098 48.26C61.6898 48.66 63.2498 48.83 64.2198 47.93C64.9557 47.1795 65.4652 46.2368 65.6898 45.21V45.21Z" fill="#473877"/>
</g>
<g style="mix-blend-mode:multiply" opacity="0.3">
<path d="M65.0002 50.1098C64.3951 50.4585 63.6936 50.6023 63.0002 50.5198C62.3936 50.4717 61.8201 50.2237 61.3695 49.8148C60.9189 49.4058 60.6167 48.859 60.5102 48.2598C60.4645 48.0396 60.4444 47.8147 60.4502 47.5898C60.9709 48.3244 61.6503 48.9323 62.4379 49.3685C63.2256 49.8047 64.1013 50.0581 65.0002 50.1098Z" fill="#473877"/>
</g>
<g style="mix-blend-mode:multiply" opacity="0.6">
<path d="M62.0005 46.2999C61.8895 46.2631 61.7902 46.1973 61.7128 46.1095C61.6355 46.0216 61.583 45.9148 61.5605 45.7999C61.5605 45.7999 62.0805 45.6599 62.2905 45.8499C62.2062 45.6242 62.2062 45.3756 62.2905 45.1499C62.2905 45.1499 62.7305 45.1499 62.6705 45.7099C62.7682 45.6827 62.8722 45.6885 62.9662 45.7265C63.0603 45.7645 63.1391 45.8325 63.1905 45.9199C63.1226 46.0027 63.0344 46.0664 62.9345 46.105C62.8346 46.1435 62.7265 46.1556 62.6205 46.1399C62.6784 46.2295 62.714 46.3315 62.7244 46.4376C62.7348 46.5437 62.7198 46.6508 62.6805 46.7499C62.5854 46.7689 62.4866 46.7544 62.4009 46.7089C62.3152 46.6633 62.2479 46.5895 62.2105 46.4999C62.2105 46.4999 62.0205 46.8799 61.7405 46.8499C61.7705 46.8499 61.7105 46.4199 62.0005 46.2999Z" fill="#473E6D"/>
</g>
<g style="mix-blend-mode:screen" opacity="0.5">
<path d="M64.3399 44.9197C64.4314 44.9792 64.4961 45.0719 64.5203 45.1783C64.5446 45.2847 64.5265 45.3964 64.4699 45.4897C64.4421 45.5368 64.4052 45.5779 64.3613 45.6105C64.3175 45.6432 64.2675 45.6667 64.2144 45.6798C64.1613 45.6928 64.1061 45.6951 64.0521 45.6865C63.9981 45.6779 63.9463 45.6586 63.8999 45.6297C63.8524 45.601 63.8111 45.5631 63.7783 45.5184C63.7456 45.4736 63.722 45.4228 63.709 45.3689C63.696 45.3149 63.6938 45.259 63.7025 45.2042C63.7112 45.1494 63.7307 45.0969 63.7599 45.0497C63.8212 44.9575 63.9158 44.8925 64.0238 44.8683C64.1319 44.8441 64.2451 44.8625 64.3399 44.9197Z" fill="#473877"/>
</g>
<path d="M22.7801 28.8298C22.2918 28.4505 21.735 28.1687 21.1401 27.9998C20.7521 27.88 20.3583 27.7798 19.9601 27.6998C19.4801 27.5998 19.1501 27.5598 19.1501 27.5598C19.1501 27.5598 11.2401 18.9998 7.17013 13.9998C3.29013 9.26977 -1.67987 2.26978 0.560129 0.439775C0.669236 0.347264 0.790329 0.269899 0.920129 0.209775C1.32872 0.0379391 1.77422 -0.0274273 2.21495 0.0197936C2.65568 0.0670145 3.07722 0.225279 3.44013 0.479775C5.51013 1.67978 7.79013 5.08977 10.6501 9.35977C14.1401 14.5798 22.7801 28.8298 22.7801 28.8298Z" fill="url(#paint0_linear)"/>
<g style="mix-blend-mode:multiply" opacity="0.4">
<path d="M20.0001 27.7399C19.5201 27.6399 19.1901 27.5999 19.1901 27.5999C19.1901 27.5999 11.2401 18.9999 7.17013 13.9999C3.29013 9.26994 -1.67987 2.26994 0.560129 0.439941C0.480129 1.88994 1.00013 4.74994 4.30013 9.10994C8.34013 14.4199 17.0701 24.4299 20.0001 27.7399Z" fill="#E8B254"/>
</g>
<path style="mix-blend-mode:screen" opacity="0.5" d="M3.37047 1.56969C4.29047 1.07969 10.3705 11.3397 13.1805 15.4397C13.1805 15.4397 8.82047 10.6697 6.18047 7.19969C3.08047 3.21969 2.50047 1.99969 3.37047 1.56969Z" fill="url(#paint1_linear)"/>
<path style="mix-blend-mode:multiply" opacity="0.3" d="M21.1401 27.9998C20.7521 27.88 20.3583 27.7798 19.9601 27.6998C19.4801 27.5998 19.1501 27.5598 19.1501 27.5598C19.1501 27.5598 11.2401 18.9998 7.17013 13.9998C3.29013 9.26977 -1.67987 2.26978 0.560129 0.439775C0.669236 0.347264 0.790329 0.269899 0.920129 0.209775C1.32872 0.0379391 1.77422 -0.0274273 2.21495 0.0197936C2.65568 0.0670145 3.07722 0.225279 3.44013 0.479775C2.24013 0.689775 1.05013 1.65978 2.24013 4.60978C3.79013 8.42978 16.6101 23.1598 19.1101 25.6798C19.8473 26.398 20.5261 27.1738 21.1401 27.9998V27.9998Z" fill="url(#paint2_linear)"/>
</g>
<defs>
<linearGradient id="paint0_linear" x1="21.5001" y1="32.0398" x2="-3.63987" y2="-7.64023" gradientUnits="userSpaceOnUse">
<stop stop-color="#FECE6D"/>
<stop offset="0.99" stop-color="#FFB550"/>
</linearGradient>
<linearGradient id="paint1_linear" x1="2.76047" y1="1.38969" x2="14.2305" y2="16.7297" gradientUnits="userSpaceOnUse">
<stop stop-color="#7E7973"/>
<stop offset="1" stop-color="#9B9B9B"/>
</linearGradient>
<linearGradient id="paint2_linear" x1="354.066" y1="736.551" x2="-77.9072" y2="178.842" gradientUnits="userSpaceOnUse">
<stop stop-color="#FECE6D"/>
<stop offset="0.99" stop-color="#FFB550"/>
</linearGradient>
<clipPath id="clip0">
<rect width="86.19" height="83.58" fill="white"/>
</clipPath>
</defs>
</svg>
