<svg width="71
" height="45" viewBox="0 0 81 45" fill="none" xmlns="http://www.w3.org/2000/svg">
<g clip-path="url(#clip0)">
<path d="M27.6406 16.9202L33.0006 14.0002H34.9406C35.2887 14.1316 35.6235 14.2956 35.9406 14.4902C36.1963 14.5932 36.4775 14.6149 36.7459 14.5522C37.0144 14.4896 37.257 14.3457 37.4406 14.1402C37.7379 13.8725 38.0753 13.6531 38.4406 13.4902C39.5706 13.0902 40.7706 12.9302 41.9006 12.4902C42.4506 12.3102 43.0106 12.1602 43.5606 11.9702C44.6306 11.6502 44.7606 10.6902 44.9806 9.79018C45.0767 9.39355 45.2141 9.00811 45.3906 8.64018C46.1006 7.25018 47.9806 7.29018 48.6906 5.90018C48.8698 5.36605 49.1541 4.8732 49.5268 4.4507C49.8995 4.0282 50.353 3.68461 50.8606 3.44018C51.3116 3.29024 51.7879 3.23159 52.2617 3.26764C52.7356 3.3037 53.1975 3.43374 53.6206 3.65018C53.764 3.7364 53.8874 3.85212 53.9827 3.98967C54.0779 4.12722 54.1428 4.28345 54.1731 4.448C54.2033 4.61255 54.1983 4.78165 54.1582 4.94409C54.1181 5.10653 54.044 5.25859 53.9406 5.39018C53.6206 6.03018 52.8006 6.46018 53.1206 7.39018C55.3206 7.53018 57.0206 8.26018 57.3706 10.7002C57.4505 11.1601 57.4505 11.6303 57.3706 12.0902C57.2458 12.4106 57.0574 12.7025 56.8168 12.9483C56.5762 13.194 56.2884 13.3885 55.9706 13.5202C55.0792 13.5778 54.1901 13.3764 53.4106 12.9402C50.0406 11.9402 52.4106 15.9402 50.5106 16.2102C50.1608 16.4369 49.7462 16.5423 49.3306 16.5102C48.7818 16.2779 48.1892 16.1675 47.5936 16.1865C46.9979 16.2054 46.4135 16.3534 45.8806 16.6202C44.2107 17.1935 42.5748 17.8613 40.9806 18.6202C40.465 18.9233 39.9795 19.2748 39.5306 19.6702C39.112 20.0733 38.7366 20.519 38.4106 21.0002C37.9718 22.1521 37.2896 23.1959 36.4106 24.0602C35.6373 24.8384 34.6211 25.3289 33.5306 25.4502C31.4806 24.2902 31.7806 20.9802 28.9806 20.5102C28.6949 20.1699 28.5173 19.7521 28.4706 19.3102C28.1906 18.4702 30.8706 16.7002 27.6406 16.9202Z" fill="#CEB254"/>
<path d="M29.8801 34.33L28.0301 34.53C26.5801 33.44 26.5101 31.59 25.6201 30.2C25.0701 28.42 26.0301 27.43 27.4601 26.69C28.1056 26.4104 28.8227 26.3404 29.5101 26.49C30.5101 27.32 31.4401 26.49 32.4101 26.34C32.7592 26.3256 33.1075 26.3839 33.4329 26.5113C33.7583 26.6387 34.0536 26.8324 34.3001 27.08C34.5537 27.4798 34.7007 27.9378 34.727 28.4105C34.7532 28.8832 34.6579 29.3547 34.4501 29.78C32.674 31.0197 31.1275 32.5594 29.8801 34.33V34.33Z" fill="#DBBB58"/>
<path d="M19.7797 34.1305L15.8897 34.0005C14.8897 32.9305 15.3397 31.8405 15.8097 30.7405C16.0304 30.3374 16.3064 29.9671 16.6297 29.6405L19.9997 27.3705C20.4309 27.1836 20.8976 27.093 21.3674 27.1051C21.8372 27.1172 22.2987 27.2316 22.7197 27.4405C23.1094 27.7335 23.4161 28.123 23.6097 28.5705C23.7467 29.0351 23.8207 29.5161 23.8297 30.0005C23.7844 30.8676 23.5181 31.7087 23.056 32.4438C22.5939 33.179 21.9514 33.7837 21.1897 34.2005C20.9619 34.2833 20.7198 34.3198 20.4776 34.3077C20.2355 34.2957 19.9982 34.2354 19.7797 34.1305V34.1305Z" fill="#DBBF57"/>
<path d="M29.8799 34.3302C30.1899 31.8802 29.9999 29.0002 33.9999 30.0802C34.1997 29.9352 34.4462 29.8693 34.6917 29.8952C34.9373 29.921 35.1646 30.0368 35.3299 30.2202C35.8782 31.089 36.1501 32.1037 36.1099 33.1302C36.152 34.1501 35.8645 35.1565 35.2899 36.0002C35.2083 36.0903 35.1088 36.1623 34.9977 36.2116C34.8866 36.2609 34.7664 36.2864 34.6449 36.2864C34.5233 36.2864 34.4032 36.2609 34.2921 36.2116C34.181 36.1623 34.0814 36.0903 33.9999 36.0002C32.4799 35.7502 30.6799 36.2502 29.8799 34.3302Z" fill="#DBBD5E"/>
<path d="M35.1104 15.2803L34.9004 13.9303C37.3104 11.7303 34.5104 8.25035 36.9004 6.04035C38.6804 6.04035 40.4504 3.63035 42.2604 6.04035C42.3848 6.58256 42.3846 7.14591 42.2599 7.68804C42.1352 8.23017 41.8892 8.73698 41.5404 9.17035C40.9571 9.7525 40.4031 10.3633 39.8804 11.0003C39.2704 12.0603 38.8804 13.2803 37.8804 14.1003V14.0503C37.2004 14.9103 36.3804 15.6503 35.1104 15.2803Z" fill="#D5B45C"/>
<path d="M42.0005 43.0002C40.2305 46.4302 38.5305 44.0002 36.8105 42.9502C36.6492 41.5398 37.0045 40.1187 37.8105 38.9502C38.3849 38.5017 39.0962 38.2649 39.8247 38.2794C40.5532 38.294 41.2545 38.5591 41.8105 39.0302L42.8705 39.9402C43.7205 41.2302 43.2505 42.2002 42.0005 43.0002Z" fill="#EADA96"/>
<path d="M76 34.0001L74.3 33.2001L73.7 33.0501C73.4938 32.0304 73.6457 30.9708 74.13 30.0501C74.3386 29.7002 74.6098 29.3918 74.93 29.1401C75.93 27.9001 77.2 27.1401 78.8 27.7701C80.4 28.4001 80.08 29.8601 79.8 31.1801C78.52 32.1401 77.78 33.7901 76 34.0001Z" fill="#C2B06E"/>
<path d="M51 35.0002C51.9 36.4802 50.07 37.0002 49.94 38.1602C48.71 38.9802 47.53 39.9802 45.94 39.1602L44.63 38.0002C44.52 36.7702 43.93 35.5302 44.63 34.2902C44.919 33.9238 45.3033 33.6442 45.7408 33.4819C46.1783 33.3196 46.652 33.2809 47.11 33.3702C47.9 32.8302 47.75 35.3702 48.83 33.8902C49.164 33.722 49.5472 33.6794 49.91 33.7702C50.38 34.1102 50.58 34.7002 51 35.0002Z" fill="#D6C176"/>
<path d="M1.08017 40.84C0.150174 39.84 -0.649826 38.84 0.780174 37.54C2.37017 36.1 4.00017 35.26 6.00017 36.69C6.21569 36.9901 6.35397 37.3387 6.40281 37.705C6.45164 38.0712 6.40952 38.4439 6.28017 38.79C5.69527 39.5877 4.89654 40.2035 3.97634 40.5662C3.05614 40.929 2.05205 41.0239 1.08017 40.84V40.84Z" fill="#D8C06F"/>
<path d="M16.7901 41.9301C14.7901 38.4001 15.4001 36.1601 19.7901 35.8301C20.6601 35.5401 21.0801 35.9901 21.3101 36.7401C21.379 37.189 21.3019 37.6483 21.0901 38.0501C20.815 38.202 20.5739 38.4084 20.3813 38.6567C20.1888 38.905 20.0489 39.19 19.9703 39.4942C19.8916 39.7984 19.8759 40.1155 19.924 40.426C19.9721 40.7365 20.0831 41.0339 20.2501 41.3001C20.2092 41.5244 20.1177 41.7365 19.9826 41.9202C19.8474 42.1039 19.6721 42.2543 19.4701 42.3601C18.5542 42.5468 17.6016 42.394 16.7901 41.9301V41.9301Z" fill="#D6C17A"/>
<path d="M68.7498 40.9203L69.7498 41.9203C68.4898 44.7003 66.0698 44.0503 63.8398 43.9203L63.0898 40.9203C64.9998 39.7403 66.8798 40.1903 68.7498 40.9203Z" fill="#D6C082"/>
<path d="M16.8405 30.8701C16.5205 31.8701 16.2005 32.9301 15.8905 33.9501C15.5205 36.7701 13.5505 35.8201 11.8905 35.6501C11.1105 34.8901 11.4805 34.2001 11.9805 33.5101C12.4805 32.8201 12.6405 32.4401 11.8405 31.9701C11.698 31.839 11.5843 31.6798 11.5066 31.5025C11.4288 31.3252 11.3887 31.1337 11.3887 30.9401C11.3887 30.7465 11.4288 30.555 11.5066 30.3778C11.5843 30.2005 11.698 30.0412 11.8405 29.9101C12.1228 29.7846 12.4362 29.7463 12.7405 29.8001C14.5005 28.7001 15.8505 29.0701 16.8405 30.8701Z" fill="#DDC574"/>
<path d="M74.9298 29.1401L74.8698 30.3301C74.3321 30.7283 73.7251 31.0232 73.0798 31.2001C71.9974 31.5461 70.8661 31.7149 69.7298 31.7001C69.2729 31.593 68.8564 31.357 68.5298 31.0201C68.0389 30.2002 67.8714 29.2268 68.0598 28.2901C68.1752 27.8409 68.3792 27.4193 68.6598 27.0501C69.3633 26.6923 70.1398 26.5017 70.929 26.493C71.7181 26.4843 72.4987 26.6578 73.2098 27.0001C73.7798 27.7101 74.3598 28.4201 74.9298 29.1401Z" fill="#D6BF7F"/>
<path d="M73.2098 27.0002C72.5932 27.4558 71.8528 27.7131 71.0866 27.7381C70.3204 27.7631 69.5647 27.5546 68.9198 27.1402C67.5798 27.4002 67.4098 26.4702 67.2598 25.5202C67.2738 25.1831 67.3728 24.8551 67.5476 24.5666C67.7225 24.2781 67.9675 24.0385 68.2598 23.8702C69.5698 23.3702 70.6298 24.7702 71.9298 24.3502V23.9002C73.1398 24.6002 73.1198 25.8202 73.2098 27.0002Z" fill="#D1B96A"/>
<path d="M42.0004 6.12008C40.3204 5.00008 38.5504 8.10008 36.8604 6.00008C37.1343 5.41125 37.5684 4.91141 38.1131 4.55773C38.6578 4.20404 39.291 4.01079 39.9403 4.00008C40.2268 3.77353 40.5625 3.61748 40.9203 3.54453C41.2781 3.47157 41.6481 3.48375 42.0004 3.58008C43.1204 4.13008 44.3804 4.58008 44.0004 6.25008C43.7124 6.48543 43.3459 6.60288 42.9748 6.57876C42.6036 6.55463 42.2554 6.39073 42.0004 6.12008V6.12008Z" fill="#DDC46F"/>
<path d="M27.9303 35L25.7603 34.81C24.9603 33.33 23.2203 31.95 25.2703 30.18L25.9103 29.98C28.7903 30.41 27.5803 32.74 27.9103 34.35C27.9892 34.5584 27.9962 34.7871 27.9303 35Z" fill="#EDE195"/>
<path d="M1.08008 40.8402C2.66008 40.1102 4.08008 38.9402 5.91008 38.9102C6.09856 39.102 6.2464 39.33 6.34475 39.5803C6.4431 39.8307 6.48994 40.0983 6.48247 40.3672C6.475 40.636 6.41338 40.9006 6.30128 41.1451C6.18918 41.3896 6.02892 41.609 5.83008 41.7902C4.16008 41.8802 2.37008 42.6402 1.08008 40.8402Z" fill="#E8C96C"/>
<path d="M41.9398 34.22C41.55 34.0398 41.1045 34.0217 40.7013 34.1699C40.2981 34.318 39.9703 34.6202 39.7898 35.01C38.6398 35.5 38.2898 34.58 37.7898 33.88C37.6102 33.4776 37.5214 33.0406 37.5298 32.6C37.641 32.0515 37.9255 31.5531 38.3414 31.1786C38.7574 30.8041 39.2827 30.5732 39.8398 30.52C40.6116 30.5481 41.3522 30.8313 41.9457 31.3253C42.5393 31.8193 42.9522 32.4962 43.1198 33.25C43.0598 34 42.7798 34.44 41.9398 34.22Z" fill="#C7AE52"/>
<path d="M11.8498 29.9102L12.6498 31.9102C13.4698 32.4802 13.4498 33.1302 12.8198 33.8302L11.9098 35.6202C10.1598 34.5502 9.90977 32.8302 9.96977 31.0202L11.8498 29.9102Z" fill="#CFBC87"/>
<path d="M72.9098 41.8604C71.7198 39.6404 71.8498 38.0604 74.8398 37.8604C75.2621 38.2831 75.5124 38.8477 75.542 39.4445C75.5715 40.0414 75.3783 40.6279 74.9998 41.0904C74.7549 41.3973 74.4307 41.6313 74.0622 41.7671C73.6938 41.9028 73.2952 41.9351 72.9098 41.8604V41.8604Z" fill="#D6C691"/>
<path d="M61.0005 12H64.0005L65.0005 13C64.4205 14.11 63.2705 14.71 62.5805 15.72C62.3728 15.9677 62.1036 16.1563 61.7999 16.2669C61.4962 16.3775 61.1688 16.4062 60.8505 16.35C59.7105 15.65 58.4105 15.16 57.7305 13.87C58.1105 12 59.5805 12 61.0005 12Z" fill="#DAC168"/>
<path d="M62 15.0902C62 12.9902 63.56 13.0902 65 12.9902L66 13.9902C66.5 15.1502 65.8 15.8302 65 16.4702C64.7141 16.5937 64.4054 16.6555 64.0939 16.6519C63.7825 16.6482 63.4754 16.579 63.1924 16.4489C62.9095 16.3187 62.6571 16.1305 62.4517 15.8964C62.2462 15.6623 62.0923 15.3877 62 15.0902V15.0902Z" fill="#B7A263"/>
<path d="M75.0006 41.0901C75.0006 40.0201 74.9306 38.9501 74.8906 37.8701L77.8206 38.0301C77.3806 39.5601 77.8506 41.8801 75.0006 41.0901Z" fill="#DFD695"/>
<path d="M7.92055 37.8904C7.98334 39.3077 7.59468 40.7083 6.81055 41.8904C6.48055 41.8904 6.15055 41.8905 5.81055 41.8105C5.81055 40.8105 5.81055 39.8905 5.89055 38.9305C5.89055 38.1905 5.96055 37.4504 5.99055 36.7104L7.92055 37.8904Z" fill="#E2CD92"/>
<path d="M64.9405 16.1103C65.3005 15.4203 65.6505 14.7203 66.0005 14.0303C66.2679 14.1068 66.5429 14.1538 66.8205 14.1703C66.9705 15.6003 67.2705 17.0603 65.9605 18.1703C64.3105 18.1303 64.2605 17.3003 64.9405 16.1103Z" fill="#B79E58"/>
<path d="M20.8898 36.8203C21.1856 36.84 21.4796 36.88 21.7698 36.9403C21.7698 38.5603 21.7198 40.1903 21.6998 41.8103C21.4098 41.8103 21.1098 41.8803 20.8198 41.9003C20.4998 42.3303 20.1898 42.3203 19.8998 41.9003L19.7398 40.7703C19.2998 39.5703 20.0398 38.7703 20.7398 38.0603L20.8898 36.8203Z" fill="#D0B760"/>
<path d="M76 34.0002C77.2 33.0002 78 31.4402 79.8 31.1602C79.91 31.4291 79.9512 31.7213 79.92 32.0102C78.81 33.1202 78.17 35.0802 76 34.0002Z" fill="#A88342"/>
<path d="M45.8506 39L49.8506 38C49.8506 38.62 49.8506 39.24 49.7806 39.86C48.4506 39.81 47.0006 40.29 45.8506 39Z" fill="#FBF3C7"/>
<path d="M38.0004 33.0703L39.7904 35.0003L39.9104 36.0003L36.9104 36.0803C36.3104 34.7503 36.9104 33.8203 38.0004 33.0703Z" fill="#DECA76"/>
<path d="M19.9003 41.8704C20.2067 41.8505 20.514 41.8505 20.8203 41.8704C19.4903 44.1304 18.1403 43.4404 16.8203 41.8704H19.9003Z" fill="#C1B684"/>
<path d="M20.8401 21.8601C21.6901 19.4301 23.8401 19.8601 25.7001 19.6201C26.4401 20.2401 26.2701 21.1801 26.5501 21.9601C26.8401 22.9601 27.1801 23.9601 27.4501 24.9601C27.5188 25.3825 27.5018 25.8144 27.4001 26.2301C26.6101 27.6301 25.6501 27.1201 24.6801 26.4901C24.1968 26.0979 23.79 25.6199 23.4801 25.0801C23.2621 24.6477 22.9507 24.269 22.5685 23.9716C22.1863 23.6741 21.7428 23.4653 21.2701 23.3601C20.7401 23.0001 20.3401 22.5401 20.8401 21.8601Z" fill="#DABF6C"/>
<path d="M23.7905 24.8801L24.8805 25.8801C24.8005 26.0701 24.7205 26.2601 24.6505 26.4501C24.221 27.1483 23.5587 27.6724 22.7805 27.9301H19.9205C19.601 27.6832 19.3838 27.3272 19.3105 26.9301C19.347 26.5225 19.5363 26.1438 19.8405 25.8701C20.1505 24.5401 19.4905 22.9601 20.8405 21.8701L21.9205 22.9201C22.6697 23.4406 23.3058 24.1073 23.7905 24.8801V24.8801Z" fill="#D2C078"/>
<path d="M19.84 25.8304C19.84 26.2104 19.84 26.5804 19.84 26.9604C18.84 27.8804 17.84 28.9604 16.89 29.8904V30.8904L12.75 29.8004C14.52 27.4104 16.59 25.5604 19.84 25.8304Z" fill="#DACB87"/>
<path d="M27.5504 16.7202C28.7404 17.0402 31.4504 16.4902 28.8304 18.9702C28.5966 19.1998 28.3147 19.3745 28.0052 19.4817C27.6956 19.589 27.366 19.626 27.0404 19.5902C26.6312 19.4561 26.2699 19.206 26.0004 18.8702C25.6804 17.5602 26.1404 16.7902 27.5504 16.7202Z" fill="#A38E58"/>
<path d="M26.0001 18.8701L27.0001 19.0001C27.3538 19.3907 27.5667 19.8884 27.6047 20.4139C27.6428 20.9395 27.5039 21.4627 27.2101 21.9001C27.0333 22.0871 26.7912 22.1988 26.5341 22.2118C26.2771 22.2248 26.0249 22.1383 25.8301 21.9701C24.8301 21.2301 25.9201 20.4101 25.7501 19.6401C25.7434 19.3625 25.8315 19.0908 26.0001 18.8701V18.8701Z" fill="#B6A455"/>
<path d="M66.9999 34.3704C64.3999 38.7404 62.2199 34.5605 59.8599 34.0205C58.4099 34.3105 58.2999 33.2205 58.0599 32.2705C58.0139 31.5287 58.2258 30.7938 58.6599 30.1905C58.9148 29.9423 59.217 29.748 59.5486 29.6191C59.8802 29.4903 60.2343 29.4295 60.5899 29.4405C62.0099 29.8205 63.2199 28.9804 64.5299 28.7104C65.2961 28.7418 66.0311 29.0225 66.6231 29.5098C67.2152 29.9972 67.6319 30.6646 67.8099 31.4104C67.8869 31.933 67.8546 32.4659 67.7152 32.9754C67.5758 33.4848 67.3322 33.9599 66.9999 34.3704V34.3704Z" fill="#B69F55"/>
<path d="M68.7504 40.9202C66.8604 41.6002 64.9904 41.0202 63.1104 40.8702C65.0004 37.4202 66.9104 36.5202 68.7504 40.9202Z" fill="#C7B77A"/>
<path d="M66.9997 34.3703C66.9997 33.2603 66.9997 32.1503 66.9297 31.0403C67.2004 30.7857 67.5581 30.644 67.9297 30.644C68.3013 30.644 68.6589 30.7857 68.9297 31.0403C69.2497 31.1203 69.5697 31.2103 69.9297 31.3103C70.7997 31.9103 71.9297 31.8403 72.8297 32.3103C73.197 32.5061 73.5176 32.779 73.7697 33.1103C73.9435 33.1727 74.1253 33.2098 74.3097 33.2203C72.1397 35.2603 69.3797 33.5703 66.9997 34.3703Z" fill="#A5904D"/>
<path d="M59.92 42.89C58.45 44.78 56.79 45.41 54.77 43.68C54.6216 43.4557 54.5251 43.201 54.4875 42.9347C54.4499 42.6683 54.4721 42.3969 54.5526 42.1402C54.633 41.8835 54.7697 41.648 54.9526 41.4508C55.1355 41.2535 55.3601 41.0996 55.61 41C56.68 40.41 57.32 41.21 57.95 41.92L59.92 42.89Z" fill="#EDE094"/>
<path d="M55.9001 37.0003C55.2448 36.8535 54.6713 36.4599 54.2988 35.9011C53.9263 35.3424 53.7835 34.6616 53.9001 34.0003C53.1001 32.8103 53.5601 32.0003 54.7201 31.4503C55.1073 31.34 55.5144 31.3187 55.9109 31.388C56.3075 31.4572 56.6832 31.6153 57.0101 31.8503C57.9201 33.8903 56.8201 35.4503 55.9001 37.0003Z" fill="#DBC36B"/>
<path d="M54.9297 32.0902C54.5828 32.2861 54.3023 32.5811 54.1241 32.9374C53.9459 33.2937 53.8782 33.6952 53.9297 34.0902C52.6397 33.4602 51.2097 32.4402 51.0497 35.0902L49.9497 34.0902C49.7891 33.9416 49.6623 33.7602 49.5777 33.5584C49.4932 33.3566 49.453 33.1389 49.4597 32.9202C49.6266 32.2577 50.0419 31.6848 50.6197 31.3202C51.5581 30.6503 52.6992 30.3253 53.8497 30.4002C54.3029 30.4878 54.7282 30.6833 55.0897 30.9702C55.1952 31.147 55.2368 31.3547 55.2077 31.5585C55.1786 31.7623 55.0805 31.95 54.9297 32.0902Z" fill="#BBAB6B"/>
<path d="M58.0005 41.88C56.0005 40.8 55.1305 41.76 54.8205 43.68H54.4605H54.0905C54.0517 43.3973 53.9565 43.1252 53.8105 42.88C53.9305 41.67 53.4105 40.13 55.3705 39.88C56.8205 39.71 57.8805 40.14 58.0005 41.88Z" fill="#DDC56A"/>
<path d="M55.9004 37.0003C55.9004 35.2903 55.9004 33.5603 57.0004 32.1003C57.0948 32.0201 57.2051 31.9608 57.3241 31.9262C57.443 31.8915 57.568 31.8824 57.6907 31.8994C57.8134 31.9164 57.9311 31.9591 58.0362 32.0248C58.1413 32.0904 58.2313 32.1775 58.3004 32.2803C58.5805 32.9883 58.5974 33.7733 58.3478 34.4927C58.0982 35.212 57.5988 35.8179 56.9404 36.2003L55.9004 37.0003Z" fill="#EDDF95"/>
<path d="M56.9404 36.2405C57.7038 35.0249 58.035 33.5875 57.8804 32.1604C57.9414 32.087 58.0179 32.0279 58.1043 31.9874C58.1907 31.9468 58.285 31.9258 58.3804 31.9258C58.4759 31.9258 58.5702 31.9468 58.6566 31.9874C58.743 32.0279 58.8194 32.087 58.8804 32.1604C58.9604 32.9204 59.0104 33.6804 59.8204 34.0704C60.1304 36.3804 58.2904 36.0005 56.9404 36.2405Z" fill="#DBC868"/>
<path d="M54.9403 31.1001H53.9403C53.3103 30.3201 52.2503 30.1001 51.5903 29.3501C51.0981 28.7307 50.7405 28.0155 50.5403 27.2501C50.5215 26.3171 50.3872 25.39 50.1403 24.4901C49.8003 23.8101 49.3903 23.1701 49.0403 22.4901C48.6678 21.7904 48.3534 21.0612 48.1003 20.3101C47.8201 19.5342 47.6288 18.7291 47.5303 17.9101C47.5536 17.5952 47.6422 17.2887 47.7902 17.0098C47.9382 16.7309 48.1426 16.4858 48.3903 16.2901L48.9803 16.0801L49.9803 16.1401C50.412 16.1096 50.8453 16.1704 51.2519 16.3186C51.6586 16.4667 52.0294 16.699 52.3403 17.0001C52.6198 17.5398 53.0261 18.0037 53.5242 18.352C54.0223 18.7003 54.5974 18.9227 55.2003 19.0001C55.8426 19.124 56.4501 19.3868 56.9803 19.7701C57.2506 20.1255 57.4074 20.5542 57.4303 21.0001C57.2386 22.3251 57.2151 23.6691 57.3603 25.0001C57.5703 26.1201 57.8503 27.2501 57.1303 28.3101C56.8722 28.4995 56.5675 28.6153 56.2488 28.6452C55.93 28.6751 55.6091 28.6181 55.3203 28.4801C54.8703 28.0401 55.4603 28.7001 55.0003 28.2201L55.1803 28.4201C55.3566 28.6403 55.4873 28.8934 55.5645 29.1647C55.6418 29.436 55.6642 29.72 55.6303 30.0001C55.5242 30.4313 55.2823 30.8169 54.9403 31.1001V31.1001Z" fill="#D7BA5C"/>
<path d="M41.79 3.91022C41.84 2.98022 41.89 2.05022 41.95 1.12022C44.27 -0.399784 46.38 -0.649784 47.95 2.12022C48.19 3.41022 47.32 3.27022 46.55 3.25022C46.4248 3.31997 46.2944 3.38015 46.16 3.43022C46.2033 3.58037 46.2567 3.72738 46.32 3.87022C46.54 4.18022 46.73 4.48022 46.94 4.79022C47.45 5.46162 48.1452 5.96913 48.94 6.25022C49.2956 6.49899 49.63 6.77659 49.94 7.08022C49.09 8.73022 46.8 7.49022 45.94 9.08022C45.7913 9.23985 45.5897 9.34002 45.3726 9.36209C45.1555 9.38417 44.9379 9.32664 44.76 9.20022C44.409 8.76364 44.1588 8.25486 44.0274 7.71029C43.8961 7.16571 43.8867 6.59883 44 6.05022L41.79 3.91022Z" fill="#D6BB64"/>
<path d="M48.0004 18.1204C48.3275 18.3335 48.5887 18.6335 48.7548 18.9868C48.9208 19.34 48.9851 19.7326 48.9404 20.1204C48.6504 20.4604 48.3504 20.7804 48.0304 21.1204C47.0304 21.8504 46.5904 23.4504 44.9404 23.3004C43.8704 22.5504 43.9404 21.0004 42.7304 20.3004C42.3704 20.1004 42.0204 19.8804 41.6704 19.6704C40.9221 19.3245 40.3126 18.736 39.9404 18.0004C41.9404 17.2704 43.3904 15.0004 45.9404 16.1004L46.4804 16.3304C47.1604 16.7704 47.4604 17.5504 48.0004 18.1204Z" fill="#D49C5A"/>
<path d="M27 26.1002C27 25.7502 27 25.4002 27 25.0402C27.0722 24.7143 27.213 24.4075 27.413 24.1402C27.613 23.8729 27.8676 23.6514 28.16 23.4902C31.1 22.1502 27.61 21.8202 27.74 20.9202C27.87 20.0202 28.15 19.6002 29.07 20.0802C33.6 18.9202 32.45 23.3502 34.01 25.0802C34.2738 25.3462 34.4218 25.7056 34.4218 26.0802C34.4218 26.4548 34.2738 26.8142 34.01 27.0802H32C31.32 26.3902 30.66 26.6702 30 27.0802H28C27.39 27.0602 27.26 26.5002 27 26.1002Z" fill="#DEC570"/>
<path d="M59.8998 6.13008C59.9894 6.42678 60.0497 6.73158 60.0798 7.04008C59.9536 7.63146 59.6583 8.17344 59.2298 8.60008C58.5603 9.31397 57.9484 10.0797 57.3998 10.8901C57.2398 11.0001 57.0798 11.1101 56.9098 11.2101C56.4498 7.32008 52.7098 9.65008 51.0098 8.10008C51.9256 7.30233 52.598 6.26257 52.9498 5.10008L53.7998 4.33008C54.6137 5.07274 55.5857 5.62069 56.6425 5.93252C57.6993 6.24435 58.8131 6.31191 59.8998 6.13008V6.13008Z" fill="#DCC280"/>
<path d="M52.0002 17.1102C51.6064 17.15 51.2093 17.0772 50.8552 16.9001C50.5012 16.7231 50.2047 16.4491 50.0002 16.1102C50.2202 15.5002 50.4902 14.9002 50.6602 14.2802C50.9402 13.2102 48.3802 12.5702 50.0002 11.4902C50.6155 11.0545 51.3754 10.8736 52.1209 10.9854C52.8665 11.0973 53.5399 11.4931 54.0002 12.0902C54.0802 13.4602 54.7602 14.7702 54.3302 16.1802C53.6802 17.0002 53.0602 17.6602 52.0002 17.1102Z" fill="#DDB956"/>
<path d="M37.89 20.2401L38.89 19.1001C39.5866 19.4284 40.2118 19.8905 40.73 20.4601C41.3799 21.174 42.0782 21.8423 42.82 22.4601C43.7306 23.0114 44.6957 23.4671 45.7 23.8201C46.25 24.4701 46.31 25.0801 45.56 25.6401C43.8788 26.3895 41.9944 26.5516 40.21 26.1001C39.6933 25.9677 39.2097 25.7293 38.79 25.4001C38.2421 24.6727 37.8748 23.8256 37.7183 22.9285C37.5619 22.0314 37.6207 21.11 37.89 20.2401V20.2401Z" fill="#D0B35A"/>
<path d="M33.9297 27.0903C33.9297 26.4303 33.9297 25.7703 33.9297 25.0903C34.5697 24.4303 35.2097 23.7703 35.8597 23.0903C36.6997 23.7303 37.8097 24.0903 38.2997 25.0903C39.0097 26.9403 37.5297 27.8903 36.6497 29.0903C36.2433 29.6192 35.6556 29.979 34.9997 30.1003C34.6797 30.1003 34.3597 30.1003 33.9997 30.1003C33.9997 29.0803 33.9997 28.0803 33.9297 27.0903Z" fill="#C8A63E"/>
<path d="M53.9103 16.1503C53.4803 14.8003 52.1303 13.4403 53.9103 12.0903L55.9103 13.0903C56.9603 13.3403 57.3003 14.2103 57.6103 15.0903C57.7075 15.5392 57.6473 16.008 57.4397 16.4177C57.2321 16.8274 56.8898 17.1532 56.4703 17.3403C55.1403 16.2903 55.3603 18.5503 54.4103 18.3403C53.3903 17.8103 53.1803 17.1003 53.9103 16.1503Z" fill="#CBB359"/>
<path d="M44.8804 9.08012H45.8804C45.8804 9.42012 45.8804 9.76012 45.8804 10.0801C44.8804 10.8101 44.8804 12.2001 43.9804 12.9901L41.8604 13.0501C40.6537 12.306 39.6287 11.3015 38.8604 10.1101C39.07 9.74225 39.3879 9.44791 39.7709 9.26719C40.1538 9.08647 40.5831 9.02813 41.0004 9.10012C41.5193 8.59631 42.2131 8.31285 42.9363 8.30912C43.6596 8.30539 44.3562 8.58168 44.8804 9.08012V9.08012Z" fill="#DBC063"/>
<path d="M38.9999 10.1602C40.9299 10.1602 41.8199 11.2602 41.9999 13.1002C40.9999 14.6702 39.3799 13.9602 37.9999 14.1002C37.8879 12.7123 38.2396 11.3266 38.9999 10.1602V10.1602Z" fill="#F9E69C"/>
<path d="M45.9999 2.12011C46.6599 2.23011 47.3199 3.23011 47.9999 2.12011C48.6407 2.07839 49.2779 2.24337 49.8179 2.59078C50.3579 2.93819 50.7722 3.44971 50.9999 4.05011C49.8299 4.78011 49.9999 5.97011 49.9399 7.05011H48.9399C47.9999 6.07011 46.9999 5.10011 45.9999 4.14011L45.8999 4.05011C45.7665 3.92381 45.662 3.77006 45.5938 3.59947C45.5255 3.42889 45.4951 3.24552 45.5046 3.06204C45.5141 2.87855 45.5633 2.69931 45.6489 2.53669C45.7344 2.37407 45.8541 2.23194 45.9999 2.12011V2.12011Z" fill="#E3BC61"/>
<path d="M38.0004 25.1603C37.7295 25.1738 37.4586 25.1321 37.2043 25.0377C36.95 24.9433 36.7175 24.7981 36.5211 24.611C36.3246 24.4239 36.1683 24.1989 36.0616 23.9494C35.9549 23.7 35.9001 23.4315 35.9004 23.1603L37.9004 20.2603C38.2504 21.8803 38.6104 23.5003 38.9604 25.1203C38.9064 25.1955 38.836 25.2575 38.7545 25.3014C38.6731 25.3454 38.5827 25.3703 38.4901 25.3742C38.3976 25.378 38.3054 25.3608 38.2206 25.3237C38.1357 25.2866 38.0604 25.2307 38.0004 25.1603V25.1603Z" fill="#AD9A4C"/>
<path d="M56.9297 15.0801L55.9297 13.0801L56.9797 12.0801C57.273 11.6436 57.676 11.2919 58.1481 11.0602C58.6202 10.8285 59.1449 10.725 59.6697 10.7601C60.2897 10.9801 60.4797 11.6701 61.0197 11.9901L57.9997 14.1201C58.1117 14.2072 58.1986 14.3226 58.2513 14.4544C58.304 14.5863 58.3207 14.7297 58.2997 14.8701C58.2997 15.1301 58.1797 15.2701 58.1097 15.2701C58.021 15.3385 57.9193 15.388 57.8107 15.4155C57.7022 15.4431 57.5892 15.4481 57.4786 15.4303C57.368 15.4125 57.2623 15.3723 57.1679 15.312C57.0735 15.2518 56.9924 15.1729 56.9297 15.0801V15.0801Z" fill="#DDB54E"/>
<path d="M35.1104 15.2801C35.4743 14.8807 35.9223 14.5669 36.4219 14.3611C36.9216 14.1554 37.4607 14.0628 38.0004 14.0901C37.9304 15.0001 38.3404 16.1701 37.2704 16.6401C36.2004 17.1101 35.6104 16.0901 35.1104 15.2801Z" fill="#F0DF9D"/>
<path d="M39.9997 21.1C38.9997 20.74 38.9997 19.93 38.9297 19.1L39.9397 18C40.7597 18.05 41.5297 18.21 41.8797 19.11C41.6997 20.22 40.8597 20.69 39.9997 21.1Z" fill="#F8E396"/>
<path d="M43.9999 13.0003C43.8299 11.5003 43.8299 10.1203 45.8999 10.0903C45.9999 11.5803 45.9999 13.0003 43.9999 13.0003Z" fill="#ECDB90"/>
<path d="M53.0006 5.12012C54.0006 7.24012 53.0006 8.00012 51.0006 8.10012C50.9088 7.44432 51.062 6.77768 51.431 6.22783C51.8 5.67798 52.3589 5.28357 53.0006 5.12012V5.12012Z" fill="#F1E491"/>
<path d="M59.8802 11.1304L56.9902 12.1304C56.9902 11.8404 56.9402 11.5404 56.9102 11.2504L57.0002 11.0004C57.7002 10.1304 58.0702 8.8504 59.5302 8.8804C60.4702 9.4804 60.7202 10.2204 59.8802 11.1304Z" fill="#DAC168"/>
<path d="M45.9404 16.0901C46.9404 14.5701 47.9404 13.0201 48.9404 16.0901L48.8304 16.2101C48.4495 16.5473 47.9618 16.7392 47.4532 16.752C46.9446 16.7648 46.4479 16.5977 46.0504 16.2801L45.9404 16.0901Z" fill="#D49C5A"/>
<path d="M28.92 19.88L27.87 20.93C27.9813 20.9937 28.0722 21.0877 28.1324 21.2009C28.1925 21.3142 28.2194 21.4421 28.21 21.57C28.21 21.83 28.12 21.95 28.05 21.95C27.8877 22.0472 27.6989 22.0909 27.5105 22.0747C27.322 22.0586 27.1433 21.9834 27 21.86C27 20.86 27 19.94 27 18.98H28.88L28.92 19.88Z" fill="#DCCC80"/>
<path d="M64.9399 16.1103C64.8944 16.5132 64.9642 16.9206 65.1412 17.2853C65.3183 17.65 65.5952 17.9569 65.9399 18.1703L65.9999 20.0003C66.2417 20.2676 66.3962 20.6023 66.4426 20.9597C66.4891 21.3171 66.4254 21.6801 66.2599 22.0003C66.0198 22.2531 65.7127 22.4324 65.3746 22.5174C65.0364 22.6024 64.6811 22.5895 64.3499 22.4803C63.2899 21.6003 62.8899 19.3403 60.7099 20.7203C60.056 20.9044 59.3639 20.9044 58.7099 20.7203C56.4299 19.1803 57.7099 17.9803 59.0699 16.7803C59.6428 16.3371 60.3456 16.0946 61.0699 16.0903L62.0199 15.0903L64.9399 16.1103Z" fill="#D6BB59"/>
<path d="M71.9101 24.3503C70.7901 25.3503 69.7501 25.3503 68.8301 24.0703C68.5741 23.8127 68.3896 23.4927 68.2949 23.142C68.2002 22.7912 68.1986 22.4219 68.2901 22.0703C68.5701 21.3703 68.9301 20.8003 69.8401 21.1303C70.8701 22.0003 70.4801 23.7603 71.9101 24.3503Z" fill="#AE9948"/>
<path d="M69.8406 21.15C69.5206 21.51 69.1906 21.86 68.8406 22.21C68.5905 22.4346 68.2948 22.6027 67.9739 22.7028C67.6529 22.8029 67.3141 22.8326 66.9806 22.79C66.5488 22.6746 66.1662 22.4219 65.8906 22.07C65.8906 21.39 65.8906 20.72 65.9606 20.07C67.2806 20.38 69.0006 19.4 69.8406 21.15Z" fill="#B8A360"/>
<path d="M26.8701 25.9001L27.8701 26.9501C27.1901 27.9501 25.6101 28.3401 25.8701 29.9501C25.4508 30.3146 24.91 30.5086 24.3546 30.4938C23.7991 30.479 23.2694 30.2565 22.8701 29.8701L23.0001 28.7901C23.8701 28.0001 24.0001 26.7201 24.8801 25.9401V25.8701C25.5401 26.0001 26.1901 27.0001 26.8701 25.9001Z" fill="#DFC773"/>
<path d="M29.8701 26.9301C30.0201 26.2001 29.9701 25.1901 31.0701 25.4101C31.4201 25.4801 31.6101 26.4101 31.8701 26.9001C31.2101 27.0001 30.5501 28.0001 29.8701 26.9301Z" fill="#DBBD5E"/>
<path d="M22.9001 29.8604L25.9001 29.9404C24.5501 31.5104 25.7501 33.1704 25.7601 34.7904C24.2225 34.0678 22.5243 33.7543 20.8301 33.8804C21.4601 32.5104 23.0001 31.6104 22.9001 29.8604Z" fill="#D5BB65"/>
<path d="M16.8702 29.8902C16.6602 27.7102 17.5702 26.6502 19.8202 26.9602C19.8202 27.2802 19.8702 27.6002 19.9202 27.9102C19.7902 30.0002 18.3702 30.0002 16.8702 29.8902Z" fill="#F4E49D"/>
<path d="M24.8403 25.9403C24.8403 27.3103 25.0703 28.8203 22.9603 28.7903C22.9195 28.4967 22.8594 28.206 22.7803 27.9203C22.8803 26.6603 23.4903 25.9103 24.8403 25.9403Z" fill="#FCE79C"/>
<path d="M38.0001 33.0702L37.0001 36.0702L34.8301 35.7802C34.8301 34.8702 34.9401 33.9602 35.0001 33.0502C35.3361 32.736 35.7398 32.5034 36.1801 32.3702C36.5222 32.32 36.8714 32.3559 37.1962 32.4746C37.521 32.5933 37.811 32.7912 38.0401 33.0502L38.0001 33.0702Z" fill="#EDDC95"/>
<path d="M35.8902 33C35.5784 33.0399 35.2645 33.0599 34.9502 33.06V30.06L35.8402 29C36.1515 29.0761 36.4386 29.2296 36.6746 29.4464C36.9107 29.6632 37.088 29.9362 37.1902 30.24C37.2756 30.7774 37.1973 31.328 36.9655 31.8203C36.7336 32.3126 36.3589 32.7236 35.8902 33V33Z" fill="#D1B455"/>
<path d="M44.8803 9.08027L41.0003 9.10027C40.7903 7.92027 41.5103 7.10027 42.0003 6.10027L44.0003 6.03027C45.0003 6.83027 44.8503 8.00027 44.8803 9.08027Z" fill="#F4E298"/>
<path d="M73.7599 33.0903H72.9399C72.7403 32.8948 72.5818 32.6614 72.4735 32.4039C72.3653 32.1463 72.3096 31.8697 72.3096 31.5903C72.3096 31.3109 72.3653 31.0344 72.4735 30.7768C72.5818 30.5192 72.7403 30.2859 72.9399 30.0903L74.8499 30.3003C74.8633 30.8145 74.7737 31.3262 74.5865 31.8054C74.3994 32.2845 74.1183 32.7214 73.7599 33.0903V33.0903Z" fill="#97802E"/>
<path d="M49.8601 32.8901C49.8601 33.2601 49.8601 33.6401 49.9401 34.0201L48.9401 34.1601C48.6001 34.5801 48.2901 34.5901 47.9901 34.1601L44.8301 34.3101L44.9001 34.2001C44.6901 31.4501 46.3101 30.3001 48.7201 29.8501C50.0501 30.4601 49.5701 31.8201 49.8601 32.8901Z" fill="#C8AA53"/>
<path d="M47.8602 33.9201C48.1924 33.8814 48.528 33.8814 48.8602 33.9201C48.7602 34.8001 49.2702 35.9201 48.0802 36.4101C47.9002 36.4901 47.3202 36.1701 47.3302 36.1201C47.4302 35.4001 47.6502 34.6601 47.8602 33.9201Z" fill="#F5E08E"/>
<path d="M20.7505 38.0003C20.4205 38.9003 20.0805 39.8103 19.7505 40.7103C18.6805 40.7103 17.7505 40.2903 18.0605 39.0503C18.3805 37.5303 19.6905 38.0003 20.7505 38.0003Z" fill="#F1E2A9"/>
<path d="M12.8202 33.8601C12.7702 33.2201 12.7102 32.5801 12.6602 31.9401C13.4302 31.2201 14.1802 31.4601 14.4502 32.3201C14.9002 33.7201 13.7302 33.7201 12.8202 33.8601Z" fill="#F2EBC9"/>
<path d="M59.8803 11.13C59.6703 10.45 59.4703 9.77 59.2603 9.13C58.6403 8.87667 58.5536 8.5 59.0003 8L60.0903 7C61.8303 8.38 60.8603 10.28 61.0903 12L59.8803 11.13Z" fill="#C3B17D"/>
<path d="M69.0006 31.0004H67.0006L64.0006 29.0904C63.0806 29.4004 62.7806 28.8404 62.6006 28.0904C62.618 26.9537 63.0358 25.8594 63.7806 25.0004C64.1947 24.8351 64.6565 24.8351 65.0706 25.0004C66.1455 26.2986 67.4854 27.3521 69.0006 28.0904C69.0006 29.0704 69.0006 30.0504 69.0006 31.0004Z" fill="#DBBF63"/>
<path d="M69.0002 28.0902C67.0002 28.0402 64.5602 28.6102 65.0602 25.1902C65.3332 24.8227 65.7199 24.5556 66.1602 24.4302C66.4987 24.3687 66.8476 24.3983 67.1709 24.516C67.4942 24.6338 67.7804 24.8354 68.0002 25.1002C67.982 25.4912 68.0644 25.8804 68.2395 26.2306C68.4145 26.5807 68.6764 26.8801 69.0002 27.1002C68.9302 27.4602 69.0002 27.7702 69.0002 28.0902Z" fill="#F0DC91"/>
<path d="M73 30.1201C73 31.1201 73 32.1201 73 33.1201C71.64 33.1201 70.2 33.2401 70 31.3201L73 30.1201Z" fill="#B19A4F"/>
<path d="M68 25.1004L65.77 25.0004C64.91 23.4904 66 22.8304 67.02 22.1504L68.87 22.2404C68.87 22.8604 68.87 23.4804 68.87 24.1004C68.53 24.4104 68.24 24.7604 68 25.1004Z" fill="#DECC7E"/>
<path d="M36.7906 30.1601C36.4806 29.7801 36.1606 29.4101 35.8506 29.0401L38.0006 25.1601C38.3206 25.1601 38.6506 25.1101 39.0006 25.1001C39.3506 25.0901 39.6406 25.1001 39.9506 25.1001C40.8106 26.0501 42.3006 26.3001 42.7706 27.6701C43.2406 29.2801 43.3606 30.8401 41.9806 32.1301L39.9806 31.0601L39.0806 30.3201C38.8409 30.1555 38.5669 30.0474 38.2794 30.0041C37.9918 29.9608 37.6981 29.9834 37.4206 30.0701L36.7906 30.1601Z" fill="#E2C366"/>
<path d="M41.9297 32.1302C41.9297 30.4902 41.9297 28.8502 41.9297 27.2102C43.3697 26.5002 44.4097 27.1402 45.3397 28.2102C46.3397 30.7502 45.0597 32.2102 42.8997 33.2102H42.9997L41.9297 32.1302Z" fill="#DECC7B"/>
<path d="M39.8706 30.0003L39.9306 31.0703L37.9906 33.0703L35.8906 33.0003L36.7906 30.1503L36.9806 30.0803C37.364 29.7059 37.8743 29.4898 38.41 29.4749C38.9456 29.4601 39.4672 29.6477 39.8706 30.0003Z" fill="#E7D56F"/>
<path d="M61.0002 16.1202L59.9302 17.1202C57.5802 18.0102 57.2302 16.9102 57.7602 14.9402C57.8102 14.6602 57.8602 14.3802 57.9202 14.1002C59.5002 14.0002 60.8702 14.1302 61.0002 16.1202Z" fill="#F6E79B"/>
<path d="M43 33.19C43.77 31.57 45.53 30.33 44.89 28.19C45.49 27.56 46.35 27.5 47.07 27.12C47.4256 26.9291 47.8012 26.7781 48.19 26.67C48.581 26.61 48.979 26.61 49.37 26.67C49.96 26.76 50.48 27.07 51.07 27.15C51.3802 27.3372 51.6259 27.6147 51.7742 27.9453C51.9225 28.2758 51.9664 28.6438 51.9 29C51.7249 29.3339 51.4482 29.6035 51.11 29.77C50.4124 30.0628 49.6527 30.1763 48.9 30.1C47.2422 31.0637 45.8637 32.4422 44.9 34.1L43 33.19Z" fill="#BFA656"/>
<path d="M27.0001 21.8602L28.0001 21.7202C30.2501 22.4302 28.6701 23.1302 28.0001 23.8302L26.9101 24.8302C25.7301 24.1602 25.9701 22.9702 25.8301 21.9302L27.0001 21.8602Z" fill="#CAA344"/>
<path d="M23.7901 24.8803C23.5259 24.9092 23.2586 24.8763 23.0094 24.7839C22.7602 24.6916 22.536 24.5425 22.3545 24.3483C22.173 24.1542 22.0392 23.9205 21.9638 23.6656C21.8884 23.4108 21.8735 23.1419 21.9201 22.8803C22.6101 22.6303 23.3001 21.9303 24.0501 22.7103C24.8001 23.4903 24.0001 24.1803 23.7901 24.8803Z" fill="#EFE490"/>
<path d="M61.0007 30.1102H59.0607L58.6607 29.6302C58.5858 29.2203 58.5858 28.8002 58.6607 28.3902C58.9907 27.1802 58.9407 25.8302 59.9307 24.8602C60.3551 24.7213 60.8166 24.75 61.2207 24.9402C61.6478 25.3205 61.9804 25.795 62.1922 26.3261C62.404 26.8573 62.489 27.4305 62.4407 28.0002C62.4844 28.4647 62.3644 28.9298 62.1014 29.3151C61.8385 29.7004 61.4491 29.9817 61.0007 30.1102V30.1102Z" fill="#C6A656"/>
<path d="M54.9397 31.1C54.9397 30.71 54.9897 30.32 55.0097 29.92C55.5485 29.4723 56.2312 29.2348 56.9315 29.2513C57.6319 29.2678 58.3026 29.5374 58.8197 30.01L59.0097 30.13C59.0097 30.79 59.0097 31.45 58.9297 32.13H57.9297H57.4897H56.9997H54.9297C54.9397 31.76 54.9997 31.43 54.9397 31.1Z" fill="#D9AE53"/>
<path d="M61 30.1104L62 28.2104C62.0439 28.1247 62.1096 28.052 62.1904 27.9996C62.2712 27.9472 62.3644 27.917 62.4606 27.9119C62.5568 27.9068 62.6526 27.9271 62.7385 27.9707C62.8244 28.0143 62.8973 28.0797 62.95 28.1604L63.95 29.1604C63.53 31.1904 62.62 31.8204 61 30.1104Z" fill="#DACE80"/>
<path d="M65.1005 32.3804C65.2605 32.6504 65.6705 33.0204 65.6305 33.3304C65.6258 33.5314 65.5783 33.729 65.4909 33.9101C65.4036 34.0912 65.2786 34.2515 65.1242 34.3803C64.9698 34.5091 64.7897 34.6034 64.5959 34.6569C64.4021 34.7104 64.1991 34.7218 64.0005 34.6904C63.7105 34.6904 63.2005 34.0804 63.2405 33.8204C63.4205 33.0004 64.0005 32.4804 65.1005 32.3804Z" fill="#E6D688"/>
<path d="M51.0005 29.1103C51.3133 29.1117 51.6252 29.0781 51.9305 29.0103C53.2105 29.1003 53.9305 29.7103 53.9305 31.0103L50.9305 32.0103C49.2205 31.0703 49.5105 30.0803 51.0005 29.1103Z" fill="#E9DC8D"/>
<path d="M50.9997 29.1101C50.672 29.5416 50.4946 30.0684 50.4946 30.6101C50.4946 31.1519 50.672 31.6787 50.9997 32.1101L49.9297 32.9201C48.7597 32.2801 49.1697 31.1101 48.9297 30.1401C49.1361 29.7847 49.4422 29.4977 49.8102 29.3146C50.1781 29.1315 50.5917 29.0604 50.9997 29.1101Z" fill="#A68D35"/>
<path d="M55.9997 25.1504C56.0597 23.7204 55.4797 22.1504 56.9197 21.0304C57.2472 20.8067 57.6286 20.6749 58.0243 20.6485C58.4199 20.6221 58.8155 20.7022 59.1697 20.8804C61.3797 22.5004 60.4497 24.0004 58.9997 25.5004C58.5168 25.7278 57.9799 25.8156 57.4497 25.7537C56.9196 25.6919 56.4173 25.4829 55.9997 25.1504V25.1504Z" fill="#F2E39C"/>
<path d="M56 25.15H59.09C59.39 24.71 59.71 24.69 60.03 25.15C59.84 26.51 60.42 28.06 59.11 29.15C58.7013 29.1848 58.2907 29.1105 57.92 28.9348C57.5494 28.7592 57.2319 28.4884 57 28.15C56.61 27.11 56.28 26.13 56 25.15Z" fill="#D7BC5E"/>
<path d="M51.0001 27.1704C50.3001 28.1704 49.5801 28.1704 48.8501 27.1704C48.0001 25.1204 47.6401 23.3304 51.0001 24.0004C52.5701 25.0004 51.1701 26.1004 51.0001 27.1704Z" fill="#EEE5A5"/>
<path d="M58.8899 21.15L56.8899 21.03C56.8899 20.7166 56.9099 20.4066 56.9499 20.1C56.1199 19.25 55.3199 18.4 55.9499 17.1C56.2889 16.8955 56.5628 16.599 56.7398 16.245C56.9169 15.8909 56.9897 15.4938 56.9499 15.1C57.24 15.0902 57.5282 15.05 57.8099 14.98C57.9499 16.28 58.5599 17.13 59.9799 17.16C59.7999 18.22 56.9099 18.32 58.9099 20.16C59.1799 20.38 59.2699 20.61 59.1799 20.83C59.0899 21.05 58.9999 21.15 58.8899 21.15Z" fill="#E6D180"/>
<path d="M53.9102 16.1504L54.8402 18.0504C54.9945 18.1624 55.1228 18.3064 55.2161 18.4727C55.3094 18.639 55.3656 18.8235 55.3808 19.0135C55.396 19.2036 55.3699 19.3947 55.3042 19.5737C55.2385 19.7527 55.1348 19.9153 55.0002 20.0504C52.7402 20.3504 51.7402 19.3671 52.0002 17.1004L53.9102 16.1504Z" fill="#D9C071"/>
<path d="M51.0006 24C49.0006 24.2 49.0006 25.78 48.8906 27.24L48.0006 27C46.7706 25.89 46.8806 24.5 47.1906 23.07C47.7806 21.91 48.5806 21.31 49.8906 22.07C50.2406 22.69 50.6106 23.33 51.0006 24Z" fill="#E4CC71"/>
<path d="M57 28.09C57.4106 28.0169 57.8338 28.0741 58.2103 28.2534C58.5869 28.4327 58.8979 28.7252 59.1 29.09C59.03 29.39 58.95 29.68 58.87 29.97L55 29.93C55 29.37 55 28.81 55 28.25L57 28.09Z" fill="#F1E89D"/>
<path d="M55.0501 28.2501C53.2001 27.9101 52.6101 26.8601 53.3801 24.8101C55.2301 25.3701 54.8601 26.9601 55.0901 28.2001L55.0501 28.2501Z" fill="#BB9938"/>
<path d="M54.9998 20.0601C54.9998 19.3901 54.8998 18.7201 54.8398 18.0601C55.1798 17.6901 54.5398 16.2101 55.9598 17.0601L56.9598 20.0601H54.9998Z" fill="#F3E08E"/>
<path d="M46.0899 16.2404L48.8699 16.1704L47.9999 18.1204C46.6899 18.1804 46.0599 17.5404 46.0899 16.2404Z" fill="#F6E6A5"/>
<path d="M49.8804 22.0001C49.4984 21.977 49.1173 22.0578 48.7775 22.2339C48.4377 22.41 48.1519 22.6747 47.9504 23.0001C45.9504 22.0701 45.9504 21.8901 48.0604 20.0801H48.9404C49.2504 20.7801 49.5604 21.4101 49.8804 22.0001Z" fill="#F3E091"/>
<path d="M46.0002 4.14044C48.2602 3.85044 49.2702 4.79044 48.9102 7.08044C46.6102 7.42044 45.8202 6.26044 46.0002 4.14044Z" fill="#F6E296"/>
<path d="M46.0004 2.12029C46.0004 2.76029 46.0004 3.40029 45.9204 4.05029C44.9204 3.97029 43.7904 3.79029 44.0804 2.45029C44.3704 1.11029 45.2904 2.00029 46.0004 2.12029Z" fill="#F1E3A3"/>
<path d="M44.9102 24.0801C43.8102 24.0801 42.6502 24.2401 41.9102 23.0801C41.7042 22.381 41.6931 21.6388 41.8781 20.9339C42.0632 20.2289 42.4374 19.5879 42.9602 19.0801C45.6302 19.4001 44.7902 21.4901 44.9602 23.0801C45.2602 23.3101 45.3402 23.5401 45.2302 23.7501C45.1202 23.9601 45.0002 24.0801 44.9102 24.0801Z" fill="#F1D46F"/>
<path d="M44.9102 24.0801C44.9102 23.7501 44.9102 23.4301 44.9602 23.0801C46.2602 22.3701 45.7802 19.8101 48.0602 20.1401C47.6502 21.1401 46.1902 22.0201 47.9502 23.0601C47.9502 24.3601 47.9502 25.6601 47.9502 26.9601L47.8902 27.1401C46.3102 27.4201 45.7002 26.6901 45.8902 25.1401L44.9102 24.0801Z" fill="#CFB960"/>
<path d="M43.0002 19.1201C43.087 20.5314 42.719 21.9334 41.9502 23.1201L39.9502 21.1201L41.8802 19.1201H43.0002Z" fill="#DCC36D"/>
<path d="M27.9999 23.83C28.0699 23.13 29.1799 22.43 27.9999 21.72C27.9999 21.46 27.9499 21.2 27.9199 20.93C29.2899 21.26 31.7399 20.05 31.5899 22.62C31.4299 24.66 29.2599 23.64 27.9999 23.83Z" fill="#F6E798"/>
<path d="M59.0004 8C59.0904 8.36 59.1704 8.72 59.2604 9.08L57.0004 11C56.8104 9.39 57.0804 8.15 59.0004 8Z" fill="#F9EEA8"/>
<path d="M45.9001 25.2003C46.5801 25.8503 47.2601 26.5003 47.9001 27.2003C47.6401 29.8503 46.0601 28.5203 44.8101 28.2003L41.9501 27.2003C41.6721 27.2105 41.395 27.1626 41.1366 27.0596C40.8782 26.9566 40.6441 26.8009 40.4493 26.6023C40.2545 26.4037 40.1032 26.1667 40.0052 25.9063C39.9072 25.646 39.8646 25.3681 39.8801 25.0903L45.9001 25.2003Z" fill="#B1923E"/>
<path d="M60.8404 20.0904C61.5604 19.0104 62.2904 17.6904 63.8404 18.7104C65.3904 19.7304 64.4604 20.9804 64.0304 22.1604C63.8832 22.4905 63.6492 22.7746 63.3534 22.9824C63.0576 23.1902 62.711 23.3139 62.3504 23.3404C60.7604 22.7704 59.8504 21.8804 60.8404 20.0904Z" fill="#E7D384"/>
<path d="M60.8406 20.0903C60.8443 20.7418 61.045 21.377 61.4162 21.9124C61.7874 22.4478 62.3118 22.8584 62.9206 23.0903L63.3406 23.7203C63.3406 25.5003 62.5206 26.0103 60.9406 25.1003H59.5006H59.0406C59.4943 24.5242 59.7283 23.8055 59.7009 23.0728C59.6734 22.34 59.3862 21.6408 58.8906 21.1003V20.1003L60.8406 20.0903Z" fill="#D8BC60"/>
<path d="M62.9199 23.1003L63.9999 22.1603L65.8799 22.0703L66.9699 22.1203L65.7699 25.0003C65.5099 25.0603 65.2599 25.1403 65.0099 25.2203L63.9999 25.1203C63.2299 24.6703 63.6799 23.7003 63.1499 23.1203L62.9199 23.1003Z" fill="#B49D44"/>
<path d="M63.11 23.1504C63.39 23.8004 63.68 24.4604 63.96 25.1504C63.96 26.2704 64.03 27.4304 62.96 28.1504H62.48L62 28.2104C61.66 27.2104 61.31 26.1504 61 25.1104C61.538 25.1241 62.0601 24.9267 62.4544 24.5604C62.8487 24.1941 63.084 23.688 63.11 23.1504V23.1504Z" fill="#B89F49"/>
<path d="M39.8705 30.0003L36.9805 30.1003C37.0405 29.0303 37.3705 28.1703 38.6605 28.2503C39.7405 28.3103 39.7905 29.1803 39.8705 30.0003Z" fill="#F1ECAA"/>
</g>
<defs>
<clipPath id="clip0">
<rect width="80.04" height="44.73" fill="white"/>
</clipPath>
</defs>
</svg>
