<svg width="71" height="53" viewBox="0 0 71 63" fill="none" xmlns="http://www.w3.org/2000/svg">
<path d="M66.6095 22.1035C66.9661 20.7732 67.0251 19.383 66.7824 18.0282C66.5397 16.6734 66.0011 15.3861 65.2034 14.2545C64.4057 13.1229 63.3679 12.1739 62.1611 11.4724C60.9543 10.7709 59.607 10.3336 58.2116 10.1905C57.8457 8.79775 57.1632 7.50422 56.2151 6.40673C55.2671 5.30925 54.0781 4.43625 52.7372 3.85311C51.3963 3.26997 49.9382 2.99178 48.4721 3.03939C47.006 3.08699 45.5699 3.45916 44.2713 4.12801C43.2153 2.83965 41.878 1.80001 40.3578 1.08566C38.8376 0.371321 37.1734 0.000488281 35.4876 0.000488281C33.8018 0.000488281 32.1376 0.371321 30.6174 1.08566C29.0972 1.80001 27.7599 2.83965 26.7039 4.12801C25.4053 3.45916 23.9692 3.08699 22.5031 3.03939C21.037 2.99178 19.5789 3.26997 18.238 3.85311C16.8971 4.43625 15.7081 5.30925 14.7601 6.40673C13.812 7.50422 13.1295 8.79775 12.7636 10.1905C11.3683 10.3336 10.021 10.7709 8.8143 11.4724C7.60755 12.1739 6.56985 13.123 5.77237 14.2546C4.97488 15.3862 4.43649 16.6736 4.19412 18.0284C3.95175 19.3832 4.01114 20.7733 4.36821 22.1035H66.6095Z" fill="#D8B555"/>
<path d="M10.5571 15.5456C10.5571 15.8605 10.4619 16.1683 10.2835 16.4301C10.105 16.6919 9.85144 16.896 9.55474 17.0165C9.25803 17.137 8.93154 17.1685 8.61656 17.1071C8.30158 17.0456 8.01225 16.894 7.78516 16.6714C7.55807 16.4487 7.40343 16.165 7.34077 15.8562C7.27812 15.5474 7.31027 15.2273 7.43317 14.9364C7.55607 14.6455 7.7642 14.3969 8.03122 14.2219C8.29825 14.047 8.61219 13.9536 8.93334 13.9536C9.364 13.9536 9.77701 14.1213 10.0815 14.4199C10.386 14.7185 10.5571 15.1234 10.5571 15.5456V15.5456Z" fill="#AA804F"/>
<path d="M20.0379 15.3507C20.0379 15.8381 19.8905 16.3145 19.6143 16.7198C19.3381 17.1251 18.9455 17.441 18.4862 17.6275C18.0269 17.814 17.5215 17.8628 17.0339 17.7677C16.5464 17.6726 16.0985 17.4379 15.747 17.0933C15.3954 16.7486 15.156 16.3095 15.059 15.8314C14.9621 15.3534 15.0118 14.8579 15.2021 14.4076C15.3923 13.9572 15.7145 13.5724 16.1279 13.3016C16.5412 13.0308 17.0272 12.8862 17.5243 12.8862C18.191 12.8862 18.8303 13.1459 19.3017 13.608C19.7731 14.0702 20.0379 14.697 20.0379 15.3507Z" fill="#D1A26A"/>
<path d="M43.4053 11.731C43.4053 12.0839 43.2986 12.4289 43.0986 12.7223C42.8986 13.0157 42.6144 13.2444 42.2819 13.3794C41.9493 13.5145 41.5834 13.5498 41.2304 13.481C40.8774 13.4121 40.5531 13.2422 40.2986 12.9927C40.0441 12.7431 39.8708 12.4252 39.8006 12.0791C39.7304 11.733 39.7664 11.3742 39.9042 11.0482C40.0419 10.7222 40.2751 10.4435 40.5744 10.2475C40.8737 10.0514 41.2255 9.94678 41.5855 9.94678C42.0681 9.94678 42.531 10.1348 42.8723 10.4694C43.2136 10.804 43.4053 11.2578 43.4053 11.731V11.731Z" fill="#D1A26A"/>
<path d="M57.5384 15.3561C57.5384 15.5449 57.4814 15.7295 57.3746 15.8866C57.2677 16.0437 57.1159 16.1662 56.9381 16.2388C56.7603 16.3114 56.5646 16.3308 56.3756 16.2945C56.1867 16.2582 56.0129 16.1678 55.8762 16.0348C55.7395 15.9018 55.646 15.7322 55.6076 15.5472C55.5691 15.3622 55.5873 15.1701 55.66 14.9953C55.7326 14.8205 55.8565 14.6706 56.0159 14.5647C56.1752 14.4587 56.3631 14.4014 56.5556 14.3999C56.6843 14.399 56.812 14.423 56.9312 14.4706C57.0504 14.5182 57.1588 14.5885 57.2501 14.6774C57.3415 14.7663 57.414 14.872 57.4635 14.9885C57.513 15.105 57.5384 15.2299 57.5384 15.3561V15.3561Z" fill="#D1A26A"/>
<path d="M24.1778 7.92557C24.1697 8.22803 24.0702 8.52132 23.8919 8.76826C23.7135 9.01519 23.4645 9.20467 23.1762 9.31266C22.8879 9.42066 22.5734 9.44231 22.2726 9.37487C21.9718 9.30744 21.6981 9.15395 21.4864 8.93387C21.2746 8.71379 21.1342 8.43702 21.0831 8.13864C21.0319 7.84026 21.0723 7.53371 21.199 7.25785C21.3258 6.98198 21.5332 6.74921 21.795 6.58905C22.0568 6.42889 22.3612 6.34855 22.6697 6.3582C23.0813 6.37108 23.4709 6.54317 23.7535 6.83686C24.0361 7.13055 24.1887 7.52196 24.1778 7.92557V7.92557Z" fill="#D1A26A"/>
<path d="M38.6466 7.92557C38.6385 8.22803 38.5389 8.52132 38.3606 8.76826C38.1823 9.01519 37.9332 9.20467 37.6449 9.31266C37.3567 9.42066 37.0422 9.44231 36.7414 9.37487C36.4405 9.30744 36.1669 9.15395 35.9551 8.93387C35.7433 8.71379 35.603 8.43702 35.5518 8.13864C35.5007 7.84026 35.541 7.53371 35.6678 7.25785C35.7945 6.98198 36.0019 6.74921 36.2637 6.58905C36.5256 6.42889 36.83 6.34855 37.1384 6.3582C37.5498 6.37172 37.9391 6.54401 38.2215 6.83755C38.504 7.1311 38.6568 7.52214 38.6466 7.92557V7.92557Z" fill="#D1A26A"/>
<path d="M51.4559 13.1728C51.4423 13.6467 51.2858 14.106 51.006 14.4927C50.7263 14.8793 50.3359 15.1761 49.8842 15.3453C49.4326 15.5145 48.9399 15.5487 48.4684 15.4435C47.9969 15.3383 47.5678 15.0984 47.2353 14.7542C46.9029 14.41 46.6819 13.9769 46.6004 13.5096C46.5189 13.0423 46.5805 12.5618 46.7775 12.1288C46.9744 11.6958 47.2978 11.3298 47.7068 11.077C48.1159 10.8241 48.5922 10.6959 49.0755 10.7084C49.397 10.7167 49.7136 10.787 50.0072 10.9154C50.3009 11.0438 50.5659 11.2277 50.7869 11.4566C51.008 11.6855 51.1809 11.9549 51.2957 12.2494C51.4105 12.5439 51.4649 12.8576 51.4559 13.1728V13.1728Z" fill="#D1A26A"/>
<path d="M20.0762 12.3002C20.0762 12.7951 19.9265 13.2788 19.6461 13.6902C19.3656 14.1016 18.967 14.4222 18.5007 14.6114C18.0343 14.8007 17.5212 14.8501 17.0263 14.7534C16.5313 14.6566 16.0767 14.4182 15.72 14.0681C15.3633 13.718 15.1205 13.2721 15.0224 12.7867C14.9242 12.3013 14.9751 11.7983 15.1686 11.3413C15.362 10.8842 15.6894 10.4938 16.1093 10.2192C16.5292 9.94463 17.0227 9.79834 17.5274 9.79883C17.8624 9.79883 18.194 9.86355 18.5034 9.98928C18.8128 10.115 19.0939 10.2993 19.3306 10.5316C19.5673 10.7639 19.755 11.0397 19.8829 11.3432C20.0109 11.6466 20.0765 11.9718 20.0762 12.3002V12.3002Z" fill="#AA804F"/>
<path d="M53.2276 9.67764C53.2281 10.1726 53.0788 10.6565 52.7987 11.0683C52.5185 11.48 52.1201 11.801 51.6538 11.9906C51.1875 12.1802 50.6743 12.23 50.1792 12.1335C49.684 12.0371 49.2292 11.7988 48.8723 11.4489C48.5153 11.0989 48.2723 10.6529 48.1739 10.1675C48.0755 9.68204 48.1263 9.17889 48.3197 8.72172C48.5131 8.26455 48.8405 7.87391 49.2604 7.59925C49.6804 7.32458 50.174 7.17822 50.6788 7.17871C51.3548 7.17871 52.0031 7.44199 52.4811 7.91063C52.959 8.37927 53.2276 9.01488 53.2276 9.67764V9.67764Z" fill="#AA804F"/>
<path d="M30.9323 10.979C30.9323 11.2383 30.8538 11.4918 30.7069 11.7074C30.56 11.923 30.3511 12.0911 30.1068 12.1903C29.8624 12.2895 29.5936 12.3155 29.3342 12.2649C29.0748 12.2143 28.8365 12.0895 28.6495 11.9061C28.4625 11.7228 28.3351 11.4891 28.2835 11.2348C28.2319 10.9805 28.2584 10.7169 28.3596 10.4773C28.4608 10.2377 28.6322 10.033 28.8521 9.88892C29.072 9.74486 29.3306 9.66797 29.595 9.66797C29.9497 9.66797 30.2898 9.8061 30.5406 10.052C30.7914 10.2978 30.9323 10.6313 30.9323 10.979Z" fill="#B68421"/>
<path d="M37.0885 3.72367C37.0885 3.98298 37.0101 4.23646 36.8632 4.45207C36.7162 4.66767 36.5074 4.83571 36.263 4.93495C36.0187 5.03418 35.7498 5.06014 35.4904 5.00955C35.231 4.95897 34.9927 4.8341 34.8057 4.65074C34.6187 4.46738 34.4914 4.23377 34.4398 3.97945C34.3882 3.72513 34.4146 3.46151 34.5159 3.22195C34.6171 2.98238 34.7885 2.77762 35.0084 2.63355C35.2283 2.48949 35.4868 2.4126 35.7513 2.4126C36.1059 2.4126 36.4461 2.55073 36.6969 2.7966C36.9476 3.04248 37.0885 3.37595 37.0885 3.72367Z" fill="#AA804F"/>
<path d="M39.7654 15.2647C39.7659 15.5246 39.6878 15.7788 39.5409 15.9951C39.3939 16.2115 39.1849 16.3802 38.9401 16.48C38.6954 16.5798 38.4259 16.6062 38.1659 16.5558C37.9058 16.5053 37.6668 16.3804 37.4792 16.1968C37.2916 16.0132 37.1638 15.7792 37.1119 15.5243C37.06 15.2695 37.0864 15.0052 37.1877 14.7651C37.289 14.5249 37.4607 14.3196 37.6811 14.1752C37.9015 14.0307 38.1606 13.9536 38.4257 13.9536C38.7806 13.9536 39.121 14.0917 39.3721 14.3375C39.6233 14.5833 39.7648 14.9167 39.7654 15.2647V15.2647Z" fill="#B68421"/>
<path d="M66.6377 30.3767H4.34359C-1.38738 30.3767 -1.50803 21.3569 4.34359 21.3569H66.6377C72.4792 21.3569 72.3686 30.3767 66.6377 30.3767Z" fill="#ABDAF4"/>
<path d="M47.3054 51.0332H24.5625V56.9675H47.3054V51.0332Z" fill="#4CB1CC"/>
<path d="M6.55273 30.3765C7.23391 34.9307 10.6323 51.0333 24.5625 51.0333H35.7781V30.3765H6.55273Z" fill="#94D2ED"/>
<path d="M65.0062 30.3765C64.3251 34.9307 60.9267 51.0333 46.9964 51.0333H35.7783V30.3765H65.0062Z" fill="#68BFDD"/>
<path d="M16.3389 28.9966C16.3389 28.9966 16.2157 44.4263 28.6881 44.4263V28.9966H16.3389Z" fill="#B8E9FF"/>
<path d="M28.6805 21.3569H10.4395V30.3767H28.6805V21.3569Z" fill="#B6E9FF"/>
<path d="M42.9996 37.2771C43.1957 37.7848 43.0273 38.3171 42.6276 38.4625C42.2305 38.6104 41.7479 38.3171 41.5543 37.807L40.8807 36.0474C40.6871 35.5397 40.853 35.0074 41.2502 34.8595C41.6498 34.7141 42.1324 35.0074 42.326 35.515L42.9996 37.2771Z" fill="#300E02"/>
<path d="M52.5541 25.6597L41.7054 33.7627C40.5819 32.2988 42.4118 29.7555 45.3753 27.5228C48.3388 25.29 52.2223 25.2506 52.5541 25.6597Z" fill="#50720F"/>
<path d="M48.9065 31.9366C45.9153 34.1866 42.8965 35.266 41.7277 33.8071C41.7193 33.7961 41.7117 33.7846 41.7051 33.7726L52.5537 25.6597C52.888 26.0786 51.8951 29.689 48.9065 31.9366Z" fill="#628C19"/>
<path d="M45.7 35.5517C44.4288 36.0208 43.2843 36.7695 42.3544 37.7401C41.0018 37.6099 39.6368 37.7835 38.3629 38.2478C26.2197 42.7109 31.8979 68.0673 51.1143 60.6519C70.5618 53.8525 57.8431 31.0886 45.7 35.5517Z" fill="#F72A14"/>
<path d="M45.8802 38.2675C44.8696 38.6417 43.9593 39.2367 43.2183 40.0074C42.1438 39.9058 41.0598 40.0457 40.0487 40.4165C30.399 43.9653 34.9109 64.1095 50.1809 58.2195C65.637 52.8101 55.5273 34.7212 45.8802 38.2675Z" fill="#FFD008"/>
<path d="M46.1901 42.9795C45.6335 43.1854 45.1322 43.5133 44.7247 43.9381C44.1284 43.8795 43.5263 43.9562 42.9652 44.1624C37.6414 46.1192 40.1298 57.2238 48.5554 53.9831C57.089 51.0135 51.5138 41.0227 46.1901 42.9795Z" fill="#FFE576"/>
<path d="M44.2183 47.46C42.1748 48.5714 42.8183 52.9408 45.6611 51.2281L44.2183 47.46Z" fill="#472625"/>
<path d="M47.4648 46.267C49.7497 45.7741 52.1954 49.4954 48.9051 50.0376L47.4648 46.267Z" fill="#472625"/>
</svg>
