<svg width="64" height="53" viewBox="0 0 64 53" fill="none" xmlns="http://www.w3.org/2000/svg">
<path d="M41.1195 29.9442C46.5789 22.5126 47.02 12.7971 42.1047 8.24413C37.1894 3.69116 28.7791 6.02478 23.3197 13.4564C17.8603 20.8881 17.4192 30.6035 22.3345 35.1565C27.2498 39.7095 35.6601 37.3758 41.1195 29.9442Z" fill="#938403"/>
<path d="M29.7217 11.1624C31.275 9.72599 33.0132 8.56231 34.8772 7.71101C36.4851 7.04816 38.1878 6.72297 39.9005 6.75166L39.918 6.74718C34.9509 4.41479 28.0389 7.02895 23.3247 13.4469C20.9015 16.6498 19.3884 20.5945 18.9805 24.7721C19.0091 24.6858 19.0386 24.6004 19.0681 24.5158C19.7172 22.6698 20.5787 20.9271 21.6307 19.3323C23.8084 16.0613 26.538 13.3035 29.6639 11.2161C29.6822 11.1986 29.7017 11.1798 29.7217 11.1624Z" fill="#AC9800"/>
<path d="M27.4541 13.3968C27.5626 13.8305 27.7481 14.235 27.9994 14.586C28.2508 14.937 28.5627 15.2273 28.9166 15.4394C29.3594 15.6708 29.8445 15.7821 30.3327 15.7643C30.8208 15.7465 31.2984 15.6001 31.727 15.337C32.6849 14.8212 33.4898 14.0059 34.045 12.989C34.6146 11.9214 34.8815 10.492 34.3828 9.30991C34.2161 8.92547 33.9901 8.57721 33.7153 8.28125C33.2802 8.28747 32.847 8.34747 32.4236 8.46015C31.492 8.69825 30.5994 9.0991 29.7785 9.64803C28.6466 10.4057 27.1721 11.764 27.4541 13.3968Z" fill="#AC9800"/>
<path d="M42.7777 8.91406C43.0938 11.1214 42.9664 13.3803 42.4049 15.5252C41.5191 18.8777 39.9869 21.97 37.9173 24.5829C35.8951 27.2514 33.3882 29.4036 30.5648 30.8953C29.254 31.5852 27.8572 32.0467 26.4225 32.2639C24.6751 32.4392 22.9141 32.2286 21.2387 31.644C20.7341 31.4852 20.2326 31.3068 19.7344 31.114C20.2878 32.6864 21.1842 34.0774 22.3412 35.1594C27.2597 39.7146 35.6745 37.3786 41.1363 29.9427C46.3392 22.8578 46.9813 13.7032 42.7777 8.91406Z" fill="#877804"/>
<path d="M43.4076 14.7239C42.7385 15.6354 40.6012 14.897 38.6336 13.0749C36.6661 11.2528 35.6142 9.03713 36.2837 8.12609C36.9532 7.21505 39.0905 7.95346 41.0577 9.77554C43.0248 11.5976 44.0767 13.8146 43.4076 14.7239Z" fill="#D01831"/>
<g style="mix-blend-mode:multiply" opacity="0.6">
<path d="M42.6284 11.5752C42.2037 12.1676 41.618 12.5878 40.9608 12.7716C39.9747 12.9686 38.9593 12.7201 38.1357 12.0802C37.5821 11.6873 37.1015 11.1779 36.7201 10.5801C36.6596 10.5255 36.6046 10.4638 36.5469 10.4048C37.097 11.4263 37.8039 12.3305 38.6347 13.0753C40.6023 14.8974 42.7395 15.6358 43.4087 14.7243C43.8655 14.1026 43.5194 12.8727 42.6284 11.5752Z" fill="#D01831"/>
</g>
<path d="M25.0656 31.0192C26.2886 21.4786 22.1646 12.9176 15.8544 11.8976C9.54423 10.8777 3.4374 17.7851 2.21441 27.3257C0.991426 36.8664 5.11541 45.4274 11.4256 46.4473C17.7358 47.4673 23.8426 40.5599 25.0656 31.0192Z" fill="#A89915"/>
<path d="M6.62184 21.6415C7.28362 19.5076 8.22999 17.4988 9.42862 15.6837C10.495 14.1787 11.799 12.9068 13.2753 11.9318C13.2797 11.9269 13.2837 11.922 13.2881 11.9175C7.96528 12.8245 3.27059 19.0926 2.21551 27.3273C1.6282 31.4776 2.16147 35.7303 3.74656 39.5372C3.73182 39.4477 3.71708 39.3583 3.70314 39.2688C3.40271 37.3137 3.33161 35.3227 3.49165 33.3468C3.83818 29.2813 4.8938 25.3321 6.59834 21.7242C6.60511 21.6929 6.61308 21.6656 6.62184 21.6415Z" fill="#C1AC0B"/>
<path d="M5.71888 24.8713C6.01231 25.1784 6.35803 25.4157 6.73525 25.5689C7.11247 25.7221 7.51338 25.788 7.91387 25.7627C8.39921 25.7016 8.865 25.5135 9.27372 25.2133C9.68243 24.9131 10.0227 24.5094 10.267 24.0345C10.8466 23.0347 11.1568 21.8683 11.1604 20.6753C11.1528 19.431 10.7191 18.0539 9.74523 17.3352C9.4249 17.1029 9.07035 16.9363 8.69811 16.8433C8.32918 17.1025 7.98695 17.4069 7.67769 17.7507C6.99212 18.4979 6.41527 19.3613 5.96821 20.3094C5.35245 21.6203 4.72195 23.641 5.71888 24.8713Z" fill="#C1AC0B"/>
<path d="M16.7313 12.0972C18.0231 13.7985 18.9601 15.8023 19.474 17.9623C20.2687 21.3435 20.3911 24.8795 19.8325 28.3197C19.3405 31.7797 18.1955 35.0816 16.474 38.0039C15.6737 39.3587 14.694 40.5685 13.5689 41.5917C12.1573 42.7615 10.5554 43.6095 8.85349 44.0878C8.34885 44.247 7.83784 44.3874 7.32324 44.5136C8.52394 45.5339 9.93384 46.199 11.4233 46.4475C17.7334 47.4676 23.8405 40.5599 25.0633 31.0175C26.231 21.9294 22.5413 13.7345 16.7313 12.0972Z" fill="#9C8C17"/>
<path d="M19.9621 16.6924C19.8124 17.8611 17.6449 18.4782 15.1205 18.0704C12.5961 17.6625 10.6715 16.3838 10.8217 15.2147C10.9719 14.0456 13.1394 13.4288 15.6634 13.8367C18.1873 14.2446 20.1119 15.5233 19.9621 16.6924Z" fill="#E53A51"/>
<g style="mix-blend-mode:multiply" opacity="0.6">
<path d="M17.8372 14.4575C17.7488 15.2115 17.4432 15.9124 16.9669 16.4531C16.2158 17.197 15.2333 17.5775 14.2335 17.5118C13.5788 17.4991 12.9325 17.3445 12.33 17.0565C12.2527 17.0448 12.1771 17.0243 12.1006 17.0077C13.0435 17.5591 14.0659 17.9189 15.1205 18.0704C17.6448 18.4783 19.8124 17.8611 19.9621 16.6924C20.0645 15.8941 19.201 15.0456 17.8372 14.4575Z" fill="#E53A51"/>
</g>
<path d="M58.237 41.7684C61.4199 35.5657 57.971 26.6362 50.5334 21.8237C43.0959 17.0112 34.4863 18.1382 31.3033 24.3409C28.1204 30.5435 31.5693 39.4731 39.0068 44.2856C46.4444 49.098 55.054 47.9711 58.237 41.7684Z" fill="#A89915"/>
<path d="M43.8294 22.2039C41.926 21.4705 39.9346 21.0654 37.9231 21.0026C36.2103 21.0149 34.5141 21.3809 32.9193 22.0823L32.9014 22.085C36.8246 17.9444 44.1141 17.6702 50.5334 21.8238C53.8035 23.8681 56.4532 26.9656 58.1408 30.7168C58.0867 30.648 58.0325 30.5791 57.9783 30.5115C56.7948 29.0379 55.4444 27.7448 53.9615 26.6652C50.9005 24.4597 47.4829 22.9522 43.9034 22.2285C43.8775 22.2232 43.8552 22.2124 43.8294 22.2039Z" fill="#C1AC0B"/>
<path d="M46.6503 23.4033C46.6842 23.8521 46.6368 24.304 46.5111 24.7318C46.3854 25.1595 46.1838 25.5542 45.9187 25.8922C45.5762 26.2832 45.1567 26.5784 44.694 26.7539C44.2313 26.9295 43.7384 26.9806 43.2549 26.903C42.1967 26.7975 41.1881 26.351 40.3505 25.6172C39.4838 24.8421 38.7872 23.6086 38.8852 22.3049C38.9209 21.8786 39.0236 21.4628 39.1883 21.0767C39.5978 20.9113 40.0223 20.7971 40.4541 20.7364C41.4009 20.5922 42.362 20.6161 43.3023 20.807C44.5995 21.0718 46.4046 21.7628 46.6503 23.4033Z" fill="#C1AC0B"/>
<path d="M30.9006 25.2397C31.2941 27.4314 32.1189 29.4966 33.3147 31.2843C35.1914 34.0748 37.5921 36.3672 40.3465 37.9988C43.0737 39.7014 46.0934 40.7296 49.2034 41.0146C50.6466 41.1445 52.099 41.0265 53.5106 40.6648C55.2014 40.1404 56.7845 39.2494 58.1706 38.0422C58.5936 37.6951 59.007 37.3306 59.4137 36.9536C59.3867 38.6441 58.9817 40.2998 58.2359 41.7686C55.0527 47.9715 46.4432 49.0985 39.0055 44.2857C31.9206 39.7006 28.4599 31.3804 30.9006 25.2397Z" fill="#9C8C17"/>
<path d="M32.1247 30.9298C33.036 31.5198 34.8068 29.9862 36.0801 27.5053C37.3535 25.0244 37.6466 22.535 36.7353 21.9451C35.824 21.3552 34.0532 22.8888 32.7799 25.3697C31.5065 27.8506 31.2134 30.3404 32.1247 30.9298Z" fill="#E53A51"/>
<g style="mix-blend-mode:multiply" opacity="0.6">
<path d="M31.8712 27.6729C32.4539 28.0606 33.1336 28.2236 33.8065 28.1371C34.7914 27.9331 35.6647 27.3004 36.2361 26.3768C36.6317 25.7907 36.9226 25.1243 37.0928 24.4142C37.1326 24.3396 37.1649 24.2599 37.2004 24.1821C37.0044 25.3554 36.625 26.4805 36.0796 27.5052C34.805 29.986 33.0354 31.5196 32.1241 30.9297C31.502 30.5272 31.4422 29.2391 31.8712 27.6729Z" fill="#E53A51"/>
</g>
</svg>
