<svg width="69" height="57" viewBox="0 0 69 57" fill="none" xmlns="http://www.w3.org/2000/svg">
<path d="M46.3178 32.3141C46.1279 24.4294 46.4988 16.541 47.4274 8.71317C47.4274 8.71317 56.9485 5.77027 60.8546 3.98145C60.8546 3.98145 59.9779 12.8563 59.5673 26.059C59.5673 26.059 49.0365 27.3862 46.3178 32.3141Z" fill="#E2D2BA"/>
<path d="M47.439 8.75942C46.5103 16.5872 46.1394 24.4757 46.3293 32.3604C41.4578 29.0828 31.0712 26.5438 31.0712 26.5438C30.9713 18.9169 30.0293 11.3271 28.2637 3.92383C34.3907 6.51181 40.8526 8.14137 47.439 8.75942V8.75942Z" fill="#EFE1CA"/>
<path d="M60.8545 3.98145C56.9484 5.77027 47.4384 8.75934 47.4384 8.75934C47.1055 11.2868 46.8725 13.8142 46.7061 16.2378C51.241 14.9991 55.7426 13.7142 60.2109 12.3831C60.5438 7.109 60.8545 3.98145 60.8545 3.98145Z" fill="#E2D2BA"/>
<g style="mix-blend-mode:multiply">
<path d="M47.4608 16.0186L46.7062 16.2378C46.0737 25.0319 46.3178 32.395 46.3178 32.395C49.0365 27.4209 59.5674 26.0937 59.5674 26.0937C59.5674 24.2702 59.6895 22.5391 59.7561 20.9003C55.6169 19.2269 51.5111 17.5766 47.4608 16.0186Z" fill="#F0E7E1"/>
</g>
<g style="mix-blend-mode:multiply">
<path d="M46.6845 16.4108C45.3751 16.8032 44.0324 17.1725 42.6786 17.4956C42.7785 15.9492 42.9116 14.4143 43.0781 12.8793C38.5667 12.7169 34.0828 12.0788 29.6953 10.9751C30.5263 16.1217 30.9862 21.3257 31.0713 26.5436C34.9922 27.5357 38.8382 28.824 42.5787 30.3983C43.8736 30.9293 45.1244 31.57 46.3183 32.314C46.3183 32.314 46.0853 25.1241 46.6845 16.4108Z" fill="#F2EFED"/>
</g>
<path d="M28.2529 3.91233C28.2529 3.91233 37.0194 1.70804 43.6775 0C49.3354 1.62705 55.0686 2.95594 60.8554 3.98158C56.9493 5.7704 47.4393 8.75947 47.4393 8.75947C40.853 8.14142 34.3911 6.51186 28.264 3.92387L28.2529 3.91233Z" fill="#FFEED4"/>
<path d="M18.6537 21.4311C21.428 34.8069 23.4032 48.9328 23.4032 48.9328C19.8078 43.4278 6.12544 41.0158 6.12544 41.0158C4.50531 25.7704 0 17.6572 0 17.6572C4.68286 19.3653 18.6537 21.4311 18.6537 21.4311Z" fill="#EFE1CA"/>
<path d="M39.4048 13.5949C32.8262 17.09 25.8559 19.7222 18.6537 21.4311C18.6537 21.4311 4.68286 19.3653 0 17.6573C12.8723 14.195 22.4267 11.9907 22.4267 11.9907C28.0498 12.8809 33.7195 13.4166 39.4048 13.5949V13.5949Z" fill="#FFEED4"/>
<path d="M39.4044 13.5952C39.4044 13.5952 38.9827 23.2318 39.8371 38.3156C39.8371 38.3156 28.8846 42.3318 23.4028 48.9331C23.4028 48.9331 21.4275 34.8072 18.6533 21.4314C25.8555 19.7225 32.8258 17.0903 39.4044 13.5952V13.5952Z" fill="#E2D2BA"/>
<g style="mix-blend-mode:multiply">
<path d="M29.873 20.7733C30.4893 28.262 30.5746 35.7877 30.1283 43.2894C33.2061 41.3153 36.4573 39.6498 39.838 38.3153C39.3053 28.9096 39.2721 21.6273 39.3164 17.4727C36.1 18.3477 32.9448 19.4505 29.873 20.7733V20.7733Z" fill="#F0E7E1"/>
</g>
<path d="M69.0004 25.9897C69.0004 25.9897 67.1805 36.0649 65.4716 51.1141C65.4716 51.1141 53.2651 51.5872 49.7363 56.9999C50.2763 47.9624 51.4558 38.9786 53.2651 30.1214C53.2651 30.1214 64.3619 27.6978 69.0004 25.9897Z" fill="#E2D2BA"/>
<path d="M53.2651 30.1214C51.4819 38.9806 50.3284 47.9644 49.814 56.9999C44.4986 52.7529 32.9136 48.8175 32.9136 48.8175C33.4979 40.0824 33.1031 31.3062 31.7373 22.666C38.5198 26.2433 45.7745 28.7557 53.2651 30.1214V30.1214Z" fill="#EFE1CA"/>
<path d="M31.7373 22.6662C31.7373 22.6662 41.9575 21.0274 49.7363 19.7349C56.0465 22.1738 62.4769 24.2618 69.0004 25.99C64.3619 27.698 53.2651 30.1216 53.2651 30.1216C45.7745 28.7559 38.5198 26.2435 31.7373 22.6662V22.6662Z" fill="#FFEED4"/>
</svg>
