<svg width="32" height="20" viewBox="0 0 32 50" fill="none" xmlns="http://www.w3.org/2000/svg">
<g clip-path="url(#clip0)">
<path d="M27.4704 47.4C26.1101 48.1043 24.6696 48.6415 23.1804 49C20.7908 49.5444 18.3582 49.879 15.9104 50C15.1204 50 14.3604 49.88 13.6604 49.8C10.7325 49.5667 7.85674 48.8924 5.13036 47.8C-0.139644 45.44 0.000356334 42.21 0.000356334 42.21V18.87C0.000356334 12.23 5.37036 13.15 5.37036 13.15V9.22998H26.4504V13.15C26.4504 13.15 31.8004 12.23 31.8004 18.87V42.21C31.8004 42.21 31.9304 45.11 27.4704 47.4Z" fill="#C7FBFF"/>
<path d="M29.92 39.9997V18.2097C29.92 12.0297 25.2 12.8797 25.2 12.8797V9.21973H6.62001V12.8797C6.62001 12.8797 1.89001 11.9997 1.89001 18.2097V39.9997C1.89001 39.9997 1.62001 46.3097 15.89 47.2497C30.19 46.2697 29.92 39.9997 29.92 39.9997Z" fill="#E69E5C"/>
<path opacity="0.2" d="M16.7004 49.94C16.4504 49.94 16.1804 49.94 15.9104 50C12.2164 49.8913 8.56912 49.1436 5.13036 47.79C-0.139644 45.44 0.000356334 42.21 0.000356334 42.21V18.87C0.000356334 12.23 5.37036 13.15 5.37036 13.15V9.22998H26.4504V13.15C26.4504 13.15 31.8004 12.23 31.8004 18.87V42.21C31.8004 42.21 32.1004 48.75 16.7004 49.94Z" fill="#C7FBFF"/>
<path d="M4 22.3896C5.4 22.1996 20 26.3896 27.58 22.3896V35.3896C27.58 35.3896 20 39.1996 15.76 38.9996C11.52 38.7996 4 35.4396 4 35.4396V22.3896Z" fill="#FF512E"/>
<path d="M1.89062 2.07985C1.89062 2.07985 4.00062 -0.120146 15.9106 -0.000146342C26.6506 0.109854 29.9106 2.07985 29.9106 2.07985C29.9106 2.07985 21.9106 7.64985 12.9106 6.77985C3.91062 5.90985 1.89062 2.07985 1.89062 2.07985Z" fill="#FF512E"/>
<path d="M1.89062 2.08008V9.40008C1.89062 9.40008 18.6806 14.0801 29.8906 9.40008V2.08008C29.8906 2.08008 11.7306 6.00008 1.89062 2.08008Z" fill="#BA280B"/>
<path d="M8.6602 27.11C8.6602 27.06 8.6602 27.01 8.7102 26.96L9.2402 27.09C9.41954 27.1246 9.59188 27.1888 9.7502 27.28C9.86024 27.3437 9.94628 27.4419 9.99506 27.5593C10.0438 27.6768 10.0527 27.807 10.0202 27.93C9.98795 28.0609 9.91749 28.1793 9.81778 28.2701C9.71806 28.361 9.59359 28.4201 9.4602 28.44C9.30189 28.4728 9.13851 28.4728 8.9802 28.44H8.8402L8.6702 29L9.0302 29.1C9.0302 29.15 9.0302 29.21 9.0302 29.25L8.5502 29.13L8.2002 29.04C8.2002 29.04 8.2002 28.93 8.2002 28.89H8.4102L8.9002 27.11H8.6602ZM8.8902 28.18C8.8902 28.18 8.9702 28.23 9.0602 28.25C9.17764 28.285 9.30275 28.285 9.4202 28.25C9.50268 28.2288 9.57747 28.1847 9.63589 28.1228C9.6943 28.0608 9.73394 27.9835 9.7502 27.9C9.8302 27.58 9.6502 27.35 9.3102 27.26H9.1402L8.8902 28.18Z" fill="white"/>
<path d="M11 29.5801L11.36 27.7701L11.12 27.7101C11.12 27.6601 11.12 27.6101 11.12 27.5601L11.5 27.6401L12.22 27.7801H12.51C12.51 27.9401 12.46 28.1101 12.44 28.2801H12.26V28.0001C12.26 28.0001 12.26 27.9501 12.19 27.9301L11.68 27.8201H11.58L11.42 28.6201L11.93 28.7201C11.99 28.7201 12.01 28.7201 12.02 28.7201L12.07 28.5601H12.23L12.17 28.8801L12.11 29.1801H11.94L12 29.0001C12 28.9501 12 28.9301 11.93 28.9201L11.43 28.8201L11.27 29.6101C11.27 29.6601 11.27 29.6701 11.44 29.7101C11.6082 29.7449 11.7786 29.7683 11.95 29.7801C11.95 29.7801 11.95 29.7801 12.03 29.7801L12.19 29.5001L12.35 29.5701L12.14 30.0601L11.14 29.8601L10.75 29.7901V29.6301L11 29.5801Z" fill="white"/>
<path d="M13.5508 30.0001C13.8708 29.4201 14.2808 28.6301 14.5508 28.0601H14.7408C14.8908 28.6801 15.0808 29.5501 15.2308 30.1701H15.4308C15.435 30.22 15.435 30.2701 15.4308 30.3201H15.1208L14.6808 30.2701C14.6808 30.2101 14.6808 30.1601 14.6808 30.1101H14.9408C14.9408 29.9401 14.8708 29.7501 14.8408 29.6001C14.8108 29.4501 14.0208 29.4901 14.0208 29.4901L13.7808 29.9801H14.0808C14.0857 30.0333 14.0857 30.0868 14.0808 30.1401L13.6408 30.0901H13.3408V29.9401L13.5508 30.0001ZM14.5508 28.4401C14.4008 28.7301 14.2308 29.0801 14.0908 29.3601L14.7908 29.4701L14.5708 28.4701L14.5508 28.4401Z" fill="white"/>
<path d="M16.7305 30.3201L16.7805 28.4801H16.5405V28.3301H17.0005C17.3705 28.9101 17.8005 29.5901 18.1505 30.1701C18.1505 29.6201 18.1505 29.0701 18.2005 28.5201H17.8805C17.8805 28.4701 17.8805 28.4101 17.8805 28.3601H18.6105C18.6155 28.41 18.6155 28.4602 18.6105 28.5101H18.4105L18.3405 30.5101C18.2809 30.5203 18.22 30.5203 18.1605 30.5101C17.8205 30.0201 17.3805 29.3401 16.9605 28.6801C16.9605 29.2201 16.9105 29.7501 16.9005 30.2901H17.2305C17.2354 30.3433 17.2354 30.3969 17.2305 30.4501H16.4805V30.2901L16.7305 30.3201Z" fill="white"/>
<path d="M20.28 29.54C20.2737 29.7465 20.341 29.9486 20.47 30.11C20.5226 30.1638 20.5871 30.2045 20.6584 30.2289C20.7296 30.2532 20.8055 30.2604 20.88 30.25C20.9517 30.2467 21.0219 30.228 21.0857 30.1953C21.1496 30.1625 21.2056 30.1163 21.25 30.06C21.3547 29.8786 21.3935 29.6667 21.36 29.46C21.36 29.14 21.29 28.7 21.25 28.36H21C20.9948 28.3101 20.9948 28.2598 21 28.21H21.38H21.73C21.73 28.26 21.73 28.31 21.73 28.37H21.52L21.62 29.49C21.6602 29.7461 21.5992 30.0079 21.45 30.22C21.3858 30.2966 21.3065 30.3592 21.217 30.404C21.1276 30.4487 21.0299 30.4746 20.93 30.48C20.7227 30.5104 20.5116 30.4603 20.34 30.34C20.2455 30.2505 20.1716 30.1415 20.1232 30.0207C20.0749 29.8998 20.0533 29.7699 20.06 29.64L19.95 28.54C19.8771 28.53 19.803 28.53 19.73 28.54C19.7254 28.4867 19.7254 28.4332 19.73 28.38H20.09H20.51C20.515 28.4332 20.515 28.4867 20.51 28.54H20.22L20.28 29.54Z" fill="white"/>
<path d="M23.7701 29.75L23.3401 27.95C23.1976 27.9809 23.0574 28.021 22.9201 28.07C22.8601 28.07 22.8601 28.07 22.8601 28.15V28.48H22.6801C22.6801 28.3 22.6101 28.11 22.5801 27.93L22.8801 27.86L23.4301 27.73L23.9801 27.59L24.2601 27.52C24.2601 27.69 24.3701 27.87 24.4201 28.05L24.2401 28.11L24.1101 27.81C24.1101 27.81 24.1101 27.75 24.0201 27.76L23.5901 27.86L24.0001 29.68L24.3001 29.62C24.3001 29.62 24.3001 29.72 24.3001 29.77L23.8901 29.87L23.4701 29.98C23.4655 29.9268 23.4655 29.8733 23.4701 29.82L23.7701 29.75Z" fill="white"/>
<path d="M7.57996 33.9998L7.80996 34.0598L8.29996 32.2698L8.04996 32.1998C8.04996 32.1498 8.04996 32.0998 8.04996 32.0498L8.61996 32.1998C8.83373 32.235 9.03601 32.3207 9.20996 32.4498C9.27634 32.5018 9.32595 32.5722 9.35262 32.6523C9.37929 32.7323 9.38185 32.8184 9.35996 32.8998C9.3265 33.01 9.25928 33.107 9.16777 33.1769C9.07627 33.2469 8.9651 33.2864 8.84996 33.2898C8.97957 33.3423 9.08764 33.437 9.15663 33.5586C9.22561 33.6803 9.25145 33.8216 9.22996 33.9598C9.12996 34.3198 8.74996 34.4798 8.22996 34.3598L7.83996 34.2498L7.45996 34.1498C7.45996 34.1498 7.56996 34.0898 7.57996 33.9998ZM8.09996 33.9998C8.09996 34.0998 8.09996 34.1398 8.34996 34.1998C8.59996 34.2598 8.91996 34.1998 8.99996 33.8998C9.07996 33.5998 8.99996 33.4298 8.49996 33.2998H8.29996L8.09996 33.9998ZM8.33996 33.0998H8.49996C8.78996 33.1798 9.07996 33.0998 9.13996 32.8398C9.19996 32.5798 9.08996 32.4198 8.73996 32.3298H8.54996L8.33996 33.0998Z" fill="white"/>
<path d="M10.9206 34.0598C10.8474 34.2496 10.8474 34.4599 10.9206 34.6498C10.9591 34.7126 11.0101 34.7668 11.0704 34.8092C11.1306 34.8515 11.1989 34.8811 11.2711 34.8961C11.3432 34.9111 11.4176 34.9112 11.4898 34.8963C11.5619 34.8815 11.6303 34.852 11.6906 34.8098C11.8378 34.6657 11.9298 34.4746 11.9506 34.2698C12.0106 33.9498 12.0906 33.5198 12.1406 33.1798C12.0495 33.1483 11.9558 33.1248 11.8606 33.1098V32.9498L12.2406 33.0198L12.5806 33.0898C12.5892 33.1394 12.5892 33.1901 12.5806 33.2398H12.3706L12.1706 34.3398C12.141 34.5982 12.0119 34.835 11.8106 34.9998C11.7272 35.0539 11.6337 35.0906 11.5358 35.1078C11.4379 35.125 11.3375 35.1222 11.2406 35.0998C11.1374 35.0891 11.0374 35.058 10.9464 35.0082C10.8554 34.9584 10.7752 34.8909 10.7106 34.8098C10.5837 34.5811 10.5514 34.3119 10.6206 34.0598L10.8206 32.9798L10.6106 32.9098V32.7598L10.9606 32.8198L11.3806 32.8998C11.3806 32.8998 11.3806 32.9998 11.3806 33.0498H11.0906L10.9206 34.0598Z" fill="white"/>
<path d="M14.2404 35.3L14.4404 33.47C14.2972 33.4612 14.1536 33.4612 14.0104 33.47C13.9404 33.47 13.9304 33.47 13.9204 33.52L13.8304 33.84H13.6504C13.6504 33.66 13.6504 33.47 13.7304 33.29H14.0404L14.6104 33.35H15.1704H15.4604C15.4604 33.53 15.4604 33.72 15.4604 33.9H15.2804V33.57C15.2804 33.57 15.2804 33.51 15.2104 33.5H14.7704L14.5804 35.33H14.8804C14.8804 35.38 14.8804 35.44 14.8804 35.49L14.4604 35.44H14.0204C14.0204 35.44 14.0204 35.34 14.0204 35.29L14.2404 35.3Z" fill="white"/>
<path d="M17.2502 35.4897V33.6397H16.8102C16.7502 33.6397 16.7402 33.6397 16.7302 33.6997L16.6702 34.0197H16.4902V33.4697H18.3002C18.3002 33.6497 18.3002 33.8397 18.3002 34.0197H18.1102L18.0602 33.6897C18.0602 33.6897 18.0602 33.6297 17.9802 33.6297H17.5402V35.4697H17.8502V35.6297H17.0002V35.4697L17.2502 35.4897Z" fill="white"/>
<path d="M19.7901 35.4096L19.6201 33.5796H19.3701C19.3701 33.5296 19.3701 33.4796 19.3701 33.4296H19.7501L20.4901 33.3496H20.7801C20.7801 33.5196 20.8301 33.6796 20.8601 33.8496H20.6801L20.6001 33.5696C20.6001 33.5696 20.6001 33.5696 20.5201 33.5696C20.3436 33.5592 20.1666 33.5592 19.9901 33.5696H19.8901L19.9701 34.3796H20.4901C20.5501 34.3796 20.5701 34.3796 20.5701 34.2996V34.1396H20.7301V34.4596V34.7696H20.5601V34.5896C20.5601 34.5396 20.5601 34.5296 20.4801 34.5396H19.9601L20.0401 35.3396C20.0401 35.3996 20.0401 35.4096 20.2301 35.3396C20.4019 35.3263 20.5725 35.2996 20.7401 35.2596C20.7555 35.2544 20.7692 35.2452 20.7798 35.2329C20.7903 35.2206 20.7974 35.2056 20.8001 35.1896L20.8701 34.8796H21.0501C21.0501 35.0596 21.0501 35.2396 20.9801 35.4196L19.9801 35.5196H19.5901C19.5901 35.4696 19.5901 35.4096 19.5901 35.3696L19.7901 35.4096Z" fill="white"/>
<path d="M22.0005 33.2598C21.9959 33.2099 21.9959 33.1597 22.0005 33.1098L22.6305 32.9498C22.7787 32.9011 22.9347 32.8807 23.0905 32.8898C23.206 32.8917 23.3179 32.9306 23.4097 33.0008C23.5015 33.071 23.5684 33.1688 23.6005 33.2798C23.6307 33.4107 23.6189 33.5478 23.5668 33.6716C23.5148 33.7955 23.4251 33.8998 23.3105 33.9698C23.4805 34.0198 23.6105 34.1898 23.8505 34.4598C24.0905 34.7298 24.0505 34.6698 24.0905 34.6598H24.2905C24.2905 34.7098 24.2905 34.7598 24.2905 34.8098L24.0705 34.8698L23.8605 34.9198C23.7105 34.7998 23.4005 34.3998 23.2605 34.2698C23.2176 34.225 23.1627 34.1935 23.1023 34.1793C23.042 34.1651 22.9788 34.1688 22.9205 34.1898L22.7305 34.2398L22.9205 34.9798L23.1905 34.9198C23.1952 34.9697 23.1952 35.0199 23.1905 35.0698L22.8005 35.1698L22.4505 35.2598C22.4458 35.2099 22.4458 35.1597 22.4505 35.1098L22.6505 35.0498L22.2205 33.2498L22.0005 33.2598ZM22.7005 34.0398H22.8705C23.2805 33.9298 23.3605 33.6398 23.3105 33.4398C23.2605 33.2398 22.9805 33.0398 22.6705 33.1198C22.6045 33.1302 22.5405 33.1505 22.4805 33.1798L22.7005 34.0398Z" fill="white"/>
</g>
<defs>
<clipPath id="clip0">
<rect width="31.8" height="50" fill="white"/>
</clipPath>
</defs>
</svg>
