<svg width="80" height="64" viewBox="0 0 89 64" fill="none" xmlns="http://www.w3.org/2000/svg">
<g clip-path="url(#clip0)">
<path d="M7.55566 15.3655C15.3508 6.52237 28.4078 6.3588 39.1557 3.77743C46.8529 1.92958 55.2556 -0.140622 63.0712 -5.21697e-05C69.919 0.127738 77.2584 2.57876 82.4663 6.87507C87.8338 11.2992 87.4476 16.8427 88.5881 23.4009C92.0763 43.4487 72.5036 61.7841 53.2888 63.1591L7.55566 15.3655Z" fill="#903B43"/>
<path d="M0 22.1636L0.239413 22.1304H0.375853L0 22.1636Z" fill="#D2907A"/>
<path d="M80.0154 41.2147C77.1836 46.3033 74.6788 52.0232 71.2832 56.8306C70.8198 57.4817 70.2806 58.0762 69.6768 58.6018C68.1889 59.9027 66.3508 60.8075 64.4509 61.4362C63.0322 61.8976 61.5768 62.2396 60.1003 62.4585C57.6418 62.8368 55.1447 63.1921 52.6502 63.4655C50.8095 63.6674 48.9689 63.8233 47.1514 63.9128C46.6056 63.9383 45.9981 63.9613 45.3493 63.9792C41.8071 64.0738 36.993 63.923 34.4882 62.2362C33.8219 61.7563 33.2069 61.2099 32.6527 60.6056C31.8804 59.8209 31.1261 59.0159 30.1247 58.451C27.7435 57.1067 24.9503 56.1687 22.5124 54.6173C21.7401 54.1292 21.0167 53.595 20.3062 53.0429C18.8388 51.903 17.441 50.6941 15.9015 49.6539C13.788 48.2278 11.3295 47.3997 9.22367 45.8202C5.54494 43.0625 2.71059 39.7732 1.71175 34.9657C0.97549 31.4361 1.57016 25.2741 2.94743 21.6065C3.06328 21.3049 3.1817 21.0212 3.30527 20.758C6.88102 13.1136 13.4739 10.0236 20.5044 8.23452C23.7815 7.39621 27.1539 6.83393 30.359 6.22054C34.3544 5.4538 38.082 4.17589 42.2009 4.21167C44.2861 4.23212 46.3405 4.32924 48.3922 4.43914C50.7091 4.56182 53.0029 4.69472 55.3429 4.76373C58.3086 4.84296 61.7916 5.01931 65.1589 5.69404C68.593 6.37389 71.9139 7.547 74.4522 9.60698C74.6711 9.78845 74.8873 9.97246 75.0958 10.1667C79.4851 14.2228 81.076 20.6787 81.493 26.7437C81.6475 28.957 81.8766 30.9403 81.9204 32.8291C81.9847 35.666 81.6424 38.301 80.0154 41.2147Z" fill="#9F4B4E"/>
<path d="M81.9125 32.8241C81.568 35.1726 80.8566 37.4534 79.8041 39.5842C77.7446 43.7399 75.8963 48.2739 73.6566 52.3428C72.3385 54.7478 71.1415 56.864 69.6664 58.602C68.1784 59.9029 66.3403 60.8076 64.4405 61.4364C64.9553 60.0562 64.4405 59.2333 64.7494 57.5388C65.0686 55.7804 66.8938 53.6309 67.8592 52.2431C69.4476 49.9557 71.5019 47.8522 72.0502 45.1073C70.1169 46.6255 69.0511 49.0126 67.3881 50.8221C65.7894 52.5626 64.0208 53.8022 62.3244 55.1261C59.8556 57.0506 59.0086 57.2397 56.2077 57.2832C54.2126 57.3138 51.0307 58.1726 50.485 60.7258C51.1801 61.7482 52.3385 62.359 52.6397 63.4631C50.799 63.665 48.9584 63.8209 47.1409 63.9104C46.5952 63.9359 45.9876 63.9589 45.3389 63.9768C45.8537 62.5149 47.6094 61.7763 47.6738 59.9949C47.7356 58.2876 46.6441 57.2883 45.1715 56.6468C41.9691 55.2666 38.1565 55.3689 35.3144 56.3273C33.5613 56.9151 33.273 56.6366 32.6757 59.1208C32.5908 59.4684 32.65 60.0588 32.6422 60.6032C31.8699 59.8185 31.1157 59.0135 30.1143 58.4486C27.733 57.1043 24.9398 56.1663 22.5019 54.6149C21.7296 54.1267 21.0062 53.5926 20.2957 53.0405C22.1647 53.0916 24.0234 52.8897 24.963 52.0514C23.7608 50.7505 22.1698 50.0298 20.8054 48.6982C19.3484 47.2772 18.2929 46.7635 16.4291 46.2958C17.6771 45.7551 19.0428 45.537 20.3987 45.6619C19.8143 44.7444 19.7371 43.4767 21.0088 43.6173C21.758 43.6965 22.3449 45.6108 22.7285 46.0887C23.7582 47.3666 25.4959 49.1225 26.9761 49.6541C30.521 50.932 34.9566 50.247 38.4242 52.2278C37.5011 51.4425 36.7103 50.5158 36.0816 49.4828C37.1885 49.7563 38.849 50.9627 39.4926 50.7786C40.4811 50.5026 41.8867 48.2842 42.9216 47.7117C41.879 49.0739 39.9611 51.5147 41.0552 53.0508C41.812 54.114 46.7187 55.5708 48.2633 55.3714C52.9229 54.7734 52.4389 49.8943 55.6851 47.5711C59.1219 45.1124 63.6888 42.7151 63.4622 37.9561C63.2537 33.5729 61.8352 30.3833 58.8439 27.4927C56.9234 25.6423 55.4972 23.0686 53.3734 22.4833C51.2933 21.9108 48.997 22.7133 47.0431 22.9075C45.0351 23.1069 43.2949 23.1631 41.4516 23.9427C39.3535 24.8346 38.1977 26.5521 36.46 27.9783C32.4363 20.6712 27.128 18.8489 20.0023 16.4771C17.3455 15.5903 13.5664 17.1468 10.8299 18.371C9.07934 19.1556 7.44206 19.2579 5.64517 19.8278C4.61544 20.1549 3.7762 20.9319 2.94727 21.6169C3.06311 21.3153 3.18153 21.0316 3.3051 20.7683C6.88085 13.1239 13.4737 10.0339 20.5042 8.24488C18.3495 9.57933 16.35 11.1462 14.5421 12.9169C20.1027 10.8492 26.3403 13.4076 31.8802 14.8056C25.8589 14.4299 20.6922 12.761 15.1213 14.3558C18.3315 13.5456 24.3889 15.4983 27.3005 16.7813C30.9895 18.4042 34.5086 20.2853 38.3521 20.9958C42.6281 21.7881 47.0225 21.3664 51.2238 20.4846C54.7455 19.7435 60.9883 18.302 63.869 20.8655C66.7496 23.4289 65.5268 27.7508 66.4768 31.2753C66.953 33.0464 67.9905 34.286 67.8515 36.3153C67.7614 37.6341 66.397 38.8711 66.4227 39.9931C66.469 41.933 68.2788 41.4039 67.5966 43.6479C67.1461 45.1303 65.8409 45.3297 64.909 46.2242C63.7892 47.2976 63.2563 48.4017 62.4762 49.7205C61.6499 51.116 60.3112 52.1716 59.4926 53.59C62.5561 55.4609 67.0174 48.6854 68.544 46.5156C70.6343 43.5559 72.9589 41.1969 74.5731 37.8258C76.5965 33.5985 75.3119 30.9021 75.8036 26.34C76.1743 22.9024 76.4806 18.279 74.537 15.2912C74.5013 15.7099 74.442 16.1263 74.3594 16.5385C72.1892 13.0702 68.598 8.47234 64.873 7.29923C61.5624 6.2769 54.3542 4.87888 51.5559 7.81039C50.5674 6.59382 49.862 5.38237 48.5002 4.48784L48.392 4.42139C50.7089 4.54407 53.0027 4.67697 55.3428 4.74597C58.3084 4.8252 61.7915 5.00156 65.1587 5.67629C68.0188 6.59382 71.6538 7.65193 74.4521 9.58923L81.9125 32.8241Z" fill="#D7C4BF"/>
<path d="M56.1484 10.99C56.1957 11.0712 56.2499 11.1481 56.3106 11.22C56.3402 11.2384 56.3733 11.2506 56.4078 11.2558C56.4424 11.2611 56.4776 11.2593 56.5114 11.2507C56.519 11.2486 56.5257 11.2441 56.5305 11.2379C56.5353 11.2316 56.5379 11.224 56.5379 11.2162C56.5379 11.2083 56.5353 11.2007 56.5305 11.1945C56.5257 11.1882 56.519 11.1837 56.5114 11.1817C56.3704 11.164 56.2416 11.0936 56.151 10.9849C56.151 10.9849 56.151 10.9849 56.151 10.9849L56.1484 10.99Z" fill="#DCBEBE"/>
<path d="M57.6239 11.5877C59.3333 11.7079 61.2537 11.7794 62.5152 13.18C63.635 14.4221 64.276 16.178 65.6816 17.1032C65.8644 17.2233 66.024 16.9498 65.8644 16.8067C65.1875 16.1718 64.5949 15.4538 64.101 14.67C63.6376 13.9723 63.1948 13.2439 62.595 12.6791C61.2692 11.4318 59.305 11.5008 57.6368 11.4165C57.5338 11.4165 57.5235 11.5801 57.6368 11.5877H57.6239Z" fill="#DCBEBE"/>
<path d="M62.8425 13.7045C63.664 14.3218 64.3908 15.0544 64.9998 15.8795C65.3396 16.3395 65.6485 16.8277 65.9471 17.321C66.2046 17.7554 66.462 18.397 67.0078 18.42C67.082 18.4215 67.1547 18.3985 67.2144 18.3546C67.274 18.3106 67.3173 18.2482 67.3373 18.1772C67.5355 17.62 67.0927 17.0986 66.8224 16.6718C66.462 16.1018 66.0836 15.5447 65.6742 15.0156C64.9972 14.1467 64.0962 13.2266 62.9918 13.2266C62.9367 13.2307 62.8842 13.2512 62.8411 13.2854C62.7979 13.3196 62.7661 13.3658 62.7497 13.4181C62.7333 13.4705 62.7332 13.5265 62.7493 13.5789C62.7653 13.6314 62.7969 13.6778 62.8399 13.7122L62.8425 13.7045Z" fill="#DCBEBE"/>
<path d="M60.2981 14.057C61.1041 14.0471 61.9043 14.1938 62.6536 14.489C63.05 14.6321 63.4387 14.788 63.8223 14.9618C64.1106 15.0921 64.3192 15.2378 64.6178 15.1126C64.6396 15.0997 64.6559 15.0793 64.6635 15.0552C64.6711 15.0312 64.6695 15.0052 64.659 14.9822C64.5431 14.6602 64.2625 14.5861 63.9819 14.4711C63.5415 14.2846 63.0881 14.13 62.6252 14.0085C61.8636 13.8029 61.0703 13.7388 60.2852 13.8193C60.1616 13.8347 60.1745 14.0621 60.2852 14.0596L60.2981 14.057Z" fill="#DCBEBE"/>
<path d="M66.4817 17.7395C66.7932 18.2941 67.236 18.7772 67.599 19.296C68.0315 19.912 68.4331 20.5535 68.8064 21.2129C69.1797 21.8723 69.4757 22.5087 69.7898 23.1681C70.1038 23.8275 70.1656 24.5099 70.4462 25.1386C70.4977 25.2561 70.6496 25.2101 70.6625 25.09C70.7371 24.3667 70.4359 23.6639 70.2274 22.9994C69.9919 22.2825 69.683 21.5913 69.3058 20.9368C68.9365 20.285 68.5317 19.6537 68.0933 19.0455C67.7242 18.4618 67.2926 17.9194 66.8061 17.4277C66.6362 17.2795 66.3711 17.5376 66.4843 17.7395H66.4817Z" fill="#DCBEBE"/>
<path d="M70.1924 27.7515C70.1958 27.7515 70.1991 27.7502 70.2016 27.7477C70.204 27.7453 70.2054 27.742 70.2054 27.7386C70.2054 27.7351 70.204 27.7318 70.2016 27.7294C70.1991 27.727 70.1958 27.7256 70.1924 27.7256C70.1768 27.7256 70.1742 27.7515 70.1924 27.7515Z" fill="#DCBEBE"/>
<path d="M71.8525 27.8429C71.7154 29.9091 71.4368 31.9636 71.0184 33.9922C70.6117 35.881 70.1509 37.762 69.8909 39.6814C69.757 40.5338 69.5538 41.374 69.2833 42.1938C69.0259 42.9938 68.838 43.8091 68.5857 44.609C68.3381 45.3828 68.0193 46.1323 67.6332 46.8479C67.235 47.6582 66.7591 48.4285 66.2121 49.1482C65.7745 49.6823 66.3383 50.4005 66.8789 49.9762C67.5497 49.4592 68.1418 48.8489 68.6372 48.1642C69.1233 47.4047 69.4978 46.5802 69.7493 45.7157C70.0196 44.9055 70.3311 43.9266 70.3517 43.0679C70.3723 42.2091 70.4392 41.2788 70.4598 40.3869C70.4804 39.3645 70.6761 38.3422 70.7816 37.3199C70.8871 36.2976 71.1034 35.2752 71.263 34.2376C71.5925 32.106 71.9735 30.0154 71.9143 27.8481C71.9143 27.8399 71.9111 27.8321 71.9053 27.8264C71.8995 27.8206 71.8916 27.8174 71.8834 27.8174C71.8752 27.8174 71.8674 27.8206 71.8616 27.8264C71.8558 27.8321 71.8525 27.8399 71.8525 27.8481V27.8429Z" fill="#DCBEBE"/>
<path d="M69.7213 29.154C70.1296 31.3246 70.3415 33.5272 70.3546 35.7352C70.3546 36.3154 70.3366 36.8956 70.3082 37.4732C70.2748 38.1019 70.3649 38.7102 70.3082 39.3389C70.2078 40.4379 69.8423 41.4577 69.693 42.5439C69.6862 42.5778 69.6932 42.613 69.7125 42.6418C69.7318 42.6705 69.7618 42.6905 69.7959 42.6973C69.8301 42.704 69.8655 42.6971 69.8945 42.6779C69.9235 42.6587 69.9436 42.6289 69.9504 42.595C70.3366 41.5855 70.3263 40.4175 70.4653 39.3492C70.5425 38.7281 70.7227 38.1224 70.7536 37.5013C70.7845 36.8802 70.7922 36.2234 70.7871 35.6023C70.769 33.4785 70.6609 31.0607 69.7445 29.1489L69.7213 29.154Z" fill="#DCBEBE"/>
<path d="M74.2874 27.9941C74.2539 28.4081 74.0068 28.5717 73.7004 28.7608C73.6747 28.7761 73.6875 28.8247 73.7159 28.8145C73.8954 28.7618 74.0542 28.6555 74.1707 28.5101C74.2872 28.3647 74.3558 28.1872 74.3672 28.0017C74.3687 27.9957 74.3689 27.9894 74.3676 27.9833C74.3663 27.9772 74.3637 27.9714 74.3598 27.9665C74.356 27.9616 74.351 27.9576 74.3454 27.9549C74.3398 27.9521 74.3336 27.9507 74.3273 27.9507C74.321 27.9507 74.3148 27.9521 74.3092 27.9549C74.3035 27.9576 74.2986 27.9616 74.2947 27.9665C74.2909 27.9714 74.2882 27.9772 74.2869 27.9833C74.2857 27.9894 74.2858 27.9957 74.2874 28.0017V27.9941Z" fill="#DCBEBE"/>
<path d="M72.7948 29.4733C72.459 29.8714 72.1495 30.2906 71.868 30.7282C71.6467 31.0937 71.3686 31.5768 71.5102 32.0061C71.5181 32.0243 71.5302 32.0402 71.5456 32.0527C71.561 32.0652 71.5791 32.0738 71.5986 32.0778C71.6181 32.0818 71.6382 32.0811 71.6573 32.0758C71.6764 32.0704 71.694 32.0605 71.7084 32.047C72.0199 31.7736 72.0766 31.2138 72.2542 30.833C72.4675 30.4063 72.7264 30.0036 73.0265 29.6318C73.0443 29.6018 73.0502 29.5664 73.0432 29.5324C73.0362 29.4983 73.0168 29.4681 72.9886 29.4474C72.9604 29.4268 72.9256 29.4172 72.8907 29.4206C72.8559 29.424 72.8236 29.44 72.8 29.4657L72.7948 29.4733Z" fill="#DCBEBE"/>
<path d="M72.442 35.7559C72.7252 36.3616 72.6994 37.2689 72.7123 37.9411C72.7252 38.6644 72.6891 39.3775 72.6351 40.0982C72.545 41.2918 71.9451 43.3185 73.0675 44.1338C73.162 44.1977 73.2705 44.2381 73.3839 44.2516C73.4974 44.2652 73.6124 44.2515 73.7194 44.2116C73.8264 44.1718 73.9222 44.107 73.9987 44.0228C74.0752 43.9385 74.1302 43.8372 74.1591 43.7274C74.3109 43.0144 74.0175 42.3166 73.881 41.624C73.7828 40.9385 73.7552 40.2449 73.7986 39.5538C73.8266 38.8323 73.7634 38.1103 73.6107 37.4044C73.4331 36.6683 72.9852 36.2338 72.581 35.6536C72.5244 35.5693 72.4008 35.6536 72.442 35.7559V35.7559Z" fill="#DCBEBE"/>
<path d="M27.6554 34.5798C28.7416 36.0316 30.0138 37.3367 31.4397 38.4621C32.1627 39.0314 32.9846 39.4645 33.8647 39.74C34.2468 39.8588 34.6435 39.9251 35.0438 39.9368C35.3975 39.9329 35.7452 39.8453 36.058 39.6812C36.1224 39.6531 36.0812 39.556 36.022 39.5637C34.3152 39.7783 32.8144 38.9094 31.4036 38.0072C30.6583 37.4965 29.9681 36.9107 29.3442 36.259C28.7804 35.7044 28.2089 35.1447 27.676 34.5543C27.658 34.5313 27.6271 34.5543 27.6451 34.5849L27.6554 34.5798Z" fill="#DCBEBE"/>
<path d="M40.973 39.1168C40.9747 39.1168 40.9764 39.1164 40.978 39.1158C40.9795 39.1151 40.981 39.1142 40.9822 39.113C40.9834 39.1118 40.9843 39.1103 40.985 39.1088C40.9857 39.1072 40.986 39.1055 40.986 39.1038C40.986 39.1021 40.9857 39.1004 40.985 39.0988C40.9843 39.0973 40.9834 39.0958 40.9822 39.0946C40.981 39.0934 40.9795 39.0925 40.978 39.0918C40.9764 39.0912 40.9747 39.0908 40.973 39.0908C40.9695 39.0908 40.9662 39.0922 40.9638 39.0946C40.9613 39.0971 40.96 39.1004 40.96 39.1038C40.96 39.1072 40.9613 39.1105 40.9638 39.113C40.9662 39.1154 40.9695 39.1168 40.973 39.1168Z" fill="#DCBEBE"/>
<path d="M39.4519 39.4614C41.1046 39.1623 42.7986 38.9016 44.4667 39.0115C46.2121 39.124 47.767 39.8371 49.34 40.5834C49.479 40.6524 49.5588 40.4275 49.4532 40.3278C48.148 39.1955 46.2585 38.8531 44.6366 38.7048C42.8732 38.5464 41.0815 38.5617 39.4262 39.3745C39.4184 39.3798 39.4126 39.3874 39.4096 39.3963C39.4065 39.4051 39.4064 39.4147 39.4093 39.4236C39.4122 39.4325 39.4179 39.4402 39.4256 39.4456C39.4333 39.4511 39.4425 39.4539 39.4519 39.4537V39.4614Z" fill="#DCBEBE"/>
<path d="M53.9941 41.6725C54.666 41.8488 55.3173 42.0124 56.002 42.1223C56.7743 42.245 57.5466 42.4826 58.3189 42.5568C58.4168 42.5568 58.4631 42.4187 58.3807 42.3625C57.7886 41.9561 57.0472 41.8514 56.3624 41.744C55.5902 41.6086 54.8179 41.5804 54.0456 41.4552C53.9323 41.4373 53.8962 41.6418 54.0044 41.6725H53.9941Z" fill="#DCBEBE"/>
<path d="M46.3388 28.0782C46.9646 28.2409 47.6055 28.3394 48.2516 28.3721C48.9235 28.3951 49.5259 28.4462 50.172 28.1779C50.2184 28.1574 50.172 28.0782 50.136 28.0987C48.8668 28.6609 47.6801 28.0629 46.4495 27.7306C46.2384 27.6744 46.1303 28.0297 46.3388 28.0782V28.0782Z" fill="#DCBEBE"/>
<path d="M51.3196 27.7358C50.5884 27.787 49.775 28.1039 49.6051 28.9703C49.5098 29.4125 49.7286 29.8086 49.7312 30.2482C49.7463 30.4561 49.8044 30.6588 49.9018 30.8435C49.9993 31.0281 50.134 31.1909 50.2975 31.3216C50.3516 31.3728 50.434 31.3012 50.4185 31.2322C50.277 30.5626 49.8213 30.0233 49.8316 29.323C49.847 28.3722 50.5859 28.0451 51.3247 27.8687C51.3865 27.8687 51.3839 27.741 51.3247 27.7461L51.3196 27.7358Z" fill="#DCBEBE"/>
<path d="M46.5365 28.1854C46.9303 28.4717 47.3654 28.671 47.7747 28.9317C48.3181 29.2847 48.8205 29.6961 49.273 30.1585C49.3215 30.2074 49.3863 30.2372 49.4552 30.2423C49.5242 30.2474 49.5927 30.2276 49.648 30.1864C49.7033 30.1452 49.7417 30.0855 49.7561 30.0183C49.7704 29.9511 49.7598 29.8811 49.7261 29.8211C49.6057 29.5581 49.5383 29.2741 49.5278 28.9854C49.5244 28.8872 49.5287 28.789 49.5407 28.6915C49.5613 28.5049 49.4892 28.7145 49.515 28.6915C49.5639 28.6407 49.5934 28.5745 49.5981 28.5044C49.6028 28.4343 49.5825 28.3648 49.5407 28.3081L49.5278 28.2928C49.4904 28.2462 49.4378 28.214 49.379 28.2019C49.3202 28.1898 49.2591 28.1984 49.206 28.2263C48.6654 28.5279 49.0336 29.6933 49.2318 30.0997L49.636 29.7112C48.8482 28.9675 47.6846 28.0065 46.5802 28.0576C46.5643 28.0589 46.5492 28.0649 46.5367 28.0748C46.5243 28.0847 46.5151 28.0981 46.5104 28.1132C46.5057 28.1283 46.5056 28.1445 46.5103 28.1597C46.5149 28.1748 46.524 28.1882 46.5365 28.1982V28.1854Z" fill="#DCBEBE"/>
<path d="M44.3147 27.835C44.7223 27.9327 45.139 27.9883 45.5581 28.0011C46.0859 28.0446 46.6085 28.1979 47.1362 28.2235C47.2083 28.2235 47.2211 28.1238 47.1594 28.0906C46.7104 27.9046 46.2339 27.7924 45.7486 27.7583C45.2783 27.6715 44.7974 27.656 44.3224 27.7123C44.3102 27.7174 44.2998 27.7259 44.2925 27.7368C44.2852 27.7477 44.2813 27.7605 44.2812 27.7737C44.2813 27.7868 44.2852 27.7996 44.2925 27.8105C44.2998 27.8214 44.3102 27.83 44.3224 27.835H44.3147Z" fill="#DCBEBE"/>
<path d="M50.0858 31.2244C50.064 31.4351 50.1051 31.6476 50.2042 31.8352C50.3032 32.0858 50.4311 32.3243 50.5852 32.5458C50.6315 32.6097 50.719 32.5458 50.7087 32.4793C50.6418 32.0193 50.2763 31.6896 50.2171 31.2014C50.2171 31.1145 50.0986 31.1375 50.0858 31.2014V31.2244Z" fill="#DCBEBE"/>
<path d="M14.3619 27.4137C15.3221 27.3063 15.9632 27.8226 16.7226 28.3517C16.7561 28.3747 16.7972 28.3261 16.7689 28.2954C16.486 27.9327 16.1139 27.6481 15.6884 27.4691C15.2628 27.2901 14.7981 27.2226 14.3387 27.2731C14.2589 27.2731 14.2847 27.4137 14.3619 27.406V27.4137Z" fill="#DCBEBE"/>
<path d="M18.7155 29.5654L20.3682 30.2887C20.4738 30.3347 20.533 30.1507 20.4274 30.1047L18.7747 29.3916C18.6692 29.3456 18.6125 29.5296 18.7155 29.5731V29.5654Z" fill="#DCBEBE"/>
<path d="M22.265 30.5318C22.2806 30.5318 22.2832 30.5059 22.265 30.5059C22.2615 30.5059 22.2582 30.5072 22.2558 30.5097C22.2533 30.5121 22.252 30.5154 22.252 30.5188C22.252 30.5223 22.2533 30.5256 22.2558 30.528C22.2582 30.5304 22.2615 30.5318 22.265 30.5318V30.5318Z" fill="#DCBEBE"/>
<path d="M33.0648 32.8551C33.0665 32.8551 33.0682 32.8547 33.0698 32.8541C33.0713 32.8534 33.0728 32.8525 33.074 32.8513C33.0752 32.8501 33.0761 32.8486 33.0768 32.847C33.0775 32.8455 33.0778 32.8438 33.0778 32.8421C33.0778 32.8404 33.0775 32.8387 33.0768 32.8371C33.0761 32.8355 33.0752 32.8341 33.074 32.8329C33.0728 32.8317 33.0713 32.8307 33.0698 32.8301C33.0682 32.8294 33.0665 32.8291 33.0648 32.8291C33.0613 32.8291 33.058 32.8305 33.0556 32.8329C33.0531 32.8353 33.0518 32.8386 33.0518 32.8421C33.0518 32.8455 33.0531 32.8488 33.0556 32.8513C33.058 32.8537 33.0613 32.8551 33.0648 32.8551V32.8551Z" fill="#DCBEBE"/>
<path d="M3.67676 21.8954C3.43608 22.2142 3.22905 22.5568 3.05891 22.9177C2.87375 23.3973 2.71645 23.8872 2.58781 24.3847C2.44432 24.8862 2.34611 25.3994 2.29434 25.9182C2.24542 26.4294 2.15275 26.9405 2.58781 27.2779C2.66019 27.3344 2.74814 27.3679 2.84005 27.3738C2.93197 27.3798 3.02353 27.3579 3.10268 27.3111C3.53002 27.0555 3.53517 26.6543 3.56091 26.1712C3.58665 25.6882 3.58923 25.2332 3.57893 24.7579C3.53809 23.8135 3.62467 22.868 3.83636 21.9465C3.86211 21.8468 3.74626 21.7829 3.68705 21.8672L3.67676 21.8954Z" fill="#AC595E"/>
<path d="M22.3741 25.9924C24.8249 27.5923 27.3966 30.8331 30.5451 30.4292C34.1105 29.9743 33.3151 26.3655 31.7679 24.1062C30.4138 22.128 29.0751 20.8168 26.9539 19.7357C23.947 18.2023 20.1319 17.8061 16.829 18.0233C15.1881 18.1593 13.5746 18.5232 12.0356 19.1045C11.2633 19.3907 10.7072 20.0373 9.89115 20.2188C9.15489 20.3798 8.5216 20.0731 7.77247 20.2878C6.67323 20.6022 4.58544 22.0002 3.83631 22.9254C2.63152 24.4154 2.57488 27.0581 2.34319 29.0593C2.1115 31.0605 2.09863 32.8113 2.99708 34.4674C3.89552 36.1236 5.47616 37.1076 6.26391 38.7765C7.11087 40.5656 6.93324 41.9713 8.36972 43.5073C9.65689 44.8849 10.8385 45.8075 12.5916 46.1935C14.1568 46.5462 16.6797 46.7251 17.7403 44.8696C19.1845 42.3291 16.0052 40.5451 14.9472 38.8762C13.8891 37.2072 14.0899 35.1728 12.759 33.3863C11.2787 31.4005 10.4807 30.4165 11.495 27.7968C13.3279 23.043 18.873 23.71 22.3741 25.9924Z" fill="#AC595E"/>
<path d="M18.4733 32.2901C17.719 31.7789 17.2273 30.7566 16.3649 30.4218C15.5025 30.087 14.6015 30.8614 13.927 30.0435C12.5446 28.3695 14.725 28.8295 15.5359 29.2461C17.3998 30.2071 20.059 34.2274 22.0258 31.3291C23.0556 29.8212 21.9589 28.6225 24.4123 29.4174C25.9569 29.9285 26.706 31.1246 28.2738 31.5591C29.0728 31.7688 29.9077 31.8075 30.723 31.6727C31.5382 31.5379 32.3154 31.2326 33.0028 30.7771C33.3143 30.57 33.788 29.5656 34.0609 29.448C34.9902 29.0442 35.3249 29.8749 36.2722 29.7547C39.0654 29.402 41.8251 25.4099 44.5487 24.2418C46.5155 23.4061 51.6822 21.6503 53.4096 23.6438C53.8833 24.1882 53.6979 25.2463 54.0352 25.5555C54.55 26.0411 55.4974 25.7089 56.1307 26.1945C56.6996 26.629 56.7485 27.4136 57.1913 27.9145C57.8143 28.6148 58.4115 28.7759 59.0963 29.3662C61.4132 31.3598 61.8405 34.6338 62.3863 37.5448C63.0067 40.8802 60.3989 43.3465 57.7834 44.7267C54.8486 46.278 52.8381 47.6479 51.3475 50.8606C49.7206 54.3927 45.9749 56.2917 42.8316 53.4726C41.0579 51.8804 42.5974 50.9373 43.5782 49.1865C44.3762 47.763 45.0224 46.0582 42.9063 46.4186C41.3334 46.687 41.2613 48.5655 39.9535 49.1252C38.1515 49.8919 37.0239 47.6888 35.5231 47.6479C33.8446 47.6045 34.465 48.5834 35.2116 49.6466C34.4393 50.4491 28.8633 48.5271 27.7023 47.993C25.4857 46.9911 23.4623 45.1151 21.8817 43.2187C20.1594 41.1562 18.0665 40.2565 16.6583 37.8515C15.4252 35.7353 13.9682 34.0357 13.5691 31.462C15.1395 32.0396 16.9467 32.2287 18.5119 33.1718C20.0771 34.1149 21.3591 35.9653 23.4289 35.5079C24.057 35.3673 24.4225 34.3424 25.0455 34.3986C25.7123 34.4574 26.5438 35.7967 26.9737 36.2439C28.3575 37.6655 29.8651 38.9629 31.4788 40.1211C35.3068 42.9376 39.0036 42.9376 43.5524 42.7561C47.365 42.6053 50.2663 43.8679 53.8189 44.2308C55.3893 44.3944 60.2548 44.2155 59.4825 41.2865C59.0165 39.5435 56.3263 39.8093 54.9233 39.7786C54.1021 39.7582 53.6361 39.2981 52.9514 40.001C52.403 40.5632 52.8664 41.6213 52.4983 42.0942C51.2111 43.7376 50.9305 41.6341 50.7168 40.3281C50.3384 37.9972 50.1376 37.233 47.9365 36.6529C44.9864 35.8861 42.3657 35.9372 39.4721 36.5736C39.6086 38.9889 36.2619 38.5109 35.554 36.8854C35.2872 37.1601 35.1081 37.5069 35.0391 37.8822C36.0328 37.803 37.3972 37.4017 37.7885 36.2516C36.9132 35.1935 35.0159 35.2651 33.8446 35.6101C33.9373 36.5123 33.7442 36.3385 34.5037 36.6068C34.6864 34.5622 32.802 35.9628 32.6553 37.118C32.7557 36.7653 32.7505 36.0446 32.8149 35.697C31.3604 35.49 30.6318 34.874 29.4013 34.253C28.0858 33.591 26.6133 33.8185 25.7432 32.3565C24.6688 33.0818 23.3969 33.464 22.0978 33.4521C20.7986 33.4403 19.534 33.0348 18.4733 32.2901V32.2901Z" fill="#AC595E"/>
<path d="M46.4103 6.21808C47.6459 7.00271 48.7709 8.00715 50.1147 8.57198C51.0595 8.9758 52.1742 8.92212 52.9465 9.72209C53.7188 10.5221 53.6442 11.9635 54.4576 12.7891C55.3458 13.6964 56.7746 13.4357 57.6267 14.3839C60.4584 17.525 51.5049 18.7058 49.9036 18.8489C45.0793 19.2808 40.9887 19.2553 36.2597 18.2074C35.3792 18.0131 32.0429 17.2208 32.1047 15.9659C32.1356 15.3525 33.8398 14.7877 33.881 13.7219C33.917 12.7942 32.8821 11.8332 32.1793 11.345C30.8922 10.4454 21.8434 10.9514 23.1022 8.50297C23.4858 7.75668 27.5558 6.60912 28.3487 6.32031C30.5086 5.53568 32.8023 5.50757 35.042 5.14208C38.574 4.56192 43.249 4.20921 46.4103 6.21808Z" fill="#AC595E"/>
<path d="M58.8824 9.59681C60.4502 9.52013 62.0823 10.4428 63.3952 11.2734C64.1392 11.7565 64.8729 12.2676 65.5782 12.7788C66.1446 13.1903 66.7418 13.5685 67.2747 14.0286C68.3933 15.0407 69.3293 16.2353 70.0421 17.5607C70.6729 18.7338 71.3087 20.2085 71.144 21.6091C71.0642 22.312 71.9291 22.7643 72.3925 22.2685C72.9223 21.7258 73.318 21.0685 73.5485 20.3483C73.779 19.6281 73.838 18.8646 73.7209 18.1179C73.4969 16.4847 72.5598 14.9998 71.5765 13.8037C70.4376 12.4367 69.1027 11.2432 67.6145 10.2613C66.2991 9.39234 64.8549 8.62305 63.3411 8.26779C62.9094 8.15958 62.4658 8.10548 62.0205 8.10677C61.4001 8.11955 60.9728 8.25756 60.5892 8.81984C60.4833 8.98834 60.4437 9.18964 60.4779 9.3853C60.5121 9.58096 60.6177 9.75725 60.7745 9.8805C61.0387 10.0847 61.3593 10.2042 61.6936 10.223C61.8244 10.2247 61.9551 10.2341 62.0849 10.2511L62.2882 10.2818L62.4273 10.3073C62.2187 10.2613 62.2651 10.2715 62.5714 10.3354C62.6229 10.3354 62.87 10.3993 62.5972 10.3354L62.8211 10.3891C62.9782 10.4274 63.1301 10.4735 63.2845 10.522C63.6408 10.6368 63.9906 10.7708 64.3323 10.9233C65.7968 11.6032 67.1568 12.4861 68.3714 13.5455C68.9916 14.0589 69.5637 14.6269 70.0808 15.2426C70.3382 15.5391 70.575 15.8509 70.8067 16.1678C70.92 16.3186 71.0255 16.477 71.1311 16.6329C71.1311 16.6508 71.301 16.9115 71.1903 16.725C71.2521 16.8297 71.3113 16.9345 71.3705 17.0419C71.5361 17.3477 71.6823 17.6636 71.8081 17.9875C71.839 18.0642 71.8673 18.1434 71.8957 18.2201C71.9858 18.4757 71.8416 18.031 71.9163 18.2917C71.9669 18.4707 72.0073 18.6525 72.0373 18.8361C72.0501 18.9127 72.0579 18.9894 72.0682 19.0661C72.0965 19.3217 72.0682 18.8642 72.0682 19.1223C72.0733 19.2741 72.0681 19.4261 72.0527 19.5772C72.0472 19.6526 72.0378 19.7277 72.0244 19.8022C72.0579 19.5798 72.0244 19.8252 72.0089 19.8609C71.9652 20.0373 71.8905 20.1983 71.8468 20.3721C71.7475 20.6252 71.5938 20.8538 71.3962 21.0417L72.6474 21.7241C72.8379 20.0526 72.2895 18.33 71.6176 16.8681C70.8582 15.2068 69.8825 13.5736 68.5825 12.3622C68.0236 11.8896 67.4346 11.4534 66.8191 11.0562C66.0299 10.4699 65.2083 9.9281 64.358 9.43324C62.6229 8.44925 60.7823 7.71573 58.8 8.22689C58.1255 8.39813 58.1436 9.63259 58.8824 9.59681Z" fill="#AC595E"/>
<path d="M61.3824 16.7585C61.3824 16.7585 61.4493 17.014 61.4879 17.1163C61.6129 17.3481 61.7889 17.549 62.0028 17.7041C62.461 18.1079 62.8755 18.637 63.393 18.9488C64.3429 19.5213 65.1281 18.1821 64.33 17.4383C63.8151 16.9578 63.1098 16.6383 62.4971 16.3291C62.2242 16.1911 61.2485 16.1527 61.3721 16.7585H61.3824Z" fill="#AC595E"/>
<path d="M72.9313 23.7894C72.8206 24.5229 72.5967 25.3075 72.8386 26.0257C72.8771 26.1176 72.9407 26.197 73.0223 26.2548C73.1039 26.3126 73.2002 26.3465 73.3003 26.3526C73.4003 26.3587 73.5001 26.3369 73.5883 26.2895C73.6764 26.2421 73.7494 26.171 73.7989 26.0845C74.1284 25.4021 74.0048 24.597 73.9894 23.8558C73.9739 23.1146 73.042 23.0508 72.9313 23.7894Z" fill="#AC595E"/>
<path d="M5.92159 23.2782C5.5895 23.9478 5.14929 24.9574 5.32692 25.7241C5.41702 26.1024 5.96536 26.3222 6.16873 25.8979C6.30139 25.5581 6.38796 25.2023 6.42616 24.8398C6.50339 24.4564 6.61152 24.073 6.70677 23.7025C6.83291 23.1913 6.1713 22.7645 5.91644 23.2782H5.92159Z" fill="#C06A73"/>
<path d="M8.56751 22.8108C8.42684 23.0506 8.32028 23.3086 8.25086 23.5775C8.20967 23.7232 8.16848 23.8714 8.12987 24.0171C8.09441 24.1704 8.0857 24.3286 8.10413 24.4848C8.117 24.7787 8.37958 25.065 8.66276 24.8861C8.79891 24.8024 8.91535 24.6906 9.00419 24.5583C9.09302 24.426 9.15217 24.2763 9.17763 24.1193C9.23192 23.8271 9.30764 23.5393 9.40417 23.258C9.62041 22.7111 8.85841 22.3277 8.56751 22.8082V22.8108Z" fill="#C06A73"/>
<path d="M6.79086 27.0484C6.65311 27.1802 6.55505 27.3474 6.50768 27.5314C6.43875 27.7609 6.44963 28.0066 6.53857 28.2292C6.55625 28.2674 6.58402 28.3001 6.61893 28.3239C6.65383 28.3476 6.69458 28.3616 6.73683 28.3642C6.77908 28.3668 6.82125 28.358 6.85887 28.3387C6.89649 28.3195 6.92814 28.2904 6.95047 28.2547C7.0289 28.1102 7.07542 27.9508 7.08691 27.787C7.10102 27.728 7.11908 27.6699 7.14097 27.6132C7.14097 27.6388 7.18473 27.5647 7.19503 27.5519C7.48593 27.2529 7.08948 26.7545 6.79086 27.0407V27.0484Z" fill="#C06A73"/>
<path d="M29.0585 7.42998C28.9607 7.5271 28.8628 7.61911 28.7702 7.72389C28.6775 7.82868 28.6286 7.91558 28.5591 8.0127C28.4515 8.17647 28.4109 8.37487 28.4458 8.56731C28.4649 8.68906 28.524 8.80115 28.6138 8.88618C28.7036 8.9712 28.8192 9.02442 28.9426 9.03758C29.2155 9.08103 29.5193 8.83056 29.6737 8.58776C29.7737 8.41818 29.8524 8.23707 29.908 8.04848C30.0831 7.49898 29.4601 7.03894 29.0585 7.42998V7.42998Z" fill="#C06A73"/>
<path d="M31.9495 7.55245C31.777 7.8796 31.5479 8.16329 31.3831 8.49299C31.3112 8.61168 31.2846 8.75209 31.3082 8.88861C31.3318 9.02514 31.4041 9.14869 31.5118 9.23673C31.5659 9.2742 31.6272 9.30012 31.6919 9.31284C31.7566 9.32556 31.8232 9.32481 31.8876 9.31064C31.9519 9.29646 32.0126 9.26917 32.0658 9.23049C32.119 9.19181 32.1636 9.14259 32.1966 9.08594C32.3974 8.7818 32.6265 8.50066 32.8119 8.18118C32.8889 8.05558 32.9172 7.90644 32.8917 7.7616C32.8661 7.61675 32.7883 7.4861 32.6728 7.39399C32.6162 7.35303 32.5515 7.32447 32.483 7.31022C32.4144 7.29597 32.3436 7.29635 32.2752 7.31133C32.2068 7.32631 32.1424 7.35556 32.0862 7.39713C32.03 7.4387 31.9834 7.49164 31.9495 7.55245V7.55245Z" fill="#C06A73"/>
<path d="M38.6157 30.6697C38.0752 30.955 37.6479 31.4135 37.4032 31.9706C37.1999 32.5073 37.3183 33.3329 37.8872 33.545C38.5514 33.8006 38.8732 33.0901 38.6286 32.4869C38.5411 32.2696 39.0843 31.6563 39.2284 31.4288C39.5039 30.9969 39.0457 30.4065 38.6157 30.662V30.6697Z" fill="#C06A73"/>
<path d="M40.2498 31.3494C40.0258 31.8069 39.7709 32.5277 40.0387 33.0158C40.0699 33.0863 40.12 33.1469 40.1836 33.1909C40.2472 33.235 40.3217 33.2608 40.3991 33.2655C40.4765 33.2703 40.5537 33.2538 40.6223 33.2179C40.6908 33.1819 40.7481 33.128 40.7878 33.0618C41.0143 32.7577 40.9526 32.3258 41.1276 31.9884C41.2046 31.8601 41.2329 31.7088 41.2074 31.5616C41.182 31.4145 41.1043 31.2812 40.9886 31.1859C40.9302 31.1456 40.864 31.1178 40.7942 31.1043C40.7244 31.0907 40.6525 31.0916 40.5831 31.107C40.5137 31.1223 40.4482 31.1518 40.3909 31.1936C40.3335 31.2353 40.2854 31.2884 40.2498 31.3494V31.3494Z" fill="#C06A73"/>
</g>
<defs>
<clipPath id="clip0">
<rect width="89" height="64" fill="white"/>
</clipPath>
</defs>
</svg>
