<svg width="68" height="55" viewBox="0 0 68 100" fill="none" xmlns="http://www.w3.org/2000/svg">
<path d="M30.0191 70.9243C30.5011 71.3536 31.0552 71.6947 31.656 71.932C30.3627 74.8544 29.0693 77.7263 27.8063 80.5277C27.1799 81.9586 26.5433 83.3493 25.9371 84.7198C25.5228 85.6468 25.1186 86.5538 24.7145 87.4405C23.3909 88.5289 21.9763 87.9645 21.4307 86.3522C22.468 84.1353 23.5256 81.8848 24.6033 79.6006L28.5035 71.2972C29.0362 71.3444 29.5695 71.2132 30.0191 70.9243V70.9243Z" fill="#BC7F48"/>
<path d="M35.5867 56.2626C36.6106 54.0726 37.621 51.8926 38.618 49.7227C39.4566 49.9847 40.3458 50.2064 41.2349 50.4079C40.3458 52.4233 39.4364 54.4387 38.527 56.4541C37.6177 58.4695 36.6982 60.5454 35.7686 62.6011C35.5486 62.7419 35.2975 62.8274 35.0371 62.8502C34.7766 62.873 34.5145 62.8325 34.2732 62.7321C33.7416 62.407 33.3493 61.8974 33.1719 61.3011L35.5867 56.2626Z" fill="#BC7F48"/>
<path d="M61.2512 1.16149C61.4432 0.758407 63.1508 1.34287 62.9689 1.75603L56.8256 15.622C55.7445 18.0203 54.6027 20.59 53.4003 23.2906C51.5311 27.4524 49.5103 31.9266 47.4895 36.5721C46.7317 38.2852 45.9436 40.0285 45.1655 41.792C44.9385 41.8568 44.7007 41.8748 44.4665 41.8449C44.2323 41.815 44.0067 41.7378 43.8034 41.618C43.6001 41.4982 43.4234 41.3384 43.2841 41.1483C43.1448 40.9582 43.0458 40.7418 42.9932 40.5122L45.4687 35.1109C47.641 30.4654 49.7225 26.0416 51.6726 21.8093C52.9962 18.9877 54.2491 16.2972 55.4111 13.7477C57.7451 8.82002 59.7255 4.52721 61.2512 1.16149Z" fill="#BC7F48"/>
<path d="M7.47677 62.47C8.28509 61.3616 12.4075 63.4777 11.4275 64.4854C10.4474 65.4931 6.66844 63.5684 7.47677 62.47Z" fill="#F4ECD7"/>
<path d="M14.7323 72.708C15.5103 73.0506 14.894 74.9048 14.2069 74.2599C13.5198 73.6149 13.9543 72.3755 14.7323 72.708Z" fill="#F4ECD7"/>
<path d="M6.06219 72.7283C7.69905 72.4058 7.36561 75.0057 6.94124 75.5196C6.51687 76.0335 3.63721 73.1918 6.06219 72.7283Z" fill="#F4ECD7"/>
<path d="M20.5723 80.1551C22.1284 80.397 21.4615 82.1101 20.7845 82.8658C20.1075 83.6216 18.602 79.8427 20.5723 80.1551Z" fill="#F4ECD7"/>
<path d="M15.2374 85.5765C16.4196 85.4758 17.1774 88.126 16.0761 89.1337C14.9747 90.1414 13.4793 85.7176 15.2374 85.5765Z" fill="#F4ECD7"/>
<path d="M24.563 94.7165C25.3309 93.8801 27.5942 95.1699 26.3817 96.1675C25.1692 97.1652 23.8052 95.6133 24.563 94.7165Z" fill="#F4ECD7"/>
<path d="M26.4023 89.3553C26.4023 89.3553 31.3028 87.3399 30.8279 89.8289C30.353 92.3179 26.4023 89.3553 26.4023 89.3553Z" fill="#F4ECD7"/>
<path d="M35.2528 84.0347C35.556 85.0424 33.5554 84.4983 33.5554 84.4983C32.6561 83.3898 34.9497 83.0069 35.2528 84.0347Z" fill="#F4ECD7"/>
<path d="M42.0231 80.3464C43.1952 80.5983 41.1946 83.7827 40.6288 82.9664C39.9114 81.9587 40.8511 80.0743 42.0231 80.3464Z" fill="#F4ECD7"/>
<path d="M52.3796 55.4963C54.2084 55.8389 52.1169 59.1341 51.2075 58.9728C50.2982 58.8116 50.5204 55.1536 52.3796 55.4963Z" fill="#F4ECD7"/>
<path d="M44.711 61.3412C45.3678 63.0744 41.2655 64.5759 41.9122 62.6008C42.4376 60.8575 44.0542 59.5979 44.711 61.3412Z" fill="#F4ECD7"/>
<path d="M36.7686 68.8991C37.2131 67.5085 40.2545 68.1534 39.6987 69.9068C39.143 71.6602 36.7686 68.8991 36.7686 68.8991Z" fill="#F4ECD7"/>
<path d="M25.5631 61.2C26.1289 60.1016 29.9381 60.7768 28.9984 62.3589C28.0588 63.941 24.8154 62.6108 25.5631 61.2Z" fill="#F4ECD7"/>
<path d="M22.9971 50.3772C24.2399 50.9818 23.1487 53.8135 22.0473 53.1585C20.3701 52.1205 21.7745 49.7222 22.9971 50.3772Z" fill="#F4ECD7"/>
<path d="M16.652 39.4339C18.0867 38.7991 20.148 40.1998 19.2992 41.4493C18.4505 42.6989 14.0451 40.5424 16.652 39.4339Z" fill="#F4ECD7"/>
<path d="M56.5823 43.0311C57.4613 44.0993 54.8444 44.8551 54.3695 43.8574C53.8946 42.8598 55.7234 41.973 56.5823 43.0311Z" fill="#F4ECD7"/>
<path d="M41.3357 45.1173C41.8005 44.3413 43.6294 46.125 43.2757 46.8807C42.9221 47.6365 40.1536 47.1528 41.3357 45.1173Z" fill="#F4ECD7"/>
<path d="M34.5258 37.1666C36.6375 37.5898 34.4247 41.0059 33.5153 40.6935C32.606 40.3811 33.1718 36.8844 34.5258 37.1666Z" fill="#F4ECD7"/>
<path d="M27.0484 26.8978C29.0187 28.1171 27.6344 29.3667 26.1997 29.3969C24.967 29.4171 25.068 25.6785 27.0484 26.8978Z" fill="#F4ECD7"/>
<path d="M31.6258 20.2876C33.1212 20.7915 30.3628 23.5929 28.7158 22.0612C28.7158 22.0612 30.1203 19.7838 31.6258 20.2876Z" fill="#F4ECD7"/>
<path d="M42.9217 14.2818C43.0935 15.7329 40.1532 15.5515 40.2341 14.4632C40.4159 11.8633 42.7298 12.8509 42.9217 14.2818Z" fill="#F4ECD7"/>
<path d="M41.5173 73.5546C46.4682 78.4822 43.6492 87.7833 38.1728 93.366C39.0721 91.4413 38.7892 89.3352 37.8697 86.5741C36.9502 83.813 35.6367 81.5356 33.3633 80.5279C37.8293 79.0667 38.7588 75.6909 37.2028 73.2422C38.631 73.455 40.0733 73.5594 41.5173 73.5546ZM40.6281 83.0068C41.1939 83.8231 43.1945 80.6387 42.0225 80.3868C40.8504 80.1349 39.9107 81.9588 40.6281 82.9665V83.0068Z" fill="#FF7E17"/>
<path d="M24.715 87.3902C25.1192 86.5035 25.5233 85.5965 25.9376 84.6694C25.3718 87.4809 23.2499 90.6149 20.5117 93.2147C19.793 93.9286 18.9276 94.4785 17.9752 94.8265C17.0227 95.1744 16.0059 95.3121 14.9949 95.2301C11.2968 94.9379 7.64925 91.814 5.53751 88.1158C2.35473 82.6238 -0.13087 80.0743 1.30391 75.1366C3.32472 77.2024 8.54851 79.4596 13.5803 78.6131C17.4401 77.9783 19.0567 76.7791 18.107 73.9878C18.3798 74.6025 19.4205 76.3357 23.4419 78.7139C23.8604 78.9625 24.2501 79.2566 24.6039 79.5906C23.5328 81.8815 22.4753 84.1186 21.4312 86.3019C21.9768 87.9142 23.3914 88.4785 24.715 87.3902ZM20.7845 82.8656C21.4615 82.1099 22.1284 80.3968 20.5723 80.1549C18.6021 79.8425 20.1076 83.6315 20.7845 82.8656V82.8656ZM16.076 89.1335C17.1774 88.1258 16.4196 85.4756 15.2374 85.5764C13.4793 85.7174 14.9848 90.1513 16.076 89.1335V89.1335Z" fill="#FF7E17"/>
<path d="M16.8642 63.8101C15.389 65.493 15.3486 67.1456 15.1566 68.9091C14.9646 70.6726 6.06294 66.9542 4.2139 64.3039C3.82241 63.7775 3.65206 63.1196 3.73901 62.4699C4.04213 60.2126 7.24512 57.7841 11.8223 55.7485C11.9559 56.0454 12.1496 56.3114 12.3913 56.5299C12.633 56.7484 12.9175 56.9147 13.2267 57.0182C13.0651 59.9305 14.7524 62.0668 16.8642 63.8101ZM11.4282 64.4853C12.4386 63.3869 8.28584 61.311 7.47751 62.4699C6.66919 63.6288 10.4582 65.6341 11.4282 64.4853Z" fill="#FF7E17"/>
<path d="M52.4299 48.1807C60.7657 60.8072 51.2174 68.7478 48.1458 70.8942C48.944 67.5991 47.6709 60.5855 45.8926 57.8647C47.782 55.9601 49.1057 52.5037 47.7214 51.0828C49.8332 50.9619 51.3993 50.3976 51.763 49.1984C51.8447 48.9233 51.9121 48.6441 51.9651 48.3621H52.0459L52.4299 48.1807ZM51.2073 58.9731C52.1167 59.1344 54.2385 55.8392 52.3794 55.4966C50.5202 55.154 50.2777 58.8119 51.2073 58.9731Z" fill="#FF7E17"/>
<path d="M35.5867 56.2626L33.2122 61.3011C33.3974 61.9076 33.8051 62.4222 34.354 62.7421C33.4633 65.1743 32.3822 67.5329 31.1207 69.796C30.8651 70.2587 30.5011 70.6528 30.0597 70.9448C29.6089 71.2302 29.0757 71.3578 28.5441 71.3076C26.9679 71.237 25.0683 69.9572 23.189 68.2845C21.633 66.9241 19.0463 65.5637 16.9043 63.7901C14.7622 62.0166 13.1051 59.9105 13.2567 56.9881C13.9911 57.2679 14.7439 57.4969 15.5099 57.6734C19.4606 58.6811 25.1088 58.0563 27.3721 55.2247C27.7772 54.6435 28.0634 53.9883 28.2142 53.2966C28.3651 52.6049 28.3776 51.8904 28.2511 51.1938C30.1668 53.0439 32.4436 54.4811 34.94 55.4161C35.1068 55.4968 35.2522 55.6154 35.3645 55.7624C35.4769 55.9095 35.553 56.0808 35.5867 56.2626ZM28.9988 62.3088C29.9385 60.7267 26.1293 60.0515 25.5634 61.1499C24.8157 62.6111 28.049 63.9312 28.9988 62.3592V62.3088Z" fill="#FF7E17"/>
<path d="M12.8123 40.4413C11.5695 36.5919 18.0058 31.8255 21.5119 30.5356C21.8382 30.8962 22.2202 31.2024 22.6435 31.4426C21.2997 36.6625 25.5737 42.0234 28.706 44.6132C28.8377 45.2041 28.7386 45.8228 28.4288 46.3433C28.1191 46.8639 27.622 47.247 27.0388 47.4146C26.3022 47.5981 25.5336 47.6137 24.7902 47.4602C24.0467 47.3066 23.3475 46.988 22.7446 46.5279C18.9353 44.1396 14.8331 44.7845 12.9234 40.8646L12.8123 40.4413ZM19.2991 41.4491C20.1478 40.1491 18.0866 38.7484 16.6518 39.4336C14.045 40.5421 18.4503 42.7893 19.2991 41.4994V41.4491Z" fill="#FF7E17"/>
<path d="M65.6763 31.1708C66.0401 33.6699 65.1307 35.524 62.1399 37.5193C62.1275 37.2849 62.0937 37.0522 62.0388 36.824C61.9903 36.4751 61.851 36.1451 61.6347 35.8666C61.6347 35.8666 63.2715 33.3474 60.7152 29.4677C58.1589 25.5881 63.221 20.3984 63.221 20.3984C63.221 20.3984 62.7562 22.1821 64.0799 25.9912C64.2213 26.4043 64.383 26.8376 64.575 27.3012C65.0881 28.5138 65.4577 29.782 65.6763 31.0801C65.6812 31.1101 65.6812 31.1407 65.6763 31.1708V31.1708Z" fill="#FF7E17"/>
<path d="M48.0344 37.2771C50.9039 40.9955 52.6519 44.6434 51.9447 48.3618C51.8917 48.6439 51.8242 48.923 51.7426 49.1982C51.399 50.3974 49.8329 50.9617 47.7009 51.0826C45.5369 51.1358 43.3754 50.8986 41.2748 50.3772C40.3856 50.1757 39.4965 49.954 38.6578 49.692C35.8085 48.7951 33.3027 47.5557 32.0801 46.2154C34.1009 46.0844 35.4952 43.0815 37.7788 39.6855C39.0085 37.9426 39.9564 36.018 40.5877 33.9819C41.9719 35.1005 43.6189 34.2641 45.5084 35.1005L42.9722 40.5118C43.0249 40.7414 43.1239 40.9578 43.2632 41.1479C43.4025 41.338 43.5792 41.4979 43.7825 41.6176C43.9858 41.7374 44.2114 41.8146 44.4456 41.8445C44.6798 41.8744 44.9176 41.8564 45.1446 41.7916C45.9226 40.0281 46.7108 38.2848 47.4686 36.5717C47.6739 36.793 47.8629 37.0288 48.0344 37.2771V37.2771ZM43.2754 46.9107C43.629 46.2053 41.8002 44.3713 41.3354 45.1473C40.1532 47.1526 42.9217 47.6061 43.2754 46.8805V46.9107Z" fill="#FF7E17"/>
<path d="M30.3126 14.3221C31.5958 18.8366 38.1937 22.8674 42.1141 22.6961C42.0271 24.1727 41.5456 25.5991 40.7198 26.8277C40.5043 27.1167 40.2531 27.3774 39.9721 27.6036C37.1025 30.0523 28.0594 34.4258 22.6436 31.443C22.2203 31.2028 21.8383 30.8966 21.5119 30.536C17.541 26.1223 23.6742 13.9896 30.0196 12.478C30.0273 13.1036 30.126 13.7248 30.3126 14.3221V14.3221ZM28.7161 22.0613C30.3631 23.593 33.1215 20.7916 31.6261 20.2877C30.1307 19.7839 28.7161 22.0613 28.7161 22.0613ZM26.2002 29.3973C27.635 29.3973 29.0193 28.1175 27.049 26.8982C25.0787 25.6789 24.9675 29.4175 26.2002 29.3973Z" fill="#FF7E17"/>
<path d="M37.8701 86.5339C38.7896 89.3051 39.0725 91.4011 38.1732 93.3258C37.4255 94.9382 35.8493 96.4396 33.1212 98.1225C29.3322 100.511 23.8154 99.8457 19.7737 98.314C18.625 97.8845 17.5272 97.3303 16.5 96.6613C15.9113 96.2901 15.3889 95.8235 14.9541 95.2808C15.9651 95.3628 16.9819 95.2251 17.9344 94.8771C18.8868 94.5292 19.7522 93.9793 20.4709 93.2654C23.2394 90.6151 25.3714 87.4812 25.9372 84.6395C26.5435 83.269 27.18 81.8784 27.8065 80.4474C29.6064 79.8255 31.5638 79.8255 33.3637 80.4474C35.6371 81.4551 36.9203 83.7124 37.8701 86.5339ZM33.5557 84.5185C33.5557 84.5185 35.5765 85.0829 35.2532 84.055C34.9298 83.0271 32.6564 83.3899 33.5557 84.4984V84.5185ZM30.8276 89.8493C31.3025 87.3905 26.402 89.3757 26.402 89.3757C26.402 89.3757 30.3123 92.2879 30.8276 89.8291V89.8493ZM26.3818 96.228C27.5438 95.2203 25.3714 93.9405 24.5631 94.7769C23.7547 95.6133 25.2602 97.2055 26.3818 96.2079V96.228Z" fill="#F0A871"/>
<path d="M18.1063 73.9878C19.0561 76.7791 17.4395 78.0186 13.5797 78.6131C8.52768 79.4596 3.28367 77.2023 1.30328 75.1365C1.24446 75.0879 1.19033 75.034 1.14161 74.9753C-0.727638 72.8591 0.100895 66.0471 3.73835 62.4697C3.64869 63.1227 3.81917 63.7847 4.21325 64.3138C6.06229 66.954 14.8932 70.6724 15.1559 68.9089C16.3333 70.3841 17.3117 72.0069 18.0659 73.7358C18.0625 73.7626 18.0625 73.7897 18.0659 73.8164C18.0659 73.8164 18.0659 73.887 18.0659 73.9374C18.0659 73.9878 18.0962 73.9575 18.1063 73.9878ZM14.2062 74.2598C14.8932 74.9048 15.5096 73.0506 14.7316 72.708C13.9536 72.3654 13.5191 73.6149 14.2062 74.2598V74.2598ZM6.94134 75.5698C7.36571 75.0559 7.69914 72.4561 6.06229 72.7785C3.63731 73.1917 6.49676 76.0334 6.94134 75.5698Z" fill="#F0A871"/>
<path d="M64.0293 26.0215C64.7669 22.2527 66.9898 21.7085 66.9898 21.7085C66.9898 21.7085 65.0397 24.0464 65.6763 31.0801C65.4384 29.7937 65.0519 28.5392 64.5244 27.3415C64.3324 26.878 64.1708 26.4447 64.0293 26.0315V26.0215Z" fill="#F0A871"/>
<path d="M62.1505 37.5194C62.4334 41.1169 58.3716 45.3996 52.4304 48.1808L52.0263 48.3723H51.9454C52.6527 44.6237 50.935 40.9758 48.0352 37.2876C56.1184 39.3836 60.16 34.4963 61.5847 35.907C61.8228 36.1789 61.9833 36.5095 62.0495 36.8644C62.102 37.0794 62.1358 37.2985 62.1505 37.5194V37.5194ZM54.4007 43.8578C54.8756 44.8655 57.4925 44.0997 56.6135 43.0315C55.7344 41.9633 53.9157 42.8501 54.4007 43.8578V43.8578Z" fill="#F0A871"/>
<path d="M56.8254 15.6221C58.7755 18.7762 58.9977 22.1318 56.8254 23.2705C56.3013 23.5711 55.7072 23.7293 55.1026 23.7293C54.498 23.7293 53.904 23.5711 53.3799 23.2705C54.5621 20.59 55.7442 18.0204 56.8254 15.6221Z" fill="#F0A871"/>
<path d="M55.4514 13.7776C54.2895 16.2968 53.0366 18.9874 51.7129 21.8392C51.174 21.1926 50.7688 20.446 50.5207 19.6424C50.2984 18.6347 47.1964 20.1866 43.9126 22.212C43.3757 22.5246 42.7661 22.6914 42.1444 22.6957C38.2038 22.867 31.6059 18.8362 30.3125 14.3217C30.126 13.7244 30.0273 13.1032 30.0195 12.4776C30.1206 9.19254 34.8089 9.69639 44.2764 9.08169C46.3764 8.94809 48.4789 9.30271 50.4182 10.1176C52.3574 10.9325 54.0805 12.1854 55.4514 13.7776V13.7776ZM40.2347 14.4628C40.1539 15.5511 43.0942 15.7325 42.9224 14.2814C42.7506 12.8303 40.4166 11.8629 40.2347 14.4628Z" fill="#F0A871"/>
<path d="M45.893 57.8649C47.6713 60.5857 48.9242 67.5993 48.1462 70.8945C48.1204 71.0491 48.0798 71.201 48.025 71.3479C47.4894 72.8796 44.7512 73.4943 41.5179 73.5548C40.0747 73.5696 38.6324 73.4753 37.2035 73.2726C35.306 73.0508 33.443 72.5972 31.6564 71.9223C31.0556 71.685 30.5015 71.3439 30.0195 70.9146C30.4609 70.6226 30.8249 70.2285 31.0805 69.7658C32.342 67.5027 33.4231 65.1442 34.3138 62.7119C34.5551 62.8123 34.8172 62.8529 35.0776 62.83C35.3381 62.8072 35.5891 62.7217 35.8092 62.5809C36.7387 60.5252 37.6582 58.4762 38.5676 56.434C40.9319 56.434 43.1346 56.1619 44.8119 56.7867C45.2825 57.0161 45.6629 57.3955 45.893 57.8649ZM41.912 62.6011C41.2653 64.6165 45.3676 63.0747 44.7108 61.3415C44.0541 59.6082 42.4374 60.8578 41.912 62.6011V62.6011ZM39.6992 69.8868C40.2549 68.1535 37.2136 67.5086 36.769 68.8791C36.769 68.8992 39.1435 71.6301 39.6992 69.8868V69.8868Z" fill="#F0A871"/>
<path d="M40.5883 33.9923C39.9569 36.0284 39.0091 37.953 37.7793 39.6959C35.4958 43.0919 34.061 46.0948 32.0806 46.2258C31.773 46.2626 31.461 46.2246 31.1713 46.115C30.2915 45.7514 29.4787 45.244 28.7665 44.6135C25.5837 42.0237 21.3097 36.6627 22.7041 31.4429C28.1198 34.466 37.163 30.0522 40.0325 27.6035C41.0455 29.5795 41.2449 31.8719 40.5883 33.9923V33.9923ZM33.5154 40.6936C34.4248 41.0059 36.6376 37.5898 34.5258 37.1666C33.1719 36.8844 32.5959 40.3912 33.5154 40.6936Z" fill="#F0A871"/>
<path d="M28.2111 51.2137C28.3376 51.9102 28.3251 52.6248 28.1742 53.3165C28.0234 54.0082 27.7372 54.6634 27.3321 55.2445C25.0688 58.0762 19.4206 58.6606 15.4699 57.6933C14.7039 57.5168 13.9511 57.2878 13.2167 57.008C12.9074 56.9045 12.623 56.7382 12.3813 56.5197C12.1396 56.3012 11.9458 56.0351 11.8122 55.7383C11.5386 54.9514 11.3059 54.1509 11.115 53.34C10.1855 50.3169 10.1046 44.1598 12.863 40.4414L13.0348 40.8646C14.9445 44.7846 19.0973 44.1397 22.856 46.5279C23.4589 46.988 24.1581 47.3067 24.9016 47.4602C25.645 47.6138 26.4136 47.5982 27.1502 47.4147C27.7002 48.6182 28.0582 49.9 28.2111 51.2137V51.2137ZM22.0476 53.1183C23.149 53.7733 24.2402 50.9417 22.9974 50.337C21.7546 49.7324 20.3704 52.1207 22.0476 53.1183Z" fill="#F0A871"/>
<path d="M33.3438 80.4676C34.8883 80.0222 36.2307 79.0573 37.1429 77.7367C37.5612 77.0908 37.7856 76.3391 37.7895 75.5702C37.7804 74.7754 37.5533 73.9982 37.1328 73.323L37.2439 73.2524C37.6545 73.4981 38.0053 73.8316 38.2709 74.229C38.5365 74.6263 38.7103 75.0775 38.7797 75.55C38.9496 76.5564 38.7409 77.5898 38.1937 78.4522C37.673 79.2678 36.9202 79.9099 36.0314 80.2963C35.1895 80.6751 34.2505 80.7842 33.3438 80.6087V80.4676Z" fill="#ED670C"/>
<path d="M38.1124 93.3158C38.7428 91.7367 38.8071 89.9889 38.2943 88.368C37.9014 86.7173 37.2933 85.125 36.4857 83.6318C35.7313 82.1152 34.4109 80.9539 32.8078 80.3971C31.1643 79.9754 29.4354 80.0208 27.8164 80.5281V80.3971C28.6012 79.9764 29.4413 79.6678 30.3121 79.4801C31.2444 79.3139 32.1988 79.3139 33.1311 79.4801C34.1155 79.6892 35.0323 80.1394 35.7986 80.7901C36.5256 81.4295 37.1403 82.1857 37.6173 83.0272C38.4701 84.6172 39.041 86.3422 39.3047 88.1262C39.4463 89.0344 39.4463 89.9589 39.3047 90.8671C39.1682 91.7718 38.7992 92.6258 38.2337 93.3461L38.1124 93.3158Z" fill="#D65B07"/>
<path d="M38.1125 93.3155C38.3419 91.7046 38.1325 90.0617 37.5062 88.5592C37.2233 87.7933 36.9707 87.0376 36.6272 86.2818C36.3455 85.5483 36.0077 84.8374 35.6168 84.1555C34.9778 82.8353 33.9093 81.7697 32.5856 81.1324C31.8663 80.8204 31.0957 80.6428 30.3121 80.6084C29.4735 80.5165 28.6292 80.4862 27.7861 80.5177V80.3867C29.4215 79.8646 31.1694 79.8018 32.8382 80.2053C34.4983 80.7597 35.8758 81.9384 36.6777 83.4904C37.4777 85.0052 38.0755 86.6177 38.456 88.2871C38.9579 89.9453 38.8687 91.7256 38.2034 93.3256L38.1125 93.3155Z" fill="#FFB888"/>
<path d="M28.291 81.5456C29.0709 81.1498 29.9305 80.9351 30.8054 80.9177C31.6804 80.9002 32.5479 81.0804 33.343 81.4448C34.1499 81.8148 34.8668 82.3545 35.4447 83.0269C36.0124 83.6756 36.4605 84.4193 36.7683 85.2237C35.8254 83.87 34.5621 82.7693 33.0904 82.0192C31.582 81.3556 29.9006 81.1897 28.291 81.5456V81.5456Z" fill="white"/>
<path d="M38.5367 74.3911C38.8548 74.9123 39.0501 75.4988 39.1079 76.1063C39.1656 76.7137 39.0843 77.3263 38.8701 77.8979C38.6474 78.4647 38.3019 78.9754 37.8582 79.3935C37.4146 79.8116 36.8837 80.1267 36.3037 80.3164C37.1813 79.6121 37.8747 78.7062 38.3245 77.6762C38.6758 76.6173 38.7489 75.4862 38.5367 74.3911V74.3911Z" fill="white"/>
<path d="M14.9746 95.2301C16.3303 95.3286 17.6839 95.0122 18.8546 94.3232C19.9986 93.5883 21.0212 92.6806 21.8858 91.6326C22.8022 90.6369 23.6178 89.5534 24.3209 88.3979C25.038 87.2373 25.5602 85.9677 25.8668 84.6392H25.988C26.085 86.088 25.7993 87.5369 25.1595 88.8413C24.5546 90.1423 23.7614 91.3476 22.8053 92.4186C22.3203 92.9225 21.7948 93.4263 21.2896 93.8899C20.7061 94.3939 20.0528 94.8114 19.3497 95.1293C18.6702 95.4531 17.9314 95.6345 17.1789 95.6622C16.4264 95.6899 15.6762 95.5634 14.9746 95.2906V95.2301Z" fill="#CC8352"/>
<path d="M14.9746 95.2301C16.2353 94.9426 17.4224 94.397 18.4605 93.6279C18.9337 93.2611 19.3733 92.853 19.774 92.4085C20.2691 91.9047 20.6733 91.4613 21.1078 90.9675C21.9868 89.9598 22.8053 89.0126 23.6136 87.9444C24.4321 86.8899 25.1846 85.7861 25.8668 84.6392H25.988C25.6882 85.9777 25.1766 87.2601 24.4724 88.4382C23.7711 89.6142 22.9591 90.721 22.0474 91.7435C21.1617 92.7936 20.1188 93.7011 18.9556 94.434C17.7461 95.1148 16.3579 95.4135 14.9746 95.2906V95.2301Z" fill="#FF994D"/>
<path d="M15.0452 68.9091C14.533 68.2724 14.2728 67.4704 14.3138 66.6551C14.3547 65.8398 14.6941 65.0678 15.2675 64.4853C15.6749 64.0666 16.2204 63.8089 16.8033 63.7598L16.8942 63.8404C16.3025 64.5261 15.8803 65.3406 15.6615 66.2186C15.4311 67.1061 15.2622 68.0085 15.1563 68.9192L15.0452 68.9091Z" fill="#ED670C"/>
<path d="M24.5433 79.6006C23.7767 79.4694 23.0204 79.2842 22.28 79.0464C21.5567 78.7664 20.8765 78.3865 20.2592 77.9178C19.6164 77.4276 19.0628 76.8312 18.6223 76.1543C18.0999 75.4512 17.8717 74.5732 17.9858 73.7056H18.107C18.3659 74.4074 18.7764 75.0439 19.3094 75.5698C19.8315 76.0922 20.3959 76.5708 20.9968 77.0008C21.5727 77.4643 22.1891 77.8875 22.8054 78.2906C23.4605 78.6555 24.0709 79.0951 24.6241 79.6006H24.5433Z" fill="#ED670C"/>
<path d="M3.7887 62.4697C3.70936 63.0567 3.84965 63.6522 4.18276 64.1425C4.52826 64.6248 4.94765 65.0498 5.42556 65.4021C6.37672 66.1234 7.39125 66.7574 8.45678 67.2966C9.52041 67.8587 10.6249 68.3404 11.7608 68.7376C12.3233 68.9433 12.901 69.105 13.4886 69.2213C13.7785 69.2744 14.073 69.2981 14.3677 69.2919C14.6607 69.2919 14.9739 69.1709 15.0143 68.8989H15.1558C15.1682 69.0009 15.1543 69.1045 15.1154 69.1997C15.0765 69.2949 15.0139 69.3786 14.9335 69.443C14.7832 69.5614 14.6118 69.6503 14.4283 69.705C14.0985 69.7957 13.7596 69.8498 13.4179 69.8663C12.7657 69.8711 12.115 69.8035 11.4779 69.6647C10.2415 69.4045 9.04536 68.9809 7.92126 68.4051C6.77722 67.8194 5.72811 67.0652 4.80921 66.168C4.57231 65.9322 4.35282 65.6796 4.15245 65.4122L3.84933 64.9487L3.74829 64.7471L3.67756 64.6161V64.4851C3.53225 64.169 3.45703 63.8252 3.45703 63.4774C3.45703 63.1296 3.53225 62.7859 3.67756 62.4697H3.7887Z" fill="#CC8352"/>
<path d="M3.78947 62.4697C4.0926 63.7294 4.97165 64.1727 5.93153 64.7774C6.89142 65.382 7.95234 65.8858 8.96275 66.3998C9.97316 66.9137 10.9836 67.4075 12.0546 67.9819C12.5699 68.2338 13.065 68.4958 13.6106 68.7175C13.8638 68.8276 14.1236 68.9219 14.3886 68.9996C14.6513 69.05 14.8837 69.1306 15.0555 68.8989H15.1565C15.1565 69.2818 14.6918 69.4027 14.4088 69.4229C14.0977 69.4332 13.7864 69.4129 13.4793 69.3624C12.8824 69.2564 12.2947 69.1048 11.7212 68.9089C10.5731 68.5252 9.45527 68.057 8.37672 67.5082C7.30574 66.9318 6.29095 66.2571 5.3455 65.4928C4.84775 65.1434 4.40795 64.7184 4.04208 64.2332C3.70792 63.7096 3.57179 63.0844 3.65812 62.4697H3.78947Z" fill="#FF994D"/>
<path d="M11.8324 55.8292C11.3405 56.6813 10.7242 57.4557 10.0036 58.1268C9.70047 58.4593 9.34683 58.7011 8.99318 58.9934L8.08382 59.7492C7.39674 60.1925 6.73998 60.646 6.06301 61.0289C5.26 61.4177 4.50687 61.9015 3.81991 62.4699H3.62793C3.77558 61.5451 4.21436 60.691 4.88083 60.0313C5.48412 59.353 6.16199 58.7446 6.90164 58.2174C8.408 57.1972 10.0205 56.3424 11.7112 55.668L11.8324 55.8292Z" fill="#FFA631"/>
<path d="M21.3906 86.2918C23.7213 81.2734 26.0789 76.2719 28.4635 71.2871H28.5241C28.13 72.6274 27.6349 73.9273 27.1297 75.2071C26.6245 76.4869 26.0183 77.7465 25.4727 79.0162C24.927 80.2859 24.2602 81.4951 23.5933 82.7144C22.9264 83.9338 22.2394 85.1329 21.4512 86.2817L21.3906 86.2918Z" fill="#E2AD52"/>
<path d="M31.6762 71.9121C29.4196 77.0917 27.1024 82.2612 24.7246 87.4206C25.0985 86.0401 25.5835 84.7099 26.0786 83.3898C26.5737 82.0697 27.1698 80.7698 27.7053 79.4598C28.2408 78.1498 28.8976 76.8901 29.5544 75.6305C30.1986 74.3596 30.9068 73.1219 31.6762 71.9222V71.9121Z" fill="#A36A3B"/>
<path d="M13.3273 57.0181C13.306 57.9831 13.4813 58.9424 13.8425 59.8379C14.2038 60.7334 14.7434 61.5464 15.4289 62.2279C16.8098 63.6036 18.3576 64.802 20.0364 65.7951C20.8447 66.3494 21.6732 66.8935 22.4613 67.4881C23.2495 68.0826 23.9466 68.788 24.7347 69.3725C25.4924 69.976 26.3285 70.4743 27.2203 70.8538C27.6394 71.0678 28.1035 71.1794 28.5743 71.1794C29.0451 71.1794 29.5092 71.0678 29.9282 70.8538L30.0697 71.0654C29.7145 71.5708 29.1862 71.9292 28.5844 72.0731C27.9773 72.2085 27.3501 72.229 26.7354 72.1336C25.613 71.9411 24.5327 71.5558 23.5425 70.9949C23.0648 70.7496 22.6055 70.47 22.1683 70.1585C21.8071 69.8896 21.4291 69.6439 21.0367 69.4229L18.642 67.9415C17.8236 67.3571 16.9748 66.7726 16.1665 66.0672C15.3267 65.3414 14.5831 64.5117 13.9537 63.5984C13.2747 62.6371 12.8128 61.5403 12.5998 60.3838C12.3968 59.2532 12.5633 58.0875 13.0747 57.0584L13.3273 57.0181Z" fill="#D65B07"/>
<path d="M13.2964 57.0181C13.821 58.7739 14.8803 60.3235 16.3276 61.452C17.0234 62.017 17.7485 62.5451 18.5 63.034C19.2578 63.558 20.0459 64.0417 20.8744 64.596C21.703 65.1502 22.5113 65.6944 23.3398 66.3796C23.7339 66.7121 24.1785 67.1455 24.4917 67.4578L25.5021 68.4655C26.1267 69.0978 26.8026 69.6775 27.5229 70.1988C27.8632 70.4816 28.2599 70.689 28.6867 70.8071C29.1135 70.9253 29.5607 70.9515 29.9984 70.884L30.0994 71.0453C29.6522 71.288 29.1541 71.4227 28.6452 71.4384C28.1363 71.4542 27.6307 71.3506 27.1693 71.136C26.2453 70.7582 25.3755 70.2601 24.5826 69.6546C23.7743 69.0802 23.067 68.3849 22.2789 67.8206C21.4908 67.2563 20.6623 66.7222 19.8337 66.1881C18.1264 65.146 16.5551 63.897 15.1555 62.4697C14.468 61.7435 13.9346 60.8863 13.5874 59.9495C13.2401 59.0127 13.0862 58.0157 13.1347 57.0181H13.2964Z" fill="#FFA631"/>
<path d="M27.0684 47.3542C27.23 46.8201 27.2603 46.5279 27.3311 46.276C27.3623 46.0907 27.4201 45.9108 27.5028 45.7419C27.6161 45.5969 27.7487 45.4681 27.8969 45.359C28.0788 45.1977 28.3112 44.9962 28.685 44.6133H28.8164C28.9725 45.2254 28.8894 45.8738 28.584 46.4271C28.2345 46.9462 27.7118 47.3247 27.1088 47.4953L27.0684 47.3542Z" fill="#ED670C"/>
<path d="M35.526 56.343C35.2128 56.0105 34.8996 55.8795 34.7076 55.9702C34.3089 55.9513 33.913 55.8939 33.5254 55.7989C32.7542 55.6239 32.0123 55.3388 31.3227 54.9524C30.6031 54.5417 29.9548 54.0177 29.403 53.4005C28.8281 52.7904 28.4027 52.0557 28.1602 51.2541L28.2915 51.1836C29.3998 52.2203 30.6316 53.1171 31.9593 53.854C32.6155 54.2235 33.29 54.5598 33.9801 54.8617L34.9905 55.3252C35.168 55.4204 35.3207 55.5556 35.4364 55.7201C35.5522 55.8845 35.6279 56.0737 35.6574 56.2725L35.526 56.343Z" fill="#ED670C"/>
<path d="M48.0957 70.854C49.6012 69.3254 50.9548 67.6549 52.1373 65.8659C53.2421 64.1665 54.0199 62.2767 54.4309 60.2933C54.8263 58.2972 54.8263 56.2432 54.4309 54.2471C54.239 53.2173 53.9584 52.2058 53.5923 51.224C53.2892 50.2163 52.8446 49.2086 52.4506 48.2009L52.5617 48.1304C53.7943 49.9335 54.7417 51.915 55.3706 54.0053C55.9987 56.1143 56.1164 58.3418 55.7142 60.5049C55.2463 62.6921 54.2819 64.7433 52.8951 66.5008C51.5684 68.2428 49.9722 69.7633 48.1664 71.0052L48.0957 70.854Z" fill="#ED670C"/>
<path d="M45.8115 57.8043C46.6464 56.8762 47.2916 55.7945 47.7111 54.62C47.9439 54.0513 48.0838 53.4491 48.1254 52.8363C48.1808 52.2361 48.0036 51.6375 47.6303 51.1635L47.7717 51.0225C48.0115 51.0374 48.2456 51.1015 48.4594 51.2107C48.6733 51.32 48.8622 51.472 49.0145 51.6573C49.3105 52.0116 49.5213 52.4286 49.6309 52.8766C49.827 53.6706 49.7848 54.5046 49.5096 55.275C49.2488 55.9868 48.8023 56.6164 48.2163 57.0989C47.5998 57.6476 46.7995 57.9461 45.9732 57.9353L45.8115 57.8043Z" fill="#FFA631"/>
<path d="M67.0001 21.7383C66.8616 22.118 66.7568 22.5092 66.6869 22.9072C66.5875 23.2849 66.5133 23.6686 66.4646 24.056C66.3534 24.8319 66.2322 25.5978 66.1918 26.3838C66.1513 27.1698 66.0604 27.9558 65.9897 28.7519C65.9189 29.548 65.8583 30.3541 65.6764 31.2308C65.5031 29.6209 65.476 27.9986 65.5956 26.3838C65.6714 25.5742 65.8133 24.7721 66.02 23.9855C66.2221 23.1894 66.5642 22.4353 67.0304 21.7584L67.0001 21.7383Z" fill="#E5925A"/>
<path d="M63.7168 25.9808C63.8326 25.5285 63.9777 25.0842 64.1513 24.6507C64.3351 24.2181 64.5583 23.8032 64.8181 23.4112C65.3184 22.6123 66.0835 22.0133 66.9804 21.7183C66.1543 22.0995 65.4865 22.7548 65.0909 23.5724C64.8853 23.9636 64.7226 24.3758 64.606 24.8018C64.4783 25.2301 64.387 25.6683 64.3331 26.1118L63.7168 25.9808Z" fill="#FFC77D"/>
<path d="M63.1909 20.469C62.4893 21.6595 61.8748 22.8988 61.3519 24.1774C60.8524 25.3138 60.6776 26.5657 60.8467 27.795C60.9016 28.072 60.9863 28.3423 61.0993 28.6012C61.1566 28.7306 61.2242 28.8553 61.3014 28.974L61.5742 29.4376C61.9504 30.1081 62.2325 30.8269 62.4128 31.5739C62.6278 32.3088 62.6666 33.0838 62.5262 33.8365C62.3858 34.5891 62.0701 35.2983 61.6045 35.907L61.5237 35.8465C61.8201 35.2202 61.9889 34.5413 62.0201 33.8493C62.0513 33.1574 61.9444 32.4661 61.7056 31.8157C61.4859 31.1543 61.1874 30.5217 60.8164 29.9313C60.3928 29.3512 60.0873 28.6939 59.9171 27.9965C59.7224 26.5761 59.9917 25.1309 60.6851 23.875C61.3275 22.6137 62.1513 21.4526 63.1302 20.4287L63.1909 20.469Z" fill="#FFA631"/>
<path d="M62.0996 37.4688C63.1464 36.4167 63.9709 35.166 64.5246 33.7907C64.8172 32.4756 64.7081 31.1032 64.2114 29.8505C64.0194 29.1451 63.7567 28.4498 63.494 27.7041C63.2239 26.9306 63.0079 26.1393 62.8473 25.336C62.4398 23.7082 62.5278 21.9962 63.0999 20.4185H63.2212C63.0924 21.9775 63.292 23.5461 63.8072 25.0237C64.2417 26.5352 64.9591 27.9359 65.4239 29.4676C65.9847 30.9795 65.9847 32.6416 65.4239 34.1534C64.673 35.5662 63.5385 36.7396 62.1501 37.5393L62.0996 37.4688Z" fill="#ED670C"/>
<path d="M42.114 22.6455C42.5452 22.4383 42.9462 22.1739 43.3063 21.8595C43.5488 21.6177 43.9934 21.1743 44.3167 20.8518C45.0998 20.2035 45.954 19.6458 46.8629 19.1891C47.3397 18.9666 47.8289 18.7715 48.328 18.6046C48.6008 18.5341 48.8736 18.4736 49.1767 18.4232C49.5659 18.3469 49.9677 18.3642 50.3488 18.4736C50.5368 18.5281 50.71 18.6244 50.8553 18.7553C51.0006 18.8862 51.1141 19.0483 51.1874 19.2294C51.2175 19.3245 51.2378 19.4224 51.2481 19.5216C51.2521 19.5686 51.2521 19.6158 51.2481 19.6627C51.2616 19.877 51.2954 20.0896 51.3491 20.2976C51.44 20.7611 51.5815 21.2347 51.7027 21.7587L51.6017 21.8393C51.2868 21.4547 51.0062 21.0433 50.7631 20.61C50.6392 20.3929 50.5311 20.1673 50.4397 19.9348C50.3387 19.6829 50.3387 19.4612 50.1063 19.4309C49.6327 19.4195 49.1627 19.516 48.7322 19.7131C48.2876 19.8945 47.843 20.1061 47.4085 20.3177C46.5295 20.741 45.6706 21.2146 44.8219 21.7083C44.3874 21.9502 43.9934 22.2223 43.5286 22.444C43.0639 22.6354 42.5662 22.7346 42.0635 22.7362L42.114 22.6455Z" fill="#E5925A"/>
<path d="M40.4971 33.9824C40.2591 33.4394 40.0829 32.8716 39.9717 32.2895C39.8606 31.7755 39.8202 31.2818 39.7595 30.8283C39.6989 30.3748 39.709 29.9012 39.7595 29.3873C39.7686 28.802 39.8295 28.2186 39.9414 27.644L40.0526 27.5835C40.6065 28.553 40.9507 29.6274 41.063 30.7376C41.1214 31.8445 40.9846 32.9529 40.6588 34.0126L40.4971 33.9824Z" fill="#E5925A"/>
<path d="M61.9684 36.8439C61.8186 36.5918 61.6192 36.3724 61.3824 36.199C61.301 36.1521 61.2086 36.1274 61.1146 36.1274C61.0206 36.1274 60.9283 36.1521 60.8468 36.199C60.3332 36.4167 59.8367 36.6727 59.3615 36.9648C58.2294 37.6236 57.0124 38.1254 55.7443 38.4562C54.4225 38.7803 53.0512 38.8521 51.7027 38.6678C50.3773 38.502 49.1064 38.0405 47.9844 37.3175V37.1966C50.4147 37.8112 52.9604 37.8112 55.3906 37.1966C56.6047 36.8865 57.7936 36.4856 58.9473 35.9974C59.5286 35.7385 60.1447 35.5654 60.7761 35.4835C60.9449 35.4744 61.1135 35.5052 61.268 35.5735C61.4225 35.6418 61.5587 35.7457 61.6653 35.8765C61.8515 36.1423 61.9789 36.4446 62.0391 36.7633L61.9684 36.8439Z" fill="#E5925A"/>
<path d="M1.3843 75.1769C1.37821 76.2474 1.51065 77.3143 1.77836 78.3511C2.06934 79.3014 2.49099 80.2069 3.03126 81.0417C3.53647 81.8881 4.04167 82.785 4.71864 83.6315C5.39561 84.4779 5.91092 85.4856 6.50706 86.4429C6.97295 87.3732 7.49949 88.272 8.08329 89.1335C8.64155 89.9753 9.26305 90.7737 9.94244 91.5218C11.3302 93.1084 13.0564 94.3652 14.9945 95.1999V95.3813C12.7608 95.1192 10.6672 94.1599 9.01287 92.6403C7.33887 91.1647 5.94574 89.3998 4.90051 87.4305C3.81938 85.5159 2.57658 83.6818 1.65711 81.6463C1.18902 80.6286 0.901838 79.5375 0.808372 78.4217C0.755974 77.307 0.899598 76.1918 1.23274 75.1265L1.3843 75.1769Z" fill="#FFA631"/>
<path d="M15.0447 95.2301C15.9627 95.805 16.9601 96.243 18.0052 96.53C19.001 96.8506 20.0128 97.1197 21.0364 97.3362C22.0375 97.5533 23.0493 97.7181 24.0677 97.8299C25.0718 97.9678 26.0855 98.0251 27.0989 98.0012C28.0891 98.0262 29.079 97.9383 30.0493 97.7392C30.9917 97.5663 31.9039 97.2574 32.7572 96.8222C34.722 95.969 36.5236 94.7825 38.082 93.3154L38.2538 93.396C37.2434 95.4114 35.3842 96.8424 33.5554 98.0718C31.6547 99.2977 29.433 99.9358 27.1696 99.9058C24.9278 99.8861 22.7048 99.4944 20.5919 98.7469C19.5446 98.3882 18.5304 97.9398 17.5606 97.4067C16.5575 96.9187 15.6639 96.2331 14.9336 95.3913L15.0447 95.2301Z" fill="#FFC77D"/>
<path d="M38.0928 93.265C38.891 91.4914 39.6488 89.8892 40.3157 88.2265C40.6188 87.4001 40.9724 86.6242 41.2149 85.808C41.5063 85.0216 41.7459 84.2171 41.9323 83.3996C42.3695 81.8344 42.5938 80.2176 42.5992 78.5928C42.5774 76.8487 42.1776 75.1299 41.4271 73.5543L41.5686 73.4233C42.8986 74.7544 43.7692 76.4733 44.0542 78.3308C44.3365 80.1789 44.2368 82.065 43.7611 83.8732C42.7585 87.4593 40.8484 90.7281 38.214 93.3657L38.0928 93.265Z" fill="#FFA631"/>
<path d="M53.4099 23.2502C54.3147 23.4598 55.2652 23.327 56.0774 22.8774C56.1717 22.8296 56.2629 22.7758 56.3502 22.7162L56.623 22.5348C56.7533 22.4229 56.8718 22.2979 56.9766 22.1619C57.2038 21.8665 57.3563 21.5209 57.4212 21.1542C57.5881 20.2956 57.5881 19.413 57.4212 18.5543C57.2696 17.6273 57.0373 16.6599 56.7745 15.6421H56.8554C57.4062 16.4968 57.8379 17.4223 58.1386 18.3931C58.4655 19.3665 58.5385 20.4069 58.3508 21.4162C58.2387 21.9278 57.9926 22.4007 57.6376 22.7866C57.2826 23.1725 56.8314 23.4576 56.33 23.613C55.8469 23.7927 55.33 23.8633 54.8163 23.8197C54.3026 23.7762 53.805 23.6195 53.3594 23.3611L53.4099 23.2502Z" fill="#FFC77D"/>
<path d="M30.0805 12.4879C30.1343 13.9084 30.5973 15.2833 31.4142 16.4482C32.2304 17.6025 33.2224 18.6225 34.3545 19.4713C35.4682 20.355 36.6906 21.0933 37.992 21.6681C39.2812 22.2789 40.6873 22.6054 42.1144 22.6254V22.7463C40.6311 23.1592 39.0555 23.0993 37.608 22.575C36.1451 22.1156 34.7763 21.3989 33.5664 20.4588C32.3244 19.519 31.2921 18.3316 30.5352 16.9722C29.7466 15.6092 29.5218 13.9933 29.9087 12.4678L30.0805 12.4879Z" fill="#D65B07"/>
<path d="M30.0799 12.4878C30.5164 13.7806 31.203 14.9755 32.1007 16.0047C32.969 16.9979 33.9374 17.8995 34.9905 18.6952C36.0445 19.5288 37.159 20.2833 38.3248 20.9525C39.5183 21.6672 40.7939 22.2356 42.1239 22.6454V22.7663C40.6764 22.775 39.2447 22.4653 37.9307 21.8594C36.6029 21.3 35.3531 20.5718 34.2125 19.6929C33.0687 18.8099 32.0758 17.7481 31.2722 16.5488C30.4552 15.3596 30.0023 13.9592 29.9688 12.518L30.0799 12.4878Z" fill="#FFB888"/>
<path d="M55.3701 13.8484C53.4898 12.5927 51.414 11.6563 49.2269 11.0772C48.2106 10.8323 47.1703 10.7005 46.1249 10.6842C45.6096 10.6842 45.1145 10.6842 44.579 10.6842L42.831 10.8253C40.4666 10.9361 38.1023 10.9462 35.7582 10.8253C34.6475 10.7643 33.5344 10.7643 32.4238 10.8253C31.9062 10.7994 31.3951 10.9499 30.9746 11.2521C30.5541 11.5543 30.2492 11.9901 30.11 12.488H29.918C29.9163 12.1816 29.9752 11.878 30.0913 11.5944C30.2075 11.3108 30.3787 11.0528 30.595 10.8353C31.0479 10.4303 31.5921 10.1399 32.1813 9.98888C33.3266 9.69484 34.4971 9.50928 35.6773 9.43464C38.0316 9.24318 40.3757 9.16256 42.7502 9.00133C43.9308 8.91557 45.1161 8.91557 46.2967 9.00133C47.4844 9.10022 48.6535 9.35781 49.7725 9.76718C52.003 10.6091 53.9865 11.9949 55.5419 13.798L55.3701 13.8484Z" fill="#FFC77D"/>
<path d="M39.749 27.7143C39.8299 27.0694 40.0016 26.5857 40.0117 26.2532C40.0218 25.9206 40.1633 25.7896 40.1936 25.6082L40.4058 25.0238C40.7956 24.1501 41.3554 23.3623 42.0527 22.7061H42.174C42.1401 23.6716 41.9349 24.6235 41.5678 25.5175C41.3702 25.9608 41.1335 26.3858 40.8605 26.7872C40.5798 27.1748 40.2387 27.515 39.8501 27.7949L39.749 27.7143Z" fill="#ED670C"/>
<path d="M22.6638 31.4023C24.0221 32.1072 25.5386 32.454 27.0692 32.41C28.5938 32.3704 30.1061 32.1264 31.5655 31.6844C33.0353 31.283 34.4657 30.7501 35.8395 30.0923C37.2254 29.4591 38.5367 28.6751 39.7498 27.7544L39.8306 27.8451C38.8658 29.1179 37.6568 30.1867 36.274 30.9891C34.9084 31.8203 33.4368 32.4643 31.8989 32.9037C30.3342 33.3509 28.7025 33.5181 27.0793 33.3975C25.4197 33.325 23.8386 32.6721 22.6133 31.5534L22.6638 31.4023Z" fill="#CC8352"/>
<path d="M22.6638 31.4025C24.113 31.7004 25.6019 31.7549 27.0692 31.5638C28.5086 31.3822 29.9311 31.0857 31.323 30.677C32.7274 30.3142 34.1117 29.8205 35.5162 29.3368C36.9206 28.8531 38.3251 28.3291 39.7801 27.7144L39.8609 27.805C38.6405 28.7532 37.319 29.5643 35.9203 30.2235C34.5417 30.9048 33.1045 31.4613 31.6261 31.8862C30.1428 32.307 28.611 32.5339 27.0692 32.5614C25.5221 32.6092 23.9884 32.2623 22.6133 31.5537L22.6638 31.4025Z" fill="#FF994D"/>
<path d="M30.0492 12.5788C28.4923 13.6688 27.1497 15.0351 26.0885 16.6096C25.5731 17.3754 25.078 18.1211 24.6032 18.9273C24.1351 19.7098 23.7101 20.5172 23.33 21.3458C22.9383 22.1557 22.6008 22.9905 22.3196 23.8449C22.0158 24.6736 21.7826 25.5265 21.6225 26.3943C21.3496 28.0873 21.2991 29.8004 22.7036 31.3724L22.6127 31.5336C21.6976 31.0511 20.9822 30.2627 20.5918 29.3066C20.2176 28.3445 20.0523 27.3141 20.1068 26.2835C20.2326 24.2759 20.7473 22.3116 21.6225 20.4993C22.4869 18.6869 23.6213 17.0154 24.9871 15.5414C26.3281 14.0121 28.0818 12.8997 30.0391 12.3369L30.0492 12.5788Z" fill="#FFA631"/>
<path d="M32.0401 46.1954C32.6683 46.1061 33.2464 45.8036 33.677 45.3389C34.1296 44.8984 34.539 44.4159 34.8996 43.8978C35.6271 42.8901 36.2838 41.7615 36.9204 40.6833C37.5569 39.605 38.3653 38.5772 38.9412 37.4586C39.5703 36.3543 40.0687 35.1809 40.4265 33.9619H40.5477C40.5974 35.3126 40.349 36.6576 39.8202 37.902C39.3077 39.1007 38.6818 40.2479 37.951 41.3282C37.2637 42.4283 36.4864 43.4697 35.6271 44.442C35.1725 44.9675 34.6452 45.4255 34.0609 45.8024C33.7632 46.0156 33.4254 46.1666 33.0677 46.2463C32.71 46.3259 32.3398 46.3326 31.9795 46.2659L32.0401 46.1954Z" fill="#D65B07"/>
<path d="M32.04 46.1955C32.5807 45.9238 33.0327 45.5044 33.3435 44.9863C33.6769 44.5126 33.9497 43.9785 34.2528 43.4445C34.8187 42.3561 35.4451 41.2477 36.1221 40.1594C36.799 39.071 37.5973 38.144 38.3147 37.1363L40.5072 34.0225H40.6285C40.284 35.2576 39.8028 36.4507 39.1937 37.5796C38.5976 38.7183 37.8701 39.7764 37.1729 40.8446C36.4757 41.9128 35.8088 43.0011 35.051 44.039C34.6764 44.564 34.2499 45.0501 33.7779 45.4901C33.3159 45.9592 32.7055 46.2547 32.0501 46.3265L32.04 46.1955Z" fill="#FFB888"/>
<path d="M22.7643 31.493C22.4161 33.0184 22.4859 34.6091 22.9664 36.0982C23.4344 37.6031 24.1441 39.0223 25.068 40.3003C25.9362 41.6027 26.9535 42.7998 28.0993 43.8676C28.6772 44.4001 29.2916 44.8917 29.9382 45.3389C30.5314 45.8311 31.2691 46.1176 32.0398 46.1551V46.3466C31.8234 46.4809 31.5834 46.5732 31.3326 46.6186H30.9991H30.5849C30.113 46.5741 29.6463 46.4864 29.1905 46.3566C28.3498 46.1179 27.542 45.776 26.7857 45.3389C26.0388 44.8772 25.3413 44.3403 24.7043 43.7366C24.0838 43.107 23.5097 42.4334 22.9866 41.7212C22.4935 40.9494 22.0675 40.1369 21.7135 39.2926C21.3733 38.4325 21.149 37.5311 21.0466 36.6122C20.8999 35.689 20.9559 34.7452 21.2106 33.8457C21.4653 32.9462 21.9126 32.1126 22.5218 31.4023L22.7643 31.493Z" fill="#D65B07"/>
<path d="M22.7345 31.4832C22.9669 32.9758 23.4198 34.4258 24.0783 35.7861C24.4117 36.4108 24.7047 37.0457 25.0887 37.6402C25.4481 38.2602 25.8428 38.859 26.2709 39.4339C27.0691 40.6432 27.9886 41.792 28.908 42.971C29.3829 43.5454 29.8477 44.15 30.3529 44.7042C30.7937 45.3194 31.3757 45.8205 32.0504 46.1654V46.3468C31.2292 46.3251 30.4363 46.0427 29.7871 45.5406C29.1226 45.0961 28.4912 44.6044 27.8976 44.0694C26.7035 43.0063 25.6325 41.8131 24.7047 40.5122C23.8037 39.1882 23.1215 37.7286 22.6839 36.1891C22.2283 34.6441 22.1934 33.0058 22.5829 31.4429L22.7345 31.4832Z" fill="#FFC77D"/>
<path d="M45.4683 35.1815C45.032 35.3733 44.5829 35.5349 44.1244 35.6652C43.7359 35.7696 43.3343 35.8171 42.9321 35.8063C42.434 35.7819 41.9474 35.6477 41.5075 35.4133C41.2374 35.2876 41.0033 35.0962 40.8268 34.8568C40.6502 34.6173 40.5368 34.3374 40.4971 34.0428L40.5678 33.9521C41.2755 34.4149 42.1198 34.6245 42.9625 34.5467C43.8335 34.5592 44.6942 34.737 45.4986 35.0707L45.4683 35.1815Z" fill="#ED670C"/>
<path d="M51.8742 48.3622C52.2015 46.2157 51.8482 44.0208 50.8638 42.0843C50.4237 41.1162 49.9103 40.1831 49.328 39.2929C48.749 38.3799 48.1076 37.5079 47.4082 36.683L47.4991 36.5923C48.5139 37.1367 49.4157 37.8685 50.1565 38.7488C50.9168 39.6083 51.5496 40.5721 52.0359 41.6106C52.5293 42.6853 52.8073 43.8457 52.8543 45.0267C52.9128 46.1983 52.6171 47.3603 52.0055 48.3622H51.8742Z" fill="#CC8352"/>
<path d="M51.9854 48.362C52.9958 47.3543 54.0971 46.5683 55.1176 45.7219C56.1381 44.8754 57.1384 44.0592 58.0478 43.1623C58.9818 42.299 59.8217 41.3398 60.5536 40.3004C61.3345 39.2845 61.8235 38.0757 61.9682 36.8037H62.0995C62.3848 38.1833 62.1473 39.6195 61.4326 40.8345C60.776 42.0421 59.9262 43.1347 58.9167 44.0692C56.8833 45.8993 54.5621 47.3836 52.046 48.4628L51.9854 48.362Z" fill="#FFC77D"/>
<path d="M51.8742 48.362C51.6683 47.3196 51.4018 46.29 51.076 45.2785C50.759 44.331 50.3879 43.4024 49.9645 42.4972C49.1461 40.6531 48.1357 38.809 47.4082 36.6425L47.4991 36.5518C48.2293 37.3696 48.9044 38.2348 49.52 39.1416C50.1322 40.0472 50.6759 40.9971 51.1467 41.9833C52.0876 43.9698 52.3876 46.1984 52.0056 48.362H51.8742Z" fill="#FF994D"/>
<path d="M42.9326 40.523L52.5416 19.9155L57.3208 9.6067L59.7053 4.44727L60.8875 1.86755L61.1805 1.21255C61.2917 0.940467 61.6453 0.990852 61.8474 1.02108C62.0841 1.069 62.3145 1.14336 62.5345 1.24278C62.7164 1.35362 63.0296 1.46447 62.9892 1.77686H62.9285C62.9285 1.57532 62.6759 1.44432 62.4941 1.3637C62.2808 1.2741 62.0565 1.2131 61.8272 1.18232H61.5039H61.4028C61.4028 1.18232 61.4028 1.18232 61.3523 1.2327L61.0896 1.89778L60.0792 4.52788L57.7654 9.80824C56.2599 13.2848 54.6533 16.7211 53.0973 20.1473C51.5413 23.5734 49.864 26.9996 48.1766 30.3956L45.6405 35.4341L42.9831 40.4726L42.9326 40.523Z" fill="#E2AD52"/>
<path d="M45.1252 41.8322C44.6581 41.9203 44.1751 41.864 43.7409 41.6709C43.532 41.5503 43.3516 41.3862 43.2121 41.1896C43.0726 40.9931 42.9772 40.7689 42.9326 40.5322H42.9932C43.1872 40.6692 43.3897 40.7937 43.5995 40.9051C43.7379 40.9908 43.8833 41.0649 44.034 41.1268C44.1758 41.2215 44.3244 41.3057 44.4785 41.3787C44.6301 41.4895 44.8625 41.5802 45.1252 41.7818V41.8322Z" fill="#A36A3B"/>
<path d="M45.1251 41.8322C45.0275 41.9402 44.9191 42.0381 44.8018 42.1244C44.6643 42.18 44.5224 42.2239 44.3774 42.2554C44.0772 42.2822 43.775 42.2337 43.4984 42.1143C43.2324 41.9468 43.0216 41.705 42.8921 41.419C42.8243 41.281 42.7891 41.1293 42.7891 40.9756C42.7891 40.8219 42.8243 40.6703 42.8921 40.5322H42.9527C43.0072 40.7468 43.1064 40.9474 43.244 41.1211C43.3815 41.2947 43.5543 41.4375 43.751 41.5399C44.1646 41.7412 44.6289 41.8149 45.0847 41.7515L45.1251 41.8322Z" fill="#FFD392"/>
<path d="M62.989 1.77584C57.1219 15.1581 51.1774 28.5034 45.1553 41.8118H45.0947L47.1155 36.7028L49.2172 31.6643C50.6216 28.2985 52.117 24.963 53.5619 21.5872C55.0068 18.2114 56.5931 14.9364 58.1391 11.6312L60.4933 6.68334L62.9284 1.74561L62.989 1.77584Z" fill="#A36A3B"/>
<path d="M12.8625 40.4214C13.3532 41.7128 14.2926 42.7856 15.5097 43.4445C16.752 44.0436 18.0476 44.526 19.3796 44.8855C20.7117 45.3089 21.9823 45.9052 23.1585 46.6591C23.7271 47.0376 24.3669 47.297 25.039 47.4218C25.7112 47.5465 26.4017 47.5338 27.0688 47.3846V47.4955C26.4193 47.9274 25.6449 48.1329 24.8661 48.0799C24.0827 48.0286 23.3155 47.8339 22.6028 47.5055C21.4193 46.9343 20.193 46.4558 18.935 46.0746C17.5511 45.6841 16.2308 45.097 15.0146 44.3313C14.367 43.9092 13.8252 43.3444 13.431 42.6805C13.0369 42.0166 12.8009 41.2713 12.7412 40.502L12.8625 40.4214Z" fill="#CC8352"/>
<path d="M12.8625 40.4214C13.654 41.4433 14.6987 42.2421 15.8937 42.7391C17.0355 43.1825 18.3288 43.4848 19.6928 43.9181C20.382 44.158 21.0567 44.4373 21.7137 44.7545C22.3669 45.0984 22.986 45.5033 23.5627 45.9637C24.5533 46.7874 25.7815 47.2746 27.0688 47.3544V47.4652C26.3848 47.6355 25.6729 47.6635 24.9775 47.5473C24.2821 47.4312 23.6182 47.1734 23.0272 46.7901C21.8552 46.0618 20.5912 45.4925 19.2685 45.0971C17.927 44.7122 16.6246 44.2027 15.3784 43.5755C14.1433 42.8811 13.1974 41.7697 12.7109 40.4415L12.8625 40.4214Z" fill="#FF994D"/>
<path d="M21.5316 30.6369C20.6828 31.6446 19.9149 32.5011 19.1066 33.3073C18.2983 34.1134 17.5102 34.8289 16.7524 35.5746C15.9946 36.3203 15.2266 37.0055 14.5295 37.7109C13.7538 38.4508 13.1889 39.3827 12.8926 40.4116L12.7107 40.472C12.5429 39.8883 12.5011 39.2757 12.5882 38.6746C12.6753 38.0736 12.8892 37.4978 13.2159 36.9854C13.8215 35.9676 14.5777 35.0469 15.459 34.2545C16.3369 33.4514 17.2835 32.7264 18.2882 32.0879C19.2782 31.4355 20.3434 30.9043 21.4608 30.5059L21.5316 30.6369Z" fill="#FFA631"/>
<path d="M28.16 51.2343C27.5952 50.8056 27.1813 50.2094 26.9778 49.5313C26.7724 48.8476 26.7936 48.116 27.0385 47.4453H27.1294C27.4277 48.0438 27.681 48.6636 27.8872 49.2995C28.0666 49.9595 28.1883 50.6339 28.2509 51.3149L28.16 51.2343Z" fill="#E5925A"/>
<path d="M13.2267 56.9575C16.2336 58.0861 19.5028 58.3275 22.6437 57.6528C24.2103 57.3805 25.6716 56.6833 26.8672 55.6374C27.4103 55.0582 27.8086 54.3594 28.0299 53.5977C28.2511 52.836 28.2889 52.0329 28.1403 51.2539H28.2918C28.6093 52.0575 28.7439 52.9214 28.6859 53.7832C28.5783 54.7245 28.1912 55.6122 27.5744 56.3327C26.3491 57.6704 24.7217 58.5756 22.9367 58.9124C21.2541 59.2695 19.5183 59.3003 17.824 59.0031C16.1348 58.7255 14.5314 58.0672 13.1357 57.0784L13.2267 56.9575Z" fill="#D65B07"/>
<path d="M13.2267 56.9576C14.7972 57.1244 16.3761 57.1985 17.9554 57.1793C19.4572 57.1524 20.9529 56.9803 22.4214 56.6654C23.8064 56.4118 25.1197 55.8617 26.271 55.0531C26.8267 54.66 27.2552 54.1137 27.5037 53.4811C27.8192 52.7671 28.0237 52.0093 28.11 51.2339H28.2918C28.4491 52.0348 28.4158 52.8614 28.1947 53.6471C27.9736 54.4329 27.5708 55.1561 27.0187 55.7585C25.8118 56.8589 24.3213 57.6021 22.7144 57.9049C19.5086 58.5593 16.1813 58.2723 13.1357 57.0786L13.2267 56.9576Z" fill="#FFB888"/>
<path d="M12.8824 40.4817C12.5889 41.9081 12.3898 43.3522 12.2862 44.8047C12.2054 46.1853 12.1347 47.5457 12.165 48.9061C12.1498 50.2518 12.2072 51.5973 12.3367 52.9369C12.4346 53.6789 12.4919 54.4257 12.5085 55.174C12.5005 55.4708 12.5415 55.767 12.6297 56.0507C12.7758 56.3807 12.9813 56.6813 13.236 56.9374L13.1653 57.1087C12.7928 56.9853 12.4535 56.7786 12.1733 56.5044C11.8931 56.2302 11.6794 55.8958 11.5486 55.5267C11.296 54.8112 11.1242 54.0856 10.8919 53.3802C10.4807 51.9277 10.2733 50.4254 10.2755 48.9161C10.2702 47.4079 10.4534 45.9049 10.8211 44.4419C11.1687 42.982 11.8154 41.6096 12.7207 40.4111L12.8824 40.4817Z" fill="#FFC77D"/>
<path d="M29.9688 70.8944C30.5699 70.4211 31.0367 69.7993 31.3227 69.0907C31.6864 68.4054 32.0199 67.7 32.3331 66.9946C33.0101 65.5939 33.6365 64.163 34.1922 62.7119H34.3135C34.4419 63.5432 34.411 64.3912 34.2226 65.211C34.0751 66.0012 33.8378 66.772 33.5153 67.5086C33.1691 68.2287 32.7384 68.9053 32.2321 69.524C31.9829 69.8982 31.66 70.218 31.2831 70.464C30.9062 70.71 30.4831 70.877 30.0395 70.9549L29.9688 70.8944Z" fill="#CC8352"/>
<path d="M29.9688 70.8941C30.2589 70.1866 30.4855 69.4549 30.6457 68.7074C30.8684 67.9753 31.1384 67.2583 31.454 66.561C31.79 65.863 32.1749 65.1895 32.6059 64.5456C33.0619 63.8572 33.6091 63.2335 34.2327 62.6914H34.3539C33.8386 64.1727 33.2425 65.6137 32.5958 67.0346C32.2624 67.74 31.9087 68.4353 31.5248 69.1205C31.1971 69.8442 30.685 70.4696 30.0395 70.9344L29.9688 70.8941Z" fill="#FF994D"/>
<path d="M45.8326 57.905C45.5056 57.7641 45.1677 57.6495 44.8222 57.5624C44.7175 57.5263 44.6037 57.5263 44.4989 57.5624C44.4484 57.5624 44.1756 57.5624 44.0745 57.5624C43.5491 57.5624 42.9631 57.5624 42.367 57.5624C41.7356 57.5318 41.1074 57.4544 40.4876 57.3306C39.7696 57.2006 39.0835 56.9337 38.4668 56.5446V56.4237C39.7702 56.4237 41.0635 56.2826 42.3771 56.3128C43.0371 56.333 43.6921 56.4345 44.3271 56.6152C44.6504 56.7063 44.9516 56.8623 45.2123 57.0737C45.4729 57.2852 45.6874 57.5475 45.8428 57.8445L45.8326 57.905Z" fill="#E5925A"/>
<path d="M47.9438 71.3378C48.2417 70.2216 48.3543 69.0642 48.2772 67.9117C48.2243 66.7625 48.0961 65.618 47.8933 64.4855C47.7135 63.3435 47.4672 62.213 47.1557 61.0996C46.856 59.985 46.411 58.9144 45.832 57.9153L45.9331 57.8447C46.9036 58.6514 47.6513 59.692 48.1054 60.8678C48.585 61.9736 48.9244 63.1347 49.1158 64.3242C49.3212 65.5223 49.3654 66.7423 49.2472 67.952C49.1807 69.2034 48.7641 70.4111 48.0448 71.4386L47.9438 71.3378Z" fill="#D65B07"/>
<path d="M47.9438 71.3377C47.8629 70.1284 47.6407 69.0502 47.4689 67.9417L46.9031 64.6365L46.3878 61.3211C46.2059 60.2026 46.0644 59.1042 45.832 57.905L45.9331 57.8345C46.5402 58.8366 47.0124 59.914 47.3375 61.039C47.6782 62.1529 47.9482 63.2871 48.1459 64.4349C48.3448 65.5841 48.4629 66.7458 48.4995 67.9115C48.5608 69.0807 48.4277 70.2521 48.1054 71.378L47.9438 71.3377Z" fill="#FFB888"/>
<path d="M30.0597 70.8638C31.5877 71.177 33.1388 71.3657 34.6975 71.4281C35.4654 71.4281 36.2131 71.5591 36.981 71.5792C37.7489 71.5994 38.4966 71.7102 39.2544 71.7505C40.7599 71.8916 42.2856 71.9722 43.7406 72.0428C44.4674 72.0883 45.1963 72.0883 45.9231 72.0428C46.66 72.0701 47.3806 71.8222 47.9439 71.3475L48.1258 71.4079C47.9543 71.7853 47.7029 72.1212 47.389 72.3925C47.075 72.6639 46.706 72.8643 46.307 72.9799C45.5467 73.2577 44.7567 73.4471 43.9528 73.5442C42.3564 73.7288 40.7461 73.7626 39.1433 73.645C37.5286 73.5144 35.927 73.2549 34.3539 72.8691C32.7637 72.5755 31.2568 71.9393 29.9385 71.0048L30.0597 70.8638Z" fill="#FFC77D"/>
<path d="M33.1621 61.311C34.9539 57.4348 36.7726 53.5685 38.6183 49.7124H38.6789C38.4049 50.7564 38.0674 51.7828 37.6685 52.7859C37.2846 53.7936 36.8299 54.7509 36.4156 55.7385C36.0013 56.726 35.4759 57.6531 34.9404 58.5802C34.4186 59.5256 33.8382 60.4377 33.2025 61.311H33.1621Z" fill="#E2AD52"/>
<path d="M35.8185 62.6513C35.5715 62.8126 35.2858 62.905 34.9909 62.9192C34.696 62.9334 34.4027 62.8687 34.1413 62.7319C33.6545 62.3977 33.2978 61.9067 33.1309 61.3413H33.1915C33.4845 61.5328 33.6967 61.7142 33.8988 61.8552C34.06 61.997 34.2402 62.1157 34.4343 62.2079C34.5818 62.3202 34.75 62.4023 34.9294 62.4498C35.1517 62.5102 35.3942 62.5505 35.7579 62.611L35.8185 62.6513Z" fill="#A36A3B"/>
<path d="M35.8186 62.6511C35.7411 62.8107 35.6309 62.9524 35.4952 63.0669C35.3595 63.1815 35.2012 63.2664 35.0305 63.3162C34.6442 63.4073 34.2378 63.3535 33.8888 63.1651C33.589 62.9566 33.3516 62.6711 33.2017 62.3388C33.0877 62.0125 33.0877 61.6573 33.2017 61.3311H33.2623C33.4402 61.8668 33.7968 62.3256 34.2727 62.631C34.5113 62.772 34.7835 62.8464 35.0608 62.8464C35.3381 62.8464 35.6104 62.772 35.8489 62.631L35.8186 62.6511Z" fill="#FFD392"/>
<path d="M41.2951 50.4379C39.5101 54.5157 37.6914 58.5801 35.8389 62.6311H35.7783C36.0508 61.5405 36.3882 60.4671 36.7887 59.4165C37.1626 58.3584 37.6274 57.3507 38.0416 56.3128C38.4559 55.2749 38.9813 54.2974 39.5168 53.2897C40.0324 52.2866 40.6059 51.3142 41.2345 50.3774L41.2951 50.4379Z" fill="#A36A3B"/>
<path d="M17.9754 73.7461C17.5545 73.4547 17.1681 73.1167 16.8235 72.7384C16.5189 72.4017 16.2419 72.0411 15.995 71.6602C15.4503 70.8395 15.1299 69.8913 15.0654 68.9092H15.1463C16.3623 70.3572 17.3442 71.9858 18.0562 73.7361L17.9754 73.7461Z" fill="#E5925A"/>
<path d="M1.17199 74.9354C2.45532 76.1691 3.99823 77.102 5.68851 77.6662C7.36162 78.2765 9.12163 78.6166 10.9022 78.6739C12.6904 78.7361 14.4748 78.4696 16.1664 77.8879C16.5926 77.7732 16.9912 77.574 17.3384 77.3022C17.6856 77.0303 17.9743 76.6915 18.1872 76.3058C18.4517 75.4654 18.3941 74.5569 18.0256 73.7563H18.1468C18.437 74.1595 18.6383 74.6194 18.7376 75.1057C18.8369 75.592 18.8318 76.0937 18.7227 76.5779C18.515 77.0798 18.2099 77.5358 17.825 77.9197C17.44 78.3036 16.9828 78.6079 16.4796 78.815C15.6078 79.2218 14.6877 79.5164 13.7414 79.6917C12.793 79.8759 11.8279 79.9603 10.8618 79.9436C8.95076 79.8663 7.07474 79.4072 5.34497 78.5933C3.59833 77.8507 2.11366 76.6051 1.08105 75.016L1.17199 74.9354Z" fill="#D65B07"/>
<path d="M1.17259 74.9349C1.91034 75.4212 2.70418 75.8171 3.53694 76.1139C4.33197 76.4275 5.14512 76.6934 5.97202 76.91C7.58949 77.3587 9.25507 77.6125 10.9331 77.6658C11.7529 77.7079 12.5748 77.6742 13.3884 77.565C14.2146 77.4781 15.0346 77.3402 15.8437 77.1519C16.549 77.0537 17.1912 76.6938 17.6422 76.1442C18.0318 75.4227 18.1432 74.5839 17.9554 73.7861H18.0767C18.4688 74.619 18.5337 75.5682 18.2586 76.4465C17.8373 77.2583 17.1106 77.8706 16.2377 78.1495C14.5366 78.7547 12.7389 79.045 10.9331 79.006C9.1321 78.9277 7.35509 78.5637 5.6689 77.9278C3.96003 77.3398 2.40595 76.3754 1.12207 75.1062L1.17259 74.9349Z" fill="#FFB888"/>
<path d="M3.79924 62.5407L2.93029 65.8459C2.82925 66.3599 2.65748 66.8536 2.56654 67.3373C2.47561 67.821 2.29373 68.345 2.2028 68.8086C1.92999 69.8163 1.73801 70.7534 1.51572 71.741C1.24024 72.7753 1.13447 73.8472 1.20249 74.9152L1.06104 75.0462C0.362905 74.1036 0.00663106 72.9524 0.0506318 71.7813C0.0165108 70.632 0.135429 69.4833 0.404274 68.3652C0.917282 66.11 2.05918 64.0454 3.6982 62.4097L3.79924 62.5407Z" fill="#FFC77D"/>
<path d="M24.7149 87.4305C24.4525 87.6844 24.126 87.8625 23.7701 87.9459C23.4143 88.0293 23.0424 88.0149 22.6941 87.9042C22.3673 87.7541 22.078 87.5333 21.8473 87.258C21.6167 86.9826 21.4503 86.6595 21.3604 86.312H21.421C21.7443 86.5639 21.9868 86.7957 22.2293 86.967C22.4277 87.1406 22.6624 87.268 22.9164 87.3398C23.1378 87.4521 23.3862 87.5009 23.6338 87.4809C23.9721 87.4782 24.3097 87.4512 24.6442 87.4003L24.7149 87.4305Z" fill="#A36A3B"/>
<path d="M24.7142 87.4305C24.6443 87.6271 24.5348 87.8072 24.3923 87.9598C24.2497 88.1123 24.0773 88.234 23.8856 88.3173C23.4621 88.509 22.9809 88.5307 22.5418 88.3778C22.1149 88.2086 21.7585 87.8994 21.5314 87.5011C21.3329 87.1382 21.2685 86.7174 21.3495 86.312H21.4101C21.509 86.6413 21.6773 86.9456 21.9039 87.2046C22.1305 87.4636 22.41 87.6712 22.7237 87.8135C23.0518 87.9191 23.4021 87.9365 23.7392 87.864C24.0762 87.7914 24.3882 87.6315 24.6434 87.4003L24.7142 87.4305Z" fill="#FFD392"/>
<path d="M32.1307 46.1855C33.7969 46.901 35.5297 47.4512 37.304 47.8281C38.1729 48.0095 39.0217 48.2614 39.9007 48.4126C40.7798 48.5637 41.6285 48.8056 42.4975 48.9466C43.3664 49.0877 44.2253 49.2792 45.0841 49.4102C45.943 49.5412 46.8018 49.652 47.6404 49.7528C48.4462 49.844 49.2597 49.844 50.0654 49.7528C50.4251 49.7153 50.7711 49.5945 51.0758 49.4001C51.3923 49.1122 51.6557 48.7712 51.8538 48.3924H52.0458C51.9797 48.864 51.8327 49.3208 51.6113 49.7427C51.3314 50.1451 50.9424 50.4597 50.4898 50.6497C49.6124 51.0076 48.6787 51.2089 47.7314 51.2442C45.8582 51.3222 43.9824 51.1767 42.1438 50.8109C40.3093 50.4405 38.5107 49.9112 36.7685 49.2288C34.9905 48.6128 33.3622 47.6309 31.9893 46.3468L32.1307 46.1855Z" fill="#FFA631"/>
<path d="M45.4687 10.6839C44.2384 11.1847 42.935 11.4841 41.609 11.5707C40.3018 11.6814 38.9885 11.7016 37.6785 11.6311C36.3751 11.5707 35.0919 11.4699 33.8288 11.4195C33.2233 11.3773 32.6147 11.418 32.0202 11.5404C31.752 11.5915 31.5134 11.7429 31.3534 11.9637C31.2016 12.2295 31.1379 12.5363 31.1715 12.8404C30.9993 12.534 30.9488 12.1744 31.03 11.8327C31.1604 11.4648 31.4283 11.1615 31.7777 10.9862C32.4101 10.6771 33.0962 10.4924 33.7985 10.442C35.1101 10.3416 36.4275 10.3416 37.7391 10.442C40.3561 10.5025 42.8619 10.7242 45.4687 10.6839Z" fill="white"/>
<path d="M28.4932 14.1001C27.479 15.207 26.5974 16.4278 25.8661 17.7379C25.1081 19.0169 24.4331 20.3431 23.8453 21.7082C23.2516 23.0585 22.7552 24.4493 22.36 25.87C22.166 26.5766 22.0309 27.2978 21.9559 28.0265C21.8354 28.7542 21.9787 29.5008 22.36 30.1326C22.0556 29.874 21.8085 29.5549 21.6346 29.1958C21.4606 28.8366 21.3636 28.4453 21.3496 28.0467C21.2652 27.2584 21.2822 26.4626 21.4001 25.6786C21.636 24.1192 22.0776 22.5978 22.7137 21.154C23.3293 19.7232 24.1128 18.3701 25.0477 17.1232C25.9596 15.8753 27.136 14.8431 28.4932 14.1001Z" fill="white"/>
<path d="M23.5527 34.5566C24.8562 36.3302 26.008 38.1441 27.2306 39.8975C27.8268 40.7842 28.4532 41.6509 29.0999 42.4973C29.7453 43.3588 30.451 44.1737 31.2116 44.936C30.2118 44.4497 29.3081 43.7874 28.5441 42.981C27.77 42.1943 27.0667 41.3412 26.4425 40.4315C25.1886 38.6293 24.2144 36.6487 23.5527 34.5566V34.5566Z" fill="white"/>
<path d="M52.1064 39.061C52.7849 39.0344 53.4604 38.9569 54.1273 38.8292C54.7834 38.7085 55.4313 38.5469 56.0672 38.3455C57.3689 37.9075 58.647 37.403 59.8967 36.834C59.0061 37.9903 57.7829 38.8481 56.3906 39.2928C54.9859 39.7687 53.4513 39.6857 52.1064 39.061V39.061Z" fill="white"/>
<path d="M62.1498 22.7163C61.6673 23.6234 61.3265 24.5987 61.1394 25.6084C61.0337 26.5995 61.2051 27.6005 61.6345 28.5005C62.1017 29.4469 62.4772 30.4356 62.7561 31.4531C62.9603 32.5206 62.7624 33.6257 62.2004 34.5568C62.5252 33.579 62.5533 32.5273 62.2812 31.5337C61.9185 30.5697 61.507 29.6246 61.0485 28.7021C60.5969 27.6929 60.4869 26.5645 60.7353 25.4875C60.9942 24.4703 61.4775 23.5236 62.1498 22.7163V22.7163Z" fill="white"/>
<path d="M19.4907 32.4604C17.9591 33.8075 16.5367 35.2732 15.2369 36.8439C14.6033 37.5928 14.1474 38.4746 13.9031 39.4237C13.8248 39.9075 13.8836 40.4034 14.0728 40.8557C14.2621 41.3079 14.5743 41.6985 14.9741 41.9832C14.4923 41.7616 14.0801 41.4132 13.7819 40.9755C13.4938 40.4972 13.3696 39.9383 13.4282 39.3834C13.5863 38.3128 14.0412 37.3075 14.7418 36.4812C15.384 35.6569 16.1197 34.9096 16.9343 34.2542C17.7274 33.5767 18.5834 32.9761 19.4907 32.4604V32.4604Z" fill="white"/>
<path d="M12.6502 43.4346C12.6502 45.8631 12.4279 48.2413 12.4582 50.5993C12.4416 51.7674 12.5329 52.9346 12.731 54.086C12.7671 54.6615 12.9398 55.2202 13.235 55.716C13.5301 56.2119 13.9392 56.6306 14.4285 56.9378C14.1121 56.8818 13.8099 56.764 13.5394 56.591C13.2689 56.4181 13.0354 56.1934 12.8523 55.9301C12.4715 55.4178 12.1874 54.8407 12.0136 54.2271C11.6663 53.039 11.4961 51.8065 11.5084 50.5691C11.5012 48.1451 11.8868 45.7359 12.6502 43.4346V43.4346Z" fill="white"/>
<path d="M14.9746 59.356C15.799 60.4041 16.8308 61.2719 18.0058 61.9054C19.1577 62.5705 20.35 63.1953 21.5119 63.9208C22.6842 64.6213 23.7724 65.453 24.7553 66.3998C25.7343 67.3507 26.5622 68.4449 27.2106 69.6446C26.379 68.5974 25.4486 67.6323 24.432 66.7626C23.4195 65.9245 22.3455 65.1632 21.2189 64.4852C20.0873 63.7798 18.895 63.1449 17.7835 62.3589C16.5947 61.6265 15.6247 60.5895 14.9746 59.356Z" fill="white"/>
<path d="M49.7722 52.02C49.9934 52.5075 50.1071 53.0368 50.1056 53.5719C50.1246 54.118 50.0353 54.6625 49.8429 55.1741C49.6453 55.6834 49.3224 56.135 48.904 56.4872C48.4855 56.8394 47.9849 57.0809 47.4482 57.1895C47.8514 56.8951 48.2208 56.5571 48.5496 56.1818C48.8436 55.8062 49.0786 55.3883 49.2468 54.9423C49.5846 54.0044 49.7622 53.0166 49.7722 52.02V52.02Z" fill="white"/>
<path d="M9.75016 57.23C8.38135 58.265 7.1189 59.433 5.98135 60.7166C5.4382 61.3121 5.08629 62.0562 4.97095 62.853C4.98318 63.2631 5.08758 63.6652 5.27645 64.0298C5.46532 64.3943 5.73383 64.7118 6.06218 64.9591C5.67727 64.7608 5.33423 64.4905 5.05178 64.163C4.74516 63.7948 4.56147 63.3403 4.52637 62.863C4.5433 61.9224 4.90239 61.0199 5.53677 60.3236C6.12069 59.6293 6.80119 59.0219 7.55758 58.5198C8.23896 58.0112 8.97422 57.5787 9.75016 57.23Z" fill="white"/>
<path d="M3.12195 64.9688C2.82893 66.0671 2.60664 67.1655 2.40456 68.2539C2.21021 69.3378 2.12222 70.438 2.14186 71.539C2.15275 72.5873 2.39783 73.62 2.85924 74.5621C3.38304 75.5227 4.15825 76.3237 5.10235 76.8798C3.93119 76.6224 2.90184 75.9308 2.22269 74.945C1.57435 73.9257 1.2244 72.746 1.21228 71.539C1.19395 69.2102 1.85765 66.9267 3.12195 64.9688V64.9688Z" fill="white"/>
<path d="M2.91016 79.6514C3.61744 81.2234 4.41566 82.7349 5.2543 84.2163C6.09293 85.6976 6.98209 87.1487 7.95208 88.5292C8.88261 89.9305 9.94133 91.2427 11.1147 92.4492C11.7129 93.0462 12.3933 93.5551 13.1355 93.9607C13.8608 94.3953 14.7095 94.5795 15.5503 94.4847C14.6969 94.7658 13.7699 94.7264 12.9435 94.3739C12.1241 94.0247 11.3614 93.5561 10.6802 92.9832C9.33389 91.8461 8.15375 90.5266 7.17407 89.0633C6.19042 87.6346 5.33178 86.1242 4.60764 84.5488C3.85351 82.9874 3.28386 81.3439 2.91016 79.6514V79.6514Z" fill="white"/>
</svg>
