<svg width="50" height="44" viewBox="0 0 80 54" fill="none" xmlns="http://www.w3.org/2000/svg">
<g clip-path="url(#clip0)">
<path d="M39.8847 33.7168C19.1256 33.5423 2.39993 27.5483 2.48356 20.3218C2.42809 24.9708 3.46299 29.5827 5.52812 33.8897C7.59325 38.1966 10.6474 42.1126 14.5132 45.4102C21.0555 50.9951 29.161 53.9238 37.4594 53.9893H40.1291C43.8291 54.0415 47.5169 53.6148 51.0651 52.724C66.5749 48.7589 77.3436 36.7329 77.5302 20.9435C77.4401 28.1755 60.573 33.8913 39.8847 33.7168Z" fill="#E3A687"/>
<path d="M77.5269 20.9419C77.6143 13.7162 60.8862 7.72595 40.1636 7.5624C19.441 7.39885 2.57104 13.1239 2.48357 20.3497C2.3961 27.5755 19.1242 33.5657 39.8468 33.7292C60.5695 33.8928 77.4394 28.1677 77.5269 20.9419Z" fill="#6C4634"/>
<path d="M77.5269 20.9419C77.6143 13.7162 60.8862 7.72595 40.1636 7.5624C19.441 7.39885 2.57104 13.1239 2.48357 20.3497C2.3961 27.5755 19.1242 33.5657 39.8468 33.7292C60.5695 33.8928 77.4394 28.1677 77.5269 20.9419Z" fill="#6C4634"/>
<path d="M77.5269 20.9419C77.6143 13.7162 60.8862 7.72595 40.1636 7.5624C19.441 7.39885 2.57104 13.1239 2.48357 20.3497C2.3961 27.5755 19.1242 33.5657 39.8468 33.7292C60.5695 33.8928 77.4394 28.1677 77.5269 20.9419Z" stroke="#F2C4AF" stroke-width="7.71" stroke-miterlimit="10"/>
<path d="M77.5269 20.9419C77.6143 13.7162 60.8862 7.72595 40.1636 7.5624C19.441 7.39885 2.57104 13.1239 2.48357 20.3497C2.3961 27.5755 19.1242 33.5657 39.8468 33.7292C60.5695 33.8928 77.4394 28.1677 77.5269 20.9419Z" stroke="#F2C4AF" stroke-width="7.71" stroke-miterlimit="10"/>
<path d="M14.4741 32.7243C14.4741 32.7243 -1.74355 20.8563 8.04095 15.8168C17.8254 10.7773 9.85764 0.809937 28.1979 1.988C46.5382 3.16606 43.7851 3.74964 63.4248 11.1234C87.166 18.1918 69.1538 30.8154 69.1538 30.8154L14.4741 32.7243Z" fill="#F0E9CF"/>
<path d="M25.301 3.09771C25.4361 2.64502 24.529 1.95237 23.3197 2.93409C22.1103 3.9158 24.8957 4.45575 25.301 3.09771Z" fill="#EBD9A2"/>
<path d="M32.8081 9.24993C33.3356 9.08631 33.5286 8.08277 31.8431 7.83734C30.1577 7.59191 31.2191 9.75715 32.8081 9.24993Z" fill="#EBD9A2"/>
<path d="M25.6164 9.32075C26.1503 9.15168 26.3369 8.1536 24.6579 7.90271C22.9789 7.65183 24.0146 9.86615 25.6164 9.32075Z" fill="#EBD9A2"/>
<path d="M24.1559 12.1407C24.3747 11.7098 23.6091 10.9081 22.2261 11.7262C20.843 12.5443 23.4933 13.4279 24.1559 12.1407Z" fill="#EBD9A2"/>
<path d="M21.2934 17.1419C21.6215 16.7601 21.1004 15.8438 19.5308 16.3892C17.9612 16.9346 20.2963 18.2817 21.2934 17.1419Z" fill="#EBD9A2"/>
<path d="M17.8126 14.584C18.3722 14.6494 19.1506 13.8586 17.8126 12.9478C16.4745 12.037 16.0821 14.3713 17.8126 14.584Z" fill="#EBD9A2"/>
<path d="M28.723 27.6737C29.2827 27.7446 30.0611 26.9538 28.7552 26.0375C27.4493 25.1213 27.0183 27.461 28.723 27.6737Z" fill="#EBD9A2"/>
<path d="M12.596 27.6843C12.9241 27.308 12.3966 26.3917 10.8334 26.9371C9.27019 27.4825 11.5796 28.8242 12.596 27.6843Z" fill="#EBD9A2"/>
<path d="M15.1495 16.4548C15.4776 16.0785 14.9501 15.1622 13.3805 15.7076C11.8108 16.253 14.1524 17.5947 15.1495 16.4548Z" fill="#EBD9A2"/>
<path d="M18.3663 23.6866C18.8938 23.5121 19.0739 22.514 17.3884 22.274C15.703 22.034 16.7645 24.1993 18.3663 23.6866Z" fill="#EBD9A2"/>
<path d="M20.5279 8.89573C20.856 8.51941 20.3349 7.60314 18.7653 8.14854C17.1957 8.69393 19.5373 10.0356 20.5279 8.89573Z" fill="#EBD9A2"/>
<path d="M22.5156 19.4872C22.1618 19.1217 20.9267 19.2635 21.1261 20.6434C21.3256 22.0233 23.5385 20.5889 22.5156 19.4872Z" fill="#EBD9A2"/>
<path d="M11.779 20.0488C12.1971 19.7325 11.9141 18.7453 10.2415 19.0234C8.56893 19.3016 10.5245 20.9978 11.779 20.0488Z" fill="#EBD9A2"/>
<path d="M22.5994 24.9576C23.0175 24.6413 22.7345 23.6596 21.0619 23.9377C19.3893 24.2159 21.3385 25.9121 22.5994 24.9576Z" fill="#EBD9A2"/>
<path d="M16.8668 28.0338C17.3107 28.3283 18.4751 27.9738 17.9154 26.6593C17.3557 25.3449 15.5417 27.1502 16.8668 28.0338Z" fill="#EBD9A2"/>
<path d="M16.6358 20.2887C17.2019 20.3541 17.9738 19.5633 16.6358 18.6525C15.2977 17.7417 14.9375 20.0814 16.6358 20.2887Z" fill="#EBD9A2"/>
<path d="M8.21515 25.4866C8.77482 25.5793 9.59823 24.8212 8.35024 23.8504C7.10225 22.8796 6.52972 25.1975 8.21515 25.4866Z" fill="#EBD9A2"/>
<path d="M25.0239 19.8904C25.5836 19.9886 26.407 19.2305 25.1654 18.2542C23.9239 17.278 23.3385 19.6068 25.0239 19.8904Z" fill="#EBD9A2"/>
<path d="M14.0877 24.1338C14.5316 23.8447 14.3257 22.8466 12.6339 23.043C10.942 23.2393 12.7561 25.0173 14.0877 24.1338Z" fill="#EBD9A2"/>
<path d="M25.867 23.3813C26.3109 23.0923 26.105 22.0942 24.4132 22.2905C22.7213 22.4869 24.5354 24.2649 25.867 23.3813Z" fill="#EBD9A2"/>
<path d="M45.0303 22.792C45.59 22.8629 46.3684 22.0721 45.0303 21.1558C43.6923 20.2395 43.332 22.5848 45.0303 22.792Z" fill="#EBD9A2"/>
<path d="M34.8409 18.6415C35.3684 18.4724 35.5485 17.4689 33.8631 17.2344C32.1776 16.9998 33.2391 19.1378 34.8409 18.6415Z" fill="#EBD9A2"/>
<path d="M37.4457 14.0819C37.0984 13.7165 35.8632 13.8583 36.0627 15.2381C36.2621 16.618 38.5072 15.1836 37.4457 14.0819Z" fill="#EBD9A2"/>
<path d="M28.2533 15.0038C28.6715 14.6929 28.3884 13.7057 26.7159 13.9839C25.0433 14.262 27.0182 15.9582 28.2533 15.0038Z" fill="#EBD9A2"/>
<path d="M39.0732 19.9179C39.4914 19.6016 39.2083 18.6144 37.5293 18.8926C35.8503 19.1707 37.8124 20.8724 39.0732 19.9179Z" fill="#EBD9A2"/>
<path d="M33.3415 22.9941C33.779 23.2887 34.9433 22.9287 34.3837 21.6197C33.824 20.3108 32.0163 22.1051 33.3415 22.9941Z" fill="#EBD9A2"/>
<path d="M33.3415 28.5518C33.779 28.8463 34.9433 28.4864 34.3837 27.172C33.824 25.8575 32.0163 27.6628 33.3415 28.5518Z" fill="#EBD9A2"/>
<path d="M33.1104 15.2438C33.6765 15.3147 34.4484 14.5184 33.1104 13.6076C31.7723 12.6968 31.4121 15.0365 33.1104 15.2438Z" fill="#EBD9A2"/>
<path d="M49.4566 28.4099C49.7912 28.0336 49.2637 27.1173 47.694 27.6627C46.1244 28.2081 48.466 29.5443 49.4566 28.4099Z" fill="#EBD9A2"/>
<path d="M30.6919 24.2375C31.0199 23.8612 30.4989 22.9449 28.9292 23.4903C27.3596 24.0357 29.6948 25.3774 30.6919 24.2375Z" fill="#EBD9A2"/>
<path d="M41.917 29.2662C42.4445 29.0971 42.6247 28.0936 40.9392 27.8536C39.2538 27.6136 40.3152 29.7789 41.917 29.2662Z" fill="#EBD9A2"/>
<path d="M37.8899 26.3099C38.308 25.9991 38.025 25.0119 36.3524 25.29C34.6799 25.5682 36.6676 27.2644 37.8899 26.3099Z" fill="#EBD9A2"/>
<path d="M40.6429 23.9977C41.2026 24.0686 41.9745 23.2723 40.6429 22.3615C39.3113 21.4507 38.9382 23.7904 40.6429 23.9977Z" fill="#EBD9A2"/>
<path d="M41.4993 14.8514C42.0526 14.9441 42.8824 14.186 41.6344 13.2152C40.3864 12.2444 39.8139 14.5678 41.4993 14.8514Z" fill="#EBD9A2"/>
<path d="M52.9368 28.5955C53.4965 28.6937 54.3199 27.9356 53.0719 26.9593C51.8239 25.9831 51.2514 28.3119 52.9368 28.5955Z" fill="#EBD9A2"/>
<path d="M30.5633 19.0946C31.0007 18.8001 30.8013 17.802 29.1095 18.0038C27.4176 18.2056 29.2317 19.9781 30.5633 19.0946Z" fill="#EBD9A2"/>
<path d="M45.8153 26.2938C46.2527 25.9993 46.0533 25.0012 44.3614 25.203C42.6696 25.4048 44.4836 27.1773 45.8153 26.2938Z" fill="#EBD9A2"/>
<path d="M42.7918 18.0473C43.2357 17.7583 43.0298 16.7602 41.338 16.9565C39.6461 17.1529 41.4602 18.9091 42.7918 18.0473Z" fill="#EBD9A2"/>
<path d="M28.5493 7.30831C29.1089 7.40649 29.9324 6.64838 28.6908 5.69939C27.4492 4.75039 26.8638 7.02471 28.5493 7.30831Z" fill="#EBD9A2"/>
<path d="M20.3216 5.552C20.8812 5.64472 21.7046 4.88661 20.4631 3.9158C19.2215 2.94499 18.6554 5.26294 20.3216 5.552Z" fill="#EBD9A2"/>
<path d="M29.3924 10.7988C29.8298 10.5097 29.6304 9.51166 27.9386 9.708C26.2467 9.90434 28.0608 11.6823 29.3924 10.7988Z" fill="#EBD9A2"/>
<path d="M38.3663 6.04834C38.8938 5.87926 39.0739 4.87573 37.3884 4.64121C35.703 4.40668 36.7645 6.59374 38.3663 6.04834Z" fill="#EBD9A2"/>
<path d="M42.5986 7.3354C43.0167 7.01907 42.7337 6.0319 41.0547 6.31005C39.3757 6.58821 41.3377 8.2844 42.5986 7.3354Z" fill="#EBD9A2"/>
<path d="M50.5945 6.78462C51.0126 6.46829 50.7296 5.48112 49.057 5.75927C47.3844 6.03743 49.3336 7.73907 50.5945 6.78462Z" fill="#EBD9A2"/>
<path d="M47.6038 7.98485C47.3336 7.5758 46.0856 7.55398 45.9955 8.9393C45.9055 10.3246 48.44 9.21199 47.6038 7.98485Z" fill="#EBD9A2"/>
<path d="M36.8669 10.4116C37.3044 10.7061 38.4687 10.3462 37.9091 9.03721C37.3494 7.72825 35.5417 9.52262 36.8669 10.4116Z" fill="#EBD9A2"/>
<path d="M34.2173 11.6555C34.5453 11.2792 34.0243 10.3629 32.4546 10.9083C30.885 11.4537 33.2201 12.7954 34.2173 11.6555Z" fill="#EBD9A2"/>
<path d="M41.3763 11.5787C41.936 11.6442 42.7079 10.8533 41.3763 9.94253C40.0447 9.03171 39.6716 11.3715 41.3763 11.5787Z" fill="#EBD9A2"/>
<path d="M34.0947 6.51205C34.5322 6.21753 34.3327 5.21945 32.6409 5.42125C30.949 5.62305 32.7567 7.39559 34.0947 6.51205Z" fill="#EBD9A2"/>
<path d="M29.7199 2.53611C30.2346 2.37249 30.4404 1.36895 28.7614 1.13988C27.0824 0.910816 28.1181 3.03787 29.7199 2.53611Z" fill="#EBD9A2"/>
<path d="M59.376 12.0969C59.9035 11.9224 60.0836 10.9243 58.3982 10.6843C56.7128 10.4443 57.7742 12.5932 59.376 12.0969Z" fill="#EBD9A2"/>
<path d="M33.7467 3.69781C34.1906 3.99233 35.355 3.63236 34.7953 2.31795C34.2356 1.00354 32.4215 2.80881 33.7467 3.69781Z" fill="#EBD9A2"/>
<path d="M40.5272 3.26693C40.971 2.97241 40.7652 1.97433 39.0733 2.17613C37.3815 2.37793 39.1956 4.15048 40.5272 3.26693Z" fill="#EBD9A2"/>
<path d="M45.0304 5.18122C45.5901 5.26303 46.3942 4.48856 45.1205 3.54502C43.8468 2.60148 43.3193 4.92488 45.0304 5.18122Z" fill="#EBD9A2"/>
<path d="M74.6221 28.3496C75.1882 28.415 75.9601 27.6242 74.6221 26.7134C73.2841 25.8026 72.9238 28.1369 74.6221 28.3496Z" fill="#EBD9A2"/>
<path d="M64.2654 24.3577C64.7993 24.1886 64.9794 23.1851 63.294 22.9505C61.6086 22.716 62.67 24.8703 64.2654 24.3577Z" fill="#EBD9A2"/>
<path d="M68.3815 20.1634C68.0342 19.798 66.799 19.9398 66.992 21.3197C67.185 22.6995 69.4365 21.2651 68.3815 20.1634Z" fill="#EBD9A2"/>
<path d="M57.6843 20.7196C58.1025 20.4033 57.8194 19.4216 56.1469 19.6943C54.4743 19.967 56.4235 21.6741 57.6843 20.7196Z" fill="#EBD9A2"/>
<path d="M71.8044 28.7428C72.2225 28.4264 71.9395 27.4447 70.2669 27.7229C68.5943 28.001 70.5499 29.6972 71.8044 28.7428Z" fill="#EBD9A2"/>
<path d="M54.3201 24.1559C54.7382 23.8395 54.4552 22.8578 52.7826 23.136C51.11 23.4141 53.0592 25.1376 54.3201 24.1559Z" fill="#EBD9A2"/>
<path d="M68.504 25.6337C68.9222 25.3174 68.6327 24.3302 66.9601 24.6084C65.2875 24.8865 67.2432 26.5827 68.504 25.6337Z" fill="#EBD9A2"/>
<path d="M62.773 28.71C63.2104 29.0045 64.3748 28.6445 63.8151 27.3356C63.2555 26.0266 61.4414 27.821 62.773 28.71Z" fill="#EBD9A2"/>
<path d="M62.541 20.9596C63.1071 21.0305 63.8791 20.2342 62.541 19.3234C61.203 18.4126 60.8428 20.7742 62.541 20.9596Z" fill="#EBD9A2"/>
<path d="M71.8425 20.0545C72.4022 20.1527 73.2256 19.3946 71.984 18.4183C70.7425 17.442 70.1635 19.7709 71.8425 20.0545Z" fill="#EBD9A2"/>
<path d="M59.994 24.8104C60.4314 24.5159 60.232 23.5178 58.5401 23.7196C56.8483 23.9214 58.6624 25.683 59.994 24.8104Z" fill="#EBD9A2"/>
<path d="M73.8563 23.534C74.3001 23.2395 74.0943 22.2414 72.4024 22.4432C70.7106 22.645 72.5247 24.4176 73.8563 23.534Z" fill="#EBD9A2"/>
<path d="M49.7715 25.4756C50.3376 25.5465 51.1096 24.7502 49.7715 23.8394C48.4335 22.9286 48.0732 25.2629 49.7715 25.4756Z" fill="#EBD9A2"/>
<path d="M57.028 28.0718C57.5876 28.1427 58.366 27.3519 57.028 26.4356C55.6899 25.5193 55.3232 27.8646 57.028 28.0718Z" fill="#EBD9A2"/>
<path d="M52.4343 15.8655C52.9683 15.6965 53.1419 14.6929 51.463 14.453C49.784 14.213 50.8197 16.4109 52.4343 15.8655Z" fill="#EBD9A2"/>
<path d="M55.0596 12.2333C54.7058 11.8678 53.4707 12.0096 53.6701 13.3895C53.8695 14.7694 56.1146 13.335 55.0596 12.2333Z" fill="#EBD9A2"/>
<path d="M45.8545 12.25C46.2726 11.9336 45.9896 10.9465 44.3106 11.2246C42.6316 11.5028 44.5936 13.2044 45.8545 12.25Z" fill="#EBD9A2"/>
<path d="M67.4753 16.0296C67.263 16.4605 68.0349 17.2513 69.4051 16.4223C70.7754 15.5933 68.1121 14.7316 67.4753 16.0296Z" fill="#EBD9A2"/>
<path d="M67.1602 13.9186C67.7263 13.984 68.4982 13.1932 67.1602 12.2824C65.8221 11.3716 65.4619 13.7113 67.1602 13.9186Z" fill="#EBD9A2"/>
<path d="M64.1364 11.9716C64.5545 11.6607 64.2715 10.6735 62.5989 10.9517C60.9263 11.2298 62.882 12.926 64.1364 11.9716Z" fill="#EBD9A2"/>
<path d="M56.6676 17.1635C57.0858 16.8472 56.8027 15.86 55.1302 16.1382C53.4576 16.4163 55.4132 18.1125 56.6676 17.1635Z" fill="#EBD9A2"/>
<path d="M50.9419 20.229C51.3794 20.5235 52.5437 20.1635 51.9841 18.8491C51.4244 17.5347 49.6103 19.3509 50.9419 20.229Z" fill="#EBD9A2"/>
<path d="M50.7103 12.4899C51.27 12.5553 52.0419 11.7645 50.7103 10.8537C49.3787 9.94284 49.0055 12.2826 50.7103 12.4899Z" fill="#EBD9A2"/>
<path d="M64.8242 17.131C65.3903 17.1964 66.1623 16.4056 64.8242 15.4948C63.4862 14.584 63.126 16.9237 64.8242 17.131Z" fill="#EBD9A2"/>
<path d="M54.3579 10.2483C54.9175 10.341 55.7409 9.5829 54.4994 8.61209C53.2578 7.64128 52.6724 9.95923 54.3579 10.2483Z" fill="#EBD9A2"/>
<path d="M48.1569 16.3402C48.6008 16.0457 48.4014 15.0476 46.7031 15.2494C45.0048 15.4512 46.8253 17.2237 48.1569 16.3402Z" fill="#EBD9A2"/>
<path d="M48.453 20.4964C48.8968 20.2019 48.691 19.2038 46.9991 19.4056C45.3072 19.6074 47.1213 21.38 48.453 20.4964Z" fill="#EBD9A2"/>
<path d="M59.9354 15.5877C60.3793 15.2932 60.1734 14.2951 58.4815 14.4969C56.7897 14.6987 58.6038 16.4713 59.9354 15.5877Z" fill="#EBD9A2"/>
<path d="M23.7313 27.8919C24.1751 27.5974 23.9693 26.5993 22.2774 26.8011C20.5856 27.0029 22.3997 28.7755 23.7313 27.8919Z" fill="#EBD9A2"/>
<path d="M77.5241 20.9707C77.4404 28.1972 60.5733 33.913 39.885 33.744C21.1587 33.5858 5.7132 28.6936 2.92773 22.4106" stroke="#F2C4AF" stroke-width="7.71" stroke-miterlimit="10"/>
</g>
<defs>
<clipPath id="clip0">
<rect width="80" height="54" fill="white"/>
</clipPath>
</defs>
</svg>
