<svg width="99" height="78" viewBox="0 0 99 78" fill="none" xmlns="http://www.w3.org/2000/svg">
<g clip-path="url(#clip0)">
<path d="M3.30983 70.0899C3.26267 70.03 3.21552 69.9733 3.17151 69.9135L2.88542 69.548C2.69365 69.3055 2.51446 69.0314 2.32583 68.7668C2.1123 68.4631 1.91602 68.1476 1.73795 67.8217C1.7128 67.7776 1.6908 67.7335 1.66879 67.6894C1.47221 67.315 1.30915 66.9239 1.18151 66.5207C0.967057 65.7951 0.867344 65.0404 0.885995 64.284C0.893959 63.8625 0.925446 63.4418 0.980308 63.0239C1.01803 62.7278 1.06519 62.4348 1.11863 62.1418C1.17208 61.8488 1.2381 61.5118 1.30726 61.2125C1.30726 61.1526 1.33241 61.0896 1.34813 61.0266C1.45187 60.5604 1.56505 60.0816 1.68451 59.6342C1.77253 59.294 1.8637 58.9538 1.9643 58.6167C2.46996 56.7961 3.15555 55.0306 4.01089 53.3463C4.61882 52.1514 5.34557 51.0211 6.18008 49.9724L6.37185 49.733C6.6202 49.418 6.88114 49.1376 7.14836 48.8509C8.87742 46.9955 10.9209 45.4518 12.9863 43.9303L13.788 43.3349C14.2218 43.0198 14.6556 42.6891 15.0832 42.3614C16.2024 41.5046 17.2974 40.6183 18.3684 39.7026C18.6388 39.4695 18.9091 39.2364 19.1764 39.0001C20.8111 37.5668 22.3924 36.0704 23.9234 34.5268C24.2692 34.1771 24.6088 33.8274 24.9483 33.4778C26.231 32.1484 27.4885 30.7896 28.7208 29.4013C29.0352 29.0548 29.3496 28.7051 29.6388 28.3523C30.8648 26.9389 32.0668 25.5066 33.2447 24.0554L33.4679 23.7782C34.2287 22.8331 34.9612 21.888 35.6874 20.9618C37.1586 19.0717 38.5828 17.2005 40.1169 15.4426C40.84 14.6141 41.585 13.8076 42.3741 13.0295C43.7878 11.6195 45.332 10.3474 46.986 9.23034C47.3004 9.00983 47.6399 8.79561 47.9732 8.58455C48.3609 8.33883 48.7528 8.09731 49.1489 7.85999C50.904 6.80819 52.7225 5.86656 54.5939 5.04052C54.9712 4.87671 55.3547 4.7255 55.7382 4.55854C56.9601 4.0608 58.2029 3.61556 59.4667 3.22283C59.8094 3.10942 60.1584 3.00547 60.5042 2.90781C61.0952 2.7377 61.6831 2.59278 62.2772 2.43527C74.2738 -0.494453 87.1129 1.64141 94.6391 12.976C97.7702 17.6887 99.4301 23.4379 98.902 29.0674C98.6348 31.8837 97.8426 34.615 97.0566 37.3337C95.6136 42.3016 94.3844 47.2475 91.8254 51.4373C90.2825 54.0137 88.1795 56.2082 85.6731 57.8575C81.2247 60.7872 75.764 61.9528 70.6113 62.6301C67.0149 63.1121 63.453 63.7957 59.9226 64.5738C57.4736 65.1125 55.034 65.6984 52.6008 66.2938C47.9857 67.4216 43.355 68.5557 38.8154 69.9733L38.0169 70.2253C36.5498 70.6958 35.0953 71.1998 33.6534 71.7375C32.5593 72.1575 31.4747 72.5922 30.3996 73.0417C27.2149 74.4057 24.1121 74.9885 21.1789 76.6361C14.2124 80.5266 7.51932 75.398 3.30983 70.0899Z" fill="#676767"/>
<path d="M3.31016 70.0895C3.263 70.0297 3.21585 69.973 3.17183 69.9131L2.88575 69.5477C2.69398 69.3051 2.51479 69.031 2.32616 68.7664C2.11263 68.4627 1.91635 68.1472 1.73828 67.8213C1.98098 67.3331 2.35996 66.926 2.82916 66.6495C2.96643 66.5643 3.1081 66.4865 3.25357 66.4163V66.4163C3.99899 66.0921 4.78301 65.8655 5.58624 65.7422H5.66169L6.34074 65.6225L7.29958 65.4555C8.50364 65.2507 9.7077 65.0523 10.918 64.8759C11.4022 64.8003 11.8895 64.7341 12.3767 64.6711C14.5816 64.3665 16.8011 64.1793 19.0258 64.1104C19.3779 64.1104 19.7331 64.1104 20.0852 64.1104C20.3776 64.1104 20.67 64.1104 20.9655 64.1104C21.8898 64.1261 22.8172 64.1734 23.7383 64.2584C23.8106 64.2584 23.8798 64.2584 23.9521 64.2773C24.4142 64.3214 24.8763 64.3718 25.3353 64.438C26.1024 64.5419 26.8695 64.6711 27.6271 64.8318C28.413 64.9956 29.199 65.1909 29.9566 65.4209C31.9783 66.0074 33.9153 66.8545 35.7191 67.941C36.766 68.5711 37.7594 69.3051 38.778 69.9856L37.9795 70.2376C36.5124 70.708 35.0579 71.2121 33.616 71.7497C32.5219 72.1697 31.4373 72.6045 30.3622 73.0539C27.1776 74.4179 24.0747 75.0007 21.1415 76.6483C14.2127 80.5263 7.51965 75.3977 3.31016 70.0895Z" fill="#ADACAC"/>
<path d="M33.638 71.7375C33.1293 71.6101 32.6368 71.4251 32.1698 71.1862C30.796 70.4742 29.7429 69.296 28.5797 68.269C26.1634 66.1557 23.2369 64.7133 20.0915 64.0855C19.8715 64.0414 19.6545 64.0005 19.4345 63.9658L18.9912 63.8997L19.4911 63.9501L20.9749 64.095L23.6062 64.347L23.7477 64.243L23.8577 64.1611L24.5965 63.635C26.0081 62.6018 27.1272 61.915 28.9443 61.5622C29.1298 61.5244 29.3216 61.4929 29.5259 61.4614L30.0352 61.3889C32.4874 61.0424 34.9468 60.7599 37.4136 60.5415L37.7563 60.5131C38.1838 60.4753 38.6145 60.4407 39.0421 60.4092C41.7615 60.1859 44.494 60.1701 47.2158 60.3619C47.9326 60.4186 48.6431 60.4974 49.3473 60.5982C50.7476 60.7935 52.1308 61.0969 53.4845 61.5055C53.9749 61.6525 54.4591 61.8184 54.9369 62.0032C55.6882 62.2847 56.4229 62.6086 57.1375 62.9735C58.0807 63.4586 59.0018 64.0194 59.9072 64.5896C57.4582 65.1283 55.0186 65.7142 52.5854 66.3096C47.9703 67.4374 43.3396 68.5715 38.8 69.9891L38.0015 70.2411C36.5386 70.701 35.0841 71.1998 33.638 71.7375Z" fill="#969596"/>
<path d="M7.78767 61.7891C11.1169 57.8576 14.4587 53.9135 18.2564 50.4482C22.2529 46.789 26.7174 43.6787 31.5325 41.1991C35.6508 39.079 40.313 37.3999 44.8494 38.3261C45.5159 38.4647 46.2421 38.7136 46.547 39.3216C46.7211 39.7829 46.7485 40.2868 46.6256 40.7644C45.2424 49.2228 39.3635 56.4022 32.3215 61.263C27.7694 64.4133 22.7174 66.7192 17.5773 68.7133C14.6819 69.838 11.2238 71.7502 8.01402 70.95C2.96829 69.6805 5.49273 64.4983 7.78767 61.7891Z" fill="#E54428"/>
<path d="M7.23064 74.1883C6.90326 74.0854 6.58724 73.9493 6.28752 73.7819C6.1932 73.7273 6.10203 73.6706 6.01401 73.6118C5.89455 73.5341 5.77823 73.449 5.66505 73.3566C5.59722 73.3033 5.53216 73.2465 5.47014 73.1865C4.92955 72.6757 4.53456 72.0298 4.32581 71.3153C4.17441 70.8474 4.12415 70.3526 4.17835 69.8638C4.23255 69.3749 4.38999 68.9032 4.64019 68.4801C4.77454 68.2718 4.92822 68.0766 5.09918 67.8973V67.8973C5.46289 67.5355 5.86811 67.2183 6.30638 66.9522H6.33153C6.54216 66.8167 6.76222 66.6907 6.976 66.5616L7.29037 66.3789H7.30609L7.93484 66.0134C7.96304 65.9937 7.99244 65.9759 8.02287 65.9599V65.9599L8.09518 65.9189L8.12347 65.9L9.00372 65.3834L9.45642 65.1156L10.7579 64.3501C11.9274 63.6465 13.1042 62.9482 14.2884 62.2552C14.9926 61.8352 15.6989 61.4246 16.4073 61.0234L17.4447 60.428C20.1326 58.897 22.8551 57.4007 25.6185 55.9768L26.4358 55.5546C28.0612 54.7293 29.6991 53.9228 31.3495 53.1478C31.6325 53.0124 31.9217 52.8801 32.2078 52.7478L32.7548 52.4957C33.9187 51.9272 35.0426 51.28 36.1186 50.5583V50.5583C36.2852 50.4449 36.433 50.3284 36.6122 50.2087C36.6845 50.1583 36.7536 50.1047 36.8228 50.0511C37.6827 49.4054 38.4682 48.6658 39.1649 47.846C39.1935 47.8177 39.2198 47.7871 39.2435 47.7546C39.4101 47.5562 39.5579 47.3514 39.7214 47.1435L39.8157 47.0143C40.0294 46.715 40.2275 46.4032 40.4098 46.0881L40.4318 46.0503C40.5733 45.7952 40.7053 45.54 40.8248 45.2754C40.8248 45.247 40.85 45.2187 40.8657 45.1903C41.0553 44.7644 41.2108 44.3241 41.331 43.8735V43.8735C41.4159 43.5724 41.4821 43.2662 41.529 42.9568C41.529 42.8843 41.551 42.8119 41.5573 42.7363C41.6265 42.1062 41.573 41.4541 41.1455 41.0131C40.8552 40.7441 40.4879 40.5733 40.0955 40.5248L39.9037 40.4965C39.6244 40.4728 39.3436 40.4728 39.0643 40.4965H38.926L38.7279 40.5217C38.4867 40.5602 38.2482 40.6149 38.0143 40.6855V40.6855C37.9326 40.7075 37.8508 40.7359 37.7722 40.7642C37.6056 40.8241 37.4358 40.8902 37.2724 40.9658C37.1057 41.0383 36.958 41.1202 36.7757 41.2084L36.5933 41.3124L36.4456 41.4132C36.3009 41.514 36.1563 41.6148 36.0117 41.7093C35.1727 42.2438 34.3975 42.8727 33.7011 43.5837C33.4181 43.9848 33.1268 44.3755 32.8271 44.7556C32.629 45.0108 32.4278 45.2628 32.2235 45.5053C31.2482 46.681 30.1981 47.7922 29.0797 48.832C28.8597 49.0399 28.6365 49.2447 28.4101 49.462C27.1526 50.5993 25.8134 51.6672 24.4458 52.6784C24.2069 52.858 23.968 53.0344 23.7228 53.2077C21.3304 54.9498 18.8342 56.569 16.357 58.2481L16.1683 58.3772C15.854 58.6009 15.5144 58.8246 15.1906 59.0514C14.6122 59.4546 14.0337 59.8641 13.4647 60.2863L13.4458 60.302L13.2729 60.4249C12.2575 61.1778 11.2609 61.9559 10.2927 62.7781C9.83053 63.1845 9.37468 63.6066 8.93456 64.0382C8.59818 64.3721 8.26179 64.7124 7.93799 65.0589L7.92227 65.0747L7.90655 65.0936C7.79966 65.207 7.69277 65.3204 7.59217 65.4401C7.53559 65.5062 7.47586 65.5692 7.41298 65.6322L7.37211 65.6732L7.21492 65.8276L7.08603 65.9473L7.03573 65.9914C6.95714 66.0638 6.88169 66.1331 6.7968 66.2056C6.6742 66.3095 6.5453 66.4072 6.41641 66.5017L6.26551 66.612C5.9161 66.8528 5.54696 67.0636 5.16205 67.242V67.242C5.10861 67.2672 5.05202 67.2956 4.99858 67.3145C3.95799 67.7681 2.87654 67.9067 1.98057 67.5224C1.91724 67.4951 1.85533 67.4646 1.79509 67.431V67.431C1.69891 67.3781 1.60552 67.3203 1.5153 67.2578C1.30197 67.1174 1.10937 66.9478 0.943132 66.7537V66.7537C0.561704 66.2663 0.292276 65.7005 0.15405 65.0967C-0.185476 63.8398 0.110037 62.4442 0.628757 61.1148L0.685345 61.0045C0.817382 60.7336 0.952564 60.4658 1.09089 60.1981C1.37173 59.6478 1.66096 59.1039 1.95857 58.5663L2.00572 58.4969C3.62476 56.0146 4.87283 53.5259 6.90998 51.5664L7.479 50.8797L8.12661 50.1047L8.54159 49.6101C8.97228 48.2965 10.0317 47.3073 10.8711 46.1827C11.4496 45.5274 12.0196 44.8753 12.5813 44.2263L13.1032 43.6247L13.7319 42.9001C15.4201 40.9249 17.0423 38.9623 18.611 36.9745C18.8971 36.6122 19.1832 36.2499 19.463 35.8877C21.2361 33.6069 22.9431 31.2915 24.5999 28.891C24.974 28.3428 25.3512 27.7915 25.7222 27.2371C26.0932 26.6826 26.4201 26.1849 26.7659 25.662C27.3161 24.9122 27.8537 24.1562 28.3881 23.3906C28.6773 22.9706 28.9634 22.5569 29.2464 22.1494L29.589 21.6486C30.2807 20.6321 30.9628 19.6104 31.6356 18.5834C32.2895 17.6173 32.9382 16.6407 33.5816 15.6537C35.1885 13.2593 37.135 11.1125 39.3598 9.28071C39.495 9.1673 39.6365 9.05074 39.7748 8.94049C40.3092 8.5152 40.85 8.11512 41.4095 7.73709L41.6925 7.54493C43.3185 6.47701 45.0428 5.56768 46.842 4.82942C47.7254 4.41359 48.6245 4.01981 49.5299 3.65123H49.5613C50.0454 3.44961 50.5359 3.25745 51.0263 3.07473C51.1363 3.03063 51.2432 2.98968 51.3407 2.95187C52.8025 2.41318 54.2832 1.9375 55.7765 1.53742C56.1726 1.42716 56.5719 1.32635 56.968 1.22239C57.8703 1.00502 58.7757 0.81286 59.6842 0.652198C60.1998 0.560841 60.7122 0.475784 61.2246 0.406479C62.2998 0.255267 63.3771 0.150259 64.4564 0.0914546C64.818 0.0694029 65.1795 0.0536517 65.541 0.0410508C66.0566 0.0410508 66.5722 0.0189991 67.0877 0.0410508C68.3074 0.0499702 69.5257 0.123579 70.7376 0.261568C70.8424 0.261568 70.9472 0.274169 71.052 0.299371C71.3475 0.321422 71.6399 0.352925 71.9354 0.384427C73.0514 0.510437 74.1801 0.699451 75.2961 0.932569C75.6419 1.00502 75.9846 1.08378 76.3272 1.16884C76.8889 1.30325 77.4485 1.45656 78.006 1.62877C78.3738 1.73903 78.7448 1.85874 79.1095 1.98475C79.6345 2.16431 80.1469 2.35648 80.6593 2.56754C80.9423 2.68095 81.2252 2.80066 81.505 2.92352C81.7848 3.04638 82.1338 3.20704 82.4324 3.35511C82.4921 3.38661 82.555 3.41496 82.6148 3.44961C83.0297 3.65123 83.4353 3.86859 83.8345 4.09541C86.8588 5.80599 89.4398 8.09937 91.1689 11.0039C91.3984 11.3851 91.609 11.7757 91.7977 12.1789C91.9863 12.5822 92.2158 13.0925 92.395 13.5682C92.5113 13.8832 92.615 14.1793 92.7093 14.4944C92.9081 15.1391 93.0666 15.7956 93.1841 16.4601C93.2406 16.7751 93.2878 17.0902 93.3255 17.4052C93.3821 17.8714 93.423 18.3503 93.4418 18.8385C93.4418 19.1536 93.4639 19.4686 93.4576 19.7836C93.4576 19.9065 93.4576 20.0356 93.4576 20.1616C93.4576 21.0437 93.4136 21.9226 93.3601 22.7921C93.3381 23.1575 93.313 23.5198 93.2815 23.8821C93.1589 25.4194 92.9671 26.9378 92.7376 28.4405C92.6811 28.7933 92.6213 29.143 92.5616 29.4927C92.4736 29.9936 92.3793 30.4944 92.2818 30.9953C92.0712 31.9908 91.8228 32.9737 91.543 33.9471C91.3477 35.122 91.0639 36.2804 90.6942 37.4124C90.5559 37.8471 90.405 38.2724 90.2415 38.6945C89.3503 40.9625 88.1288 43.0857 86.6168 44.995C86.3778 45.31 86.1326 45.603 85.878 45.8991C83.5999 48.5009 80.9453 50.7457 78.0029 52.5587C77.4873 52.8864 76.9633 53.2014 76.431 53.5038C74.727 54.4799 72.9712 55.3622 71.1715 56.1469C70.373 56.4934 69.5682 56.8273 68.7571 57.1423C67.2355 57.7377 65.7013 58.2733 64.1735 58.7521C63.5447 58.9726 62.9317 59.1868 62.3124 59.3822C61.5474 59.6405 60.7824 59.8925 60.0174 60.1382C58.6007 60.5877 57.1734 61.0077 55.7356 61.3983C55.2704 61.5275 54.7925 61.6566 54.3367 61.7795H54.2801C51.7462 62.46 49.1998 63.0679 46.6659 63.635C46.2289 63.7358 45.7888 63.8303 45.3518 63.9248C43.1983 64.4005 41.0637 64.8478 38.9543 65.2857C38.1558 65.4306 37.3572 65.5692 36.5524 65.6984C36.1406 65.7646 35.7319 65.8307 35.317 65.8874C35.1598 65.9158 35.0026 65.9378 34.8391 65.963C34.0532 66.0764 33.2651 66.1814 32.475 66.278C31.8798 66.3494 31.2856 66.4177 30.6925 66.4828L30.2083 66.5994L29.3595 66.801C29.0137 66.8829 28.6679 66.9711 28.3252 67.0593L27.3821 67.3082L26.5522 67.5318C24.2578 68.1659 22.0047 68.9413 19.8057 69.8536C19.4504 69.9985 19.1046 70.1497 18.7619 70.3041C17.4356 70.8969 16.1446 71.5658 14.8951 72.3076C14.5273 72.525 14.1563 72.7423 13.7854 72.9534C13.5276 73.1015 13.2698 73.2401 13.0057 73.3755C12.3059 73.7438 11.568 74.0343 10.8051 74.2419C9.63151 74.5549 8.39436 74.5364 7.23064 74.1883V74.1883Z" fill="#ED7540"/>
<path d="M68.7947 57.1171C70.7221 55.5116 72.4069 53.6345 73.7965 51.5443C76.7705 47.0332 78.1663 41.4636 76.8239 36.1428C75.5664 31.1843 72.1083 26.7645 67.2449 24.9973C66.701 24.8019 67.0562 23.9734 67.597 24.1687C70.4029 25.2153 72.8442 27.0575 74.6233 29.4706C76.248 31.6743 77.3638 34.2122 77.8901 36.9008C78.4164 39.5894 78.34 42.3616 77.6664 45.017C76.5487 49.2327 74.3181 53.0687 71.2091 56.1216C70.4201 56.4682 69.6058 56.8021 68.7947 57.1171Z" fill="#F6B4A1"/>
<path d="M69.3835 23.9925C68.7201 21.1573 67.3903 18.5395 65.8121 16.1169C64.3916 13.8839 62.7404 11.807 60.8859 9.9204C57.7893 6.82687 53.8753 4.41063 49.5684 3.64827C50.0525 3.44666 50.5429 3.25449 51.0334 3.07178C54.9473 4.04835 58.4746 6.27557 61.3669 9.13599C65.1394 12.8659 68.5472 17.7078 70.0154 22.8931C70.1097 23.2081 70.1977 23.5515 70.2731 23.8854C70.2806 23.9345 70.2806 23.9844 70.2731 24.0335C70.2417 24.4588 69.4998 24.4966 69.3835 23.9925Z" fill="#F6B4A1"/>
<path d="M85.9217 45.8675C84.4442 36.7003 78.5528 28.3175 70.2847 24.0269C70.0458 23.904 69.8006 23.7811 69.5585 23.6646C69.0366 23.4157 69.3856 22.5841 69.9106 22.8361L70.0144 22.8865C72.3394 24.0126 74.5046 25.4438 76.4528 27.1425C81.7474 31.7726 85.3412 38.0468 86.6605 44.9634C86.4216 45.2689 86.1764 45.5714 85.9217 45.8675Z" fill="#F6B4A1"/>
<path d="M73.284 21.6927C72.3033 13.8334 69.2665 6.37363 64.4814 0.0694468C64.843 0.0473951 65.2045 0.0316439 65.566 0.019043C70.2355 6.34572 73.2 13.771 74.1736 21.5793C74.18 21.6931 74.143 21.805 74.0703 21.8926C73.9975 21.9801 73.8943 22.0368 73.7815 22.0512C73.6687 22.0656 73.5547 22.0366 73.4623 21.9701C73.37 21.9036 73.3063 21.8044 73.284 21.6927V21.6927Z" fill="#F6B4A1"/>
<path d="M8.36799 74.3208C7.65688 74.2186 6.96238 74.0226 6.30254 73.738L6.02275 73.612C5.83098 73.5238 5.6455 73.4261 5.46316 73.3222C4.76661 72.9247 4.13125 72.4281 3.5769 71.8479C2.60746 70.7854 1.85932 69.5399 1.37628 68.1841C1.30711 68.0014 1.24109 67.8155 1.18136 67.6297C1.08705 67.343 1.00531 67.05 0.93615 66.7571C0.719931 65.8976 0.676119 65.0036 0.807254 64.127C0.938389 63.2505 1.24186 62.4087 1.70008 61.6505C1.84231 61.386 1.99867 61.1294 2.1685 60.8819C2.25653 60.7527 2.34455 60.6267 2.43572 60.5007C3.40714 59.187 4.63635 58.0907 5.85298 57.0039L8.8647 59.7635L9.22309 60.0785L9.40543 60.2424C9.18222 60.4093 8.95901 60.5826 8.74209 60.7653C8.61006 60.8724 8.47802 60.989 8.35227 61.1024C7.70337 61.6789 7.15418 62.3591 6.72695 63.1154C6.66722 63.2288 6.61063 63.3422 6.55718 63.4588C6.44924 63.6997 6.35888 63.9482 6.28682 64.2022C6.1827 64.5498 6.11836 64.908 6.09505 65.2701C6.09505 65.3016 6.09505 65.3363 6.09505 65.3678C6.07806 65.6681 6.09599 65.9694 6.1485 66.2656C6.1485 66.3066 6.1485 66.3444 6.1705 66.3822C6.19251 66.42 6.1988 66.5145 6.21452 66.5806C6.23023 66.6468 6.23652 66.6657 6.25224 66.7067C6.26785 66.7699 6.28781 66.832 6.31197 66.8925C6.31862 66.9078 6.32388 66.9236 6.32769 66.9398C6.32769 66.9398 6.32769 66.9398 6.32769 66.9398C6.43697 67.2548 6.60919 67.5442 6.83384 67.7903C6.90285 67.8643 6.97747 67.9327 7.05704 67.9951C7.33458 68.198 7.6232 68.3852 7.92158 68.5558C8.88112 69.1534 9.68756 69.968 10.2762 70.9343C10.3075 70.9808 10.3359 71.0292 10.3611 71.0792C10.8704 72.0054 11.0905 73.2655 10.3045 73.9459C9.79525 74.4058 9.03761 74.4153 8.36799 74.3208Z" fill="#ED7540"/>
<path d="M65.4594 26.2573C63.0639 27.9238 59.7284 28.9004 57.0719 30.1258C54.9278 31.1181 52.6706 32.7059 50.4417 33.3737C47.7098 34.1991 42.1642 33.0177 43.0193 37.7841C43.1973 38.6282 43.6657 39.3829 44.3427 39.9161C45.0196 40.4493 45.862 40.7272 46.7226 40.7012C48.6718 40.5878 50.1336 38.956 51.4729 37.532C55.5786 33.1406 60.5394 29.6816 65.4594 26.2573Z" fill="#F6B4A1"/>
<path d="M61.6399 29.0361C61.5759 29.0767 61.5018 29.0986 61.4261 29.0991C61.3566 29.0941 61.2891 29.0738 61.2285 29.0396C61.1678 29.0053 61.1154 28.958 61.0752 28.9011C61.0349 28.8442 61.0077 28.779 60.9955 28.7103C60.9834 28.6416 60.9865 28.5711 61.0048 28.5037C61.0365 28.3941 61.1099 28.3013 61.2092 28.2454L63.3092 27.0105L64.0951 26.5474L66.2423 25.2874L66.9119 24.8873L67.0817 24.7896L67.8802 24.3171L68.3864 24.021L68.4555 23.98L69.2918 23.4886L70.7347 22.6348L71.1434 22.3923L71.4578 22.2064L71.7313 22.0363L72.0457 21.8315C72.4638 21.5701 72.8851 21.3023 73.3032 21.044L73.7119 20.8014C73.8439 20.7195 73.9728 20.6439 74.1049 20.5683L74.5481 20.3131L74.8468 20.1493L75.2743 19.9256L75.4881 19.8185C76.1393 19.4884 76.8164 19.2123 77.5127 18.9932C77.9714 18.8526 78.4401 18.7473 78.9148 18.6781C81.3449 18.3285 83.9825 18.6277 86.3624 19.1948C88.9541 19.8026 91.3611 21.028 93.3792 22.7672C93.3792 22.7672 93.3792 22.7672 93.3792 22.7672C93.3572 23.1326 93.3321 23.4949 93.3006 23.8571C92.5051 23.0934 91.6243 22.4243 90.6756 21.863C88.8711 20.822 86.8913 20.1216 84.8345 19.7965C82.2503 19.3554 79.3706 19.1286 76.9091 20.184C76.6733 20.2848 76.4375 20.3919 76.2049 20.499C75.7962 20.6911 75.3906 20.8991 74.9882 21.1101C74.2526 21.5071 73.5295 21.9323 72.8128 22.3702C72.467 22.5781 72.1243 22.7892 71.7816 23.0003C71.2786 23.3153 70.7788 23.6303 70.2789 23.9453C69.9645 24.1344 69.6502 24.3234 69.3358 24.5061L67.591 25.5173L66.7296 26.0277L64.5447 27.3098L63.7745 27.7634L61.6399 29.0361Z" fill="#F6B4A1"/>
<path d="M74.5729 20.3098C74.5729 20.2405 74.5729 20.1649 74.5729 20.0956C75.1074 13.4611 74.8527 5.60444 70.7627 0.249023L71.0771 0.283676C71.3663 0.308878 71.6618 0.34038 71.9573 0.371883C75.5475 5.65169 75.9688 12.9098 75.5349 19.2954L75.4972 19.8404C75.4972 19.9412 75.4972 20.042 75.472 20.1554C75.4469 20.2688 75.472 20.2783 75.4563 20.3381C75.4579 20.3486 75.4579 20.3592 75.4563 20.3696C75.4249 20.8989 74.5415 20.8737 74.5729 20.3098Z" fill="#F6B4A1"/>
<path d="M75.6452 20.3349C76.6574 20.3349 76.6606 18.7598 75.6452 18.7598C74.6297 18.7598 74.6329 20.3349 75.6452 20.3349Z" fill="#F6B4A1"/>
<path d="M75.6452 20.3349C76.6574 20.3349 76.6606 18.7598 75.6452 18.7598C74.6297 18.7598 74.6329 20.3349 75.6452 20.3349Z" fill="#F6B4A1"/>
<path d="M76.0092 20.0611C75.94 20.1259 75.8515 20.1662 75.7573 20.1759C75.663 20.1855 75.5682 20.164 75.4874 20.1146C75.4089 20.0681 75.3439 20.0019 75.2987 19.9225C75.2501 19.8401 75.2326 19.743 75.2493 19.6488C75.2661 19.5546 75.3159 19.4695 75.3899 19.409L75.5502 19.2704C76.0829 18.8171 76.6676 18.429 77.2919 18.1142C77.5339 17.9914 77.7792 17.8811 78.0307 17.7803C80.0427 16.9644 82.3124 16.8069 84.4973 16.9518C87.562 17.1765 90.585 17.7959 93.4916 18.7947C93.4916 19.1097 93.5136 19.4247 93.5073 19.7398C90.7771 18.7851 87.9419 18.1642 85.0632 17.8906C82.5262 17.6606 79.7912 17.774 77.5371 18.9837C76.986 19.2793 76.4729 19.6411 76.0092 20.0611V20.0611Z" fill="#F6B4A1"/>
<path d="M77.2925 18.1108C77.2218 18.058 77.1693 17.9844 77.1423 17.9003C77.1152 17.8162 77.115 17.7257 77.1416 17.6414C78.6726 11.971 77.324 6.30057 75.334 0.891602C75.6798 0.967207 76.0225 1.04281 76.3651 1.13102C78.2891 6.50218 79.5089 12.1191 78.0313 17.7769C78.0313 17.821 78.0093 17.8651 77.9999 17.9061C77.9798 17.9771 77.942 18.0418 77.89 18.0941C77.8381 18.1464 77.7737 18.1846 77.7029 18.2051C77.6321 18.2256 77.5573 18.2277 77.4855 18.2112C77.4137 18.1947 77.3473 18.1602 77.2925 18.1108V18.1108Z" fill="#F6B4A1"/>
<path d="M93.3698 17.3615L86.7019 16.1014C85.5512 15.8914 84.3985 15.675 83.2437 15.4524C82.4955 15.3075 81.6718 15.1374 81.194 14.5073C80.6658 13.7985 80.757 12.8188 80.7067 11.9872C80.635 10.7875 80.4827 9.59396 80.2509 8.41478C79.8126 6.16163 79.1011 3.97065 78.132 1.89063C78.1203 1.85833 78.1066 1.82677 78.0911 1.79612C78.0599 1.73465 78.0437 1.66662 78.0439 1.59766C78.4118 1.70791 78.7827 1.82762 79.1474 1.95363C79.1757 2.01349 79.2008 2.07334 79.226 2.1332C79.951 3.76888 80.5215 5.46904 80.9299 7.21139C81.3952 9.20234 81.4235 11.1744 81.6876 13.1968C81.8699 14.5609 83.2877 14.5672 84.3849 14.772L87.6576 15.3863L93.2346 16.4384C93.2912 16.7314 93.3383 17.0433 93.3698 17.3615Z" fill="#F6B4A1"/>
<path d="M92.7589 14.4569C90.0659 14.2469 87.5174 13.1517 85.5094 11.3413C84.0708 10.0158 82.9719 8.36252 82.3059 6.52139C81.9724 5.62309 81.7466 4.68827 81.6332 3.73658C81.6017 3.4688 81.564 3.17898 81.542 2.88916C81.8564 3.02462 82.1707 3.16953 82.4694 3.32074C82.504 3.59481 82.548 3.85943 82.5889 4.09885C82.7356 4.96187 82.9771 5.806 83.3088 6.6159C83.9451 8.17483 84.9178 9.57336 86.157 10.7112C87.9089 12.2829 90.1073 13.2665 92.4445 13.5244C92.5546 13.8331 92.6614 14.1418 92.7589 14.4569Z" fill="#F6B4A1"/>
<path d="M91.8454 12.1413C91.3686 11.9943 90.9023 11.8154 90.4495 11.6057C89.2701 11.1191 88.1635 10.4714 87.1612 9.68092C85.1206 8.06639 83.5693 5.91411 82.6813 3.46549C82.6805 3.4508 82.6805 3.43608 82.6813 3.42139C83.0963 3.623 83.5018 3.84037 83.9011 4.06719C84.656 5.75082 85.7598 7.25422 87.1391 8.47753C87.9389 9.18553 88.8214 9.79377 89.7673 10.2889C89.8868 10.3519 90.5658 10.689 91.2355 10.9694C91.4367 11.3411 91.6504 11.738 91.8454 12.1413Z" fill="#F6B4A1"/>
<path d="M92.6028 29.4609C87.8589 25.0695 81.323 22.7037 75.0135 21.1065L74.2213 20.9112L73.7371 20.7915L73.3064 20.6875L73.2278 20.6623C73.1738 20.6377 73.1257 20.6015 73.087 20.5564C73.0483 20.5113 73.0199 20.4582 73.0037 20.4009C72.9875 20.3437 72.984 20.2835 72.9934 20.2248C73.0028 20.166 73.0249 20.11 73.0581 20.0606V20.0606C73.1073 19.9742 73.1835 19.9065 73.275 19.8678C73.3665 19.8291 73.4681 19.8216 73.5642 19.8464L73.9478 19.9378L74.5765 20.0953L74.8594 20.1614L75.4599 20.3126L76.2175 20.5111C82.1624 22.0862 88.2047 24.4111 92.7663 28.4245C92.7411 28.7584 92.6657 29.1081 92.6028 29.4609Z" fill="#F6B4A1"/>
<path d="M90.2856 38.6565C89.3173 36.0061 87.8996 33.5432 86.095 31.3762C84.3636 29.2867 82.2881 27.5095 79.9584 26.1216C77.412 24.6158 74.614 23.8377 71.8067 22.9966L71.4514 22.8926C71.347 22.8638 71.2578 22.7954 71.2027 22.702C71.1476 22.6086 71.1308 22.4973 71.1559 22.3918C71.1754 22.2872 71.2271 22.1914 71.3037 22.1177C71.3577 22.0666 71.4246 22.0314 71.4972 22.0158C71.5699 22.0003 71.6454 22.005 71.7155 22.0295H71.7343L71.9481 22.0925L72.8378 22.3603C75.205 23.0628 77.5534 23.7716 79.7541 24.9624C84.719 27.7237 88.595 32.1001 90.7415 37.368C90.6032 37.8027 90.4491 38.2375 90.2856 38.6565Z" fill="#F6B4A1"/>
<path d="M66.9027 24.786C66.0476 20.5931 62.8158 17.5405 59.2571 15.4424C55.4626 13.2058 50.9293 11.5393 46.4746 11.6621C42.2116 11.7913 38.568 13.8358 36.075 17.2727C33.6386 20.6435 32.2805 24.8869 32.007 29.0137C31.6926 33.7044 32.8998 38.5684 36.2794 41.9706C36.6881 42.3801 37.342 41.7595 36.9301 41.3406C31.1928 35.5693 32.0479 25.6776 35.9367 19.1219C37.9644 15.7039 41.0893 13.1932 45.0976 12.6702C49.3197 12.1189 53.7021 13.5334 57.418 15.4456C61.3037 17.4523 65.1107 20.4765 66.0193 24.9908C66.1325 25.561 67.0064 25.3531 66.8933 24.786H66.9027Z" fill="#F6B4A1"/>
<path d="M66.7292 26.037C73.5417 30.3056 74.3245 41.1582 70.8915 47.8115C66.7355 55.8415 56.2605 56.0021 48.7626 53.2803C44.6129 51.7714 40.7995 49.1378 38.6586 45.1811C38.5976 45.0835 38.5016 45.013 38.3903 44.9842C38.2791 44.9553 38.161 44.9703 38.0604 45.0259C37.9598 45.0816 37.8843 45.1737 37.8494 45.2834C37.8145 45.3931 37.8228 45.512 37.8727 45.6158C41.9595 53.1764 51.963 56.5629 60.1367 55.643C64.5003 55.1484 68.6249 53.148 71.0361 49.3614C73.3468 45.7323 74.0007 41.092 73.5731 36.8676C73.1142 32.3281 71.1807 27.7634 67.2007 25.2715C67.0998 25.2165 66.9816 25.2023 66.8705 25.2319C66.7594 25.2615 66.6638 25.3326 66.6034 25.4307C66.5431 25.5287 66.5224 25.6462 66.5458 25.7589C66.5692 25.8717 66.6348 25.9712 66.7292 26.037V26.037Z" fill="#F6B4A1"/>
<path d="M46.7004 63.6508L45.3832 63.9438L45.1662 63.8178C42.1253 62.1026 39.2268 60.1452 36.4989 57.9646C35.0201 56.7727 33.6144 55.4924 32.2894 54.1308C31.9751 53.8 31.6607 53.4661 31.3463 53.1227C30.2849 51.954 29.2989 50.7187 28.3943 49.4243C27.9416 48.7753 27.5141 48.1106 27.1054 47.4302L26.9325 47.1341C26.4624 46.3281 26.0424 45.4938 25.675 44.6359C25.1807 43.5105 24.8168 42.3319 24.5904 41.1234C24.1848 38.8804 24.276 36.5871 24.3043 34.3189C24.3389 32.5138 24.3955 30.6992 24.5872 28.9005C24.9603 28.3523 25.3344 27.801 25.7095 27.2466C25.2317 30.1165 25.2097 33.0808 25.1751 35.9822C25.1468 38.2504 25.2223 40.5217 25.9045 42.708C26.0585 43.1931 26.2346 43.6751 26.4326 44.1445C26.8266 45.0695 27.2835 45.9663 27.8001 46.8285C28.1554 47.4239 28.5295 48.0067 28.9162 48.5769L29.0734 48.8068C30.0311 50.1823 31.0814 51.4906 32.2171 52.7226C32.5095 53.0376 32.8113 53.3526 33.1225 53.6677C34.3935 54.9711 35.7426 56.1956 37.1622 57.3346L37.2786 57.4259C40.2366 59.7659 43.3887 61.8484 46.7004 63.6508V63.6508Z" fill="#F6B4A1"/>
<path d="M36.5871 65.7141C36.1753 65.7803 35.7634 65.8464 35.3516 65.9031C33.8803 64.6903 32.4436 63.4208 31.0698 62.0851C29.4071 60.4847 27.8497 58.7779 26.4076 56.9754C26.1372 56.6351 25.8732 56.2918 25.6122 55.9452C24.9395 55.0443 24.3034 54.117 23.704 53.1636C23.355 52.6091 23.0186 52.0389 22.698 51.4624C22.3773 50.8859 22.0283 50.2212 21.7203 49.5723C21.475 49.0662 21.2445 48.5527 21.0286 48.0318C19.5585 44.5207 18.731 40.7731 18.5859 36.9682V36.9682L19.441 35.8813C19.4473 39.8538 20.2324 43.7862 21.7517 47.4553V47.4553C22.2247 48.6083 22.7642 49.7328 23.3676 50.8229C23.7008 51.4372 24.0561 52.0358 24.427 52.6249C25.0558 53.6172 25.7191 54.5812 26.4296 55.5168C26.7 55.8759 26.9787 56.2309 27.2659 56.5816C28.6895 58.3351 30.2236 59.9955 31.8589 61.5527C33.371 63.0049 34.9555 64.3879 36.5871 65.7141Z" fill="#F6B4A1"/>
<path d="M14.9555 61.1903C14.915 61.1377 14.8865 61.077 14.8718 61.0122C14.8572 60.9475 14.8568 60.8803 14.8706 60.8154C14.9209 60.5729 14.965 60.3334 15.0058 60.0909C15.0718 59.7286 15.1284 59.3663 15.1756 59.0009C15.1944 58.8623 15.2102 58.7237 15.2259 58.585C15.4495 56.8124 15.5095 55.0228 15.4051 53.2391C15.3296 52.0347 15.1784 50.8363 14.9524 49.651C14.6043 47.8084 14.0779 46.0042 13.3805 44.264C13.2956 44.053 13.2045 43.8482 13.1133 43.634L13.742 42.9126C14.0187 43.4954 14.2922 44.0813 14.5123 44.6767C15.1634 46.4222 15.6466 48.226 15.9552 50.0636C16.0852 50.8344 16.1837 51.6094 16.2507 52.3885C16.4048 54.1398 16.4048 55.9013 16.2507 57.6526C16.2287 57.8794 16.2099 58.1062 16.1816 58.333C16.1229 58.8896 16.0464 59.4461 15.9521 60.0027C15.9081 60.2893 15.8546 60.576 15.8012 60.8595C15.8012 60.9351 15.7729 61.0107 15.7572 61.0863C15.741 61.175 15.6971 61.2561 15.6318 61.3182C15.5666 61.3802 15.4834 61.4198 15.3942 61.4314C15.305 61.443 15.2145 61.4259 15.1356 61.3825C15.0568 61.3392 14.9937 61.2719 14.9555 61.1903V61.1903Z" fill="#F6B4A1"/>
<path d="M7.85935 65.9757C7.7695 65.9816 7.67965 65.9643 7.59842 65.9253C7.57348 65.9165 7.55013 65.9038 7.52926 65.8875C7.48133 65.8566 7.44186 65.8142 7.41441 65.7641C7.38696 65.7141 7.37241 65.658 7.37207 65.6009C7.37345 65.5402 7.38625 65.4803 7.4098 65.4244V65.4244C7.4098 65.4244 7.4098 65.4244 7.4098 65.4024C7.47267 65.2638 7.5324 65.122 7.58899 64.9834C8.14012 63.6366 8.52545 62.2275 8.73646 60.7873C8.73646 60.74 8.75218 60.6896 8.75532 60.6424C8.79934 60.3525 8.83392 60.0596 8.85907 59.7697C9.13521 56.7397 8.65668 53.6883 7.46638 50.8892L8.114 50.1143C9.43741 53.0302 10.0144 56.2308 9.79276 59.4264C9.68938 60.9812 9.39153 62.5169 8.90622 63.9974C8.87793 64.095 8.84335 64.1895 8.81191 64.284C8.70188 64.5991 8.58556 64.9141 8.45981 65.2291C8.43152 65.3016 8.40322 65.374 8.37178 65.4433C8.34035 65.5126 8.29633 65.6229 8.25547 65.7111C8.22549 65.7827 8.17791 65.8456 8.11714 65.8938C8.11714 65.8938 8.10142 65.9096 8.08885 65.9127C8.06666 65.9295 8.04234 65.9433 8.01654 65.9537C7.96528 65.9677 7.91247 65.9751 7.85935 65.9757V65.9757Z" fill="#F6B4A1"/>
<path d="M28.3591 67.0752C27.5561 66.3438 26.6926 65.682 25.778 65.0968C25.4637 64.892 25.1493 64.6936 24.8161 64.5046C23.3077 63.6402 21.7304 62.9027 20.1004 62.2994C19.2925 61.9844 18.4751 61.7103 17.6546 61.4394C17.4943 61.389 17.1359 61.2315 16.7429 61.0897C16.636 61.0519 16.526 61.0141 16.4285 60.9826C16.2243 60.9148 16.0136 60.8683 15.7998 60.844C15.7086 60.8233 15.6137 60.8257 15.5237 60.851C15.4337 60.8763 15.3514 60.9237 15.2842 60.9889C15.248 61.0411 15.2014 61.0851 15.1472 61.1182C15.0931 61.1513 15.0327 61.1727 14.9698 61.1811C14.6271 61.222 14.2593 60.866 14.5108 60.5163C14.6393 60.3289 14.815 60.179 15.0201 60.0816C15.3118 59.9623 15.6315 59.9295 15.9412 59.9871C15.9412 59.9871 15.9412 59.9871 15.9412 59.9871C16.4601 60.0711 16.9696 60.2051 17.4628 60.3872L17.9564 60.5636C18.2708 60.677 18.56 60.7873 18.8524 60.8786C20.7311 61.5043 22.5597 62.2721 24.3225 63.1752C25.1475 63.6052 25.9463 64.0839 26.7149 64.6085C27.6734 65.259 28.5738 65.9916 29.4059 66.7979L28.3591 67.0752Z" fill="#F6B4A1"/>
<path d="M18.7718 70.3042C18.0194 69.8989 17.2565 69.5124 16.4831 69.1449C13.8433 67.8885 11.0989 66.866 8.28109 66.0892L7.91956 65.9915L7.85668 65.9726L7.61776 65.9065L7.52659 65.8844L7.35368 65.8403L7.17449 65.7931H7.1399L7.06445 65.7679L7.01415 65.7427C6.98403 65.7258 6.95736 65.7033 6.93556 65.6765C6.87487 65.6086 6.83934 65.5218 6.83496 65.4308C6.83496 65.4119 6.83496 65.3961 6.83496 65.3772C6.84069 65.2969 6.86533 65.219 6.90686 65.15C6.94838 65.081 7.00562 65.0229 7.07389 64.9803C7.12421 64.9509 7.18001 64.932 7.23786 64.925C7.2957 64.918 7.35437 64.9228 7.41027 64.9393L7.60518 64.9898L7.88183 65.0622L8.46657 65.2197L8.64576 65.267L9.00101 65.3678C11.9643 66.2105 14.8444 67.323 17.6055 68.6913C18.3505 69.0567 19.0893 69.4442 19.8061 69.8537C19.4634 69.9986 19.1145 70.1498 18.7718 70.3042Z" fill="#F6B4A1"/>
<path d="M6.50192 65.6575C6.46641 65.6379 6.43451 65.6123 6.40761 65.5819L6.17812 65.3551C6.1533 65.3245 6.12596 65.296 6.09638 65.27C5.98949 65.1598 5.87632 65.0527 5.76628 64.955C4.51098 63.7358 3.15075 62.63 1.70141 61.6504C1.36503 61.4236 1.0255 61.2031 0.679688 60.992C0.811725 60.7211 0.946907 60.4533 1.08523 60.1855C1.45305 60.4092 1.81144 60.6423 2.16983 60.8817C3.5975 61.8417 4.94249 62.9197 6.19069 64.1044C6.22213 64.136 6.25671 64.1675 6.28815 64.2021C6.54908 64.451 6.80687 64.703 7.05837 64.9613C7.121 65.0222 7.16198 65.102 7.17503 65.1885C7.18809 65.275 7.17251 65.3634 7.13067 65.4401C7.10036 65.4966 7.06107 65.5476 7.01435 65.5914C6.98468 65.6173 6.95195 65.6395 6.9169 65.6575C6.85414 65.695 6.78245 65.7147 6.70941 65.7147C6.63637 65.7147 6.56468 65.695 6.50192 65.6575V65.6575Z" fill="#F6B4A1"/>
<path d="M1.16611 67.626C1.0718 67.3393 0.990061 67.0464 0.920898 66.7534H0.942905C2.44099 66.1798 3.98918 65.7474 5.56737 65.4618C5.74656 65.4271 5.92576 65.3988 6.1081 65.3704H6.19298L6.52936 65.3169C6.6383 65.2993 6.74991 65.3217 6.84373 65.3799C6.8651 65.3925 6.88512 65.4073 6.90346 65.424C6.96244 65.4757 7.0087 65.5404 7.03865 65.613L7.05751 65.6665C7.059 65.6833 7.059 65.7002 7.05751 65.7169C7.06051 65.7357 7.06051 65.7549 7.05751 65.7737C7.06179 65.8267 7.05647 65.88 7.04179 65.9312C7.0349 65.9602 7.02321 65.9879 7.00721 66.0131C6.98063 66.0594 6.94389 66.0991 6.89978 66.1291C6.85567 66.1591 6.80533 66.1787 6.75256 66.1863H6.72113L6.40675 66.2367C6.39545 66.2335 6.38347 66.2335 6.37217 66.2367L6.15525 66.2682C5.84088 66.3186 5.55165 66.3754 5.25299 66.4352C4.05837 66.6765 2.8827 67.004 1.73513 67.4149V67.4149C1.54336 67.4811 1.35474 67.5536 1.16611 67.626Z" fill="#F6B4A1"/>
<path d="M6.2872 73.782C6.19288 73.7274 6.10171 73.6707 6.01369 73.6119C5.82192 73.5237 5.63644 73.4261 5.4541 73.3221C5.4541 73.278 5.4541 73.2339 5.46982 73.1866L5.91309 69.8537C6.04198 68.8897 6.16773 67.9257 6.29663 66.9586V66.8956C6.29663 66.8168 6.31549 66.7412 6.32807 66.6625C6.34064 66.5837 6.32807 66.5365 6.35007 66.4735C6.35007 66.3916 6.36893 66.3128 6.38151 66.2309C6.37977 66.2236 6.37977 66.2161 6.38151 66.2088C6.39723 66.0797 6.41295 65.9505 6.43181 65.8214C6.43953 65.7654 6.45653 65.7111 6.48211 65.6607C6.51413 65.6004 6.55881 65.5478 6.61309 65.5064C6.66736 65.4651 6.72993 65.436 6.79649 65.4213C6.81733 65.4182 6.83851 65.4182 6.85936 65.4213C6.94506 65.4112 7.03189 65.4242 7.11086 65.4591L7.17059 65.4906C7.19474 65.5068 7.2169 65.5259 7.23661 65.5473C7.26523 65.5773 7.28767 65.6126 7.30263 65.6512C7.32647 65.7167 7.33402 65.787 7.32464 65.856V65.856C7.32464 65.9411 7.29949 66.0261 7.29006 66.1112C7.28062 66.1962 7.26805 66.2687 7.25862 66.3443C7.25727 66.3526 7.25727 66.3612 7.25862 66.3695C7.18631 66.9176 7.114 67.4658 7.03855 68.0108C6.93167 68.8298 6.82478 69.6426 6.72418 70.4617L6.29034 73.7411C6.28799 73.7546 6.28693 73.7683 6.2872 73.782V73.782Z" fill="#F6B4A1"/>
<path d="M71.4609 22.2063C71.4032 22.1876 71.3498 22.1576 71.3037 22.1181C71.24 22.0609 71.1942 21.9865 71.1717 21.9039C68.626 13.4994 63.1832 6.27467 55.8145 1.51864C56.2106 1.40838 56.6098 1.30757 57.0059 1.20361C64.2149 6.09821 69.525 13.3279 72.0457 21.6802C72.0577 21.7244 72.064 21.7699 72.0645 21.8156C72.0646 21.8659 72.0542 21.9156 72.0342 21.9617C72.0142 22.0078 71.9849 22.0492 71.9482 22.0834C71.8847 22.1446 71.8063 22.1882 71.7209 22.2097C71.6354 22.2313 71.5458 22.2301 71.4609 22.2063V22.2063Z" fill="#F6B4A1"/>
<path d="M67.1227 24.9345C67.1227 24.8872 67.0944 24.84 67.0818 24.7927C66.235 21.7397 64.7329 18.9089 62.6806 16.4981C58.9296 12.0771 53.6539 9.23468 47.9049 8.53748C45.1924 8.22678 42.4474 8.36191 39.7783 8.93756C40.3128 8.51227 40.8535 8.11219 41.4131 7.73416C47.0813 6.93085 52.9412 8.03344 57.8455 11.1207C62.6891 14.1482 66.2656 18.8408 67.9055 24.3202C67.9463 24.4557 67.9841 24.5911 68.0218 24.7297C68.1475 25.2873 67.2767 25.4952 67.1227 24.9345Z" fill="#F6B4A1"/>
<path d="M49.7182 33.2416C47.9011 30.7624 44.6882 28.5162 41.4878 28.5572C37.8945 28.6202 37.0457 32.5611 37.4575 35.4373C37.9616 38.7947 39.4813 41.9163 41.8116 44.3809C43.7262 46.4065 46.6844 48.8322 49.4635 46.9011C52.8053 44.5793 51.8622 40.2509 50.8562 36.962C50.6896 36.4107 49.8156 36.6155 49.9822 37.17C50.7807 39.7784 51.7553 43.0263 49.803 45.3606C48.9511 46.3813 47.681 47.005 46.3449 46.5986C45.0088 46.1922 43.8299 45.1086 42.8554 44.1603C40.8666 42.2045 39.4304 39.7556 38.693 37.0628C38.036 34.6466 37.5676 30.1512 40.9188 29.5023C42.4655 29.1872 44.3203 29.9969 45.6344 30.7624C46.9743 31.5465 48.1361 32.6023 49.0454 33.8622C49.3881 34.3253 50.0357 33.7015 49.6962 33.2322L49.7182 33.2416Z" fill="#F6B4A1"/>
<path d="M59.9889 28.7401C56.0875 24.7015 50.2998 22.1813 44.6411 22.8491C41.8117 23.1641 39.1363 24.4242 37.3758 26.7082C35.7708 28.8427 35.0074 31.4953 35.2318 34.1585C35.499 37.4883 37.1966 40.5314 39.589 42.8091C40.004 43.206 40.6579 42.5885 40.2367 42.179C36.4139 38.5373 34.6282 32.6558 37.6116 27.9273C40.6674 23.0854 47.2001 22.931 52.0729 24.6542C54.8263 25.6368 57.3137 27.2481 59.3381 29.3607C59.7405 29.7765 60.3913 29.1591 59.9889 28.7306V28.7401Z" fill="#F6B4A1"/>
<path d="M59.5611 29.7854C61.4945 32.2741 62.1641 35.5787 62.3685 38.6659C62.554 41.4665 62.1861 44.3836 60.4822 46.6864C57.2221 51.0653 50.9692 51.8087 46.285 49.5216C43.5519 48.1394 41.245 46.039 39.6108 43.4448C39.2965 42.9628 38.5074 43.3913 38.8249 43.8796C41.9404 48.6931 47.3508 52.3632 53.2862 51.6292C56.0424 51.3086 58.6002 50.0327 60.5168 48.0221C62.598 45.7603 63.3462 42.7549 63.3085 39.7338C63.255 36.0733 62.4942 32.1071 60.2119 29.1648C59.8566 28.708 59.209 29.3318 59.5611 29.7948V29.7854Z" fill="#F6B4A1"/>
<path d="M54.3182 61.7951C49.9926 60.0446 45.8621 57.8442 41.9947 55.23C41.4194 54.8394 40.8503 54.4425 40.2876 54.0298C39.1085 53.1775 37.9791 52.2583 36.9049 51.2765C36.6377 51.0308 36.3768 50.7819 36.119 50.5267C34.5848 49.0405 33.2691 47.3434 32.2113 45.4863C31.9284 44.9823 31.6674 44.4625 31.4285 43.9112C31.4285 43.886 31.4065 43.8576 31.3939 43.8324C31.09 43.1373 30.8134 42.4264 30.564 41.6997C29.1493 37.5887 28.5866 33.0964 28.291 28.8184C28.1491 27.0106 28.1754 25.1934 28.3696 23.3905C28.6589 22.981 28.9449 22.5652 29.2279 22.1493L29.5705 21.6484C28.9072 24.6034 29.0361 27.782 29.3631 30.7841C29.7403 34.2746 30.2307 37.9068 31.3625 41.2839C31.5888 41.9581 31.8372 42.6196 32.1201 43.2717C32.3339 43.7663 32.5634 44.2546 32.8149 44.7334C32.9752 45.0484 33.145 45.3446 33.321 45.6407C34.2895 47.2523 35.4671 48.728 36.8232 50.029C37.081 50.2841 37.3451 50.5299 37.6123 50.7756C38.6385 51.6963 39.7153 52.5587 40.8378 53.3588C42.023 54.2156 43.2459 55.0127 44.4625 55.7719C48.0456 58.0104 51.8356 59.8977 55.78 61.4076C55.2896 61.5337 54.8055 61.666 54.3182 61.7951Z" fill="#F6B4A1"/>
<path d="M54.9532 32.725C51.6051 29.5149 47.5623 25.8323 42.5448 26.3899C41.5194 26.4898 40.5268 26.8062 39.6322 27.3182C38.7376 27.8303 37.9613 28.5263 37.3545 29.3606C36.0435 31.2507 36.097 33.8024 36.4334 35.995C36.8952 38.7791 38.1134 41.3818 39.9544 43.5178C40.3316 43.9588 40.9824 43.3351 40.6051 42.8877C38.7741 40.7489 37.6051 38.1215 37.2413 35.3271C36.8829 32.4919 37.3765 29.6252 40.0361 28.1194C45.3145 25.1361 50.7249 29.9087 54.3025 33.3456C54.7174 33.7457 55.3713 33.1283 54.9532 32.7156V32.725Z" fill="#F6B4A1"/>
<path d="M53.5188 33.1185C55.9363 37.1414 57.1498 44.6988 52.2424 47.4553C47.7217 49.9912 42.7797 47.2284 39.4599 44.0372C39.0449 43.6372 38.391 44.2546 38.8092 44.6673C42.4653 48.183 48.0078 51.1095 52.8932 48.1326C58.0175 45.0012 56.9549 37.1067 54.3079 32.6964C54.0092 32.2018 53.2201 32.6302 53.5188 33.1279V33.1185Z" fill="#F6B4A1"/>
<path d="M37.6051 40.9153C35.7941 37.7774 34.9416 34.176 35.153 30.5573C35.3448 27.1929 36.4105 23.0408 38.9601 20.6719C41.7895 18.0446 46.3511 17.3263 50.0261 18.0257C53.4277 18.6715 57.1593 20.3127 59.7718 22.6282C61.1424 23.8442 61.919 25.2429 62.5288 26.9503C63.0916 28.5254 64.5094 29.2689 65.4903 30.5542C67.5463 33.2476 68.1342 36.987 67.8292 40.2947C67.2696 46.3558 62.7489 50.763 56.8858 51.8687C53.4461 52.5516 49.8847 52.2654 46.5976 51.0419C43.3104 49.8185 40.4261 47.7056 38.2653 44.9382C37.9069 44.4845 37.1902 45.0327 37.5517 45.4863C41.8335 50.8701 48.3002 53.7305 55.1567 53.028C61.3845 52.3979 66.9332 48.6964 68.4045 42.3487C69.1899 38.9157 68.8526 35.3207 67.4425 32.0946C66.6817 30.4376 65.5563 29.2815 64.2548 28.0529C63.45 27.2937 63.3116 26.273 62.8809 25.3027C62.5321 24.5288 62.0782 23.8069 61.5323 23.1574C59.1807 20.3505 55.4051 18.6085 51.969 17.5846C48.0361 16.4096 43.7135 16.7057 40.1076 18.7502C36.4199 20.842 34.7821 25.4035 34.3419 29.4327C33.8833 33.6131 34.777 37.8306 36.8915 41.4635C37.1807 41.9612 37.8912 41.4099 37.602 40.9153H37.6051Z" fill="#F6B4A1"/>
<path d="M8.80273 64.4039C9.78987 62.6556 11.9622 61.5971 13.4366 60.2519C15.8888 58.0121 18.2717 55.6967 20.6673 53.4033C25.3546 48.9205 30.1205 44.4724 35.4932 40.8023C36.4018 40.1723 37.3795 39.5706 38.4735 39.5139C40.9476 39.3847 42.6987 42.3207 42.246 44.759C41.7933 47.1973 39.8567 49.0686 37.8825 50.5618C33.4058 53.9388 28.25 56.2165 23.1068 58.3838C20.4598 59.5022 17.797 60.589 15.1877 61.7955C13.6253 62.5295 10.4941 65.0151 8.80273 64.4039Z" fill="#E54428"/>
</g>
<defs>
<clipPath id="clip0">
<rect width="99" height="78" fill="white"/>
</clipPath>
</defs>
</svg>
