<svg width="94" height="72" viewBox="0 0 94 72" fill="none" xmlns="http://www.w3.org/2000/svg">
<path d="M2.71355 5.23291C2.71355 5.23291 2.81943 48.9437 0.0664062 55.3012C0.0664062 55.3012 20.6876 55.3012 27.6629 58.6326C27.6629 58.6326 27.7555 8.25894 29.4232 6.27397C31.0909 4.28901 27.6893 8.32834 27.6893 8.32834C27.6893 8.32834 6.94898 8.48103 2.71355 5.23291Z" fill="#00C8E2"/>
<g style="mix-blend-mode:multiply" opacity="0.4">
<g style="mix-blend-mode:multiply" opacity="0.4">
<path d="M29.4492 6.14913L29.6213 5.94092L29.4492 6.14913Z" fill="#7BAFB3"/>
</g>
<g style="mix-blend-mode:multiply" opacity="0.4">
<path d="M29.3564 6.27385L29.4491 6.14893L29.3564 6.27385Z" fill="#7BAFB3"/>
</g>
<g style="mix-blend-mode:multiply" opacity="0.4">
<path d="M29.6211 5.94085L29.727 5.81592L29.6211 5.94085Z" fill="#7BAFB3"/>
</g>
<g style="mix-blend-mode:multiply" opacity="0.4">
<path d="M29.3568 6.27393C28.9333 6.75976 28.3377 7.46768 28.0332 7.89799C27.1464 21.7788 27.0935 54.1074 27.0935 54.1074C21.2698 51.3312 5.91636 50.8592 1.04562 50.7898C0.873161 52.3326 0.522031 53.8475 0 55.3011C0 55.3011 20.6212 55.3011 27.5965 58.6325C27.5965 58.6325 27.6891 8.32829 29.3568 6.27393Z" fill="#7BAFB3"/>
</g>
</g>
<path d="M2.71289 5.23308C2.71289 5.23308 6.20712 5.45518 10.7734 0C10.7734 0 33.155 3.24812 36.0007 0.860613L27.6887 8.32851C27.6887 8.32851 10.9323 10.7993 2.71289 5.23308Z" fill="#B0FAFF"/>
<g style="mix-blend-mode:screen">
<g style="mix-blend-mode:screen">
<path d="M30.5079 1.73533L25.8754 5.89959C25.8754 5.89959 13.5397 7.73186 4.84384 4.7336C4.17022 5.04055 3.44702 5.21014 2.71289 5.23331C10.9323 10.7995 27.6887 8.32874 27.6887 8.32874L36.0007 0.86084C35.2595 1.48548 33.1683 1.72145 30.5079 1.73533Z" fill="#B0FAFF"/>
</g>
</g>
<path d="M27.5967 58.633C27.5967 58.633 32.0306 46.4317 35.7366 46.2235L36.0014 0.86084L27.6893 8.32874L27.5967 58.633Z" fill="#B0FAFF"/>
<g style="mix-blend-mode:screen">
<path d="M28.457 50.7485L27.6893 8.32861L27.5967 58.7022C27.5967 58.7022 32.0306 46.4316 35.7366 46.2234V38.5889C32.2689 40.2546 28.457 50.7485 28.457 50.7485Z" fill="#67A1A6"/>
</g>
<path d="M13.778 14.4359L17.8414 14.6025C17.8531 14.3945 17.8531 14.1859 17.8414 13.9779C17.8359 13.932 17.8159 13.8894 17.7848 13.8567C17.7536 13.8241 17.713 13.8032 17.6693 13.7974L16.8487 13.617C16.8487 13.2977 16.8487 12.9507 16.9546 12.6592L18.7017 12.8396C18.7017 13.034 18.7017 13.3671 18.7017 13.6864C18.7017 14.0056 18.7017 15.0744 18.7017 15.4492C18.7017 15.824 18.7017 16.8373 18.7017 17.1427C18.7017 17.4481 18.7017 17.809 18.7017 17.9894H16.9546C16.9546 17.684 16.9546 17.337 16.9546 17.0178L17.7884 16.8928C17.8284 16.893 17.8669 16.8774 17.8963 16.8491C17.9257 16.8208 17.9439 16.7819 17.9473 16.7402C17.9768 16.5331 17.9768 16.3226 17.9473 16.1155L13.9766 15.9489V16.6013H13.2354C13.2354 16.2266 13.2354 15.6852 13.2354 15.2133C13.2354 14.7413 13.2354 14.2555 13.2354 13.8252H13.9766L13.778 14.4359Z" fill="white"/>
<path d="M13.3548 23.5974C13.6438 23.3251 13.9837 23.119 14.3529 22.9924C14.7221 22.8657 15.1125 22.8212 15.499 22.8617C15.9821 22.8572 16.4583 22.9824 16.8822 23.2254C17.3062 23.4683 17.6638 23.821 17.9211 24.2498C18.2311 24.8031 18.3742 25.4419 18.3315 26.082C18.3222 26.6318 18.1613 27.1669 17.8682 27.6228C17.585 27.9885 17.2216 28.2767 16.809 28.4629C16.3964 28.649 15.9469 28.7275 15.499 28.6916C14.6581 28.7011 13.8466 28.3677 13.2357 27.7616C12.747 27.1561 12.5046 26.3735 12.5607 25.5823C12.5604 25.2127 12.6305 24.8467 12.7668 24.5058C12.9032 24.165 13.1031 23.8561 13.3548 23.5974ZM13.6328 26.5262C14.1475 26.877 14.7533 27.0516 15.3667 27.0259C15.9557 27.0548 16.5435 26.9458 17.0873 26.7067C17.2354 26.6428 17.3629 26.5355 17.4544 26.3977C17.546 26.2598 17.5977 26.0972 17.6035 25.9294C17.6162 25.7695 17.5914 25.6088 17.5315 25.4613C17.4715 25.3137 17.3781 25.1837 17.2594 25.0826C16.7538 24.721 16.1501 24.5408 15.5387 24.569C14.9111 24.4699 14.2702 24.6024 13.7254 24.9438C13.6039 25.0372 13.504 25.1581 13.4329 25.2974C13.3619 25.4368 13.3217 25.591 13.3151 25.7489C13.2974 25.8984 13.3174 26.0502 13.3732 26.189C13.4289 26.3279 13.5184 26.4489 13.6328 26.5401V26.5262Z" fill="white"/>
<path d="M17.2728 33.9524H18.0007C18.0007 34.2855 18.0007 34.7574 18.0007 35.1461C18.0007 35.5348 17.9345 37.0478 17.9345 37.2421C17.9345 37.4365 17.9345 37.9362 17.9345 38.1305C17.4051 38.1305 16.8757 38.1305 16.333 38.1999C16.333 37.9362 16.333 37.6308 16.333 37.3115L17.061 37.1588C17.1536 37.1588 17.1933 37.1588 17.2198 36.9923C17.2415 36.6917 17.2371 36.3897 17.2066 36.09C16.5917 36.0093 15.9732 35.9629 15.3536 35.9512C15.3536 36.2427 15.3536 36.5064 15.3536 36.7979C15.3536 37.0894 15.3536 36.9784 15.5124 36.9923L15.8698 37.0617C15.8698 37.3532 15.8698 37.6447 15.8698 37.9223H14.9565H14.0697C14.0697 37.6585 14.0697 37.3809 14.0697 37.0755H14.4668C14.5859 37.0755 14.6256 37.0061 14.6256 36.8535C14.6392 36.5806 14.6392 36.3073 14.6256 36.0345L13.1035 35.8402V36.8118H12.3623C12.3623 36.326 12.3623 35.6597 12.3623 35.0906C12.3623 34.5215 12.3623 34.2161 12.3623 33.8413H13.0903V34.3133L17.1801 34.4798L17.2728 33.9524Z" fill="white"/>
<path d="M14.2945 45.1404C13.8807 45.0738 13.4583 45.1783 13.1165 45.4319C13.0187 45.5187 12.9406 45.6273 12.888 45.7498C12.8353 45.8723 12.8094 46.0055 12.8121 46.1399C12.8032 46.2703 12.8238 46.4011 12.872 46.5217C12.9203 46.6423 12.995 46.7492 13.09 46.8339C13.481 47.1035 13.9477 47.2259 14.4136 47.1809C15.1019 47.1809 16.1475 47.1809 16.8622 47.1809C16.896 46.9603 16.9181 46.7379 16.9284 46.5146H17.6564C17.6564 46.8478 17.6564 47.3197 17.6564 47.7084C17.6564 48.0971 17.6564 48.458 17.6564 48.7772H16.9416V48.3469L14.5989 48.2498C13.8755 48.2819 13.1684 48.0182 12.6268 47.5141C12.4042 47.3246 12.2245 47.0856 12.1009 46.8143C11.9773 46.543 11.9128 46.2462 11.9121 45.9455C11.8943 45.6228 11.9378 45.2995 12.0401 44.9946C12.1423 44.6896 12.3012 44.4089 12.5077 44.1688C12.7496 43.9451 13.0338 43.7776 13.3417 43.6771C13.6496 43.5767 13.9743 43.5455 14.2945 43.5858L16.8755 43.6691L16.9549 43.2388H17.6828C17.6828 43.5997 17.6828 44.0994 17.6828 44.488C17.6828 44.8767 17.6828 45.4736 17.6828 45.8761H16.9549V45.2654L14.2945 45.1404Z" fill="white"/>
<g style="mix-blend-mode:multiply">
<path d="M47.6485 71.9997C43.2013 69.6677 27.292 52.747 27.292 52.747C27.292 52.747 45.1999 62.9078 45.822 62.2692L45.9808 62.1166C45.9808 62.1166 78.673 42.2947 80.6187 41.5312C81.0025 43.5579 92.3058 54.5931 93.9735 55.5232C93.9735 55.5232 48.6544 70.2646 47.6485 71.9997Z" fill="#FFE2C9"/>
</g>
<path d="M32.864 30.3989C32.864 30.3989 36.4641 48.444 32.3213 55.1207C41.8378 62.2138 50.4145 68.141 50.4145 68.141L52.4793 40.7679L32.864 30.3989Z" fill="#FFD5B0"/>
<path d="M52.4798 40.7683L90.003 31.8013C90.003 31.8013 87.7265 44.8909 89.5001 54.3438C81.5587 55.954 50.415 68.1414 50.415 68.1414L52.4798 40.7683Z" fill="#FFE1C7"/>
<g style="mix-blend-mode:multiply">
<path d="M55.2196 40.8374L89.8839 32.5088C89.9633 32.0369 90.003 31.7593 90.003 31.7593L52.4798 40.768L50.415 68.141L55.2196 40.8374Z" fill="#FFE1C7"/>
</g>
<path d="M32.8643 30.3993C32.8643 30.3993 58.8195 29.15 73.4317 21.4878C77.2304 26.5265 90.0028 31.8013 90.0028 31.8013L52.4796 40.7683L32.8643 30.3993Z" fill="#FFE1C7"/>
<g style="mix-blend-mode:screen">
<path d="M37.3115 31.0933C37.3115 31.0933 63.3329 31.0933 73.4317 21.4878C58.8724 29.1223 32.8643 30.3993 32.8643 30.3993L52.4796 40.7683L37.3115 31.0933Z" fill="#FFE1C7"/>
</g>
<g style="mix-blend-mode:multiply">
<path d="M68.0052 51.3591C68.0052 52.3307 66.814 53.0942 65.358 53.0664C63.9021 53.0387 62.8168 52.2058 62.8432 51.2342C62.8697 50.2625 64.0212 49.499 65.4904 49.5407C66.9595 49.5823 68.0184 50.3458 68.0052 51.3591Z" fill="#FFE1C7"/>
</g>
<g style="mix-blend-mode:multiply">
<path d="M67.1185 49.9712C67.1846 50.1338 67.2206 50.3081 67.2243 50.4848C67.2243 51.4564 66.0464 52.2199 64.5772 52.1782C64.0068 52.1689 63.4475 52.0115 62.9492 51.7202C63.1911 52.1607 63.5436 52.523 63.9684 52.7678C64.3932 53.0126 64.8739 53.1303 65.3581 53.1083C66.7611 53.1083 67.9258 52.3726 68.0053 51.4009C67.9984 51.0998 67.9118 50.8066 67.7552 50.5541C67.5986 50.3017 67.3782 50.0998 67.1185 49.9712V49.9712Z" fill="#FFE1C7"/>
</g>
<g style="mix-blend-mode:multiply">
<path d="M82.5267 40.2301C82.5404 39.617 81.8347 39.1024 80.9504 39.0807C80.0662 39.059 79.3382 39.5384 79.3246 40.1516C79.3109 40.7647 80.0166 41.2793 80.9009 41.301C81.7851 41.3227 82.5131 40.8432 82.5267 40.2301Z" fill="#FFE1C7"/>
</g>
<g style="mix-blend-mode:multiply">
<path d="M81.9684 39.3799C81.9884 39.4853 81.9884 39.5938 81.9684 39.6991C81.9684 40.3099 81.2272 40.7818 80.3404 40.768C79.9832 40.7592 79.6333 40.6591 79.3213 40.4765C79.4765 40.7454 79.6995 40.9642 79.9658 41.1087C80.232 41.2533 80.5311 41.3179 80.8302 41.2954C81.717 41.2954 82.4449 40.8374 82.4582 40.2266C82.4512 40.0536 82.4026 39.8853 82.317 39.7373C82.2314 39.5892 82.1115 39.4663 81.9684 39.3799V39.3799Z" fill="#FFE1C7"/>
</g>
<g style="mix-blend-mode:multiply">
<path d="M47.5157 58.2022C47.5157 58.813 46.7745 59.2849 45.8877 59.271C45.0009 59.2572 44.2994 58.7297 44.3127 58.1189C44.3259 57.5082 45.0539 57.0362 45.9407 57.0501C46.8275 57.064 47.529 57.5915 47.5157 58.2022Z" fill="#FFE1C7"/>
</g>
<g style="mix-blend-mode:multiply">
<path d="M46.9608 57.3418C47.0031 57.4425 47.0256 57.5511 47.027 57.6611C47.027 58.2718 46.2858 58.7576 45.399 58.7299C45.042 58.7194 44.6925 58.6195 44.3799 58.4384C44.5367 58.7067 44.7596 58.9258 45.0252 59.0723C45.2907 59.2189 45.5891 59.2876 45.8888 59.2712C46.7755 59.2712 47.5035 58.8132 47.5168 58.2024C47.5055 58.0201 47.448 57.8442 47.3503 57.6929C47.2525 57.5416 47.1181 57.4204 46.9608 57.3418V57.3418Z" fill="#FFE1C7"/>
</g>
<g style="mix-blend-mode:multiply">
<path d="M41.256 41.4343C41.256 42.045 40.5148 42.517 39.628 42.5031C38.7412 42.4892 38.0397 41.9617 38.0529 41.351C38.0662 40.7402 38.7941 40.2544 39.7074 40.2544C40.6207 40.2544 41.2692 40.8235 41.256 41.4343Z" fill="#FFE1C7"/>
</g>
<g style="mix-blend-mode:multiply">
<path d="M40.7001 40.5737C40.7408 40.6749 40.7632 40.7832 40.7663 40.893C40.7663 41.5037 40.0251 41.9896 39.1383 41.9618C38.7769 41.9567 38.424 41.8462 38.1191 41.6426C38.2715 41.9152 38.4936 42.1377 38.7602 42.2849C39.0269 42.4321 39.3275 42.4981 39.628 42.4754C40.5148 42.4754 41.2428 42.0173 41.256 41.4066C41.2402 41.2291 41.1807 41.059 41.0832 40.913C40.9857 40.767 40.8537 40.65 40.7001 40.5737V40.5737Z" fill="#FFE1C7"/>
</g>
<g style="mix-blend-mode:multiply">
<path d="M53.9088 32.7449C53.9088 32.1342 54.6765 31.6761 55.5633 31.7316C56.4501 31.7871 57.1383 32.3007 57.1119 32.9115C57.0854 33.5222 56.3309 33.9803 55.4574 33.9387C54.5838 33.897 53.8691 33.314 53.9088 32.7449Z" fill="#FFE1C7"/>
</g>
<g style="mix-blend-mode:multiply">
<path d="M54.4386 33.6194C54.3963 33.5187 54.3738 33.4101 54.3724 33.3001C54.3724 32.6893 55.1533 32.2313 56.0268 32.2729C56.3864 32.2902 56.7363 32.3998 57.046 32.5922C56.897 32.3271 56.6839 32.1079 56.4282 31.9568C56.1726 31.8057 55.8835 31.728 55.5901 31.7316C54.7033 31.7316 53.9621 32.1341 53.9356 32.7449C53.9338 32.9252 53.9799 33.1026 54.0687 33.257C54.1575 33.4114 54.2856 33.5369 54.4386 33.6194V33.6194Z" fill="#FFE1C7"/>
</g>
<g style="mix-blend-mode:multiply">
<path d="M75.4433 31.6485C75.4433 31.1904 76.1977 30.8434 77.0845 30.8989C77.9713 30.9544 78.6596 31.357 78.6331 31.815C78.6066 32.2731 77.8786 32.6201 76.9918 32.5785C76.1051 32.5369 75.3506 32.1204 75.4433 31.6485Z" fill="#FFE1C7"/>
</g>
<g style="mix-blend-mode:multiply">
<path d="M75.9197 32.3283C75.8961 32.2469 75.8961 32.1599 75.9197 32.0785C75.9197 31.6065 76.6741 31.2734 77.5609 31.315C77.9132 31.3368 78.2586 31.4262 78.5801 31.5788C78.3987 31.3508 78.169 31.1706 77.9092 31.0525C77.6495 30.9344 77.3671 30.8817 77.0844 30.8986C76.1976 30.8986 75.4564 31.1901 75.4432 31.6482C75.43 32.1062 75.5756 32.1479 75.9197 32.3283Z" fill="#FFE1C7"/>
</g>
<g style="mix-blend-mode:multiply">
<path d="M51.9102 38.6166C51.9102 38.45 52.2013 38.3112 52.5455 38.339C52.8896 38.3668 53.1411 38.5056 53.1278 38.686C53.1146 38.8665 52.8499 38.9914 52.5058 38.9775C52.1616 38.9636 51.9102 38.8665 51.9102 38.6166Z" fill="#FFE1C7"/>
</g>
<g style="mix-blend-mode:multiply">
<path d="M52.1225 38.8664C52.1168 38.8343 52.1168 38.8014 52.1225 38.7693C52.1225 38.5888 52.4137 38.4639 52.7446 38.4778C52.8764 38.4899 53.0058 38.5226 53.1284 38.5749C53.0588 38.4932 52.973 38.4285 52.8769 38.3853C52.7809 38.3421 52.677 38.3216 52.5725 38.3251C52.2284 38.3251 51.9504 38.4361 51.9372 38.6027C51.924 38.7693 51.9902 38.8664 52.1225 38.8664Z" fill="#FFE1C7"/>
</g>
<g style="mix-blend-mode:multiply">
<path d="M47.8598 42.6837C47.8598 42.5032 48.151 42.3783 48.4819 42.3922C48.8128 42.406 49.0908 42.5726 49.0775 42.7531C49.0643 42.9335 48.7863 43.0584 48.4554 43.0446C48.1245 43.0307 47.8466 42.8641 47.8598 42.6837Z" fill="#FFE1C7"/>
</g>
<g style="mix-blend-mode:multiply">
<path d="M48.0717 42.9473C48.0616 42.9157 48.0616 42.8816 48.0717 42.8501C48.0717 42.6696 48.3629 42.5447 48.6938 42.5586C48.8263 42.5661 48.9564 42.599 49.0776 42.6558C49.0099 42.5671 48.9228 42.4969 48.8238 42.451C48.7247 42.4051 48.6166 42.3849 48.5085 42.392C48.1776 42.392 47.8997 42.5031 47.8864 42.6835C47.8732 42.864 47.9394 42.8779 48.0717 42.9473Z" fill="#FFE1C7"/>
</g>
<g style="mix-blend-mode:multiply">
<path d="M69.1694 42.1007C69.1694 41.9202 69.4606 41.7953 69.7915 41.8092C70.1224 41.823 70.3871 41.9896 70.3871 42.1701C70.3871 42.3505 70.0959 42.4754 69.765 42.4477C69.4341 42.4199 69.1562 42.2811 69.1694 42.1007Z" fill="#FFE1C7"/>
</g>
<g style="mix-blend-mode:multiply">
<path d="M69.3813 42.3504C69.3754 42.3374 69.3724 42.3231 69.3724 42.3087C69.3724 42.2943 69.3754 42.2801 69.3813 42.2671C69.3813 42.0866 69.6592 41.9617 70.0034 41.9756C70.1368 41.9763 70.2682 42.0096 70.3872 42.0728C70.3195 41.9841 70.2324 41.9139 70.1333 41.868C70.0343 41.8221 69.9262 41.8019 69.8181 41.809C69.4872 41.809 69.2092 41.9201 69.196 42.1005C69.1828 42.281 69.2489 42.2948 69.3813 42.3504Z" fill="#FFE1C7"/>
</g>
<g style="mix-blend-mode:multiply">
<path d="M71.2739 56.2593C71.2739 56.0789 71.5651 55.954 71.896 55.9678C72.2269 55.9817 72.4916 56.1483 72.4916 56.3288C72.4916 56.5092 72.2004 56.6341 71.8695 56.6203C71.5386 56.6064 71.2607 56.4398 71.2739 56.2593Z" fill="#FFE1C7"/>
</g>
<g style="mix-blend-mode:multiply">
<path d="M71.4729 56.523C71.4628 56.4914 71.4628 56.4573 71.4729 56.4258C71.4729 56.2453 71.7508 56.1204 72.095 56.1343C72.2275 56.1418 72.3576 56.1747 72.4788 56.2314C72.411 56.1428 72.324 56.0726 72.2249 56.0267C72.1259 55.9808 72.0177 55.9606 71.9097 55.9677C71.5788 55.9677 71.3008 56.0788 71.2876 56.2592C71.2743 56.4397 71.3537 56.4535 71.4729 56.523Z" fill="#FFE1C7"/>
</g>
<g style="mix-blend-mode:multiply">
<path d="M72.7168 26.0684C72.7168 25.888 73.008 25.763 73.3389 25.7769C73.6698 25.7908 73.9477 25.9574 73.9345 26.124C73.9212 26.2905 73.6433 26.4293 73.3124 26.4155C72.9815 26.4016 72.7168 26.2489 72.7168 26.0684Z" fill="#FFE1C7"/>
</g>
<g style="mix-blend-mode:multiply">
<path d="M72.9292 26.3738C72.9213 26.3419 72.9213 26.3085 72.9292 26.2766C72.9292 26.1101 73.2203 25.9713 73.5512 25.999C73.6848 25.9982 73.8166 26.0315 73.9351 26.0962C73.8673 26.0076 73.7803 25.9374 73.6812 25.8914C73.5821 25.8455 73.474 25.8253 73.3659 25.8325C73.035 25.8325 72.7571 25.9435 72.7438 26.124C72.7306 26.3044 72.7968 26.2489 72.9292 26.3738Z" fill="#FFE1C7"/>
</g>
<g style="mix-blend-mode:multiply">
<path d="M43.6777 32.2035C43.6777 32.037 43.9689 31.8982 44.313 31.9259C44.6572 31.9537 44.9086 32.0925 44.8954 32.2729C44.8822 32.4534 44.6175 32.5783 44.2733 32.5644C43.9292 32.5506 43.6777 32.384 43.6777 32.2035Z" fill="#FFE1C7"/>
</g>
<g style="mix-blend-mode:multiply">
<path d="M43.9028 32.467C43.897 32.4349 43.897 32.402 43.9028 32.3699C43.9028 32.1894 44.194 32.0645 44.5249 32.0784C44.6567 32.0904 44.7861 32.1232 44.9087 32.1755C44.8391 32.0938 44.7532 32.0291 44.6572 31.9859C44.5611 31.9427 44.4572 31.9222 44.3528 31.9257C44.0087 31.9257 43.7307 32.0367 43.7175 32.2033C43.7042 32.3699 43.7704 32.3976 43.9028 32.467Z" fill="#FFE1C7"/>
</g>
<g style="mix-blend-mode:multiply">
<path d="M74.438 46.3067C74.438 46.1263 74.7291 46.0013 75.06 46.0152C75.3909 46.0291 75.6556 46.1957 75.6556 46.3622C75.6556 46.5288 75.3645 46.6676 75.0336 46.6537C74.7027 46.6398 74.4247 46.4872 74.438 46.3067Z" fill="#FFE1C7"/>
</g>
<g style="mix-blend-mode:multiply">
<path d="M74.636 46.5564C74.6286 46.5245 74.6286 46.4912 74.636 46.4593C74.636 46.2927 74.9139 46.1539 75.258 46.1816C75.3914 46.1824 75.5228 46.2156 75.6419 46.2788C75.5741 46.1902 75.4871 46.12 75.388 46.0741C75.2889 46.0282 75.1808 46.0079 75.0727 46.0151C74.7418 46.0151 74.4639 46.1261 74.4507 46.3066C74.4374 46.487 74.5168 46.487 74.636 46.5564Z" fill="#FFE1C7"/>
</g>
<g style="mix-blend-mode:multiply">
<path d="M42.9368 49.6656C42.9368 49.3602 43.4397 49.1382 44.0221 49.1659C44.6045 49.1937 45.0545 49.4713 45.0413 49.7767C45.028 50.0821 44.5383 50.3041 43.9692 50.2764C43.4 50.2486 42.9236 49.971 42.9368 49.6656Z" fill="#FFE1C7"/>
</g>
<g style="mix-blend-mode:multiply">
<path d="M43.2943 50.1099C43.2824 50.0551 43.2824 49.9982 43.2943 49.9434C43.2943 49.638 43.7973 49.4159 44.3664 49.4437C44.5991 49.4563 44.8278 49.5128 45.0415 49.6102C44.9165 49.469 44.7649 49.3565 44.5963 49.28C44.4277 49.2036 44.2457 49.1647 44.062 49.166C43.4796 49.166 42.9899 49.3604 42.9767 49.6658C42.9635 49.9711 43.0693 49.9711 43.2943 50.1099Z" fill="#FFE1C7"/>
</g>
<g style="mix-blend-mode:multiply">
<path d="M35.7363 51.359C35.7363 51.0536 36.2393 50.8315 36.8217 50.8593C37.404 50.887 37.854 51.1647 37.8408 51.47C37.8276 51.7754 37.3511 51.9975 36.7687 51.9697C36.1863 51.942 35.7363 51.595 35.7363 51.359Z" fill="#FFE1C7"/>
</g>
<g style="mix-blend-mode:multiply">
<path d="M36.0811 51.7338C36.0691 51.6789 36.0691 51.622 36.0811 51.5672C36.0811 51.2618 36.584 51.0397 37.1532 51.0675C37.3859 51.0802 37.6145 51.1366 37.8282 51.234C37.7066 51.0885 37.5556 50.9731 37.3862 50.8962C37.2168 50.8194 37.0332 50.7831 36.8487 50.7899C36.2664 50.7899 35.7899 50.9842 35.7634 51.2896C35.7369 51.5949 35.8561 51.6227 36.0811 51.7338Z" fill="#FFE1C7"/>
</g>
<g style="mix-blend-mode:multiply">
<path d="M61.1749 43.1002C61.1749 42.7948 61.6646 42.5727 62.247 42.6005C62.8294 42.6282 63.2794 42.9059 63.2661 43.2112C63.2529 43.5166 62.7764 43.7387 62.1941 43.6971C61.6117 43.6554 61.1484 43.4056 61.1749 43.1002Z" fill="#FFE1C7"/>
</g>
<g style="mix-blend-mode:multiply">
<path d="M61.5194 43.5303C61.5058 43.4804 61.5058 43.4275 61.5194 43.3776C61.5194 43.0722 62.0224 42.8501 62.6047 42.8779C62.8338 42.8855 63.0591 42.9422 63.2665 43.0444C63.1468 42.8965 62.9961 42.7794 62.8263 42.7024C62.6564 42.6254 62.4719 42.5904 62.2871 42.6003C61.7047 42.6003 61.2282 42.7946 61.215 43.1C61.2017 43.4053 61.3076 43.4192 61.5194 43.5303Z" fill="#FFE1C7"/>
</g>
<g style="mix-blend-mode:multiply">
<path d="M57.4427 58.9659C57.4427 58.6605 57.9456 58.4384 58.528 58.4662C59.1103 58.494 59.5604 58.7716 59.5471 59.077C59.5339 59.3824 59.0442 59.6044 58.475 59.5767C57.9059 59.5489 57.4294 59.2713 57.4427 58.9659Z" fill="#FFE1C7"/>
</g>
<g style="mix-blend-mode:multiply">
<path d="M57.8002 59.4101C57.7883 59.3552 57.7883 59.2983 57.8002 59.2435C57.8002 58.9381 58.3032 58.716 58.8723 58.7438C59.105 58.7565 59.3336 58.8129 59.5473 58.9103C59.4269 58.7632 59.2762 58.6467 59.1065 58.5697C58.9368 58.4928 58.7526 58.4574 58.5679 58.4662C57.9855 58.4662 57.4958 58.6605 57.4825 58.9659C57.4693 59.2713 57.5752 59.299 57.8002 59.4101Z" fill="#FFE1C7"/>
</g>
<g style="mix-blend-mode:multiply">
<path d="M85.595 44.9044C85.595 44.599 86.098 44.3769 86.6803 44.4047C87.2627 44.4324 87.7127 44.7101 87.6995 45.0154C87.6862 45.3208 87.1965 45.5429 86.6274 45.5152C86.0582 45.4874 85.5818 45.2098 85.595 44.9044Z" fill="#FFE1C7"/>
</g>
<g style="mix-blend-mode:multiply">
<path d="M85.9531 45.3351C85.9395 45.2852 85.9395 45.2323 85.9531 45.1825C85.9531 44.8771 86.4561 44.655 87.0252 44.6827C87.2588 44.6889 87.4886 44.7456 87.7003 44.8493C87.5799 44.7022 87.4291 44.5857 87.2594 44.5087C87.0897 44.4317 86.9055 44.3963 86.7208 44.4051C86.1384 44.4051 85.6619 44.5995 85.6355 44.9048C85.609 45.2102 85.7281 45.2241 85.9531 45.3351Z" fill="#FFE1C7"/>
</g>
<g style="mix-blend-mode:multiply">
<path d="M83.3848 50.6651C83.3848 50.3598 83.8877 50.1238 84.4701 50.1654C85.0525 50.2071 85.5025 50.4569 85.4892 50.7623C85.476 51.0677 84.9863 51.3037 84.4172 51.262C83.848 51.2204 83.3848 50.9705 83.3848 50.6651Z" fill="#FFE1C7"/>
</g>
<g style="mix-blend-mode:multiply">
<path d="M83.7686 51.0955C83.755 51.0456 83.755 50.9927 83.7686 50.9428C83.7686 50.6374 84.2715 50.4153 84.8407 50.4431C85.0742 50.4492 85.304 50.5059 85.5157 50.6096C85.3973 50.46 85.2469 50.3418 85.0767 50.2646C84.9065 50.1874 84.7213 50.1534 84.5362 50.1655C83.9539 50.1655 83.4774 50.3598 83.4509 50.6652C83.4244 50.9705 83.5436 50.9844 83.7686 51.0955Z" fill="#FFE1C7"/>
</g>
<g style="mix-blend-mode:multiply">
<path d="M26.7764 70.3623C24.0246 68.6139 21.479 66.5313 19.1923 64.1575C19.1923 64.1575 19.9468 62.0477 18.9541 60.9788C21.1512 59.4658 23.7851 60.5763 24.3675 59.9655L24.5131 59.8128C26.2932 59.8897 28.0749 59.7076 29.8074 59.2715C29.9349 59.8407 30.1494 60.3844 30.4427 60.8817C30.6619 61.2329 30.9052 61.5669 31.1707 61.8811C31.8944 62.7448 32.7066 63.5222 33.5928 64.1992C33.8178 64.3796 34.0163 64.5323 34.1884 64.6434L34.5722 64.9071C34.5722 64.9071 27.6632 68.5994 26.7764 70.3623Z" fill="#FFE2C9"/>
</g>
<path d="M34.0693 47.8611C34.0693 47.8611 28.0868 47.1671 26.4323 45.085C23.2028 47.5974 20.4365 49.8877 20.4365 49.8877L28.7353 53.5384L34.0693 47.8611Z" fill="#FFD5B0"/>
<path d="M28.7353 53.469L27.5044 67.2805C25.3255 66.0433 22.977 65.1676 20.5424 64.6848C20.8998 61.7837 20.4365 49.8184 20.4365 49.8184L28.7353 53.469Z" fill="#FFE1C7"/>
<g style="mix-blend-mode:multiply">
<path d="M28.4309 54.399L27.2926 67.1556L27.5044 67.2805L28.7353 53.469L20.4365 49.8184L28.4309 54.399Z" fill="#FFE1C7"/>
</g>
<path d="M34.0688 47.8613C34.0688 47.8613 31.6864 56.8839 32.4938 62.7C30.5216 63.4634 27.5039 67.2806 27.5039 67.2806L28.7348 53.4692L34.0688 47.8613Z" fill="#FFE1C7"/>
<g style="mix-blend-mode:screen">
<path d="M33.3804 49.3049C33.3804 49.3049 30.5745 58.2164 32.4937 62.7C31.6863 56.8839 34.0687 47.8613 34.0687 47.8613L28.7744 53.4137L33.3804 49.3049Z" fill="#FFE1C7"/>
</g>
<g style="mix-blend-mode:multiply">
<path d="M23.8247 57.6471C23.5335 57.5361 23.4144 57.0502 23.5865 56.5783C23.7585 56.1063 24.1159 55.801 24.4203 55.912C24.7248 56.023 24.8306 56.5089 24.6718 56.9808C24.513 57.4528 24.0894 57.7582 23.8247 57.6471Z" fill="#FFE1C7"/>
</g>
<g style="mix-blend-mode:multiply">
<path d="M24.3139 57.4943C24.2574 57.509 24.1984 57.509 24.1419 57.4943C23.8374 57.3833 23.7316 56.9113 23.8904 56.4255C23.9499 56.2312 24.0599 56.0581 24.208 55.9258C24.048 55.9627 23.9011 56.046 23.7841 56.1663C23.6671 56.2865 23.5846 56.4389 23.5463 56.6059C23.3742 57.0779 23.5463 57.5637 23.7845 57.6748C23.8801 57.6962 23.9794 57.6907 24.0723 57.659C24.1653 57.6274 24.2486 57.5705 24.3139 57.4943Z" fill="#FFE1C7"/>
</g>
<g style="mix-blend-mode:multiply">
<path d="M25.6904 63.8517C25.4918 63.8517 25.4257 63.4769 25.5315 63.1854C25.6374 62.8939 25.8624 62.6857 26.0477 62.7551C26.233 62.8245 26.3124 63.1299 26.2066 63.4353C26.1007 63.7407 25.8757 63.8517 25.6904 63.8517Z" fill="#FFE1C7"/>
</g>
<g style="mix-blend-mode:multiply">
<path d="M26.0084 63.7131H25.9025C25.7172 63.7131 25.651 63.3383 25.7437 63.0468C25.784 62.925 25.8522 62.8154 25.9422 62.7275C25.8426 62.7527 25.7516 62.8062 25.6792 62.8821C25.6068 62.958 25.5559 63.0534 25.5319 63.1578C25.426 63.4493 25.5319 63.7547 25.6907 63.8241C25.7483 63.8385 25.8085 63.8357 25.8646 63.8161C25.9207 63.7964 25.9705 63.7608 26.0084 63.7131V63.7131Z" fill="#FFE1C7"/>
</g>
<g style="mix-blend-mode:multiply">
<path d="M23.8242 49.9713C23.6256 49.888 23.5594 49.5965 23.6653 49.2911C23.7712 48.9857 23.9962 48.8053 24.1948 48.8747C24.3933 48.9441 24.4462 49.2495 24.3403 49.541C24.2345 49.8325 24.0359 49.9713 23.8242 49.9713Z" fill="#FFE1C7"/>
</g>
<g style="mix-blend-mode:multiply">
<path d="M24.1685 49.7904C24.1345 49.8044 24.0967 49.8044 24.0626 49.7904C23.8773 49.7904 23.8112 49.4157 23.9038 49.1103C23.951 48.9921 24.0182 48.8839 24.1023 48.791C24.0028 48.8162 23.9118 48.8696 23.8394 48.9456C23.767 49.0215 23.716 49.1169 23.692 49.2213C23.5862 49.5267 23.692 49.8182 23.8509 49.9015C23.9084 49.9129 23.9679 49.9086 24.0234 49.8892C24.079 49.8698 24.129 49.8358 24.1685 49.7904V49.7904Z" fill="#FFE1C7"/>
</g>
<g style="mix-blend-mode:multiply">
<path d="M29.7411 49.5548C29.5426 49.4854 29.4764 49.18 29.5823 48.8746C29.6882 48.5692 29.9132 48.3888 30.1117 48.4582C30.3103 48.5276 30.3632 48.833 30.2573 49.1383C30.1515 49.4437 29.9264 49.6242 29.7411 49.5548Z" fill="#FFE1C7"/>
</g>
<g style="mix-blend-mode:multiply">
<path d="M30.0582 49.4574H29.9523C29.767 49.4574 29.7008 49.0826 29.7935 48.7773C29.8406 48.6591 29.9079 48.5509 29.992 48.458C29.8943 48.4871 29.8053 48.5419 29.7335 48.6172C29.6617 48.6925 29.6094 48.7859 29.5817 48.8883C29.4758 49.1937 29.5817 49.4991 29.7405 49.5685C29.7981 49.5774 29.8568 49.572 29.912 49.5527C29.9672 49.5334 30.0172 49.5008 30.0582 49.4574V49.4574Z" fill="#FFE1C7"/>
</g>
<g style="mix-blend-mode:multiply">
<path d="M31.077 54.8153C31.2756 54.8153 31.3285 55.1901 31.2226 55.4816C31.1167 55.7731 30.8785 55.9674 30.6932 55.8841C30.5079 55.8008 30.4417 55.5093 30.5476 55.2178C30.6535 54.9263 30.8917 54.732 31.077 54.8153Z" fill="#FFE1C7"/>
</g>
<g style="mix-blend-mode:multiply">
<path d="M30.7598 54.8986H30.8657C31.051 54.9819 31.1171 55.2734 30.998 55.5788C30.9588 55.6972 30.8903 55.8026 30.7995 55.8841C30.9583 55.8841 31.1304 55.7176 31.223 55.4677C31.3157 55.2179 31.223 54.8708 31.0774 54.8014C31.021 54.787 30.9619 54.7883 30.9062 54.8054C30.8504 54.8224 30.7999 54.8546 30.7598 54.8986V54.8986Z" fill="#FFE1C7"/>
</g>
<g style="mix-blend-mode:multiply">
<path d="M29.1187 62.2834C29.2643 62.2834 29.2908 62.6305 29.1849 62.922C29.079 63.2135 28.8672 63.4217 28.7216 63.3523C28.576 63.2829 28.5628 63.0191 28.7216 62.7137C28.8805 62.4084 28.9863 62.2279 29.1187 62.2834Z" fill="#FFE1C7"/>
</g>
<g style="mix-blend-mode:multiply">
<path d="M28.8542 62.4636C29.0792 62.4636 29.1056 62.8106 28.9998 63.116C28.952 63.2307 28.8897 63.3381 28.8145 63.4352C28.9046 63.396 28.9849 63.3356 29.0492 63.2585C29.1135 63.1815 29.16 63.09 29.1851 62.9911C29.2909 62.6996 29.2645 62.4081 29.1189 62.3525C28.9733 62.297 28.9468 62.297 28.8542 62.4636Z" fill="#FFE1C7"/>
</g>
<g style="mix-blend-mode:multiply">
<path d="M29.4632 53.4969C29.4632 53.4969 29.4632 53.6357 29.4632 53.7467C29.4632 53.8578 29.3441 53.9272 29.2911 53.9133C29.2382 53.8994 29.2911 53.7745 29.2911 53.6634C29.2911 53.5524 29.4102 53.483 29.4632 53.4969Z" fill="#FFE1C7"/>
</g>
<g style="mix-blend-mode:multiply">
<path d="M29.3704 53.5386C29.4498 53.5386 29.4631 53.6774 29.3704 53.7884C29.3597 53.839 29.3314 53.8835 29.291 53.9134C29.3266 53.9006 29.3586 53.8787 29.3841 53.8496C29.4095 53.8205 29.4276 53.7851 29.4366 53.7468C29.4366 53.6358 29.4366 53.5247 29.4366 53.4969C29.4366 53.4692 29.3969 53.5108 29.3704 53.5386Z" fill="#FFE1C7"/>
</g>
<g style="mix-blend-mode:multiply">
<path d="M28.6419 51.6782C28.6419 51.6782 28.7081 51.8032 28.6419 51.9281C28.5757 52.053 28.5228 52.1085 28.4698 52.0808C28.4169 52.053 28.4698 51.9558 28.4698 51.8448C28.4698 51.7338 28.5889 51.6505 28.6419 51.6782Z" fill="#FFE1C7"/>
</g>
<g style="mix-blend-mode:multiply">
<path d="M28.5359 51.7202C28.6286 51.7202 28.6286 51.859 28.5359 51.97C28.5189 52.0144 28.4967 52.0564 28.4697 52.095C28.5023 52.0794 28.5311 52.0564 28.554 52.0275C28.5769 51.9987 28.5934 51.9648 28.6021 51.9284C28.6021 51.8035 28.6021 51.6924 28.6021 51.6785C28.6021 51.6647 28.5756 51.6785 28.5359 51.7202Z" fill="#FFE1C7"/>
</g>
<g style="mix-blend-mode:multiply">
<path d="M26.538 59.0352C26.538 59.0352 26.6041 59.174 26.538 59.285C26.4718 59.3961 26.4188 59.4655 26.3527 59.4516C26.2865 59.4377 26.3527 59.3128 26.3527 59.2017C26.3527 59.0907 26.4718 59.0074 26.538 59.0352Z" fill="#FFE1C7"/>
</g>
<g style="mix-blend-mode:multiply">
<path d="M26.4715 59.0767C26.5641 59.0767 26.5641 59.2156 26.4715 59.3266C26.4608 59.3738 26.4379 59.4171 26.4053 59.4515C26.4723 59.4176 26.5244 59.358 26.5509 59.285C26.5509 59.1739 26.5509 59.0629 26.5509 59.0351C26.5509 59.0073 26.4715 59.0351 26.4715 59.0767Z" fill="#FFE1C7"/>
</g>
<g style="mix-blend-mode:multiply">
<path d="M21.9053 58.2994C21.9053 58.2994 21.9715 58.4243 21.9053 58.5354C21.8392 58.6464 21.7862 58.7297 21.7333 58.7019C21.6803 58.6742 21.6671 58.577 21.7333 58.4521C21.7995 58.3272 21.8524 58.2161 21.9053 58.2994Z" fill="#FFE1C7"/>
</g>
<g style="mix-blend-mode:multiply">
<path d="M21.7996 58.2997C21.8922 58.2997 21.8922 58.4247 21.7996 58.5357C21.7889 58.5829 21.766 58.6262 21.7334 58.6606C21.7334 58.6606 21.8393 58.6606 21.8658 58.4941C21.8922 58.3275 21.8658 58.272 21.8658 58.2581C21.8658 58.2442 21.8393 58.2997 21.7996 58.2997Z" fill="#FFE1C7"/>
</g>
<g style="mix-blend-mode:multiply">
<path d="M31.1436 61.9782C31.1436 61.9782 31.1436 62.1031 31.1436 62.2142C31.1436 62.3252 31.0245 62.4085 30.9716 62.3807C30.9186 62.353 30.9054 62.2558 30.9716 62.1309C31.0377 62.006 31.0907 61.9504 31.1436 61.9782Z" fill="#FFE1C7"/>
</g>
<g style="mix-blend-mode:multiply">
<path d="M31.0511 62.0197C31.1305 62.0197 31.1437 62.1446 31.0511 62.2556C31.031 62.3013 31.0042 62.3435 30.9717 62.3806C30.9717 62.3806 31.0776 62.3806 31.1173 62.214C31.157 62.0474 31.1173 61.9919 31.1173 61.978C31.1038 61.9785 31.0906 61.9826 31.079 61.9898C31.0675 61.9971 31.0578 62.0074 31.0511 62.0197V62.0197Z" fill="#FFE1C7"/>
</g>
<g style="mix-blend-mode:multiply">
<path d="M32.3479 51.3594C32.3479 51.3594 32.3479 51.4982 32.3479 51.6092C32.3479 51.7203 32.2288 51.7897 32.1759 51.7758C32.1229 51.7619 32.1759 51.637 32.1759 51.5259C32.1759 51.4149 32.295 51.3594 32.3479 51.3594Z" fill="#FFE1C7"/>
</g>
<g style="mix-blend-mode:multiply">
<path d="M32.2422 51.3592C32.3348 51.3592 32.3348 51.498 32.2422 51.6091C32.2517 51.6501 32.2517 51.693 32.2422 51.734C32.3092 51.7001 32.3613 51.6405 32.3878 51.5674C32.3878 51.4564 32.3878 51.3454 32.3878 51.3176C32.3878 51.2898 32.2819 51.3592 32.2422 51.3592Z" fill="#FFE1C7"/>
</g>
<g style="mix-blend-mode:multiply">
<path d="M24.6583 60.3957C24.6583 60.3957 24.7245 60.5206 24.6583 60.6317C24.5921 60.7427 24.5392 60.826 24.4862 60.7982C24.4333 60.7705 24.42 60.6733 24.4862 60.5484C24.5524 60.4234 24.6053 60.3679 24.6583 60.3957Z" fill="#FFE1C7"/>
</g>
<g style="mix-blend-mode:multiply">
<path d="M24.5657 60.4372C24.6452 60.4372 24.6584 60.5621 24.5657 60.6731L24.4863 60.7981C24.5208 60.7833 24.5518 60.7608 24.577 60.7319C24.6022 60.7031 24.6209 60.6688 24.6319 60.6315C24.6319 60.5204 24.6319 60.4094 24.6319 60.3955C24.6184 60.396 24.6053 60.4 24.5937 60.4073C24.5821 60.4146 24.5725 60.4249 24.5657 60.4372V60.4372Z" fill="#FFE1C7"/>
</g>
<g style="mix-blend-mode:multiply">
<path d="M26.9871 49.2492C27.0798 49.2492 27.1062 49.4713 26.9871 49.6656C26.868 49.86 26.7886 49.9849 26.6959 49.9571C26.6033 49.9294 26.5768 49.7212 26.6959 49.5268C26.8151 49.3325 26.8945 49.2076 26.9871 49.2492Z" fill="#FFE1C7"/>
</g>
<g style="mix-blend-mode:multiply">
<path d="M26.8155 49.3188C26.9611 49.3188 26.9876 49.5548 26.9082 49.7491C26.8845 49.8273 26.8437 49.8986 26.7891 49.9573C26.8685 49.9573 26.9744 49.8185 27.0273 49.6658C27.0802 49.5131 27.0273 49.2772 27.0273 49.2494C27.0273 49.2216 26.8817 49.2494 26.8155 49.3188Z" fill="#FFE1C7"/>
</g>
<g style="mix-blend-mode:multiply">
<path d="M27.2657 46.5977C27.3583 46.5977 27.3716 46.8198 27.2657 47.0281C27.1598 47.2363 27.0539 47.3473 26.9613 47.3057C26.8686 47.264 26.8554 47.0836 26.9613 46.8892C27.0671 46.6949 27.173 46.5561 27.2657 46.5977Z" fill="#FFE1C7"/>
</g>
<g style="mix-blend-mode:multiply">
<path d="M27.0802 46.681C27.239 46.681 27.2522 46.9031 27.1861 47.0975C27.1561 47.1757 27.1111 47.2466 27.0537 47.3057C27.1464 47.3057 27.239 47.1807 27.3052 47.0281C27.3714 46.8754 27.3052 46.6394 27.3052 46.5977C27.264 46.5863 27.2206 46.5881 27.1804 46.603C27.1403 46.6179 27.1054 46.645 27.0802 46.681V46.681Z" fill="#FFE1C7"/>
</g>
<g style="mix-blend-mode:multiply">
<path d="M27.0799 56.1895C27.1725 56.1895 27.199 56.4116 27.0799 56.606C26.9608 56.8003 26.8814 56.9391 26.7887 56.8975C26.6961 56.8558 26.6696 56.6754 26.7887 56.481C26.9078 56.2867 26.9872 56.1479 27.0799 56.1895Z" fill="#FFE1C7"/>
</g>
<g style="mix-blend-mode:multiply">
<path d="M26.9083 56.2592C27.0539 56.2592 27.0804 56.4952 27.001 56.6895C26.9723 56.7653 26.9321 56.8356 26.8818 56.8978C26.9409 56.8728 26.9934 56.8333 27.0349 56.7825C27.0764 56.7318 27.1056 56.6713 27.1201 56.6063C27.1995 56.4119 27.1201 56.2315 27.1201 56.1898C27.1201 56.1482 26.9745 56.2037 26.9083 56.2592Z" fill="#FFE1C7"/>
</g>
<g style="mix-blend-mode:multiply">
<path d="M22.5008 53.2189C22.5934 53.2189 22.6199 53.441 22.5008 53.6354C22.3817 53.8297 22.3023 53.9546 22.2096 53.9269C22.117 53.8991 22.0905 53.6909 22.2096 53.4966C22.3287 53.3022 22.5008 53.1773 22.5008 53.2189Z" fill="#FFE1C7"/>
</g>
<g style="mix-blend-mode:multiply">
<path d="M22.3683 53.2885C22.5139 53.2885 22.5271 53.5245 22.4609 53.7188C22.4323 53.7946 22.392 53.8649 22.3418 53.9271C22.4212 53.9271 22.5271 53.7882 22.58 53.6356C22.633 53.4829 22.58 53.2469 22.58 53.2191C22.58 53.1914 22.4212 53.2191 22.3683 53.2885Z" fill="#FFE1C7"/>
</g>
<g style="mix-blend-mode:multiply">
<path d="M23.9034 64.3654C23.996 64.3654 24.0093 64.5875 23.9034 64.7819C23.7975 64.9762 23.6916 65.1011 23.5989 65.0734C23.5063 65.0456 23.4931 64.8374 23.5989 64.643C23.7048 64.4487 23.824 64.3238 23.9034 64.3654Z" fill="#FFE1C7"/>
</g>
<g style="mix-blend-mode:multiply">
<path d="M23.7321 64.435C23.8777 64.435 23.8909 64.671 23.8247 64.8653C23.7916 64.9418 23.7469 65.0121 23.6924 65.0735C23.785 65.0735 23.8777 64.9486 23.9439 64.782C24.01 64.6155 23.9439 64.3934 23.9439 64.3656C23.9439 64.3379 23.8247 64.3656 23.7321 64.435Z" fill="#FFE1C7"/>
</g>
<g style="mix-blend-mode:multiply">
<path d="M22.3418 62.9916C22.4345 62.9916 22.4477 63.2276 22.3418 63.4219C22.236 63.6163 22.1433 63.7412 22.0374 63.6996C21.9315 63.6579 21.9315 63.4775 22.0374 63.2831C22.1433 63.0888 22.2492 62.9639 22.3418 62.9916Z" fill="#FFE1C7"/>
</g>
<g style="mix-blend-mode:multiply">
<path d="M22.17 63.0747C22.3156 63.0747 22.3289 63.2968 22.2627 63.4912C22.237 63.5725 22.1965 63.6479 22.1436 63.7132C22.2001 63.6842 22.2503 63.6433 22.2913 63.5932C22.3323 63.5431 22.3631 63.4848 22.3818 63.4217C22.448 63.2274 22.3818 63.0331 22.3818 62.9914C22.3429 62.9761 22.3 62.9762 22.261 62.9915C22.2221 63.0068 22.1898 63.0364 22.17 63.0747V63.0747Z" fill="#FFE1C7"/>
</g>
</svg>
