<svg width="70" height="55" viewBox="0 0 110 55" fill="none" xmlns="http://www.w3.org/2000/svg">
<g clip-path="url(#clip0)">
<path d="M59.9434 47.434C62.2148 54.6654 73.3016 55.641 80.0258 54.702C89.3485 53.3974 95.8839 46.2926 100.824 38.5804C105.316 31.5712 109.583 21.9668 109.995 13.4702C110.147 10.3072 107.329 4.89775 104.268 3.62973C101.45 2.44887 95.0553 3.79561 92.6542 5.77777L59.9434 47.434Z" fill="#E0857C"/>
<path d="M107.396 8.67943C107.453 8.94653 107.498 9.24174 107.532 9.5229C107.706 11.0187 107.436 12.6409 106.931 14.2801C106.864 14.5106 106.788 14.744 106.706 14.9774C105.776 17.699 104.291 20.4318 103.24 22.6923C103.138 22.9144 103.037 23.1337 102.941 23.3474C102.735 23.8141 102.527 24.278 102.312 24.7532C101.138 27.3567 99.8963 29.9293 98.5868 32.471C98.3463 32.9414 98.1039 33.41 97.8597 33.8767C97.1457 35.2469 96.4139 36.604 95.6643 37.9479C95.2162 38.7576 94.7681 39.5702 94.3172 40.3743C93.8663 41.1784 93.3534 42.0444 92.8489 42.8457C90.414 46.7172 87.4943 49.914 82.7203 50.5269C76.6443 51.3085 71.4841 51.3057 65.3461 50.6647C63.7933 50.5044 62.5645 50.3469 61.6373 49.9871C59.9718 49.3404 59.2841 48.0443 59.4645 44.8756C59.5355 43.6615 59.6823 42.453 59.9041 41.2571C59.9549 40.9591 60.0169 40.6611 60.0789 40.363C60.7684 37.2966 61.7968 34.3159 63.1451 31.4757C63.3254 31.0736 63.5171 30.6716 63.7087 30.2723C65.0361 27.5395 66.5495 24.8966 68.06 22.338L68.4123 21.7448L68.7928 21.0869C69.6692 19.6108 70.5795 18.087 71.563 16.5884C71.8251 16.1891 72.09 15.7927 72.3634 15.4019C73.113 14.3166 73.905 13.2595 74.7532 12.2586C75.1844 11.7469 75.6325 11.2492 76.1003 10.7712C76.3859 10.477 76.6771 10.1892 76.974 9.90808C79.3864 7.65883 81.2661 6.74788 84.4591 6.21649C85.8682 5.98594 87.8748 5.40957 90.1462 4.83601L90.5662 4.72917C96.6647 3.23622 104.358 1.85574 106.81 6.93344C107.079 7.48815 107.276 8.0749 107.396 8.67943V8.67943Z" fill="#F8AD9C"/>
<path d="M107.396 8.67958C107.452 8.94668 107.497 9.2419 107.531 9.52306C107.706 11.0188 107.435 12.6411 106.931 14.2802C106.986 14.3332 107.025 14.4005 107.044 14.4746C107.062 14.5486 107.06 14.6264 107.036 14.6991C107.013 14.7718 106.969 14.8364 106.911 14.8856C106.852 14.9348 106.781 14.9667 106.705 14.9775V14.9775C105.775 17.6991 104.29 20.432 103.239 22.6925C103.138 22.9146 103.036 23.1339 102.94 23.3476C102.735 23.8143 102.526 24.2782 102.312 24.7534C101.138 27.3569 99.8957 29.9295 98.5861 32.4711C98.3456 32.9416 98.1033 33.4102 97.859 33.8769C97.1451 35.2471 96.4133 36.6041 95.6637 37.9481C95.2156 38.7578 94.7675 39.5703 94.3166 40.3745C93.8656 41.1786 93.3527 42.0445 92.8483 42.8458C90.4133 46.7174 87.4937 49.9141 82.7197 50.5271C76.6436 51.3087 71.4835 51.3059 65.3455 50.6648C63.7926 50.5046 62.5639 50.3471 61.6367 49.9872C61.7861 49.8723 61.9466 49.7725 62.1158 49.6892C63.4967 49.0144 66.5573 49.3884 68.189 48.961C69.0412 48.7553 69.8599 48.4306 70.6211 47.9966C71.0684 47.7415 71.4813 47.4307 71.8499 47.0716C73.197 45.7586 73.7775 43.9789 74.6681 41.71C74.8484 41.2545 75.0429 40.7765 75.2599 40.2817C75.3501 40.0764 75.4374 39.874 75.5248 39.6688C76.4407 37.5601 77.3059 35.4514 78.1993 33.3652C78.5572 32.5217 78.9207 31.6783 79.2927 30.8348C79.8366 29.6005 80.3975 28.369 80.9836 27.1348C81.3838 26.2913 81.7897 25.4478 82.1927 24.6212C82.6661 23.639 83.1358 22.6522 83.6018 21.6606C84.5571 19.6335 85.4843 17.5923 86.3382 15.5342L86.3918 15.4049C86.823 14.3843 87.3049 13.4087 87.7699 12.4246C88.2067 11.5052 88.6153 10.5774 88.9761 9.61303C89.4805 8.20724 89.7398 6.4978 90.1372 4.88396L90.5571 4.77712C96.6641 3.23638 104.358 1.85589 106.81 6.9336C107.079 7.48831 107.276 8.07505 107.396 8.67958V8.67958Z" fill="#EF9889"/>
<path d="M107.396 8.67934C106.403 8.98029 105.392 9.2188 104.369 9.39348C102.346 9.72244 100.308 9.98673 98.2962 10.3691C94.2746 11.1338 90.3235 12.3372 87.1755 15.101C87.0724 15.1981 86.9505 15.2731 86.8172 15.3215C86.6839 15.3698 86.5421 15.3905 86.4005 15.3821C86.3057 15.3671 86.2153 15.3316 86.1356 15.2781C83.8811 13.6727 80.9755 13.0457 78.301 12.638C77.126 12.4514 75.9415 12.3303 74.7529 12.2753C75.1841 11.7636 75.6322 11.266 76.1 10.788C76.9455 10.8358 77.7909 10.9174 78.6364 11.0326C81.2602 11.3925 84.1206 11.9717 86.44 13.4056C86.874 13.0485 87.3193 12.7111 87.7702 12.4019C90.5884 10.4563 93.818 9.33444 97.2196 8.61749C99.3079 8.17607 101.416 7.84431 103.513 7.45912C104.612 7.25669 105.716 7.10768 106.807 6.92773C107.078 7.48409 107.276 8.07276 107.396 8.67934Z" fill="#FAC3B9"/>
<path d="M106.706 14.983C102.236 15.6577 97.902 16.1441 93.6747 17.8592C89.5495 19.5534 85.6873 21.8255 82.2047 24.607V24.607C82.1071 24.671 81.9958 24.7113 81.8798 24.7247C81.7638 24.7381 81.6462 24.7241 81.5366 24.6839C81.4269 24.6437 81.3283 24.5784 81.2485 24.4933C81.1688 24.4081 81.1102 24.3055 81.0774 24.1937C80.3447 21.5845 77.9774 19.4899 75.7228 18.1938C74.4392 17.4218 73.0276 16.8848 71.5547 16.6081C71.8168 16.2088 72.0817 15.8124 72.3551 15.4216C73.7605 15.7074 75.1089 16.2233 76.3456 16.9483C78.6594 18.2669 81.0069 20.2097 82.1145 22.7457C82.6048 22.369 83.098 21.9978 83.6025 21.6408C86.6933 19.4026 90.0559 17.5642 93.6099 16.1694C97.6681 14.5978 102.389 13.1498 106.757 14.2013C106.818 14.2124 106.876 14.2396 106.923 14.2801C106.98 14.3322 107.02 14.3993 107.041 14.4735C107.061 14.5478 107.059 14.6262 107.037 14.6997C107.014 14.7732 106.971 14.8388 106.912 14.8889C106.854 14.9391 106.782 14.9717 106.706 14.983V14.983Z" fill="#FAC3B9"/>
<path d="M103.237 22.6979C103.135 22.9201 103.034 23.1394 102.938 23.353C102.732 23.8198 102.524 24.2837 102.31 24.7588L102.067 24.7898C99.0962 25.2039 96.171 25.8977 93.3309 26.8619C88.1173 28.6051 83.1854 31.0146 78.2141 33.3651L77.9323 33.4972C77.5941 33.6575 77.1573 33.4241 76.9628 33.1373C75.4015 30.8318 74.1446 28.338 72.4706 26.1084C71.6449 24.9838 70.7064 23.7382 69.52 22.9847C69.0916 22.7036 68.5984 22.3943 68.0742 22.3493L68.4265 21.7561L68.7929 21.0869C68.9842 21.1389 69.1724 21.2018 69.3565 21.2753C70.7656 21.8376 71.8562 23.0072 72.8313 24.1515C74.7843 26.4345 76.1878 29.0915 77.9041 31.5403C78.3625 31.3023 78.8256 31.0577 79.2935 30.8065C86.5982 26.9659 94.9091 22.667 103.237 22.6979Z" fill="#FAC3B9"/>
<path d="M98.5833 32.4679C98.3428 32.9384 98.1005 33.407 97.8562 33.8737C97.2165 33.9918 96.5796 34.1239 95.9455 34.2251C93.5136 34.6183 91.1211 35.2242 88.7957 36.0358C84.3739 37.5737 79.9719 39.733 76.5196 42.9804C76.4148 43.0921 76.2825 43.1744 76.1359 43.2191C75.9893 43.2638 75.8335 43.2694 75.684 43.2353C75.5346 43.2011 75.3967 43.1284 75.2842 43.0245C75.1717 42.9206 75.0885 42.789 75.0429 42.643C74.9358 42.3281 74.809 42.016 74.6709 41.7067C73.5549 39.2579 71.4835 37.1126 69.5417 35.4257C68.3492 34.3406 67.0347 33.3972 65.6244 32.6141C64.8212 32.1896 63.9561 31.8775 63.1416 31.4895C63.322 31.0874 63.5136 30.6854 63.7052 30.2861C64.6155 30.3733 65.5399 30.8063 66.3233 31.2252C67.8654 32.0531 69.309 33.0519 70.6267 34.2027C72.4135 35.7518 74.2425 37.5765 75.522 39.6824C75.7671 40.0804 75.9901 40.4915 76.1899 40.9139C79.6732 37.8999 83.9089 35.749 88.2208 34.2673C90.693 33.393 93.2527 32.7878 95.8553 32.4623C96.7628 32.3792 97.6761 32.3811 98.5833 32.4679V32.4679Z" fill="#FAC3B9"/>
<path d="M94.3139 40.366C93.8348 41.2095 93.3501 42.0361 92.8456 42.8374C91.371 43.4184 89.8657 43.9187 88.3365 44.336C82.841 45.7418 77.2694 46.9873 72.0078 49.1634C71.8435 49.2146 71.6668 49.2098 71.5056 49.1498C71.3443 49.0897 71.2077 48.9778 71.1173 48.8317C70.9707 48.5505 70.8073 48.2694 70.6297 47.9882C69.4094 46.1129 67.4987 44.5103 65.7261 43.3097C64.1704 42.2554 61.8905 40.7793 59.9121 41.2489C59.9628 40.9508 60.0248 40.6528 60.0868 40.3548C61.9271 39.68 64.5283 41.1111 66.0051 42.008C68.1131 43.2957 70.4127 44.9376 71.8613 47.0688C71.9402 47.1813 72.0191 47.2994 72.0896 47.4174C77.4441 45.1935 83.0805 44.0154 88.6465 42.4353C90.5741 41.8927 92.4172 41.0492 94.3139 40.366Z" fill="#FAC3B9"/>
<path d="M30.5947 46.2731C32.8493 53.5044 43.9502 54.48 50.6772 53.5382C59.997 52.2364 66.5324 45.1288 71.4727 37.4166C75.9649 30.4074 80.2317 20.803 80.6431 12.3093C80.7953 9.14624 77.9771 3.73677 74.9194 2.46875C72.1012 1.28508 65.7039 2.63182 63.3028 4.61679L30.5947 46.2731Z" fill="#E0857C"/>
<path d="M78.0477 7.51812C78.1041 7.79928 78.1492 8.08044 78.183 8.36159C78.3549 9.86016 78.0843 11.4824 77.5827 13.1216C77.5122 13.3521 77.4362 13.5855 77.3544 13.8189C76.4244 16.5405 74.942 19.2705 73.888 21.5338C73.7866 21.7531 73.6879 21.9752 73.5921 22.1889C73.3836 22.6556 73.175 23.1195 72.9609 23.5947C71.7866 26.1982 70.5447 28.7699 69.2352 31.3097C68.9947 31.782 68.7523 32.2506 68.5081 32.7154C67.7951 34.0847 67.0624 35.437 66.3127 36.7866C65.8646 37.5935 65.4165 38.4061 64.9656 39.2102C64.5147 40.0143 64.0046 40.8831 63.4973 41.6844C61.0624 45.5559 58.1428 48.7527 53.3687 49.3656C47.2955 50.1472 42.1354 50.1416 35.9945 49.5033C34.4417 49.3403 33.213 49.1856 32.2886 48.8229C30.6202 48.1791 29.9326 46.8801 30.1129 43.7143C30.1833 42.5 30.3311 41.2914 30.5554 40.0958C30.6061 39.795 30.6653 39.4998 30.7301 39.2017C31.4165 36.1348 32.444 33.1538 33.7935 30.3144C33.9767 29.9123 34.1655 29.5074 34.3572 29.1082C35.6845 26.3782 37.2007 23.7325 38.7113 21.1767C38.8268 20.9771 38.9424 20.7775 39.0607 20.5807L39.4553 19.9368C40.3317 18.4608 41.2448 16.9369 42.2256 15.4383C42.4877 15.0419 42.7526 14.6426 43.0259 14.2518C43.7756 13.1666 44.5675 12.1094 45.4158 11.1085C45.8498 10.5968 46.2988 10.101 46.7629 9.62118C47.0466 9.32877 47.3378 9.04199 47.6365 8.76084C50.0489 6.51158 51.9286 5.60063 55.1245 5.06924C56.5336 4.83588 58.5373 4.26232 60.8116 3.68876L61.2315 3.58192C67.3216 2.06367 75.0238 0.683186 77.4812 5.7637C77.7435 6.32232 77.9338 6.91181 78.0477 7.51812V7.51812Z" fill="#F8AD9C"/>
<path d="M78.0482 7.51834C78.1046 7.7995 78.1496 8.08066 78.1835 8.36181C78.3554 9.86038 78.0848 11.4827 77.5832 13.1218C77.6384 13.1749 77.6775 13.2425 77.696 13.3168C77.7145 13.391 77.7117 13.469 77.6879 13.5417C77.6641 13.6145 77.6202 13.6791 77.5613 13.7281C77.5024 13.7772 77.4309 13.8087 77.3549 13.8191V13.8191C76.4249 16.5407 74.9425 19.2707 73.8885 21.534C73.7871 21.7533 73.6884 21.9755 73.5926 22.1891C73.3841 22.6559 73.1755 23.1198 72.9613 23.5949C71.7871 26.1984 70.5452 28.7701 69.2357 31.3099C68.9952 31.7822 68.7528 32.2508 68.5086 32.7157C67.7956 34.0849 67.0628 35.4373 66.3132 36.7868C65.8651 37.5937 65.417 38.4063 64.9661 39.2104C64.5152 40.0145 64.0051 40.8833 63.4978 41.6846C61.0629 45.5561 58.1432 48.7529 53.3692 49.3658C47.296 50.1474 42.1359 50.1418 35.995 49.5036C34.4422 49.3405 33.2134 49.1859 32.2891 48.8232C32.4364 48.7075 32.5961 48.6085 32.7653 48.528C34.1463 47.8532 37.2068 48.2271 38.8386 47.7998C39.6914 47.5935 40.511 47.2689 41.2735 46.8354C41.7201 46.5795 42.1321 46.2677 42.4994 45.9076C43.8465 44.5946 44.4271 42.8148 45.3176 40.5459C45.498 40.0904 45.6924 39.6125 45.9094 39.1204C45.9996 38.9152 46.087 38.7128 46.1743 38.5075C47.0903 36.3988 47.9583 34.2901 48.8488 32.2011C49.2095 31.3539 49.574 30.5105 49.9423 29.6707C50.4862 28.4364 51.047 27.205 51.6332 25.9679C52.0334 25.1244 52.4392 24.2809 52.8422 23.4572C53.3157 22.4759 53.7863 21.4891 54.2513 20.4966C55.2067 18.4694 56.1339 16.4282 56.9906 14.3673C57.0075 14.3252 57.0244 14.2802 57.0441 14.238C57.4922 13.2146 57.9657 12.2305 58.4307 11.2465C58.8791 10.3302 59.2808 9.39176 59.6341 8.43491C60.1385 7.02913 60.3978 5.31969 60.798 3.70585L61.2179 3.59901C67.308 2.08076 75.0102 0.700275 77.4676 5.78079C77.7334 6.3334 77.9285 6.91717 78.0482 7.51834V7.51834Z" fill="#EF9889"/>
<path d="M78.0474 7.51821C77.053 7.81661 76.0413 8.05416 75.0178 8.22954C72.9972 8.56131 70.9596 8.82559 68.9446 9.20797C64.923 9.9699 60.9719 11.1761 57.824 13.937C57.722 14.0349 57.6006 14.1105 57.4676 14.1589C57.3347 14.2073 57.193 14.2275 57.0518 14.2182C56.9554 14.2058 56.8635 14.1701 56.7841 14.1142C54.5295 12.5088 51.624 11.8818 48.9523 11.4741C47.7761 11.2889 46.5907 11.1678 45.4014 11.1114C45.8354 10.5997 46.2844 10.1039 46.7485 9.62408C47.5939 9.67469 48.4394 9.75623 49.2848 9.8715C51.9114 10.2314 54.7691 10.8106 57.0913 12.2445C57.5225 11.8874 57.9677 11.55 58.4215 11.2407C61.2397 9.29232 64.4665 8.17331 67.8681 7.45355C69.9564 7.01213 72.0644 6.68317 74.1611 6.29518C75.263 6.09556 76.3649 5.94373 77.4584 5.7666C77.7282 6.32327 77.9261 6.91184 78.0474 7.51821V7.51821Z" fill="#FAC3B9"/>
<path d="M77.3545 13.822C72.8877 14.494 68.5505 14.9804 64.326 16.6983C60.1993 18.3913 56.336 20.6635 52.8531 23.446C52.8531 23.446 52.8531 23.446 52.8531 23.446C52.7553 23.51 52.6439 23.5503 52.5277 23.5634C52.4115 23.5766 52.2938 23.5624 52.1842 23.5219C52.0745 23.4814 51.9759 23.4158 51.8963 23.3304C51.8167 23.2449 51.7583 23.142 51.7258 23.0299C50.9903 20.4236 48.6258 18.329 46.3712 17.03C45.087 16.2592 43.6757 15.7223 42.2031 15.4443C42.4652 15.0479 42.7301 14.6486 43.0035 14.2578C44.4082 14.5461 45.7562 15.0619 46.9941 15.7845C49.3078 17.1031 51.6554 19.0459 52.7629 21.582C53.2533 21.2052 53.7465 20.8369 54.2509 20.4798C57.3429 18.2412 60.7064 16.4019 64.2612 15.0057C68.3166 13.434 73.0371 11.9889 77.4081 13.0376C77.4689 13.052 77.5258 13.0798 77.5744 13.1191C77.6311 13.1715 77.6718 13.2388 77.6917 13.3132C77.7116 13.3877 77.71 13.4663 77.687 13.5398C77.664 13.6134 77.6205 13.679 77.5617 13.7289C77.5028 13.7789 77.431 13.8111 77.3545 13.822V13.822Z" fill="#FAC3B9"/>
<path d="M73.8851 21.5368C73.7837 21.7561 73.685 21.9782 73.5892 22.1919C73.3807 22.6586 73.1721 23.1225 72.9579 23.5977L72.7099 23.6174C69.7387 24.0325 66.8135 24.7272 63.9735 25.6923C58.7627 27.4327 53.828 29.845 48.8567 32.1927L48.5749 32.3276C48.2339 32.4879 47.797 32.2545 47.6026 31.9649C46.0413 29.6622 44.7844 27.1656 43.1132 24.936C42.2846 23.8114 41.3462 22.5658 40.1597 21.8123C39.7313 21.5312 39.2382 21.2191 38.7168 21.1769C38.8323 20.9773 38.9479 20.7777 39.0663 20.5809L39.4552 19.937C39.6474 19.9861 39.8358 20.049 40.0188 20.1254C41.4279 20.6877 42.5214 21.8545 43.4965 23.0016C45.4467 25.2846 46.8529 27.9387 48.5692 30.3904L49.9558 29.6566C57.2465 25.802 65.5573 21.5059 73.8851 21.5368Z" fill="#FAC3B9"/>
<path d="M69.2327 31.304C68.9922 31.7763 68.7499 32.2449 68.5056 32.7098C67.8687 32.8279 67.2318 32.96 66.5949 33.0612C64.1644 33.4526 61.7729 34.0557 59.4479 34.8634C55.0233 36.4014 50.6241 38.5607 47.1718 41.8108C47.0668 41.9224 46.9342 42.0046 46.7874 42.0493C46.6406 42.0939 46.4847 42.0995 46.3351 42.0653C46.1855 42.0312 46.0474 41.9586 45.9347 41.8548C45.8219 41.751 45.7383 41.6195 45.6923 41.4735C45.5852 41.1557 45.4612 40.8465 45.3203 40.5344C44.2127 38.0939 42.1329 35.9543 40.1911 34.2561C38.9987 33.171 37.6842 32.2275 36.2739 31.4446C35.4707 31.0172 34.6055 30.7079 33.791 30.3199C33.9742 29.9179 34.163 29.513 34.3547 29.1138C35.2678 29.2037 36.1893 29.6367 36.9728 30.0528C38.5147 30.8821 39.9583 31.8818 41.2762 33.0331C43.0657 34.5823 44.8947 36.407 46.1714 38.5129C46.4171 38.9105 46.6401 39.3216 46.8393 39.7443C50.3226 36.7303 54.5612 34.5795 58.873 33.0978C61.3451 32.217 63.906 31.607 66.5103 31.2787C67.4166 31.2025 68.328 31.211 69.2327 31.304V31.304Z" fill="#FAC3B9"/>
<path d="M64.9634 39.2016C64.4843 40.0451 64.0024 40.8745 63.4951 41.6758C62.0196 42.2544 60.5145 42.7546 58.986 43.1744C53.4905 44.5802 47.9189 45.8229 42.6574 47.9991C42.4934 48.0505 42.3169 48.0461 42.1557 47.9866C41.9944 47.927 41.8576 47.8157 41.7668 47.6701C41.6205 47.3805 41.4587 47.0989 41.2821 46.8266C40.0618 44.9513 38.1482 43.3487 36.3756 42.1454C34.8199 41.091 32.54 39.6149 30.5645 40.0873C30.6152 39.7864 30.6744 39.4912 30.7392 39.1932C32.5795 38.5156 35.1779 39.9495 36.6574 40.8464C38.7682 42.1313 41.0651 43.7761 42.5136 45.9072C42.5925 46.0225 42.6714 46.1378 42.7447 46.2559C48.0993 44.0347 53.7357 42.8539 59.3017 41.2738C61.2237 40.7143 63.0696 39.8905 64.9634 39.2016Z" fill="#FAC3B9"/>
<path d="M0.493164 42.6292C2.67727 49.5934 13.3554 50.5353 19.8373 49.6272C28.8133 48.3732 35.1091 41.5298 39.8691 34.1017C44.195 27.3539 48.3039 18.0982 48.6985 9.92213C48.8479 6.87439 46.1339 1.66454 43.1861 0.433075C40.4609 -0.691555 34.3116 0.590523 31.9978 2.50239L0.493164 42.6292Z" fill="#E0857C"/>
<path d="M46.1994 5.29994C46.2529 5.55861 46.298 5.83133 46.329 6.11811C46.4953 7.56045 46.236 9.12368 45.7654 10.701C45.6977 10.9231 45.6245 11.148 45.5484 11.3729C44.6494 13.9933 43.2234 16.625 42.2088 18.8039C42.1102 19.0148 42.0144 19.2285 41.927 19.4337C41.7269 19.8836 41.5268 20.3306 41.3211 20.7805C40.1938 23.2884 38.9979 25.7654 37.7335 28.2115C37.5024 28.6669 37.2685 29.1177 37.0318 29.5638C36.3441 30.8759 35.6396 32.1823 34.9181 33.4832C34.4841 34.262 34.0529 35.0464 33.6189 35.8196C33.1849 36.5928 32.6917 37.4306 32.2098 38.201C29.8679 41.9319 27.0638 45.0106 22.456 45.601C16.6055 46.3545 11.6342 46.3489 5.72157 45.7332C4.2251 45.5757 3.04146 45.4267 2.15091 45.0781C0.544535 44.4595 -0.103651 43.2084 0.0569865 40.1578C0.123689 38.988 0.264884 37.8235 0.479717 36.6715C0.530444 36.3903 0.586808 36.1092 0.648809 35.8111C1.30264 32.8584 2.2828 29.9871 3.57128 27.2499C3.74601 26.8619 3.93201 26.4739 4.12083 26.0915C5.40029 23.4599 6.8573 20.9126 8.31431 18.4497C8.42704 18.2557 8.53695 18.0645 8.64968 17.8874L9.01886 17.2632C9.86432 15.8405 10.738 14.3729 11.6849 12.9334C11.9357 12.5482 12.1893 12.1686 12.4542 11.7919C13.1757 10.746 13.9394 9.72817 14.7567 8.7638C15.1738 8.26897 15.6059 7.791 16.0531 7.3299C16.3349 7.04874 16.6167 6.76759 16.8986 6.50049C19.2207 4.32152 21.0329 3.45555 24.1103 2.94666C25.4546 2.72735 27.3935 2.17347 29.5917 1.61959L29.9975 1.51838C35.8566 0.0563591 43.2741 -1.27352 45.6555 3.61862C45.9057 4.15448 46.0884 4.71923 46.1994 5.29994Z" fill="#F8AD9C"/>
<path d="M46.1989 5.29966C46.2524 5.55832 46.2975 5.83104 46.3285 6.11783C46.4948 7.56016 46.2355 9.1234 45.7649 10.7007C45.8177 10.7518 45.8552 10.8167 45.873 10.888C45.8908 10.9592 45.8883 11.0341 45.8657 11.104C45.8432 11.1739 45.8014 11.2361 45.7452 11.2836C45.6891 11.3311 45.6207 11.3619 45.5479 11.3727C44.6489 13.993 43.2228 16.6247 42.2083 18.8036C42.1097 19.0145 42.0138 19.2282 41.9265 19.4334C41.7264 19.8833 41.5263 20.3303 41.3206 20.7802C40.1933 23.2881 38.9974 25.7651 37.733 28.2112C37.5019 28.6666 37.268 29.1174 37.0313 29.5635C36.3436 30.8756 35.6391 32.182 34.9176 33.4829C34.4836 34.2617 34.0524 35.0461 33.6184 35.8193C33.1844 36.5925 32.6912 37.4303 32.2093 38.2007C29.8674 41.9316 27.0633 45.0103 22.4555 45.6008C16.6049 46.3543 11.6336 46.3486 5.72105 45.7329C4.22459 45.5755 3.04094 45.4264 2.15039 45.0778C2.29298 44.9679 2.44699 44.8737 2.60976 44.7966C3.93995 44.1472 6.88779 44.5155 8.46034 44.0938C9.28086 43.896 10.0693 43.5836 10.8023 43.1659C11.2336 42.9197 11.6314 42.6192 11.9859 42.2719C13.2456 41.0066 13.8093 39.2775 14.6773 37.1126C14.8492 36.674 15.038 36.2129 15.2409 35.7378C15.3283 35.5381 15.4128 35.3441 15.4946 35.1473C16.3795 33.1174 17.2137 31.0958 18.0732 29.0743C18.4246 28.2477 18.7768 27.4314 19.13 26.6254C19.6542 25.4361 20.1953 24.2497 20.7646 23.0604C21.1507 22.2534 21.5424 21.4493 21.9285 20.6396C22.3879 19.6949 22.8388 18.7418 23.2869 17.7887C24.2084 15.8206 25.1018 13.8693 25.9247 11.8844L25.9755 11.7607C26.3897 10.7794 26.8547 9.83754 27.3028 8.89285C27.735 8.01025 28.1225 7.10661 28.4639 6.1853C28.9487 4.8245 29.1995 3.18254 29.5912 1.62774L29.997 1.52653C35.8561 0.0560723 43.2736 -1.2738 45.655 3.61834C45.9052 4.1542 46.0879 4.71895 46.1989 5.29966Z" fill="#EF9889"/>
<path d="M46.1995 5.29997C45.2425 5.58982 44.2683 5.81988 43.2827 5.98881C41.3353 6.30652 39.371 6.55112 37.4321 6.92787C33.5599 7.66451 29.7553 8.83693 26.7229 11.4854C26.6245 11.5811 26.5074 11.6554 26.3789 11.7038C26.2504 11.7522 26.1133 11.7735 25.9761 11.7666C25.8837 11.7538 25.7958 11.7191 25.7196 11.6654C23.5384 10.119 20.7483 9.51733 18.1753 9.13496C17.0431 8.95595 15.9019 8.83956 14.7568 8.78633C15.1739 8.29149 15.6061 7.81352 16.0532 7.35242C16.8705 7.40022 17.6906 7.47894 18.505 7.58859C21.0414 7.93723 23.7864 8.49392 26.024 9.87722C26.4383 9.53139 26.8695 9.20806 27.3035 8.91003C30.023 7.03471 33.1287 5.95507 36.4063 5.25499C38.4156 4.82763 40.4476 4.50992 42.4654 4.13036C43.525 3.93636 44.5875 3.79016 45.6415 3.61865C45.8966 4.15387 46.084 4.71863 46.1995 5.29997Z" fill="#FAC3B9"/>
<path d="M45.534 11.3729C41.2278 12.0223 37.0512 12.4975 32.9817 14.1423C29.0065 15.7728 25.2846 17.9607 21.9287 20.6398C21.9287 20.6398 21.9287 20.6398 21.9287 20.6398C21.8352 20.6992 21.7292 20.7363 21.6189 20.748C21.5087 20.7597 21.3972 20.7459 21.2932 20.7075C21.1892 20.6691 21.0956 20.6072 21.0195 20.5267C20.9435 20.4462 20.8872 20.3492 20.855 20.2434C20.1476 17.7326 17.8564 15.7167 15.6977 14.4656C14.4612 13.7223 13.1025 13.2035 11.6846 12.9333C11.9354 12.5481 12.189 12.1685 12.4539 11.7918C13.8074 12.0683 15.1061 12.5651 16.298 13.2622C18.5243 14.5303 20.7874 16.4028 21.8555 18.846C22.3261 18.4833 22.8024 18.1263 23.2871 17.7832C26.2654 15.6279 29.5048 13.8567 32.9282 12.5115C36.8342 10.9989 41.3828 9.60438 45.5903 10.6165C45.6495 10.6295 45.7046 10.6565 45.751 10.6953C45.8055 10.7462 45.8444 10.8114 45.8633 10.8835C45.8821 10.9556 45.88 11.0316 45.8573 11.1025C45.8346 11.1735 45.7921 11.2366 45.7349 11.2844C45.6776 11.3323 45.608 11.3629 45.534 11.3729Z" fill="#FAC3B9"/>
<path d="M42.1916 18.8039C42.093 19.0148 41.9971 19.2285 41.9098 19.4337C41.7097 19.8836 41.5096 20.3306 41.3039 20.7805L41.07 20.8086C38.2041 21.2077 35.3827 21.877 32.6435 22.8076C27.6187 24.4833 22.8559 26.8057 18.0791 29.069L17.7973 29.1983C17.4703 29.3529 17.0504 29.128 16.8616 28.8497C15.3567 26.6285 14.1364 24.2274 12.5357 22.0682C11.7381 20.9913 10.8448 19.788 9.69211 19.0626C9.28338 18.7527 8.80752 18.5428 8.30273 18.4497C8.41546 18.2557 8.52537 18.0645 8.6381 17.8874L9.01856 17.2632C9.20425 17.3122 9.38682 17.3723 9.56529 17.4431C10.9124 18.0054 11.9749 19.1104 12.9133 20.2153C14.7931 22.414 16.1458 24.9697 17.7973 27.3314C18.2369 27.1046 18.6812 26.8694 19.1303 26.6257C26.1645 22.9144 34.1682 18.773 42.1916 18.8039Z" fill="#FAC3B9"/>
<path d="M37.7111 28.2112C37.48 28.6667 37.2461 29.1175 37.0093 29.5636C36.395 29.6761 35.7806 29.8026 35.1691 29.901C32.8274 30.28 30.5236 30.8633 28.2842 31.6442C24.0231 33.1259 19.7845 35.2064 16.4478 38.3329C16.3465 38.4369 16.22 38.513 16.0806 38.5541C15.9412 38.5951 15.7936 38.5995 15.652 38.567C15.5103 38.5345 15.3795 38.4662 15.272 38.3685C15.1646 38.2709 15.0842 38.1472 15.0387 38.0096C14.9344 37.7059 14.8132 37.4051 14.6807 37.1071C13.6126 34.7538 11.6089 32.6929 9.74044 31.0594C8.59186 30.0126 7.32556 29.1021 5.96687 28.3462C5.19187 27.9357 4.3605 27.6377 3.57422 27.2497C3.74895 26.8617 3.93495 26.4737 4.12377 26.0913C5.00023 26.1757 5.89078 26.5918 6.66015 26.9938C8.14523 27.7931 9.53578 28.756 10.8057 29.8644C12.5107 31.3546 14.2721 33.1174 15.5008 35.1446C15.7379 35.5278 15.9534 35.9239 16.1462 36.3311C19.5027 33.4267 23.5834 31.3546 27.7346 29.9291C30.1155 29.0863 32.5807 28.5027 35.0873 28.1887C35.9608 28.1159 36.839 28.1234 37.7111 28.2112Z" fill="#FAC3B9"/>
<path d="M33.5965 35.8194C33.1343 36.632 32.6693 37.4305 32.1874 38.2008C30.7621 38.7595 29.3077 39.241 27.8304 39.6432C22.5379 41.0068 17.1692 42.1989 12.1021 44.2935C11.9457 44.3405 11.7782 44.3348 11.6255 44.2774C11.4727 44.2199 11.3431 44.114 11.2566 43.9758C11.1139 43.6971 10.9568 43.4258 10.786 43.1633C9.61077 41.3554 7.77048 39.8119 6.06266 38.6648C4.56337 37.647 2.36799 36.2328 0.462891 36.6798C0.513618 36.3986 0.569982 36.1175 0.631983 35.8194C2.39336 35.1587 4.89592 36.5505 6.31629 37.3939C8.34822 38.6338 10.5633 40.2055 11.9527 42.2608C12.0288 42.3704 12.1049 42.4829 12.1725 42.5982C17.3298 40.4557 22.7661 39.3227 28.1207 37.7988C29.9948 37.2758 31.7731 36.483 33.5965 35.8194Z" fill="#FAC3B9"/>
</g>
<defs>
<clipPath id="clip0">
<rect width="110" height="55" fill="white"/>
</clipPath>
</defs>
</svg>
