<svg xmlns="http://www.w3.org/2000/svg" viewBox="0 0 95.38 80"><defs><style>.cls-1{fill:#260c00;}.cls-2{fill:#4f2a0a;}.cls-3{fill:#6e3915;}.cls-4{fill:#ca7b35;}.cls-5{fill:#542f1f;}.cls-6{fill:#7a4a26;}.cls-7{fill:#361a03;}.cls-8{fill:#5a2f0f;}.cls-9{fill:#3d1700;}</style></defs><g id="Layer_2" data-name="Layer 2"><g id="Bread"><path class="cls-1" d="M89.67,24.76C88.16,38.2,86.46,54.5,86.46,54.5,66.49,61,51.68,69.58,38.93,76.16,40.61,74.46,40.56,65.66,40,53c-.56-14,1-17,1-17h0C41.75,35.65,65.25,26.62,89.67,24.76Z"/><path class="cls-2" d="M45.73,19.83c-3-6.91-8.74-7.16-15.14-7.32h0s30-4.05,49-8.21h0c6,.29,11.63-.83,14.43,5.32,4,8.71-4.35,15.15-4.35,15.15C65.25,26.62,41.75,35.65,41,35.92,41.45,35.65,50.16,30,45.73,19.83Z"/><path class="cls-3" d="M72.06,2.6a18.14,18.14,0,0,0,7.52,1.69c-19,4.16-49,8.21-49,8.21h0a42.4,42.4,0,0,1-10-1.07C9.32,8.38,4,12.35,1.83,17.1,6.9,5.12,23.76,6.72,35.32,4.29,47.06,1.82,62.83-2,72.06,2.6Z"/><path class="cls-4" d="M45.73,19.83C50.16,30,41.45,35.65,41,35.92h0s-1.52,3-1,17c.52,12.68.57,21.48-1.11,23.18-.2.1-.4.2-.59.31-2.27.19-23.48-8.47-29.55-10.2S5.77,64.73,6,56.2,5,31.77,5,31.77.09,27.6.66,21.54a13.81,13.81,0,0,1,.91-3.84,6.39,6.39,0,0,1,.26-.6C4,12.35,9.32,8.38,20.54,11.44a42.4,42.4,0,0,0,10.05,1.07C37,12.67,42.72,12.92,45.73,19.83Z"/><path class="cls-5" d="M30.57,12.33a74.65,74.65,0,0,1,12-4c2-.58,4-.94,6-1.42s4.06-.75,6.09-1.13,4.08-.6,6.13-.86,4.1-.49,6.17-.6a86.41,86.41,0,0,1,12.59-.19l.07.33c-4,1-8.1,1.77-12.17,2.52S59.31,8.46,55.22,9.15c-8.19,1.27-16.38,2.53-24.6,3.52Z"/><path class="cls-6" d="M89.54,24.58a15.43,15.43,0,0,0,2-2.95,14.14,14.14,0,0,0,1.34-3.15,9.45,9.45,0,0,0-.16-6.12A9.86,9.86,0,0,0,92.13,11L92,10.66l-.2-.34c-.14-.23-.25-.35-.4-.56a4.9,4.9,0,0,0-1.88-1.54,12.51,12.51,0,0,0-5.65-.6,40.83,40.83,0,0,1-7.8,0,19.36,19.36,0,0,1-4.35-1A22.68,22.68,0,0,0,68.5,5.34c-3.76-1.09-8.35-1-12.89-.54s-9.27,1.26-14,2.12L38,7.54c-1.2.21-2.4.43-3.75.62-2.56.38-5,.51-7.49.63s-4.82.29-7.16.45a43.65,43.65,0,0,0-6.85,1,19.15,19.15,0,0,0-6.22,2.49,13.55,13.55,0,0,0-2.62,2.18,14.62,14.62,0,0,0-2.14,2.86l-.42-.16a14.62,14.62,0,0,1,4.17-6.05A19.91,19.91,0,0,1,12,8c4.66-1.63,9.57-2.16,14.39-2.75,2.42-.29,4.84-.57,7.22-1s4.76-1,7.14-1.51A135,135,0,0,1,55.17.28c4.86-.43,9.89-.53,14.66,1A32.56,32.56,0,0,1,73.22,2.7a16,16,0,0,0,3.43.94A51,51,0,0,0,83.89,4c2.41.07,5,.21,7.22,1.59a9.9,9.9,0,0,1,4,6.18,11.35,11.35,0,0,1-.77,7.31,16.47,16.47,0,0,1-4.5,5.83Z"/><path class="cls-7" d="M89.34,24.72c-.59,1.19-1.14,2.38-1.61,3.58s-1,2.4-1.37,3.62c-.86,2.41-1.67,4.83-2.33,7.27s-1.3,4.88-1.84,7.33q-.37,1.69-.72,3.39a95.52,95.52,0,0,0-9.74,3.47A100.63,100.63,0,0,0,48.34,67a90,90,0,0,0-10.15,9.17l.31.61q5.94-3,11.82-6c3.92-2,7.86-4,11.85-5.85s8-3.63,12.11-5.26,8.19-3.2,12.37-4.59L87,55l0-.39,1.5-14.88c.54-5,1-9.92,1.45-14.88Z"/><path class="cls-8" d="M40.94,35.77a51.67,51.67,0,0,1,11.24-6.13c2-.86,4-1.48,6-2.19s4.07-1.16,6.12-1.69,4.15-.88,6.25-1.2,4.2-.59,6.34-.67a48,48,0,0,1,12.8.7l0,.34c-4.15.38-8.28.94-12.39,1.63s-8.19,1.54-12.25,2.51S57,31.07,53,32.24s-8,2.45-11.9,3.85Z"/><path class="cls-6" d="M30.56,12.27l12.27-1.91q6.14-1,12.26-2t12.25-2c4.07-.73,8.15-1.46,12.21-2.26l.09.44A49.46,49.46,0,0,1,68,9.91a83.25,83.25,0,0,1-12.17,2.94A84.59,84.59,0,0,1,43.37,14a53.19,53.19,0,0,1-12.75-1.23Z"/><path class="cls-9" d="M20.57,11.36c3.76,1,7.66.91,11.54,1a29.63,29.63,0,0,1,5.85.49,11.41,11.41,0,0,1,5.41,2.59,13.13,13.13,0,0,1,3.35,5,13.81,13.81,0,0,1,1,6,12.16,12.16,0,0,1-1.95,5.84,15.6,15.6,0,0,1-4.32,4.4l.32-.36c0,.09-.14.41-.19.64s-.12.52-.17.79c-.1.53-.17,1.08-.24,1.63-.13,1.11-.21,2.23-.26,3.35-.11,2.25-.1,4.51-.08,6.78.08,4.52.3,9.12.31,13.69,0,2.29,0,4.59-.17,6.89a31.94,31.94,0,0,1-.39,3.48,10.69,10.69,0,0,1-.45,1.77,4.45,4.45,0,0,1-.44.91,1.89,1.89,0,0,1-1,.8,2.44,2.44,0,0,1-1.15,0l-.87-.23c-.57-.16-1.11-.34-1.66-.52-1.09-.37-2.17-.76-3.24-1.16l-6.4-2.45c-4.25-1.67-8.51-3.3-12.79-4.86-1.07-.39-2.16-.74-3.24-1.07a29.31,29.31,0,0,1-3.3-1.06,3.17,3.17,0,0,1-.8-.51,1.64,1.64,0,0,1-.5-.91,5.6,5.6,0,0,1,.14-1.81,32.43,32.43,0,0,0,.5-3.36,56.9,56.9,0,0,0,.06-6.79q-.12-3.41-.33-6.82c-.26-4.55-.53-9.1-.84-13.64l.27.52a15,15,0,0,1-3-3.91A12.48,12.48,0,0,1,0,23.72a13,13,0,0,1,.59-4.86,12.85,12.85,0,0,1,2.24-4.29,11,11,0,0,1,3.76-3,13.75,13.75,0,0,1,4.6-1.25A26.32,26.32,0,0,1,20.57,11.36Zm-.05.16a24,24,0,0,0-9.25-.87A11.12,11.12,0,0,0,3.5,15a12.51,12.51,0,0,0-2.19,8.54,12.71,12.71,0,0,0,4.21,7.61l.25.22,0,.3c.3,4.57.54,9.13.65,13.7,0,2.29.07,4.57,0,6.86a56.87,56.87,0,0,1-.34,6.89c-.15,1.14-.39,2.28-.62,3.39a5.24,5.24,0,0,0-.15,1.58c0,.45.44.74.93,1a26.12,26.12,0,0,0,3.2,1.08c1.09.35,2.17.74,3.25,1.11l12.89,4.61c2.16.76,4.31,1.52,6.47,2.23,1.08.35,2.16.7,3.25,1q.81.24,1.62.45l.8.17a1.67,1.67,0,0,0,.54,0c.12,0,.42-.45.56-.92a9.47,9.47,0,0,0,.35-1.55A30.48,30.48,0,0,0,39.53,70c.09-2.25.07-4.52,0-6.79-.07-4.55-.36-9.07-.5-13.67q-.11-3.45.08-6.91c.06-1.15.15-2.31.29-3.47.07-.58.15-1.16.27-1.75,0-.29.12-.59.19-.89a6.32,6.32,0,0,1,.33-1l.08-.19.24-.16a12.57,12.57,0,0,0,5.62-8.88,12.38,12.38,0,0,0-.73-5.4,12.32,12.32,0,0,0-2.8-4.73,10.36,10.36,0,0,0-4.84-2.64,30,30,0,0,0-5.7-.77C28.24,12.56,24.29,12.61,20.52,11.52Z"/></g></g></svg>