<svg width="80" height="60" viewBox="0 0 80 70" fill="none" xmlns="http://www.w3.org/2000/svg">
<g clip-path="url(#clip0)">
<path d="M67.3844 11.3018C66.8978 23.7355 55.7726 36.9708 45.8984 41.1068C38.2282 44.3209 31.0244 45.3607 23.7152 40.2643C20.379 37.9389 19.4732 35.342 17.4889 31.8462C15.1504 27.7256 13.2065 24.1632 14.1459 19.1616C14.6661 16.3931 15.6481 13.7835 17.1638 11.6758C18.3701 9.98034 19.9307 8.65921 21.7018 7.83424C26.4954 5.59336 32.0154 4.53567 37.0713 3.48053C43.1384 2.20003 49.3625 0.407323 55.5237 0.0487823C58.5864 -0.143293 61.3801 0.363786 63.4854 1.79283C66.0279 3.50102 67.5705 6.5435 67.3844 11.3018Z" fill="#A57349"/>
<path d="M67.3844 11.3015C66.8978 23.7352 55.7726 36.9705 45.8984 41.1065C38.2282 44.3206 31.0244 45.3603 23.7152 40.2639C20.379 37.9385 19.4732 35.3417 17.4889 31.8459C15.1504 27.7252 13.2065 24.1629 14.1459 19.1612C14.6661 16.3928 15.6481 13.7831 17.1638 11.6754C17.0203 13.9009 16.6705 16.1059 16.8925 18.4313C17.1145 20.7567 17.4508 23.2409 18.5965 25.2308C25.3228 36.9244 38.0735 35.6848 47.9118 30.6499C55.5573 26.7392 61.2388 21.2408 63.6804 11.8803C64.7006 7.96963 64.7163 4.60959 63.4854 1.79248C66.0279 3.50067 67.5705 6.54315 67.3844 11.3015Z" fill="#916037"/>
<path d="M53.3331 10.546C50.8219 10.8661 41.45 11.9699 40.7527 7.83386C40.2415 4.77601 48.3175 2.81684 50.1695 2.36098C52.3017 1.83342 54.8779 1.26231 57.0482 1.84878C63.1018 3.5288 56.5011 10.1413 53.3331 10.546Z" fill="#BA855D"/>
<path d="M29.3962 30.7321C29.4971 30.7321 29.4904 30.7321 29.3805 30.7321C29.441 30.7475 29.4993 30.7628 29.5576 30.7833L29.9612 30.9011C30.2661 31.001 30.58 31.1291 30.8917 31.1931C31.1158 31.2563 31.3518 31.2356 31.5649 31.1342C31.778 31.0328 31.957 30.8559 32.0755 30.6297C32.3401 30.0995 32.2055 29.2621 31.6831 28.9906C30.8886 28.5772 29.9956 28.4807 29.1473 28.7166C28.1406 29.0214 28.3985 30.7193 29.4029 30.7398L29.3962 30.7321Z" fill="#916037"/>
<path d="M26.3622 26.5292C26.1815 26.3281 26.0136 26.1124 25.86 25.8839C25.9698 26.0375 25.8129 25.8096 25.8039 25.7942C25.7591 25.7174 25.7209 25.6354 25.6828 25.5535C25.6131 25.3975 25.5154 25.2601 25.396 25.1502C25.2766 25.0403 25.1383 24.9604 24.99 24.9158C24.84 24.87 24.6809 24.8824 24.5377 24.951C24.3944 25.0196 24.2752 25.1405 24.1986 25.2948C24.1025 25.4865 24.0542 25.7045 24.0589 25.9253C24.0637 26.1461 24.1213 26.3611 24.2255 26.5472C24.3455 26.7727 24.4852 26.9838 24.6425 27.1772C24.9272 27.5222 25.3013 27.7538 25.7097 27.8379C26.3442 27.9967 26.898 27.0696 26.3622 26.5292V26.5292Z" fill="#916037"/>
<path d="M27.8025 25.3155C27.7977 25.4376 27.8173 25.5593 27.8596 25.6715C27.9019 25.7837 27.9659 25.8836 28.0468 25.9635C28.1213 26.0402 28.2051 26.104 28.2957 26.153C28.4571 26.2401 28.6029 26.3604 28.7957 26.2862C28.8577 26.2682 28.916 26.2365 28.9673 26.1928C29.0185 26.1491 29.0617 26.0943 29.0944 26.0315C29.1271 25.9687 29.1487 25.8991 29.1578 25.8268C29.1669 25.7545 29.1635 25.6809 29.1477 25.6101C29.0998 25.4581 29.0111 25.3273 28.8943 25.2362C28.8194 25.1634 28.7374 25.1007 28.65 25.0492C28.5491 24.9929 28.7262 25.1286 28.6724 25.0748C28.7262 25.1593 28.7419 25.1798 28.715 25.1337C28.7778 25.2515 28.7486 25.2362 28.7396 25.1721C28.7169 25.0827 28.6741 25.0015 28.6155 24.9367C28.5569 24.8719 28.4845 24.8258 28.4054 24.8027C28.3264 24.7797 28.2435 24.7807 28.1648 24.8055C28.0862 24.8303 28.0146 24.8781 27.9572 24.9442C27.8736 25.0478 27.8258 25.1824 27.8226 25.3232L27.8025 25.3155Z" fill="#916037"/>
<path d="M53.2387 17.4917C52.3059 17.1127 51.2791 17.6044 50.4966 18.2165C49.6782 18.8567 50.4248 20.3319 51.2925 19.7531C52.0279 19.2409 52.8149 18.7876 53.3642 18.0321C53.3973 17.9922 53.4208 17.9433 53.4325 17.8901C53.4442 17.8368 53.4437 17.781 53.4311 17.728C53.4185 17.6751 53.3942 17.6267 53.3605 17.5875C53.3268 17.5484 53.2848 17.5198 53.2387 17.5045V17.4917Z" fill="#916037"/>
<path d="M50.7944 22.1401C50.8146 22.1401 50.8841 22.1401 50.7944 22.1401H50.8415L50.7137 22.0582C50.6868 21.9813 50.6576 21.9019 50.6285 21.8251C50.6419 21.989 50.7428 21.8763 50.9311 21.4819C50.8714 21.4844 50.8131 21.5028 50.7607 21.5357C50.8325 21.505 50.8527 21.4947 50.8213 21.505C50.7742 21.5203 50.9267 21.4896 50.8751 21.505C50.8235 21.5203 50.7271 21.505 50.6509 21.5357C50.5365 21.5639 50.4267 21.5997 50.3056 21.6254C50.2111 21.654 50.1291 21.7212 50.0751 21.8143C50.0212 21.9074 49.999 22.0199 50.0128 22.1305C50.0266 22.241 50.0755 22.3419 50.1501 22.414C50.2248 22.4861 50.32 22.5245 50.4177 22.5217C50.6747 22.5239 50.9239 22.4202 51.1195 22.2298C51.1771 22.1745 51.2206 22.1025 51.2454 22.0214C51.2703 21.9403 51.2756 21.853 51.2607 21.7688C51.2458 21.7077 51.2173 21.652 51.1781 21.6071C51.1388 21.5622 51.09 21.5297 51.0365 21.5127C50.9816 21.4948 50.9233 21.4948 50.8684 21.5127L50.7921 21.5485C50.772 21.5639 50.7921 21.5485 50.8504 21.5203H51.0029C50.9374 21.5115 50.8711 21.5115 50.8056 21.5203C50.7319 21.5203 50.6611 21.5538 50.609 21.6134C50.5569 21.6729 50.5276 21.7537 50.5276 21.8379C50.5276 21.9221 50.5569 22.0029 50.609 22.0625C50.6611 22.122 50.7319 22.1555 50.8056 22.1555L50.7944 22.1401Z" fill="#916037"/>
<path d="M46.2748 19.8836C46.5251 19.9708 46.7846 20.019 47.0461 20.027C47.3914 20.027 47.7972 19.8196 47.7927 19.3535C47.7883 18.8874 47.3802 18.6953 47.0372 18.6953C46.7758 18.7095 46.5173 18.7629 46.2681 18.8541C46.1719 18.8874 46.0876 18.9552 46.0278 19.0474C45.9679 19.1397 45.9355 19.2515 45.9355 19.3663C45.9355 19.4811 45.9679 19.5929 46.0278 19.6851C46.0876 19.7774 46.1719 19.8452 46.2681 19.8785L46.2748 19.8836Z" fill="#916037"/>
<path d="M19.5513 12.3056C19.6888 12.2288 19.6776 12.2288 19.5177 12.3056C19.4206 12.3848 19.3433 12.4917 19.2935 12.6155C19.1867 12.817 19.1109 13.0379 19.0693 13.2686C18.9841 13.8192 19.0177 14.4185 19.4258 14.8052C19.7352 15.092 20.363 15.0613 20.4347 14.4902C20.4723 14.1158 20.451 13.7368 20.3719 13.371C20.3204 13.0714 20.3719 12.7385 20.2352 12.4721C20.2553 12.5617 20.2778 12.6514 20.3002 12.7282C20.3002 12.6975 20.3002 12.6693 20.3002 12.6386C20.2985 12.5418 20.2719 12.4478 20.2238 12.3681C20.1758 12.2884 20.1083 12.2266 20.0297 12.1903C19.9512 12.1541 19.865 12.1449 19.782 12.1641C19.6989 12.1832 19.6226 12.2298 19.5625 12.298L19.5513 12.3056Z" fill="#916037"/>
<path d="M21.872 14.0013C21.8248 14.1473 21.7902 14.2983 21.7688 14.452L21.8406 14.1396C21.5738 14.7568 21.8182 15.584 22.2083 16.0629C22.3147 16.1823 22.4528 16.2579 22.601 16.2779C22.7491 16.2978 22.8988 16.2609 23.0266 16.173C23.1517 16.0836 23.2485 15.9509 23.3029 15.7943C23.3573 15.6377 23.3666 15.4653 23.3293 15.3023C23.2605 15.0087 23.1483 14.7306 22.9975 14.4802C22.893 14.2523 22.7584 14.0441 22.5984 13.863L22.7172 14.0909L22.6836 13.9936C22.6574 13.894 22.6037 13.8066 22.5306 13.7445C22.4575 13.6825 22.3689 13.6489 22.2778 13.6489C22.1867 13.6489 22.098 13.6825 22.0249 13.7445C21.9518 13.8066 21.8982 13.894 21.872 13.9936V14.0013Z" fill="#916037"/>
<path d="M21.1691 17.6838C21.2631 17.8224 21.3855 17.9324 21.5254 18.0043C21.6654 18.0762 21.8187 18.1077 21.9718 18.0962C22.0627 18.0946 22.1508 18.06 22.2234 17.9973C22.296 17.9347 22.3492 17.8473 22.3754 17.7479C22.4028 17.6277 22.3875 17.5 22.3329 17.3925C22.2784 17.2851 22.1889 17.2066 22.0839 17.1742L21.9718 17.1588C21.9239 17.1416 21.874 17.1321 21.8238 17.1307C21.7745 17.1307 21.7745 17.1307 21.8238 17.1307C21.7398 17.1266 21.66 17.0874 21.5996 17.0205C21.5287 16.9737 21.4462 16.9552 21.3651 16.9677C21.2839 16.9802 21.2087 17.0231 21.1512 17.0897C21.0836 17.1698 21.0459 17.2768 21.0459 17.388C21.0459 17.4993 21.0836 17.6062 21.1512 17.6864L21.1691 17.6838Z" fill="#916037"/>
<path d="M36.5457 46.4824L38.7116 50.2881C38.7116 50.2881 38.8663 57.2258 32.5436 62.8882C32.5436 62.8882 24.2905 72.3768 16.9185 69.4342C16.9185 69.4342 14.4724 67.7337 13.2168 64.9729L36.5457 46.4824Z" fill="#916037"/>
<path d="M14.8151 57.5101C12.3062 61.9227 11.6582 66.6145 17.2051 68.4021C24.6937 70.8197 35.1844 59.6383 37.1418 51.5686C38.0117 47.9832 36.5566 45.0892 33.3616 44.303C29.5321 43.3606 25.7049 46.8051 22.5727 48.8309C20.4024 50.2317 16.9428 53.7813 14.8151 57.5101Z" fill="#EFE086"/>
<path d="M23.5887 43.4985L25.7546 47.3042C25.7546 47.3042 25.9093 54.242 19.5866 59.9069C19.5866 59.9069 11.3334 69.3954 3.96146 66.4503C3.96146 66.4503 1.51534 64.7498 0.259766 61.989L23.5887 43.4985Z" fill="#916037"/>
<path d="M1.86325 54.5261C-0.647892 58.9387 -1.29361 63.6305 4.26004 65.4206C11.7464 67.8357 22.2371 56.6569 24.1945 48.5846C25.0644 44.9992 23.6093 42.1078 20.4143 41.3216C16.5915 40.3791 12.7508 43.8237 9.61863 45.8417C7.45502 47.2477 3.98875 50.7871 1.86325 54.5261Z" fill="#EFE086"/>
<path d="M79.7085 45.5195C79.1121 43.2837 77.6413 41.1657 75.6615 39.3013C71.8343 35.6903 67.3165 32.8604 63.0812 29.8691C57.31 38.9402 50.225 46.6719 43.1826 54.6853C45.1351 56.1912 47.2259 57.4484 49.4179 58.4346C57.5522 62.2531 70.9621 61.2517 77.4104 53.9042C79.8767 51.0871 80.4282 48.2162 79.7085 45.5195Z" fill="#A57349"/>
<path d="M79.7085 45.519C79.0717 48.0544 77.3991 50.116 74.8364 51.8703C68.7021 56.0704 62.478 55.7989 55.828 53.2815C53.1145 52.2728 50.5352 50.8432 48.1623 49.0327C46.5121 50.9151 44.8462 52.7923 43.1826 54.6849C45.1351 56.1908 47.2259 57.448 49.4179 58.4342C57.5522 62.2527 70.9621 61.2513 77.4104 53.9038C79.8767 51.0867 80.4282 48.2158 79.7085 45.519Z" fill="#916037"/>
<path d="M75.6971 41.4091C74.6545 39.642 72.7824 38.3359 71.2129 37.2808C69.8475 36.3691 63.8948 32.3688 62.693 34.5866C61.0787 37.5881 67.4014 42.9534 69.1143 44.3748C71.2667 46.1675 78.6096 46.3544 75.6971 41.4091Z" fill="#BA855D"/>
<path d="M65.6215 48.6002C65.2336 47.7628 64.357 47.4043 63.5722 47.2762C62.7494 47.1456 62.4803 48.5362 63.3099 48.7309C64.0094 48.8973 64.7269 49.1176 65.4399 49.0074C65.4798 49.0036 65.5182 48.9882 65.5515 48.9626C65.5847 48.9371 65.6117 48.9023 65.6299 48.8616C65.6481 48.8208 65.6568 48.7754 65.6554 48.7297C65.6539 48.6839 65.6422 48.6394 65.6215 48.6002Z" fill="#916037"/>
<path d="M61.8396 49.9399L61.8262 49.9194L61.8396 49.9399Z" fill="#916037"/>
<path d="M62.2426 49.6295L62.209 49.5859L62.2426 49.6295Z" fill="#916037"/>
<path d="M61.8219 49.8938L61.8353 49.9143L61.8174 49.8887L61.8219 49.8938Z" fill="#916037"/>
<path d="M61.8441 49.658L61.8643 49.5991C61.8464 49.6273 61.8396 49.6452 61.8441 49.658Z" fill="#916037"/>
<path d="M62.1597 49.5376H62.1731L62.1193 49.4838C62.0937 49.4614 62.0649 49.444 62.0342 49.4326C62.0718 49.4587 62.1077 49.4878 62.1417 49.5197L62.1597 49.5376Z" fill="#916037"/>
<path d="M62.1887 49.558L62.2111 49.5785C62.2013 49.5681 62.1908 49.5587 62.1797 49.5503L62.1887 49.558Z" fill="#916037"/>
<path d="M61.7981 49.5171C61.7585 49.5701 61.7382 49.6385 61.7416 49.7081C61.7449 49.7777 61.7716 49.8432 61.816 49.891V49.891L61.834 49.9166L61.8003 49.7988C61.816 49.7527 61.8295 49.7066 61.8429 49.6605C61.8564 49.6144 61.8429 49.6298 61.8631 49.6016L61.8429 49.6605C61.8586 49.7015 61.9797 49.6784 62.2016 49.5913L62.1635 49.5529L62.1389 49.5324H62.1254C62.0918 49.5324 62.0806 49.5171 62.0985 49.5324H62.112H62.0873L62.1344 49.5504C62.1004 49.5185 62.0644 49.4894 62.0268 49.4633C61.988 49.4474 61.9462 49.444 61.9058 49.4535C61.8655 49.463 61.8282 49.485 61.7981 49.5171V49.5171Z" fill="#916037"/>
<path d="M62.2089 49.5864L62.1865 49.5659L62.2089 49.5864Z" fill="#916037"/>
<path d="M62.2106 49.5787L62.2443 49.6222L62.2039 49.5813C61.9797 49.6683 61.8609 49.6914 61.8452 49.6504C61.8317 49.6965 61.8183 49.7426 61.8026 49.7887L61.8362 49.9065L61.8183 49.8732C61.7738 49.8254 61.7472 49.76 61.7438 49.6904C61.7405 49.6207 61.7607 49.5523 61.8003 49.4993C61.8299 49.4612 61.8687 49.4341 61.9119 49.4213C61.955 49.4085 62.0005 49.4107 62.0425 49.4276H62.0268C61.9416 49.3713 61.8542 49.3175 61.769 49.2586C61.6963 49.2156 61.6124 49.2046 61.5331 49.2276C61.4538 49.2506 61.3846 49.306 61.3388 49.3834C61.2929 49.4607 61.2734 49.5546 61.2841 49.6473C61.2948 49.7399 61.3349 49.8249 61.3968 49.886C61.555 50.0456 61.7575 50.1363 61.9685 50.1421C62.0312 50.1457 62.0935 50.1297 62.1488 50.0959C62.2041 50.062 62.2503 50.0116 62.2824 49.95C62.3036 49.9018 62.3134 49.8482 62.3111 49.7944C62.3087 49.7405 62.2942 49.6883 62.2689 49.6427C62.2523 49.6183 62.2326 49.5968 62.2106 49.5787V49.5787Z" fill="#916037"/>
<path d="M62.1379 49.5296L62.0908 49.5117H62.1155H62.1379V49.5296Z" fill="#916037"/>
<path d="M62.1773 49.5582L62.1504 49.5352L62.1661 49.5531C62.1795 49.5608 62.193 49.571 62.1773 49.5582Z" fill="#916037"/>
<path d="M62.166 49.5425L62.1929 49.5655C62.2086 49.5783 62.1929 49.5655 62.1795 49.5655L62.2176 49.6039L62.1974 49.5758L62.166 49.5425Z" fill="#916037"/>
<path d="M62.1484 49.5322L62.1731 49.5527L62.1574 49.5348L62.1484 49.5322Z" fill="#916037"/>
<path d="M61.2086 45.3426C61.0406 45.1827 60.8552 45.0484 60.657 44.943C60.5805 44.9026 60.4946 44.8912 60.412 44.9106C60.3294 44.9299 60.2544 44.979 60.198 45.0506C60.1416 45.1222 60.1067 45.2125 60.0985 45.3084C60.0904 45.4043 60.1093 45.5006 60.1525 45.5833C60.2654 45.7977 60.4018 45.9948 60.5584 46.1698C60.7691 46.3951 61.1234 46.5232 61.3521 46.2364C61.5808 45.9495 61.4171 45.5577 61.2086 45.3426Z" fill="#916037"/>
<path d="M41.1402 43.1633C38.4295 47.9319 37.7299 53.0027 43.7253 54.9439C51.817 57.5561 63.1553 45.4682 65.2718 36.7607C66.2135 32.8783 64.6373 29.7615 61.1867 28.9113C57.0478 27.8869 52.9089 31.6157 49.5278 33.8028C47.1848 35.2959 43.4406 39.1194 41.1402 43.1633Z" fill="#EFE086"/>
</g>
<defs>
<clipPath id="clip0">
<rect width="80" height="70" fill="white"/>
</clipPath>
</defs>
</svg>
