<svg height="512" viewBox="0 0 512 512" width="512" xmlns="http://www.w3.org/2000/svg"><g id="Flat"><g fill="#fdc5ca"><path d="m121.12012 172.64014a215.22982 215.22982 0 0 1 -25.12012 51.35986 358.18581 358.18581 0 0 1 21.87988 81.27c.08008.46.14014.91992.21021 1.37988l1.90991 13.35012-24 32-9.33008-28-31.26-93.76a60.45867 60.45867 0 0 1 2.11008-43.65992 345.74249 345.74249 0 0 0 18.21-51.71 345.40509 345.40509 0 0 0 9.78-53.9502 45.45777 45.45777 0 0 1 45.22-40.91988h13.27l8 40z"/><path d="m176 40v-24h72v24 88h-112l8-88z"/><path d="m472 224a748.35936 748.35936 0 0 1 -144.1499 125.43994l-15.8501 10.56006-32-8-40 8v-40l32-8 32 8 19.6499-17.19995a746.3829 746.3829 0 0 0 72.67017-73.01l-13.36007-8.02005c-.18994-.11011-.37988-.23-.56982-.3501a79.27 79.27 0 0 1 -32.33008-38.27978 79.49437 79.49437 0 0 0 -17.5901-26.67012l-8.47-8.47-6.79 15.83984-5.21 12.16016-16 16-10.59009-12.37012-37.36991-43.62988 15.96-96h48.81006a31.601 31.601 0 0 1 24.67994 11.85986l13.51 16.89014a106.01275 106.01275 0 0 1 14.66992 24.49l4.32008 10.07006a106.06487 106.06487 0 0 0 44.88989 50.33008 106.23236 106.23236 0 0 1 39.48 39.48z"/></g><path d="m408 216-2.28 2.73q-4.63513 5.58-9.3999 11.06006l-13.3601-8.02006c-.18994-.11011-.37988-.23-.56982-.3501q5.60961-6.405 11.03979-12.92993l2.28-2.73z" fill="#fc979e"/><path d="m324 148-6.79 15.83984-5.21 12.16016-16 16-10.59009-12.37012 4.44019-24.57983a51.09309 51.09309 0 0 1 14.1499-27.05005z" fill="#fc979e"/><path d="m320 104v16h-10.59009a47.46916 47.46916 0 0 1 -44.20991-29.83008l-.27-.66992a47.574 47.574 0 0 1 -3.41-20.19995l18.16994-29.30005h16.31006l-8.8999 8.8999-.3101.3101a31.66822 31.66822 0 0 0 -7.02 34.3l.27.66992a31.53884 31.53884 0 0 0 29.36991 19.82008z" fill="#fc979e"/><path d="m312 176-16 40h-176l-10.90991-24.55-7.46021-16.78-.87988-1.98a63.995 63.995 0 0 1 2.14014-56.33008l41.10986-76.35992h32l-15.71 35.3501a26.06692 26.06692 0 0 0 38.28 32.27 88.83414 88.83414 0 0 0 27.8299-29.81004l21.6001-37.81006h48l-16.16992 20.21a72.23285 72.23285 0 0 0 16.33984 105.23z" fill="#e04446"/><path d="m216 191.50977a79.59683 79.59683 0 0 1 -35.57812-8.3545l7.15624-14.31054a63.85719 63.85719 0 0 0 56.84376 0l7.15624 14.31054a79.59683 79.59683 0 0 1 -35.57812 8.3545z" fill="#d6323f"/><path d="m147.58008 183.15991a79.72484 79.72484 0 0 1 -35.58008 8.35009q-1.455 0-2.90991-.06006l-7.46021-16.78a63.77883 63.77883 0 0 0 38.79-5.83008z" fill="#d6323f"/><path d="m304 352h-176l5.7-45.60986 2.3-18.39014-16-72h176l-10.3501 41.3999a80.00916 80.00916 0 0 0 1.72022 44.7002l2 6z" fill="#fdc5ca"/><path d="m312.14 368.29-32.34-8.09-47.8 9.56v-56.01l40-10 17.37 4.35 14.63 43.9z" fill="#fc979e"/><path d="m152.43 316.115h106.295v16h-106.295z" fill="#fc979e" transform="matrix(.196 -.981 .981 .196 -152.568 462.119)"/><path d="m160 296h16v16h-16z" fill="#fc979e"/><path d="m328 496h-248l37.33008-112 4.36992-13.1001 6.3-18.8999h176l8.14014 16.29 7.85986 15.71 1.77 3.55a81.785 81.785 0 0 1 5.49 59.03979l-.31006 1.09009c-4.53002 15.84012 1.05006 48.32012 1.05006 48.32012z" fill="#68737f"/><path d="m320 384h-202.67l4.37-13.1 6.3-18.9h176l8.14 16.29z" fill="#d4e4f0"/><path d="m312.14 368.29-32.34-8.09-47.8 9.56v-17.76h72z" fill="#c1d7e6"/><path d="m215.42993 434.97-4.11987 10.29a157.339 157.339 0 0 0 -11.11006 50.74h-16.01a172.95525 172.95525 0 0 1 12.27-56.67993 11.07758 11.07758 0 0 1 14.399-6.17722z" fill="#4f5761"/><path d="m152.68 325.37-5.32 26.63-5.4 27-20.26-8.1 6.3-18.9 5.7-45.61z" fill="#fc979e"/><path d="m147.36 352-5.4 27-20.26-8.1 6.3-18.9z" fill="#c1d7e6"/><path d="m120 320-24 32-9.33008-28 31.21-18.73c.08008.46.14014.91992.21021 1.37988z" fill="#fc979e"/><path d="m96 352-8-16 32-32 24 24-8 40z" fill="#fdc5ca"/><path d="m304 320 8 40-32-8-40 8v-40l32-8z" fill="#fdc5ca"/></g></svg>