<svg height="512" viewBox="0 0 512 512" width="512" xmlns="http://www.w3.org/2000/svg"><g id="Flat"><path d="m480 168.82007a29.135 29.135 0 0 1 -12.43 23.87993l-29.35 20.55a71.9913 71.9913 0 0 1 -62.22 9.87012 69.73418 69.73418 0 0 1 -6.57-2.36011c-.01-.01-.03-.01-.04-.02a34.07641 34.07641 0 0 1 -9.39 2.86009v15.08984a88.22488 88.22488 0 0 1 -31.74 67.76 88.18442 88.18442 0 0 0 -24.6 33.01l-1.57 3.66018a77.18363 77.18363 0 0 0 1.91 64.87988h-120l-3.33-26.66992q-2.325-18.64527-3.5-37.40015-1.17-18.75-1.17-37.55a44.40266 44.40266 0 0 0 -13-31.37993 44.36 44.36 0 0 1 -12.72-26.47l-3.2-28.84009-11.08-3.68991a102.6959 102.6959 0 0 1 -74.59-13.62012l-29.41-18.37988v-4.12012a163.95295 163.95295 0 0 1 48-115.87988l3.46-13.82007a24.00278 24.00278 0 0 1 23.28-18.17993h13.26a24 24 0 0 1 0 48h-12.8l-19.2 24 6.41 38.49h.01a28.0995 28.0995 0 0 1 13.73-3.59985c.63 0 1.27.01977 1.9.06982a28.00523 28.00523 0 0 1 23.14 15.41992l2.81 5.62011 4.69-4.68994a38.65671 38.65671 0 0 1 11.31-7.84006c.4-.17993.81-.36011 1.22-.53a38.62555 38.62555 0 0 1 42.09 8.37012l12.69 12.68988a54.65212 54.65212 0 0 1 24-14.01v-20.65992l-8 2.66992h-16l-8-24h-16l16-32v-26.66667l88-4.66341v95.33008l24 24 13.09-9.82007.87-.6499a34.31269 34.31269 0 0 1 37.61-2.34009l7.25 4.13013a145.13808 145.13808 0 0 1 21.4-3.26h.01a147.38963 147.38963 0 0 1 23.68.08008 79.99719 79.99719 0 0 0 -31.91-60.14015l-24 8-16-16 8-32 48 16 10.46 8.72a336.01574 336.01574 0 0 1 64.64 71.93994 29.34177 29.34177 0 0 1 3.65 7.72 28.893 28.893 0 0 1 1.25 8.44013z" fill="#fdc5ca"/><path d="m336 496a136.83736 136.83736 0 0 0 -29.98533-85.48162l-2.01467-2.51838h-120v24l-16 64z" fill="#68737f"/><g fill="#fc979e"><path d="m268.437 220.00293-8.874-13.31445-2.95117 1.96777a43.44964 43.44964 0 0 1 -38.08252 5.09961l-5.0586 15.17969a59.99888 59.99888 0 0 0 18.9878 3.10058c.16961 0 .33886-.00781.50842-.00927a49.78041 49.78041 0 0 1 -27.36145 44.22607l-9.18311 4.5918 7.15528 14.31054 9.1831-4.59179a65.85537 65.85537 0 0 0 36.16608-60.88062 60.02946 60.02946 0 0 0 16.55951-7.71313z"/><path d="m176 176v16h-12.69a27.31371 27.31371 0 0 1 -27.31-27.31006v-4.68994l4.69-4.68994a38.65671 38.65671 0 0 1 11.31-7.84006v17.22a11.30116 11.30116 0 0 0 11.31 11.31z"/><path d="m326.83 228.42993-11.32-11.30981a32.50863 32.50863 0 0 0 -2.68-48.37012l-.87-.7.01-.08008.03.03 13.09-9.82007a48.50792 48.50792 0 0 1 1.74 70.25z"/><path d="m283.16278 197.42871a17.77856 17.77856 0 0 1 12.83722-5.42871v-16a33.68722 33.68722 0 0 0 -24.8858 10.86133 78.28225 78.28225 0 0 0 -20.58441-10.45117l-5.05958 15.17968a62.11827 62.11827 0 0 1 42.52979 59.00684v32.32617a61.79216 61.79216 0 0 1 -18.21729 43.98047l-27.43945 27.43945 11.31348 11.31446 27.43945-27.43946a77.68875 77.68875 0 0 0 22.90381-55.29492v-32.32617a78.08148 78.08148 0 0 0 -20.83722-53.16797z"/></g><path d="m176 24v8a24 24 0 0 0 24 24h32a83.40516 83.40516 0 0 0 44.48557 58.24275l11.51443 5.75725v-96z" fill="#ba8b5d"/><path d="m232 80 4.68629-4.68629a11.31372 11.31372 0 0 1 8-3.31371 11.31369 11.31369 0 0 1 11.31371 11.3137v7.02945a13.65684 13.65684 0 0 1 -4 9.65685 13.65684 13.65684 0 0 1 -9.65685 4h-2.34315z" fill="#fdc5ca"/><path d="m110.77 143.29a34.97358 34.97358 0 0 1 -34.49 40.71h-12.28v-16h12.28a18.97138 18.97138 0 0 0 18.71-22.08008l-.57-3.42992a28.0995 28.0995 0 0 1 13.73-3.59985c.63 0 1.27.01977 1.9.06982z" fill="#fc979e"/><path d="m129.14 78.18994a23.80514 23.80514 0 0 1 -9.14 1.81006h-12.8l12.8-16 8.30233 6.64718a5.36816 5.36816 0 0 1 .83767 7.54276z" fill="#fc979e"/><path d="m443.14 144.31006-3.14 15.68994-7.66-1.53a146.20135 146.20135 0 0 0 -16.44-2.31006 79.26171 79.26171 0 0 0 -2.46-16.22 163.05276 163.05276 0 0 1 22.04 2.84006z" fill="#fc979e"/><path d="m264 464h16v32h-16z" fill="#4f5761"/><path d="m248 128v24h-1.37a54.30838 54.30838 0 0 0 -14.63 2v-20.66992z" fill="#fc979e"/><path d="m399.8 212.18994-14.31-7.15994a34.3298 34.3298 0 0 0 -13.66-45.13989l-1.01-.57007a145.13808 145.13808 0 0 1 21.4-3.26h.01a50.34148 50.34148 0 0 1 7.57 56.1299z" fill="#fc979e"/><path d="m376 200v23.12012a69.73418 69.73418 0 0 1 -6.57-2.36011c-.01-.01-.03-.01-.04-.02a34.07641 34.07641 0 0 1 -9.39 2.86009v-23.6001z" fill="#fc979e"/></g></svg>