<svg id="Layer_1" enable-background="new 0 0 511.162 511.162" height="512" viewBox="0 0 511.162 511.162" width="512" xmlns="http://www.w3.org/2000/svg"><g><g><path d="m136.589 451.621-19.889-120.465c-1.531-9.273 1.879-18.674 8.999-24.809l46.739-40.275c11.276-9.718 28.296-8.453 38.014 2.824s8.453 28.296-2.824 38.014l-35.275 30.396 17.424 105.534c2.425 14.687-7.516 28.56-22.203 30.985-14.744 2.434-28.569-7.571-30.985-22.204z" fill="#748488"/></g><g><path d="m279.744 473.824c-14.687-2.425-24.628-16.297-22.203-30.985l17.424-105.534-35.275-30.396c-11.277-9.718-12.541-26.737-2.824-38.014s26.737-12.541 38.014-2.824l46.738 40.275c7.12 6.135 10.53 15.536 8.999 24.809l-19.889 120.465c-2.43 14.727-16.336 24.623-30.984 22.204z" fill="#55696e"/></g><g><path d="m146.273 190.74.036-.118c-.072.038-.091.077-.036.118z" fill="#64afff"/><path d="m329.93 119.755c-7.113-22.965-28.044-38.394-52.084-38.394h-107.962c-24.04 0-44.971 15.429-52.085 38.394l-19.094 61.65 18.697 12.589 29.161-4.188 9.234-29.815v123.737h135.683v-125.199l9.929 29.985 27.036 8.654 20.579-15.763z" fill="#ffda52"/></g><g><path d="m198.535 216.526c-2.937 0-5.737-1.705-6.993-4.567l-22.733-51.781c-1.695-3.86.061-8.363 3.921-10.058 3.859-1.695 8.363.061 10.058 3.921l22.733 51.781c1.695 3.86-.061 8.363-3.921 10.058-.999.438-2.04.646-3.065.646z" fill="#46738c"/></g><g><g><path d="m55.216 511.162c-8.431 0-15.267-6.835-15.267-15.267v-202.68c0-8.431 6.835-15.267 15.267-15.267s15.267 6.835 15.267 15.267v202.679c0 8.432-6.835 15.268-15.267 15.268z" fill="#b48255"/></g><g><path d="m448.931 511.162c-8.431 0-15.267-6.835-15.267-15.267v-202.68c0-8.431 6.835-15.267 15.267-15.267s15.267 6.835 15.267 15.267v202.679c0 8.432-6.835 15.268-15.267 15.268z" fill="#b48255"/></g></g><circle cx="224.656" cy="49.948" fill="#ba6746" r="49.948"/><g><path d="m359.086 164.016v23.108c0 3.564 2.889 6.452 6.452 6.452h71.102l9.685-3.209 9.685 3.209h22.524c3.564 0 6.452-2.889 6.452-6.452v-23.108c0-3.563-2.889-6.452-6.452-6.452h-22.524l-9.685 3.534-9.685-3.534h-71.102c-3.563 0-6.452 2.889-6.452 6.452z" fill="#46738c"/><path d="m436.641 157.564h19.369v36.012h-19.369z" fill="#c8e6eb"/></g><g><path d="m493.165 236.041v23.108c0 3.564-2.889 6.452-6.452 6.452h-71.103l-9.685-3.209-9.685 3.209h-22.524c-3.564 0-6.452-2.889-6.452-6.452v-23.108c0-3.564 2.889-6.452 6.452-6.452h22.524l9.685 3.534 9.685-3.534h71.102c3.564 0 6.453 2.889 6.453 6.452z" fill="#46738c"/><path d="m396.241 229.589h19.369v36.012h-19.369z" fill="#c8e6eb"/></g><g><path d="m504.356 200.029v23.108c0 3.564-2.889 6.452-6.452 6.452h-71.102l-9.685-3.209-9.685 3.209h-22.524c-3.563 0-6.452-2.889-6.452-6.452v-23.108c0-3.563 2.889-6.452 6.452-6.452h22.524l9.685 3.534 9.685-3.534h71.102c3.563-.001 6.452 2.888 6.452 6.452z" fill="#6c9baa"/><path d="m407.432 193.576h19.369v36.012h-19.369z" fill="#c8e6eb"/></g><g><path d="m6.806 276.946v17.736c0 6.266 5.079 11.345 11.345 11.345h467.845c6.266 0 11.345-5.079 11.345-11.345v-17.736c0-6.266-5.079-11.345-11.345-11.345h-467.845c-6.266 0-11.345 5.08-11.345 11.345z" fill="#dcbe82"/></g><path d="m113.948 251.893c0 7.571 6.137 13.708 13.708 13.708h97c0-7.571-6.137-13.708-13.708-13.708z" fill="#46738c"/><path d="m335.364 251.893c0 7.571-6.137 13.708-13.708 13.708h-97c0-7.571 6.137-13.708 13.708-13.708z" fill="#6c9baa"/><g fill="#ba6746"><path d="m361.101 220.394-12.076-38.99-47.616 7.109 4.059 15.179c-11.778 0-47.061 0-56.975 0-13.31 0-24.1 10.79-24.1 24.1s10.79 24.1 24.1 24.1h89.67c16.353.001 27.934-15.996 22.938-31.498z"/><path d="m199.237 203.692c-11.03 0-45.087 0-56.976 0l4.301-13.887-47.857-8.4-12.074 38.984c-4.984 15.452 6.498 31.504 22.937 31.504h89.67c13.31 0 24.1-10.79 24.1-24.1s-10.791-24.101-24.101-24.101z"/></g></g></svg>