<svg id="Flat" height="512" viewBox="0 0 512 512" width="512" xmlns="http://www.w3.org/2000/svg"><g><g><path d="m208 328h-144v-168a40 40 0 0 1 40-40h64a40 40 0 0 1 40 40z" fill="#8d5aed"/><g><path d="m32 460v-128.232a20 20 0 0 1 10.287-17.483l61.713-34.285h64l61.713 34.285a20 20 0 0 1 10.287 17.483v148.232h-188a20 20 0 0 1 -20-20z" fill="#e062c2"/><path d="m136 363.156h16v57.689h-16z" fill="#8d5aed" transform="matrix(.832 -.555 .555 .832 -193.258 145.713)"/><path d="m96 288 40 40 40-40-16-36.037h-48z" fill="#ffd4cf"/><path d="m160 251.963h-48l-7.971 17.953 12 8a36 36 0 0 0 39.938 0l12.758-5.916z" fill="#fbb8b0"/><path d="m88 184h16l16-24 16 24h48v45.3a20 20 0 0 1 -8.906 16.641l-28 18.667a20 20 0 0 1 -22.188 0l-28-18.667a20 20 0 0 1 -8.906-16.641z" fill="#ffd4cf"/><rect fill="#25b1fa" height="152" rx="10" transform="matrix(-1 0 0 -1 720 696)" width="256" x="232" y="272"/><path d="m328 464h64v-32l-16-88h-32l-16 88z" fill="#b3e9ff"/><path d="m344 304h32v16h-32z" fill="#b3e9ff"/><path d="m136 408h64a0 0 0 0 1 0 0v48a0 0 0 0 1 0 0h-24a40 40 0 0 1 -40-40v-8a0 0 0 0 1 0 0z" fill="#ffd4cf" transform="matrix(-1 0 0 -1 336 864)"/><path d="m32 408h104v48h-104z" fill="#f78ac8" transform="matrix(-1 0 0 -1 168 864)"/><path d="m24 456h464v32h-464z" fill="#2471d6" transform="matrix(-1 0 0 -1 512 944)"/></g></g><path d="m96 288-8 56 48-16z" fill="#faf8ff"/><path d="m176 288 8 56-48-16z" fill="#faf8ff"/><path d="m478 24h-228a10 10 0 0 0 -10 10v206l40-40h198a10 10 0 0 0 10-10v-156a10 10 0 0 0 -10-10z" fill="#fef2d5"/><path d="m368 56-80 48v16h24v56h32v-32a24 24 0 0 1 48 0v32h32v-56h24v-16z" fill="#fac850"/></g></svg>