<svg id="Capa_1" enable-background="new 0 0 512 512" height="512" viewBox="0 0 512 512" width="512" xmlns="http://www.w3.org/2000/svg"><g><path d="m406.972 254.307c10.906 0 21.424 1.663 31.314 4.748v-196.025c0-8.467-6.927-15.394-15.394-15.394h-407.498c-8.467 0-15.394 6.927-15.394 15.394v277.079c0 8.467 6.927 15.394 15.394 15.394h286.626c2.018-56.229 48.23-101.196 104.952-101.196z" fill="#ffc20c"/><path d="m63.236 340.109v-277.079c0-8.467 6.927-15.394 15.394-15.394h-63.236c-8.467 0-15.394 6.928-15.394 15.394v277.079c0 8.467 6.927 15.394 15.394 15.394h63.236c-8.467 0-15.394-6.927-15.394-15.394z" fill="#ffa90f"/><path d="m347.958 272.446-80.834-73.522-22.006 19.666c-14.793 13.221-37.158 13.221-51.952 0l-22.006-19.666-166.882 151.788c2.808 2.942 6.753 4.791 11.116 4.791h286.626c1.24-34.54 19.152-64.829 45.938-83.057z" fill="#ffd301"/><path d="m78.63 355.503c-8.467 0-15.394-6.927-15.394-15.394v-43.022l-58.958 53.625c2.801 2.934 6.718 4.764 11.039 4.787.026 0 .052.004.078.004z" fill="#ffc20c"/><path d="m422.891 47.636h-407.497c-4.363 0-8.308 1.849-11.117 4.791l188.889 168.809c14.793 13.221 37.158 13.221 51.951 0l188.89-168.809c-2.807-2.942-6.752-4.791-11.116-4.791z" fill="#fee55a"/><path d="m63.236 63.03c0-8.467 6.927-15.394 15.394-15.394h-63.236c-4.363 0-8.309 1.849-11.116 4.791l58.958 52.691z" fill="#ffd301"/><circle cx="403.139" cy="355.503" fill="#60b8fe" r="108.861"/><path d="m338.919 355.503c0-52.472 37.125-96.268 86.54-106.566-7.205-1.502-14.67-2.295-22.321-2.295-60.122 0-108.861 48.738-108.861 108.861s48.739 108.861 108.861 108.861c7.651 0 15.116-.793 22.321-2.294-49.414-10.299-86.54-54.095-86.54-106.567z" fill="#23a8fe"/><path d="m474.688 345.7-50.091-40.389c-3.048-2.458-7.584-.288-7.584 3.628v19.589c0 2.573-2.086 4.66-4.66 4.66h-18.819c-29.523 0-55.424 19.682-63.333 48.125l-.138.494c-1.412 5.075 4.711 8.814 8.591 5.249 11.106-10.203 21.058-21.589 41.495-21.589h32.204c2.573 0 4.66 2.086 4.66 4.66v19.589c0 3.916 4.537 6.086 7.584 3.628l50.091-40.389c2.313-1.865 2.313-5.39 0-7.255z" fill="#dfebfa"/><g><path d="m415.854 347.61h18.819c2.573 0 4.66-2.086 4.66-4.659v-19.589c0-1.902 1.074-3.386 2.524-4.134l-17.26-13.917c-3.048-2.458-7.584-.288-7.584 3.628v19.589c0 2.573-2.086 4.659-4.66 4.659h-18.819c-29.523 0-55.424 19.682-63.334 48.125l-.138.494c-1.411 5.075 4.712 8.814 8.591 5.249 9.018-8.285 17.276-17.35 31.004-20.465 12.01-11.857 28.446-18.98 46.197-18.98z" fill="#b1dbfc"/></g></g></svg>