<svg id="Capa_1" enable-background="new 0 0 512 512" height="512" viewBox="0 0 512 512" width="512" xmlns="http://www.w3.org/2000/svg"><g><g><g><path d="m378.642 511.997h-245.285c-13.629 0-24.677-11.048-24.677-24.677v-462.643c0-13.629 11.048-24.677 24.677-24.677h245.284c13.629 0 24.677 11.048 24.677 24.677v462.643c.001 13.629-11.048 24.677-24.676 24.677z" fill="#fd9468"/><path d="m403.319 24.679v462.643c0 13.633-11.046 24.679-24.679 24.679h-22.33c13.633 0 24.679-11.046 24.679-24.679v-462.643c0-13.633-11.046-24.679-24.679-24.679h22.329c13.633 0 24.68 11.046 24.68 24.679z" fill="#fe7d43"/><path d="m378.642 511.997h-245.285c-13.629 0-24.677-11.048-24.677-24.677v-42.753h294.639v42.753c0 13.629-11.049 24.677-24.677 24.677z" fill="#596c76"/><path d="m378.642 0h-245.285c-13.629 0-24.677 11.048-24.677 24.677v42.753h294.639v-42.753c0-13.629-11.049-24.677-24.677-24.677z" fill="#596c76"/><path d="m403.32 444.567v42.753c0 13.633-11.046 24.679-24.679 24.679h-22.331c13.633 0 24.679-11.046 24.679-24.679v-42.753z" fill="#465a61"/><path d="m403.319 24.679v42.753h-22.329v-42.753c-.001-13.633-11.047-24.679-24.68-24.679h22.329c13.633 0 24.68 11.046 24.68 24.679z" fill="#465a61"/><g><path d="m268.456 485.782h-24.914c-4.142 0-7.5-3.358-7.5-7.5s3.358-7.5 7.5-7.5h24.914c4.142 0 7.5 3.358 7.5 7.5s-3.358 7.5-7.5 7.5z" fill="#33474c"/></g><g><g><circle cx="223.423" cy="33.715" fill="#33474c" r="10.248"/></g><g><path d="m298.823 41.215h-42.823c-4.142 0-7.5-3.358-7.5-7.5s3.358-7.5 7.5-7.5h42.824c4.142 0 7.5 3.358 7.5 7.5s-3.359 7.5-7.501 7.5z" fill="#33474c"/></g></g></g></g><g><g><path d="m329.375 115.393c-4.142 0-7.5-3.358-7.5-7.5v-4.723c0-4.142 3.358-7.5 7.5-7.5s7.5 3.358 7.5 7.5v4.723c0 4.142-3.358 7.5-7.5 7.5z" fill="#7a8c98"/></g><g><path d="m353.094 115.393c-4.142 0-7.5-3.358-7.5-7.5v-9.446c0-4.142 3.358-7.5 7.5-7.5s7.5 3.358 7.5 7.5v9.446c0 4.142-3.358 7.5-7.5 7.5z" fill="#7a8c98"/></g><g><path d="m376.813 115.393c-4.142 0-7.5-3.358-7.5-7.5v-14.169c0-4.142 3.358-7.5 7.5-7.5s7.5 3.358 7.5 7.5v14.168c0 4.143-3.358 7.501-7.5 7.501z" fill="#7a8c98"/></g></g><g><path d="m271.484 215.999v-45.086c0-8.551-6.932-15.484-15.484-15.484-8.551 0-15.484 6.932-15.484 15.484v45.086h-29.843v-44.859c0-25.033 20.293-45.326 45.326-45.326 25.033 0 45.326 20.293 45.326 45.326v44.858h-29.841z" fill="#7a8c98"/><path d="m301.329 171.143v37.703h-15.137v-37.703c0-12.52-5.07-23.854-13.272-32.057-6.512-6.512-15.003-11.046-24.483-12.633 2.463-.423 4.987-.639 7.563-.639 12.51 0 23.844 5.07 32.046 13.272 8.203 8.202 13.283 19.537 13.283 32.057z" fill="#596c76"/><path d="m304.778 331.127h-97.556c-9.735 0-17.626-7.891-17.626-17.626v-87.032c0-9.734 7.891-17.626 17.626-17.626h97.556c9.734 0 17.626 7.891 17.626 17.626v87.032c0 9.735-7.891 17.626-17.626 17.626z" fill="#fed402"/><path d="m322.401 226.474v87.03c0 9.727-7.893 17.62-17.62 17.62h-18.888c9.727 0 17.62-7.893 17.62-17.62v-87.03c0-9.738-7.893-17.631-17.62-17.631h18.888c9.727 0 17.62 7.893 17.62 17.631z" fill="#fac600"/><path d="m271.131 260.219c0-8.357-6.774-15.131-15.131-15.131s-15.131 6.774-15.131 15.131c0 5.281 2.709 9.924 6.809 12.631v13.711c0 4.596 3.726 8.322 8.322 8.322s8.322-3.726 8.322-8.322v-13.711c4.1-2.707 6.809-7.35 6.809-12.631z" fill="#e2ae07"/><g fill="#7a8c98"><circle cx="199.331" cy="375.239" r="10.944"/><circle cx="237.11" cy="375.239" r="10.944"/><circle cx="274.89" cy="375.239" r="10.944"/><circle cx="312.669" cy="375.239" r="10.944"/></g></g></g></svg>