<svg xmlns="http://www.w3.org/2000/svg" viewBox="-5 0 51.55 52.99"><defs><style>.cls-1{fill:#f1ba97;}.cls-2{fill:#3d3d3d;}.cls-3{fill:#8c6e59;}.cls-4{fill:#8b6e59;}.cls-5{fill:#8b6e58;}.cls-6{fill:#8c6d59;}.cls-7{fill:#6e5645;}.cls-8{fill:#876a56;}.cls-9{fill:#8d6e59;}.cls-10{fill:#8d6f5a;}.cls-11{fill:#cc9e81;}.cls-12{fill:#cc9f81;}.cls-13{fill:#8f715b;}.cls-14{fill:#ddab8b;}.cls-15{fill:#90715c;}.cls-16{fill:#daa989;}.cls-17{fill:#d4a485;}</style></defs><g id="Layer_2" data-name="Layer 2"><g id="Layer_1-2" data-name="Layer 1"><path class="cls-1" d="M39.92,18.25c1-2.36.91-5,1.63-7.34a1.82,1.82,0,0,1-1.76-.66A6.37,6.37,0,0,0,33.17,7.6a5.48,5.48,0,0,1-4.75-1.53,12.14,12.14,0,0,0-1.63-1.13c-.43-.25-.83-.61-1.38-.52a.56.56,0,0,0-.18.2,1,1,0,0,1,.2-.37l.06-.14a20.18,20.18,0,0,0-.24-2.21A1.67,1.67,0,0,0,23.67.27,18.7,18.7,0,0,0,20.09,0c-3.59.2-3.85.46-4,4.09a7.14,7.14,0,0,1,.23,1.64c-.24-.24.15-.83-.36-1.16a1.8,1.8,0,0,0-1.38.48c-.77.49-1.52,1-2.24,1.58a4.42,4.42,0,0,1-3.67,1c-2.43-.38-4.8,0-6.41,2.09A2.41,2.41,0,0,1,0,10.88a1.37,1.37,0,0,0,0,.19c0,2.46,1.35,5.64,1.93,8.09A5.22,5.22,0,0,1,2,21.23a2.63,2.63,0,0,1,.5,1.06,17.8,17.8,0,0,0,3.76,6.84,4,4,0,0,1,1.2,2.48A10.28,10.28,0,0,0,8.85,35.4,10.76,10.76,0,0,1,9.58,44c-.19.63-.49,1.27.05,1.88a5.3,5.3,0,0,0,2.21.76A40.38,40.38,0,0,0,29,46.82,7.15,7.15,0,0,0,32,45.88a1.23,1.23,0,0,0,.09-1.41c-.94-1.77-.55-3.65-.6-5.5a4.52,4.52,0,0,1,.84-2.91,9.88,9.88,0,0,0,1.78-4.88A2.52,2.52,0,0,1,35,29.51a12.61,12.61,0,0,0,3-4.24c1.07-2.61,1.15-3.76,1.53-4.09A5.18,5.18,0,0,1,39.92,18.25Z"/><path class="cls-1" d="M25.21,5.56a3.89,3.89,0,0,1,0-.49A2.07,2.07,0,0,1,25.21,5.56Z"/><path class="cls-2" d="M33.37,52.18c-4.45.21-8.88.87-13.36.8-3.93-.06-7.83-.57-11.74-.82A1.27,1.27,0,0,0,8.86,51c.22-1.79.49-3.57.75-5.35a47.62,47.62,0,0,0,11.58,1.48,46.73,46.73,0,0,0,9.86-1.27c.32-.08.65-.12,1-.18.21,1.72.4,3.44.64,5.16C32.73,51.38,32.71,52,33.37,52.18Z"/><path class="cls-3" d="M20.84,13.32c.52,4,.15,8,.26,12h-.63a86,86,0,0,1,.12-12C20.67,13.18,20.76,13.19,20.84,13.32Z"/><path class="cls-4" d="M39.27,20a.2.2,0,0,0-.11.06l-2.31,1.15c-.14-.08-.17-.38-.44-.23a22.51,22.51,0,0,1-4,4.74,6.55,6.55,0,0,0-.63.66.39.39,0,0,0,.09.51c.17.18.35.1.5,0a7.79,7.79,0,0,0,.66-.62c1.75-1.92,3.16-4.16,5.55-5.45a3.47,3.47,0,0,0,.65-.51A2.68,2.68,0,0,1,39.27,20Z"/><path class="cls-5" d="M9.7,26.18C7.78,24.55,6.54,22.27,5,20.31c0,0,0,0-.07.09a.17.17,0,0,0,.06.18c-1,.28-1.42-.82-2.23-1a.21.21,0,0,0-.19,0,1.17,1.17,0,0,1,0,.2s0,.08,0,.12c1.82,1.37,3.66,2.69,4.84,4.83a10.21,10.21,0,0,0,1.71,1.9c.16.17.36.51.63.18A.47.47,0,0,0,9.7,26.18Z"/><path class="cls-6" d="M16.1,27h9.48c.15.31.82-.19.74.47a65.87,65.87,0,0,1-11,0C15.27,26.79,16,27.29,16.1,27Z"/><path class="cls-7" d="M29.49,24a1.13,1.13,0,0,1,1.17,1.1,1,1,0,0,1-1.1,1.22,1.08,1.08,0,0,1-1.18-1C28.35,24.54,28.87,24.18,29.49,24Z"/><path class="cls-8" d="M13.1,25.2c.07.72-.36,1.07-1,1.09a1.06,1.06,0,0,1-1.18-1A1.12,1.12,0,0,1,12,24,1,1,0,0,1,13.1,25.2Z"/><path class="cls-3" d="M28.48,10c-1.55.42-3.1.84-4.66,1.23-.35.09-.88.18-1-.3s.45-.43.75-.51A15.75,15.75,0,0,1,28,9.74C28.26,9.6,28.51,9.53,28.48,10Z"/><path class="cls-9" d="M13.46,9.74a16,16,0,0,1,4.49.71c.3.09.8.12.67.57s-.59.29-.88.22c-1.6-.39-3.19-.82-4.79-1.25C12.93,9.52,13.18,9.6,13.46,9.74Z"/><path class="cls-3" d="M21,35.29a7.6,7.6,0,0,1-.33,3.77V35.27Z"/><path class="cls-10" d="M16.6,30.22a13.29,13.29,0,0,0-.28,2.09c0,.31,0,.78-.44.72s-.3-.55-.26-.83A5.7,5.7,0,0,1,16.35,30C16.57,29.91,16.7,30,16.6,30.22Z"/><path class="cls-10" d="M25.08,29.72a7,7,0,0,1,.86,2.67c0,.32.08.64-.3.66s-.3-.33-.3-.56A10.92,10.92,0,0,0,24.83,30C24.74,29.7,24.86,29.66,25.08,29.72Z"/><path class="cls-3" d="M20.83,32.68a7.77,7.77,0,0,1,0-3.46A5.75,5.75,0,0,1,20.83,32.68Z"/><path class="cls-3" d="M15.77,35.44a4.38,4.38,0,0,1-.26,3.07C15.68,37.57,14.69,36.61,15.77,35.44Z"/><path class="cls-3" d="M20.81,44.43a5.61,5.61,0,0,1,0-3A4.08,4.08,0,0,1,20.81,44.43Z"/><path class="cls-3" d="M11.8,33.92c1,.35,1.65.6,2.34.82.27.09.52.2.39.51s-.42.25-.65.13A4.32,4.32,0,0,1,11.8,33.92Z"/><path class="cls-3" d="M16,42c.75.5.85,1.29,1.16,2a.36.36,0,0,1-.31.47c-.19,0-.31-.09-.36-.28C16.27,43.42,16.11,42.7,16,42Z"/><path class="cls-3" d="M29.08,34.45a4.92,4.92,0,0,1-1.86.92c-.21.06-.44.07-.53-.15s.1-.43.37-.5l1.77-.52C29.09,34.1,29.14,34.23,29.08,34.45Z"/><path class="cls-3" d="M29.52,40.51a3.38,3.38,0,0,1-1.92,1.14c-.24.07-.56.14-.65-.18s.2-.43.46-.49Z"/><path class="cls-3" d="M25.2,41.47a3.32,3.32,0,0,1-.13,2.18c-.07.19-.16.42-.41.35a.41.41,0,0,1-.26-.59C24.61,42.84,24.86,42.29,25.2,41.47Z"/><path class="cls-3" d="M24.44,34.38c-.65.11-1.27.22-1.89.31-.25,0-.55,0-.58-.31s.27-.39.52-.4A2.72,2.72,0,0,1,24.44,34.38Z"/><path class="cls-3" d="M12.26,40.59c.78.16,1.38.27,2,.4.24,0,.39.21.31.46s-.33.26-.53.18A2.69,2.69,0,0,1,12.26,40.59Z"/><path class="cls-10" d="M10.19,8.44A7.21,7.21,0,0,1,7.83,10.1C8.41,9.46,8.76,8.54,10.19,8.44Z"/><path class="cls-3" d="M16.1,27l-.75.48c-.83,0-1.71.21-2.6-.48Z"/><path class="cls-3" d="M17.18,34.37A2.78,2.78,0,0,1,19,34c.26,0,.59.06.58.36s-.39.41-.69.36C18.36,34.62,17.83,34.5,17.18,34.37Z"/><path class="cls-11" d="M25.32,4.51a1.6,1.6,0,0,1-.4,2.1c.06-.81-.5-1.56.38-2.11Z"/><path class="cls-10" d="M33.21,9.71a5.73,5.73,0,0,1-2.07-1.12C32.4,8.3,32.75,9.09,33.21,9.71Z"/><path class="cls-12" d="M16.08,4.68l.24-.22c.53.62.15,1.31.18,2A1.58,1.58,0,0,1,16.08,4.68Z"/><path class="cls-3" d="M25.76,37.58c0-.47-.05-.94-.1-1.4,0-.25-.17-.56.23-.57s.36.31.37.56c0,.47,0,.94,0,1.41A.32.32,0,0,1,25.76,37.58Z"/><path class="cls-3" d="M26.32,27.45,25.58,27h2.57A2.34,2.34,0,0,1,26.32,27.45Z"/><path class="cls-3" d="M19.92,40.18a4.63,4.63,0,0,1-2.37.16A2.59,2.59,0,0,1,19.92,40.18Z"/><path class="cls-3" d="M21.85,40.2c.85-.53,1.42,0,2,.09A2.9,2.9,0,0,1,21.85,40.2Z"/><path class="cls-13" d="M37.07,20.23c-.3.19-.28-.24-.48-.25l.73-1.1.16.07Z"/><path class="cls-3" d="M25.6,37.45h.48a2.45,2.45,0,0,1-.48,1.45Z"/><path class="cls-14" d="M28.33,10l-.5-.26a1.76,1.76,0,0,1,1.51-.16A1.73,1.73,0,0,1,28.33,10Z"/><path class="cls-15" d="M4.6,19.7V20a2.56,2.56,0,0,1-.68-1.41A1.51,1.51,0,0,1,4.6,19.7Z"/><path class="cls-16" d="M13.6,9.71l-.49.25-.88-.37C12.81,9.43,13.23,9.39,13.6,9.71Z"/><path class="cls-3" d="M16.6,30.22,16.35,30c.13-.26.26-.51.6-.58C17.07,29.77,16.81,30,16.6,30.22Z"/><path class="cls-3" d="M25.08,29.72l-.25.24a1.26,1.26,0,0,1-.44-.83A.9.9,0,0,1,25.08,29.72Z"/><path class="cls-3" d="M29.36,34.48l-.26-.27a1.4,1.4,0,0,1,.88-.45A1,1,0,0,1,29.36,34.48Z"/><path class="cls-17" d="M20.84,13.22H20.6c0-.41-.11-.83.11-1.24C20.94,12.4,20.8,12.82,20.84,13.22Z"/></g></g></svg>