<svg id="body" enable-background="new 0 0 300 300" height="512" viewBox="0 0 300 300" width="512" xmlns="http://www.w3.org/2000/svg"><g><circle cx="116" cy="169.999" fill="#eaeaea" r="86"/><circle cx="238" cy="51.999" fill="#4c241d" r="4"/><path d="m210 251.999 11.161-26c11.226-20 16.839-54 16.839-54 18.51-19.395 29.702-44.621 31.66-71.359l.34-4.641c-8-20-46-20-46-20-20-20-38-24-38-24l-4-16h-64l-4 16s-16 4-36 24c0 0-40 0-48 20l.816 6.483c3.223 25.606 14.922 49.397 33.235 67.582l1.949 1.935s3.613 34 14.839 54l9.161 26v12h120z" fill="#ffded5"/><g fill="#4c241d"><path d="m50.182 248.444c-1.023 0-2.047-.391-2.828-1.172-1.562-1.562-1.562-4.094 0-5.656l11.791-11.793c1.562-1.562 4.094-1.562 5.656 0s1.562 4.094 0 5.656l-11.791 11.793c-.781.782-1.805 1.172-2.828 1.172z"/><path d="m61.973 248.444c-1.023 0-2.047-.391-2.828-1.172l-11.791-11.792c-1.562-1.562-1.562-4.094 0-5.656s4.094-1.562 5.656 0l11.791 11.793c1.562 1.562 1.562 4.094 0 5.656-.781.781-1.805 1.171-2.828 1.171z"/><path d="m270.002 99.999c-1.588 0-3.09-.949-3.717-2.516-5.723-14.309-32.467-17.473-42.287-17.484-1.061 0-2.078-.422-2.826-1.172-18.957-18.957-35.871-22.887-36.039-22.922-1.48-.332-2.646-1.465-3.014-2.938l-4-16c-.535-2.141.768-4.312 2.91-4.848 2.137-.531 4.314.762 4.852 2.91l3.438 13.754c5.664 1.797 20.309 7.609 36.357 23.25 7.848.258 40.066 2.551 48.039 22.48.82 2.051-.178 4.379-2.229 5.199-.488.197-.99.287-1.484.287z"/><path d="m29.998 99.999c-.494 0-.996-.09-1.484-.285-2.051-.82-3.049-3.148-2.229-5.199 8-19.996 41.957-22.238 50.041-22.484 15.793-15.441 29.092-21.297 34.334-23.164l3.459-13.836c.537-2.148 2.715-3.441 4.852-2.91 2.143.535 3.445 2.707 2.91 4.848l-4 16c-.359 1.434-1.479 2.555-2.91 2.91-.137.035-15.316 4.121-34.143 22.949-.748.75-1.768 1.172-2.826 1.172-10.377.012-38.562 3.172-44.287 17.484-.627 1.566-2.129 2.515-3.717 2.515z"/><path d="m90 267.999c-2.209 0-4-1.789-4-4v-11.316l-8.822-25.031c-11.359-20.512-15.006-53.816-15.156-55.23-.232-2.195 1.359-4.164 3.555-4.398 2.217-.23 4.166 1.359 4.4 3.555.037.332 3.666 33.426 14.35 52.465.113.199.207.41.285.629l9.162 26c.15.426.227.875.227 1.328v12c-.001 2.209-1.792 3.998-4.001 3.998z"/><path d="m210 267.999c-2.209 0-4-1.789-4-4v-12c0-.543.111-1.078.324-1.578l11.162-26c.057-.129.119-.258.188-.379 10.744-19.145 16.324-52.363 16.379-52.695.359-2.176 2.387-3.68 4.6-3.293 2.18.359 3.654 2.418 3.295 4.598-.234 1.41-5.826 34.723-17.191 55.117l-10.757 25.054v11.176c0 2.211-1.791 4-4 4z"/><path d="m230 163.999h-57.078c-8.215 0-15.678-4.852-19.014-12.355-.072-.164-.135-.336-.186-.508l-7.564-26.02c-.615-2.121.604-4.34 2.725-4.957 2.123-.617 4.34.605 4.959 2.723l7.482 25.742c2.102 4.488 6.625 7.375 11.598 7.375h55.422l14.828-14.828c1.562-1.562 4.094-1.562 5.656 0s1.562 4.094 0 5.656l-16 16c-.75.75-1.767 1.172-2.828 1.172z"/><path d="m127.078 163.999h-53.078c-1.061 0-2.078-.422-2.828-1.172l-16-16c-1.562-1.562-1.562-4.094 0-5.656s4.094-1.562 5.656 0l14.828 14.828h51.422c4.973 0 9.496-2.887 11.598-7.375l7.482-25.742c.617-2.117 2.83-3.344 4.959-2.723 2.121.617 3.34 2.836 2.725 4.957l-7.564 26.02c-.051.172-.113.344-.186.508-3.336 7.503-10.799 12.355-19.014 12.355z"/><path d="m94.004 215.999c-1.217 0-2.418-.551-3.203-1.602-.49-.652-10.889-14.703-9.471-27.613-5.527-1.84-15.404-5.992-18.908-12.996-.988-1.977-.188-4.379 1.789-5.367 1.979-.984 4.379-.188 5.367 1.789 2.594 5.188 13.705 8.988 17.393 9.91 1.08.27 2 .977 2.535 1.953.537.977.641 2.133.289 3.191-2.738 8.211 4.418 20.352 7.404 24.336 1.326 1.766.969 4.273-.799 5.598-.72.539-1.562.801-2.396.801z"/><path d="m206 215.999c-.834 0-1.676-.262-2.395-.801-1.768-1.32-2.129-3.828-.809-5.594 2.984-4 10.133-16.168 7.408-24.34-.363-1.09-.24-2.281.336-3.273.574-.992 1.549-1.688 2.672-1.914 7.514-1.512 19.061-5.57 21.209-9.867.988-1.977 3.387-2.773 5.367-1.789 1.977.988 2.777 3.391 1.789 5.367-3.682 7.363-16.09 11.48-22.883 13.23 1.268 12.844-9.01 26.73-9.496 27.379-.784 1.047-1.983 1.602-3.198 1.602z"/></g><path d="m150 207.999c-2.209 0-4-1.789-4-4v-16.723l-16.396-3.277h-15.604c-2.209 0-4-1.789-4-4s1.791-4 4-4h16c.264 0 .525.027.785.078l20 4c1.869.375 3.215 2.016 3.215 3.922v20c0 2.211-1.791 4-4 4z" fill="#f4aeab"/><path d="m150 207.999c-2.209 0-4-1.789-4-4v-20c0-1.906 1.346-3.547 3.215-3.922l20-4c.26-.051.521-.078.785-.078h16c2.209 0 4 1.789 4 4s-1.791 4-4 4h-15.604l-16.396 3.277v16.723c0 2.211-1.791 4-4 4z" fill="#f4aeab"/><path d="m150.004 223.999c-.26 0-.523-.023-.789-.078l-19.611-3.922h-19.604c-2.209 0-4-1.789-4-4s1.791-4 4-4h20c.264 0 .525.027.785.078l20 4c2.166.434 3.57 2.539 3.137 4.707-.379 1.903-2.051 3.215-3.918 3.215z" fill="#f4aeab"/><path d="m150 251.999c-2.209 0-4-1.789-4-4v-28c0-1.906 1.346-3.547 3.215-3.922l20-4c.26-.051.521-.078.785-.078h20c2.209 0 4 1.789 4 4s-1.791 4-4 4h-19.604l-16.396 3.277v24.723c0 2.211-1.791 4-4 4z" fill="#f4aeab"/><path d="m165.996 99.999c-1.867 0-3.539-1.312-3.918-3.215-.434-2.168.971-4.273 3.137-4.707l40-8c2.182-.441 4.275.969 4.707 3.137.434 2.168-.971 4.273-3.137 4.707l-40 8c-.265.055-.529.078-.789.078z" fill="#f4aeab"/><path d="m130.004 99.999c-.26 0-.523-.023-.789-.078l-40-8c-2.166-.434-3.57-2.539-3.137-4.707.432-2.168 2.525-3.582 4.707-3.137l40 8c2.166.434 3.57 2.539 3.137 4.707-.379 1.903-2.051 3.215-3.918 3.215z" fill="#f4aeab"/><path d="m150 75.999c-2.715 0-5.156-1.504-6.373-3.922l-17.199-34.145c-.994-1.973-.199-4.379 1.773-5.375 1.973-.988 4.379-.195 5.371 1.773l16.428 32.614 16.428-32.613c.994-1.969 3.395-2.762 5.371-1.773 1.973.996 2.768 3.402 1.773 5.375l-17.201 34.148c-1.215 2.414-3.656 3.918-6.371 3.918z" fill="#4c241d"/><circle cx="150" cy="259.999" fill="#4c241d" r="4"/></g></svg>