<svg height="512" viewBox="0 0 512 512" width="512" xmlns="http://www.w3.org/2000/svg"><g id="Flat"><path d="m200 320a113.7451 113.7451 0 0 1 2.2 97.04l-10.2 22.96h-40l-13.82007-124.41992a49.751 49.751 0 0 1 23.87012-48.16992 47.95429 47.95429 0 0 1 5.12988-2.68018 49.73029 49.73029 0 0 1 12.88013-3.81982l15.66994-2.41016 60.48975-9.3 7.78025-1.2 32 72z" fill="#fdc5ca"/><path d="m256.21973 249.2a186.14017 186.14017 0 0 1 -8.94973 25.63984 187.70678 187.70678 0 0 1 -25.69995 42.73 169.50354 169.50354 0 0 1 -75.78-17.88964l-6.07005-3.0303a49.77438 49.77438 0 0 1 22.33008-29.23974 47.95429 47.95429 0 0 1 5.12988-2.68018c2.22-.47021 4.46021-.89014 6.7-1.25 7.82004-1.26998 23.33004-2.68998 21.85004-4.97998z" fill="#fc979e"/><path d="m411 248h-83l-2.73-1.95-13.21-9.42993-10.12012-7.24024-13.20988-9.42983-16.73-11.95a15.69809 15.69809 0 0 1 -18.12012 2.93994l-5.87988-2.93994-.76 5.29a187.67614 187.67614 0 0 1 -39.24 90.71 169.36782 169.36782 0 0 1 -75.78-17.89014l-12.22-6.10986-8-16 25.23-8.41016a147.91382 147.91382 0 0 1 46.77-7.58984h.37012a38.61176 38.61176 0 0 1 2.93994-51.31006l4.68994-4.68994v-6.7a154.99468 154.99468 0 0 1 3.56006-33.08 152.55665 152.55665 0 0 1 4.43994-16.22l34.66992-52 13.33008-20 9.37012-4.68994a61.10873 61.10873 0 0 1 46.62988-3.31006h40l1.27 1.14014 60.73 54.85986z" fill="#fdc5ca"/><path d="m358.66992 248 33.33008-40-3.2002-22.3999a67.82842 67.82842 0 0 1 6.94043-40.8301.03735.03735 0 0 1 .00977-.03 63.53006 63.53006 0 0 1 -59.75-24.74v-64a39.39955 39.39955 0 0 1 9.27 1.14014l60.73 54.85986 5 136z" fill="#fc979e"/><path d="m260.8457 220.53906a23.96951 23.96951 0 0 1 -10.73828-2.541l-37.68554-18.84278 7.15624-14.31054 37.68555 18.84277a7.988 7.988 0 0 0 9.2334-1.499l15.8457-15.84571 11.31446 11.31446-15.84571 15.8457a23.97132 23.97132 0 0 1 -16.96582 7.0361z" fill="#fc979e"/><path d="m294.81055 186.56836a23.93248 23.93248 0 0 1 -14.99024-5.26758l-28.81738-23.05371 9.99414-12.49414 28.81738 23.05371a7.99042 7.99042 0 0 0 10.6543-.58984l25.1875-25.1875a7.94368 7.94368 0 0 0 2.34375-5.65625v-33.37305h16v33.37305a23.84338 23.84338 0 0 1 -7.0293 16.9707l-25.1875 25.1875a23.95229 23.95229 0 0 1 -16.97265 7.03711z" fill="#fc979e"/><path d="m272 88-44 68-24-8-8.43994 4.22a152.55665 152.55665 0 0 1 4.43994-16.22l34.66992-52h33.33008z" fill="#fc979e"/><path d="m144 96 16 16 16 32 16-8 24 8 56-56-16-16h-72z" fill="#fdc5ca"/><path d="m256 72-72-48-80 64 8.63028 11.507a24 24 0 0 0 34.819 3.82216l36.55072-31.32916 20.63582 6.87861a58.97639 58.97639 0 0 0 51.36418-6.87861z" fill="#ba8b5d"/><path d="m240 320h248v40h-248z" fill="#e04446"/><path d="m240 360h48v128h-48z" fill="#68737f"/><path d="m440 360h48v128h-48z" fill="#68737f"/><path d="m200 488h-112a40.74529 40.74529 0 0 1 3.26-16 40.24159 40.24159 0 0 1 5.41992-9.22021 40.90781 40.90781 0 0 1 22.36008-14.53956l32.96-8.24023h40l5.33008 32z" fill="#529ddf"/><path d="m458.41016 293.98-1.98 4.93994a33.52952 33.52952 0 0 1 -31.13036 21.08006h-129.2998l-32-72h163.28027a33.52394 33.52394 0 0 1 31.12989 45.98z" fill="#68737f"/><path d="m458.41016 293.98-1.98 4.93994a33.52952 33.52952 0 0 1 -31.13036 21.08006h-129.2998l3.71973-3.72021a96.55585 96.55585 0 0 0 28.28027-68.27979h99.28027a33.52394 33.52394 0 0 1 31.12989 45.98z" fill="#4f5761"/><path d="m429.10986 292.21973c-.0498.19043-.10009.36035-.14013.51025a34.87854 34.87854 0 0 1 -2.34961 6.02979l-.91992 1.85009a35.1383 35.1383 0 0 1 -31.38038 19.39014h-10.31982a113.70527 113.70527 0 0 1 2.2002 97.04l-10.2002 22.96h-40l-14.64014-146.3999a35.13876 35.13876 0 0 1 6.84034-24.54l5.27978-7.03027a35.06455 35.06455 0 0 1 24.3501-13.82983c.23974-.03.48-.05.73-.07007.98-.08984 1.98-.12988 2.98-.12988h33.70019a35.08007 35.08007 0 0 1 33.86963 44.21973z" fill="#fdc5ca"/><path d="m402.18994 319.1001a34.92345 34.92345 0 0 1 -7.87012.8999h-10.31982l-8-16 14.31006-7.1499 8 15.98974a44.129 44.129 0 0 0 3.87988 6.26026z" fill="#fc979e"/><path d="m384 488h-112a40.74937 40.74937 0 0 1 3.25977-16 40.24306 40.24306 0 0 1 5.42041-9.22021 40.90717 40.90717 0 0 1 22.35982-14.53956l32.96-8.24023h40l5.33008 32z" fill="#529ddf"/><path d="m429.10986 292.21973c-.0498.19043-.10009.36035-.14013.51025l-16.96973 7.27002-16-32-16-8-24 8-8-8 10.56006-11.87012c.98-.08984 1.98-.12988 2.98-.12988h33.70019a35.08007 35.08007 0 0 1 33.86963 44.21973z" fill="#fc979e"/><path d="m336 48v64h-32a23.98 23.98 0 0 1 -22.62012-16 23.63953 23.63953 0 0 1 -1.37988-8 38.81408 38.81408 0 0 1 21.46973-34.73l2.33007-1.16992a38.78341 38.78341 0 0 1 17.37012-4.10008z" fill="#fc979e"/><path d="m432 216 16 48-24 24-16-32-16-8-24 8-8-8 40-48-3.2002-22.3999a67.82842 67.82842 0 0 1 6.94043-40.8301.03735.03735 0 0 1 .00977-.03 63.53006 63.53006 0 0 1 -59.75-24.74h-32a23.98 23.98 0 0 1 -22.62012-16 23.63953 23.63953 0 0 1 -1.37988-8 38.81408 38.81408 0 0 1 21.46973-34.73l2.33007-1.16992a38.78341 38.78341 0 0 1 17.37012-4.10008h14.75a38.83031 38.83031 0 0 1 27.4502 11.37012l4.62988 4.62988h26.02a64.00487 64.00487 0 0 1 49.16992 23.03l20.81008 24.97a271.92359 271.92359 0 0 1 -32.14014 90.25z" fill="#fdc5ca"/><g fill="#fc979e"><path d="m368 96a28.79721 28.79721 0 0 1 -25.89014 16h-30.10986a23.98 23.98 0 0 1 -22.62012-16h52.73a12.86741 12.86741 0 0 0 11.58008-7.16016z"/><path d="m416 120a67.71743 67.71743 0 0 0 -12.23 16.75c-.01025.01-.02.01-.02979.02a.03735.03735 0 0 1 .00977-.03 63.29987 63.29987 0 0 1 -17.5498.05 83.6393 83.6393 0 0 1 18.48974-28.1001z"/><path d="m333.66 197.66-31.72 31.72-13.21-9.43 33.61-33.61z"/><path d="m357.66 213.66-32.39 32.39-13.21-9.43 34.28-34.28z"/><path d="m472 112a271.92359 271.92359 0 0 1 -32.14014 90.25l-7.85986 13.75-2.08008-3.91016a30.03981 30.03981 0 0 0 -15.41992-13.83984 149.35187 149.35187 0 0 0 55.60986-79.62988z"/></g><circle cx="64" cy="240" fill="#68737f" r="40"/><path d="m64 288a48 48 0 1 1 48-48 48.05375 48.05375 0 0 1 -48 48zm0-80a32 32 0 1 0 32 32 32.03667 32.03667 0 0 0 -32-32z" fill="#4f5761"/><circle cx="96" cy="256" fill="#68737f" r="40"/><path d="m96 304a48 48 0 1 1 48-48 48.05375 48.05375 0 0 1 -48 48zm0-80a32 32 0 1 0 32 32 32.03667 32.03667 0 0 0 -32-32z" fill="#4f5761"/><circle cx="96" cy="256" fill="#4f5761" r="8"/><path d="m192 256-11.31006 11.31006-4.68994-4.68018a54.66219 54.66219 0 0 1 -9.91992-13.54 146.85317 146.85317 0 0 1 17.91992-1.08988h.35986a38.38538 38.38538 0 0 0 2.9502 3.31006z" fill="#fc979e"/><path d="m213.65723 253.65723-11.31446-11.31446a46.83207 46.83207 0 0 0 13.3125-27.3125l15.88282 1.93946a62.91358 62.91358 0 0 1 -17.88086 36.6875z" fill="#fc979e"/><path d="m384 488h-112a40.74937 40.74937 0 0 1 3.25977-16h106.07031z" fill="#d4e4f0"/><path d="m200 488h-112a40.74529 40.74529 0 0 1 3.26-16h106.07008z" fill="#d4e4f0"/></g></svg>