<svg height="464pt" viewBox="0 0 464 464" width="464pt" xmlns="http://www.w3.org/2000/svg"><path d="m320 40h16v112h-16zm0 0" fill="#5a6470"/><path d="m368 40h16v112h-16zm0 0" fill="#5a6470"/><path d="m8 360c-4.417969 0-8-3.582031-8-8v-336c0-4.417969 3.582031-8 8-8s8 3.582031 8 8v336c0 4.417969-3.582031 8-8 8zm0 0" fill="#5a6470"/><path d="m456 368c-4.417969 0-8-3.582031-8-8v-344c0-4.417969 3.582031-8 8-8s8 3.582031 8 8v344c0 4.417969-3.582031 8-8 8zm0 0" fill="#5a6470"/><path d="m0 336h96v128h-96zm0 0" fill="#ffd782"/><path d="m288 336h176v128h-176zm0 0" fill="#ffd782"/><path d="m0 336h96v32h-96zm0 0" fill="#c6851c"/><path d="m288 336h176v32h-176zm0 0" fill="#c6851c"/><path d="m32 400h32v32h-32zm0 0" fill="#fff7bd"/><path d="m320 400h112v32h-112zm0 0" fill="#fff7bd"/><path d="m184 0h48v56c0 13.253906-10.746094 24-24 24s-24-10.746094-24-24zm0 0" fill="#a9d39f"/><path d="m232 0h48v56c0 13.253906-10.746094 24-24 24s-24-10.746094-24-24zm0 0" fill="#cfdfe8"/><path d="m280 0h48v56c0 13.253906-10.746094 24-24 24s-24-10.746094-24-24zm0 0" fill="#a9d39f"/><path d="m328 0h48v56c0 13.253906-10.746094 24-24 24s-24-10.746094-24-24zm0 0" fill="#cfdfe8"/><path d="m376 0h48v56c0 13.253906-10.746094 24-24 24s-24-10.746094-24-24zm0 0" fill="#a9d39f"/><path d="m40 0h48v56c0 13.253906-10.746094 24-24 24s-24-10.746094-24-24zm0 0" fill="#cfdfe8"/><path d="m88 0h48v56c0 13.253906-10.746094 24-24 24s-24-10.746094-24-24zm0 0" fill="#a9d39f"/><path d="m136 0h48v56c0 13.253906-10.746094 24-24 24s-24-10.746094-24-24zm0 0" fill="#cfdfe8"/><path d="m424 0h40v60c0 11.046875-8.953125 20-20 20s-20-8.953125-20-20zm0 0" fill="#cfdfe8"/><path d="m0 0h40v60c0 11.046875-8.953125 20-20 20s-20-8.953125-20-20zm0 0" fill="#a9d39f"/><path d="m96 240h192v64h-192zm0 0" fill="#aabece"/><path d="m96 304h192v64h-192zm0 0" fill="#cfdfe8"/><path d="m96 368h192v96h-192zm0 0" fill="#9b6413"/><g fill="#dda23a"><path d="m96 392h64v16h-64zm0 0"/><path d="m224 392h64v16h-64zm0 0"/><path d="m176 392h16v16h-16zm0 0"/><path d="m192 424h96v16h-96zm0 0"/><path d="m96 424h40v16h-40zm0 0"/></g><path d="m128 336h32v32h-32zm0 0" fill="#ffd782"/><path d="m160 336h32v32h-32zm0 0" fill="#dda23a"/><path d="m192 336h32v32h-32zm0 0" fill="#ffd782"/><path d="m224 336h32v32h-32zm0 0" fill="#dda23a"/><path d="m128 272h32v32h-32zm0 0" fill="#ffd782"/><path d="m160 272h32v32h-32zm0 0" fill="#dda23a"/><path d="m192 272h32v32h-32zm0 0" fill="#ffd782"/><path d="m224 272h32v32h-32zm0 0" fill="#dda23a"/><path d="m136 192h96v48h-96zm0 0" fill="#7d8d9c"/><path d="m128 160h16v80h-16zm0 0" fill="#5a6470"/><path d="m96 128h80v32h-80zm0 0" fill="#ffd782"/><path d="m352 304h64v32h-64zm0 0" fill="#98ecb7"/><path d="m368 272h64v32h-64zm0 0" fill="#92cdde"/><path d="m352 240h64v32h-64zm0 0" fill="#f98c96"/><path d="m392 152c0 22.089844-17.910156 40-40 40s-40-17.910156-40-40 17.910156-40 40-40 40 17.910156 40 40zm0 0" fill="#fcf05a"/></svg>