<svg height="512pt" viewBox="-3 0 512 512" width="512pt" xmlns="http://www.w3.org/2000/svg"><path d="m199.765625 401.667969c-30.417969 0-55.164063 24.746093-55.164063 55.164062 0 30.421875 24.746094 55.167969 55.164063 55.167969 30.421875 0 55.167969-24.746094 55.167969-55.167969 0-30.417969-24.746094-55.164062-55.167969-55.164062zm0 0" fill="#00acb3"/><path d="m376.5 401.667969c-30.417969 0-55.167969 24.746093-55.167969 55.164062 0 30.421875 24.75 55.167969 55.167969 55.167969 30.421875 0 55.167969-24.746094 55.167969-55.167969 0-30.417969-24.746094-55.164062-55.167969-55.164062zm0 0" fill="#008186"/><path d="m494.929688 97.148438c-9.492188-10.84375-23.023438-16.816407-38.097657-16.816407h-377.566406c-8.28125 0-15 6.71875-15 15 0 8.285157 6.71875 15 15 15h2l28.152344 211.148438c-7.347657.96875-13.019531 7.242187-13.019531 14.851562 0 8.285157 6.714843 15 15 15h313.300781c14.320312 0 28.460937-5.472656 39.808593-15.40625 11.351563-9.9375 18.644532-23.230469 20.535157-37.425781l21.515625-161.367188c1.992187-14.941406-2.136719-29.140624-11.628906-39.984374zm0 0" fill="#ff9f00"/><path d="m494.929688 97.148438c-9.492188-10.84375-23.023438-16.816407-38.097657-16.816407h-163.34375v271h131.210938c14.320312 0 28.460937-5.472656 39.808593-15.40625 11.351563-9.9375 18.644532-23.230469 20.535157-37.425781l21.515625-161.367188c1.992187-14.941406-2.136719-29.140624-11.628906-39.984374zm0 0" fill="#e47500"/><path d="m480.933594 200.832031h-115.195313l6.964844-104.5c.554687-8.269531-5.703125-15.414062-13.96875-15.964843-8.257813-.53125-15.414063 5.703124-15.964844 13.96875l-7.097656 106.496093h-84.371094l-7.101562-106.496093c-.550781-8.265626-7.675781-14.523438-15.964844-13.96875-8.265625.550781-14.519531 7.695312-13.96875 15.964843l6.96875 104.5h-125.902344c-8.28125 0-15 6.71875-15 15 0 8.285157 6.71875 15 15 15h127.902344l7.101563 106.5c.527343 7.925781 7.125 14.003907 14.953124 14.003907.335938 0 .671876-.015626 1.011719-.035157 8.265625-.550781 14.519531-7.699219 13.96875-15.964843l-6.964843-104.503907h80.367187l-6.96875 104.503907c-.550781 8.265624 5.703125 15.414062 13.972656 15.964843.339844.023438.675781.035157 1.011719.035157 7.828125 0 14.421875-6.078126 14.949219-14.003907l7.101562-106.5h117.195313c8.285156 0 15-6.714843 15-15 0-8.28125-6.714844-15-15-15zm0 0" fill="#d55f05"/><path d="m480.933594 200.832031h-115.195313l6.964844-104.5c.554687-8.269531-5.703125-15.414062-13.96875-15.964843-8.257813-.53125-15.414063 5.703124-15.964844 13.96875l-7.097656 106.496093h-42.1875v30h40.1875l-6.96875 104.503907c-.550781 8.265624 5.703125 15.414062 13.96875 15.964843.339844.023438.679687.035157 1.015625.035157 7.828125 0 14.421875-6.078126 14.949219-14.003907l7.101562-106.5h117.195313c8.285156 0 15-6.714843 15-15 0-8.28125-6.714844-15-15-15zm0 0" fill="#a24603"/><path d="m464.867188 431.667969h-302.589844c-14.320313 0-28.457032-5.472657-39.808594-15.410157s-18.644531-23.226562-20.535156-37.421874l-42.9375-322.039063c-2.214844-16.621094-12.40625-26.796875-17.21875-26.796875h-26.777344c-8.285156 0-15-6.714844-15-15s6.714844-15 15-15h26.777344c22.378906 0 43.003906 23.207031 46.957031 52.832031l42.9375 322.035157c1.933594 14.527343 15.953125 26.800781 30.605469 26.800781h302.589844c8.285156 0 15 6.714843 15 15 0 8.28125-6.714844 15-15 15zm0 0" fill="#a8ebfa"/><path d="m464.867188 401.667969h-171.378907v30h171.378907c8.285156 0 15-6.71875 15-15 0-8.285157-6.714844-15-15-15zm0 0" fill="#76e2f8"/></svg>