<?xml version="1.0" encoding="iso-8859-1"?>
<!-- Generator: Adobe Illustrator 19.0.0, SVG Export Plug-In . SVG Version: 6.00 Build 0)  -->
<svg version="1.1" id="Layer_1" xmlns="http://www.w3.org/2000/svg" xmlns:xlink="http://www.w3.org/1999/xlink" x="0px" y="0px"
	 viewBox="0 0 512 512" style="enable-background:new 0 0 512 512;" xml:space="preserve">
<g transform="translate(-1 -1)">
	<g>
		<path style="fill:#E0E0E0;" d="M257.11,169.607L93.8,6.297c-7.062-7.062-17.655-7.062-24.717,0L6.407,68.09
			c-7.062,7.062-7.062,17.655,0,24.717L169.717,257L257.11,169.607z"/>
		<path style="fill:#E0E0E0;" d="M509.579,422.076L344.503,257l-87.393,87.393l165.076,165.076c4.414,4.414,12.359,4.414,16.772,0
			l70.621-70.621C513.993,434.434,513.993,426.49,509.579,422.076"/>
	</g>
	<path style="fill:#A3AAAF;" d="M449.552,411.483c-10.593-10.593-27.366-10.593-37.076,0c-9.71,10.593-10.593,27.366,0,37.076
		s27.365,10.593,37.076,0C459.262,437.966,459.262,422.076,449.552,411.483"/>
	<path style="fill:#A0772D;" d="M63.786,450.324L369.221,144.89l43.255,44.138L107.041,494.462L63.786,450.324z"/>
	<path style="fill:#BD9139;" d="M63.786,450.324l-43.255-44.138l305.434-305.434l44.138,43.255L63.786,450.324z"/>
	<path style="fill:#E65252;" d="M363.041,63.676l87.393,87.393l53.848-53.848c11.476-11.476,11.476-30.897,0-42.372L459.262,9.828
		c-11.476-11.476-30.897-11.476-42.372,0L363.041,63.676z"/>
	<path style="fill:#EDB691;" d="M19.648,407.069L19.648,407.069L1.11,513l105.931-18.538L19.648,407.069z"/>
	<path style="fill:#F4BA48;" d="M413.359,188.145l-87.393-87.393l37.076-37.076l87.393,87.393L413.359,188.145z"/>
	<g>
		<path style="fill:#A3AAAF;" d="M31.124,118.407L31.124,118.407L68.2,81.331c3.531-3.531,3.531-9.71,0-13.241
			c-3.531-3.531-8.828-3.531-12.359,0l-37.076,37.959L31.124,118.407z"/>
		<path style="fill:#A3AAAF;" d="M55.841,143.124L55.841,143.124l24.717-24.717c3.531-3.531,3.531-8.828,0-12.359
			c-3.531-3.531-8.828-3.531-12.359,0l-24.717,24.717L55.841,143.124z"/>
		<path style="fill:#A3AAAF;" d="M106.159,118.407l-37.076,37.076l12.359,12.359l37.076-37.076c3.531-3.531,3.531-8.828,0-12.359
			C114.986,114.876,109.69,114.876,106.159,118.407"/>
		<path style="fill:#A3AAAF;" d="M118.517,155.483L93.8,180.2l12.359,12.359l24.717-24.717c3.531-3.531,3.531-8.828,0-12.359
			C127.345,152.834,122.048,152.834,118.517,155.483"/>
		<path style="fill:#A3AAAF;" d="M168.834,168.724c-3.531-3.531-8.828-3.531-12.359,0L119.4,205.8l12.359,12.359l37.076-37.076
			C172.366,177.552,172.366,172.255,168.834,168.724"/>
		<path style="fill:#A3AAAF;" d="M181.193,205.8c-3.531-3.531-8.828-3.531-12.359,0l-25.6,24.717l12.359,12.359l24.717-24.717
			C184.724,214.628,184.724,209.331,181.193,205.8"/>
		<path style="fill:#A3AAAF;" d="M280.945,368.228L280.945,368.228l37.076-37.076c3.531-3.531,3.531-8.828,0-12.359
			c-3.531-3.531-8.828-3.531-12.359,0l-37.076,37.076L280.945,368.228z"/>
		<path style="fill:#A3AAAF;" d="M305.662,392.945L305.662,392.945l24.717-24.717c3.531-3.531,3.531-8.828,0-12.359
			c-3.531-3.531-8.828-3.531-12.359,0l-24.717,24.717L305.662,392.945z"/>
		<path style="fill:#A3AAAF;" d="M355.979,368.228l-37.076,37.076l12.359,12.359l37.076-37.076c3.531-3.531,3.531-8.828,0-12.359
			C364.807,364.697,359.51,364.697,355.979,368.228"/>
	</g>
</g>
<g>
</g>
<g>
</g>
<g>
</g>
<g>
</g>
<g>
</g>
<g>
</g>
<g>
</g>
<g>
</g>
<g>
</g>
<g>
</g>
<g>
</g>
<g>
</g>
<g>
</g>
<g>
</g>
<g>
</g>
</svg>
