<?xml version="1.0" encoding="iso-8859-1"?>
<!-- Generator: Adobe Illustrator 19.0.0, SVG Export Plug-In . SVG Version: 6.00 Build 0)  -->
<svg version="1.1" id="Layer_1" xmlns="http://www.w3.org/2000/svg" xmlns:xlink="http://www.w3.org/1999/xlink" x="0px" y="0px"
	 viewBox="0 0 512 512" style="enable-background:new 0 0 512 512;" xml:space="preserve">
<path style="fill:#5B7A7F;" d="M189.217,300.522v66.783v122.435c0,12.564-10.408,22.697-23.072,22.246
	c-12.063-0.429-21.449-10.71-21.449-22.78v-99.641c0-12.295-9.966-22.261-22.261-22.261l0,0c-12.295,0-22.261,9.966-22.261,22.261
	v100.174c0,12.564-10.408,22.697-23.072,22.246c-12.063-0.429-21.449-10.71-21.449-22.78V367.304v-66.783H189.217z"/>
<path style="fill:#D199D1;" d="M222.609,189.217v111.304H22.261V189.217c0-36.883,29.9-66.783,66.783-66.783h66.783
	C192.709,122.435,222.609,152.334,222.609,189.217z"/>
<path style="fill:#AF7AAE;" d="M122.435,300.522H22.261V189.217c0-36.883,29.9-66.783,66.783-66.783h33.391V300.522z"/>
<path style="fill:#F4C064;" d="M166.957,44.522c0,24.588-19.933,44.522-44.522,44.522S77.913,69.11,77.913,44.522
	S97.847,0,122.435,0S166.957,19.933,166.957,44.522z M189.217,211.478c-6.147,0-11.13,4.983-11.13,11.13v66.783
	c0,12.295,9.966,22.261,22.261,22.261c12.295,0,22.261-9.966,22.261-22.261v-77.913H189.217z"/>
<path style="fill:#F4AB53;" d="M122.435,0v89.043c-24.588,0-44.522-19.933-44.522-44.522S97.847,0,122.435,0z"/>
<path style="fill:#6BAF6E;" d="M434.087,246.609c0,31.696-25.695,57.392-57.392,57.392c-9.568,0-18.58-2.354-26.512-6.495
	c-8.614,10.344-21.584,16.929-36.097,16.929c-25.934,0-46.957-21.023-46.957-46.957c0-25.934,21.023-46.957,46.957-46.957
	c3.735,0,7.363,0.45,10.847,1.273c9.255-19.272,28.955-32.578,51.763-32.578C408.392,189.217,434.087,214.912,434.087,246.609z"/>
<path style="fill:#84D88B;" d="M387.827,245.565c-9.568,0-18.58-2.354-26.512-6.495C352.701,249.414,339.731,256,325.218,256
	c-17.81,0-33.303-9.916-41.263-24.528c8.155-6.832,18.661-10.95,30.132-10.95c3.735,0,7.363,0.45,10.847,1.273
	c9.254-19.272,28.954-32.578,51.762-32.578c24.644,0,45.654,15.536,53.786,37.345C419.976,238.228,404.759,245.565,387.827,245.565z
	"/>
<path style="fill:#FFC248;" d="M375.726,319.495l48.909-147.951c5.788-17.509,24.675-27.011,42.184-21.224l0,0
	c17.509,5.788,27.011,24.675,21.224,42.184l-48.909,147.951c-5.788,17.509-24.675,27.011-42.184,21.224l0,0
	C379.439,355.891,369.937,337.005,375.726,319.495z"/>
<path style="fill:#FFE77C;" d="M379.524,348.299c-5.394-8.225-7.126-18.74-3.799-28.804l48.909-147.951
	c4.519-13.672,17.024-22.46,30.624-22.902c5.393,8.225,7.126,18.74,3.799,28.804l-48.909,147.951
	C405.629,339.069,393.124,347.858,379.524,348.299z"/>
<path style="fill:#FFA233;" d="M452.082,239.231c-1.16,3.507-4.422,5.73-7.925,5.73c-0.868,0-1.751-0.137-2.621-0.424l-10.568-3.494
	c-4.378-1.447-6.753-6.168-5.306-10.546c1.447-4.378,6.167-6.753,10.546-5.306l10.568,3.494
	C451.152,230.132,453.527,234.853,452.082,239.231z M457.256,196.981l-10.568-3.494c-4.381-1.447-9.099,0.928-10.546,5.306
	s0.928,9.099,5.306,10.546l10.568,3.494c0.87,0.287,1.753,0.424,2.621,0.424c3.503,0,6.765-2.223,7.925-5.73
	C464.009,203.15,461.634,198.428,457.256,196.981z"/>
<path style="fill:#FFA669;" d="M228.322,453.033l-61.365-163.642h300.522l-19.823,158.588
	c-1.392,11.139-10.862,19.499-22.089,19.499h-176.4C239.886,467.478,231.581,461.723,228.322,453.033z"/>
<g>
	<path style="fill:#E55D30;" d="M422.957,484.174c0,15.368-12.458,27.826-27.826,27.826s-27.826-12.458-27.826-27.826
		s12.458-27.826,27.826-27.826S422.957,468.806,422.957,484.174z M294.957,456.348c-15.368,0-27.826,12.458-27.826,27.826
		S279.589,512,294.957,512s27.826-12.458,27.826-27.826S310.324,456.348,294.957,456.348z M467.478,278.261H122.435
		c-12.295,0-22.261,9.966-22.261,22.261l0,0c0,12.295,9.966,22.261,22.261,22.261h345.043c12.295,0,22.261-9.966,22.261-22.261l0,0
		C489.739,288.227,479.773,278.261,467.478,278.261z"/>
	<path style="fill:#E55D30;" d="M289.391,367.304v44.522c0,4.61-3.738,8.348-8.348,8.348c-4.61,0-8.348-3.738-8.348-8.348v-44.522
		c0-4.61,3.738-8.348,8.348-8.348C285.654,358.957,289.391,362.694,289.391,367.304z M336.696,358.957
		c-4.61,0-8.348,3.738-8.348,8.348v44.522c0,4.61,3.738,8.348,8.348,8.348s8.348-3.738,8.348-8.348v-44.522
		C345.043,362.694,341.306,358.957,336.696,358.957z M392.348,358.957c-4.61,0-8.348,3.738-8.348,8.348v44.522
		c0,4.61,3.738,8.348,8.348,8.348s8.348-3.738,8.348-8.348v-44.522C400.696,362.694,396.958,358.957,392.348,358.957z"/>
</g>
<path style="fill:#F4C064;" d="M144.696,300.522L144.696,300.522c0,12.295-9.966,22.261-22.261,22.261H44.522
	c-12.295,0-22.261-9.966-22.261-22.261v-89.043h33.391c6.147,0,11.13,4.983,11.13,11.13v55.652h55.652
	C134.729,278.261,144.696,288.227,144.696,300.522z"/>
<g>
</g>
<g>
</g>
<g>
</g>
<g>
</g>
<g>
</g>
<g>
</g>
<g>
</g>
<g>
</g>
<g>
</g>
<g>
</g>
<g>
</g>
<g>
</g>
<g>
</g>
<g>
</g>
<g>
</g>
</svg>
