<svg id="Capa_1" enable-background="new 0 0 512.028 512.028" height="512" viewBox="0 0 512.028 512.028" width="512" xmlns="http://www.w3.org/2000/svg"><g><g><path d="m471.796 504.557h-431.564c-17.899 0-32.409-14.51-32.409-32.409v-432.239c0-17.899 14.51-32.409 32.409-32.409h431.563c17.899 0 32.409 14.51 32.409 32.409v432.239c.001 17.899-14.509 32.409-32.408 32.409z" fill="#f3f0f3"/></g><g><path d="m504.203 39.882v432.292c0 17.885-14.498 32.383-32.383 32.383h-20.253c17.885 0 32.383-14.498 32.383-32.383v-432.292c0-17.885-14.498-32.383-32.383-32.383h20.253c17.886.001 32.383 14.498 32.383 32.383z" fill="#e2dee2"/></g><g><path d="m346.415 180.007h-180.802c-13.035 0-23.602-10.567-23.602-23.602v-148.905h228.006v148.905c0 13.035-10.567 23.602-23.602 23.602z" fill="#7a6d79"/></g><g><path d="m370.017 7.5v148.924c0 13.029-10.561 23.58-23.58 23.58h-20.263c13.029 0 23.59-10.551 23.59-23.58v-148.924z" fill="#685e68"/></g><g><path d="m330.312 138.801h-148.595c-4.67 0-8.456-3.786-8.456-8.456v-73.184c0-4.67 3.786-8.456 8.456-8.456h148.595c4.67 0 8.456 3.786 8.456 8.456v73.184c-.001 4.67-3.786 8.456-8.456 8.456z" fill="#60b7ff"/></g><g><path d="m471.811 0h-431.594c-21.99 0-39.88 17.89-39.88 39.88v432.269c0 21.99 17.89 39.88 39.88 39.88h291.729c4.142 0 7.5-3.357 7.5-7.5 0-4.142-3.358-7.5-7.5-7.5h-291.729c-13.719 0-24.88-11.161-24.88-24.88v-432.269c0-13.719 11.161-24.88 24.88-24.88h94.301v141.417c0 17.138 13.943 31.08 31.08 31.08h15.484c4.142 0 7.5-3.357 7.5-7.5s-3.358-7.5-7.5-7.5h-15.484c-8.867 0-16.081-7.214-16.081-16.081v-141.417h212.994v141.417c0 8.867-7.214 16.081-16.081 16.081h-130.38c-4.142 0-7.5 3.357-7.5 7.5s3.358 7.5 7.5 7.5h130.38c17.137 0 31.08-13.943 31.08-31.08v-141.418h94.301c13.719 0 24.88 11.161 24.88 24.88v432.269c0 13.719-11.161 24.88-24.88 24.88h-104.897c-4.142 0-7.5 3.357-7.5 7.5 0 4.142 3.358 7.5 7.5 7.5h104.898c21.99 0 39.88-17.89 39.88-39.88v-432.268c-.001-21.99-17.891-39.88-39.881-39.88z"/><path d="m346.267 130.346v-73.185c0-8.798-7.158-15.956-15.956-15.956h-148.594c-8.798 0-15.956 7.158-15.956 15.956v73.185c0 8.798 7.158 15.955 15.956 15.955h148.595c8.797 0 15.955-7.157 15.955-15.955zm-165.506 0v-73.185c0-.527.429-.956.956-.956h148.595c.527 0 .956.429.956.956v73.185c0 .526-.429.955-.956.955h-148.595c-.527 0-.956-.429-.956-.955z"/><path d="m219.76 97.412h-.563c.055-9.55.084-19.767-.034-21.186-.265-3.18-2.177-5.774-4.871-6.608-2.672-.825-5.516.207-7.603 2.769-2.266 2.779-12.726 21.638-15.878 27.352-.769 1.395-.744 3.091.065 4.462s2.283 2.212 3.875 2.212h15.385c-.019 2.554-.039 5.004-.058 7.215-.021 2.485 1.976 4.518 4.461 4.539h.04c2.467 0 4.478-1.989 4.499-4.461.012-1.364.034-4.01.058-7.293h.623c2.485 0 4.5-2.015 4.5-4.5s-2.013-4.501-4.499-4.501zm-9.564 0h-7.797c2.9-5.187 5.728-10.163 7.849-13.791-.002 3.753-.023 8.68-.052 13.791z"/><path d="m257.601 89.927c1.605-2.15 2.568-4.807 2.568-7.691 0-7.11-5.785-12.896-12.896-12.896s-12.896 5.785-12.896 12.896c0 2.884.963 5.54 2.568 7.691-3.474 2.94-5.689 7.325-5.689 12.222 0 8.832 7.185 16.017 16.017 16.017s16.017-7.185 16.017-16.017c0-4.897-2.215-9.282-5.689-12.222zm-10.328-11.586c2.148 0 3.896 1.747 3.896 3.896s-1.748 3.896-3.896 3.896-3.896-1.748-3.896-3.896 1.748-3.896 3.896-3.896zm0 30.825c-3.869 0-7.017-3.147-7.017-7.017s3.147-7.017 7.017-7.017 7.017 3.147 7.017 7.017-3.147 7.017-7.017 7.017z"/><path d="m283.14 103.799 7.263-6.675c1.22-1.121 1.3-3.02.178-4.239-1.121-1.22-3.019-1.3-4.239-.179l-5.186 4.766v-2.797c0-1.657-1.343-3-3-3s-3 1.343-3 3v18.991c0 1.657 1.343 3 3 3s3-1.343 3-3v-3.443l5.807 5.603c.583.562 1.333.841 2.083.841.786 0 1.571-.307 2.16-.917 1.15-1.192 1.116-3.092-.076-4.242z"/><path d="m317.277 101.171h-5.681c-1.657 0-3 1.343-3 3s1.343 3 3 3h2.213c-.677 1.963-2.14 3.495-4.729 3.495-3.582 0-6.495-2.914-6.495-6.495 0-3.582 2.914-6.496 6.495-6.496 1.301 0 2.557.383 3.63 1.108 1.373.927 3.238.565 4.165-.808s.565-3.237-.808-4.165c-2.069-1.397-4.485-2.136-6.988-2.136-6.89 0-12.495 5.605-12.495 12.496 0 6.89 5.605 12.495 12.495 12.495 6.592 0 11.197-5.138 11.197-12.495.001-1.656-1.342-2.999-2.999-2.999z"/><path d="m261.678 209.719c2.209 0 4-1.791 4-4s-1.791-4-4-4h-9.113c-2.209 0-4 1.791-4 4v21.628c0 2.209 1.791 4 4 4h9.113c2.209 0 4-1.791 4-4s-1.791-4-4-4h-5.113v-2.813h4.441c2.209 0 4-1.791 4-4s-1.791-4-4-4h-4.441v-2.814h5.113z"/><path d="m230.079 223.347c-2.692 0-4.233-1.471-4.642-1.921-1.483-1.639-4.013-1.763-5.65-.278-1.637 1.483-1.761 4.013-.278 5.649 2.62 2.892 6.472 4.55 10.57 4.55 5.217 0 9.606-3.376 10.437-8.027.605-3.388-.907-8.161-7.157-10.467-2.426-.895-4.701-1.863-5.645-2.273-.017-.04-.024-.095-.013-.174.043-.305.352-.564.844-.713 2.391-.722 4.731 1.075 4.839 1.159 1.69 1.393 4.191 1.165 5.604-.514 1.421-1.691 1.203-4.215-.488-5.636-2.069-1.741-6.983-4.26-12.263-2.67-3.492 1.053-5.966 3.826-6.455 7.236-.463 3.23.938 6.339 3.659 8.112.177.115.362.216.554.302.128.058 3.172 1.413 6.596 2.676 1.367.504 2.116 1.187 2.05 1.555-.087.484-.953 1.434-2.562 1.434z"/><path d="m293.555 205.52c0-2.209-1.791-4-4-4h-12.054c-2.209 0-4 1.791-4 4s1.791 4 4 4h2.003v17.827c0 2.209 1.791 4 4 4s4-1.791 4-4v-17.827h2.051c2.209 0 4-1.791 4-4z"/><path d="m324.665 205.995c-1.164 0-2.271.507-3.03 1.389l-11.094 12.877c-1.442 1.674-1.254 4.2.419 5.642 1.674 1.444 4.2 1.255 5.641-.419l8.064-9.36 8.063 9.359c.791.919 1.908 1.39 3.032 1.39.924 0 1.854-.318 2.609-.97 1.674-1.441 1.861-3.968.419-5.641l-11.094-12.877c-.758-.883-1.865-1.39-3.029-1.39z"/><path d="m195.427 207.384-8.064 9.36-8.063-9.359c-1.441-1.675-3.967-1.863-5.641-.42-1.674 1.441-1.861 3.968-.419 5.641l11.094 12.877c.76.883 1.866 1.39 3.03 1.39s2.271-.507 3.03-1.389l11.094-12.877c1.442-1.674 1.254-4.2-.419-5.642-1.674-1.443-4.2-1.253-5.642.419z"/><g><g><circle cx="255.599" cy="447.657" r="9.937"/></g><g><path d="m244.201 421.768c-2.661 0-5.237-1.418-6.597-3.92-1.978-3.64-.63-8.193 3.009-10.171 4.664-2.534 9.95-3.874 15.285-3.874 5.027 0 10.041 1.197 14.5 3.461 3.693 1.876 5.167 6.391 3.291 10.083-1.875 3.693-6.39 5.167-10.083 3.292-2.398-1.219-4.992-1.836-7.708-1.836-2.882 0-5.616.691-8.124 2.054-1.136.618-2.363.911-3.573.911z"/></g><g><path d="m292.064 397.857c-1.323 0-2.663-.35-3.878-1.086-9.672-5.857-20.797-8.953-32.173-8.953-11.374 0-22.499 3.096-32.172 8.953-3.544 2.143-8.156 1.012-10.3-2.531-2.146-3.543-1.012-8.155 2.531-10.301 12.017-7.275 25.828-11.121 39.941-11.121 14.116 0 27.928 3.847 39.944 11.123 3.543 2.146 4.676 6.757 2.53 10.3-1.41 2.329-3.885 3.616-6.423 3.616z"/></g></g></g></g></svg>