<svg width="118" height="259" viewBox="0 0 118 259" fill="none" xmlns="http://www.w3.org/2000/svg">
<g clip-path="url(#clip0)">
<path d="M102.1 93.11C100.77 95.11 92.1 86.44 92.1 82.52C92.1 82.52 99.93 76.61 103.43 78.77C106.93 80.93 102.1 93.11 102.1 93.11Z" fill="#027A6F"/>
<path d="M96.47 75.77L89.31 87.77L82.1 91.94C82.1 91.94 83.59 99.14 86.93 100.94C90.27 102.74 92.93 91.32 92.93 91.32C92.93 91.32 103.6 83.55 107.93 74.69C112.26 65.83 96.47 75.77 96.47 75.77Z" fill="#FEAE94"/>
<path d="M81.27 36.2C81.27 36.2 110.27 54.89 117.1 60.58C117.1 60.58 119.1 64 117.1 69.97C115.737 73.8641 113.949 77.5966 111.77 81.0999C111.77 81.0999 111.93 83.61 111.43 83.86C110.93 84.11 109.27 84.7699 109.27 85.2699C109.27 85.7699 104.93 89.5 102.1 93.11C102.1 93.11 97.89 83.8599 92.1 82.5199L99.63 69.33C99.4609 69.1679 99.3368 68.9645 99.27 68.7399C99.2465 68.0553 99.3693 67.3735 99.63 66.7399L84.27 62.24L81.27 36.2Z" fill="#03A596"/>
<path d="M14.28 61.56C11.6 61 4.84998 69.17 4.72998 74.64L13.73 79.47L14.28 61.56Z" fill="#027A6F"/>
<path d="M32.9999 47C30.9299 48 11.2899 91 11.2899 91C11.2899 91 11.9199 99.63 16.1699 100.6C20.4199 101.57 36.9999 84.11 36.9999 84.11C36.9999 84.11 41.2699 42.63 32.9999 47Z" fill="#03A596"/>
<path d="M10.26 88.14C7.87995 81.29 7.10995 62.21 8.84995 53.6L13.13 54C13.13 54 15.94 74.76 18.83 81.11C21.72 87.46 21.2099 92.63 17.15 95.18C13.09 97.73 10.76 89.59 10.26 88.14Z" fill="#FEAE94"/>
<path d="M15.81 44.56L15.17 50.08C14.54 55.6 13.68 55.18 11.09 56.69C8.66996 58.11 5.59996 54 4.79996 51.94C4.10996 50.21 0.189959 47.6 -4.12473e-05 46C-0.0800412 45.36 0.419959 45.59 1.54996 46.57C2.4276 47.3051 3.41664 47.8958 4.47996 48.32C4.89996 46.41 -0.300041 42.74 0.479959 40.77C0.849959 39.82 4.76996 46.37 5.95996 46.23C5.95996 46.23 6.16996 45.55 4.50996 42.23C3.50996 40.3 2.55996 38.32 2.97996 37.76C3.74996 36.76 5.03996 41.13 8.26996 45.22C8.26996 45.22 7.60996 42.96 6.85996 40.91C6.16996 39.04 5.32996 37.36 6.18996 37.14C6.89996 36.95 7.88996 39.89 8.59996 41.75C9.51392 44.2295 10.8691 46.5231 12.6 48.52C12.8295 48.799 13.0802 49.0597 13.35 49.3C14.47 43.7 15.81 44.56 15.81 44.56Z" fill="#FEAE94"/>
<path d="M13.3499 49.27C13.3499 49.27 11.3499 50.69 11.2799 52.55C11.0975 52.1972 10.9869 51.8118 10.9545 51.416C10.9222 51.0201 10.9688 50.6219 11.0916 50.2442C11.2144 49.8665 11.4109 49.517 11.6698 49.2158C11.9288 48.9147 12.2449 48.668 12.5999 48.49C12.8294 48.769 13.0802 49.0297 13.3499 49.27V49.27Z" fill="#EC8468"/>
<path d="M56.7599 2.64123e-06C40.5399 -0.779997 37.2699 13.15 38.9999 29.5C40.7299 45.85 36.9999 66.68 34.7399 74.77C33.4411 79.8201 33.7915 85.1533 35.7399 89.99C35.7399 89.99 33.7399 83.93 37.2399 74.77C37.2399 74.77 31.6399 93.41 46.6899 96.88C61.7399 100.35 65.1099 95 69.5099 69C73.9099 43 80.2599 1.21 56.7599 2.64123e-06Z" fill="#0E3944"/>
<path d="M32.85 95.34C33.68 99.71 45.77 99.34 54.27 94C62.77 88.66 89.59 89.4 89.27 82.52C88.95 75.64 53 54.51 53 54.51C53 54.51 30.1 80.9 32.85 95.34Z" fill="#027A6F"/>
<path d="M29.37 239L36.1 240.57C36.1 240.57 46.62 184.18 49 178.22C51.08 173.08 60 153.42 62.92 138.32C63.6999 138.296 64.4747 138.185 65.23 137.99V137.99L66.23 137.78L67.23 137.57C67.48 152.62 70.75 171.18 71.75 176.38C72.96 182.69 72.31 240.08 72.31 240.08L79.22 239.85C92.33 193.38 85.41 175.92 85.41 175.92C85.41 175.92 97.41 134.09 93.17 119.34C91.8714 114.855 90.2573 110.467 88.34 106.21C88.2 105.9 88.07 105.6 87.92 105.31C86.1653 101.396 84.1266 97.6161 81.82 94L67.82 95.76L67.69 95.53L67.28 95.61V100L65.5 99.91H65.1L59.27 99.6H58.47L53.37 99.33C53.37 99.33 50.31 104.2 45.95 112.03L45.46 112.93C43.91 115.74 42.21 118.93 40.46 122.33C33.46 135.98 35.82 175.16 35.82 175.16C35.82 175.16 25.55 190.86 29.37 239Z" fill="#FEAE94"/>
<path d="M77.1899 95.6201C77.1899 95.7201 80.8599 104.33 88.3499 106.21C88.2099 105.9 88.0799 105.6 87.9299 105.31C81.2099 103.22 77.9299 95.4301 77.9299 95.3101L77.1899 95.6201Z" fill="#6097B2"/>
<path d="M45.3999 112.88C53.7899 111.08 58.0699 102.3 59.2099 99.59C59.4099 99.1 59.5099 98.81 59.5199 98.79L58.8099 98.54C58.8099 98.54 58.6699 98.94 58.4099 99.54C57.2099 102.33 53.2799 110 45.8899 112L45.3999 112.88Z" fill="#6097B2"/>
<path d="M65.2799 138L66.2799 137.79C68.7068 132.996 70.4761 127.897 71.5399 122.63C74.1599 111.01 68.1999 98.63 68.1399 98.51L67.4599 98.84C67.5199 98.96 73.3699 111.11 70.8099 122.47C70.6999 122.95 70.5899 123.47 70.4799 123.87L70.2999 124.6C69.2296 129.27 67.5413 133.776 65.2799 138V138Z" fill="#6097B2"/>
<path d="M70.67 124.63H70.78V123.89C70.5424 123.881 70.3095 123.822 70.0972 123.714C69.8849 123.607 69.6982 123.456 69.55 123.27C69.06 122.7 67.99 120.9 68.85 116.49C70 110.57 65.62 100.2 65.43 99.76L64.74 100.06C64.74 100.16 69.22 110.66 68.11 116.35C67.22 120.91 68.28 122.95 68.99 123.76C69.1953 124.013 69.4504 124.22 69.7394 124.37C70.0285 124.52 70.3452 124.608 70.67 124.63V124.63Z" fill="#6097B2"/>
<path d="M53.31 99.28C58.1449 100.683 63.2407 100.936 68.1907 100.019C73.1408 99.102 77.808 97.0409 81.82 94C81.82 94 84.39 41.17 79.5 37.63C77.36 36.08 73.14 37.32 69.07 39.21C65.5012 40.9308 62.068 42.9198 58.8 45.16C58.8 45.16 49.69 43.87 42.51 44.66C37.94 45.15 34.16 46.49 33.99 49.52C33.54 57.33 53.31 99.28 53.31 99.28Z" fill="#FF8B66"/>
<path d="M42.12 44.78C45.2 44.46 45.77 46.78 48.85 47.91C51.4916 48.8722 54.2214 49.5722 57 50C58.4 50.13 59.14 51.87 59.14 51.87C59.14 51.87 59.64 49.52 60.4 49.32C61.16 49.12 67.67 42.56 69.03 39.17C65.4736 40.9055 62.0539 42.9079 58.8 45.16C58.8 45.16 49.69 43.87 42.51 44.66L42.12 44.78Z" fill="#FEAE94"/>
<path d="M82.33 245.71C81.91 242.83 82.97 240.79 82.22 239.4C81.06 237.26 79.83 239.97 79.83 239.97C79.73 236.7 74.26 236.71 73.71 238.2C73.5719 238.579 73.4116 238.95 73.23 239.31C72.89 238.52 72.31 237.76 71.56 238.2C68.64 239.95 72.28 244.47 69.62 247.76C66.23 251.95 68.32 258.29 68.32 258.29H84.53C86.43 249.41 82.75 248.57 82.33 245.71Z" fill="#03A596"/>
<path d="M72.3099 244.64C72.3099 244.64 76.1499 242.64 81.2299 245.29L80.2299 243.45C79.1005 242.828 77.8494 242.458 76.5632 242.367C75.2769 242.275 73.9861 242.464 72.7799 242.92L72.3099 244.64Z" fill="#F24052"/>
<path d="M71.6499 247.68C75.136 246.61 78.8962 246.885 82.1899 248.45L81.1899 246.51C81.1899 246.51 76.3599 244.42 72.2699 245.98L71.6499 247.68Z" fill="#F24052"/>
<path d="M26.3899 245.71C26.8199 242.83 25.7499 240.79 26.4999 239.4C27.6699 237.26 28.8899 239.97 28.8899 239.97C28.9899 236.7 34.4599 236.71 35.0099 238.2C35.148 238.579 35.3083 238.95 35.4899 239.31C35.8299 238.52 36.4099 237.76 37.1599 238.2C40.0799 239.95 36.4499 244.47 39.0999 247.76C42.4899 251.95 40.4099 258.29 40.4099 258.29H24.1899C22.2999 249.41 25.9999 248.57 26.3899 245.71Z" fill="#03A596"/>
<path d="M36.41 244.64C36.41 244.64 32.57 242.64 27.49 245.29L28.49 243.45C29.6195 242.828 30.8705 242.458 32.1568 242.367C33.443 242.275 34.7338 242.464 35.94 242.92L36.41 244.64Z" fill="#F24052"/>
<path d="M37.0699 247.68C33.5838 246.61 29.8236 246.885 26.5299 248.45L27.5299 246.51C27.5299 246.51 32.3599 244.42 36.4499 245.98L37.0699 247.68Z" fill="#F24052"/>
<path d="M60 27.68C60 27.68 58.81 41.79 62.73 43.8C62.73 43.8 59.83 49.15 52.06 45.9C52.06 45.9 53.37 38.64 48.23 30.03C44.78 24.26 60 27.68 60 27.68Z" fill="#FEAE94"/>
<path d="M44.81 20.84C44.81 20.84 41.89 17.45 41.22 21.1C40.44 25.34 44.22 27.35 45.05 26.05C45.88 24.75 44.81 20.84 44.81 20.84Z" fill="#FEAE94"/>
<path d="M66.91 22.7499C66.91 22.7499 70.31 19.8299 70.42 23.5499C70.55 27.8499 66.54 29.2799 65.88 27.8599C65.22 26.4399 66.91 22.7499 66.91 22.7499Z" fill="#FEAE94"/>
<path d="M54.3599 37.12C47.3599 36.59 43.7399 31.71 44.7799 17.97C45.3199 10.89 49.2599 6.81996 57.1099 7.41996C64.9599 8.01996 67.9399 12.61 67.3999 19.7C66.2799 34.46 61.5999 37.68 54.3599 37.12Z" fill="#FEAE94"/>
<path d="M64.71 24.42C64.6606 24.7945 64.4858 25.1412 64.2139 25.4036C63.9421 25.6659 63.5894 25.8283 63.2133 25.8643C62.8373 25.9003 62.4601 25.8077 62.1435 25.6017C61.8269 25.3957 61.5894 25.0884 61.47 24.73C61.5193 24.3555 61.6942 24.0087 61.966 23.7464C62.2378 23.4841 62.5906 23.3217 62.9666 23.2857C63.3427 23.2497 63.7198 23.3423 64.0364 23.5483C64.3531 23.7543 64.5905 24.0616 64.71 24.42V24.42Z" fill="#DB614D"/>
<path d="M50.26 23.6999C50.1404 24.0748 49.8923 24.3954 49.5595 24.6051C49.2266 24.8149 48.8304 24.9005 48.4407 24.8467C48.0509 24.7929 47.6927 24.6032 47.4291 24.3111C47.1655 24.019 47.0136 23.6432 47 23.2499C47.1361 22.899 47.3867 22.6042 47.7113 22.4136C48.0359 22.223 48.4154 22.1476 48.7882 22.1997C49.161 22.2518 49.5053 22.4283 49.7652 22.7006C50.0251 22.973 50.1854 23.3251 50.22 23.6999H50.26Z" fill="#DB614D"/>
<path d="M62.2199 17C62.1485 17.031 62.069 17.038 61.9933 17.02C61.9176 17.0019 61.8497 16.9599 61.7999 16.9C61.0977 16.1975 60.1617 15.7775 59.1699 15.72C59.0771 15.72 58.9881 15.6831 58.9225 15.6175C58.8568 15.5519 58.8199 15.4628 58.8199 15.37C58.8199 15.2772 58.8568 15.1882 58.9225 15.1225C58.9881 15.0569 59.0771 15.02 59.1699 15.02C60.3594 15.0805 61.4801 15.5961 62.2999 16.46C62.3579 16.5318 62.3851 16.6235 62.3757 16.7153C62.3664 16.8071 62.3212 16.8914 62.2499 16.95L62.2199 17Z" fill="#0E3944"/>
<path d="M52.06 15.15C52.0016 15.1698 51.9384 15.1698 51.88 15.15C50.8804 15.0824 49.8909 15.385 49.1 16C49.0346 16.0642 48.9466 16.1001 48.855 16.1001C48.7634 16.1001 48.6754 16.0642 48.61 16C48.5452 15.9329 48.509 15.8433 48.509 15.75C48.509 15.6568 48.5452 15.5671 48.61 15.5C49.5678 14.7387 50.7811 14.3736 52 14.48C52.092 14.4925 52.1756 14.5401 52.2334 14.6127C52.2911 14.6854 52.3186 14.7776 52.31 14.87C52.3017 14.9366 52.2733 14.999 52.2287 15.049C52.184 15.0991 52.1252 15.1343 52.06 15.15V15.15Z" fill="#0E3944"/>
<path d="M61.15 20.72C61.09 21.59 60.64 22.27 60.15 22.23C59.66 22.19 59.33 21.46 59.39 20.59C59.45 19.72 59.9 19.04 60.39 19.08C60.88 19.12 61.22 19.85 61.15 20.72Z" fill="#1A4850"/>
<path d="M51.27 19.92C51.2 20.79 50.75 21.47 50.27 21.43C49.79 21.39 49.45 20.66 49.52 19.79C49.59 18.92 50.03 18.24 50.52 18.28C51.01 18.32 51.33 19.05 51.27 19.92Z" fill="#1A4850"/>
<path d="M52 28.52C52 28.52 56.32 29.46 58.66 28.46C58.66 28.46 57.14 31.6 54.78 31.13C54.1144 31.0091 53.4979 30.6984 53.0047 30.2354C52.5115 29.7723 52.1626 29.1766 52 28.52V28.52Z" fill="#1A4850"/>
<path d="M58.83 20.1101C58.83 20.1101 59.63 18.0101 60.46 18.2301C61.29 18.4501 61.79 20.3401 61.79 20.3401L63.09 19.7701L61.83 19.8401C61.83 19.8401 61.33 17.8401 60.5 17.8401C59.31 17.7101 58.83 20.1101 58.83 20.1101Z" fill="#1A4850"/>
<path d="M51.9999 19.85C51.9999 19.85 51.5299 17.66 50.6699 17.75C49.8099 17.84 48.9999 19.63 48.9999 19.63L47.8099 18.87L49.0399 19.13C49.0399 19.13 49.8299 17.27 50.6699 17.32C51.8899 17.41 51.9999 19.85 51.9999 19.85Z" fill="#1A4850"/>
<path d="M55.8299 25.2C55.6676 25.2775 55.4963 25.3346 55.3199 25.37L55.1699 24.62C55.8099 24.5 55.9699 24.13 55.9999 23.83C56.0244 23.6565 55.9988 23.4796 55.9262 23.3202C55.8535 23.1608 55.7369 23.0254 55.5899 22.93C55.4599 22.88 55.3199 22.93 55.1599 23.17L54.5599 22.71C54.6862 22.4876 54.8865 22.3167 55.126 22.2272C55.3654 22.1376 55.6288 22.135 55.8699 22.22C56.1706 22.3773 56.4166 22.6221 56.5754 22.922C56.7343 23.2219 56.7986 23.5628 56.7599 23.9C56.7345 24.1798 56.6349 24.4477 56.4715 24.6763C56.308 24.9048 56.0865 25.0855 55.8299 25.2V25.2Z" fill="#DB614D"/>
<path d="M56 8.00003C56 8.00003 56.43 13 52.74 16.06C53.5568 14.4706 54.1202 12.7634 54.41 11C54.41 11 51.41 16.13 48.65 16.63C46.3532 17.14 44.0945 17.8082 41.89 18.63C41.89 18.63 43.68 6.48003 55.66 5.73003C67.64 4.98003 70.29 12.45 68.08 20.66C68.08 20.66 63.32 18.61 62.42 13.86C62.42 13.86 63.58 17.48 57.23 16.04C57.5844 14.6869 57.6582 13.2755 57.4466 11.8928C57.2351 10.5101 56.7428 9.18533 56 8.00003V8.00003Z" fill="#0E3944"/>
<path d="M96.35 153.23C57.83 161.23 30.51 151.12 30.51 151.12L45.85 94L46.13 93L46.47 91.71L46.76 90.63L46.95 89.95L47.24 88.88L47.48 87.97L47.72 87.07L47.62 86.98C34.09 75.17 35 47.52 35 47.52C35.5368 46.6384 36.2647 45.8886 37.1302 45.3261C37.9956 44.7635 38.9764 44.4026 40 44.27C45.194 52.2985 51.8818 59.2546 59.7 64.76C67 57.41 72.19 37 72.19 37C73.5236 36.4184 74.9805 36.1761 76.4305 36.2947C77.8806 36.4134 79.2787 36.8893 80.5 37.68C88.5 50.36 83.28 76.52 82.4 80.6C82.32 80.95 82.28 81.14 82.28 81.14C82.45 81.49 82.62 81.85 82.78 82.21L83.11 82.92C83.44 83.64 83.76 84.35 84.11 85.07C84.32 85.54 84.52 86.01 84.71 86.49C85.1 87.4 85.47 88.31 85.83 89.23C98.33 121.11 96.35 153.23 96.35 153.23Z" fill="#FFB878"/>
<path d="M82.78 82.16L82 81.47C81.43 81 81.28 81.08 81 81.25C80.34 81.6 79.64 81.81 78.21 80.41C77.68 79.88 77.38 79.79 77.21 79.81C77.04 79.83 76.73 80.09 76.45 80.41C76.1607 80.8551 75.7461 81.2047 75.2585 81.4146C74.771 81.6246 74.2322 81.6856 73.71 81.59C73.3969 81.4917 73.06 81.5002 72.7522 81.6142C72.4445 81.7283 72.1834 81.9414 72.01 82.22C71.8841 82.4188 71.7179 82.5889 71.5221 82.7193C71.3263 82.8497 71.1053 82.9376 70.8734 82.9772C70.6415 83.0168 70.4039 83.0072 70.1759 82.9491C69.9479 82.8911 69.7347 82.7857 69.55 82.64C68.84 82.25 68.27 82.49 67.39 82.91C66.8627 83.2707 66.2388 83.4638 65.6 83.4638C64.9611 83.4638 64.3372 83.2707 63.81 82.91C63.45 82.65 63.31 82.68 63.3 82.68C63.29 82.68 63 83.06 62.88 83.31C62.7654 83.6299 62.5852 83.9224 62.351 84.1686C62.1168 84.4149 61.8338 84.6095 61.52 84.74C61.1342 84.8171 60.7368 84.8153 60.3518 84.7345C59.9668 84.6537 59.6022 84.4957 59.28 84.27C57.85 83.47 57.44 84.04 56.77 84.98C56.1 85.92 55.21 87.18 53.08 86.28C51.72 85.71 51.35 86.1 50.74 86.75C50.4528 87.1349 50.0803 87.4481 49.6517 87.665C49.2232 87.8819 48.7503 87.9965 48.27 88C48.0051 87.9994 47.7408 87.9759 47.48 87.93L47.72 87.03L47.62 86.94C48.0548 87.0641 48.5175 87.05 48.9439 86.8995C49.3703 86.749 49.7394 86.4696 50 86.1C50.65 85.41 51.45 84.55 53.46 85.39C54.85 85.98 55.29 85.39 55.95 84.39C56.61 83.39 57.55 82.15 59.76 83.39C60.1826 83.6941 60.702 83.8328 61.22 83.78C61.56 83.67 61.76 83.27 61.97 82.85C62.18 82.43 62.48 81.85 63.04 81.7C63.2775 81.6625 63.5204 81.6771 63.7518 81.7427C63.9831 81.8083 64.1975 81.9234 64.38 82.08C65.38 82.74 66.04 82.4 66.94 81.97C67.3873 81.6704 67.9058 81.4942 68.4431 81.459C68.9804 81.4239 69.5174 81.5312 70 81.77C70.69 82.16 70.81 82.01 71.22 81.56C71.5048 81.1406 71.9123 80.8194 72.3866 80.6404C72.861 80.4613 73.3791 80.4333 73.87 80.56C74.74 80.73 75.17 80.26 75.66 79.7C75.8262 79.4497 76.0427 79.2368 76.2958 79.075C76.549 78.9131 76.8331 78.8058 77.13 78.76C77.4563 78.7858 77.7741 78.877 78.0644 79.0282C78.3548 79.1794 78.6117 79.3875 78.82 79.64C79.82 80.64 80.1 80.5 80.43 80.32C80.7252 80.1236 81.0788 80.0343 81.4318 80.0671C81.7848 80.0998 82.116 80.2526 82.37 80.5C82.29 80.85 82.25 81.04 82.25 81.04C82.45 81.44 82.62 81.8 82.78 82.16Z" fill="#F2A668"/>
<path d="M84.67 86.4401L84 85.7201C83.5168 85.1385 82.9776 84.6059 82.39 84.1301C81.9789 83.8207 81.4895 83.6325 80.9771 83.5865C80.4646 83.5406 79.9496 83.6388 79.49 83.8701C78.81 84.1101 78.49 84.2001 78.07 83.8701C77.9426 83.7319 77.788 83.6216 77.6159 83.5462C77.4438 83.4707 77.2579 83.4318 77.07 83.4318C76.8821 83.4318 76.6962 83.4707 76.5241 83.5462C76.3519 83.6216 76.1973 83.7319 76.07 83.8701C75.8985 84.0529 75.6645 84.1647 75.4145 84.1832C75.1644 84.2017 74.9166 84.1257 74.72 83.9701C73.35 83.1901 72.41 84.4101 71.78 85.2001C71.02 86.2001 70.86 86.2001 70.62 86.0101C70.2951 85.7595 69.9034 85.6107 69.4942 85.5822C69.0849 85.5538 68.6764 85.6469 68.32 85.8501C67.8732 86.0765 67.3706 86.1695 66.8724 86.1181C66.3741 86.0667 65.9011 85.8729 65.51 85.5601C65.1996 85.3377 64.8389 85.1957 64.4602 85.1468C64.0815 85.098 63.6966 85.1437 63.34 85.2801C64.06 84.7101 64.41 84.5701 64.94 84.9701C65.3937 85.3212 65.9512 85.5117 66.525 85.5117C67.0987 85.5117 67.6562 85.3212 68.11 84.9701C68.88 84.5701 69.39 84.3301 70.11 84.7001C70.3538 84.8669 70.6446 84.9511 70.9399 84.9403C71.2351 84.9295 71.519 84.8243 71.75 84.6401C72.0877 84.323 72.3596 83.9424 72.55 83.5201C72.76 83.1501 72.99 82.7201 73.21 82.6701C73.43 82.6201 73.55 82.6701 73.81 82.9101C74.0019 83.085 74.2282 83.218 74.4744 83.3006C74.7206 83.3833 74.9814 83.4137 75.24 83.3901C75.4647 83.3328 75.6746 83.2282 75.8556 83.0834C76.0367 82.9385 76.1848 82.7567 76.29 82.5501C76.4 82.4001 76.54 82.1801 76.63 82.1701C76.72 82.1601 76.84 82.1701 77.28 82.5401C77.6346 82.9541 78.1242 83.2294 78.6623 83.3173C79.2003 83.4051 79.7521 83.2998 80.22 83.0201C80.4016 82.8994 80.614 82.8335 80.832 82.8299C81.0501 82.8264 81.2645 82.8854 81.45 83.0001C82.4006 83.5589 83.2803 84.2305 84.07 85.0001C83.76 84.2801 83.44 83.5701 83.07 82.8501C82.6963 82.5536 82.2983 82.2893 81.88 82.0601C81.5516 81.8801 81.1812 81.7909 80.8068 81.8014C80.4325 81.812 80.0678 81.9219 79.75 82.1201C79.18 82.3801 78.81 82.5601 77.88 81.7801C77.6976 81.5846 77.4758 81.4301 77.2293 81.3266C76.9828 81.2232 76.7172 81.1732 76.45 81.1801C76.2342 81.2337 76.0328 81.334 75.86 81.474C75.6872 81.614 75.5473 81.7901 75.45 81.9901C75.31 82.1901 75.17 82.3901 75.05 82.4101C74.93 82.4301 74.81 82.4101 74.37 82.1001C74.1809 81.9333 73.9575 81.8101 73.7156 81.7393C73.4737 81.6684 73.2191 81.6516 72.97 81.6901C72.3 81.8401 71.97 82.4801 71.65 83.0501C71.5179 83.3491 71.3353 83.6231 71.11 83.8601C71.03 83.9201 70.92 84.0101 70.57 83.8601C70.1068 83.6338 69.5904 83.5394 69.0771 83.587C68.5639 83.6346 68.0736 83.8225 67.66 84.1301C66.8 84.5801 66.31 84.8001 65.56 84.2301C64.29 83.2801 63.28 84.1101 62.46 84.7701C61.64 85.4301 60.88 86.0601 59.74 85.4301C58 84.4301 57.11 85.4301 56.4 86.1901C55.69 86.9501 55.23 87.4201 54.06 87.0601C51.46 86.2601 50.53 87.6201 49.78 88.7001C49.5777 89.0256 49.3395 89.3275 49.07 89.6001C49.0174 89.6539 48.9529 89.6946 48.8817 89.7189C48.8105 89.7433 48.7345 89.7505 48.66 89.7401C48.1062 89.6004 47.6055 89.3014 47.22 88.8801L47 89.9301C47.4645 90.3496 48.0415 90.6242 48.66 90.7201H48.78C49.1527 90.7124 49.5092 90.5662 49.78 90.3101C50.1046 89.9893 50.393 89.6338 50.64 89.2501C51.34 88.2501 51.9 87.4201 53.8 88.0001C54.4081 88.1887 55.0605 88.1789 55.6628 87.9722C56.265 87.7655 56.7859 87.3724 57.15 86.8501C57.84 86.1101 58.23 85.7101 59.29 86.2901C59.6641 86.5205 60.0906 86.6524 60.5295 86.6734C60.9685 86.6944 61.4056 86.6038 61.8 86.4101L61.46 86.7401C60.39 87.7901 59.97 88.0501 59.41 87.6301C58.09 86.6301 56.99 87.4801 56.1 88.1701C55.1 88.9701 54.37 89.4101 53.36 88.8401C53.112 88.6769 52.8322 88.5685 52.5391 88.5219C52.2459 88.4754 51.9463 88.4918 51.66 88.5701C50.82 88.8701 50.44 89.8501 50.1 90.7001C49.86 91.3201 49.59 92.0301 49.28 92.0301C48.314 91.8347 47.435 91.3374 46.77 90.6101L46.48 91.6901C47.2449 92.4155 48.2233 92.8749 49.27 93.0001C49.5291 92.9888 49.78 92.9063 49.9953 92.7616C50.2105 92.6169 50.3817 92.4157 50.49 92.1801C50.49 92.2701 50.4 92.3501 50.35 92.4401C50.1236 93.021 49.7305 93.522 49.22 93.8801C48.42 94.2601 47.11 93.6201 46.13 92.9501L45.85 93.9501C46.6835 94.5299 47.6574 94.8752 48.67 94.9501C49.0151 94.9588 49.3575 94.8869 49.67 94.7401C50.3791 94.2972 50.9317 93.6432 51.25 92.8701C51.59 92.2501 51.91 91.6601 52.36 91.5401C52.867 91.4884 53.3739 91.6394 53.77 91.9601C54.0374 92.1672 54.3471 92.3131 54.6772 92.3874C55.0072 92.4617 55.3495 92.4626 55.68 92.3901C56.47 92.1501 56.83 91.3201 57.12 90.6601C57.25 90.3501 57.47 89.8401 57.62 89.8001C57.77 89.7601 57.76 89.8001 57.97 89.9501C59.44 90.9501 60.65 90.0201 61.37 89.4401C61.5721 89.3126 61.7825 89.199 62 89.1001C62.0802 89.2271 62.193 89.3303 62.3267 89.3989C62.4604 89.4675 62.61 89.499 62.76 89.4901C63.17 89.4901 63.39 89.1101 63.56 88.8301C63.73 88.5501 63.81 88.4301 63.92 88.4101C64.1068 88.432 64.2818 88.5125 64.42 88.6401C64.7999 88.9452 65.2727 89.1115 65.76 89.1115C66.2473 89.1115 66.72 88.9452 67.1 88.6401C67.3518 88.4081 67.6672 88.2566 68.0057 88.2049C68.3442 88.1532 68.6904 88.2038 69 88.3501C71.32 89.5501 72.49 88.8201 73.72 87.1601C74.11 86.6301 74.62 86.7001 75.44 86.8601C76.26 87.0201 77.27 87.2001 77.71 86.0201C77.77 85.8601 77.82 85.8001 77.84 85.7901C77.86 85.7801 78.41 85.9601 78.68 86.1001C79.0306 86.329 79.4253 86.4819 79.8387 86.5491C80.252 86.6163 80.6749 86.5962 81.08 86.4901C81.43 86.3501 82.41 87.0801 83.08 87.6101C83.8922 88.2822 84.8117 88.813 85.8 89.1801C85.43 88.2601 85.06 87.3501 84.67 86.4401ZM77.42 84.8701C77.2506 84.9448 77.0999 85.0562 76.9789 85.1963C76.8578 85.3364 76.7694 85.5016 76.72 85.6801C76.6 85.9901 76.48 86.0401 75.57 85.8701C75.102 85.6934 74.5911 85.6649 74.1063 85.7883C73.6216 85.9117 73.1865 86.1811 72.86 86.5601C71.79 88.0201 71.14 88.3601 69.41 87.4601C68.9601 87.2363 68.4566 87.1429 67.9564 87.1907C67.4562 87.2384 66.9794 87.4252 66.58 87.7301C65.88 88.1201 65.58 88.2701 65 87.8501C64.8265 87.693 64.6222 87.5736 64.4001 87.4996C64.1781 87.4256 63.9431 87.3985 63.71 87.4201C63.4906 87.4909 63.2885 87.6066 63.1163 87.7598C62.9441 87.913 62.8057 88.1004 62.71 88.3101V88.3101C62.06 87.6601 61.29 88.3101 60.78 88.6801C59.95 89.3501 59.38 89.6801 58.58 89.1501C58.4177 89.0127 58.2257 88.915 58.0192 88.8647C57.8127 88.8143 57.5972 88.8128 57.39 88.8601C56.78 89.0301 56.51 89.6601 56.24 90.2801C55.97 90.9001 55.77 91.3501 55.42 91.4601C55.0335 91.4842 54.6509 91.3709 54.34 91.1401C54.0322 90.8995 53.6774 90.7262 53.2984 90.6315C52.9194 90.5367 52.5248 90.5226 52.14 90.5901C51.8273 90.701 51.5398 90.8731 51.2943 91.0963C51.0488 91.3195 50.8501 91.5893 50.71 91.8901C50.85 91.6101 50.97 91.3101 51.08 91.0201C51.34 90.3601 51.63 89.6101 52.08 89.4601C52.231 89.4343 52.3857 89.4387 52.535 89.473C52.6843 89.5073 52.8254 89.5709 52.95 89.6601C54.61 90.6001 55.87 89.6601 56.8 88.9101C57.73 88.1601 58.25 87.9101 58.9 88.3801C60.23 89.3801 61.35 88.2901 62.25 87.3801C63.34 86.3101 64.06 85.7001 65.11 86.3801C65.6322 86.7769 66.2532 87.023 66.9055 87.0918C67.5578 87.1605 68.2165 87.0492 68.81 86.7701C69.44 86.5301 69.72 86.4501 70.14 86.7701C71.26 87.6401 72.14 86.5301 72.71 85.7701C73.49 84.7701 73.84 84.4901 74.37 84.7701C74.7366 85.0319 75.1832 85.1572 75.6325 85.1243C76.0818 85.0914 76.5054 84.9024 76.83 84.5901C77.2 84.3001 77.23 84.2801 77.55 84.5901C77.6251 84.6533 77.7054 84.7101 77.79 84.7601C77.6599 84.7682 77.5334 84.8058 77.42 84.8701V84.8701ZM80.67 85.5601C80.1103 85.6476 79.5382 85.5189 79.07 85.2001L78.81 85.0701C79.1523 85.0278 79.4881 84.9438 79.81 84.8201C80.1153 84.6355 80.4689 84.5464 80.8253 84.5642C81.1816 84.582 81.5245 84.7059 81.81 84.9201C82.3383 85.3668 82.8268 85.8587 83.27 86.3901L83.57 86.7201C82.46 85.9101 81.51 85.2301 80.67 85.5601Z" fill="#F2A668"/>
<path d="M67.7399 37.26C67.5008 42.0124 68.5365 46.7424 70.7399 50.96C77.8899 64.28 78.4599 80.05 78.4599 80.05C80.33 79.5969 82.2798 79.5841 84.1556 80.0128C86.0315 80.4414 87.7822 81.2996 89.2699 82.52C89.2699 82.52 89.0999 56.35 81.2699 36.2C76.7357 35.5908 72.1239 35.9522 67.7399 37.26V37.26Z" fill="#F24052"/>
<path d="M45.4 43.49C45.4 43.49 48.4 50.58 43.73 63.98C40.12 74.43 38.22 90.78 38.22 90.78C37.0426 91.094 35.9499 91.666 35.0211 92.4548C34.0922 93.2435 33.3506 94.2291 32.85 95.34C29.73 75 37.11 77.36 33 47C33 47 38.61 42.44 45.4 43.49Z" fill="#F24052"/>
<path d="M45.4 43.49C45.4 43.49 40.7 41.42 37.48 47C37.48 47 42.89 52.41 44.25 58.28L38.14 62.8C39.2156 67.8143 39.795 72.9223 39.87 78.05C39.87 78.05 50.94 51.74 45.4 43.49Z" fill="#03A596"/>
<path d="M67.74 37.26C67.74 37.26 71.11 34.61 77.19 40.77C77.19 40.77 71.67 45.68 72.46 50.96C72.46 50.96 77.1 51.27 79.93 53.77C79.93 53.77 77.55 61.94 76.66 66.11C76.66 66.11 72.48 54.98 69.79 50.96C67.1 46.94 67.74 37.26 67.74 37.26Z" fill="#03A596"/>
<path d="M14.28 61.5601C14.28 61.5601 10.73 74.4201 4.72998 74.6401C4.72998 74.6401 7.35998 99.6401 16.73 100.64C16.73 100.64 22.58 90.3401 20.66 81.1001C18.74 71.8601 17.35 72.8601 17.35 72.8601L14.28 61.5601Z" fill="#03A596"/>
</g>
<defs>
<clipPath id="clip0">
<rect width="117.99" height="258.29" fill="white"/>
</clipPath>
</defs>
</svg>
