<svg width="127" height="284" viewBox="0 0 127 284" fill="none" xmlns="http://www.w3.org/2000/svg">
<g clip-path="url(#clip0)">
<path d="M33.6268 47.9243C22.4911 54.8829 10.5532 77.1103 6.49432 87.0881C2.43544 97.066 5.53929 114.539 30.7712 99.0884C56.0031 83.6376 33.6268 47.9243 33.6268 47.9243Z" fill="#CFD8DC"/>
<path d="M98.9699 49.8413C98.9699 49.8413 123.801 70.8514 126.666 88.593C129.531 106.335 113.372 111.415 100.565 89.4652C87.7579 67.5158 98.9699 49.8413 98.9699 49.8413Z" fill="#CFD8DC"/>
<path d="M2.25385 282.217C2.25065 282.813 2.28894 283.409 2.36845 284H32.4042C32.4042 283.406 32.4042 282.811 32.4042 282.217C32.1211 277.202 31.1572 272.249 29.5391 267.495L22.0325 264.255C21.6576 267.383 20.0772 270.238 17.6298 272.211C17.0949 272.637 16.5191 273.01 15.9108 273.322C15.6434 273.466 15.3664 273.6 15.0799 273.735C14.4599 274.014 13.8218 274.251 13.1699 274.444C10.8033 275.055 8.39231 275.479 5.95937 275.709C2.74091 276.246 2.25385 279.955 2.25385 282.217Z" fill="#03A596"/>
<path d="M2.25385 282.217C2.25065 282.813 2.28894 283.409 2.36845 284H32.4042C32.4042 283.406 32.4042 282.811 32.4042 282.217H2.25385Z" fill="#01877B"/>
<path d="M15.9109 273.351L20.0557 274.683L21.0108 273.169L17.6777 272.211C17.1289 272.65 16.5369 273.032 15.9109 273.351V273.351Z" fill="#F24052"/>
<path d="M13.1604 274.473L15.9682 276.389L17.6968 275.709L15.08 273.792C14.4562 274.062 13.8149 274.289 13.1604 274.473V274.473Z" fill="#F24052"/>
<path d="M55.5827 282.217C55.6201 282.823 55.7324 283.422 55.917 284H75.9727C76.2248 283.428 76.4138 282.83 76.5361 282.217C78.513 272.632 65.2095 260.852 65.2095 260.852L60.9882 266.507C60.9882 266.507 61.4848 275.546 57.9035 277.434C57.0678 277.889 56.3948 278.594 55.9786 279.452C55.5625 280.31 55.424 281.277 55.5827 282.217V282.217Z" fill="#03A596"/>
<path d="M76.4884 282.217H55.5828C55.6201 282.823 55.7324 283.422 55.917 284H75.9727C76.2085 283.426 76.3814 282.828 76.4884 282.217V282.217Z" fill="#01877B"/>
<path d="M58.7727 276.716C58.7727 276.716 67.2056 274.799 71.0448 277.281V275.882C71.0448 275.882 63.9872 272.421 58.7727 276.716Z" fill="#F24052"/>
<path d="M60.4438 274.568C60.4438 274.568 65.8302 272.095 71.0447 274.568L70.4526 273.169C70.4526 273.169 64.2162 270.792 60.4438 274.568Z" fill="#F24052"/>
<path d="M88.9897 126.894C88.9897 145.997 87.0797 165.454 86.6404 170.39C86.2011 175.327 81.063 230.449 80.3467 251.776C79.9838 262.702 76.5266 275.92 76.5266 275.92C76.5266 275.92 66.155 267.514 60.2911 273.763L58.8203 265.233L61.5708 258.523C61.5708 258.523 58.6293 252.974 61.036 248.66C63.4427 244.347 64.1876 152.15 64.1876 152.15L59.5557 151.853L35.3361 258.523V264.6C35.3361 264.6 32.4137 272.345 32.3755 277.281L16.6748 272.211L19.1006 265.233L18.4607 255.236L22.8634 242.2C22.8634 242.2 39.1562 140.236 37.9051 128.792L88.9897 126.894Z" fill="#105E99"/>
<path d="M37.1318 46.4962C37.1318 46.4962 48.1337 40.7453 64.2833 41.0808C80.4329 41.4162 91.2534 45.3365 94.1185 48.0394C96.9836 50.7423 90.2983 141.502 90.2983 141.502C90.2983 141.502 61.0075 143.505 35.8616 137.668C35.8616 137.668 39.6817 106.776 39.0418 85.6121C38.402 64.4487 37.1318 46.4962 37.1318 46.4962Z" fill="#FFB878"/>
<path d="M58.3142 33.1252C58.3142 33.1252 59.8518 39.4608 57.512 41.9913C57.512 41.9913 61.3321 48.1639 69.9274 41.9242C69.9274 41.9242 68.2847 37.7643 69.9274 35.0614L58.3142 33.1252Z" fill="#FEAE94"/>
<path d="M75.2088 21.7577C75.2088 21.7577 78.456 18.5084 78.8571 22.304C79.3155 26.7035 75.333 28.4767 74.5594 27.0965C73.7859 25.7162 75.2088 21.7577 75.2088 21.7577Z" fill="#FEAE94"/>
<path d="M52.5269 21.9877C52.5269 21.9877 49.2798 18.7384 48.8787 22.534C48.4202 26.9335 52.4027 28.7067 53.1763 27.3264C53.9499 25.9462 52.5269 21.9877 52.5269 21.9877Z" fill="#FEAE94"/>
<path d="M64.1973 37.6973C71.3982 37.6973 75.4475 32.9719 75.4475 18.8246C75.4475 11.5018 71.7611 7.0448 63.6911 7.0448C55.6211 7.0448 52.2307 11.5209 52.2307 18.8246C52.2403 34.0262 56.7576 37.6973 64.1973 37.6973Z" fill="#FEAE94"/>
<path d="M54.6182 23.8662C54.6323 24.2568 54.7797 24.6307 55.0356 24.9253C55.2915 25.2199 55.6405 25.4173 56.0241 25.4847C56.4077 25.552 56.8027 25.4852 57.143 25.2952C57.4834 25.1053 57.7485 24.8039 57.8939 24.4413C57.8797 24.0508 57.7324 23.6769 57.4765 23.3823C57.2206 23.0877 56.8716 22.8902 56.488 22.8229C56.1044 22.7555 55.7094 22.8224 55.369 23.0123C55.0287 23.2022 54.7636 23.5037 54.6182 23.8662V23.8662Z" fill="#DB614D"/>
<path d="M69.4214 24.2688C69.5332 24.6399 69.767 24.9621 70.0846 25.1828C70.4022 25.4034 70.785 25.5097 71.1704 25.4841C71.5559 25.4585 71.9214 25.3027 72.2073 25.042C72.4932 24.7812 72.6827 24.431 72.7449 24.0484C72.6331 23.6773 72.3993 23.3551 72.0817 23.1344C71.764 22.9137 71.3813 22.8075 70.9959 22.8331C70.6104 22.8587 70.2449 23.0145 69.959 23.2752C69.6731 23.5359 69.4836 23.8862 69.4214 24.2688Z" fill="#DB614D"/>
<path d="M56.9582 16.4093C57.0049 16.4172 57.0528 16.4153 57.0989 16.4038C57.1449 16.3922 57.188 16.3713 57.2256 16.3422C58.079 15.8069 59.0988 15.6056 60.0907 15.7767C60.184 15.7911 60.2793 15.7694 60.3573 15.7161C60.4353 15.6627 60.4902 15.5816 60.5109 15.4891C60.5277 15.3952 60.5071 15.2983 60.4536 15.2194C60.4 15.1406 60.3177 15.086 60.2244 15.0674C59.0222 14.8517 57.7833 15.1017 56.7576 15.7671C56.6841 15.8273 56.6362 15.9134 56.6238 16.0078C56.6114 16.1022 56.6353 16.1978 56.6908 16.2751C56.7219 16.3167 56.7623 16.3505 56.8087 16.3738C56.8551 16.3971 56.9063 16.4093 56.9582 16.4093Z" fill="#0C476B"/>
<path d="M70.7297 16.4668C70.8255 16.4413 70.9077 16.3795 70.9589 16.2943C70.9927 16.2613 71.0195 16.2218 71.0379 16.1781C71.0562 16.1345 71.0656 16.0876 71.0656 16.0403C71.0656 15.993 71.0562 15.9461 71.0379 15.9025C71.0195 15.8588 70.9927 15.8193 70.9589 15.7863C69.956 15.0899 68.7281 14.7989 67.5208 14.9716C67.4288 14.9902 67.3471 15.043 67.2923 15.1194C67.2374 15.1958 67.2132 15.2902 67.2247 15.3837C67.2389 15.479 67.29 15.5647 67.367 15.6221C67.4439 15.6796 67.5404 15.7042 67.6354 15.6905C68.6379 15.5448 69.6586 15.777 70.5005 16.3422C70.56 16.4094 70.6411 16.4535 70.7297 16.4668Z" fill="#0C476B"/>
<path d="M57.6936 20.4925C57.6936 21.3839 58.1043 22.1123 58.6486 22.1123C59.193 22.1123 59.5464 21.3839 59.5464 20.4925C59.5464 19.6011 59.1452 18.863 58.6486 18.863C58.152 18.863 57.6936 19.5915 57.6936 20.4925Z" fill="#1A4850"/>
<path d="M67.3105 20.4925C67.3105 21.3839 67.7117 22.1123 68.2083 22.1123C68.7049 22.1123 69.106 21.3839 69.106 20.4925C69.106 19.6011 68.7049 18.863 68.2083 18.863C67.7117 18.863 67.3105 19.5915 67.3105 20.4925Z" fill="#1A4850"/>
<path d="M72.2578 10.5433C72.2578 10.5433 67.2535 10.1983 56.2611 9.40274C56.2611 9.40274 52.2404 13.6105 52.5173 23.9622C52.5173 23.9622 46.0804 5.31958 64.8754 5.31958C83.6704 5.31958 75.2089 23.5309 75.2089 23.5309C75.2089 23.5309 75.7628 14.0035 72.2578 10.5433Z" fill="#0C476B"/>
<path d="M63.7387 25.189L64.2831 24.6426L62.8601 23.2241C64.2353 21.2592 64.2258 16.7255 64.2258 16.5146H63.4618C63.4618 16.5626 63.4618 21.4413 62.0579 22.9653L61.8096 23.2432L63.7387 25.189Z" fill="#DB614D"/>
<path d="M68.5235 27.5469C68.5235 27.5469 61.4372 27.844 57.8558 26.8951C57.7628 27.5835 57.82 28.284 58.0235 28.948C58.227 29.6119 58.5719 30.2236 59.0343 30.7405C59.4966 31.2575 60.0655 31.6674 60.7014 31.9418C61.3373 32.2162 62.025 32.3486 62.7169 32.3298C68.5235 32.5886 68.5235 27.5469 68.5235 27.5469Z" fill="#1A4850"/>
<path d="M54.8952 11.5018C54.8952 11.5018 51.734 8.70301 52.2402 5.28121C52.7464 1.85941 60.0523 -0.757268 66.4224 0.546276C66.4224 0.546276 69.8128 -1.2461 74.3301 1.65812C78.8473 4.56234 81.8652 13.16 77.8828 18.5371C77.8828 18.5371 78.8378 9.45063 73.6233 12.5274C67.7302 9.83823 61.0448 9.47213 54.8952 11.5018V11.5018Z" fill="#0D527C"/>
<path d="M73.1554 41.675C73.1554 41.675 65.7157 91.1425 73.1554 115.028C73.1554 115.028 97.9862 114.204 100.402 113.379C102.819 112.555 105.178 60.9118 98.9699 49.8317C91.4968 44.3301 82.421 41.4624 73.1554 41.675V41.675Z" fill="#03A596"/>
<path d="M124.46 101.073C122.187 104.906 114.757 109.229 108.224 110.657C105.359 111.28 102.599 111.328 100.584 110.494C100.584 110.494 99.5143 99.8553 93.4021 93.9989C93.6471 93.3073 94.0019 92.66 94.4526 92.0819C96.2099 89.7528 100.593 86.1968 110.736 87.2895C125.482 88.8326 127.735 95.59 124.46 101.073Z" fill="#CFD8DC"/>
<path d="M81.2732 42.2981C81.2732 42.2981 77.1761 48.3078 71.9617 51.0778C71.8485 50.3735 71.7784 49.6629 71.7516 48.95C71.7516 48.6145 71.7516 48.2407 71.7516 47.8381C71.7494 47.1209 71.7876 46.404 71.8662 45.6911C71.8662 45.2694 71.9712 44.8381 72.0572 44.3972C72.5824 41.5217 73.9672 38.5791 77.1379 37.2085C77.8023 37.3986 78.4202 37.725 78.9525 38.167C79.1981 38.3731 79.4279 38.5973 79.6401 38.8379C79.9808 39.231 80.2756 39.662 80.5187 40.1223C80.6879 40.4295 80.8316 40.75 80.9485 41.0808C81.0898 41.4769 81.1984 41.8841 81.2732 42.2981Z" fill="#F24052"/>
<path d="M80.9198 41.1287C78.2666 44.1772 75.1768 46.8131 71.7515 48.9499C71.7515 48.6144 71.7515 48.2406 71.7515 47.8381C75.0343 45.7295 77.9886 43.1457 80.5187 40.1702C80.678 40.4782 80.8121 40.7988 80.9198 41.1287V41.1287Z" fill="#CFD8DC"/>
<path d="M79.6114 38.8763C77.3149 41.466 74.7031 43.7555 71.8374 45.6911C71.8374 45.2694 71.9425 44.8381 72.0284 44.3972C74.5557 42.6053 76.8693 40.5277 78.9237 38.2053C79.1693 38.4114 79.3992 38.6357 79.6114 38.8763V38.8763Z" fill="#CFD8DC"/>
<path d="M100.555 116.744C100.555 117.07 100.555 117.396 100.555 117.702C100.555 118.546 100.412 119.217 100.183 119.303C99.4666 119.571 74.3398 121.22 74.3398 121.22L74.0246 119.552L73.8527 118.594L73.5375 117.146L73.3561 116.188L73.1555 115.018C82.1901 113.418 100.403 113.37 100.403 113.37C100.403 113.37 100.403 113.725 100.469 114.252C100.469 114.53 100.469 114.856 100.469 115.21C100.469 115.565 100.555 116.226 100.555 116.744Z" fill="#F24052"/>
<path d="M100.517 115.22C91.4976 115.256 82.4908 115.896 73.5565 117.137L73.375 116.178C82.3544 114.94 91.4056 114.3 100.469 114.261C100.479 114.539 100.498 114.865 100.517 115.22Z" fill="#CFD8DC"/>
<path d="M100.555 116.744C100.555 117.07 100.555 117.396 100.555 117.702C91.6791 117.751 82.8159 118.391 74.0244 119.619L73.8525 118.661C82.7021 117.436 91.6221 116.796 100.555 116.744V116.744Z" fill="#CFD8DC"/>
<path d="M86.908 60.2122L83.021 60.6818L78.8953 75.5576H82.0182L83.6131 70.3817L87.1945 70.2188L89.4866 74.6278L93.3831 73.8994L86.908 60.2122ZM84.1384 67.8801L84.9311 63.7586L86.908 67.8801H84.1384Z" fill="#CFD8DC"/>
<path d="M55.2868 41.6751C55.2868 41.6751 59.0401 91.2768 51.7627 115.229C51.7627 115.229 31.3251 114.405 29.3959 113.571C27.4668 112.737 27.9825 59.0429 33.6267 47.9244C40.0399 43.6669 47.5998 41.4858 55.2868 41.6751V41.6751Z" fill="#03A596"/>
<path d="M46.5864 42.2981C46.5864 42.2981 50.6835 48.3078 55.898 51.0778C56.0111 50.3735 56.0813 49.6629 56.1081 48.95C56.1081 48.6145 56.1081 48.2407 56.1081 47.8381C56.1103 47.1209 56.072 46.404 55.9935 45.6911C55.9935 45.2694 55.8884 44.8381 55.8025 44.3972C55.2772 41.5217 53.8924 38.5791 50.7217 37.2085C50.0573 37.3986 49.4394 37.725 48.9072 38.167C48.6615 38.3731 48.4317 38.5973 48.2195 38.8379C47.8788 39.231 47.584 39.662 47.3409 40.1223C47.1718 40.4295 47.028 40.75 46.9111 41.0808C46.7698 41.4769 46.6612 41.8841 46.5864 42.2981V42.2981Z" fill="#F24052"/>
<path d="M46.9399 41.1287C49.5931 44.1772 52.6829 46.8131 56.1082 48.9499C56.1082 48.6144 56.1082 48.2406 56.1082 47.8381C52.8254 45.7295 49.8711 43.1457 47.3411 40.1702C47.1817 40.4782 47.0476 40.7988 46.9399 41.1287Z" fill="#CFD8DC"/>
<path d="M48.2483 38.8763C50.5447 41.466 53.1565 43.7555 56.0222 45.6911C56.0222 45.2694 55.9172 44.8381 55.8312 44.3972C53.3039 42.6053 50.9903 40.5277 48.9359 38.2053C48.6903 38.4114 48.4605 38.6357 48.2483 38.8763V38.8763Z" fill="#CFD8DC"/>
<path d="M29.1094 116.935C29.1094 117.261 29.1094 117.597 29.1094 117.894C29.1094 118.737 29.1094 119.408 29.3386 119.495C29.9116 119.763 50.5307 121.412 50.5307 121.412L50.8745 119.734L51.056 118.776L51.3616 117.28L51.5526 116.322L51.7914 115.143C44.4281 113.533 29.4245 113.485 29.4245 113.485L29.329 114.376C29.329 114.654 29.2717 114.98 29.2431 115.335C29.2144 115.689 29.1285 116.427 29.1094 116.935Z" fill="#F24052"/>
<path d="M29.2144 115.421C36.6268 115.456 44.0241 116.097 51.3329 117.338L51.5239 116.38C44.1796 115.14 36.7475 114.499 29.3003 114.463C29.2812 114.74 29.243 115.066 29.2144 115.421Z" fill="#CFD8DC"/>
<path d="M29.1094 116.936C29.1094 117.261 29.1094 117.597 29.1094 117.894C36.4041 117.941 43.6831 118.582 50.8745 119.811L51.056 118.853C43.8035 117.624 36.4643 116.983 29.1094 116.936V116.936Z" fill="#CFD8DC"/>
<path d="M15.9682 54.2791C22.0135 55.8414 25.6713 86.7239 22.1759 93.9701C18.6805 101.216 13.6379 105.913 4.98533 99.0884C-3.66725 92.264 0.334329 56.9629 5.94036 54.5666C8.59535 53.4452 15.9682 54.2791 15.9682 54.2791Z" fill="#CFD8DC"/>
<path d="M16.054 52.6497C16.062 53.2235 16.0269 53.797 15.949 54.3654C15.8992 54.7847 15.7998 55.1966 15.6529 55.5923C14.8507 57.6722 12.8738 57.7585 10.0755 57.9118C7.70707 58.0364 6.42733 57.3559 6.01667 55.7936C5.87857 55.2753 5.82694 54.7377 5.86386 54.2025C5.8714 53.7785 5.9097 53.3556 5.97846 52.9373C5.97846 52.573 6.09307 52.1992 6.16947 51.7967C6.32227 51.097 6.51328 50.3398 6.75204 49.5155C7.22955 47.8669 12.062 47.5506 12.062 47.5506C13.5232 47.4164 15.567 47.7231 15.7866 49.3909C15.8917 50.196 15.9681 50.9149 16.0063 51.5666C16.0349 51.9596 16.054 52.3142 16.054 52.6497Z" fill="#F24052"/>
<path d="M3.67694 36.8634C4.50713 38.2098 5.19528 39.6392 5.73025 41.1287C6.26507 44.0042 6.57068 45.5569 7.56391 46.8796C8.55715 48.2023 8.03188 50.4931 8.03188 50.4931C8.03188 50.4931 11.852 52.4868 15.1373 50.0235C15.1373 50.0235 14.803 47.7423 15.1373 47.0905C15.8058 45.7965 17.9451 45.0968 18.6805 42.4802C19.3674 40.4917 20.3528 38.6203 21.6029 36.9305C21.6029 36.9305 20.9821 35.5695 19.8361 36.3938C18.69 37.2181 17.926 39.3363 17.3243 39.5472C17.2004 39.5895 17.0724 39.6185 16.9423 39.6335V39.6335C16.7101 39.6799 16.4705 39.674 16.2409 39.6159C16.0113 39.5579 15.7974 39.4493 15.6148 39.298C15.5882 39.2846 15.5652 39.2649 15.548 39.2405C14.4974 38.0136 14.2491 34.448 14.2969 32.809C14.3542 30.5757 14.2969 27.4894 12.9121 28.0166C11.5273 28.5438 12.7975 29.7898 11.7469 34.726L11.2408 34.7835C11.1453 35.1381 10.2093 31.793 9.98969 28.6588C9.82734 26.5022 8.42344 27.2977 8.07963 27.9782C7.73582 28.6588 8.24199 30.8058 8.33749 32.3681C8.41389 33.4033 8.49984 34.4768 8.5476 35.119L7.98413 35.464C5.84486 31.7163 6.57068 30.1636 5.31959 30.0965C4.0685 30.0294 4.52692 33.1828 5.19544 34.3809C5.56186 35.2378 5.82478 36.1356 5.97856 37.0551C3.78199 34.5055 4.0685 33.2212 3.01797 33.3362C1.96743 33.4512 2.91291 35.9912 3.67694 36.8634Z" fill="#FEAE94"/>
<path d="M13.1604 42.7294C13.9053 40.6782 16.5508 39.7389 16.885 39.6334C16.6617 39.6712 16.4329 39.6609 16.2139 39.603C15.9949 39.5452 15.7907 39.4412 15.6148 39.298C14.9079 39.5537 14.295 40.0186 13.8568 40.6312C13.4186 41.2438 13.1758 41.9754 13.1604 42.7294V42.7294Z" fill="#EC8468"/>
<path d="M16.0541 52.6497C14.144 53.6082 10.7537 53.752 8.7481 53.752H8.14644C7.35332 53.7495 6.58619 53.468 5.97852 52.9565C5.97852 52.5922 6.09312 52.2184 6.16952 51.8159C6.41139 52.1133 6.71572 52.3534 7.06076 52.5191C7.4058 52.6848 7.78304 52.7719 8.16554 52.7743C11.0306 52.7743 14.717 52.5251 16.0063 51.5667C16.035 51.9596 16.0541 52.3143 16.0541 52.6497Z" fill="#CFD8DC"/>
<path d="M15.949 54.3654C15.8992 54.7847 15.7998 55.1965 15.6529 55.5923C13.7429 56.3974 10.5913 56.5507 8.70985 56.5507H8.10818C7.34906 56.5519 6.61189 56.2951 6.01667 55.8223C5.87857 55.304 5.82694 54.7664 5.86386 54.2312C6.08641 54.6396 6.41348 54.9811 6.81135 55.2203C7.20922 55.4596 7.66348 55.588 8.12728 55.5923C11.0306 55.5923 14.6597 55.3239 15.949 54.3654Z" fill="#CFD8DC"/>
<path d="M40.4169 91.4493C40.4169 91.4493 42.6517 93.6826 42.327 94.852C42.0023 96.0213 34.1137 105.395 33.1587 108.271L30.561 106.804C30.561 106.804 34.5626 94.3056 40.4169 91.4493Z" fill="#CFD8DC"/>
<path d="M108.215 110.629C105.35 111.252 102.59 111.3 100.574 110.466C100.574 110.466 99.5048 99.8264 93.3926 93.9701C93.6376 93.2785 93.9924 92.6311 94.4431 92.0531C97.9194 94.6794 110.163 104.264 108.215 110.629Z" fill="#B5C4C9"/>
<path d="M91.5683 91.4493C91.5683 91.4493 101.348 100.526 100.517 111.098C100.517 111.098 96.2766 112.67 96.0761 111.098C95.8755 109.526 93.593 100.315 88.9898 94.8903C88.283 94.0085 91.5683 91.4493 91.5683 91.4493Z" fill="#CFD8DC"/>
</g>
<defs>
<clipPath id="clip0">
<rect width="127" height="284" fill="white"/>
</clipPath>
</defs>
</svg>
